# Blender 4.4.3
# www.blender.org
mtllib Lid.mtl
o Cylinder.020
v 0.027933 0.042925 -0.105988
v 0.027933 0.042925 -0.083505
v 0.029996 0.042071 -0.105988
v 0.029996 0.042071 -0.083505
v 0.030851 0.040007 -0.105988
v 0.030851 0.040007 -0.083505
v 0.029996 0.037943 -0.105988
v 0.029996 0.037943 -0.083505
v 0.027933 0.037089 -0.105988
v 0.027933 0.037089 -0.083505
v 0.025869 0.037943 -0.105988
v 0.025869 0.037943 -0.083505
v 0.025014 0.040007 -0.105988
v 0.025014 0.040007 -0.083505
v 0.025869 0.042071 -0.105988
v 0.025869 0.042071 -0.083505
v 0.039621 0.016234 -0.162315
v 0.029487 0.038912 -0.162315
v 0.039621 0.016234 -0.026531
v 0.029487 0.038912 -0.026531
v 0.037949 0.015487 -0.162315
v 0.027816 0.038165 -0.162315
v 0.037949 0.015487 -0.026531
v 0.027816 0.038165 -0.026531
v 0.041312 0.012449 -0.030933
v 0.041312 0.012449 -0.157913
v 0.029487 0.038912 -0.157913
v 0.029487 0.038912 -0.030933
v 0.039641 0.011702 -0.157913
v 0.039641 0.011702 -0.030933
v 0.027816 0.038165 -0.030933
v 0.027816 0.038165 -0.157913
v 0.041312 0.012449 -0.083568
v 0.041312 0.012449 -0.105278
v 0.029487 0.038912 -0.105278
v 0.029487 0.038912 -0.083568
v 0.039641 0.011702 -0.105278
v 0.039641 0.011702 -0.083568
v 0.027816 0.038165 -0.083568
v 0.027816 0.038165 -0.105278
v 0.042423 0.012945 -0.157913
v 0.040731 0.016730 -0.162315
v 0.030598 0.039408 -0.162315
v 0.030598 0.039408 -0.030933
v 0.030598 0.039408 -0.026531
v 0.040731 0.016730 -0.026531
v 0.026706 0.037669 -0.026531
v 0.036839 0.014991 -0.026531
v 0.038530 0.011206 -0.030933
v 0.026706 0.037669 -0.157913
v 0.026706 0.037669 -0.162315
v 0.036839 0.014991 -0.162315
v 0.042423 0.012945 -0.030933
v 0.042423 0.012945 -0.105278
v 0.030598 0.039408 -0.157913
v 0.030598 0.039408 -0.083568
v 0.038530 0.011206 -0.157913
v 0.038530 0.011206 -0.083568
v 0.026706 0.037669 -0.030933
v 0.026706 0.037669 -0.105278
v 0.042423 0.012945 -0.083568
v 0.030598 0.039408 -0.105278
v 0.038530 0.011206 -0.105278
v 0.026706 0.037669 -0.083568
v 0.027933 0.043330 -0.162295
v 0.027933 0.043330 -0.111316
v 0.030283 0.042357 -0.162295
v 0.030283 0.042357 -0.111316
v 0.031256 0.040007 -0.162295
v 0.031256 0.040007 -0.111316
v 0.030283 0.037657 -0.162295
v 0.030283 0.037657 -0.111316
v 0.027933 0.036684 -0.162295
v 0.027933 0.036684 -0.111316
v 0.025583 0.037657 -0.162295
v 0.025583 0.037657 -0.111316
v 0.024609 0.040007 -0.162295
v 0.024609 0.040007 -0.111316
v 0.025583 0.042357 -0.162295
v 0.025583 0.042357 -0.111316
v 0.027933 0.043330 -0.077577
v 0.027933 0.043330 -0.026598
v 0.030283 0.042357 -0.077577
v 0.030283 0.042357 -0.026598
v 0.031256 0.040007 -0.077577
v 0.031256 0.040007 -0.026598
v 0.030283 0.037657 -0.077577
v 0.030283 0.037657 -0.026598
v 0.027933 0.036684 -0.077577
v 0.027933 0.036684 -0.026598
v 0.025583 0.037657 -0.077577
v 0.025583 0.037657 -0.026598
v 0.024609 0.040007 -0.077577
v 0.024609 0.040007 -0.026598
v 0.025583 0.042357 -0.077577
v 0.025583 0.042357 -0.026598
v 0.045194 0.017449 -0.094746
v 0.038880 0.030991 -0.094746
v 0.043878 0.016835 -0.091178
v 0.037563 0.030376 -0.091178
v 0.040699 0.015353 -0.089700
v 0.034384 0.028894 -0.089700
v 0.037520 0.013870 -0.091178
v 0.031205 0.027412 -0.091178
v 0.036203 0.013256 -0.094746
v 0.029888 0.026798 -0.094746
v 0.037520 0.013870 -0.098315
v 0.031205 0.027412 -0.098315
v 0.040699 0.015353 -0.099793
v 0.034384 0.028894 -0.099793
v 0.043878 0.016835 -0.098315
v 0.037563 0.030376 -0.098315
v 0.044659 0.015649 -0.094746
v 0.042391 0.020514 -0.094746
v 0.044186 0.015428 -0.093464
v 0.041917 0.020294 -0.093464
v 0.043044 0.014896 -0.092933
v 0.040775 0.019761 -0.092933
v 0.041902 0.014363 -0.093464
v 0.039633 0.019228 -0.093464
v 0.041429 0.014142 -0.094746
v 0.039160 0.019008 -0.094746
v 0.041902 0.014363 -0.096029
v 0.039633 0.019228 -0.096029
v 0.043044 0.014896 -0.096560
v 0.040775 0.019761 -0.096560
v 0.044186 0.015428 -0.096029
v 0.041917 0.020294 -0.096029
vn 0.3827 0.9239 -0.0000
vn 0.9239 0.3827 -0.0000
vn 0.9239 -0.3827 -0.0000
vn 0.3827 -0.9239 -0.0000
vn -0.3827 -0.9239 -0.0000
vn -0.9239 -0.3827 -0.0000
vn -0.0000 -0.0000 1.0000
vn -0.9239 0.3827 -0.0000
vn -0.3827 0.9239 -0.0000
vn -0.0000 -0.0000 -1.0000
vn -0.4077 0.9131 -0.0000
vn 0.2970 -0.6646 -0.6856
vn -0.4081 0.9129 -0.0000
vn 0.2970 -0.6646 0.6856
vn 0.4081 -0.9129 -0.0000
vn 0.4077 -0.9131 -0.0000
vn 0.2969 -0.6647 0.6856
vn -0.4080 0.9130 -0.0000
vn 0.9130 0.4080 -0.0000
vn -0.9130 -0.4080 -0.0000
vn 0.9130 0.4080 0.0001
vn -0.9130 -0.4079 -0.0000
vn 0.9130 0.4080 -0.0001
vn 0.2969 -0.6647 -0.6856
vn 0.8394 0.3914 0.3771
vn 0.3520 0.1641 0.9215
vn -0.3520 -0.1641 0.9215
vn -0.8394 -0.3914 0.3771
vn -0.8394 -0.3914 -0.3771
vn -0.3520 -0.1641 -0.9215
vn -0.4226 0.9063 -0.0000
vn 0.3520 0.1641 -0.9215
vn 0.8394 0.3914 -0.3771
vn 0.4226 -0.9063 -0.0000
vt 1.000000 0.500000
vt 1.000000 1.000000
vt 0.875000 1.000000
vt 0.875000 0.500000
vt 0.750000 1.000000
vt 0.750000 0.500000
vt 0.625000 1.000000
vt 0.625000 0.500000
vt 0.500000 1.000000
vt 0.500000 0.500000
vt 0.375000 1.000000
vt 0.375000 0.500000
vt 0.250000 1.000000
vt 0.250000 0.500000
vt 0.419706 0.419706
vt 0.250000 0.490000
vt 0.080294 0.419706
vt 0.010000 0.250000
vt 0.080294 0.080294
vt 0.250000 0.010000
vt 0.419706 0.080294
vt 0.490000 0.250000
vt 0.125000 1.000000
vt 0.125000 0.500000
vt 0.000000 1.000000
vt 0.000000 0.500000
vt 0.750000 0.490000
vt 0.919706 0.419706
vt 0.990000 0.250000
vt 0.919706 0.080294
vt 0.750000 0.010000
vt 0.580294 0.080294
vt 0.510000 0.250000
vt 0.580294 0.419706
vt 0.875000 0.750000
vt 0.875000 0.666667
vt 0.375000 0.250000
vt 0.625000 0.250000
vt 0.625000 0.111111
vt 0.375000 0.111111
vt 0.375000 0.750000
vt 0.625000 0.750000
vt 0.125000 0.666667
vt 0.375000 0.666667
vt 0.125000 0.750000
vt 0.625000 0.666667
vt 0.875000 0.583333
vt 0.625000 0.583333
vt 0.625000 0.638889
vt 0.875000 0.638889
vt 0.375000 0.583333
vt 0.125000 0.583333
vt 0.125000 0.638889
vt 0.375000 0.638889
vt 0.125000 0.611111
vt 0.625000 0.611111
vt 0.625000 0.138889
vt 0.375000 0.138889
vt 0.375000 0.611111
vt 0.875000 0.611111
vt 0.375000 0.166667
vt 0.625000 0.166667
vt 0.375000 0.000000
vt 0.625000 0.000000
vt 0.625000 0.083333
vt 0.375000 0.083333
s 0
usemtl 
f 1/1/1 2/2/1 4/3/1 3/4/1
f 3/4/2 4/3/2 6/5/2 5/6/2
f 5/6/3 6/5/3 8/7/3 7/8/3
f 7/8/4 8/7/4 10/9/4 9/10/4
f 9/10/5 10/9/5 12/11/5 11/12/5
f 11/12/6 12/11/6 14/13/6 13/14/6
f 4/15/7 2/16/7 16/17/7 14/18/7 12/19/7 10/20/7 8/21/7 6/22/7
f 13/14/8 14/13/8 16/23/8 15/24/8
f 15/24/9 16/23/9 2/25/9 1/26/9
f 1/27/10 3/28/10 5/29/10 7/30/10 9/31/10 11/32/10 13/33/10 15/34/10
f 65/1/1 66/2/1 68/3/1 67/4/1
f 67/4/2 68/3/2 70/5/2 69/6/2
f 69/6/3 70/5/3 72/7/3 71/8/3
f 71/8/4 72/7/4 74/9/4 73/10/4
f 73/10/5 74/9/5 76/11/5 75/12/5
f 75/12/6 76/11/6 78/13/6 77/14/6
f 68/15/7 66/16/7 80/17/7 78/18/7 76/19/7 74/20/7 72/21/7 70/22/7
f 77/14/8 78/13/8 80/23/8 79/24/8
f 79/24/9 80/23/9 66/25/9 65/26/9
f 65/27/10 67/28/10 69/29/10 71/30/10 73/31/10 75/32/10 77/33/10 79/34/10
f 81/1/1 82/2/1 84/3/1 83/4/1
f 83/4/2 84/3/2 86/5/2 85/6/2
f 85/6/3 86/5/3 88/7/3 87/8/3
f 87/8/4 88/7/4 90/9/4 89/10/4
f 89/10/5 90/9/5 92/11/5 91/12/5
f 91/12/6 92/11/6 94/13/6 93/14/6
f 84/15/7 82/16/7 96/17/7 94/18/7 92/19/7 90/20/7 88/21/7 86/22/7
f 93/14/8 94/13/8 96/23/8 95/24/8
f 95/24/9 96/23/9 82/25/9 81/26/9
f 81/27/10 83/28/10 85/29/10 87/30/10 89/31/10 91/32/10 93/33/10 95/34/10
f 97/1/25 98/2/25 100/3/25 99/4/25
f 99/4/26 100/3/26 102/5/26 101/6/26
f 101/6/27 102/5/27 104/7/27 103/8/27
f 103/8/28 104/7/28 106/9/28 105/10/28
f 105/10/29 106/9/29 108/11/29 107/12/29
f 107/12/30 108/11/30 110/13/30 109/14/30
f 100/15/31 98/16/31 112/17/31 110/18/31 108/19/31 106/20/31 104/21/31 102/22/31
f 109/14/32 110/13/32 112/23/32 111/24/32
f 111/24/33 112/23/33 98/25/33 97/26/33
f 97/27/34 99/28/34 101/29/34 103/30/34 105/31/34 107/32/34 109/33/34 111/34/34
f 113/1/25 114/2/25 116/3/25 115/4/25
f 115/4/26 116/3/26 118/5/26 117/6/26
f 117/6/27 118/5/27 120/7/27 119/8/27
f 119/8/28 120/7/28 122/9/28 121/10/28
f 121/10/29 122/9/29 124/11/29 123/12/29
f 123/12/30 124/11/30 126/13/30 125/14/30
f 116/15/31 114/16/31 128/17/31 126/18/31 124/19/31 122/20/31 120/21/31 118/22/31
f 125/14/32 126/13/32 128/23/32 127/24/32
f 127/24/33 128/23/33 114/25/33 113/26/33
f 113/27/34 115/28/34 117/29/34 119/30/34 121/31/34 123/32/34 125/33/34 127/34/34
usemtl M4A1.001
f 18/35/11 27/36/11 55/36/11 43/35/11
f 19/37/7 20/38/7 24/8/7 23/12/7
f 35/39/7 34/40/7 54/40/7 62/39/7
f 21/41/10 22/42/10 18/7/10 17/11/10
f 26/43/12 29/44/12 21/41/12 17/45/12
f 32/46/13 27/36/13 18/35/13 22/42/13
f 24/8/13 20/4/13 28/47/13 31/48/13
f 40/49/13 35/50/13 27/36/13 32/46/13
f 19/24/14 23/12/14 30/51/14 25/52/14
f 34/53/15 37/54/15 29/44/15 26/43/15
f 23/12/7 24/8/7 47/8/7 48/12/7
f 25/52/16 33/55/16 61/55/16 53/52/16
f 34/53/16 26/43/16 41/43/16 54/53/16
f 19/24/17 25/52/17 53/52/17 46/24/17
f 31/48/18 39/56/18 64/56/18 59/48/18
f 34/40/19 35/39/19 36/57/19 33/58/19
f 40/49/18 32/46/18 50/46/18 60/49/18
f 38/59/20 39/56/20 40/49/20 37/54/20
f 25/52/15 30/51/15 38/59/15 33/55/15
f 33/55/15 38/59/15 37/54/15 34/53/15
f 31/48/13 28/47/13 36/60/13 39/56/13
f 39/56/13 36/60/13 35/50/13 40/49/13
f 53/61/21 44/62/21 45/38/21 46/37/21
f 57/44/22 50/46/22 51/42/22 52/41/22
f 48/12/22 47/8/22 59/48/22 49/51/22
f 63/54/22 60/49/22 50/46/22 57/44/22
f 42/63/23 43/64/23 55/65/23 41/66/23
f 61/58/19 56/57/19 44/62/19 53/61/19
f 41/66/19 55/65/19 62/39/19 54/40/19
f 49/51/22 59/48/22 64/56/22 58/59/22
f 30/51/17 23/12/17 48/12/17 49/51/17
f 33/58/10 36/57/10 56/57/10 61/58/10
f 26/43/24 17/45/24 42/45/24 41/43/24
f 36/60/11 28/47/11 44/47/11 56/60/11
f 27/36/11 35/50/11 62/50/11 55/36/11
f 32/46/18 22/42/18 51/42/18 50/46/18
f 39/56/10 38/59/10 58/59/10 64/56/10
f 17/11/10 18/7/10 43/7/10 42/11/10
f 21/41/24 29/44/24 57/44/24 52/41/24
f 22/42/10 21/41/10 52/41/10 51/42/10
f 37/54/7 40/49/7 60/49/7 63/54/7
f 28/47/11 20/4/11 45/4/18 44/47/11
f 38/59/16 30/51/16 49/51/16 58/59/16
f 29/44/16 37/54/16 63/54/16 57/44/16
f 20/38/7 19/37/7 46/37/7 45/38/7
f 24/8/18 31/48/18 59/48/18 47/8/18
