# Blender 4.4.3
# www.blender.org
mtllib Stock2.mtl
o Cylinder.080
v 0.000000 0.077095 0.287410
v 0.000000 0.077095 0.542214
v 0.014790 0.073132 0.287410
v 0.014790 0.073132 0.542214
v 0.025616 0.062306 0.287410
v 0.025616 0.062306 0.542214
v 0.029579 0.047516 0.287410
v 0.029579 0.047516 0.542214
v 0.025616 0.032726 0.287410
v 0.025616 0.032726 0.542214
v 0.014790 0.021900 0.287410
v 0.014790 0.021900 0.542214
v 0.000000 0.017937 0.287410
v 0.000000 0.017937 0.542214
v -0.014790 0.021900 0.287410
v -0.014790 0.021900 0.542214
v -0.025616 0.032726 0.287410
v -0.025616 0.032726 0.542214
v -0.029579 0.047516 0.287410
v -0.029579 0.047516 0.542214
v -0.025616 0.062306 0.287410
v -0.025616 0.062306 0.542214
v -0.014790 0.073132 0.287410
v -0.014790 0.073132 0.542214
v 0.014790 0.005452 0.542214
v 0.014790 0.005452 0.287410
v 0.000000 0.001489 0.287410
v 0.000000 0.001489 0.542214
v -0.014790 0.005452 0.287410
v -0.014790 0.005452 0.542214
v 0.022458 0.029568 0.368097
v 0.024456 0.031566 0.362335
v 0.024456 0.031566 0.330832
v 0.016379 0.023489 0.330832
v 0.018377 0.025487 0.325070
v 0.016379 0.023489 0.362335
v 0.022458 0.029568 0.325070
v 0.018377 0.025487 0.368097
v -0.018377 0.025487 0.368097
v -0.016379 0.023489 0.330832
v -0.016379 0.023489 0.362335
v -0.024456 0.031566 0.362335
v -0.024456 0.031566 0.330832
v -0.022458 0.029568 0.368097
v -0.018377 0.025487 0.325070
v -0.022458 0.029568 0.325070
v 0.018377 0.025487 0.499813
v 0.024456 0.031566 0.482283
v 0.024456 0.031566 0.494052
v 0.022458 0.029568 0.499813
v 0.022458 0.029568 0.476521
v 0.016379 0.023489 0.482283
v 0.016379 0.023489 0.494052
v 0.018377 0.025487 0.476521
v -0.024456 0.031566 0.482283
v -0.022458 0.029568 0.499813
v -0.016379 0.023489 0.482283
v -0.018377 0.025487 0.476521
v -0.016379 0.023489 0.494052
v -0.018377 0.025487 0.499813
v -0.024456 0.031566 0.494052
v -0.022458 0.029568 0.476521
v 0.000000 0.080285 0.539087
v 0.016384 0.075895 0.539087
v 0.028379 0.063900 0.539087
v 0.032769 0.047516 0.539087
v 0.028379 0.031132 0.539087
v 0.016384 0.019137 0.539087
v 0.000000 0.014747 0.539087
v -0.016384 0.019137 0.539087
v -0.028379 0.031132 0.539087
v -0.032769 0.047516 0.539087
v -0.028379 0.063900 0.539087
v -0.016384 0.075895 0.539087
v 0.021371 -0.091407 0.540821
v 0.021371 -0.091407 0.520884
v 0.018508 -0.107792 0.520884
v 0.018508 -0.107792 0.540821
v 0.010686 -0.119786 0.520884
v 0.010686 -0.119786 0.540821
v -0.000000 -0.124176 0.520884
v -0.000000 -0.124176 0.540821
v -0.010686 -0.119786 0.520884
v -0.010686 -0.119786 0.540821
v -0.018508 -0.107792 0.520884
v -0.018508 -0.107792 0.540821
v -0.021371 -0.091407 0.520884
v -0.021371 -0.091407 0.540821
v 0.000000 0.065373 0.559459
v -0.000000 0.077796 0.554817
v 0.008929 0.062981 0.559459
v 0.015140 0.073739 0.554817
v 0.015465 0.056445 0.559459
v 0.026223 0.062656 0.554817
v 0.017857 0.047516 0.559459
v 0.029597 0.043095 0.555870
v 0.015465 0.038587 0.559459
v 0.025043 0.018662 0.557050
v 0.008929 0.032051 0.559459
v 0.014477 0.008272 0.557155
v 0.000000 0.029659 0.559459
v -0.000000 0.004466 0.557192
v -0.008929 0.032051 0.559459
v -0.014477 0.008272 0.557155
v -0.015465 0.038587 0.559459
v -0.025043 0.018662 0.557050
v -0.017857 0.047516 0.559459
v -0.029597 0.043095 0.555870
v -0.015465 0.056445 0.559459
v -0.026223 0.062656 0.554817
v -0.008929 0.062981 0.559459
v -0.015140 0.073739 0.554817
v -0.013586 0.007287 0.538461
v 0.013586 0.007287 0.538461
v 0.013586 -0.079294 0.504614
v 0.013586 -0.002451 0.509180
v 0.013586 0.002740 0.503815
v 0.013586 -0.012308 0.382436
v 0.013586 0.002740 0.386938
v 0.013586 -0.084408 0.496218
v -0.013586 -0.002451 0.509180
v -0.013586 -0.079294 0.504614
v -0.013586 0.002740 0.503815
v -0.013586 -0.084408 0.496218
v -0.013586 -0.012308 0.382436
v -0.013586 0.002740 0.386938
v -0.009443 0.007287 0.302177
v -0.013586 0.005354 0.338215
v -0.013586 0.007287 0.335065
v -0.012372 0.006721 0.312733
v 0.013586 0.005354 0.338215
v 0.009443 0.007287 0.302177
v 0.013586 0.007287 0.335065
v 0.012372 0.006721 0.312733
v -0.004592 -0.121773 0.522289
v 0.004592 -0.121773 0.522289
v -0.004514 -0.122016 0.500648
v 0.004514 -0.122016 0.500648
v 0.013586 -0.094026 0.525766
v 0.013586 -0.094026 0.486602
v -0.013586 -0.094026 0.525766
v -0.013586 -0.094026 0.486602
v -0.009443 -0.106807 0.479723
v 0.009443 -0.106807 0.479723
v -0.011860 -0.099350 0.474774
v -0.012372 -0.097770 0.474353
v -0.013331 -0.094812 0.482635
v 0.012610 -0.097037 0.477989
v 0.012372 -0.097770 0.474353
v 0.009815 -0.105659 0.479385
v -0.011305 0.018414 0.372011
v 0.011305 0.018414 0.372011
v -0.011305 -0.003310 0.470209
v -0.006530 -0.005277 0.477237
v -0.006530 0.005687 0.368450
v -0.011305 0.006744 0.368746
v 0.006530 -0.005277 0.477237
v 0.011305 -0.003310 0.470209
v 0.011305 0.006744 0.368746
v 0.006530 0.005687 0.368450
v -0.011305 -0.011408 0.433608
v -0.006530 -0.012855 0.434710
v -0.011305 -0.013061 0.467480
v -0.006530 -0.015238 0.474449
v -0.011305 -0.013371 0.442791
v -0.006530 -0.015685 0.468514
v 0.011305 -0.013061 0.467480
v 0.006530 -0.015238 0.474449
v 0.011305 -0.011408 0.433608
v 0.006530 -0.012855 0.434710
v 0.011305 -0.013371 0.442791
v 0.006530 -0.015685 0.468514
v 0.000090 0.080155 0.285848
v 0.016141 0.075854 0.285848
v 0.027892 0.064104 0.285848
v 0.032193 0.048053 0.285848
v 0.027892 0.032002 0.285848
v 0.016141 0.020251 0.285848
v 0.000090 0.015950 0.285848
v -0.015961 0.020251 0.285848
v -0.027711 0.032002 0.285848
v -0.032012 0.048053 0.285848
v -0.027711 0.064104 0.285848
v -0.015961 0.075854 0.285848
v 0.000090 -0.001901 0.285848
v -0.015961 0.002400 0.285848
v 0.000090 0.080155 0.279594
v 0.016141 0.075854 0.279594
v 0.027892 0.064104 0.279594
v 0.032193 0.048053 0.279594
v 0.027892 0.032002 0.279594
v 0.016141 0.020251 0.279594
v 0.000090 0.015950 0.279594
v -0.015961 0.020251 0.279594
v -0.027711 0.032002 0.279594
v -0.032012 0.048053 0.279594
v -0.027711 0.064104 0.279594
v -0.015961 0.075854 0.279594
v 0.000090 -0.001901 0.279594
v -0.015961 0.002400 0.279594
vn 0.2588 0.9659 -0.0000
vn 0.5000 0.8660 -0.0000
vn 0.8660 0.5000 -0.0000
vn 0.9659 0.2588 -0.0000
vn 0.9659 -0.2588 -0.0000
vn 0.8660 -0.5000 -0.0000
vn 0.7071 -0.7071 -0.0000
vn -0.4359 -0.4359 0.7874
vn -0.4974 -0.3087 0.8107
vn -0.5096 -0.2798 0.8137
vn -1.0000 -0.0000 -0.0000
vn -0.7071 -0.7071 -0.0000
vn -0.9659 -0.2588 -0.0000
vn -0.9659 0.2588 -0.0000
vn -0.8660 0.5000 -0.0000
vn -0.0000 -0.0000 1.0000
vn -0.5000 0.8660 -0.0000
vn -0.2588 0.9659 -0.0000
vn 0.5156 -0.0187 0.8566
vn 0.4739 -0.2976 0.8288
vn 0.4867 -0.2652 0.8324
vn 0.5110 0.0122 0.8595
vn 0.2588 -0.9659 -0.0000
vn -0.2588 -0.9659 -0.0000
vn 1.0000 -0.0000 -0.0000
vn -0.0000 -0.0000 -1.0000
vn -0.0000 -0.9891 0.1475
vn -0.0000 -0.9891 -0.1475
vn -0.0000 0.9834 0.1813
vn -0.0000 0.9448 0.3276
vn -0.0000 -0.9448 0.3276
vn -0.0000 0.9834 -0.1813
vn -0.0000 0.9448 -0.3276
vn -0.0000 -0.9448 -0.3276
vn -0.4939 0.8554 0.1563
vn -0.0000 0.9877 0.1563
vn 0.9577 0.2126 0.1940
vn 0.9907 0.0460 0.1284
vn 0.9863 0.0824 0.1430
vn 0.9914 -0.1250 0.0394
vn 0.9910 -0.1286 0.0365
vn 0.7597 -0.1196 0.6391
vn -0.0000 0.0764 -0.9971
vn -0.0722 0.0791 -0.9943
vn -0.0692 0.1323 -0.9888
vn -0.0000 0.1308 -0.9914
vn -0.7597 -0.1196 0.6391
vn 0.0361 0.0299 -0.9989
vn 0.0722 0.0791 -0.9943
vn 0.0692 0.1323 -0.9888
vn 0.1662 0.1373 -0.9765
vn 0.0917 -0.1116 0.9895
vn -0.0000 -0.1116 0.9938
vn -0.0000 -0.1270 0.9919
vn 0.0700 -0.1281 0.9893
vn -0.0361 0.0299 -0.9989
vn -0.1662 0.1373 -0.9765
vn -0.6990 0.6990 0.1511
vn 0.4939 0.8554 0.1563
vn 0.6990 0.6990 0.1511
vn 0.9303 -0.3667 -0.0000
vn 0.8376 -0.5463 -0.0000
vn 0.3800 -0.9250 -0.0000
vn -0.3800 -0.9250 -0.0000
vn -0.8376 -0.5463 -0.0000
vn -0.9303 -0.3667 -0.0000
vn -0.9914 -0.1250 0.0394
vn -0.9910 -0.1286 0.0365
vn -0.0917 -0.1116 0.9895
vn -0.0700 -0.1281 0.9893
vn -0.6637 0.1469 -0.7335
vn 0.6637 0.1469 -0.7335
vn 0.1358 -0.0788 0.9876
vn 0.1659 -0.1318 0.9773
vn -0.9907 0.0460 0.1284
vn -0.9863 0.0824 0.1430
vn -0.9577 0.2126 0.1940
vn -0.1358 -0.0788 0.9876
vn -0.1659 -0.1318 0.9773
vn 0.1750 0.3031 0.9367
vn -0.0000 0.3500 0.9367
vn -0.0000 0.2062 0.9785
vn 0.1031 0.1786 0.9785
vn 0.2943 0.1825 0.9381
vn 0.1743 0.1057 0.9790
vn 0.2842 0.0283 0.9583
vn 0.1774 0.0315 0.9836
vn 0.1144 -0.0226 0.9932
vn 0.0345 -0.0486 0.9982
vn -0.0000 -0.0526 0.9986
vn -0.0345 -0.0486 0.9982
vn -0.1144 -0.0226 0.9932
vn -0.2842 0.0283 0.9583
vn -0.1774 0.0315 0.9836
vn -0.2943 0.1825 0.9381
vn -0.1743 0.1057 0.9790
vn -0.1750 0.3031 0.9367
vn -0.1031 0.1786 0.9785
vn -0.0000 -0.9999 0.0112
vn 0.9896 -0.1440 -0.0000
vn 0.9883 -0.1520 -0.0087
vn 0.9986 -0.0436 -0.0283
vn -0.9967 -0.0697 -0.0428
vn -0.9987 -0.0434 -0.0284
vn 0.9967 -0.0697 -0.0428
vn -0.9875 -0.1571 -0.0074
vn -0.9896 -0.1440 -0.0000
vn -0.0000 -0.8387 -0.5446
vn -0.0000 -0.1243 0.9922
vn -0.0000 0.8447 0.5353
vn -0.0000 0.8541 -0.5202
vn -0.0000 -0.2866 0.9580
vn -0.0000 0.0593 -0.9982
vn -0.0000 -0.7187 -0.6953
vn -0.0000 -1.0000 -0.0000
vn -0.0279 0.9996 -0.0035
vn -0.3334 0.9418 -0.0420
vn -0.0081 1.0000 -0.0010
vn -0.8990 -0.3680 -0.2377
vn 0.8993 -0.3677 -0.2369
vn 0.3334 0.9418 -0.0420
vn 0.0279 0.9996 -0.0035
vn 0.0081 1.0000 -0.0010
vn -0.8610 -0.4273 -0.2758
vn -0.9438 -0.3281 -0.0413
vn -0.9175 -0.3724 -0.1396
vn -0.9514 -0.2807 -0.1271
vn -0.9794 -0.1997 -0.0294
vn 0.9492 -0.2812 -0.1413
vn 0.9794 -0.2000 -0.0293
vn 0.9176 -0.3722 -0.1392
vn 0.9385 -0.3391 -0.0650
vn 0.8615 -0.4270 -0.2749
vn -0.0000 1.0000 -0.0000
vn -0.9513 -0.3083 -0.0000
vn 0.9513 -0.3083 -0.0000
vn -0.1127 -0.9569 -0.2678
vn 0.1127 -0.9569 -0.2678
vn 0.0698 -0.9819 -0.1763
vn -0.0698 -0.9819 -0.1763
vn 0.2360 -0.9717 0.0049
vn -0.2360 -0.9717 0.0049
vn -0.0000 0.2695 -0.9630
vn -0.0000 -0.2695 0.9630
vn 0.1506 -0.9867 0.0607
vn -0.1506 -0.9867 0.0607
vn -0.1076 -0.9889 -0.1023
vn -0.1656 -0.9654 -0.2012
vn 0.1656 -0.9654 -0.2012
vn 0.1076 -0.9889 -0.1023
vn -0.4851 -0.8742 0.0216
vn 0.4851 -0.8742 0.0216
vn -0.2239 -0.9386 -0.2627
vn 0.2239 -0.9386 -0.2627
vn -0.8368 -0.1476 0.5273
vn 0.8368 -0.1476 0.5273
vn -0.0000 0.9757 0.2189
vn -0.2436 0.4015 0.8828
vn -0.0025 0.4545 0.8907
vn 0.0016 0.4544 0.8908
vn -0.2283 0.4086 0.8837
vn 0.2336 0.3939 0.8890
vn 0.2257 0.3979 0.8892
vn 0.2849 -0.5256 0.8016
vn 0.3068 -0.5097 0.8038
vn -0.5432 -0.0206 0.8394
vn -0.5379 0.0135 0.8429
vn 0.9983 -0.0000 0.0576
vn 0.9999 -0.0000 0.0124
vn 0.9994 -0.0000 0.0353
vn 0.4215 0.2285 0.8775
vn 0.4089 0.2457 0.8789
vn 0.1622 -0.6052 0.7794
vn -0.4423 0.2359 0.8653
vn -0.4251 0.2581 0.8676
vn -0.1121 -0.4182 0.9014
vn -0.7999 -0.0000 0.6002
vn -0.8660 -0.5000 -0.0000
vn 0.7071 0.7071 -0.0000
vn -0.7071 0.7071 -0.0000
vt 1.000000 0.500000
vt 1.000000 1.000000
vt 0.916667 1.000000
vt 0.916667 0.500000
vt 0.833333 1.000000
vt 0.833333 0.500000
vt 0.750000 1.000000
vt 0.750000 0.500000
vt 0.666667 1.000000
vt 0.666667 0.500000
vt 0.657733 0.592689
vt 0.642356 0.580391
vt 0.642356 0.909491
vt 0.657733 0.897192
vt 0.657733 0.872069
vt 0.642356 0.859771
vt 0.610943 0.859771
vt 0.595566 0.872069
vt 0.595566 0.897192
vt 0.610943 0.909491
vt 0.583333 1.000000
vt 0.583333 0.500000
vt 0.610943 0.580391
vt 0.595566 0.592689
vt 0.595566 0.659937
vt 0.610943 0.672236
vt 0.642356 0.672236
vt 0.657733 0.659937
vt 0.416667 0.500000
vt 0.333333 0.500000
vt 0.416667 1.000000
vt 0.404435 0.592689
vt 0.389057 0.580391
vt 0.389057 0.909491
vt 0.404435 0.897192
vt 0.404434 0.872069
vt 0.389057 0.859771
vt 0.357644 0.859771
vt 0.342267 0.872069
vt 0.342267 0.897192
vt 0.357644 0.909491
vt 0.333333 1.000000
vt 0.357645 0.580391
vt 0.342267 0.592689
vt 0.342267 0.659937
vt 0.357644 0.672236
vt 0.389057 0.672236
vt 0.404434 0.659937
vt 0.250000 1.000000
vt 0.250000 0.500000
vt 0.166667 1.000000
vt 0.166667 0.500000
vt 0.130000 0.457846
vt 0.042154 0.370000
vt 0.010000 0.250000
vt 0.042154 0.130000
vt 0.130000 0.042154
vt 0.250000 0.010000
vt 0.370000 0.042154
vt 0.457846 0.130000
vt 0.490000 0.250000
vt 0.457846 0.370000
vt 0.370000 0.457846
vt 0.250000 0.490000
vt 0.083333 1.000000
vt 0.083333 0.500000
vt 0.000000 1.000000
vt 0.000000 0.500000
vt 0.500000 1.000000
vt 0.500000 0.500000
vt 0.750000 0.010000
vt 0.870000 0.042154
vt 0.436839 0.837306
vt 0.436839 0.912694
vt 0.436839 0.921066
vt 0.436839 0.828934
vt 0.800164 0.561839
vt 0.699836 0.561839
vt 0.699836 0.561839
vt 0.436839 0.337306
vt 0.436839 0.412694
vt 0.436839 0.421066
vt 0.436839 0.328934
vt 0.283596 0.561839
vt 0.287694 0.500000
vt 0.212306 0.500000
vt 0.216404 0.561839
vt 0.563161 0.328934
vt 0.563161 0.421066
vt 0.625000 0.425164
vt 0.625000 0.324836
vt 0.283596 0.688161
vt 0.216404 0.688161
vt 0.212306 0.750000
vt 0.287694 0.750000
vt 0.625000 0.824836
vt 0.563161 0.828934
vt 0.563161 0.921066
vt 0.625000 0.925164
vt 0.216404 0.561839
vt 0.436839 0.921066
vt 0.800164 0.561839
vt 0.699836 0.561839
vt 0.436839 0.337306
vt 0.436839 0.412694
vt 0.436839 0.421066
vt 0.212306 0.500000
vt 0.216404 0.688161
vt 0.625000 0.824836
vt 0.563161 0.921066
vt 0.083333 0.912435
vt 0.000000 0.912435
vt 0.833333 0.912435
vt 0.728191 0.932869
vt 0.750000 0.946908
vt 0.518734 0.357237
vt -0.018734 0.357237
vt 0.542154 0.130000
vt 0.630000 0.042154
vt 0.957846 0.130000
vt 0.166667 0.912435
vt 0.083333 0.912435
vt 1.000000 0.912435
vt 0.916667 0.912435
vt 0.916667 0.912435
vt 0.833333 0.912435
vt 0.750000 0.490000
vt 0.870000 0.457846
vt 0.957846 0.370000
vt 0.990000 0.250000
vt 0.510000 0.250000
vt 0.542154 0.370000
vt 0.630000 0.457846
vt 0.250000 0.946908
vt 0.271809 0.932869
vt 0.166667 0.912435
vt 0.250000 0.394051
vt 0.322026 0.374752
vt 0.374752 0.322026
vt 0.394051 0.250000
vt 0.374752 0.177974
vt 0.322026 0.125248
vt 0.250000 0.105949
vt 0.177974 0.125248
vt 0.125248 0.177974
vt 0.105949 0.250000
vt 0.125248 0.322026
vt 0.177974 0.374752
vt 0.375000 0.417253
vt 0.375000 0.332747
vt 0.400040 0.333469
vt 0.400040 0.416531
vt 0.617089 0.590982
vt 0.590911 0.561772
vt 0.465496 0.554856
vt 0.474397 0.572744
vt 0.608061 0.700540
vt 0.617089 0.702596
vt 0.625000 0.750000
vt 0.448784 0.573784
vt 0.448784 0.528395
vt 0.621636 0.538683
vt 0.625000 0.211886
vt 0.621636 0.207954
vt 0.617089 0.151107
vt 0.617089 0.039493
vt 0.625000 0.000000
vt 0.625000 0.538114
vt 0.608061 0.032521
vt 0.474397 0.026652
vt 0.465496 0.035640
vt 0.590911 0.154139
vt 0.448784 0.045388
vt 0.448784 0.000000
vt 0.426500 0.288114
vt 0.625000 0.288114
vt 0.625000 0.461886
vt 0.426500 0.461886
vt 0.400523 0.917253
vt 0.400523 0.832747
vt 0.448784 0.750000
vt 0.625000 1.000000
vt 0.448784 1.000000
vt 0.400040 0.278297
vt 0.400040 0.471703
vt 0.617211 0.471703
vt 0.617211 0.278297
vt 0.375000 0.278297
vt 0.375000 0.471703
vt 0.625000 0.471703
vt 0.625000 0.278297
vt 0.620003 0.971703
vt 0.620003 0.778297
vt 0.400523 0.778297
vt 0.400523 0.971703
vt 0.846703 0.720993
vt 0.653297 0.720993
vt 0.653297 0.750000
vt 0.846703 0.750000
vt 0.846703 0.560616
vt 0.653297 0.560616
vt 0.625000 0.261163
vt 0.623787 0.250000
vt 0.620405 0.250000
vt 0.620405 0.500000
vt 0.625000 0.488837
vt 0.623787 0.500000
vt 0.439355 0.256908
vt 0.442055 0.250000
vt 0.623654 0.250000
vt 0.623654 0.248654
vt 0.442055 0.067055
vt 0.447368 0.051732
vt 0.442055 0.500000
vt 0.623654 0.500000
vt 0.443373 0.507128
vt 0.428465 0.466915
vt 0.663114 0.500000
vt 0.836886 0.500000
vt 0.875000 0.538114
vt 0.875000 0.750000
vt 0.836223 0.629310
vt 0.836223 0.559169
vt 0.835172 0.552063
vt 0.831214 0.537230
vt 0.829099 0.537984
vt 0.819121 0.546848
vt 0.798771 0.584324
vt 0.799095 0.623083
vt 0.667806 0.543742
vt 0.663777 0.559169
vt 0.663777 0.629310
vt 0.700905 0.623083
vt 0.701229 0.584324
vt 0.680879 0.546848
vt 0.679342 0.546243
vt 0.668786 0.537230
vt 0.395755 0.058450
vt 0.406795 0.031795
vt 0.433450 0.020755
vt 0.625000 0.020755
vt 0.625000 0.250000
vt 0.395755 0.250000
vt 0.145755 0.500000
vt 0.354245 0.500000
vt 0.354245 0.695679
vt 0.145755 0.695679
vt 0.354245 0.750000
vt 0.145755 0.750000
vt 0.375000 0.270755
vt 0.625000 0.500000
vt 0.395755 0.500000
vt 0.375000 0.479245
vt 0.429321 0.770755
vt 0.625000 0.770755
vt 0.625000 0.979245
vt 0.429321 0.979245
vt 0.375000 0.979245
vt 0.375000 0.770755
vt 0.625000 0.729245
vt 0.433450 0.729245
vt 0.406795 0.718205
vt 0.395755 0.691550
vt 0.125000 0.738768
vt 0.125000 0.701073
vt 0.375000 0.701073
vt 0.375000 0.738768
vt 0.423927 1.000000
vt 0.386232 1.000000
vt 0.386232 0.750000
vt 0.423927 0.750000
vt 0.125000 0.691550
vt 0.125000 0.500000
vt 0.429321 0.000000
vt 0.875000 0.500000
vt 0.875000 0.729245
vt 0.854245 0.750000
vt 0.645755 0.750000
s 1
f 1/1/1 2/2/1 4/3/2 3/4/2
f 3/4/2 4/3/2 6/5/3 5/6/3
f 5/6/3 6/5/3 8/7/4 7/8/4
f 7/8/5 8/7/5 10/9/6 9/10/6
f 33/11/7 37/12/7 9/10/6 10/9/6 50/13/7 49/14/7 48/15/7 51/16/7 54/17/7 52/18/7 53/19/7 47/20/7 12/21/7 11/22/7 35/23/7 34/24/7 36/25/7 38/26/7 31/27/7 32/28/7
f 50/13/7 10/9/6 12/21/7 47/20/7
f 35/23/7 11/22/7 9/10/6 37/12/7
f 15/29/8 17/30/9 181/30/10 180/29/8
f 16/31/11 15/29/11 29/29/11 30/31/11
f 40/32/12 45/33/12 15/29/12 16/31/12 60/34/12 59/35/12 57/36/12 58/37/12 62/38/12 55/39/12 61/40/12 56/41/12 18/42/12 17/30/12 46/43/12 43/44/12 42/45/12 44/46/12 39/47/12 41/48/12
f 60/34/12 16/31/12 18/42/12 56/41/12
f 46/43/12 17/30/12 15/29/12 45/33/12
f 17/30/13 18/42/13 20/49/13 19/50/13
f 19/50/14 20/49/14 22/51/15 21/52/15
f 24/53/16 22/54/16 20/55/16 18/56/16 16/57/16 14/58/16 12/59/16 10/60/16 8/61/16 6/62/16 4/63/16 2/64/16
f 21/52/15 22/51/15 24/65/17 23/66/17
f 23/66/17 24/65/17 2/67/18 1/68/18
f 7/8/19 9/10/20 177/10/21 176/8/22
f 26/22/23 25/21/23 28/69/23 27/70/23
f 27/70/24 28/69/24 30/31/24 29/29/24
f 12/59/16 14/58/16 28/58/16 25/59/16
f 11/22/25 12/21/25 25/21/25 26/22/25
f 14/58/16 16/57/16 30/57/16 28/58/16
f 13/71/26 11/72/26 26/72/26 27/71/26
f 38/73/26 39/74/26 44/75/26 31/76/26
f 43/77/27 33/78/27 32/79/28 42/77/28
f 45/80/16 35/81/16 37/82/16 46/83/16
f 34/84/29 35/85/30 45/86/30 40/87/29
f 46/88/31 37/89/31 33/90/27 43/91/27
f 36/92/32 41/93/32 39/94/33 38/95/33
f 32/96/28 31/97/34 44/98/34 42/99/28
f 34/84/29 40/87/29 41/100/32 36/84/32
f 56/101/26 50/76/26 47/73/26 60/74/26
f 55/102/27 48/103/27 49/103/28 61/102/28
f 58/104/16 54/105/16 51/106/16 62/83/16
f 52/84/29 54/85/30 58/107/30 57/87/29
f 62/88/31 51/89/31 48/90/27 55/91/27
f 53/92/32 59/108/32 60/94/33 47/95/33
f 49/109/28 50/97/34 56/110/34 61/99/28
f 52/84/29 57/87/29 59/87/32 53/84/32
f 74/66/35 112/111/35 90/112/36 63/68/36
f 65/6/37 94/113/37 96/114/38 66/8/39
f 66/8/39 96/115/38 75/7/40 76/8/41
f 96/116/42 98/60/42 78/60/42 75/61/42
f 69/71/43 68/72/44 79/72/45 81/71/46
f 106/56/47 108/117/47 88/55/47 86/56/47
f 71/118/48 70/119/49 83/119/50 85/118/51
f 100/59/52 102/58/53 82/58/54 80/59/55
f 68/72/44 67/120/56 77/120/57 79/72/45
f 73/52/58 110/121/58 112/122/35 74/66/35
f 63/1/36 90/123/36 92/124/59 64/4/59
f 64/4/59 92/125/59 94/126/60 65/6/60
f 63/127/26 64/128/26 65/129/26 66/130/26 67/120/56 68/72/44 69/71/43 70/119/49 71/118/48 72/131/26 73/132/26 74/133/26
f 76/8/41 75/7/40 78/9/61 77/10/61
f 77/10/61 78/9/61 80/21/62 79/22/62
f 79/22/63 80/21/63 82/69/63 81/70/63
f 81/70/64 82/69/64 84/31/64 83/29/64
f 83/29/65 84/31/65 86/42/66 85/30/66
f 85/30/66 86/42/66 88/49/67 87/50/68
f 102/58/53 104/57/69 84/57/70 82/58/54
f 67/120/71 66/130/71 76/130/71 77/120/71
f 72/131/72 71/118/72 85/118/72 87/131/72
f 98/60/73 100/59/52 80/59/55 78/60/74
f 108/134/75 72/50/76 87/50/68 88/49/67
f 70/119/49 69/71/43 81/71/46 83/119/50
f 72/50/76 108/135/75 110/136/77 73/52/77
f 104/57/69 106/56/78 86/56/79 84/57/70
f 92/63/80 90/64/81 89/137/82 91/138/83
f 94/62/84 92/63/80 91/138/83 93/139/85
f 96/61/86 94/62/84 93/139/85 95/140/87
f 98/60/73 96/116/86 95/140/87 97/141/88
f 100/59/52 98/60/73 97/141/88 99/142/89
f 102/58/53 100/59/52 99/142/89 101/143/90
f 104/57/69 102/58/53 101/143/90 103/144/91
f 106/56/78 104/57/69 103/144/91 105/145/92
f 108/117/93 106/56/78 105/145/92 107/146/94
f 110/54/95 108/55/93 107/146/94 109/147/96
f 112/53/97 110/54/95 109/147/96 111/148/98
f 90/64/81 112/53/97 111/148/98 89/137/82
f 91/138/83 89/137/82 111/148/98 109/147/96 107/146/94 105/145/92 103/144/91 101/143/90 99/142/89 97/141/88 95/140/87 93/139/85
f 136/149/99 135/150/99 137/151/99 138/152/99
f 119/153/25 118/154/25 120/155/25 115/156/25 116/157/25 117/158/25 114/159/25 139/160/100 140/161/101 131/162/102
f 129/163/103 128/164/104 126/165/11 123/166/11 113/167/11
f 131/162/102 133/168/105 114/159/25 117/158/25 119/153/25
f 113/167/11 123/166/11 121/169/11 122/170/11 124/171/11 125/172/11 126/165/11 128/164/104 142/173/106 141/174/107
f 138/152/108 137/151/108 143/175/108 127/176/108 132/177/108 144/178/108
f 135/179/109 136/180/109 139/181/109 114/159/109 113/182/109 141/183/109
f 124/184/110 120/185/110 118/186/110 125/187/110
f 122/188/111 115/189/111 120/185/111 124/184/111
f 118/186/112 119/190/112 126/191/112 125/187/112
f 121/192/113 116/193/113 115/194/113 122/195/113
f 123/196/114 117/197/114 116/198/114 121/199/114
f 126/200/115 119/201/115 117/197/115 123/196/115
f 127/176/116 130/202/117 129/203/118
f 130/202/119 128/204/104 129/203/103
f 131/205/102 134/206/120 133/207/105
f 134/206/121 132/177/122 133/207/123
f 127/176/124 143/175/125 145/208/126 146/209/127 130/210/119
f 130/211/119 146/212/127 147/213/128 142/173/106 128/164/104
f 149/214/129 134/215/120 131/162/102 140/161/101 148/216/130
f 150/217/131 144/178/132 132/177/133 134/215/120 149/214/129
f 132/218/122 127/219/116 129/220/118 113/221/134 114/159/134 133/168/123
f 141/222/107 142/223/106 147/224/128 146/225/127 145/226/126 143/227/125 137/228/135 135/229/135
f 148/230/130 140/231/101 139/232/100 136/233/136 138/234/136 144/235/132 150/236/131 149/237/129
f 161/238/11 165/239/11 163/240/11 153/241/11 151/242/11 156/243/11
f 155/244/137 160/245/138 170/246/139 162/247/140
f 162/247/140 170/246/139 172/248/141 166/249/142
f 155/250/143 156/243/143 151/242/143 152/251/143 159/252/143 160/253/143
f 168/254/144 157/255/144 154/256/144 164/257/144
f 166/258/142 172/259/141 168/254/145 164/257/146
f 159/252/25 152/251/25 158/260/25 167/261/25 171/262/25 169/263/25
f 165/264/147 161/265/148 162/247/140 166/249/142
f 169/266/149 171/267/150 172/248/141 170/246/139
f 163/268/151 165/269/147 166/258/142 164/257/146
f 171/270/150 167/271/152 168/254/145 172/259/141
f 161/272/148 156/273/153 155/244/137 162/247/140
f 159/252/154 169/263/149 170/246/139 160/245/138
f 164/274/155 154/167/155 153/241/155 163/240/155
f 167/261/156 158/260/156 157/255/156 168/254/156
f 152/251/157 151/275/157 153/276/157 154/277/157 157/278/157 158/260/157
f 184/66/18 173/68/134 187/68/134 198/66/18
f 178/72/23 179/71/23 193/71/23 192/72/23
f 23/66/158 1/68/159 173/68/160 184/66/161
f 1/1/159 3/4/162 174/4/163 173/1/160
f 9/10/20 11/22/164 178/22/165 177/10/21
f 17/30/9 19/50/166 182/50/167 181/30/10
f 13/71/168 27/71/168 185/71/169 179/71/170
f 3/4/162 5/6/171 175/6/172 174/4/163
f 11/72/164 13/71/173 179/71/173 178/72/165
f 19/50/166 21/52/174 183/52/175 182/50/167
f 27/70/176 29/29/176 186/29/176 185/70/176
f 29/29/177 15/29/177 180/29/177 186/29/177
f 5/6/171 7/8/19 176/8/22 175/6/172
f 21/52/174 23/66/158 184/66/161 183/52/175
f 194/119/26 193/71/26 199/71/26 200/119/26
f 197/132/26 198/133/26 187/127/26 188/128/26 189/129/26 190/130/26 191/120/26 192/72/26 193/71/26 194/119/26 195/118/26 196/131/26
f 182/50/11 183/52/15 197/52/15 196/50/11
f 180/29/12 181/30/178 195/30/178 194/29/12
f 173/1/134 174/4/1 188/4/1 187/1/134
f 181/30/178 182/50/11 196/50/11 195/30/178
f 174/4/179 175/6/3 189/6/3 188/4/179
f 183/52/15 184/66/180 198/66/180 197/52/15
f 175/6/3 176/8/25 190/8/25 189/6/3
f 179/71/170 185/71/169 199/71/25 193/71/25
f 176/8/25 177/10/6 191/10/6 190/8/25
f 186/29/11 180/29/11 194/29/11 200/29/11
f 177/10/6 178/22/7 192/22/7 191/10/6
f 185/70/24 186/29/24 200/29/24 199/70/24
