# Blender 4.4.3
# www.blender.org
mtllib Stock1.mtl
o Cylinder.012
v 0.000000 0.078425 0.285205
v 0.000000 0.078425 0.543244
v 0.021613 0.069473 0.285205
v 0.021613 0.069473 0.543244
v 0.030565 0.047860 0.285205
v 0.030565 0.047860 0.543244
v 0.021613 0.026248 0.285205
v 0.021613 0.026248 0.543244
v 0.000000 0.017296 0.285205
v 0.000000 0.017296 0.543244
v -0.021613 0.026248 0.285205
v -0.021613 0.026248 0.543244
v -0.030565 0.047860 0.285205
v -0.030565 0.047860 0.543244
v -0.021613 0.069473 0.285205
v -0.021613 0.069473 0.543244
v 0.000000 0.081087 0.284466
v 0.023495 0.071355 0.284466
v 0.033226 0.047860 0.284466
v 0.023495 0.024366 0.284466
v 0.000000 0.014634 0.284466
v -0.023495 0.024366 0.284466
v -0.033226 0.047860 0.284466
v -0.023495 0.071355 0.284466
v 0.000000 0.081087 0.278302
v 0.023495 0.071355 0.278302
v 0.033226 0.047860 0.278302
v 0.023495 0.024366 0.278302
v 0.000000 0.014634 0.278302
v -0.023495 0.024366 0.278302
v -0.033226 0.047860 0.278302
v -0.023495 0.071355 0.278302
v 0.010806 0.021772 0.285205
v 0.010806 0.021772 0.543244
v 0.011747 0.019500 0.284466
v 0.011747 0.019500 0.278302
v -0.010806 0.021772 0.285205
v -0.010806 0.021772 0.543244
v -0.011747 0.019500 0.284466
v -0.011747 0.019500 0.278302
v 0.000000 -0.135466 0.524903
v -0.010806 -0.135459 0.524903
v 0.011747 0.003071 0.284466
v 0.000000 0.003063 0.284466
v 0.011747 0.003071 0.278302
v 0.000000 0.003063 0.278302
v 0.010806 -0.135459 0.524903
v -0.011747 0.003071 0.284466
v -0.011747 0.003071 0.278302
v 0.010806 0.005369 0.285205
v 0.000000 0.005362 0.285205
v -0.010806 0.005369 0.285205
v 0.010806 -0.048545 0.451690
v 0.000000 -0.048552 0.451690
v -0.010806 -0.048545 0.451690
v 0.010806 -0.034772 0.396069
v 0.000000 -0.034779 0.396069
v -0.010806 -0.034772 0.396069
v 0.010806 -0.035396 0.324988
v 0.000000 -0.035403 0.324988
v -0.010806 -0.035396 0.324988
v 0.010806 -0.014265 0.324948
v 0.010806 0.003070 0.314287
v 0.000000 -0.014272 0.324948
v 0.000000 0.003062 0.314287
v -0.010806 0.003070 0.314287
v -0.010806 -0.014265 0.324948
v -0.014597 -0.026176 0.428621
v 0.014596 -0.026176 0.428621
v -0.014597 -0.013702 0.380799
v -0.014597 -0.012881 0.374396
v -0.014597 -0.016134 0.377572
v -0.014597 -0.012881 0.325376
v -0.014597 -0.016135 0.322123
v 0.014596 -0.012881 0.374396
v 0.014596 -0.013702 0.380799
v 0.014596 -0.016134 0.377572
v 0.014596 -0.016135 0.322123
v 0.014596 -0.012881 0.325376
v -0.010813 -0.036796 0.377079
v -0.014597 -0.032964 0.377171
v -0.010813 -0.036796 0.322123
v -0.014597 -0.032965 0.322123
v 0.014596 -0.032964 0.377171
v 0.010813 -0.036796 0.377079
v 0.014596 -0.032965 0.322123
v 0.010813 -0.036796 0.322123
v -0.014597 -0.046232 0.428621
v -0.010813 -0.050090 0.428621
v 0.010813 -0.050090 0.428621
v 0.014596 -0.046232 0.428621
v -0.000000 -0.034940 0.371600
v 0.006257 -0.034940 0.369008
v 0.008849 -0.034940 0.362751
v 0.006257 -0.034940 0.356494
v -0.000000 -0.034940 0.353902
v -0.006257 -0.034940 0.356494
v -0.008849 -0.034940 0.362751
v -0.006257 -0.034940 0.369008
v -0.000000 -0.049700 0.368975
v -0.000000 -0.046181 0.371600
v 0.004401 -0.049700 0.367152
v 0.006257 -0.046181 0.369008
v 0.006224 -0.049700 0.362751
v 0.008849 -0.046181 0.362751
v 0.004401 -0.049700 0.358350
v 0.006257 -0.046181 0.356494
v -0.000000 -0.049700 0.356527
v -0.000000 -0.046181 0.353902
v -0.004401 -0.049700 0.358350
v -0.006257 -0.046181 0.356494
v -0.006224 -0.049700 0.362751
v -0.008849 -0.046181 0.362751
v -0.004401 -0.049700 0.367152
v -0.006257 -0.046181 0.369008
v -0.000000 0.083041 0.564863
v 0.024572 0.073342 0.564008
v 0.034750 0.049925 0.561943
v 0.024572 0.028809 0.533784
v 0.024572 0.026508 0.559879
v -0.000000 0.019109 0.532929
v -0.000000 0.016809 0.559024
v -0.024572 0.028809 0.533784
v -0.024572 0.026508 0.559879
v -0.034750 0.049925 0.561943
v -0.024572 0.073342 0.564008
v 0.034750 -0.115685 0.547344
v 0.024572 -0.139102 0.545279
v -0.000000 -0.148801 0.544424
v -0.024572 -0.139102 0.545279
v -0.034750 -0.115685 0.547344
v -0.000000 0.069783 0.537396
v -0.000000 0.084751 0.545463
v 0.009389 0.066077 0.537069
v 0.024572 0.075052 0.544608
v 0.034750 0.051635 0.542544
v 0.025020 0.029838 0.533874
v -0.025020 0.029838 0.533874
v -0.034750 0.051635 0.542544
v -0.009389 0.066077 0.537069
v -0.024572 0.075052 0.544608
v 0.024814 -0.116743 0.520952
v 0.034750 -0.113975 0.527944
v 0.024572 -0.137392 0.525880
v 0.024572 -0.118021 0.520839
v -0.000000 -0.147091 0.525025
v -0.000000 -0.127844 0.519973
v -0.024572 -0.137392 0.525880
v -0.024572 -0.118021 0.520839
v -0.024814 -0.116743 0.520952
v -0.034750 -0.113975 0.527944
vn 0.3827 0.9239 -0.0000
vn 0.9239 0.3827 -0.0000
vn 0.9239 -0.3827 -0.0000
vn -0.3827 -0.9239 -0.0000
vn -0.9239 -0.3827 -0.0000
vn -0.0000 -0.0000 1.0000
vn -0.0067 -0.0322 0.9995
vn -0.0000 -0.0737 0.9973
vn 0.0067 -0.0322 0.9995
vn -0.9239 0.3827 -0.0000
vn -0.3827 0.9239 -0.0000
vn 0.1892 0.1892 0.9635
vn 0.2676 -0.0000 0.9635
vn -0.1102 -0.2660 0.9577
vn -0.1892 -0.1892 0.9635
vn -0.0817 -0.1972 0.9769
vn -0.1892 0.1892 0.9635
vn -0.0000 0.2676 0.9635
vn 0.1892 -0.1892 0.9635
vn -0.2676 -0.0000 0.9635
vn 0.1102 -0.2660 0.9577
vn -0.0000 -0.2676 0.9635
vn -0.0000 -0.1035 0.9946
vn 0.0817 -0.1972 0.9769
vn -0.0000 -0.0000 -1.0000
vn -0.0244 -0.1175 0.9928
vn -0.0000 -0.1175 0.9931
vn 0.3827 -0.9239 -0.0000
vn -1.0000 -0.0000 -0.0000
vn 0.0007 -1.0000 -0.0000
vn -0.0000 -1.0000 -0.0000
vn -0.0007 -1.0000 -0.0000
vn 1.0000 -0.0000 -0.0000
vn 0.0244 -0.1175 0.9928
vn -0.0000 -0.9707 -0.2404
vn -0.0007 -0.9707 -0.2404
vn 0.0004 -0.6442 -0.7648
vn -0.0000 -0.6442 -0.7648
vn -0.0004 -0.6442 -0.7648
vn -0.0007 -1.0000 0.0088
vn -0.0000 -1.0000 0.0088
vn -0.0002 -0.2935 -0.9560
vn -0.0000 -0.2932 -0.9560
vn -0.0000 -0.0019 -1.0000
vn 0.0007 -0.9969 -0.0788
vn -0.0000 -0.9969 -0.0788
vn 0.0007 -0.9707 -0.2404
vn -0.0007 -0.9969 -0.0788
vn 0.0007 -1.0000 0.0088
vn -0.0000 -0.5238 -0.8518
vn 0.0004 -0.5238 -0.8518
vn 0.0002 -0.2935 -0.9560
vn -0.0004 -0.5238 -0.8518
vn -0.0000 1.0000 -0.0000
vn -0.0000 0.9982 0.0598
vn -0.0000 -0.9683 -0.2498
vn -0.0000 0.9832 0.1825
vn -0.0000 0.9676 0.2524
vn -0.0000 0.7071 -0.7071
vn -0.0000 0.4424 -0.8968
vn -0.7115 -0.7027 -0.0000
vn 0.7115 -0.7027 -0.0000
vn 0.7025 -0.6891 -0.1777
vn -0.7025 -0.6891 -0.1777
vn -0.8030 -0.0000 0.5960
vn -0.7758 -0.3447 0.5285
vn -0.0000 -0.3455 0.9384
vn 0.9239 -0.0000 -0.3827
vn 0.8938 -0.2530 -0.3702
vn 0.7758 -0.3447 -0.5285
vn 0.8030 -0.0000 -0.5960
vn -0.0000 -0.3455 -0.9384
vn -0.7758 -0.3447 -0.5285
vn -0.8030 -0.0000 -0.5960
vn -0.8938 -0.2530 -0.3702
vn -0.9239 -0.0000 -0.3827
vn -0.9239 -0.0000 0.3827
vn -0.8938 -0.2530 0.3702
vn 0.7758 -0.3447 0.5285
vn 0.8030 -0.0000 0.5960
vn 0.8938 -0.2530 0.3702
vn 0.9239 -0.0000 0.3827
vn -0.0000 -0.5978 0.8016
vn 0.5876 -0.5976 0.5455
vn 0.7608 -0.5674 0.3151
vn 0.7608 -0.5674 -0.3151
vn 0.5876 -0.5976 -0.5455
vn -0.0000 -0.5978 -0.8016
vn -0.5876 -0.5976 -0.5455
vn -0.7608 -0.5674 -0.3151
vn -0.7608 -0.5674 0.3151
vn -0.5876 -0.5976 0.5455
vn -0.3684 0.9261 0.0816
vn 0.9698 0.2431 0.0214
vn 0.9871 0.1595 0.0141
vn 0.9698 -0.2431 -0.0214
vn 0.9871 -0.1595 -0.0141
vn -0.0000 -0.0878 0.9961
vn -0.3219 0.1018 -0.9413
vn -0.0000 0.0878 -0.9961
vn -0.3657 -0.1244 -0.9224
vn -0.3680 -0.0180 -0.9297
vn -0.9871 0.1595 0.0141
vn -0.9698 0.2431 0.0214
vn -0.9871 -0.1595 -0.0141
vn -0.9698 -0.2431 -0.0214
vn 0.9177 0.3958 0.0349
vn 0.3684 0.9261 0.0816
vn 0.3684 -0.9261 -0.0816
vn 0.3657 -0.1244 -0.9224
vn -0.0000 -0.1276 -0.9918
vn 0.9177 -0.3958 -0.0349
vn -0.9177 0.3958 0.0349
vn 0.3219 0.1018 -0.9413
vn 0.3680 -0.0180 -0.9297
vn -0.9177 -0.3958 -0.0349
vn -0.3684 -0.9261 -0.0816
vn -0.0000 0.4745 -0.8803
vn 0.2596 0.3240 -0.9097
vn 0.1504 0.2742 -0.9498
vn -0.0000 0.3441 -0.9389
vn 0.3676 0.1975 -0.9088
vn 0.5856 -0.0176 -0.8104
vn -0.3676 0.1975 -0.9088
vn -0.2596 0.3240 -0.9097
vn -0.1504 0.2742 -0.9498
vn 0.2383 -0.2435 -0.9402
vn -0.0000 -0.2528 -0.9675
vn -0.2383 -0.2435 -0.9402
vn -0.5856 -0.0176 -0.8104
vt 1.000000 0.500000
vt 1.000000 1.000000
vt 0.875000 1.000000
vt 0.875000 0.500000
vt 0.750000 1.000000
vt 0.750000 0.500000
vt 0.625000 1.000000
vt 0.625000 0.500000
vt 0.437500 0.500000
vt 0.437500 1.000000
vt 0.375000 1.000000
vt 0.375000 0.500000
vt 0.250000 1.000000
vt 0.250000 0.500000
vt 0.419706 0.419706
vt 0.250000 0.490000
vt 0.080294 0.419706
vt 0.010000 0.250000
vt 0.080294 0.080294
vt 0.165147 0.045147
vt 0.250000 0.010000
vt 0.334853 0.045147
vt 0.419706 0.080294
vt 0.490000 0.250000
vt 0.125000 1.000000
vt 0.125000 0.500000
vt 0.000000 1.000000
vt 0.000000 0.500000
vt 0.437500 0.500000
vt 0.562500 0.500000
vt 0.500000 0.500000
vt 0.562500 0.500000
vt 0.750000 0.490000
vt 0.919706 0.419706
vt 0.990000 0.250000
vt 0.919706 0.080294
vt 0.834853 0.045147
vt 0.750000 0.010000
vt 0.665147 0.045147
vt 0.580294 0.080294
vt 0.510000 0.250000
vt 0.580294 0.419706
vt 0.562500 1.000000
vt 0.500000 0.582805
vt 0.437500 0.582804
vt 0.437500 0.541317
vt 0.500000 0.541317
vt 0.562500 0.582804
vt 0.500000 1.000000
vt 0.437500 0.523348
vt 0.500000 0.523348
vt 0.437500 0.508066
vt 0.500000 0.508066
vt 0.562500 0.502556
vt 0.500000 0.502556
vt 0.437500 0.502556
vt 0.437500 0.508066
vt 0.562500 0.541317
vt 0.562500 0.523348
vt 0.562500 0.508066
vt 0.437500 0.502556
vt 0.625000 0.514650
vt 0.875000 0.514650
vt 0.875000 0.735350
vt 0.625000 0.735350
vt 0.415062 0.750000
vt 0.590994 0.750000
vt 0.625000 0.750000
vt 0.415329 0.750000
vt 0.375000 0.782401
vt 0.415329 1.000000
vt 0.375000 0.967599
vt 0.415042 0.500000
vt 0.590984 0.500000
vt 0.157401 0.750000
vt 0.342599 0.750000
vt 0.875000 0.750000
vt 0.157401 0.500000
vt 0.342599 0.500000
vt 0.625000 0.000000
vt 0.590994 0.000000
vt 0.415062 0.000000
vt 0.415329 0.000000
vt 0.624189 0.000000
vt 0.625000 0.764176
vt 0.625000 0.250000
vt 0.590984 0.250000
vt 0.375000 0.282401
vt 0.415042 0.250000
vt 0.375000 0.467599
vt 0.125000 0.750000
vt 0.625000 0.014650
vt 0.625000 0.235350
vt 0.125000 0.931489
vt 0.000000 0.931489
vt 0.750000 0.931489
vt 0.625000 0.931489
vt 0.625000 0.931489
vt 0.500000 0.931489
vt 0.500000 0.931489
vt 0.375000 0.931489
vt 0.375000 0.931489
vt 0.250000 0.931489
vt 0.250000 0.931489
vt 0.125000 0.931489
vt 1.000000 0.931489
vt 0.875000 0.931489
vt 0.875000 0.931489
vt 0.750000 0.931489
vt 0.250000 0.418810
vt 0.369367 0.369367
vt 0.418810 0.250000
vt 0.369367 0.130633
vt 0.250000 0.081190
vt 0.130633 0.130633
vt 0.081190 0.250000
vt 0.130633 0.369367
vt 0.125000 0.628298
vt 0.000000 0.628298
vt 0.750000 0.628299
vt 0.750000 0.628298
vt 0.577204 0.087754
vt 0.578626 0.084322
vt 0.250000 0.628298
vt 0.250000 0.628299
vt 0.875000 0.628298
vt 0.750000 0.628298
vt 1.000000 0.628298
vt 0.625000 0.628298
vt 0.500000 0.628298
vt 0.625000 0.628298
vt 0.250000 0.628298
vt 0.922796 0.087754
vt 0.921374 0.084322
vt 0.375000 0.628299
vt 0.375000 0.628298
vt 0.814842 0.350387
vt 0.750000 0.377246
vt 0.685158 0.350387
s 1
f 1/1/1 2/2/1 4/3/1 3/4/1
f 3/4/2 4/3/2 6/5/2 5/6/2
f 5/6/3 6/5/3 8/7/3 7/8/3
f 37/9/4 38/10/4 12/11/4 11/12/4
f 11/12/5 12/11/5 14/13/5 13/14/5
f 4/15/6 2/16/6 16/17/6 14/18/6 12/19/6 38/20/7 10/21/8 34/22/9 8/23/6 6/24/6
f 13/14/10 14/13/10 16/25/10 15/26/10
f 15/26/11 16/25/11 2/27/11 1/28/11
f 3/4/12 5/6/13 19/6/13 18/4/12
f 39/29/4 22/12/4 30/12/4 40/9/4
f 37/9/14 11/12/15 22/12/15 39/29/16
f 15/26/17 1/28/18 17/28/18 24/26/17
f 1/1/18 3/4/12 18/4/12 17/1/18
f 5/6/13 7/8/19 20/8/19 19/6/13
f 11/12/15 13/14/20 23/14/20 22/12/15
f 33/30/21 9/31/22 21/31/23 35/32/24
f 13/14/20 15/26/17 24/26/17 23/14/20
f 25/33/25 26/34/25 27/35/25 28/36/25 36/37/25 29/38/25 40/39/25 30/40/25 31/41/25 32/42/25
f 19/6/3 20/8/3 28/8/3 27/6/3
f 17/1/1 18/4/1 26/4/1 25/1/1
f 24/26/11 17/28/11 25/28/11 32/26/11
f 22/12/5 23/14/5 31/14/5 30/12/5
f 10/21/8 38/20/7 42/20/26 41/21/27
f 18/4/2 19/6/2 27/6/2 26/4/2
f 23/14/10 24/26/10 32/26/10 31/14/10
f 20/8/28 35/32/28 36/32/28 28/8/28
f 7/8/19 33/30/21 35/32/24 20/8/19
f 7/8/28 8/7/28 34/43/28 33/30/28
f 9/31/22 37/9/14 39/29/16 21/31/23
f 21/31/23 39/29/16 48/29/6 44/31/6
f 39/29/29 40/9/29 49/9/29 48/29/29
f 43/32/30 44/31/31 46/31/31 45/32/30
f 44/31/31 48/29/32 49/9/32 46/31/31
f 37/9/25 9/31/25 51/31/25 52/9/25
f 40/39/25 29/38/25 46/38/25 49/39/25
f 36/32/33 35/32/33 43/32/33 45/32/33
f 29/38/25 36/37/25 45/37/25 46/38/25
f 34/22/9 10/21/8 41/21/27 47/22/34
f 35/32/24 21/31/23 44/31/6 43/32/6
f 54/44/35 55/45/36 58/46/36 57/47/35
f 53/48/37 47/43/37 41/49/38 54/44/38
f 54/44/38 41/49/38 42/10/39 55/45/39
f 9/31/25 33/30/25 50/30/25 51/31/25
f 61/50/40 60/51/41 57/47/41 58/46/40
f 67/52/42 64/53/43 60/51/44 61/50/44
f 63/54/45 65/55/46 51/31/46 50/30/45
f 38/10/29 37/9/29 52/9/29 66/56/29 67/57/29 61/50/29 58/46/29 55/45/29 42/10/29
f 53/48/47 54/44/35 57/47/35 56/58/47
f 33/30/33 34/43/33 47/43/33 53/48/33 56/58/33 59/59/33 62/60/33 63/54/33 50/30/33
f 65/55/46 66/61/48 52/9/48 51/31/46
f 60/51/41 59/59/49 56/58/49 57/47/41
f 65/55/50 63/54/51 62/60/52 64/53/43
f 66/61/53 65/55/50 64/53/43 67/52/42
f 64/53/43 62/60/52 59/59/44 60/51/44
f 79/62/54 73/63/54 71/64/55 75/65/55
f 84/66/33 77/67/33 76/68/33 69/68/33 91/69/33
f 90/70/6 91/69/6 69/68/6 68/7/6 88/71/6 89/72/6
f 86/73/33 78/74/33 79/62/33 75/65/33 77/67/33 84/66/33
f 80/75/56 85/76/56 90/76/56 89/75/56
f 76/68/57 70/77/57 68/77/58 69/68/58
f 82/78/31 87/79/31 85/76/31 80/75/31
f 70/80/29 72/81/29 81/82/29 88/83/29 68/80/29
f 70/80/29 71/84/29 72/81/29
f 75/65/33 76/85/33 77/67/33
f 73/86/59 79/8/59 78/74/60 74/87/60
f 75/65/55 71/64/55 70/77/57 76/68/57
f 82/88/25 83/89/25 74/87/60 78/74/60 86/73/25 87/90/25
f 82/78/61 80/75/61 81/91/61 83/26/61
f 85/76/62 87/79/62 86/73/62 84/66/62
f 90/76/63 85/76/63 84/66/63 91/69/63
f 80/75/64 89/75/64 88/91/64 81/91/64
f 81/82/29 72/81/29 71/92/29 73/93/29 74/87/29 83/89/29
f 99/26/65 115/94/66 101/95/67 92/28/6
f 94/6/68 105/96/69 107/97/70 95/8/71
f 95/8/71 107/98/70 109/99/72 96/31/25
f 96/31/25 109/100/72 111/101/73 97/12/74
f 97/12/74 111/102/73 113/103/75 98/14/76
f 98/14/77 113/104/78 115/105/66 99/26/65
f 92/1/6 101/106/67 103/107/79 93/4/80
f 93/4/80 103/108/79 105/109/81 94/6/82
f 92/33/54 93/34/54 94/35/54 95/36/54 96/38/54 97/40/54 98/41/54 99/42/54
f 103/15/79 101/16/67 100/110/83 102/111/84
f 105/24/81 103/15/79 102/111/84 104/112/85
f 107/23/70 105/24/69 104/112/86 106/113/87
f 109/21/72 107/23/70 106/113/87 108/114/88
f 111/19/73 109/21/72 108/114/88 110/115/89
f 113/18/75 111/19/73 110/115/89 112/116/90
f 115/17/66 113/18/78 112/116/91 114/117/92
f 101/16/67 115/17/66 114/117/92 100/110/83
f 102/111/31 100/110/31 114/117/31 112/116/31 110/115/31 108/114/31 106/113/31 104/112/31
f 141/118/93 126/25/93 116/27/93 133/119/93
f 136/120/94 118/5/95 127/5/96 143/121/97
f 120/23/98 122/21/98 129/21/98 128/23/98
f 122/21/98 124/19/98 130/19/98 129/21/98
f 138/122/99 123/40/100 149/40/101 150/123/102
f 124/19/98 125/18/98 131/18/98 130/19/98
f 117/15/98 116/16/98 126/17/98 125/18/98 124/19/98 122/21/98 120/23/98 118/24/98
f 125/13/103 139/124/104 151/125/105 131/13/106
f 135/126/107 117/3/107 118/5/95 136/127/94
f 133/128/108 116/2/108 117/3/108 135/126/108
f 144/129/109 128/7/109 129/49/109 146/130/109
f 121/38/100 119/36/100 145/36/110 147/38/111
f 123/40/100 121/38/100 147/38/111 149/40/101
f 143/120/97 127/5/96 128/7/112 144/131/112
f 118/24/98 120/23/98 128/23/98 127/24/98
f 139/132/104 125/13/103 126/25/113 141/118/113
f 119/36/100 137/133/114 142/134/115 145/36/110
f 148/135/116 130/11/116 131/13/106 151/124/105
f 146/130/117 129/49/117 130/11/117 148/136/117
f 133/33/118 135/34/119 134/137/120 132/138/121
f 135/34/119 136/35/122 137/133/114 134/137/120
f 136/35/122 143/35/123 142/134/115 137/133/114
f 139/41/124 141/42/125 140/139/126 138/122/99
f 141/42/125 133/33/118 132/138/121 140/139/126
f 143/35/123 144/36/127 145/36/110 142/134/115
f 144/36/127 146/38/128 147/38/111 145/36/110
f 146/38/128 148/40/129 149/40/101 147/38/111
f 148/40/129 151/41/130 150/123/102 149/40/101
f 138/122/99 150/123/102 151/41/130 139/41/124
f 132/138/121 134/137/120 137/133/114 119/36/100 121/38/100 123/40/100 138/122/99 140/139/126
