# Blender 4.4.3
# www.blender.org
mtllib ExtMag.mtl
o Cube.035
v -0.041900 -0.063964 0.366658
v -0.032785 0.215112 0.374361
v -0.039665 -0.029792 0.119291
v -0.030819 0.236698 0.153402
v 0.041900 -0.063964 0.366658
v 0.032785 0.215112 0.374361
v 0.039665 -0.029792 0.119291
v 0.030819 0.236698 0.153402
v -0.041900 -0.045581 0.208920
v -0.032785 0.228372 0.238623
v 0.041900 -0.045581 0.208920
v 0.032785 0.228372 0.238623
v -0.030819 0.232142 0.200036
v 0.039665 -0.037569 0.186016
v -0.039665 -0.037569 0.186016
v 0.030819 0.232142 0.200036
v -0.036423 -0.038477 0.193820
v -0.036423 -0.039387 0.201623
v 0.027967 0.231378 0.207855
v 0.027967 0.229136 0.230804
v -0.027967 0.229136 0.230804
v -0.027967 0.231378 0.207855
v 0.036423 -0.039387 0.201623
v 0.036423 -0.038477 0.193820
v -0.039665 0.231505 0.206554
v -0.039665 0.238037 0.139696
v 0.039665 0.238037 0.139696
v 0.041900 0.229214 0.230013
v 0.041900 0.213773 0.388065
v -0.041900 0.213773 0.388065
v -0.041900 0.229214 0.230013
v 0.036423 0.229978 0.222193
v -0.036423 0.230742 0.214374
v 0.039665 0.231505 0.206554
v 0.036423 0.230742 0.214374
v -0.036423 0.229978 0.222193
v -0.032785 -0.026300 0.218559
v 0.032785 -0.026300 0.218559
v -0.030819 -0.022530 0.179972
v 0.030819 -0.022530 0.179972
v -0.027967 -0.023294 0.187792
v 0.027967 -0.023294 0.187792
v -0.027967 -0.025536 0.210740
v 0.027967 -0.025536 0.210740
v -0.030819 -0.017975 0.133338
v 0.030819 -0.017975 0.133338
v 0.032785 -0.039561 0.354297
v -0.032785 -0.039561 0.354297
v 0.041900 0.232207 0.389488
v -0.041900 0.232207 0.389488
v 0.032785 0.233546 0.375783
v -0.032785 0.233546 0.375783
v 0.024152 -0.065380 0.378815
v 0.024152 0.212583 0.400246
v -0.024152 -0.065380 0.378815
v -0.024152 0.212583 0.400246
v 0.024152 -0.067108 0.393639
v 0.024152 0.211132 0.415099
v -0.024152 -0.067108 0.393639
v -0.024152 0.211132 0.415099
v -0.039665 -0.150091 0.103471
v -0.039665 -0.160537 0.169830
v 0.039665 -0.150091 0.103471
v 0.041900 -0.194155 0.349269
v 0.041900 -0.169461 0.192395
v -0.041900 -0.194155 0.349269
v -0.041900 -0.169461 0.192395
v -0.036423 -0.162980 0.185352
v 0.036423 -0.162980 0.185352
v 0.039665 -0.160537 0.169830
v -0.036423 -0.161758 0.177591
v 0.036423 -0.161758 0.177591
v -0.024152 -0.196058 0.361359
v 0.024152 -0.196058 0.361359
v -0.024152 -0.198379 0.376102
v 0.024152 -0.198379 0.376102
v -0.039665 -0.274951 0.072916
v -0.039665 -0.290198 0.138339
v 0.039665 -0.274951 0.072916
v 0.041900 -0.336783 0.314857
v 0.041900 -0.300740 0.160195
v -0.041900 -0.336783 0.314857
v -0.041900 -0.300740 0.160195
v -0.036423 -0.293763 0.153643
v 0.036423 -0.293763 0.153643
v 0.039665 -0.290198 0.138339
v -0.036423 -0.291980 0.145991
v 0.036423 -0.291980 0.145991
v -0.024152 -0.339560 0.326776
v 0.024152 -0.339560 0.326776
v -0.024152 -0.342947 0.341311
v 0.024152 -0.342947 0.341311
vn -1.0000 -0.0000 -0.0000
vn -0.0000 0.0760 -0.9971
vn 1.0000 -0.0000 -0.0000
vn -0.0000 0.9953 0.0972
vn 0.8524 -0.0411 0.5212
vn -0.0000 0.0785 -0.9969
vn -0.0000 0.1304 -0.9915
vn 0.8184 0.0439 -0.5729
vn 0.9399 0.0268 -0.3403
vn -0.9243 -0.0290 0.3805
vn -0.8184 0.0439 -0.5729
vn 0.9243 -0.0290 0.3805
vn 0.8231 0.0746 -0.5629
vn -0.5676 -0.1090 0.8160
vn -0.0000 -0.0770 0.9970
vn -0.0000 0.9953 0.0973
vn -0.0001 0.9953 0.0972
vn 0.0001 0.9953 0.0972
vn -0.0000 -0.0785 0.9969
vn -0.9399 0.0268 -0.3403
vn -0.8524 -0.0411 0.5212
vn 0.8338 0.0425 -0.5504
vn -0.0000 0.0769 -0.9970
vn -0.8338 0.0425 -0.5504
vn 0.5675 -0.0633 0.8209
vn -0.5675 -0.0633 0.8209
vn -0.0000 -0.0769 0.9970
vn 0.5676 -0.1090 0.8160
vn -0.8315 0.1316 -0.5397
vn 0.9241 -0.0901 0.3713
vn -0.0000 -0.1324 0.9912
vn 0.9243 -0.0498 0.3783
vn -0.8231 0.0746 -0.5629
vn -0.9243 -0.0498 0.3783
vn -0.0000 -0.9739 -0.2270
vn -0.0000 -0.6846 -0.7289
vn -0.0000 -0.9739 -0.2268
vn 0.8315 0.1316 -0.5397
vn -0.0000 0.2377 -0.9713
vn 0.5671 -0.1931 0.8007
vn -0.5671 -0.1931 0.8007
vn -0.9241 -0.0901 0.3713
vn -0.0000 -0.2340 0.9722
vt 0.375000 0.182704
vt 0.625000 0.182704
vt 0.625000 0.250000
vt 0.375000 0.250000
vt 0.625000 0.500000
vt 0.375000 0.500000
vt 0.375000 0.590909
vt 0.625000 0.590909
vt 0.625000 0.750000
vt 0.375000 0.750000
vt 0.625000 1.000000
vt 0.375000 0.575167
vt 0.375000 0.583038
vt 0.859130 0.591706
vt 0.844678 0.599577
vt 0.861205 0.736205
vt 0.638795 0.736205
vt 0.625000 0.583038
vt 0.375000 0.000000
vt 0.625000 0.000000
vt 0.625000 0.159091
vt 0.375000 0.159091
vt 0.625000 0.567296
vt 0.375000 0.567296
vt 0.852755 0.560736
vt 0.859130 0.568607
vt 0.375000 0.174833
vt 0.625000 0.174833
vt 0.625000 0.166962
vt 0.375000 0.166962
vt 0.625000 0.575167
vt 0.640870 0.591706
vt 0.640870 0.568607
vt 0.655322 0.599577
vt 0.860428 0.513795
vt 0.875000 0.500000
vt 0.875000 0.567296
vt 0.639572 0.513795
vt 0.875000 0.590909
vt 0.875000 0.750000
vt 0.875000 0.575167
vt 0.647245 0.560736
vt 0.875000 0.583038
vt 0.375000 1.000000
vt 0.125000 0.590909
vt 0.125000 0.750000
vt 0.125000 0.583038
vt 0.125000 0.500000
vt 0.125000 0.567296
vt 0.125000 0.575167
s 0
f 15/1/1 25/2/1 26/3/1 3/4/1
f 3/4/2 26/3/2 27/5/2 7/6/2
f 11/7/3 28/8/3 29/9/3 5/10/3
f 29/9/4 30/11/4 56/11/4 54/9/4
f 24/12/3 23/13/3 69/13/3 72/12/3
f 21/14/5 10/15/5 37/15/5 43/14/5
f 2/16/6 6/17/6 47/17/6 48/16/6
f 3/4/7 7/6/7 63/6/7 61/4/7
f 23/13/8 32/18/8 28/8/8 11/7/8
f 1/19/1 30/20/1 31/21/1 9/22/1
f 7/6/3 27/5/3 34/23/3 14/24/3
f 59/19/1 55/19/1 73/19/1 75/19/1
f 13/25/9 22/26/9 41/26/9 39/25/9
f 17/27/10 33/28/10 25/2/10 15/1/10
f 9/22/11 31/21/11 36/29/11 18/30/11
f 18/30/1 36/29/1 33/28/1 17/27/1
f 14/24/12 34/23/12 35/31/12 24/12/12
f 24/12/3 35/31/3 32/18/3 23/13/3
f 23/13/13 11/7/13 65/7/13 69/13/13
f 55/19/14 1/19/14 66/19/14 73/19/14
f 20/32/1 19/33/1 42/33/1 44/32/1
f 6/17/1 12/34/1 38/34/1 47/17/1
f 13/25/4 4/35/4 26/36/4 25/37/4
f 4/35/4 8/38/4 27/5/4 26/36/4
f 12/34/4 6/17/4 29/9/4 28/8/4
f 30/11/15 29/9/15 49/9/15 50/11/15
f 2/16/4 10/15/4 31/39/4 30/40/4
f 20/32/16 12/34/16 28/8/16 32/18/16
f 22/26/4 13/25/4 25/37/4 33/41/4
f 8/38/4 16/42/4 34/23/4 27/5/4
f 16/42/4 19/33/4 35/31/4 34/23/4
f 19/33/17 20/32/17 32/18/17 35/31/17
f 10/15/16 21/14/16 36/43/16 31/39/16
f 21/14/18 22/26/18 33/41/18 36/43/18
f 38/34/4 37/15/4 48/16/4 47/17/4
f 44/32/4 43/14/4 37/15/4 38/34/4
f 46/38/4 45/35/4 39/25/4 40/42/4
f 40/42/4 39/25/4 41/26/4 42/33/4
f 42/33/4 41/26/4 43/14/4 44/32/4
f 4/35/3 13/25/3 39/25/3 45/35/3
f 16/42/1 8/38/1 46/38/1 40/42/1
f 10/15/3 2/16/3 48/16/3 37/15/3
f 22/26/3 21/14/3 43/14/3 41/26/3
f 8/38/19 4/35/19 45/35/19 46/38/19
f 19/33/20 16/42/20 40/42/20 42/33/20
f 12/34/21 20/32/21 44/32/21 38/34/21
f 51/17/4 52/16/4 50/40/4 49/9/4
f 29/9/22 6/17/22 51/17/22 49/9/22
f 6/17/23 2/16/23 52/16/23 51/17/23
f 2/16/24 30/40/24 50/40/24 52/16/24
f 54/9/4 56/11/4 60/11/4 58/9/4
f 5/10/25 29/9/25 54/9/25 53/10/25
f 30/20/26 1/19/26 55/19/26 56/20/26
f 53/10/3 57/10/3 76/10/3 74/10/3
f 57/10/27 58/9/27 60/11/27 59/44/27
f 53/10/3 54/9/3 58/9/3 57/10/3
f 56/20/1 55/19/1 59/19/1 60/20/1
f 5/10/28 53/10/28 74/10/28 64/10/28
f 62/1/1 61/4/1 77/4/1 78/1/1
f 72/12/3 69/13/3 85/13/3 88/12/3
f 75/19/1 73/19/1 89/19/1 91/19/1
f 67/22/29 68/30/29 84/30/29 83/22/29
f 70/24/30 72/12/30 88/12/30 86/24/30
f 74/10/3 76/10/3 92/10/3 90/10/3
f 68/30/1 71/27/1 87/27/1 84/30/1
f 57/10/31 59/44/31 75/44/31 76/10/31
f 1/19/1 9/22/1 67/22/1 66/19/1
f 11/7/3 5/10/3 64/10/3 65/7/3
f 18/30/1 17/27/1 71/27/1 68/30/1
f 15/1/1 3/4/1 61/4/1 62/1/1
f 7/6/3 14/24/3 70/24/3 63/6/3
f 14/24/32 24/12/32 72/12/32 70/24/32
f 9/22/33 18/30/33 68/30/33 67/22/33
f 17/27/34 15/1/34 62/1/34 71/27/34
f 83/45/35 81/7/35 80/10/35 82/46/35
f 84/47/36 85/13/36 81/7/36 83/45/36
f 77/48/35 79/6/35 86/24/35 78/49/35
f 78/49/37 86/24/37 88/12/37 87/50/37
f 87/50/35 88/12/35 85/13/35 84/47/35
f 82/46/35 80/10/35 90/10/35 89/46/35
f 89/46/35 90/10/35 92/10/35 91/46/35
f 69/13/38 65/7/38 81/7/38 85/13/38
f 61/4/39 63/6/39 79/6/39 77/4/39
f 63/6/3 70/24/3 86/24/3 79/6/3
f 65/7/3 64/10/3 80/10/3 81/7/3
f 64/10/40 74/10/40 90/10/40 80/10/40
f 73/19/41 66/19/41 82/19/41 89/19/41
f 71/27/42 62/1/42 78/1/42 87/27/42
f 66/19/1 67/22/1 83/22/1 82/19/1
f 76/10/43 75/44/43 91/44/43 92/10/43
