# Blender 4.4.3
# www.blender.org
mtllib Foregrip.mtl
o Cube.012
v -0.087004 0.184805 0.017326
v -0.087004 0.184805 -0.611295
v 0.087004 0.184805 0.017326
v 0.087004 0.184805 -0.611295
v -0.087004 0.286683 0.017326
v -0.087004 0.342802 -0.070973
v -0.087004 0.326366 0.000889
v -0.087004 0.342802 -0.522997
v -0.087004 0.286683 -0.611295
v -0.087004 0.326366 -0.594858
v 0.087004 0.342802 -0.070973
v 0.087004 0.286683 0.017326
v 0.087004 0.326366 0.000889
v 0.087004 0.286683 -0.611295
v 0.087004 0.342802 -0.522997
v 0.087004 0.326366 -0.594858
v 0.000000 0.092772 0.018194
v 0.000000 0.092772 -0.696964
v 0.063359 0.119017 0.018194
v 0.063359 0.119017 -0.696964
v 0.089604 0.182376 0.018194
v 0.089604 0.182376 -0.696964
v 0.086782 0.223086 0.018194
v 0.086782 0.223086 -0.696964
v -0.086782 0.223086 0.018194
v -0.086782 0.223086 -0.696964
v -0.089604 0.182376 0.018194
v -0.089604 0.182376 -0.696964
v -0.063359 0.119017 0.018194
v -0.063359 0.119017 -0.696964
v 0.077332 0.181069 -0.696963
v 0.077332 0.181069 0.018194
v 0.077332 0.223086 0.018194
v 0.071548 0.342802 -0.522997
v 0.071548 0.342802 -0.070973
v 0.071548 0.326366 0.000889
v 0.071548 0.286683 0.017326
v 0.077332 0.223086 -0.696964
v 0.077332 0.223086 -0.658026
v 0.071548 0.286683 -0.611295
v 0.071548 0.326366 -0.594858
v 0.071548 0.184805 -0.611295
v 0.071548 0.184805 0.017326
v 0.077332 0.181099 0.018194
v -0.077332 0.181069 -0.696963
v -0.077332 0.181069 0.018194
v -0.077332 0.223086 0.018194
v -0.077332 0.181099 -0.696964
v -0.071548 0.184805 -0.611295
v -0.071548 0.184805 0.017326
v -0.071548 0.326366 0.000889
v -0.071548 0.286683 0.017326
v -0.077332 0.223086 -0.696964
v -0.071548 0.286683 -0.611295
v -0.071548 0.326366 -0.594858
v -0.071548 0.342802 -0.522997
v -0.071548 0.342802 -0.070973
v -0.037315 0.119858 -0.696964
v -0.037315 0.119858 0.018194
v 0.037315 0.119858 -0.696964
v 0.037315 0.119858 0.018194
vn -0.0000 1.0000 -0.0000
vn 1.0000 -0.0000 -0.0000
vn -1.0000 -0.0000 -0.0000
vn -0.0000 -1.0000 -0.0000
vn -0.0000 -0.0000 -1.0000
vn -0.0000 0.9748 -0.2230
vn -0.0000 0.3827 -0.9239
vn -0.0000 0.9748 0.2230
vn -0.0000 0.3827 0.9239
vn -0.0000 -0.0000 1.0000
vn 0.3827 -0.9239 -0.0000
vn 0.9239 -0.3827 -0.0000
vn 0.9976 0.0692 -0.0000
vn -0.9976 0.0692 -0.0000
vn -0.9239 -0.3827 -0.0000
vn -0.3827 -0.9239 -0.0000
vn -0.8370 0.5472 -0.0000
vn 0.8370 0.5472 -0.0000
vt 0.625000 0.522318
vt 0.638896 0.522318
vt 0.638896 0.727682
vt 0.625000 0.727682
vt 0.375000 0.500000
vt 0.536202 0.500000
vt 0.598992 0.506537
vt 0.598992 0.743463
vt 0.536202 0.750000
vt 0.375000 0.750000
vt 0.375000 0.000000
vt 0.536202 0.000000
vt 0.598992 0.006537
vt 0.625000 0.022318
vt 0.625000 0.227682
vt 0.598992 0.243463
vt 0.536202 0.250000
vt 0.375000 0.250000
vt 0.125000 0.500000
vt 0.138896 0.500000
vt 0.138896 0.750000
vt 0.125000 0.750000
vt 0.536202 0.263896
vt 0.375000 0.263896
vt 0.875000 0.522318
vt 0.861104 0.522318
vt 0.861104 0.500000
vt 0.875000 0.500000
vt 0.625000 0.250000
vt 0.625000 0.263896
vt 0.638896 0.750000
vt 0.625000 0.750000
vt 0.625000 0.763896
vt 0.536202 0.763896
vt 0.375000 0.763896
vt 1.000000 0.500000
vt 1.000000 1.000000
vt 0.875000 1.000000
vt 0.750000 1.000000
vt 0.750000 0.500000
vt 0.625000 1.000000
vt 0.625000 0.500000
vt 0.618194 1.000000
vt 0.618194 0.972777
vt 0.618194 0.500000
vt 0.375000 1.000000
vt 0.250000 1.000000
vt 0.250000 0.500000
vt 0.419706 0.419706
vt 0.250000 0.490000
vt 0.080294 0.419706
vt 0.010000 0.250000
vt 0.250000 0.010000
vt 0.259240 0.013827
vt 0.097547 0.220213
vt 0.097457 0.220347
vt 0.160787 0.408709
vt 0.353099 0.410515
vt 0.447783 0.235573
vt 0.410466 0.076467
vt 0.419706 0.080294
vt 0.490000 0.250000
vt 0.125000 1.000000
vt 0.000000 1.000000
vt 0.000000 0.500000
vt 0.750000 0.490000
vt 0.919706 0.419706
vt 0.990000 0.250000
vt 0.919706 0.080294
vt 0.901226 0.080294
vt 0.943518 0.237223
vt 0.943542 0.237329
vt 0.848335 0.412488
vt 0.651664 0.412488
vt 0.556458 0.237329
vt 0.598774 0.080294
vt 0.580294 0.080294
vt 0.510000 0.250000
vt 0.580294 0.419706
vt 0.537303 0.043384
vt 0.453278 0.043384
vt 0.453278 0.213386
vt 0.537303 0.213386
vt 0.570031 0.208941
vt 0.583588 0.189507
vt 0.583588 0.067263
vt 0.570031 0.047829
vt 0.861104 0.727682
vt 0.875000 0.727682
vt 0.375000 0.986104
vt 0.536202 0.986104
vt 0.536202 1.000000
vt 0.861104 0.750000
vt 0.875000 0.750000
vt 0.536202 0.486104
vt 0.625000 0.486104
vt 0.361104 0.750000
vt 0.361104 0.500000
vt 0.506806 0.500000
vt 0.506806 1.000000
vt 0.500000 1.000000
vt 0.500000 0.500000
vt 0.625000 0.986104
vt 0.638896 0.500000
vt 0.453278 0.706616
vt 0.537303 0.706616
vt 0.570031 0.702171
vt 0.583588 0.682737
vt 0.583588 0.560493
vt 0.570031 0.541059
vt 0.537303 0.536614
vt 0.453278 0.536614
vt 0.375000 0.486104
s 0
f 15/1/1 34/2/1 35/3/1 11/4/1
f 4/5/2 14/6/2 16/7/2 15/1/2 11/4/2 13/8/2 12/9/2 3/10/2
f 1/11/3 5/12/3 7/13/3 6/14/3 8/15/3 10/16/3 9/17/3 2/18/3
f 2/19/4 49/20/4 50/21/4 1/22/4
f 2/18/5 9/17/5 54/23/5 49/24/5
f 8/25/6 56/26/6 55/27/6 10/28/6
f 10/29/7 55/30/7 54/23/7 9/17/7
f 11/4/8 35/3/8 36/31/8 13/32/8
f 13/32/9 36/33/9 37/34/9 12/9/9
f 3/10/10 12/9/10 37/34/10 43/35/10
f 17/36/11 18/37/11 20/38/11 19/28/11
f 19/28/12 20/38/12 22/39/12 21/40/12
f 21/40/13 22/39/13 24/41/13 23/42/13
f 23/42/1 24/41/1 38/43/1 39/44/1 33/45/1
f 25/5/14 26/46/14 28/47/14 27/48/14
f 20/49/5 18/50/5 30/51/5 28/52/5 26/53/5 53/54/5 48/55/5 45/56/5 58/57/5 60/58/5 31/59/5 38/60/5 24/61/5 22/62/5
f 27/48/15 28/47/15 30/63/15 29/19/15
f 29/19/16 30/63/16 18/64/16 17/65/16
f 17/66/10 19/67/10 21/68/10 23/69/10 33/70/10 44/71/10 32/72/10 61/73/10 59/74/10 46/75/10 47/76/10 25/77/10 27/78/10 29/79/10
f 52/80/2 50/81/2 49/82/2 54/83/2 55/84/2 56/85/2 57/86/2 51/87/2
f 57/88/1 56/26/1 8/25/1 6/89/1
f 50/90/10 52/91/10 5/92/10 1/46/10
f 51/93/8 57/88/8 6/89/8 7/94/8
f 40/95/7 41/96/7 16/42/7 14/6/7
f 43/97/4 42/98/4 4/5/4 3/10/4
f 47/99/1 53/100/1 26/101/1 25/102/1
f 52/91/9 51/103/9 7/41/9 5/92/9
f 41/104/6 34/2/6 15/1/6 16/42/6
f 43/105/3 37/106/3 36/107/3 35/108/3 34/109/3 41/110/3 40/111/3 42/112/3
f 42/113/5 40/95/5 14/6/5 4/5/5
f 31/59/17 60/58/17 61/73/17 32/72/17
f 58/57/1 59/74/1 61/73/1 60/58/1
f 46/75/18 59/74/18 58/57/18 45/56/18
f 53/54/2 47/76/2 46/75/2 45/56/2 48/55/2
f 33/45/3 39/44/3 38/60/3 31/59/3 32/72/3
