# Blender 4.4.3
# www.blender.org
mtllib Stock11.mtl
o Cube.011
v -0.071556 -0.151775 1.750894
v -0.071556 0.228641 1.750894
v 0.071556 -0.151775 1.750894
v 0.071556 0.228641 1.750894
v -0.071556 0.124760 1.562942
v -0.071556 0.228641 1.562942
v 0.071556 0.124760 1.562942
v 0.071556 0.228641 1.562942
v -0.071556 -0.151775 1.679041
v 0.071556 0.228641 1.679041
v -0.071556 0.228641 1.679041
v 0.071556 -0.151775 1.679041
v -0.057013 -0.151775 1.679041
v 0.057013 -0.151775 1.703119
v 0.057013 -0.151775 1.679041
v -0.057013 -0.151775 1.703119
v -0.057013 0.228641 1.703119
v -0.057013 0.228641 1.679041
v 0.057013 0.228641 1.679041
v 0.057013 0.228641 1.703119
v -0.057013 0.228641 1.562942
v 0.057013 0.228641 1.562942
v -0.057013 0.124760 1.562942
v 0.057013 0.124760 1.562942
v -0.071556 0.163887 1.501371
v -0.071556 0.124760 1.540498
v -0.071556 0.136220 1.512831
v -0.071556 0.228641 1.540498
v -0.071556 0.189514 1.501371
v -0.071556 0.217181 1.512831
v 0.071556 0.124760 1.540498
v 0.071556 0.163887 1.501371
v 0.071556 0.136220 1.512831
v 0.071556 0.189514 1.501371
v 0.071556 0.228641 1.540498
v 0.071556 0.217181 1.512831
v 0.057013 0.228641 1.540498
v 0.057013 0.189514 1.501371
v 0.057013 0.217181 1.512831
v -0.057013 0.189514 1.501371
v -0.057013 0.228641 1.540498
v -0.057013 0.217181 1.512831
v -0.057013 0.124760 1.540498
v -0.057013 0.163887 1.501371
v -0.057013 0.136220 1.512831
v 0.057013 0.163887 1.501371
v 0.057013 0.124760 1.540498
v 0.057013 0.136220 1.512831
v -0.021171 -0.135375 1.715632
v -0.021171 0.354975 1.695948
v -0.021171 -0.137997 1.697958
v -0.021171 0.354975 1.570797
v 0.021171 -0.135375 1.715632
v 0.021171 0.354975 1.695948
v 0.021171 -0.137997 1.697958
v 0.021171 0.354975 1.570797
v -0.021171 0.275786 1.695948
v -0.021171 0.275786 1.570797
v 0.021171 0.275786 1.570797
v 0.021171 0.275786 1.695948
v -0.021171 0.354975 1.330749
v 0.021171 0.354975 1.330749
v -0.021171 0.275786 1.498338
v 0.021171 0.275786 1.498338
v -0.088070 0.151024 1.396391
v -0.069081 0.158889 1.396391
v -0.061216 0.177878 1.396391
v -0.069081 0.196866 1.396391
v -0.088070 0.204731 1.396391
v -0.107058 0.196866 1.396391
v -0.114923 0.177878 1.396391
v -0.107058 0.158889 1.396391
v -0.088070 0.151024 1.706306
v -0.069081 0.158889 1.719475
v -0.061216 0.177878 1.724930
v -0.069081 0.196866 1.719475
v -0.088070 0.204731 1.706306
v -0.107058 0.196866 1.693137
v -0.114923 0.177878 1.687683
v -0.107058 0.158889 1.693137
v -0.088070 0.146329 1.117248
v -0.088070 0.146329 0.886314
v -0.065761 0.155569 1.117248
v -0.065761 0.155569 0.886314
v -0.056521 0.177878 1.117248
v -0.056521 0.177878 0.886314
v -0.065761 0.200186 1.117248
v -0.065761 0.200186 0.886314
v -0.088070 0.209426 1.117248
v -0.088070 0.209426 0.886314
v -0.110378 0.200186 1.117248
v -0.110378 0.200186 0.886314
v -0.119618 0.177878 1.117248
v -0.119618 0.177878 0.886314
v -0.110378 0.155569 1.117248
v -0.110378 0.155569 0.886314
v 0.088070 0.146329 1.117248
v 0.088070 0.146329 0.886314
v 0.065761 0.155569 1.117248
v 0.065761 0.155569 0.886314
v 0.056521 0.177878 1.117248
v 0.056521 0.177878 0.886314
v 0.065761 0.200186 1.117248
v 0.065761 0.200186 0.886314
v 0.088070 0.209426 1.117248
v 0.088070 0.209426 0.886314
v 0.110378 0.200186 1.117248
v 0.110378 0.200186 0.886314
v 0.119618 0.177878 1.117248
v 0.119618 0.177878 0.886314
v 0.110378 0.155569 1.117248
v 0.110378 0.155569 0.886314
v 0.088070 0.151024 1.396391
v 0.069081 0.158889 1.396391
v 0.061216 0.177878 1.396391
v 0.069081 0.196866 1.396391
v 0.088070 0.204731 1.396391
v 0.107058 0.196866 1.396391
v 0.114923 0.177878 1.396391
v 0.107058 0.158889 1.396391
v 0.088070 0.151024 1.706306
v 0.069081 0.158889 1.719475
v 0.061216 0.177878 1.724930
v 0.069081 0.196866 1.719475
v 0.088070 0.204731 1.706306
v 0.107058 0.196866 1.693137
v 0.114923 0.177878 1.687683
v 0.107058 0.158889 1.693137
vn -0.0000 -1.0000 -0.0000
vn -0.0000 1.0000 -0.0000
vn -1.0000 -0.0000 -0.0000
vn 1.0000 -0.0000 -0.0000
vn -0.0000 -0.0000 1.0000
vn -0.0000 -0.0000 -1.0000
vn -0.0000 -0.3871 -0.9220
vn -0.0000 0.3827 -0.9239
vn -0.0000 0.9239 -0.3827
vn -0.0000 -0.3827 -0.9239
vn -0.0000 -0.9239 -0.3827
vn -0.0000 -0.9892 0.1467
vn -0.0000 0.0478 0.9989
vn -0.0000 -0.2938 -0.9559
vn -0.0000 -0.9041 -0.4272
vn 0.3827 -0.9239 -0.0000
vn 0.9239 -0.3827 -0.0000
vn 0.9239 0.3827 -0.0000
vn 0.3827 0.9239 -0.0000
vn -0.3827 0.9239 -0.0000
vn -0.9239 0.3827 -0.0000
vn -0.9239 -0.3827 -0.0000
vn -0.3827 -0.9239 -0.0000
vn -0.5699 -0.0000 0.8217
vn 0.5699 -0.0000 0.8217
vt 0.150405 0.561688
vt 0.125000 0.561688
vt 0.125000 0.539202
vt 0.150405 0.539202
vt 0.650405 0.561688
vt 0.625000 0.561688
vt 0.625000 0.539202
vt 0.650405 0.539202
vt 0.597420 0.238518
vt 0.530837 0.250000
vt 0.469163 0.250000
vt 0.402580 0.238518
vt 0.375000 0.210798
vt 0.375000 0.188312
vt 0.625000 0.188312
vt 0.625000 0.210798
vt 0.375000 0.655844
vt 0.625000 0.655844
vt 0.625000 0.750000
vt 0.375000 0.750000
vt 0.625000 1.000000
vt 0.375000 1.000000
vt 0.349595 0.655844
vt 0.125000 0.750000
vt 0.125000 0.655844
vt 0.150405 0.655844
vt 0.150405 0.687396
vt 0.349595 0.687396
vt 0.849595 0.687396
vt 0.849595 0.655844
vt 0.875000 0.655844
vt 0.875000 0.750000
vt 0.650405 0.655844
vt 0.650405 0.687396
vt 0.375000 0.561688
vt 0.375000 0.539202
vt 0.402580 0.511482
vt 0.469163 0.500000
vt 0.530837 0.500000
vt 0.597420 0.511482
vt 0.519199 0.590087
vt 0.515998 0.613338
vt 0.515998 0.632199
vt 0.438753 0.729765
vt 0.438753 0.750000
vt 0.545015 0.750000
vt 0.545015 0.729765
vt 0.545015 0.632199
vt 0.545015 0.613338
vt 0.541813 0.590087
vt 0.534085 0.580457
vt 0.526927 0.580457
vt 0.469163 0.474595
vt 0.530837 0.474595
vt 0.875000 0.539202
vt 0.875000 0.561688
vt 0.849595 0.561688
vt 0.849595 0.539202
vt 0.349595 0.539202
vt 0.349595 0.561688
vt 0.375000 0.094156
vt 0.625000 0.094156
vt 0.375000 0.000000
vt 0.625000 0.000000
vt 0.519199 0.159913
vt 0.526927 0.169543
vt 0.534085 0.169543
vt 0.541813 0.159913
vt 0.545015 0.136662
vt 0.545015 0.117801
vt 0.545015 0.020235
vt 0.545015 0.000000
vt 0.438753 0.000000
vt 0.438753 0.020235
vt 0.515998 0.117801
vt 0.515998 0.136662
vt 0.438753 1.000000
vt 0.545015 1.000000
vt 0.625000 0.474595
vt 0.625000 0.500000
vt 0.650405 0.500000
vt 0.849595 0.500000
vt 0.875000 0.500000
vt 0.625000 0.250000
vt 0.625000 0.275405
vt 0.530837 0.275405
vt 0.469163 0.275405
vt 0.375000 0.275405
vt 0.375000 0.250000
vt 0.125000 0.500000
vt 0.150405 0.500000
vt 0.349595 0.500000
vt 0.375000 0.500000
vt 0.375000 0.474595
vt 0.500000 0.000000
vt 0.500000 0.250000
vt 0.500000 0.500000
vt 0.500000 0.750000
vt 0.500000 1.000000
vt 1.000000 0.614026
vt 1.000000 1.000000
vt 0.875000 1.000000
vt 0.875000 0.592796
vt 0.750000 1.000000
vt 0.750000 0.584002
vt 0.625000 0.592796
vt 0.500000 0.614026
vt 0.375000 0.635256
vt 0.250000 1.000000
vt 0.250000 0.644050
vt 0.490000 0.250000
vt 0.419706 0.419706
vt 0.250000 0.490000
vt 0.080294 0.419706
vt 0.010000 0.250000
vt 0.080294 0.080294
vt 0.250000 0.010000
vt 0.419706 0.080294
vt 0.125000 1.000000
vt 0.125000 0.635256
vt 0.000000 1.000000
vt 0.000000 0.614026
vt 0.463369 0.450884
vt 0.481032 0.475081
vt 0.498695 0.450884
vt 0.506011 0.392468
vt 0.498695 0.334051
vt 0.481032 0.309854
vt 0.463369 0.334051
vt 0.456052 0.392468
vt 1.000000 0.500000
vt 0.750000 0.500000
vt 0.250000 0.500000
vt 0.000000 0.500000
vt 0.750000 0.490000
vt 0.919706 0.419706
vt 0.990000 0.250000
vt 0.919706 0.080294
vt 0.750000 0.010000
vt 0.580294 0.080294
vt 0.510000 0.250000
vt 0.580294 0.419706
s 0
usemtl None.008
f 23/1/1 5/2/1 26/3/1 43/4/1
f 22/5/2 8/6/2 35/7/2 37/8/2
f 30/9/3 29/10/3 25/11/3 27/12/3 26/13/3 5/14/3 6/15/3 28/16/3
f 12/17/4 10/18/4 4/19/4 3/20/4
f 3/20/5 4/19/5 2/21/5 1/22/5
f 15/23/1 12/17/1 3/20/1 1/24/1 9/25/1 13/26/1 16/27/1 14/28/1
f 17/29/2 18/30/2 11/31/2 2/32/2 4/19/2 10/18/2 19/33/2 20/34/2
f 35/7/4 8/6/4 7/35/4 31/36/4 33/37/4 32/38/4 34/39/4 36/40/4
f 48/41/3 47/42/3 24/43/3 15/44/3 14/45/3 20/46/3 19/47/3 22/48/3 37/49/3 39/50/3 38/51/3 46/52/3
f 34/39/6 32/38/6 46/53/6 38/54/6
f 28/55/2 6/56/2 21/57/2 41/58/2
f 47/59/1 31/36/1 7/35/1 24/60/1
f 9/61/3 11/62/3 6/15/3 5/14/3
f 1/63/3 2/64/3 11/62/3 9/61/3
f 6/56/2 11/31/2 18/30/2 21/57/2
f 10/18/2 8/6/2 22/5/2 19/33/2
f 24/60/7 7/35/7 12/17/7 15/23/7
f 9/25/7 5/2/7 23/1/7 13/26/7
f 7/35/4 8/6/4 10/18/4 12/17/4
f 45/65/4 44/66/4 40/67/4 42/68/4 41/69/4 21/70/4 18/71/4 17/72/4 16/73/4 13/74/4 23/75/4 43/76/4
f 14/45/6 16/77/6 17/78/6 20/46/6
f 34/39/8 38/54/8 39/79/8 36/80/8
f 36/80/9 39/81/9 37/8/9 35/7/9
f 28/55/9 41/58/9 42/82/9 30/83/9
f 30/84/8 42/85/8 40/86/8 29/10/8
f 25/11/10 44/87/10 45/88/10 27/89/10
f 27/90/11 45/91/11 43/4/11 26/3/11
f 31/36/11 47/59/11 48/92/11 33/93/11
f 33/93/10 48/94/10 46/53/10 32/38/10
f 25/11/6 29/10/6 40/86/6 44/87/6
f 57/95/3 50/64/3 52/84/3 58/96/3
f 56/80/4 59/97/4 64/97/4 62/80/4
f 59/97/4 56/80/4 54/19/4 60/98/4
f 60/98/5 54/19/5 50/21/5 57/99/5
f 51/90/12 55/93/12 53/20/12 49/24/12
f 56/80/2 52/83/2 50/32/2 54/19/2
f 53/20/13 60/98/13 57/99/13 49/22/13
f 55/93/4 59/97/4 60/98/4 53/20/4
f 51/89/14 58/96/14 59/97/14 55/93/14
f 49/63/3 57/95/3 58/96/3 51/89/3
f 63/96/15 61/84/15 62/80/15 64/97/15
f 58/96/3 52/84/3 61/84/3 63/96/3
f 59/97/1 58/96/1 63/96/1 64/97/1
f 52/83/2 56/80/2 62/80/2 61/83/2
usemtl 
f 73/100/16 65/101/16 66/102/16 74/103/16
f 74/103/17 66/102/17 67/104/17 75/105/17
f 75/105/18 67/104/18 68/21/18 76/106/18
f 76/106/19 68/21/19 69/99/19 77/107/19
f 77/107/20 69/99/20 70/22/20 78/108/20
f 70/22/21 71/109/21 79/110/21 78/108/21
f 67/111/6 66/112/6 65/113/6 72/114/6 71/115/6 70/116/6 69/117/6 68/118/6
f 71/109/22 72/119/22 80/120/22 79/110/22
f 72/119/23 65/121/23 73/122/23 80/120/23
f 74/123/24 75/124/24 76/125/24 77/126/24 78/127/24 79/128/24 80/129/24 73/130/24
f 81/131/16 82/101/16 84/102/16 83/83/16
f 83/83/17 84/102/17 86/104/17 85/132/17
f 85/132/18 86/104/18 88/21/18 87/80/18
f 87/80/19 88/21/19 90/99/19 89/97/19
f 89/97/20 90/99/20 92/22/20 91/93/20
f 91/93/21 92/22/21 94/109/21 93/133/21
f 84/112/6 82/113/6 96/114/6 94/115/6 92/116/6 90/117/6 88/118/6 86/111/6
f 93/133/22 94/109/22 96/119/22 95/90/22
f 95/90/23 96/119/23 82/121/23 81/134/23
f 81/135/5 83/136/5 85/137/5 87/138/5 89/139/5 91/140/5 93/141/5 95/142/5
f 97/131/23 99/83/23 100/102/23 98/101/23
f 99/83/22 101/132/22 102/104/22 100/102/22
f 101/132/21 103/80/21 104/21/21 102/104/21
f 103/80/20 105/97/20 106/99/20 104/21/20
f 105/97/19 107/93/19 108/22/19 106/99/19
f 107/93/18 109/133/18 110/109/18 108/22/18
f 100/112/6 102/111/6 104/118/6 106/117/6 108/116/6 110/115/6 112/114/6 98/113/6
f 109/133/17 111/90/17 112/119/17 110/109/17
f 111/90/16 97/134/16 98/121/16 112/119/16
f 97/135/5 111/142/5 109/141/5 107/140/5 105/139/5 103/138/5 101/137/5 99/136/5
f 121/100/23 122/103/23 114/102/23 113/101/23
f 122/103/22 123/105/22 115/104/22 114/102/22
f 123/105/21 124/106/21 116/21/21 115/104/21
f 124/106/20 125/107/20 117/99/20 116/21/20
f 125/107/19 126/108/19 118/22/19 117/99/19
f 118/22/18 126/108/18 127/110/18 119/109/18
f 115/111/6 116/118/6 117/117/6 118/116/6 119/115/6 120/114/6 113/113/6 114/112/6
f 119/109/17 127/110/17 128/120/17 120/119/17
f 120/119/16 128/120/16 121/122/16 113/121/16
f 122/123/25 121/130/25 128/129/25 127/128/25 126/127/25 125/126/25 124/125/25 123/124/25
