# Blender 4.4.3
# www.blender.org
mtllib IS1.mtl
o Cylinder.001
v 0.000000 0.581651 -1.053471
v 0.000000 0.581651 -1.128150
v 0.030954 0.594473 -1.053471
v 0.030954 0.594473 -1.128150
v 0.043776 0.625427 -1.053471
v 0.043776 0.625427 -1.128150
v 0.030954 0.656381 -1.053471
v 0.030954 0.656381 -1.128150
v 0.000000 0.669203 -1.053471
v 0.000000 0.669203 -1.128150
v -0.030954 0.656381 -1.053471
v -0.030954 0.656381 -1.128150
v -0.043776 0.625427 -1.053471
v -0.043776 0.625427 -1.128150
v -0.030954 0.594473 -1.053471
v -0.030954 0.594473 -1.128150
v 0.022518 0.602909 -1.128150
v -0.022518 0.602909 -1.128150
v -0.022518 0.647945 -1.128150
v 0.022518 0.647945 -1.128150
v -0.031845 0.625427 -1.128150
v 0.031845 0.625427 -1.128150
v 0.000000 0.593582 -1.128150
v 0.000000 0.657273 -1.128150
v 0.000000 0.593582 -1.053471
v 0.031845 0.625427 -1.053471
v 0.000000 0.657273 -1.053471
v -0.031845 0.625427 -1.053471
v -0.022518 0.602909 -1.053471
v 0.022518 0.647945 -1.053471
v 0.022518 0.602909 -1.053471
v -0.022518 0.647945 -1.053471
v 0.014149 0.663342 -1.103999
v 0.020010 0.660915 -1.089850
v 0.000000 0.669203 -1.109860
v 0.000000 0.669203 -1.069840
v 0.014149 0.663342 -1.075700
v -0.014149 0.663342 -1.103999
v -0.020010 0.660915 -1.089850
v -0.014149 0.663342 -1.075700
v 0.020010 0.648984 -1.089850
v 0.014149 0.651412 -1.103999
v 0.000000 0.657273 -1.109860
v 0.000000 0.657273 -1.069840
v 0.014149 0.651412 -1.075700
v -0.014149 0.651412 -1.103999
v -0.020010 0.648984 -1.089850
v -0.014149 0.651412 -1.075700
v 0.000000 0.600297 -1.082048
v 0.000000 0.592977 -1.076629
v 0.005970 0.600297 -1.084520
v 0.009801 0.592977 -1.080689
v 0.008442 0.600297 -1.090490
v 0.013861 0.592977 -1.090490
v 0.005970 0.600297 -1.096460
v 0.009801 0.592977 -1.100291
v 0.000000 0.600297 -1.098932
v 0.000000 0.592977 -1.104351
v -0.005970 0.600297 -1.096460
v -0.009801 0.592977 -1.100291
v -0.008442 0.600297 -1.090490
v -0.013861 0.592977 -1.090490
v -0.005970 0.600297 -1.084520
v -0.009801 0.592977 -1.080689
v 0.000000 0.600297 -1.076629
v 0.009801 0.600297 -1.080689
v 0.013861 0.600297 -1.090490
v 0.009801 0.600297 -1.100291
v 0.000000 0.600297 -1.104351
v -0.009801 0.600297 -1.100291
v -0.013861 0.600297 -1.090490
v -0.009801 0.600297 -1.080689
v 0.000000 0.625304 -1.085141
v 0.003782 0.625304 -1.086707
v 0.005349 0.625304 -1.090490
v 0.003782 0.625304 -1.094272
v 0.000000 0.625304 -1.095839
v -0.003782 0.625304 -1.094272
v -0.005349 0.625304 -1.090490
v -0.003782 0.625304 -1.086707
v 0.031198 0.518206 -1.109564
v 0.031198 0.518206 -1.053536
v -0.031198 0.518206 -1.109564
v -0.031198 0.518206 -1.053536
v 0.031198 0.542975 -1.053536
v 0.031198 0.542975 -1.127836
v -0.031198 0.542975 -1.053536
v -0.031198 0.542975 -1.127836
v 0.031198 0.618207 -1.053536
v 0.031198 0.618207 -1.127836
v -0.031198 0.618207 -1.053536
v -0.031198 0.618207 -1.127836
v 0.031198 0.438736 -1.109564
v 0.031198 0.423892 -1.098449
v 0.031198 0.423892 -1.064651
v 0.031198 0.438736 -1.053536
v -0.031198 0.423892 -1.098449
v -0.031198 0.438736 -1.109564
v -0.031198 0.438736 -1.053536
v -0.031198 0.423892 -1.064651
v 0.030067 0.618207 -1.053536
v -0.030067 0.618207 -1.053536
v 0.030067 0.618207 -1.127836
v -0.030067 0.618207 -1.127836
v 0.024859 0.603054 -1.127836
v -0.024859 0.603054 -1.127836
v 0.024859 0.603054 -1.053536
v -0.024859 0.603054 -1.053536
v -0.011739 0.590951 -1.127836
v 0.011739 0.590951 -1.127836
v 0.011739 0.590951 -1.053536
v -0.011739 0.590951 -1.053536
vn 0.3827 -0.9239 -0.0000
vn 0.9239 -0.3827 -0.0000
vn 0.9239 0.3827 -0.0000
vn 0.3827 0.9239 -0.0000
vn -0.3827 0.9239 -0.0000
vn -0.9239 0.3827 -0.0000
vn -0.0000 -0.0000 -1.0000
vn -0.9239 -0.3827 -0.0000
vn -0.3827 -0.9239 -0.0000
vn -0.0000 -0.0000 1.0000
vn -0.3827 -0.0000 -0.9239
vn -0.9239 -0.0000 -0.3827
vn -0.9239 -0.0000 0.3827
vn -0.3827 -0.0000 0.9239
vn 0.3827 -0.0000 0.9239
vn 0.9239 -0.0000 0.3827
vn 0.9239 -0.0000 -0.3827
vn 0.3827 -0.0000 -0.9239
vn -0.0000 -1.0000 -0.0000
vn -0.9179 0.1135 -0.3802
vn -0.0000 1.0000 -0.0000
vn 0.3802 0.1135 -0.9179
vn 0.9179 0.1135 0.3802
vn -0.9179 0.1135 0.3802
vn -0.3802 0.1135 -0.9179
vn 0.9179 0.1135 -0.3802
vn 0.3802 0.1135 0.9179
vn -0.3802 0.1135 0.9179
vn -1.0000 -0.0000 -0.0000
vn 1.0000 -0.0000 -0.0000
vn -0.0000 -0.5936 -0.8047
vn 0.8374 0.5467 -0.0000
vn 0.6781 0.7350 -0.0000
vn -0.0000 -0.5994 0.8005
vn -0.0000 -0.5994 -0.8005
vn -0.9457 0.3250 -0.0000
vn -0.8374 0.5467 -0.0000
vn 0.9457 0.3250 -0.0000
vn -0.6781 0.7350 -0.0000
vt 1.000000 0.500000
vt 1.000000 1.000000
vt 0.875000 1.000000
vt 0.875000 0.500000
vt 0.750000 1.000000
vt 0.750000 0.500000
vt 0.625000 1.000000
vt 0.625000 0.500000
vt 0.500000 0.609595
vt 0.500000 0.500000
vt 0.500000 1.000000
vt 0.500000 0.877546
vt 0.557138 0.838305
vt 0.580806 0.743571
vt 0.557138 0.648836
vt 0.375000 1.000000
vt 0.375000 0.500000
vt 0.442862 0.648836
vt 0.419194 0.743571
vt 0.442862 0.838305
vt 0.250000 1.000000
vt 0.250000 0.500000
vt 0.250000 0.424592
vt 0.373455 0.373455
vt 0.419706 0.419706
vt 0.250000 0.490000
vt 0.080294 0.419706
vt 0.126545 0.373455
vt 0.010000 0.250000
vt 0.080294 0.080294
vt 0.250000 0.010000
vt 0.419706 0.080294
vt 0.490000 0.250000
vt 0.424592 0.250000
vt 0.373455 0.126545
vt 0.250000 0.075408
vt 0.126545 0.126545
vt 0.075408 0.250000
vt 0.125000 1.000000
vt 0.125000 0.500000
vt 0.000000 1.000000
vt 0.000000 0.500000
vt 0.575408 0.250000
vt 0.626545 0.126545
vt 0.580294 0.080294
vt 0.510000 0.250000
vt 0.580294 0.419706
vt 0.750000 0.490000
vt 0.919706 0.419706
vt 0.990000 0.250000
vt 0.919706 0.080294
vt 0.873455 0.126545
vt 0.924592 0.250000
vt 0.873455 0.373455
vt 0.750000 0.424592
vt 0.626545 0.373455
vt 0.750000 0.010000
vt 0.750000 0.075408
vt 0.875000 0.676392
vt 0.875000 0.848479
vt 1.000000 0.848479
vt 1.000000 0.676392
vt 0.750000 0.848479
vt 0.750000 0.676392
vt 0.625000 0.848479
vt 0.625000 0.676392
vt 0.500000 0.848479
vt 0.500000 0.676392
vt 0.500000 0.714112
vt 0.578544 0.727617
vt 0.611078 0.760222
vt 0.578544 0.792828
vt 0.500000 0.806333
vt 0.375000 0.676392
vt 0.375000 0.848479
vt 0.421456 0.792828
vt 0.388922 0.760223
vt 0.421456 0.727617
vt 0.250000 0.676392
vt 0.250000 0.848479
vt 0.125000 0.676392
vt 0.125000 0.848479
vt 0.000000 0.676392
vt 0.000000 0.848479
vt 1.000000 0.854938
vt 1.000000 0.775559
vt 0.875000 0.814554
vt 0.875000 0.893934
vt 0.750000 0.830707
vt 0.750000 0.910086
vt 0.625000 0.814554
vt 0.625000 0.893934
vt 0.500000 0.775559
vt 0.500000 0.854938
vt 0.375000 0.814554
vt 0.375000 0.893934
vt 0.250000 0.830707
vt 0.250000 0.910086
vt 0.125000 0.814554
vt 0.125000 0.893934
vt 0.000000 0.775559
vt 0.000000 0.854938
vt 0.646639 0.146639
vt 0.603825 0.250000
vt 0.853361 0.353361
vt 0.750000 0.396175
vt 0.896175 0.250000
vt 0.853361 0.146639
vt 0.750000 0.103825
vt 0.646639 0.353361
vt 0.625000 0.549595
vt 0.625000 0.700405
vt 0.875000 0.700405
vt 0.875000 0.549595
vt 0.585654 0.500000
vt 0.375000 0.750000
vt 0.585654 0.750000
vt 0.625000 0.549595
vt 0.625000 0.200405
vt 0.625000 0.049595
vt 0.585654 0.000000
vt 0.375000 0.000000
vt 0.375000 0.250000
vt 0.585654 0.250000
vt 0.370469 0.500000
vt 0.370469 0.750000
vt 0.129531 0.750000
vt 0.129531 0.500000
vt 0.125000 0.750000
vt 0.083333 0.638757
vt 0.083333 0.861157
vt 0.039352 0.861157
vt 0.039352 0.638757
vt 0.625000 0.250000
vt 0.625000 0.750000
vt 0.585654 1.000000
vt 0.375000 0.754532
vt 0.375000 0.775398
vt 0.375000 0.827966
vt 0.375000 0.922034
vt 0.375000 0.974602
vt 0.375000 0.995468
vt 0.892819 0.638757
vt 0.916667 0.638757
vt 0.916667 0.861157
vt 0.892818 0.861157
vt 0.107182 0.861157
vt 0.083333 0.861157
vt 0.107182 0.638757
vt 0.375000 0.254531
vt 0.375000 0.275398
vt 0.375000 0.327966
vt 0.375000 0.422034
vt 0.375000 0.474602
vt 0.375000 0.495469
vt 1.000000 0.638757
vt 1.000000 0.861157
vt 0.960648 0.861157
vt 0.960648 0.638757
vt 0.916667 0.861157
vt 0.916667 0.638757
s 1
f 1/1/1 2/2/1 4/3/1 3/4/1
f 3/4/2 4/3/2 6/5/2 5/6/2
f 5/6/3 6/5/3 8/7/3 7/8/3
f 36/9/4 9/10/4 7/8/4 8/7/4 10/11/4 35/12/4 33/13/4 34/14/4 37/15/4
f 35/12/5 10/11/5 12/16/5 11/17/5 9/10/5 36/9/5 40/18/5 39/19/5 38/20/5
f 11/17/6 12/16/6 14/21/6 13/22/6
f 23/23/7 17/24/7 4/25/7 2/26/7 16/27/7 18/28/7
f 18/28/7 16/27/7 14/29/7 12/30/7 10/31/7 8/32/7 6/33/7 4/25/7 17/24/7 22/34/7 20/35/7 24/36/7 19/37/7 21/38/7
f 13/22/8 14/21/8 16/39/8 15/40/8
f 15/40/9 16/39/9 2/41/9 1/42/9
f 28/43/10 32/44/10 11/45/10 13/46/10 15/47/10 1/48/10 3/49/10 5/50/10 7/51/10 30/52/10 26/53/10 31/54/10 25/55/10 29/56/10
f 30/52/10 7/51/10 9/57/10 11/45/10 32/44/10 27/58/10
f 31/59/5 17/60/5 23/61/5 25/62/5
f 22/63/6 17/60/6 31/59/6 26/64/6
f 20/65/8 22/63/8 26/64/8 30/66/8
f 24/67/9 20/65/9 30/66/9 27/68/9 44/69/9 45/70/9 41/71/9 42/72/9 43/73/9
f 44/69/1 27/68/1 32/74/1 19/75/1 24/67/1 43/73/1 46/76/1 47/77/1 48/78/1
f 28/79/2 21/80/2 19/75/2 32/74/2
f 29/81/3 18/82/3 21/80/3 28/79/3
f 25/83/4 23/84/4 18/82/4 29/81/4
f 44/85/11 36/86/11 37/87/11 45/88/11
f 45/88/12 37/87/12 34/89/12 41/90/12
f 41/90/13 34/89/13 33/91/13 42/92/13
f 33/91/14 35/93/14 43/94/14 42/92/14
f 35/93/15 38/95/15 46/96/15 43/94/15
f 46/96/16 38/95/16 39/97/16 47/98/16
f 47/98/17 39/97/17 40/99/17 48/100/17
f 48/100/18 40/99/18 36/101/18 44/102/18
f 65/1/15 50/2/15 52/3/15 66/4/15
f 66/4/16 52/3/16 54/5/16 67/6/16
f 67/6/17 54/5/17 56/7/17 68/8/17
f 68/8/18 56/7/18 58/11/18 69/10/18
f 69/10/11 58/11/11 60/16/11 70/17/11
f 70/17/12 60/16/12 62/21/12 71/22/12
f 52/25/19 50/26/19 64/27/19 62/29/19 60/30/19 58/31/19 56/32/19 54/33/19
f 71/22/13 62/21/13 64/39/13 72/40/13
f 72/40/14 64/39/14 50/41/14 65/42/14
f 59/103/20 61/104/20 79/104/20 78/103/20
f 51/105/21 49/106/21 65/48/21 66/49/21
f 53/107/21 51/105/21 66/49/21 67/50/21
f 55/108/21 53/107/21 67/50/21 68/51/21
f 57/109/21 55/108/21 68/51/21 69/57/21
f 59/103/21 57/109/21 69/57/21 70/45/21
f 61/104/21 59/103/21 70/45/21 71/46/21
f 63/110/21 61/104/21 71/46/21 72/47/21
f 49/106/21 63/110/21 72/47/21 65/48/21
f 73/106/21 74/105/21 75/107/21 76/108/21 77/109/21 78/103/21 79/104/21 80/110/21
f 55/108/22 57/109/22 77/109/22 76/108/22
f 51/105/23 53/107/23 75/107/23 74/105/23
f 61/104/24 63/110/24 80/110/24 79/104/24
f 57/109/25 59/103/25 78/103/25 77/109/25
f 53/107/26 55/108/26 76/108/26 75/107/26
f 49/106/27 51/105/27 74/105/27 73/106/27
f 63/110/28 49/106/28 73/106/28 80/110/28
f 100/111/19 97/112/19 94/113/19 95/114/19
f 99/115/29 84/17/29 83/116/29 98/117/29 97/112/29 100/118/29
f 95/119/30 94/120/30 93/121/30 81/122/30 82/123/30 96/124/30
f 81/122/30 86/122/30 85/123/30 82/123/30
f 82/123/10 84/17/10 99/115/10 96/124/10
f 87/17/29 91/17/29 92/116/29 88/116/29
f 84/17/29 87/17/29 88/116/29 83/116/29
f 83/116/31 88/116/31 86/16/31 81/16/31
f 82/123/10 85/123/10 87/17/10 84/17/10
f 102/125/21 104/126/21 92/116/21 91/17/21
f 103/127/21 101/128/21 89/40/21 90/129/21
f 86/122/30 90/122/30 89/123/30 85/123/30
f 106/130/32 108/131/32 112/132/33 109/133/33
f 95/134/34 96/124/34 99/115/34 100/8/34
f 97/135/35 98/117/35 93/136/35 94/7/35
f 83/116/7 81/16/7 93/136/7 98/117/7
f 104/137/7 106/138/7 109/139/7 110/140/7 105/141/7 103/142/7 90/16/7 86/16/7 88/116/7 92/116/7
f 103/143/36 105/144/37 107/145/37 101/146/36
f 102/147/38 108/148/32 106/130/32 104/149/38
f 101/150/10 107/151/10 111/152/10 112/153/10 108/154/10 102/155/10 91/17/10 87/17/10 85/123/10 89/123/10
f 109/156/21 112/157/21 111/158/21 110/159/21
f 110/159/39 111/158/39 107/160/37 105/161/37
