# Blender 4.4.3
# www.blender.org
mtllib Mag3.mtl
o Cube.023
v -0.042600 -0.351632 0.531496
v 0.042599 -0.851141 0.133673
v -0.042600 -0.282912 0.125877
v 0.042600 -0.351632 0.531496
v 0.042599 -0.831435 0.078303
v 0.042600 -0.282912 0.125877
v -0.050148 -0.352750 0.538099
v -0.050148 -0.281793 0.119274
v 0.050148 -0.281793 0.119274
v 0.050148 -0.352750 0.538099
v -0.050148 0.112716 0.542612
v -0.050148 0.112716 0.117819
v 0.050148 0.112716 0.117819
v 0.050148 0.112716 0.542612
v -0.042600 0.112716 0.535915
v -0.042600 0.112716 0.124516
v 0.042600 0.112716 0.124516
v 0.042600 0.112716 0.535915
v -0.042600 -0.851141 0.133673
v -0.050148 -0.342614 0.478267
v -0.050148 -0.332477 0.418435
v -0.050148 -0.322340 0.358603
v -0.050148 -0.312203 0.298771
v -0.050148 -0.302067 0.238939
v -0.050148 -0.291930 0.179107
v -0.042600 -0.870847 0.189042
v 0.050148 -0.291930 0.179107
v 0.050148 -0.302067 0.238939
v 0.050148 -0.312203 0.298771
v 0.050148 -0.322340 0.358603
v 0.050148 -0.332477 0.418435
v 0.050148 -0.342614 0.478267
v -0.042600 -0.341815 0.473551
v -0.042600 -0.331997 0.415605
v -0.042600 -0.322180 0.357660
v -0.042600 -0.312363 0.299714
v -0.042600 -0.302546 0.241768
v -0.042600 -0.292729 0.183823
v 0.042600 -0.292729 0.183823
v 0.042600 -0.302546 0.241768
v 0.042600 -0.312363 0.299714
v 0.042600 -0.322180 0.357660
v 0.042600 -0.331997 0.415605
v 0.042600 -0.341815 0.473551
v -0.050148 0.112716 0.481927
v -0.050148 0.112716 0.421243
v -0.050148 0.112716 0.360558
v -0.050148 0.112716 0.299873
v -0.050148 0.112716 0.239189
v -0.050148 0.112716 0.178504
v 0.050148 0.112716 0.178504
v 0.050148 0.112716 0.239189
v 0.050148 0.112716 0.299873
v 0.050148 0.112716 0.360558
v 0.050148 0.112716 0.421243
v 0.050148 0.112716 0.481927
v -0.042600 0.112716 0.477144
v -0.042600 0.112716 0.418373
v -0.042600 0.112716 0.359601
v -0.042600 0.112716 0.300830
v -0.042600 0.112716 0.242059
v -0.042600 0.112716 0.183287
v 0.042600 0.112716 0.183287
v 0.042600 0.112716 0.242059
v 0.042600 0.112716 0.300830
v 0.042600 0.112716 0.359601
v 0.042600 0.112716 0.418373
v 0.042600 0.112716 0.477144
v -0.052799 -0.291930 0.179106
v -0.062561 -0.289911 0.167193
v -0.062561 -0.283811 0.131188
v -0.052799 -0.281793 0.119274
v 0.052799 -0.342614 0.478267
v 0.062561 -0.344632 0.490181
v 0.062561 -0.350732 0.526185
v 0.052799 -0.352751 0.538099
v 0.062561 0.112716 0.129903
v 0.052799 0.112716 0.117819
v 0.052799 -0.281793 0.119274
v 0.062561 -0.283811 0.131188
v -0.052799 0.112716 0.117819
v -0.062561 0.112716 0.129903
v -0.062561 0.112716 0.530529
v -0.052799 0.112716 0.542612
v -0.052799 -0.352751 0.538099
v -0.062561 -0.350732 0.526185
v 0.052799 0.112716 0.542612
v 0.062561 0.112716 0.530529
v -0.062561 0.112716 0.166421
v -0.052799 0.112716 0.178504
v 0.062561 0.112716 0.494011
v 0.052799 0.112716 0.481927
v -0.062561 -0.344632 0.490181
v -0.052799 -0.342614 0.478267
v -0.052799 -0.332477 0.418435
v -0.062561 -0.330458 0.406521
v -0.062561 -0.324359 0.370516
v -0.052799 -0.322340 0.358603
v -0.052799 -0.312203 0.298771
v -0.062561 -0.310185 0.286857
v -0.062561 -0.304085 0.250852
v -0.052799 -0.302067 0.238939
v 0.062561 -0.289911 0.167193
v 0.052799 -0.291930 0.179106
v 0.052799 -0.302067 0.238939
v 0.062561 -0.304085 0.250852
v 0.062561 -0.310185 0.286857
v 0.052799 -0.312203 0.298771
v 0.052799 -0.322340 0.358603
v 0.062561 -0.324359 0.370516
v 0.062561 -0.330458 0.406521
v 0.052799 -0.332477 0.418435
v -0.052799 0.112716 0.481927
v -0.062561 0.112716 0.494011
v -0.062561 0.112716 0.409159
v -0.052799 0.112716 0.421243
v -0.052799 0.112716 0.360558
v -0.062561 0.112716 0.372641
v -0.062561 0.112716 0.287790
v -0.052799 0.112716 0.299873
v -0.052799 0.112716 0.239189
v -0.062561 0.112716 0.251272
v 0.052799 0.112716 0.178504
v 0.062561 0.112716 0.166421
v 0.062561 0.112716 0.251272
v 0.052799 0.112716 0.239189
v 0.052799 0.112716 0.299873
v 0.062561 0.112716 0.287790
v 0.062561 0.112716 0.372641
v 0.052799 0.112716 0.360558
v 0.052799 0.112716 0.421243
v 0.062561 0.112716 0.409159
v -0.042600 -0.890552 0.244411
v -0.042600 -0.910258 0.299780
v -0.042600 -0.929964 0.355150
v 0.050147 -0.911220 0.302484
v 0.050147 -0.890873 0.245312
v 0.050147 -0.870526 0.188141
v 0.050147 -0.850178 0.130969
v 0.050147 -0.829831 0.073797
v -0.050148 -0.850178 0.130969
v -0.050148 -0.870526 0.188141
v -0.050148 -0.890873 0.245312
v -0.050148 -0.911220 0.302484
v -0.050148 -0.931568 0.359656
v -0.050148 -1.009741 0.332599
v -0.042600 -0.949670 0.410519
v 0.042599 -0.949670 0.410519
v 0.042599 -0.929964 0.355150
v 0.042599 -0.811729 0.022934
v -0.042600 -0.811729 0.022934
v -0.042600 -0.831435 0.078303
v -0.050148 -0.951915 0.416828
v 0.050147 -0.951915 0.416828
v 0.050147 -0.931568 0.359656
v 0.050147 -0.809484 0.016625
v 0.050147 -0.819793 0.012956
v -0.050148 -0.819793 0.012956
v -0.050148 -0.809484 0.016625
v -0.050148 -0.829831 0.073797
v -0.050148 -0.542220 0.149884
v -0.050148 -0.527872 0.090919
v 0.050148 -0.527872 0.090919
v 0.050148 -0.613955 0.444705
v 0.050148 -0.628302 0.503670
v -0.050148 -0.628302 0.503670
v -0.042599 -0.543350 0.154531
v -0.042599 -0.529456 0.097426
v 0.042600 -0.529456 0.097426
v 0.042600 -0.612824 0.440058
v 0.042600 -0.626719 0.497163
v -0.042599 -0.626719 0.497163
v -0.050148 -0.613955 0.444705
v -0.050148 -0.599608 0.385741
v -0.050148 -0.585261 0.326777
v -0.050148 -0.570914 0.267812
v -0.050148 -0.556567 0.208848
v 0.050148 -0.542220 0.149884
v 0.050148 -0.556567 0.208848
v 0.050148 -0.570914 0.267812
v 0.050148 -0.585261 0.326777
v 0.050148 -0.599608 0.385741
v -0.042599 -0.612824 0.440058
v -0.042599 -0.598929 0.382952
v -0.042599 -0.585035 0.325847
v -0.042599 -0.571140 0.268742
v -0.042599 -0.557245 0.211637
v 0.042600 -0.543350 0.154531
v 0.042600 -0.557245 0.211637
v 0.042600 -0.571140 0.268742
v 0.042600 -0.585035 0.325847
v 0.042600 -0.598929 0.382952
v 0.062561 -0.530729 0.102660
v 0.052800 -0.527872 0.090919
v -0.052799 -0.527872 0.090919
v -0.062561 -0.530729 0.102660
v -0.062561 -0.625445 0.491929
v -0.052799 -0.628302 0.503670
v 0.052800 -0.628302 0.503670
v 0.062561 -0.625445 0.491929
v -0.062561 -0.539363 0.138143
v -0.052799 -0.542220 0.149884
v -0.052799 -0.556567 0.208848
v -0.062561 -0.559423 0.220589
v -0.062561 -0.568057 0.256071
v -0.052799 -0.570914 0.267812
v -0.052799 -0.585261 0.326777
v -0.062561 -0.588118 0.338517
v -0.062561 -0.596751 0.374000
v -0.052799 -0.599608 0.385741
v -0.052799 -0.613955 0.444705
v -0.062561 -0.616812 0.456446
v 0.062561 -0.616812 0.456446
v 0.052800 -0.613955 0.444705
v 0.052800 -0.599608 0.385741
v 0.062561 -0.596751 0.374000
v 0.062561 -0.588118 0.338517
v 0.052800 -0.585261 0.326777
v 0.052800 -0.570914 0.267812
v 0.062561 -0.568057 0.256071
v 0.062561 -0.559423 0.220589
v 0.052800 -0.556567 0.208848
v 0.052800 -0.542220 0.149884
v 0.062561 -0.539363 0.138143
v 0.042599 -0.870847 0.189042
v 0.042599 -0.890552 0.244411
v 0.042599 -0.910258 0.299780
v 0.050147 -1.009741 0.332599
v 0.050147 -1.018821 0.393016
v 0.062560 -0.813535 0.028009
v 0.052799 -0.809484 0.016625
v -0.052800 -0.809484 0.016625
v -0.062561 -0.813535 0.028009
v -0.062561 -0.947864 0.405444
v -0.052800 -0.951915 0.416828
v 0.052799 -0.951915 0.416828
v 0.062560 -0.947864 0.405444
v -0.062561 -0.825780 0.062413
v -0.052800 -0.829831 0.073797
v -0.052800 -0.850179 0.130969
v -0.062561 -0.854230 0.142353
v -0.062561 -0.866474 0.176757
v -0.052800 -0.870526 0.188141
v -0.052800 -0.890873 0.245312
v -0.062561 -0.894925 0.256696
v -0.062561 -0.907169 0.291100
v -0.052800 -0.911221 0.302484
v -0.052800 -0.931568 0.359656
v -0.062561 -0.935619 0.371040
v 0.062560 -0.935619 0.371040
v 0.052799 -0.931568 0.359656
v 0.052799 -0.911221 0.302484
v 0.062560 -0.907169 0.291100
v 0.062560 -0.894925 0.256696
v 0.052799 -0.890873 0.245312
v 0.052799 -0.870526 0.188141
v 0.062560 -0.866474 0.176757
v 0.062560 -0.854230 0.142353
v 0.052799 -0.850179 0.130969
v 0.052799 -0.829831 0.073797
v 0.062560 -0.825780 0.062413
v -0.050148 -1.018821 0.393016
v -0.054169 -1.069307 0.358063
v -0.054169 -1.035356 0.370146
v -0.054169 -0.820605 0.010158
v 0.054168 -1.069307 0.358063
v 0.054168 -1.035356 0.370146
v 0.054168 -0.820605 0.010158
v -0.054169 -0.917019 -0.024155
v -0.054169 -0.944285 0.006776
v 0.054168 -0.944285 0.006776
v 0.054168 -0.917019 -0.024155
v 0.054168 -0.908239 0.000501
v 0.054168 -0.851570 0.020669
v 0.054168 -1.021636 0.290302
v -0.054169 -1.021636 0.290302
v -0.054169 -0.908239 0.000501
v -0.054169 -0.851570 0.020669
v -0.054169 -0.926227 0.022222
v 0.054168 -0.926227 0.022222
v -0.031756 -1.024596 0.352110
v -0.031756 -0.831365 0.028194
v 0.031755 -0.831365 0.028194
v 0.031755 -1.024596 0.352110
v -0.031756 -1.009797 0.360939
v -0.031756 -0.816565 0.037022
v 0.031755 -0.816565 0.037022
v 0.031755 -1.009797 0.360939
vn 1.0000 -0.0000 -0.0000
vn -0.0000 0.1145 -0.9934
vn -1.0000 -0.0000 -0.0000
vn -0.0000 -0.0037 -1.0000
vn -0.0000 -0.0097 1.0000
vn -0.0000 1.0000 -0.0000
vn -0.0000 -0.0063 1.0000
vn -0.0000 0.0095 -1.0000
vn -0.0000 0.0034 1.0000
vn -0.0000 0.0080 -1.0000
vn -0.0000 0.1174 -0.9931
vn 0.7766 0.0758 -0.6254
vn -0.0000 -0.1240 0.9923
vn -0.0000 -0.1188 0.9929
vn -0.7766 0.0741 -0.6257
vn -0.0000 0.1228 -0.9924
vn 0.7767 -0.0764 0.6253
vn -0.7765 -0.0730 0.6258
vn 0.7767 0.0774 -0.6251
vn -0.0000 0.1238 -0.9923
vn -0.0000 0.0015 1.0000
vn -0.0000 -0.0026 1.0000
vn -0.0000 0.0045 -1.0000
vn -0.0000 0.0006 -1.0000
vn -0.0000 -0.1160 0.9933
vn 0.7767 -0.0780 0.6250
vn 0.7756 -0.0022 -0.6312
vn -0.7756 -0.0022 -0.6312
vn -0.7759 -0.0060 0.6308
vn 0.7759 -0.0060 0.6308
vn -0.7757 0.0011 0.6311
vn -0.7757 0.0005 -0.6311
vn -0.7758 -0.0015 0.6310
vn -0.7758 0.0030 -0.6309
vn -0.7759 -0.0039 0.6309
vn -0.7759 0.0052 -0.6308
vn 0.7759 0.0052 -0.6308
vn 0.7759 -0.0039 0.6309
vn 0.7758 0.0030 -0.6309
vn 0.7758 -0.0015 0.6310
vn 0.7757 0.0005 -0.6311
vn 0.7757 0.0011 0.6311
vn -0.0000 -0.1146 0.9934
vn -0.0000 -0.1215 0.9926
vn -0.7767 -0.0780 0.6250
vn -0.7767 0.0774 -0.6251
vn -0.0000 0.1202 -0.9928
vn 0.7765 -0.0730 0.6258
vn -0.7767 -0.0764 0.6253
vn -0.7765 0.0722 -0.6260
vn 0.7766 0.0741 -0.6257
vn -0.0000 -0.2552 0.9669
vn 0.7773 0.1621 -0.6078
vn -0.0000 0.2576 -0.9663
vn 0.7773 -0.1623 0.6078
vn -0.0000 -0.2581 0.9661
vn -0.0000 -0.2592 0.9658
vn 0.7774 0.1627 -0.6076
vn -0.7774 0.1628 -0.6076
vn -0.0000 0.2564 -0.9666
vn -0.7773 -0.1623 0.6078
vn -0.0000 -0.2570 0.9664
vn -0.0000 0.2551 -0.9669
vn -0.7773 0.1621 -0.6078
vn -0.7773 -0.1616 0.6080
vn -0.7773 0.1613 -0.6081
vn -0.7773 -0.1609 0.6082
vn 0.7774 -0.1630 0.6076
vn -0.7774 -0.1630 0.6076
vn -0.7773 0.1605 -0.6083
vn -0.0000 0.2587 -0.9660
vn 0.7773 0.1605 -0.6083
vn -0.0000 -0.2557 0.9667
vn -0.7766 -0.0748 0.6255
vn 0.7766 -0.0748 0.6255
vn -0.7766 0.0758 -0.6254
vn 0.7765 0.0722 -0.6260
vn -0.0000 0.3353 -0.9421
vn -0.0000 0.9421 0.3353
vn -0.0000 -0.9421 -0.3353
vn -0.0000 -0.8597 -0.5109
vn -0.0000 -0.3353 0.9421
vn -0.0000 -0.9889 -0.1486
vn -0.0000 -0.5123 0.8588
vn -0.0000 -0.7501 -0.6613
vn -0.0000 -0.8458 -0.5335
vn -0.0000 0.7702 0.6378
vn -0.0000 0.8588 0.5123
vn -0.0000 0.5123 -0.8588
vn 0.7773 -0.1616 0.6080
vn 0.7773 0.1613 -0.6081
vn -0.0000 0.2591 -0.9658
vn 0.7773 -0.1609 0.6082
vt 0.858151 0.609351
vt 0.858151 0.640649
vt 0.625000 0.500000
vt 0.625000 0.578540
vt 0.625000 0.600031
vt 0.858151 0.671947
vt 0.858151 0.546754
vt 0.858151 0.515456
vt 0.641849 0.703246
vt 0.641849 0.734544
vt 0.625000 0.250000
vt 0.625000 1.000000
vt 0.625000 0.750000
vt 0.875000 0.500000
vt 0.875000 0.535714
vt 0.641849 0.515456
vt 0.625000 0.714286
vt 0.858151 0.734544
vt 0.875000 0.750000
vt 0.625000 0.678571
vt 0.875000 0.678571
vt 0.875000 0.642857
vt 0.875000 0.649968
vt 0.875000 0.671460
vt 0.875000 0.678571
vt 0.625000 0.571429
vt 0.625000 0.607143
vt 0.625000 0.600031
vt 0.625000 0.578540
vt 0.625000 0.214286
vt 0.625000 0.178571
vt 0.625000 0.035714
vt 0.625000 0.142857
vt 0.625000 0.107143
vt 0.625000 0.071429
vt 0.625000 0.642857
vt 0.625000 0.649968
vt 0.625000 0.607143
vt 0.875000 0.607143
vt 0.875000 0.571429
vt 0.875000 0.578540
vt 0.875000 0.600031
vt 0.625000 0.535714
vt 0.625000 0.535714
vt 0.641849 0.546754
vt 0.641849 0.578053
vt 0.641849 0.609351
vt 0.641849 0.640649
vt 0.641849 0.671947
vt 0.858151 0.703246
vt 0.875000 0.714286
vt 0.858151 0.671947
vt 0.858151 0.640649
vt 0.858151 0.578053
vt 0.641849 0.578053
vt 0.641849 0.640649
vt 0.641849 0.671947
vt 0.858151 0.703246
vt 0.625000 0.171460
vt 0.625000 0.714286
vt 0.625000 0.671460
vt 0.625000 0.721397
vt 0.625000 0.742889
vt 0.625000 0.149969
vt 0.625000 0.221397
vt 0.625000 0.242889
vt 0.625000 0.528603
vt 0.625000 0.507111
vt 0.875000 0.721397
vt 0.875000 0.742889
vt 0.875000 0.507111
vt 0.875000 0.528603
vt 0.625000 0.528603
vt 0.625000 0.742889
vt 0.625000 0.100032
vt 0.625000 0.078540
vt 0.625000 0.028603
vt 0.625000 0.007111
vt 0.625000 0.007111
vt 0.625000 0.028603
vt 0.625000 0.000000
vt 0.375000 0.214286
vt 0.375000 0.250000
vt 0.375000 0.500000
vt 0.375000 0.714286
vt 0.553856 0.750000
vt 0.125000 0.500000
vt 0.375000 0.535714
vt 0.125000 0.535714
vt 0.375000 0.571429
vt 0.375000 0.607143
vt 0.375000 0.642857
vt 0.375000 0.678571
vt 0.553856 1.000000
vt 0.375000 0.035714
vt 0.375000 0.071429
vt 0.375000 0.107143
vt 0.375000 0.142857
vt 0.375000 0.178571
vt 0.625000 0.507111
vt 0.625000 0.528603
vt 0.125000 0.716288
vt 0.375000 0.716288
vt 0.375000 0.750000
vt 0.125000 0.750000
vt 0.375000 0.033712
vt 0.553856 0.000000
vt 0.456346 0.250000
vt 0.456346 0.500000
vt 0.473220 0.512334
vt 0.584087 0.512335
vt 0.375000 0.523278
vt 0.437312 0.528444
vt 0.483037 0.701465
vt 0.375000 1.000000
vt 0.473220 0.237666
vt 0.375000 0.226722
vt 0.375000 0.000000
vt 0.584087 0.237666
vt 0.483037 0.048535
vt 0.437312 0.221556
vt 0.823280 0.737475
vt 0.676720 0.737475
vt 0.375000 0.523278
vt 0.125000 0.523278
vt 0.456346 0.332830
vt 0.456346 0.417170
vt 0.625000 0.417170
vt 0.625000 0.332830
vt 0.792170 0.500000
vt 0.707830 0.500000
vt 0.707830 0.750000
vt 0.792170 0.750000
vt 0.292170 0.523278
vt 0.292170 0.500000
vt 0.207830 0.500000
vt 0.207830 0.523278
vt 0.207830 0.750000
vt 0.292170 0.750000
vt 0.292170 0.523278
vt 0.823280 0.512525
vt 0.676720 0.512525
s 0
f 36/1/1 35/2/1 185/2/1 186/1/1
f 9/3/2 79/3/2 194/3/2 163/3/2
f 106/4/1 107/5/1 220/5/1 221/4/1
f 35/2/1 34/6/1 184/6/1 185/2/1
f 38/7/1 3/8/1 16/8/1 62/7/1
f 44/9/3 4/10/3 18/10/3 68/9/3
f 9/3/4 8/11/4 12/11/4 13/3/4
f 7/12/5 10/13/5 14/13/5 11/12/5
f 62/7/6 16/8/6 12/14/6 50/15/6
f 16/8/6 17/16/6 13/3/6 12/14/6
f 68/9/6 18/10/6 14/13/6 56/17/6
f 18/10/6 15/18/6 11/19/6 14/13/6
f 55/20/7 31/20/7 112/20/7 131/20/7
f 4/10/8 1/18/8 15/18/8 18/10/8
f 3/8/9 6/16/9 17/16/9 16/8/9
f 46/21/6 47/22/6 117/22/6 118/23/6 115/24/6 116/25/6
f 52/26/6 53/27/6 127/27/6 128/28/6 125/29/6 126/26/6
f 25/30/3 24/31/3 49/31/3 50/30/3
f 45/32/10 20/32/10 94/32/10 113/32/10
f 23/33/3 22/34/3 47/34/3 48/33/3
f 28/26/11 105/26/11 222/26/11 179/26/11
f 21/35/3 20/32/3 45/32/3 46/35/3
f 14/13/5 10/13/5 76/13/5 87/13/5
f 32/17/1 31/20/1 55/20/1 56/17/1
f 109/36/12 110/37/12 217/37/12 218/36/12
f 30/36/1 29/38/1 53/27/1 54/36/1
f 48/39/6 49/40/6 121/40/6 122/41/6 119/42/6 120/39/6
f 28/26/1 27/43/1 51/44/1 52/26/1
f 17/16/6 63/45/6 51/44/6 13/3/6
f 63/45/6 64/46/6 52/26/6 51/44/6
f 64/46/6 65/47/6 53/27/6 52/26/6
f 65/47/6 66/48/6 54/36/6 53/27/6
f 66/48/6 67/49/6 55/20/6 54/36/6
f 67/49/6 68/9/6 56/17/6 55/20/6
f 15/18/6 57/50/6 45/51/6 11/19/6
f 57/50/6 58/52/6 46/21/6 45/51/6
f 58/52/6 59/53/6 47/22/6 46/21/6
f 59/53/6 60/1/6 48/39/6 47/22/6
f 60/1/6 61/54/6 49/40/6 48/39/6
f 61/54/6 62/7/6 50/15/6 49/40/6
f 6/16/3 39/45/3 63/45/3 17/16/3
f 39/45/3 40/55/3 64/46/3 63/45/3
f 40/55/3 41/47/3 65/47/3 64/46/3
f 41/47/3 42/56/3 66/48/3 65/47/3
f 42/56/3 43/57/3 67/49/3 66/48/3
f 43/57/3 44/9/3 68/9/3 67/49/3
f 1/18/1 33/58/1 57/50/1 15/18/1
f 33/58/1 34/6/1 58/52/1 57/50/1
f 34/6/1 35/2/1 59/53/1 58/52/1
f 35/2/1 36/1/1 60/1/1 59/53/1
f 36/1/1 37/54/1 61/54/1 60/1/1
f 37/54/1 38/7/1 62/7/1 61/54/1
f 34/6/1 33/58/1 183/58/1 184/6/1
f 76/13/13 10/13/13 165/13/13 199/13/13
f 108/38/14 29/38/14 180/38/14 219/38/14
f 33/58/1 1/18/1 172/18/1 183/58/1
f 101/59/15 102/31/15 203/31/15 204/59/15
f 31/20/1 32/17/1 164/17/1 182/20/1
f 32/17/16 73/60/16 214/60/16 164/17/16
f 29/38/1 30/36/1 181/36/1 180/38/1
f 111/61/17 112/20/17 215/20/17 216/61/17
f 74/62/1 75/63/1 200/63/1 213/62/1
f 100/64/3 101/59/3 204/59/3 205/64/3
f 23/33/14 99/33/14 206/33/14 176/33/14
f 69/30/18 70/65/18 201/65/18 202/30/18
f 27/43/1 28/26/1 179/26/1 178/43/1
f 102/31/11 24/31/11 177/31/11 203/31/11
f 73/60/19 74/62/19 213/62/19 214/60/19
f 24/31/3 25/30/3 161/30/3 177/31/3
f 70/65/3 71/66/3 196/66/3 201/65/3
f 1/18/20 4/10/20 171/10/20 172/18/20
f 13/3/6 51/44/6 123/44/6 124/67/6 77/68/6 78/3/6
f 11/19/6 45/51/6 113/51/6 114/69/6 83/70/6 84/19/6
f 25/30/21 50/30/21 90/30/21 69/30/21
f 23/33/22 48/33/22 120/33/22 99/33/22
f 21/35/7 46/35/7 116/35/7 95/35/7
f 32/17/10 56/17/10 92/60/10 73/60/10
f 30/36/23 54/36/23 130/36/23 109/36/23
f 28/26/24 52/26/24 126/26/24 105/26/24
f 25/30/25 69/30/25 202/30/25 161/30/25
f 75/63/26 76/13/26 199/13/26 200/63/26
f 53/27/22 29/38/22 108/38/22 127/27/22
f 54/36/6 55/20/6 131/20/6 132/61/6 129/37/6 130/36/6
f 4/10/3 44/9/3 170/9/3 171/10/3
f 50/15/6 12/14/6 81/14/6 82/71/6 89/72/6 90/15/6
f 56/17/6 14/13/6 87/13/6 88/63/6 91/62/6 92/60/6
f 71/66/3 70/65/3 89/65/3 82/66/3
f 12/11/4 8/11/4 72/11/4 81/11/4
f 107/5/1 106/4/1 125/29/1 128/5/1
f 103/73/1 80/68/1 77/68/1 124/67/1
f 51/44/21 27/43/21 104/43/21 123/44/21
f 75/63/1 74/62/1 91/62/1 88/74/1
f 97/75/3 96/76/3 115/76/3 118/75/3
f 49/31/24 24/31/24 102/31/24 121/31/24
f 111/61/1 110/37/1 129/37/1 132/61/1
f 93/77/3 86/78/3 83/79/3 114/80/3
f 22/34/3 23/33/3 176/33/3 175/34/3
f 72/11/2 8/11/2 162/11/2 195/11/2
f 9/3/4 13/3/4 78/3/4 79/3/4
f 101/59/3 100/64/3 119/64/3 122/59/3
f 47/34/23 22/34/23 98/34/23 117/34/23
f 7/12/5 11/12/5 84/12/5 85/12/5
f 77/68/27 80/68/27 79/3/27 78/3/27
f 71/66/28 82/66/28 81/11/28 72/11/28
f 83/79/29 86/78/29 85/81/29 84/81/29
f 75/63/30 88/74/30 87/13/30 76/13/30
f 69/30/31 90/30/31 89/65/31 70/65/31
f 101/59/32 122/59/32 121/31/32 102/31/32
f 99/33/33 120/33/33 119/64/33 100/64/33
f 97/75/34 118/75/34 117/34/34 98/34/34
f 95/35/35 116/35/35 115/76/35 96/76/35
f 93/77/36 114/80/36 113/32/36 94/32/36
f 73/60/37 92/60/37 91/62/37 74/62/37
f 111/61/38 132/61/38 131/20/38 112/20/38
f 109/36/39 130/36/39 129/37/39 110/37/39
f 107/5/40 128/5/40 127/27/40 108/38/40
f 105/26/41 126/26/41 125/29/41 106/4/41
f 103/73/42 124/67/42 123/44/42 104/43/42
f 96/76/3 97/75/3 208/75/3 209/76/3
f 6/16/43 3/8/43 168/8/43 169/16/43
f 21/35/44 95/35/44 210/35/44 174/35/44
f 85/81/45 86/78/45 197/78/45 198/81/45
f 3/8/1 38/7/1 167/7/1 168/8/1
f 93/77/46 94/32/46 211/32/46 212/77/46
f 20/32/3 21/35/3 174/35/3 173/32/3
f 98/34/47 22/34/47 175/34/47 207/34/47
f 10/13/13 7/12/13 166/12/13 165/13/13
f 94/32/16 20/32/16 173/32/16 211/32/16
f 103/73/48 104/43/48 223/43/48 224/73/48
f 8/11/2 9/3/2 163/3/2 162/11/2
f 95/35/49 96/76/49 209/76/49 210/35/49
f 44/9/3 43/57/3 192/57/3 170/9/3
f 86/78/3 93/77/3 212/77/3 197/78/3
f 43/57/3 42/56/3 191/56/3 192/57/3
f 71/66/50 72/11/50 195/11/50 196/66/50
f 42/56/3 41/47/3 190/47/3 191/56/3
f 105/26/51 106/4/51 221/4/51 222/26/51
f 7/12/13 85/12/13 198/12/13 166/12/13
f 110/37/1 111/61/1 216/61/1 217/37/1
f 41/47/3 40/55/3 189/55/3 190/47/3
f 104/43/25 27/43/25 178/43/25 223/43/25
f 30/36/47 109/36/47 218/36/47 181/36/47
f 169/16/52 168/8/52 151/8/52 150/16/52
f 192/57/3 191/56/3 226/56/3 227/57/3
f 218/36/53 217/37/53 254/37/53 255/36/53
f 181/36/54 218/36/54 255/36/54 137/36/54
f 168/8/1 167/7/1 152/7/1 151/8/1
f 191/56/3 190/47/3 225/47/3 226/56/3
f 216/61/55 215/20/55 252/20/55 253/61/55
f 215/20/56 182/20/56 136/20/56 252/20/56
f 165/13/57 166/12/57 153/12/57 154/13/57
f 190/47/3 189/55/3 2/55/3 225/47/3
f 214/60/58 213/62/58 250/62/58 251/60/58
f 221/4/1 220/5/1 257/5/1 258/4/1
f 189/55/3 188/45/3 5/45/3 2/55/3
f 212/77/59 211/32/59 248/32/59 249/77/59
f 179/26/60 222/26/60 259/26/60 139/26/60
f 188/45/3 169/16/3 150/16/3 5/45/3
f 210/35/61 209/76/61 246/76/61 247/35/61
f 219/38/62 180/38/62 138/38/62 256/38/62
f 162/11/63 163/3/63 156/3/63 159/11/63
f 167/7/1 187/54/1 19/54/1 152/7/1
f 208/75/64 207/34/64 244/34/64 245/75/64
f 205/64/3 204/59/3 241/59/3 242/64/3
f 187/54/1 186/1/1 26/1/1 19/54/1
f 206/33/65 205/64/65 242/64/65 243/33/65
f 176/33/62 206/33/62 243/33/62 142/33/62
f 186/1/1 185/2/1 133/2/1 26/1/1
f 204/59/66 203/31/66 240/31/66 241/59/66
f 203/31/60 177/31/60 141/31/60 240/31/60
f 185/2/1 184/6/1 134/6/1 133/2/1
f 202/30/67 201/65/67 238/65/67 239/30/67
f 209/76/3 208/75/3 245/75/3 246/76/3
f 184/6/1 183/58/1 135/58/1 134/6/1
f 200/63/68 199/13/68 236/13/68 237/63/68
f 174/35/56 210/35/56 247/35/56 144/35/56
f 183/58/1 172/18/1 147/18/1 135/58/1
f 198/81/69 197/78/69 234/78/69 235/81/69
f 207/34/54 175/34/54 143/34/54 244/34/54
f 182/20/1 164/17/1 155/17/1 136/20/1
f 196/66/70 195/11/70 232/11/70 233/66/70
f 211/32/71 173/32/71 145/32/71 248/32/71
f 194/3/72 193/68/72 230/68/72 231/3/72
f 197/78/3 212/77/3 249/77/3 234/78/3
f 180/38/1 181/36/1 137/36/1 138/38/1
f 166/12/57 198/12/57 235/12/57 153/12/57
f 223/43/73 178/43/73 140/43/73 260/43/73
f 178/43/1 179/26/1 139/26/1 140/43/1
f 193/68/1 224/73/1 261/73/1 230/68/1
f 163/3/63 194/3/63 231/3/63 156/3/63
f 177/31/3 161/30/3 160/30/3 141/31/3
f 199/13/57 165/13/57 154/13/57 236/13/57
f 164/17/71 214/60/71 251/60/71 155/17/71
f 175/34/3 176/33/3 142/33/3 143/34/3
f 213/62/1 200/63/1 237/63/1 250/62/1
f 201/65/3 196/66/3 233/66/3 238/65/3
f 99/33/74 100/64/74 205/64/74 206/33/74
f 37/54/1 36/1/1 186/1/1 187/54/1
f 80/68/1 103/73/1 224/73/1 193/68/1
f 38/7/1 37/54/1 187/54/1 167/7/1
f 107/5/75 108/38/75 219/38/75 220/5/75
f 39/45/3 6/16/3 169/16/3 188/45/3
f 112/20/44 31/20/44 182/20/44 215/20/44
f 40/55/3 39/45/3 188/45/3 189/55/3
f 97/75/76 98/34/76 207/34/76 208/75/76
f 79/3/77 80/68/77 193/68/77 194/3/77
f 146/82/3 160/30/3 159/11/3 158/83/3
f 158/83/78 159/11/78 156/3/78 157/84/78
f 228/85/1 155/17/1 154/13/1 229/86/1
f 149/9/79 135/58/79 147/18/79 148/10/79
f 154/13/80 155/17/80 251/60/80 250/62/80 237/74/80 236/13/80
f 143/34/80 144/35/80 247/35/80 246/76/80 245/75/80 244/34/80
f 150/16/79 151/8/79 152/7/79 5/45/79
f 5/45/79 152/7/79 19/54/79 2/55/79
f 2/55/79 19/54/79 26/1/79 225/47/79
f 225/47/79 26/1/79 133/2/79 226/56/79
f 226/56/79 133/2/79 134/6/79 227/57/79
f 227/57/79 134/6/79 135/58/79 149/9/79
f 158/87/81 157/84/81 228/88/81 146/89/81
f 157/84/1 156/3/1 140/43/1 228/88/1
f 228/88/1 140/43/1 139/26/1
f 228/90/1 139/26/1 138/38/1
f 228/91/1 138/38/1 137/36/1
f 228/92/1 137/36/1 136/20/1
f 228/93/1 136/20/1 155/17/1
f 229/86/82 154/13/82 153/12/82 262/94/82
f 146/95/3 145/32/3 144/35/3
f 146/96/3 144/35/3 143/34/3
f 146/97/3 143/34/3 142/33/3
f 146/98/3 142/33/3 141/31/3
f 146/99/3 141/31/3 160/30/3
f 140/43/80 156/3/80 231/3/80 230/100/80 261/101/80 260/43/80
f 136/20/80 137/36/80 255/36/80 254/37/80 253/61/80 252/20/80
f 138/38/80 139/26/80 259/26/80 258/29/80 257/5/80 256/38/80
f 145/32/80 153/81/80 235/81/80 234/79/80 249/80/80 248/32/80
f 141/31/80 142/33/80 243/33/80 242/64/80 241/59/80 240/31/80
f 159/11/80 160/30/80 239/30/80 238/65/80 233/66/80 232/11/80
f 146/102/83 228/103/83 229/104/83 262/105/83
f 146/106/3 262/107/3 153/81/3 145/32/3
f 269/108/78 265/11/78 268/3/78 272/109/78
f 273/110/1 272/109/1 268/3/1 274/111/1
f 274/111/1 268/3/1 267/13/1 266/104/1 271/112/1 272/109/1 273/110/1 280/113/1 275/114/1
f 266/104/82 267/13/82 264/12/82 263/115/82
f 277/116/3 269/108/3 270/117/3 263/118/3 264/81/3 265/11/3 278/119/3 276/120/3 279/121/3
f 265/11/3 269/108/3 277/116/3 278/119/3
f 281/122/84 284/123/84 288/123/84 285/122/84
f 271/124/85 270/125/85 269/87/85 272/84/85
f 270/125/80 271/124/80 266/104/80 263/105/80
f 277/126/82 273/127/82 274/128/82 278/129/82
f 278/130/86 274/131/86 275/132/86 276/133/86
f 280/134/87 273/135/87 277/136/87 279/137/87
f 276/138/79 275/139/79 280/140/79 279/137/79
f 281/122/88 282/141/88 265/14/88 264/19/88
f 282/141/88 283/142/88 268/3/88 265/14/88
f 284/123/88 281/122/88 264/19/88 267/13/88
f 283/142/88 284/123/88 267/13/88 268/3/88
f 287/142/88 286/141/88 285/122/88 288/123/88
f 282/141/3 281/122/3 285/122/3 286/141/3
f 284/123/1 283/142/1 287/142/1 288/123/1
f 283/142/89 282/141/89 286/141/89 287/142/89
f 217/37/1 216/61/1 253/61/1 254/37/1
f 220/5/90 219/38/90 256/38/90 257/5/90
f 170/9/3 192/57/3 227/57/3 149/9/3
f 171/10/3 170/9/3 149/9/3 148/10/3
f 222/26/91 221/4/91 258/4/91 259/26/91
f 172/18/92 171/10/92 148/10/92 147/18/92
f 224/73/93 223/43/93 260/43/93 261/73/93
f 195/11/63 162/11/63 159/11/63 232/11/63
f 161/30/73 202/30/73 239/30/73 160/30/73
f 173/32/3 174/35/3 144/35/3 145/32/3
