# Blender 4.4.3
# www.blender.org
mtllib Muzzle.mtl
o Cylinder.003
v 0.000000 0.272547 -2.096003
v 0.000000 0.179468 -2.248172
v 0.027664 0.265134 -2.096003
v 0.018875 0.184525 -2.248172
v 0.047916 0.244882 -2.096003
v 0.032692 0.198342 -2.248172
v 0.055328 0.217217 -2.096003
v 0.037749 0.217217 -2.248172
v 0.047916 0.189552 -2.096003
v 0.032692 0.236092 -2.248172
v 0.027664 0.169300 -2.096003
v 0.018875 0.249909 -2.248172
v -0.000000 0.254966 -2.248172
v -0.000000 0.161887 -2.096003
v -0.018875 0.249909 -2.248172
v -0.027664 0.169300 -2.096003
v -0.047916 0.189552 -2.096003
v -0.032692 0.236092 -2.248172
v -0.037749 0.217217 -2.248172
v -0.055328 0.217217 -2.096003
v -0.032692 0.198342 -2.248172
v -0.047916 0.244882 -2.096003
v -0.027664 0.265134 -2.096003
v -0.018875 0.184525 -2.248172
v 0.000000 0.166796 -2.248172
v 0.025211 0.173551 -2.248172
v 0.043666 0.192007 -2.248172
v 0.050421 0.217217 -2.248172
v 0.043666 0.242428 -2.248172
v 0.025211 0.260883 -2.248172
v -0.000000 0.267638 -2.248172
v -0.025211 0.260883 -2.248172
v -0.043666 0.242428 -2.248172
v -0.050421 0.217217 -2.248172
v -0.043666 0.192007 -2.248172
v -0.025211 0.173551 -2.248172
v 0.000000 0.286667 -2.104357
v 0.034724 0.277363 -2.104357
v 0.060144 0.251942 -2.104357
v 0.069448 0.217217 -2.104357
v 0.060144 0.182492 -2.104357
v 0.034724 0.157071 -2.104357
v -0.000000 0.147767 -2.104357
v -0.034724 0.157071 -2.104357
v -0.060144 0.182492 -2.104357
v -0.069448 0.217217 -2.104357
v -0.060144 0.251942 -2.104357
v -0.034724 0.277363 -2.104357
v 0.000000 0.286667 -2.121744
v 0.034724 0.277363 -2.121744
v 0.060144 0.251942 -2.121744
v 0.069448 0.217217 -2.121744
v 0.060144 0.182492 -2.121744
v 0.034724 0.157071 -2.121744
v -0.000000 0.147767 -2.121744
v -0.034724 0.157071 -2.121744
v -0.060144 0.182492 -2.121744
v -0.069448 0.217217 -2.121744
v -0.060144 0.251942 -2.121744
v -0.034724 0.277363 -2.121744
v 0.000000 0.274287 -2.130765
v 0.028534 0.266641 -2.130765
v 0.049423 0.245752 -2.130765
v 0.057068 0.217217 -2.130765
v 0.049423 0.188682 -2.130765
v 0.028534 0.167793 -2.130765
v -0.000000 0.160147 -2.130765
v -0.028534 0.167793 -2.130765
v -0.049423 0.188682 -2.130765
v -0.057068 0.217217 -2.130765
v -0.049423 0.245752 -2.130765
v -0.028534 0.266641 -2.130765
v -0.000000 0.287853 -2.136633
v 0.035317 0.278389 -2.136633
v 0.061170 0.252535 -2.136633
v 0.070633 0.217217 -2.136633
v 0.061170 0.181899 -2.136633
v 0.035317 0.156045 -2.136633
v -0.000000 0.146581 -2.136633
v -0.035317 0.156045 -2.136633
v -0.061170 0.181899 -2.136633
v -0.070634 0.217217 -2.136633
v -0.061170 0.252535 -2.136633
v -0.035317 0.278389 -2.136633
v 0.000000 0.287853 -2.181164
v 0.035317 0.278389 -2.181164
v 0.061170 0.252535 -2.181164
v 0.070634 0.217217 -2.181164
v 0.061170 0.181899 -2.181164
v 0.035317 0.156045 -2.181164
v 0.000000 0.146581 -2.181164
v -0.035317 0.156045 -2.181164
v -0.061170 0.181899 -2.181164
v -0.070633 0.217217 -2.181164
v -0.061170 0.252535 -2.181164
v -0.035317 0.278389 -2.181164
v 0.000000 0.267790 -2.220862
v 0.025286 0.261015 -2.220862
v 0.043797 0.242504 -2.220862
v 0.050572 0.217217 -2.220862
v 0.043797 0.191930 -2.220862
v 0.025286 0.173419 -2.220862
v 0.000000 0.166644 -2.220862
v -0.025286 0.173419 -2.220862
v -0.043796 0.191930 -2.220862
v -0.050572 0.217217 -2.220862
v -0.043796 0.242504 -2.220862
v -0.025286 0.261015 -2.220862
v 0.000000 0.281621 -2.220862
v 0.032201 0.272992 -2.220862
v 0.055774 0.249419 -2.220862
v 0.064402 0.217217 -2.220862
v 0.055774 0.185015 -2.220862
v 0.032201 0.161441 -2.220862
v 0.000000 0.152813 -2.220862
v -0.032201 0.161441 -2.220862
v -0.055774 0.185015 -2.220862
v -0.064402 0.217217 -2.220862
v -0.055774 0.249419 -2.220862
v -0.032201 0.272992 -2.220862
v 0.000000 0.267790 -2.234112
v 0.025286 0.261015 -2.234112
v 0.043797 0.242504 -2.234112
v 0.050572 0.217217 -2.234112
v 0.043797 0.191930 -2.234112
v 0.025286 0.173419 -2.234112
v 0.000000 0.166644 -2.234112
v -0.025286 0.173419 -2.234112
v -0.043796 0.191930 -2.234112
v -0.050572 0.217217 -2.234112
v -0.043796 0.242504 -2.234112
v -0.025286 0.261015 -2.234112
v 0.000000 0.283586 -2.239798
v 0.033184 0.274695 -2.239798
v 0.057476 0.250402 -2.239798
v 0.066368 0.217217 -2.239798
v 0.057476 0.184032 -2.239798
v 0.033184 0.159739 -2.239798
v 0.000000 0.150847 -2.239798
v -0.033184 0.159739 -2.239798
v -0.057476 0.184032 -2.239798
v -0.066367 0.217217 -2.239798
v -0.057476 0.250402 -2.239798
v -0.033184 0.274695 -2.239798
v 0.033184 0.274695 -2.451395
v 0.026386 0.262921 -2.466829
v 0.057476 0.250402 -2.451395
v 0.045703 0.243604 -2.466829
v 0.066367 0.217217 -2.451395
v 0.052773 0.217217 -2.466829
v 0.033184 0.159739 -2.451395
v 0.026386 0.171513 -2.466829
v -0.000000 0.150847 -2.451395
v -0.000000 0.164442 -2.466829
v -0.033184 0.159739 -2.451395
v -0.026387 0.171513 -2.466829
v -0.066368 0.217217 -2.451395
v -0.052773 0.217217 -2.466829
v -0.057476 0.250402 -2.451395
v -0.045703 0.243604 -2.466829
v -0.033184 0.274695 -2.451395
v -0.026387 0.262921 -2.466829
v 0.000000 0.166796 -2.466829
v 0.025211 0.173551 -2.466829
v 0.050421 0.217217 -2.466829
v 0.043666 0.242428 -2.466829
v 0.025211 0.260883 -2.466829
v -0.043666 0.242428 -2.466829
v -0.025211 0.260883 -2.466829
v -0.050421 0.217217 -2.466829
v -0.025211 0.173551 -2.466829
v -0.030392 0.175519 -2.466829
v 0.009076 0.281155 -2.356262
v -0.012382 0.280269 -2.363693
v -0.000000 0.283586 -2.356262
v -0.012382 0.264320 -2.466829
v 0.012382 0.280269 -2.363693
v 0.012382 0.280269 -2.451395
v -0.009076 0.281155 -2.356262
v -0.012382 0.266674 -2.466829
v -0.028645 0.176985 -2.466829
v 0.030174 0.175301 -2.466829
v -0.012382 0.280269 -2.451395
v -0.012382 0.264320 -2.363693
v 0.034431 0.182772 -2.356261
v 0.043666 0.192007 -2.360793
v 0.040010 0.188351 -2.356261
v 0.057600 0.184494 -2.363693
v 0.057476 0.184032 -2.363313
v -0.057714 0.184920 -2.451395
v -0.057714 0.184920 -2.363693
v -0.057476 0.184032 -2.362963
v 0.028436 0.176777 -2.363693
v 0.028436 0.176777 -2.466829
v 0.057600 0.184494 -2.451395
v -0.046514 0.173070 -2.356261
v -0.034669 0.183009 -2.356261
v -0.052043 0.178599 -2.356261
v -0.040198 0.188539 -2.356261
v 0.044610 0.195530 -2.466829
v 0.044610 0.195530 -2.363693
v 0.012382 0.266674 -2.466829
v -0.040490 0.167046 -2.363693
v -0.040490 0.167046 -2.451395
v 0.040215 0.166770 -2.363693
v 0.009076 0.265206 -2.356262
v -0.000000 0.267638 -2.356262
v -0.044694 0.195844 -2.363693
v 0.012382 0.264320 -2.363693
v 0.012382 0.264320 -2.466829
v 0.040214 0.166770 -2.451395
v -0.044694 0.195844 -2.466829
v -0.009076 0.265206 -2.356262
v 0.051788 0.178344 -2.356261
v -0.046615 0.194233 -2.466829
v 0.046209 0.172765 -2.356261
v 0.046526 0.193902 -2.466829
v -0.028645 0.176985 -2.363693
v -0.043666 0.192007 -2.360539
vn 0.2546 -0.4410 0.8607
vn -0.0000 -0.5092 0.8607
vn -0.0000 1.0000 -0.0000
vn 0.5000 0.8660 -0.0000
vn 0.4410 -0.2546 0.8607
vn 0.5092 -0.0000 0.8607
vn -0.2546 0.4410 0.8607
vn -0.0000 0.5092 0.8607
vn 0.2546 0.4410 0.8607
vn 0.4410 0.2546 0.8607
vn -0.4410 0.2546 0.8607
vn -0.5092 -0.0000 0.8607
vn -0.4410 -0.2546 0.8607
vn -0.2546 -0.4410 0.8607
vn 0.2945 -0.5100 -0.8082
vn -0.0000 -0.5889 -0.8082
vn -0.5000 -0.8660 -0.0000
vn -0.7071 -0.7071 -0.0000
vn 0.7071 -0.7071 -0.0000
vn 0.5000 -0.8660 -0.0000
vn -0.2588 0.9659 -0.0000
vn 0.7071 0.7071 -0.0000
vn -0.9659 -0.2588 -0.0000
vn -1.0000 -0.0000 -0.0000
vn -0.0000 -1.0000 -0.0000
vn 0.9659 0.2588 -0.0000
vn 1.0000 -0.0000 -0.0000
vn -0.8660 0.5000 -0.0000
vn 0.9659 -0.2588 -0.0000
vn -0.7071 0.7071 -0.0000
vn 0.1985 -0.3438 0.9178
vn -0.0000 -0.3970 0.9178
vn 0.5100 0.2944 -0.8082
vn 0.5889 -0.0000 -0.8082
vn -0.5889 -0.0000 -0.8082
vn -0.5100 0.2944 -0.8082
vn -0.2945 -0.5100 -0.8082
vn 0.5100 -0.2944 -0.8082
vn -0.2945 0.5100 -0.8082
vn -0.0000 0.5889 -0.8082
vn 0.2945 0.5100 -0.8082
vn -0.5100 -0.2944 -0.8082
vn -0.8660 -0.5000 -0.0000
vn -0.9971 -0.0000 -0.0767
vn -0.8635 -0.4985 -0.0767
vn 0.3439 0.1985 0.9178
vn 0.3971 -0.0000 0.9178
vn -0.3971 -0.0000 0.9178
vn -0.3439 0.1985 0.9178
vn -0.1985 -0.3438 0.9178
vn 0.3439 -0.1985 0.9178
vn -0.1985 0.3438 0.9178
vn -0.0000 0.3970 0.9178
vn 0.1985 0.3438 0.9178
vn -0.3439 -0.1985 0.9178
vn 0.4985 0.8635 -0.0767
vn 0.8635 0.4985 -0.0767
vn 0.8556 0.4939 -0.1551
vn 0.4940 0.8555 -0.1551
vn -0.0000 -0.9971 -0.0767
vn 0.4985 -0.8635 -0.0767
vn 0.9971 -0.0000 -0.0767
vn -0.9659 0.2588 -0.0000
vn -0.8635 0.4985 -0.0767
vn -0.4985 -0.8635 -0.0767
vn 0.8635 -0.4985 -0.0767
vn -0.4985 0.8635 -0.0767
vn -0.0000 0.9971 -0.0767
vn -0.9879 -0.0000 -0.1551
vn -0.8556 -0.4939 -0.1551
vn -0.0000 -0.9879 -0.1551
vn 0.4940 -0.8555 -0.1551
vn 0.9879 -0.0000 -0.1551
vn -0.8556 0.4939 -0.1551
vn -0.4940 -0.8555 -0.1551
vn 0.8556 -0.4939 -0.1551
vn -0.4940 0.8555 -0.1551
vn -0.0000 0.9879 -0.1551
vn -0.0000 -0.0000 -1.0000
vn -0.1693 0.2933 0.9409
vn -0.0000 0.3387 0.9409
vn 0.2588 -0.9659 -0.0000
vn 0.1693 0.2933 0.9409
vn 0.2933 0.1693 0.9409
vn -0.2933 -0.1693 0.9409
vn -0.3387 -0.0000 0.9409
vn 0.1693 -0.2933 0.9409
vn -0.0000 -0.3387 0.9409
vn 0.3387 -0.0000 0.9409
vn -0.2933 0.1693 0.9409
vn -0.1693 -0.2933 0.9409
vn 0.2933 -0.1693 0.9409
vn -0.2588 -0.9659 -0.0000
vn 0.8660 -0.5000 -0.0000
vn 0.9181 -0.3963 -0.0000
vn -0.9180 -0.3966 -0.0000
vn 0.3752 0.6498 -0.6610
vn 0.1971 0.7357 -0.6480
vn 0.6499 0.3752 -0.6610
vn 0.7504 -0.0000 -0.6610
vn 0.7357 -0.1971 -0.6480
vn 0.3752 -0.6498 -0.6610
vn 0.5386 -0.5385 -0.6480
vn -0.0000 -0.7504 -0.6610
vn -0.3752 -0.6498 -0.6610
vn -0.5386 -0.5385 -0.6480
vn -0.7357 -0.1971 -0.6480
vn -0.7504 -0.0000 -0.6610
vn -0.6499 0.3752 -0.6610
vn -0.3752 0.6498 -0.6610
vn -0.1971 0.7357 -0.6480
vn 0.2588 0.9659 -0.0000
vn -0.5000 0.8660 -0.0000
vn -0.9800 -0.0000 -0.1992
vn -0.9768 -0.0000 -0.2141
vn 0.9768 -0.0000 -0.2141
vn 0.9800 -0.0000 -0.1992
vn 0.6428 -0.7660 -0.0000
vn -0.6428 0.7660 -0.0000
vn 0.6475 0.7621 -0.0000
vn -0.6475 -0.7621 -0.0000
vn -0.9137 -0.0000 -0.4065
vn 0.9137 -0.0000 -0.4065
vn 0.4234 -0.5046 -0.7524
vn -0.4234 0.5046 -0.7524
vn 0.4276 0.5033 -0.7509
vn -0.4276 -0.5033 -0.7509
vn -0.0000 -0.0000 1.0000
vt 0.583333 0.500000
vt 0.500000 0.500000
vt 1.000000 0.500000
vt 0.916667 0.500000
vt 0.666667 0.500000
vt 0.750000 0.500000
vt 0.083333 0.500000
vt 0.000000 0.500000
vt 0.833333 0.500000
vt 0.166667 0.500000
vt 0.250000 0.500000
vt 0.333333 0.500000
vt 0.416667 0.500000
vt 0.844230 0.413211
vt 0.913211 0.344230
vt 0.750000 0.438460
vt 0.750000 0.490000
vt 0.870000 0.457846
vt 0.957846 0.370000
vt 0.938460 0.250000
vt 0.990000 0.250000
vt 0.913211 0.155770
vt 0.957846 0.130000
vt 0.844230 0.086789
vt 0.870000 0.042154
vt 0.750000 0.061540
vt 0.750000 0.010000
vt 0.655770 0.086789
vt 0.630000 0.042154
vt 0.586789 0.155770
vt 0.542154 0.130000
vt 0.561540 0.250000
vt 0.510000 0.250000
vt 0.586789 0.344230
vt 0.542154 0.370000
vt 0.655770 0.413211
vt 0.630000 0.457846
vt 0.714841 0.429039
vt 0.714841 0.429039
vt 0.724228 0.431555
vt 0.844230 0.413211
vt 0.913563 0.157081
vt 0.913563 0.157081
vt 0.913211 0.155770
vt 0.635023 0.107536
vt 0.635023 0.107536
vt 0.602216 0.140343
vt 0.617917 0.124642
vt 0.897060 0.139618
vt 0.864195 0.106754
vt 0.864195 0.106754
vt 0.881217 0.123776
vt 0.606823 0.250000
vt 0.600143 0.250000
vt 0.620220 0.324928
vt 0.675072 0.379780
vt 0.714841 0.390436
vt 0.714841 0.383753
vt 0.678411 0.373992
vt 0.626005 0.321587
vt 0.785160 0.383753
vt 0.785160 0.390435
vt 0.824928 0.379780
vt 0.879780 0.324928
vt 0.899857 0.250000
vt 0.893178 0.250000
vt 0.873996 0.321587
vt 0.821589 0.373992
vt 0.617631 0.184736
vt 0.623085 0.189311
vt 0.876677 0.188419
vt 0.882117 0.183797
vt 0.835684 0.130976
vt 0.824928 0.120220
vt 0.750000 0.100144
vt 0.675072 0.120220
vt 0.663697 0.131596
vt 0.668660 0.135760
vt 0.678411 0.126008
vt 0.750000 0.106827
vt 0.821589 0.126008
vt 0.830750 0.135169
vt 0.586113 0.158290
vt 0.586113 0.158290
vt 0.785160 0.429039
vt 0.775772 0.431555
vt 0.785160 0.429039
vt 0.916667 0.906958
vt 1.000000 0.906958
vt 0.869671 0.715004
vt 0.902100 0.906958
vt 0.833333 0.709608
vt 0.841495 0.701174
vt 0.853947 0.701174
vt 0.821686 0.715004
vt 0.750000 0.906958
vt 0.821686 0.906958
vt 0.666667 0.906958
vt 0.583333 0.906958
vt 0.540928 0.906958
vt 0.500000 0.701174
vt 0.530000 0.701174
vt 0.540928 0.715004
vt 0.470000 0.701174
vt 0.416667 0.906958
vt 0.459073 0.906958
vt 0.459073 0.715004
vt 0.333333 0.906958
vt 0.250000 0.906958
vt 0.179353 0.715004
vt 0.179353 0.906958
vt 0.166667 0.709136
vt 0.126158 0.709136
vt 0.166667 0.906958
vt 0.127360 0.715004
vt 0.124528 0.701174
vt 0.124528 0.701174
vt 0.000000 0.906958
vt 0.083333 0.906958
vt 0.839841 0.405610
vt 0.750000 0.429683
vt 0.905610 0.339841
vt 0.929683 0.250000
vt 0.905610 0.160159
vt 0.839841 0.094390
vt 0.750000 0.070317
vt 0.660159 0.094390
vt 0.594390 0.160159
vt 0.570317 0.250000
vt 0.594390 0.339841
vt 0.660159 0.405610
vt 0.375000 0.466625
vt 0.375000 0.375001
vt 0.375000 0.283375
vt 0.375000 0.375000
vt 0.478583 0.053179
vt 0.478583 0.216625
vt 0.428957 0.216625
vt 0.428957 0.077637
vt 0.471260 0.053179
vt 0.428957 0.672363
vt 0.428957 0.533375
vt 0.478583 0.533375
vt 0.478583 0.696821
vt 0.471260 0.696821
vt 0.424025 0.335679
vt 0.472140 0.335679
vt 0.494600 0.335679
vt 0.446484 0.335679
vt 0.476035 0.216625
vt 0.423150 0.216625
vt 0.423150 0.077637
vt 0.468234 0.053178
vt 0.476035 0.053179
vt 0.428455 0.533375
vt 0.476571 0.533375
vt 0.476571 0.696822
vt 0.469472 0.696822
vt 0.428455 0.672364
vt 0.451494 0.335304
vt 0.403404 0.335304
vt 0.426184 0.335304
vt 0.474274 0.335304
vt 0.476412 0.216625
vt 0.428321 0.216625
vt 0.428321 0.077636
vt 0.469317 0.053178
vt 0.476412 0.053178
vt 0.475841 0.696822
vt 0.468018 0.696822
vt 0.422804 0.672364
vt 0.422803 0.533375
vt 0.475841 0.533375
vt 0.475826 0.283375
vt 0.426201 0.283375
vt 0.426201 0.466625
vt 0.475826 0.466625
vt 0.470811 0.267139
vt 0.421942 0.228307
vt 0.426146 0.414321
vt 0.474261 0.414318
vt 0.476412 0.216628
vt 0.424195 0.414696
vt 0.472284 0.414696
vt 0.470981 0.487074
vt 0.475842 0.533379
vt 0.422805 0.533380
vt 0.422166 0.527305
s 1
f 11/1/1 14/2/2 43/2/2 42/1/1
f 37/3/3 38/4/4 50/4/4 49/3/3
f 9/5/5 11/1/1 42/1/1 41/5/5
f 7/6/6 9/5/5 41/5/5 40/6/6
f 23/7/7 1/8/8 37/8/8 48/7/7
f 1/3/8 3/4/9 38/4/9 37/3/8
f 5/9/10 7/6/6 40/6/6 39/9/10
f 22/10/11 23/7/7 48/7/7 47/10/11
f 3/4/9 5/9/10 39/9/10 38/4/9
f 20/11/12 22/10/11 47/10/11 46/11/12
f 17/12/13 20/11/12 46/11/12 45/12/13
f 16/13/14 17/12/13 45/12/13 44/13/14
f 14/2/2 16/13/14 44/13/14 43/2/2
f 54/1/15 55/2/16 67/2/16 66/1/15
f 44/13/17 45/12/18 57/12/18 56/13/17
f 41/5/19 42/1/20 54/1/20 53/5/19
f 48/7/21 37/8/3 49/8/3 60/7/21
f 38/4/4 39/9/22 51/9/22 50/4/4
f 45/12/23 46/11/24 58/11/24 57/12/23
f 42/1/20 43/2/25 55/2/25 54/1/20
f 39/9/26 40/6/27 52/6/27 51/9/26
f 46/11/24 47/10/28 59/10/28 58/11/24
f 43/2/25 44/13/17 56/13/17 55/2/25
f 40/6/27 41/5/29 53/5/29 52/6/27
f 47/10/28 48/7/30 60/7/30 59/10/28
f 66/1/31 67/2/32 79/2/32 78/1/31
f 51/9/33 52/6/34 64/6/34 63/9/33
f 58/11/35 59/10/36 71/10/36 70/11/35
f 55/2/16 56/13/37 68/13/37 67/2/16
f 52/6/34 53/5/38 65/5/38 64/6/34
f 59/10/36 60/7/39 72/7/39 71/10/36
f 49/3/40 50/4/41 62/4/41 61/3/40
f 56/13/37 57/12/42 69/12/42 68/13/37
f 53/5/38 54/1/15 66/1/15 65/5/38
f 60/7/39 49/8/40 61/8/40 72/7/39
f 50/4/41 51/9/33 63/9/33 62/4/41
f 57/12/42 58/11/35 70/11/35 69/12/42
f 81/12/43 82/11/23 94/11/44 93/12/45
f 63/9/46 64/6/47 76/6/47 75/9/46
f 70/11/48 71/10/49 83/10/49 82/11/48
f 67/2/32 68/13/50 80/13/50 79/2/32
f 64/6/47 65/5/51 77/5/51 76/6/47
f 71/10/49 72/7/52 84/7/52 83/10/49
f 61/3/53 62/4/54 74/4/54 73/3/53
f 68/13/50 69/12/55 81/12/55 80/13/50
f 65/5/51 66/1/31 78/1/31 77/5/51
f 72/7/52 61/8/53 73/8/53 84/7/52
f 62/4/54 63/9/46 75/9/46 74/4/54
f 69/12/55 70/11/48 82/11/48 81/12/55
f 86/4/56 87/9/57 111/9/58 110/4/59
f 78/1/20 79/2/25 91/2/60 90/1/61
f 75/9/26 76/6/27 88/6/62 87/9/57
f 82/11/63 83/10/28 95/10/64 94/11/44
f 79/2/25 80/13/17 92/13/65 91/2/60
f 76/6/27 77/5/29 89/5/66 88/6/62
f 83/10/28 84/7/30 96/7/67 95/10/64
f 73/3/3 74/4/4 86/4/56 85/3/68
f 80/13/17 81/12/43 93/12/45 92/13/65
f 77/5/19 78/1/20 90/1/61 89/5/66
f 84/7/21 73/8/3 85/8/68 96/7/67
f 74/4/4 75/9/22 87/9/57 86/4/56
f 98/14/4 99/15/22 123/15/22 122/14/4
f 93/12/45 94/11/44 118/11/69 117/12/70
f 90/1/61 91/2/60 115/2/71 114/1/72
f 87/9/57 88/6/62 112/6/73 111/9/58
f 94/11/44 95/10/64 119/10/74 118/11/69
f 91/2/60 92/13/65 116/13/75 115/2/71
f 88/6/62 89/5/66 113/5/76 112/6/73
f 95/10/64 96/7/67 120/7/77 119/10/74
f 85/3/68 86/4/56 110/4/59 109/3/78
f 92/13/65 93/12/45 117/12/70 116/13/75
f 89/5/66 90/1/61 114/1/72 113/5/76
f 96/7/67 85/8/68 109/8/78 120/7/77
f 98/14/79 97/16/79 109/17/79 110/18/79
f 99/15/79 98/14/79 110/18/79 111/19/79
f 100/20/79 99/15/79 111/19/79 112/21/79
f 101/22/79 100/20/79 112/21/79 113/23/79
f 102/24/79 101/22/79 113/23/79 114/25/79
f 103/26/79 102/24/79 114/25/79 115/27/79
f 104/28/79 103/26/79 115/27/79 116/29/79
f 105/30/79 104/28/79 116/29/79 117/31/79
f 106/32/79 105/30/79 117/31/79 118/33/79
f 107/34/79 106/32/79 118/33/79 119/35/79
f 108/36/79 107/34/79 119/35/79 120/37/79
f 97/16/79 108/36/79 120/37/79 109/17/79
f 132/36/80 121/16/81 133/16/81 144/36/80
f 105/30/23 106/32/23 130/32/23 129/30/23
f 102/24/82 103/26/25 127/26/25 126/24/82
f 99/15/26 100/20/27 124/20/27 123/15/26
f 106/32/63 107/34/28 131/34/28 130/32/63
f 103/26/25 104/28/17 128/28/17 127/26/25
f 100/20/27 101/22/29 125/22/29 124/20/27
f 107/34/28 108/36/30 132/36/30 131/34/28
f 97/16/3 98/14/4 122/14/4 121/16/3
f 104/28/17 105/30/18 129/30/18 128/28/17
f 101/22/19 102/24/19 126/24/19 125/22/19
f 108/36/21 97/16/3 121/16/3 132/36/21
f 138/24/82 139/26/25 153/26/25 151/24/82
f 122/14/83 123/15/84 135/15/84 134/14/83
f 129/30/85 130/32/86 142/32/86 141/30/85
f 126/24/87 127/26/88 139/26/88 138/24/87
f 123/15/84 124/20/89 136/20/89 135/15/84
f 130/32/86 131/34/90 143/34/90 142/32/86
f 127/26/88 128/28/91 140/28/91 139/26/88
f 124/20/89 125/22/92 137/22/92 136/20/89
f 131/34/90 132/36/80 144/36/80 143/34/90
f 121/16/81 122/14/83 134/14/83 133/16/81
f 128/28/91 129/30/85 141/30/85 140/28/91
f 125/22/92 126/24/87 138/24/87 137/22/92
f 174/38/21 183/39/21 161/36/21 144/36/21 133/16/3 175/16/3 179/40/21
f 134/14/4 135/15/22 147/15/22 145/41/4
f 135/15/26 136/20/27 149/20/27 147/15/26
f 142/32/63 143/34/28 159/34/28 157/32/63
f 139/26/25 140/28/93 155/28/93 153/26/25
f 188/42/29 195/43/29 149/20/27 136/20/27 137/22/94 189/44/95
f 143/34/28 144/36/30 161/36/30 159/34/28
f 203/45/18 204/46/18 155/28/18 140/28/18 141/30/43 192/30/96 198/47/18 196/48/18
f 214/49/19 189/44/95 137/22/94 138/24/19 151/24/19 211/50/19 205/51/19 216/52/19
f 170/53/79 158/54/79 160/55/79 162/56/79 180/57/79 176/58/79 169/59/79 168/60/79
f 210/61/79 202/62/79 146/63/79 148/64/79 150/65/79 165/66/79 166/67/79 167/68/79
f 215/69/79 158/54/79 170/53/79 212/70/79
f 200/71/79 165/66/79 150/65/79 217/72/79
f 182/73/79 152/74/79 154/75/79 156/76/79 172/77/79 181/78/79 171/79/79 163/80/79 164/81/79 194/82/79
f 192/30/96 141/30/43 142/32/23 157/32/23 190/83/23 191/84/23
f 145/41/97 146/63/97 202/62/98 178/85/98
f 145/41/97 147/15/99 148/64/99 146/63/97
f 147/15/99 149/20/100 150/65/100 148/64/99
f 217/72/101 150/65/100 149/20/100 195/43/101
f 151/24/102 152/74/102 182/73/103 211/50/103
f 151/24/102 153/26/104 154/75/104 152/74/102
f 153/26/104 155/28/105 156/76/105 154/75/104
f 156/76/105 155/28/105 204/46/106 172/77/106
f 190/83/107 157/32/108 158/54/108 215/69/107
f 157/32/108 159/34/109 160/55/109 158/54/108
f 159/34/109 161/36/110 162/56/110 160/55/109
f 180/57/111 162/56/110 161/36/110 183/39/111
f 173/86/112 175/16/3 133/16/3 134/14/4 145/41/4 178/85/112 177/87/112
f 25/3/3 26/4/113 164/88/113 163/89/3
f 193/90/30 194/91/30 164/88/113 26/9/113 27/9/30 186/92/30 187/93/30 185/94/30
f 201/95/63 186/92/63 27/9/63 28/6/63 165/96/63 200/97/63
f 28/6/23 29/5/23 166/98/23 165/96/23
f 166/98/18 29/1/18 30/1/17 167/99/17
f 210/100/93 167/99/17 30/1/17 31/2/25 207/101/25 206/102/93 209/103/93
f 213/104/82 207/101/25 31/2/25 32/13/20 169/105/20 176/106/82 184/107/82
f 169/105/20 32/12/20 33/12/19 168/105/19
f 168/108/29 33/12/29 34/11/29 170/109/29
f 208/110/26 212/111/26 170/109/26 34/11/26 35/10/26 219/112/26
f 219/113/22 35/7/22 36/7/4 171/114/4 181/114/22 218/115/22 197/116/22 199/117/22
f 36/7/4 25/8/3 163/118/3 171/119/4
f 4/120/79 26/18/79 25/17/79 2/121/79
f 6/122/79 27/19/79 26/18/79 4/120/79
f 8/123/79 28/21/79 27/19/79 6/122/79
f 10/124/79 29/23/79 28/21/79 8/123/79
f 12/125/79 30/25/79 29/23/79 10/124/79
f 13/126/79 31/27/79 30/25/79 12/125/79
f 15/127/79 32/29/79 31/27/79 13/126/79
f 18/128/79 33/31/79 32/29/79 15/127/79
f 19/129/79 34/33/79 33/31/79 18/128/79
f 21/130/79 35/35/79 34/33/79 19/129/79
f 24/131/79 36/37/79 35/35/79 21/130/79
f 2/121/79 25/17/79 36/37/79 24/131/79
f 213/132/79 179/132/79 175/133/79 173/134/79 206/134/79 207/135/79
f 210/136/24 209/137/114 177/138/115 178/139/24 202/140/24
f 183/141/27 174/142/116 184/143/117 176/144/27 180/145/27
f 198/146/79 199/147/79 197/148/79 196/149/79
f 208/150/118 191/151/118 190/152/118 215/153/118 212/154/118
f 203/155/119 218/156/119 181/157/119 172/158/119 204/159/119
f 187/160/79 214/161/79 216/162/79 185/163/79
f 193/164/120 205/165/120 211/166/120 182/167/120 194/168/120
f 200/169/121 217/170/121 195/171/121 188/172/121 201/173/121
f 206/174/122 173/175/122 177/138/115 209/137/114
f 184/143/117 174/142/116 179/176/123 213/177/123
f 219/178/124 199/147/124 198/146/124 192/179/124 191/151/124 208/150/124
f 218/156/125 203/155/125 196/180/125 197/181/125
f 205/165/126 193/182/126 185/163/126 216/162/126
f 214/183/127 187/184/127 186/185/127 201/186/127 188/187/127 189/188/127
f 14/2/128 11/1/128 9/5/128 7/6/128 5/9/128 3/4/128 1/8/128 23/7/128 22/10/128 20/11/128 17/12/128 16/13/128
