# Blender 4.4.3
# www.blender.org
mtllib Slide.mtl
o Cube.083
v 0.055312 0.184171 0.626559
v 0.055312 0.265729 0.626559
v 0.057767 0.231107 0.520115
v 0.055312 0.184171 0.073817
v 0.055312 0.265729 0.073817
v 0.057767 0.238696 0.522149
v 0.080983 0.184171 0.626559
v 0.080983 0.265729 0.626559
v 0.057767 0.244252 0.527705
v 0.080983 0.184171 0.073817
v 0.080983 0.265729 0.073817
v 0.057767 0.246286 0.535295
v 0.057767 0.244252 0.542885
v 0.057767 0.238696 0.548441
v 0.057767 0.231107 0.550474
v 0.057767 0.223517 0.548441
v 0.057767 0.217961 0.542885
v 0.057767 0.215927 0.535295
v 0.057767 0.217961 0.527705
v 0.057767 0.223517 0.522149
v 0.080983 0.231107 0.550474
v 0.080983 0.223517 0.548441
v 0.080983 0.217961 0.542885
v 0.080983 0.244252 0.542885
v 0.080983 0.238696 0.548441
v 0.080983 0.217961 0.527705
v 0.080983 0.231107 0.520115
v 0.080983 0.223517 0.522149
v 0.080983 0.238696 0.522149
v 0.080983 0.244252 0.527705
v 0.080983 0.246286 0.535295
v 0.080983 0.215927 0.535295
v 0.081737 0.231107 0.522499
v 0.059809 0.231107 0.522499
v 0.081737 0.237505 0.524213
v 0.059809 0.237505 0.524213
v 0.081737 0.242188 0.528897
v 0.059809 0.242188 0.528897
v 0.081737 0.243902 0.535295
v 0.059809 0.243902 0.535295
v 0.081737 0.242188 0.541693
v 0.059809 0.242188 0.541693
v 0.081737 0.237505 0.546376
v 0.059809 0.237505 0.546376
v 0.081737 0.231107 0.548091
v 0.059809 0.231107 0.548091
v 0.081737 0.224709 0.546376
v 0.059809 0.224709 0.546376
v 0.081737 0.220025 0.541693
v 0.059809 0.220025 0.541693
v 0.081737 0.218311 0.535295
v 0.059809 0.218311 0.535295
v 0.081737 0.220025 0.528897
v 0.059809 0.220025 0.528897
v 0.081737 0.224709 0.524213
v 0.059809 0.224709 0.524213
v -0.058952 0.380969 -0.207192
v -0.058952 0.385179 -0.217355
v -0.058952 0.370806 -0.239181
v -0.058952 0.385179 -0.224808
v 0.048852 0.338928 0.560354
v 0.048852 0.393849 0.560354
v 0.048852 0.338928 -0.238903
v 0.048852 0.393849 -0.238903
v -0.048852 0.338928 -0.238903
v -0.048852 0.338928 0.560354
v -0.048852 0.393849 0.560354
v -0.048852 0.393849 -0.238903
v -0.058952 0.380969 -0.234971
v -0.058952 0.361972 -0.239181
v -0.058952 0.351809 -0.234971
v -0.058952 0.347599 -0.224808
v -0.048852 0.363961 -0.211134
v -0.048852 0.356061 -0.219033
v -0.048852 0.355887 -0.205681
v -0.048852 0.358375 -0.213447
v -0.048852 0.376716 -0.219033
v -0.048852 0.368817 -0.211134
v -0.048852 0.376891 -0.205681
v -0.048852 0.374402 -0.213447
v -0.048852 0.356061 -0.223130
v -0.048852 0.363961 -0.231029
v -0.048852 0.348531 -0.235860
v -0.048852 0.358375 -0.228716
v -0.048852 0.368817 -0.231029
v -0.048852 0.376716 -0.223130
v -0.048852 0.384247 -0.235860
v -0.048852 0.374402 -0.228716
v -0.055900 0.363961 -0.231029
v -0.055900 0.356061 -0.223130
v -0.055900 0.358375 -0.228716
v -0.055900 0.356061 -0.219033
v -0.055900 0.363961 -0.211134
v -0.055900 0.358375 -0.213447
v -0.055900 0.368817 -0.211134
v -0.055900 0.376716 -0.219033
v -0.055900 0.374402 -0.213447
v -0.055900 0.376716 -0.223130
v -0.055900 0.368817 -0.231029
v -0.055900 0.374402 -0.228716
v -0.058952 0.370806 -0.202982
v -0.058952 0.351809 -0.207192
v -0.058952 0.347599 -0.217355
v -0.058952 0.361972 -0.202982
v -0.158644 0.361972 -0.239181
v -0.158644 0.370806 -0.239181
v -0.158644 0.347599 -0.217355
v -0.158644 0.347599 -0.224808
v -0.158644 0.361972 -0.202982
v -0.158644 0.351809 -0.207192
v -0.158644 0.385179 -0.224808
v -0.158644 0.385179 -0.217355
v -0.158644 0.380969 -0.207192
v -0.158644 0.370806 -0.202982
v -0.158644 0.380969 -0.234971
v -0.158644 0.351809 -0.234971
v -0.162871 0.360471 -0.245331
v -0.162871 0.372307 -0.245331
v -0.162871 0.341215 -0.216088
v -0.162871 0.341215 -0.226075
v -0.162871 0.360471 -0.196832
v -0.162871 0.346855 -0.202472
v -0.162871 0.391563 -0.226075
v -0.162871 0.391563 -0.216088
v -0.162871 0.385923 -0.202472
v -0.162871 0.372307 -0.196832
v -0.162871 0.385923 -0.239691
v -0.162871 0.346855 -0.239691
v -0.168581 0.360471 -0.245331
v -0.172741 0.362042 -0.238349
v -0.172741 0.370736 -0.238349
v -0.168581 0.372307 -0.245331
v -0.168581 0.341215 -0.216088
v -0.172741 0.348351 -0.217505
v -0.172741 0.348351 -0.224658
v -0.168581 0.341215 -0.226075
v -0.168581 0.360471 -0.196832
v -0.172741 0.362042 -0.203814
v -0.172741 0.352361 -0.207824
v -0.168581 0.346855 -0.202472
v -0.168581 0.391563 -0.226075
v -0.172741 0.384427 -0.224658
v -0.172741 0.384427 -0.217505
v -0.168581 0.391563 -0.216088
v -0.168581 0.385923 -0.202472
v -0.172741 0.380417 -0.207824
v -0.172741 0.370736 -0.203814
v -0.168581 0.372307 -0.196832
v -0.172741 0.380417 -0.234339
v -0.168581 0.385923 -0.239691
v -0.168581 0.346855 -0.239691
v -0.172741 0.352361 -0.234339
vn -1.0000 -0.0000 -0.0000
vn -0.0000 -0.0000 -1.0000
vn 1.0000 -0.0000 -0.0000
vn -0.0000 -0.0000 1.0000
vn -0.0000 -1.0000 -0.0000
vn -0.0000 1.0000 -0.0000
vn -0.0000 -0.2588 0.9659
vn -0.0000 -0.7071 0.7071
vn -0.0000 -0.9659 0.2588
vn -0.0000 -0.9659 -0.2588
vn -0.0000 -0.7071 -0.7071
vn -0.0000 -0.2588 -0.9659
vn -0.0000 0.2588 -0.9659
vn -0.0000 0.7071 -0.7071
vn -0.0000 0.9659 -0.2588
vn -0.0000 0.9659 0.2588
vn -0.0000 0.7071 0.7071
vn -0.0000 0.2588 0.9659
vn 0.9365 -0.0000 -0.3506
vn -0.0000 0.3827 0.9239
vn -0.0000 -0.9239 -0.3827
vn -0.0000 -0.3827 -0.9239
vn -0.0000 0.9239 -0.3827
vn -0.0000 0.3827 -0.9239
vn -0.0000 0.9239 0.3827
vn -0.0000 -0.9239 0.3827
vn -0.0000 -0.3827 0.9239
vn 0.9407 -0.3393 -0.0000
vn 0.9407 0.3393 -0.0000
vn 0.9407 0.3135 0.1299
vn 0.9407 -0.3135 -0.1299
vn 0.9385 -0.1322 0.3191
vn 0.9365 -0.0000 0.3506
vn 0.9385 0.1322 -0.3191
vn 0.9407 -0.3135 0.1299
vn 0.9407 0.3135 -0.1299
vn 0.9385 0.1322 0.3191
vn 0.9385 -0.1322 -0.3191
vn 0.8337 -0.5101 0.2113
vn 0.8286 -0.2143 -0.5173
vn 0.8338 0.5521 -0.0000
vn 0.8337 0.5101 0.2113
vn 0.8241 -0.0000 -0.5665
vn 0.8337 -0.5101 -0.2113
vn 0.8286 0.2143 0.5173
vn 0.8241 -0.0000 0.5665
vn 0.8338 -0.5521 -0.0000
vn 0.8337 0.5101 -0.2113
vn 0.8286 0.2143 -0.5173
vn 0.8286 -0.2143 0.5173
vn -0.8590 -0.0000 -0.5119
vn -0.8639 -0.5037 -0.0000
vn -0.8613 -0.1945 0.4695
vn -0.8639 0.5037 -0.0000
vn -0.8612 0.1945 0.4695
vn -0.8613 0.1945 -0.4695
vn -0.8613 -0.1945 -0.4695
vn -0.8638 -0.4654 -0.1928
vn -0.8638 0.4654 -0.1928
vn -0.8638 -0.4654 0.1928
vn -0.8638 0.4654 0.1928
vn -0.8590 -0.0000 0.5119
vt 0.375000 0.000000
vt 0.625000 0.000000
vt 0.625000 0.250000
vt 0.375000 0.250000
vt 0.625000 0.500000
vt 0.375000 0.500000
vt 0.495608 0.714668
vt 0.375000 0.750000
vt 0.625000 0.750000
vt 0.542138 0.714668
vt 0.559169 0.712155
vt 0.565403 0.708722
vt 0.559169 0.705289
vt 0.542138 0.702776
vt 0.518873 0.701856
vt 0.495608 0.702776
vt 0.478577 0.705289
vt 0.472343 0.708722
vt 0.478577 0.712155
vt 0.518873 0.715588
vt 0.625000 1.000000
vt 0.375000 1.000000
vt 0.125000 0.500000
vt 0.125000 0.750000
vt 0.875000 0.500000
vt 0.875000 0.750000
vt 0.916667 1.000000
vt 1.000000 1.000000
vt 1.000000 0.553751
vt 0.916667 0.553751
vt 0.833333 1.000000
vt 0.916667 0.553751
vt 0.833333 0.553751
vt 0.750000 1.000000
vt 0.833333 0.553750
vt 0.750000 0.553750
vt 0.666667 1.000000
vt 0.750000 0.553751
vt 0.666667 0.553750
vt 0.583333 1.000000
vt 0.666667 0.553751
vt 0.583333 0.553751
vt 0.500000 1.000000
vt 0.583333 0.553751
vt 0.500000 0.553751
vt 0.416667 1.000000
vt 0.500000 0.553751
vt 0.416667 0.553751
vt 0.333333 1.000000
vt 0.416667 0.553751
vt 0.333333 0.553751
vt 0.250000 1.000000
vt 0.333333 0.553750
vt 0.250000 0.553750
vt 0.166667 1.000000
vt 0.166667 0.553750
vt 0.250000 0.490000
vt 0.370000 0.457846
vt 0.457846 0.370000
vt 0.010000 0.250000
vt 0.042154 0.130000
vt 0.130000 0.042154
vt 0.250000 0.010000
vt 0.083333 1.000000
vt 0.166667 0.553751
vt 0.083333 0.553751
vt 0.000000 1.000000
vt 0.083333 0.553751
vt 0.000000 0.553751
vt 1.000000 0.500000
vt 0.916667 0.500000
vt 0.833333 0.500000
vt 0.750000 0.500000
vt 0.666667 0.500000
vt 0.583333 0.500000
vt 0.500000 0.500000
vt 0.416667 0.500000
vt 0.333333 0.500000
vt 0.250000 0.500000
vt 0.166667 0.500000
vt 0.130000 0.457846
vt 0.042154 0.370000
vt 0.370000 0.042154
vt 0.457846 0.130000
vt 0.490000 0.250000
vt 0.083333 0.500000
vt 0.000000 0.500000
vt 0.750000 0.490000
vt 0.870000 0.457846
vt 0.957846 0.370000
vt 0.990000 0.250000
vt 0.957846 0.130000
vt 0.870000 0.042154
vt 0.750000 0.010000
vt 0.630000 0.042154
vt 0.542154 0.130000
vt 0.510000 0.250000
vt 0.542154 0.370000
vt 0.630000 0.457846
vt 0.511052 0.244641
vt 0.488949 0.244641
vt 0.488949 0.005359
vt 0.511051 0.005359
vt 0.547010 0.100365
vt 0.547010 0.149635
vt 0.547010 0.149635
vt 0.547010 0.100365
vt 0.418711 0.246996
vt 0.581289 0.246996
vt 0.543499 0.014635
vt 0.547806 0.005304
vt 0.452194 0.005304
vt 0.547806 0.005304
vt 0.452194 0.005304
vt 0.452990 0.100365
vt 0.452990 0.149635
vt 0.463522 0.005359
vt 0.452990 0.005359
vt 0.547010 0.033186
vt 0.547010 0.005359
vt 0.452990 0.149635
vt 0.452990 0.216814
vt 0.452990 0.244641
vt 0.536478 0.244641
vt 0.547010 0.244641
vt 0.456501 0.235365
vt 0.543499 0.235365
vt 0.452990 0.100365
vt 0.456501 0.014635
vt 0.488949 0.244641
vt 0.456501 0.235365
vt 0.547010 0.149635
vt 0.458766 0.102263
vt 0.463712 0.033731
vt 0.489632 0.020709
vt 0.510368 0.020709
vt 0.536288 0.033731
vt 0.541234 0.102263
vt 0.541234 0.147737
vt 0.536288 0.216269
vt 0.510368 0.229291
vt 0.489632 0.229291
vt 0.463712 0.216269
vt 0.458766 0.147737
vt 0.456501 0.014635
vt 0.547010 0.100365
vt 0.456501 0.014635
vt 0.452990 0.100365
vt 0.511052 0.244641
s 0
f 1/1/1 2/2/1 5/3/1 4/4/1
f 4/4/2 5/3/2 11/5/2 10/6/2
f 22/7/3 7/8/3 10/6/3 11/5/3 8/9/3 25/10/3 24/11/3 31/12/3 30/13/3 29/14/3 27/15/3 28/16/3 26/17/3 32/18/3 23/19/3
f 8/9/3 7/8/3 22/7/3 21/20/3 25/10/3
f 7/8/4 8/9/4 2/21/4 1/22/4
f 4/23/5 10/6/5 7/8/5 1/24/5
f 11/5/6 5/25/6 2/26/6 8/9/6
f 6/27/7 3/28/7 27/29/7 29/30/7
f 9/31/8 6/27/8 29/32/8 30/33/8
f 12/34/9 9/31/9 30/35/9 31/36/9
f 13/37/10 12/34/10 31/38/10 24/39/10
f 14/40/11 13/37/11 24/41/11 25/42/11
f 15/43/12 14/40/12 25/44/12 21/45/12
f 16/46/13 15/43/13 21/47/13 22/48/13
f 17/49/14 16/46/14 22/50/14 23/51/14
f 18/52/15 17/49/15 23/53/15 32/54/15
f 19/55/16 18/52/16 32/54/16 26/56/16
f 3/57/3 6/58/3 9/59/3 12/60/3 13/61/3 14/62/3 15/63/3 16/62/3 17/61/3 18/60/3 19/59/3 20/58/3
f 20/64/17 19/55/17 26/65/17 28/66/17
f 3/67/18 20/64/18 28/68/18 27/69/18
f 33/70/13 34/28/13 36/27/13 35/71/13
f 35/71/14 36/27/14 38/31/14 37/72/14
f 37/72/15 38/31/15 40/34/15 39/73/15
f 39/73/16 40/34/16 42/37/16 41/74/16
f 41/74/17 42/37/17 44/40/17 43/75/17
f 43/75/18 44/40/18 46/43/18 45/76/18
f 45/76/7 46/43/7 48/46/7 47/77/7
f 47/77/8 48/46/8 50/49/8 49/78/8
f 49/78/9 50/49/9 52/52/9 51/79/9
f 51/79/10 52/52/10 54/55/10 53/80/10
f 36/58/1 34/57/1 56/81/1 54/82/1 52/60/1 50/61/1 48/62/1 46/63/1 44/83/1 42/84/1 40/85/1 38/59/1
f 53/80/11 54/55/11 56/64/11 55/86/11
f 55/86/12 56/64/12 34/67/12 33/87/12
f 33/88/3 35/89/3 37/90/3 39/91/3 41/92/3 43/93/3 45/94/3 47/95/3 49/96/3 51/97/3 53/98/3 55/99/3
f 99/100/19 89/101/19 70/101/19 59/100/19
f 65/4/2 68/3/2 64/5/2 63/6/2
f 63/6/3 64/5/3 62/9/3 61/8/3
f 61/8/4 62/9/4 67/21/4 66/22/4
f 65/23/5 63/6/5 61/8/5 66/24/5
f 64/5/6 68/25/6 67/26/6 62/9/6
f 73/102/4 78/103/4 95/103/4 93/102/4
f 77/104/6 86/105/6 98/106/6 96/107/6
f 83/108/1 82/101/1 85/100/1 87/109/1 68/3/1 65/4/1
f 85/100/2 82/101/2 89/101/2 99/100/2
f 101/103/20 57/110/20 113/110/20 114/103/20
f 79/111/1 78/103/1 73/102/1 75/112/1 66/1/1 67/2/1
f 87/109/1 86/106/1 77/107/1 79/113/1 67/2/1 68/3/1
f 75/114/1 74/115/1 81/116/1 83/108/1 65/4/1 66/1/1
f 73/102/1 76/117/1 75/114/1
f 76/117/1 74/118/1 75/114/1
f 77/104/1 80/119/1 79/111/1
f 80/119/1 78/120/1 79/111/1
f 81/121/1 84/122/1 83/108/1
f 84/122/1 82/123/1 83/108/1
f 85/100/1 88/124/1 87/109/1
f 88/124/1 86/125/1 87/109/1
f 81/121/21 90/116/21 91/126/21 84/123/21
f 84/123/22 91/126/22 89/101/22 82/101/22
f 98/106/23 86/105/23 88/125/23 100/127/23
f 100/127/24 88/125/24 85/100/24 99/100/24
f 77/104/25 96/107/25 97/110/25 80/120/25
f 80/120/20 97/110/20 95/103/20 78/103/20
f 92/115/26 74/128/26 76/118/26 94/129/26
f 94/129/27 76/118/27 73/102/27 93/102/27
f 81/121/5 74/128/5 92/115/5 90/116/5
f 90/116/28 92/115/28 103/115/28 72/116/28
f 96/107/29 98/106/29 60/106/29 58/107/29
f 97/110/30 96/107/30 58/107/30 57/110/30
f 91/126/31 90/116/31 72/116/31 71/126/31
f 94/129/32 93/102/32 104/102/32 102/129/32
f 93/102/33 95/103/33 101/103/33 104/102/33
f 100/127/34 99/100/34 59/100/34 69/127/34
f 92/115/35 94/129/35 102/129/35 103/115/35
f 98/106/36 100/127/36 69/127/36 60/106/36
f 95/103/37 97/110/37 57/110/37 101/103/37
f 89/101/38 91/126/38 71/126/38 70/101/38
f 107/115/39 110/129/39 122/129/39 119/115/39
f 104/102/4 101/103/4 114/103/4 109/102/4
f 60/106/23 69/127/23 115/127/23 111/106/23
f 69/127/24 59/100/24 106/100/24 115/127/24
f 102/129/27 104/102/27 109/102/27 110/129/27
f 103/115/26 102/129/26 110/129/26 107/115/26
f 59/100/2 70/101/2 105/101/2 106/100/2
f 70/101/22 71/126/22 116/126/22 105/101/22
f 58/107/6 60/106/6 111/106/6 112/107/6
f 57/110/25 58/107/25 112/107/25 113/110/25
f 72/116/5 103/115/5 107/115/5 108/116/5
f 71/126/21 72/116/21 108/116/21 116/126/21
f 121/102/4 126/103/4 148/103/4 137/102/4
f 105/101/40 116/126/40 128/126/40 117/101/40
f 112/107/41 111/106/41 123/106/41 124/107/41
f 113/110/42 112/107/42 124/107/42 125/110/42
f 106/100/43 105/101/43 117/101/43 118/100/43
f 116/126/44 108/116/44 120/116/44 128/126/44
f 114/103/45 113/110/45 125/110/45 126/103/45
f 109/102/46 114/103/46 126/103/46 121/102/46
f 108/116/47 107/115/47 119/115/47 120/116/47
f 111/106/48 115/127/48 127/127/48 123/106/48
f 115/127/49 106/100/49 118/100/49 127/127/49
f 110/129/50 109/102/50 121/102/50 122/129/50
f 117/101/22 128/126/22 151/126/22 129/130/22
f 128/126/21 120/116/21 136/116/21 151/131/21
f 127/127/24 118/100/24 132/100/24 150/127/24
f 123/106/23 127/127/23 150/127/23 141/132/23
f 126/103/20 125/110/20 145/110/20 148/103/20
f 134/133/1 139/134/1 138/135/1 147/136/1 146/137/1 143/138/1 142/139/1 149/140/1 131/141/1 130/142/1 152/143/1 135/144/1
f 122/129/27 121/102/27 137/102/27 140/145/27
f 124/107/6 123/106/6 141/106/6 144/146/6
f 119/115/26 122/129/26 140/147/26 133/148/26
f 125/110/25 124/107/25 144/107/25 145/110/25
f 120/116/5 119/115/5 133/115/5 136/116/5
f 130/142/51 131/141/51 132/149/51 129/101/51
f 134/133/52 135/144/52 136/116/52 133/115/52
f 138/135/53 139/134/53 140/145/53 137/102/53
f 142/139/54 143/138/54 144/146/54 141/106/54
f 146/137/55 147/136/55 148/103/55 145/110/55
f 131/141/56 149/140/56 150/127/56 132/100/56
f 152/143/57 130/142/57 129/130/57 151/126/57
f 135/144/58 152/143/58 151/131/58 136/116/58
f 149/140/59 142/139/59 141/132/59 150/127/59
f 139/134/60 134/133/60 133/148/60 140/147/60
f 143/138/61 146/137/61 145/110/61 144/107/61
f 147/136/62 138/135/62 137/102/62 148/103/62
f 118/100/2 117/101/2 129/101/2 132/149/2
