# Blender 4.4.3
# www.blender.org
mtllib Stock21.mtl
o Cube.019
v 0.087594 -0.012737 1.395707
v 0.087594 0.030729 1.388043
v 0.107402 -0.011818 1.400920
v 0.107402 0.031648 1.393256
v 0.121903 -0.009306 1.415163
v 0.121903 0.034159 1.407499
v 0.127211 -0.005876 1.434619
v 0.127211 0.037590 1.426955
v 0.121903 -0.002445 1.454075
v 0.121903 0.041020 1.446411
v 0.107402 0.000066 1.468317
v 0.107402 0.043532 1.460653
v 0.087594 0.000985 1.473531
v 0.087594 0.044451 1.465866
v 0.067786 0.000066 1.468317
v 0.067786 0.043532 1.460653
v 0.053285 -0.002445 1.454075
v 0.053285 0.041020 1.446411
v 0.047977 -0.005876 1.434619
v 0.047977 0.037590 1.426955
v 0.053285 -0.009306 1.415163
v 0.053285 0.034159 1.407499
v 0.067786 -0.011818 1.400920
v 0.067786 0.031648 1.393256
v 0.087594 0.122750 1.371817
v 0.087594 0.166215 1.364153
v 0.107402 0.123669 1.377030
v 0.107402 0.167135 1.369366
v 0.121903 0.126180 1.391273
v 0.121903 0.169646 1.383609
v 0.127211 0.129611 1.410729
v 0.127211 0.173076 1.403065
v 0.121903 0.133041 1.430185
v 0.121903 0.176507 1.422520
v 0.107402 0.135553 1.444427
v 0.107402 0.179018 1.436763
v 0.087594 0.136472 1.449640
v 0.087594 0.179938 1.441976
v 0.067786 0.135553 1.444427
v 0.067786 0.179018 1.436763
v 0.053285 0.133041 1.430185
v 0.053285 0.176507 1.422520
v 0.047977 0.129611 1.410729
v 0.047977 0.173076 1.403065
v 0.053285 0.126180 1.391273
v 0.053285 0.169646 1.383609
v 0.067786 0.123669 1.377030
v 0.067786 0.167135 1.369366
v 0.087594 0.258897 1.347811
v 0.087594 0.360440 1.329906
v 0.107402 0.259816 1.353024
v 0.107402 0.361359 1.335119
v 0.121903 0.262327 1.367267
v 0.121903 0.363870 1.349362
v 0.127211 0.265758 1.386722
v 0.127211 0.367301 1.368818
v 0.121903 0.269189 1.406178
v 0.121903 0.370732 1.388273
v 0.107402 0.271700 1.420421
v 0.107402 0.373243 1.402516
v 0.087594 0.272619 1.425634
v 0.087594 0.374162 1.407729
v 0.067786 0.271700 1.420421
v 0.067786 0.373243 1.402516
v 0.053285 0.269189 1.406178
v 0.053285 0.370732 1.388273
v 0.047977 0.265758 1.386722
v 0.047977 0.367301 1.368818
v 0.053285 0.262327 1.367267
v 0.053285 0.363870 1.349362
v 0.067786 0.259816 1.353024
v 0.067786 0.361359 1.335119
v -0.093380 0.163059 1.447414
v 0.093380 0.163059 1.447414
v -0.093380 0.163059 2.129333
v -0.093380 0.207751 2.179597
v -0.093380 0.176149 2.162695
v 0.093380 0.207751 2.179597
v 0.093380 0.163059 2.129333
v 0.093380 0.176149 2.162695
v -0.042960 0.323708 2.193249
v -0.093380 0.255643 2.185235
v -0.078612 0.303772 2.190902
v -0.093380 0.358753 1.447414
v -0.042960 0.427937 1.447414
v -0.078612 0.407674 1.447414
v 0.093380 0.255643 2.185235
v 0.042960 0.323708 2.193249
v 0.078612 0.303772 2.190902
v 0.042960 0.427937 1.447414
v 0.093380 0.358753 1.447414
v 0.078612 0.407674 1.447414
v -0.042960 0.401520 1.927834
v -0.078612 0.381505 1.926051
v -0.093380 0.333185 1.921746
v 0.042960 0.401520 1.927834
v 0.078612 0.381505 1.926051
v 0.093380 0.333185 1.921746
v 0.093380 0.351534 1.384356
v -0.093380 0.351534 1.384356
v -0.042960 0.432394 1.384356
v -0.078612 0.412131 1.384356
v -0.093380 0.363210 1.384356
v 0.078612 0.412131 1.384356
v 0.042960 0.432394 1.384356
v 0.093380 0.363210 1.384356
v -0.092843 -0.056504 2.698280
v 0.092843 -0.056504 2.698280
v -0.033735 -0.443418 2.698280
v -0.092843 -0.377231 2.698280
v -0.092843 0.264223 2.698280
v -0.033735 0.330410 2.698280
v 0.092843 -0.377231 2.698280
v 0.033735 -0.443418 2.698280
v 0.033735 0.330410 2.698280
v 0.092843 0.264223 2.698280
v -0.092843 -0.393256 2.758209
v -0.033735 -0.456382 2.775030
v -0.092843 -0.273412 2.791050
v -0.033735 -0.433205 2.801583
v -0.033735 -0.451581 2.794569
v -0.033735 0.320197 2.801583
v -0.092843 0.160404 2.791050
v -0.092843 0.280248 2.758209
v -0.033735 0.343374 2.775030
v -0.033735 0.338572 2.794569
v 0.033735 -0.433205 2.801583
v 0.092843 -0.273412 2.791050
v 0.092843 -0.393256 2.758209
v 0.033735 -0.456382 2.775030
v 0.033735 -0.451581 2.794569
v 0.092843 0.280248 2.758209
v 0.033735 0.343374 2.775030
v 0.092843 0.160404 2.791050
v 0.033735 0.320197 2.801583
v 0.033735 0.338572 2.794569
v -0.092843 -0.241470 2.788945
v -0.092843 0.128462 2.788945
v -0.092843 -0.056504 2.698286
v -0.092843 -0.056504 2.775316
v 0.092843 0.128462 2.788945
v 0.092843 -0.241470 2.788945
v 0.092843 -0.056504 2.698286
v 0.092843 -0.056504 2.775316
vn -0.0000 -0.1736 -0.9848
vn 0.5251 -0.1478 -0.8381
vn 0.7062 -0.1230 -0.6973
vn 0.9658 -0.0451 -0.2555
vn 0.9658 0.0451 0.2555
vn 0.7062 0.1230 0.6973
vn 0.5251 0.1478 0.8381
vn -0.0000 0.1736 0.9848
vn -0.5251 0.1478 0.8381
vn -0.7062 0.1230 0.6973
vn -0.9658 0.0451 0.2555
vn -0.9658 -0.0451 -0.2555
vn -0.0000 0.9848 -0.1736
vn -0.7062 -0.1230 -0.6973
vn -0.5251 -0.1478 -0.8381
vn -0.0000 -0.9848 0.1736
vn 0.7062 0.1229 0.6973
vn -0.7062 0.1229 0.6973
vn -0.7062 -0.1229 -0.6973
vn -1.0000 -0.0000 -0.0000
vn 1.0000 -0.0000 -0.0000
vn -0.4927 0.8685 0.0544
vn -0.2686 0.9614 0.0604
vn -0.2674 0.9612 0.0679
vn -0.4932 0.8678 0.0613
vn -0.0000 -0.2995 0.9541
vn -0.0000 -0.1169 0.9931
vn -0.0000 -0.9826 0.1859
vn -0.0000 -0.9309 0.3653
vn -0.0000 -0.4716 0.8818
vn -0.0000 -1.0000 -0.0000
vn -0.2651 0.9504 0.1625
vn -0.4908 0.8585 0.1487
vn -0.9567 0.2872 0.0480
vn -0.9570 0.2894 0.0182
vn -0.9570 0.2895 0.0180
vn -0.9566 0.2870 0.0509
vn 0.2651 0.9504 0.1625
vn 0.2664 0.9249 0.2712
vn 0.4846 0.8394 0.2462
vn 0.4908 0.8585 0.1487
vn 0.9567 0.2872 0.0480
vn 0.9552 0.2839 0.0834
vn 0.9566 0.2870 0.0509
vn -0.2664 0.9249 0.2712
vn 0.2686 0.9614 0.0604
vn 0.9570 0.2894 0.0182
vn 0.9570 0.2895 0.0180
vn 0.4927 0.8685 0.0544
vn -0.9552 0.2839 0.0834
vn -0.4846 0.8394 0.2462
vn -0.0000 -0.1607 -0.9870
vn -0.0000 -0.0000 -1.0000
vn 0.9571 0.2889 0.0204
vn 0.4932 0.8678 0.0613
vn 0.2674 0.9612 0.0679
vn -0.9571 0.2889 0.0204
vn -0.0000 -0.3173 -0.9483
vn 0.4522 0.8763 -0.1664
vn -0.4522 0.8763 -0.1664
vn -0.4511 0.8920 0.0299
vn 0.4511 0.8920 0.0299
vn 0.3602 0.3008 0.8830
vn -0.3602 0.3008 0.8830
vn -0.3129 0.1633 0.9357
vn 0.3129 0.1633 0.9357
vn -0.4443 0.8700 0.2138
vn 0.4443 0.8700 0.2138
vn -0.4511 -0.8920 0.0299
vn 0.4511 -0.8920 0.0299
vn 0.4443 -0.8700 0.2138
vn -0.4443 -0.8700 0.2138
vn -0.4522 -0.8763 -0.1664
vn 0.4522 -0.8763 -0.1664
vn -0.3602 -0.3008 0.8830
vn 0.3602 -0.3008 0.8830
vn 0.3129 -0.1633 0.9357
vn -0.3129 -0.1633 0.9357
vn -0.7247 -0.6781 -0.1224
vn 0.7247 -0.6781 -0.1224
vn -0.1964 -0.0103 0.9805
vn -0.6658 -0.2067 0.7169
vn 0.6658 -0.2067 0.7169
vn 0.1964 -0.0103 0.9805
vn 0.7247 0.6781 -0.1224
vn -0.7247 0.6781 -0.1224
vn 0.1964 0.0103 0.9805
vn 0.6658 0.2067 0.7169
vn -0.6658 0.2067 0.7169
vn -0.1964 0.0103 0.9805
vn -0.7210 -0.6778 -0.1438
vn 0.7210 -0.6778 -0.1438
vn -0.7210 0.6778 -0.1438
vn 0.7210 0.6778 -0.1438
vn -0.0000 0.0696 0.9976
vn -0.0000 -0.0696 0.9976
vn -0.0000 -0.0000 1.0000
vt 1.000000 0.500000
vt 1.000000 1.000000
vt 0.916667 1.000000
vt 0.916667 0.500000
vt 0.833333 1.000000
vt 0.833333 0.500000
vt 0.750000 1.000000
vt 0.750000 0.500000
vt 0.666667 1.000000
vt 0.666667 0.500000
vt 0.583333 1.000000
vt 0.583333 0.500000
vt 0.500000 1.000000
vt 0.500000 0.500000
vt 0.416667 1.000000
vt 0.416667 0.500000
vt 0.333333 1.000000
vt 0.333333 0.500000
vt 0.250000 1.000000
vt 0.250000 0.500000
vt 0.166667 1.000000
vt 0.166667 0.500000
vt 0.370000 0.457846
vt 0.250000 0.490000
vt 0.130000 0.457846
vt 0.042154 0.370000
vt 0.010000 0.250000
vt 0.042154 0.130000
vt 0.130000 0.042154
vt 0.250000 0.010000
vt 0.370000 0.042154
vt 0.457846 0.130000
vt 0.490000 0.250000
vt 0.457846 0.370000
vt 0.083333 1.000000
vt 0.083333 0.500000
vt 0.000000 1.000000
vt 0.000000 0.500000
vt 0.750000 0.490000
vt 0.870000 0.457846
vt 0.957846 0.370000
vt 0.990000 0.250000
vt 0.957846 0.130000
vt 0.870000 0.042154
vt 0.750000 0.010000
vt 0.630000 0.042154
vt 0.542154 0.130000
vt 0.510000 0.250000
vt 0.542154 0.370000
vt 0.630000 0.457846
vt 0.375000 0.017360
vt 0.394518 0.005017
vt 0.444550 0.000000
vt 0.519078 0.000000
vt 0.528151 0.060065
vt 0.556842 0.250000
vt 0.375000 0.250000
vt 0.375000 0.500000
vt 0.556842 0.500000
vt 0.528151 0.689935
vt 0.519078 0.750000
vt 0.444550 0.750000
vt 0.394518 0.744983
vt 0.375000 0.732640
vt 0.875000 0.501040
vt 0.807507 0.500000
vt 0.444550 0.750000
vt 0.593976 0.769768
vt 0.625000 0.817493
vt 0.625000 0.932507
vt 0.593976 0.980232
vt 0.519078 1.000000
vt 0.444550 1.000000
vt 0.125000 0.732640
vt 0.375000 0.732640
vt 0.375000 0.750000
vt 0.125000 0.750000
vt 0.375000 1.000000
vt 0.125000 0.500000
vt 0.807507 0.689935
vt 0.875000 0.690185
vt 0.625000 0.059815
vt 0.625000 0.248960
vt 0.692493 0.689935
vt 0.692493 0.750000
vt 0.625000 0.750000
vt 0.625000 0.690185
vt 0.807507 0.750000
vt 0.692493 0.500000
vt 0.625000 0.501040
vt 0.625000 0.000000
vt 0.875000 0.750000
vt 0.605037 0.269768
vt 0.625000 0.317493
vt 0.625000 0.432507
vt 0.605037 0.480232
vt 0.500000 0.500000
vt 0.603617 0.500000
vt 0.607740 0.613230
vt 0.567001 0.750000
vt 0.557134 0.750000
vt 0.500000 0.500017
vt 0.704581 0.500000
vt 0.795419 0.500000
vt 0.795419 0.682483
vt 0.704581 0.682483
vt 0.625000 0.829581
vt 0.625000 0.920419
vt 0.616359 0.920419
vt 0.616359 0.829581
vt 0.396383 0.500000
vt 0.500000 0.500017
vt 0.442866 0.750000
vt 0.432999 0.750000
vt 0.395846 0.684275
vt 0.795419 0.750000
vt 0.704581 0.750000
vt 0.204581 0.682483
vt 0.295419 0.682483
vt 0.295419 0.750000
vt 0.204581 0.750000
vt 0.204581 0.500000
vt 0.295419 0.500000
vt 0.500000 0.250000
vt 0.603617 0.250000
vt 0.625000 0.329581
vt 0.625000 0.420419
vt 0.375000 0.920419
vt 0.375000 0.829581
vt 0.383641 0.829581
vt 0.383641 0.920419
vt 0.500000 0.249983
vt 0.557134 0.000000
vt 0.567001 0.000000
vt 0.604154 0.065725
vt 0.392260 0.136770
vt 0.432999 0.000000
vt 0.442866 0.000000
vt 0.500000 0.249983
vt 0.396383 0.250000
vt 0.375000 0.329581
vt 0.375000 0.420419
vt 0.125000 0.730296
vt 0.375000 0.682483
vt 0.383641 1.000000
vt 0.383641 0.750000
vt 0.604154 0.684275
vt 0.625000 0.682483
vt 0.622451 0.729955
vt 0.607740 0.136770
vt 0.622451 0.020045
vt 0.625000 0.067517
vt 0.616359 0.750000
vt 0.616359 0.000000
vt 0.125000 0.649051
vt 0.625000 0.250000
vt 0.432999 0.750000
vt 0.442866 0.750000
vt 0.442866 1.000000
vt 0.432999 1.000000
vt 0.499863 0.000000
vt 0.500000 0.000000
vt 0.500137 0.750000
vt 0.443334 0.750000
vt 0.557134 1.000000
vt 0.500000 1.000000
vt 0.500000 0.750000
vt 0.567001 1.000000
s 1
f 1/1/1 2/2/1 4/3/2 3/4/2
f 3/4/2 4/3/2 6/5/3 5/6/3
f 5/6/4 6/5/4 8/7/4 7/8/4
f 7/8/5 8/7/5 10/9/5 9/10/5
f 9/10/6 10/9/6 12/11/7 11/12/7
f 11/12/7 12/11/7 14/13/8 13/14/8
f 13/14/8 14/13/8 16/15/9 15/16/9
f 15/16/9 16/15/9 18/17/10 17/18/10
f 17/18/11 18/17/11 20/19/11 19/20/11
f 19/20/12 20/19/12 22/21/12 21/22/12
f 4/23/13 2/24/13 24/25/13 22/26/13 20/27/13 18/28/13 16/29/13 14/30/13 12/31/13 10/32/13 8/33/13 6/34/13
f 21/22/14 22/21/14 24/35/15 23/36/15
f 23/36/15 24/35/15 2/37/1 1/38/1
f 1/39/16 3/40/16 5/41/16 7/42/16 9/43/16 11/44/16 13/45/16 15/46/16 17/47/16 19/48/16 21/49/16 23/50/16
f 25/1/1 26/2/1 28/3/2 27/4/2
f 27/4/2 28/3/2 30/5/3 29/6/3
f 29/6/4 30/5/4 32/7/4 31/8/4
f 31/8/5 32/7/5 34/9/5 33/10/5
f 33/10/6 34/9/6 36/11/7 35/12/7
f 35/12/7 36/11/7 38/13/8 37/14/8
f 37/14/8 38/13/8 40/15/9 39/16/9
f 39/16/9 40/15/9 42/17/10 41/18/10
f 41/18/11 42/17/11 44/19/11 43/20/11
f 43/20/12 44/19/12 46/21/12 45/22/12
f 28/23/13 26/24/13 48/25/13 46/26/13 44/27/13 42/28/13 40/29/13 38/30/13 36/31/13 34/32/13 32/33/13 30/34/13
f 45/22/14 46/21/14 48/35/15 47/36/15
f 47/36/15 48/35/15 26/37/1 25/38/1
f 25/39/16 27/40/16 29/41/16 31/42/16 33/43/16 35/44/16 37/45/16 39/46/16 41/47/16 43/48/16 45/49/16 47/50/16
f 49/1/1 50/2/1 52/3/2 51/4/2
f 51/4/2 52/3/2 54/5/3 53/6/3
f 53/6/4 54/5/4 56/7/4 55/8/4
f 55/8/5 56/7/5 58/9/5 57/10/5
f 57/10/17 58/9/17 60/11/7 59/12/7
f 59/12/7 60/11/7 62/13/8 61/14/8
f 61/14/8 62/13/8 64/15/9 63/16/9
f 63/16/9 64/15/9 66/17/18 65/18/18
f 65/18/11 66/17/11 68/19/11 67/20/11
f 67/20/12 68/19/12 70/21/12 69/22/12
f 52/23/13 50/24/13 72/25/13 70/26/13 68/27/13 66/28/13 64/29/13 62/30/13 60/31/13 58/32/13 56/33/13 54/34/13
f 69/22/19 70/21/19 72/35/15 71/36/15
f 71/36/15 72/35/15 50/37/1 49/38/1
f 49/39/16 51/40/16 53/41/16 55/42/16 57/43/16 59/44/16 61/45/16 63/46/16 65/47/16 67/48/16 69/49/16 71/50/16
f 75/51/20 77/52/20 76/53/20 82/54/20 95/55/20 84/56/20 73/57/20
f 74/58/21 91/59/21 98/60/21 87/61/21 78/62/21 80/63/21 79/64/21
f 86/65/22 85/66/23 101/66/24 102/65/25
f 78/67/26 87/61/27 89/68/27 88/69/27 81/70/27 83/71/27 82/72/27 76/73/26
f 75/74/28 79/75/28 80/76/29 77/77/29
f 77/78/30 80/76/30 78/67/26 76/73/26
f 73/79/31 74/58/31 79/75/28 75/74/28
f 93/80/32 85/66/23 86/65/22 94/81/33
f 94/82/34 86/83/35 84/56/36 95/55/37
f 96/84/38 88/85/39 89/86/40 97/87/41
f 97/87/42 89/86/43 87/61/43 98/60/44
f 96/84/38 93/80/32 81/88/45 88/85/39
f 90/89/46 85/66/23 93/80/32 96/84/38
f 92/90/47 97/87/42 98/60/44 91/59/48
f 90/89/46 96/84/38 97/87/41 92/90/49
f 83/91/50 94/82/34 95/55/37 82/54/50
f 81/88/45 93/80/32 94/81/33 83/92/51
f 100/57/52 103/56/53 102/93/53 101/94/53 105/95/53 104/96/53 106/59/53 99/58/52
f 92/90/47 91/59/48 106/59/54 104/90/54
f 73/57/20 84/56/20 103/56/20 100/57/20
f 90/89/46 92/90/49 104/90/55 105/89/56
f 84/56/36 86/83/35 102/83/57 103/56/57
f 85/66/23 90/89/46 105/89/56 101/66/24
f 74/58/58 73/79/58 100/79/52 99/58/52
f 91/59/21 74/58/21 99/58/21 106/59/21
f 108/97/21 116/98/21 132/99/21 134/100/21 141/101/21 143/102/21
f 115/103/59 112/104/60 125/105/61 133/106/62
f 136/107/63 126/108/64 122/109/65 135/110/66
f 113/111/21 108/97/21 143/112/21 142/113/21 128/114/21 129/115/21
f 133/106/62 125/105/61 126/116/67 136/117/68
f 118/118/69 130/119/70 131/120/71 121/121/72
f 109/122/73 114/123/74 130/119/70 118/118/69
f 107/124/53 111/125/53 112/126/53 115/127/53 116/98/53 108/97/53
f 121/128/75 131/129/76 127/130/77 120/131/78
f 139/132/20 138/133/20 123/134/20 124/135/20 111/125/20 107/124/20
f 117/136/20 119/137/20 137/138/20 139/139/20 107/124/20 110/140/20
f 109/141/53 110/140/53 107/124/53 108/97/53 113/111/53 114/142/53
f 117/143/79 118/118/69 121/121/72
f 129/144/80 131/120/71 130/119/70
f 119/145/81 117/145/82 121/128/75 120/131/78
f 129/146/83 128/146/84 127/130/77 131/129/76
f 132/147/85 133/148/62 136/149/68
f 124/150/86 126/151/67 125/152/61
f 134/100/87 132/99/88 136/149/63 135/153/66
f 124/150/89 123/134/90 122/154/65 126/151/64
f 109/122/73 118/118/69 117/155/79 110/79/91
f 113/111/92 129/115/80 130/119/70 114/123/74
f 125/152/61 112/156/60 111/125/93 124/135/86
f 132/147/85 116/98/94 115/103/59 133/106/62
f 127/130/77 128/157/84 142/158/95 137/159/95 119/160/81 120/131/78
f 137/138/20 140/161/20 139/139/20
f 140/161/20 138/162/20 139/139/20
f 141/101/21 144/163/21 143/112/21
f 144/163/21 142/164/21 143/112/21
f 141/101/96 138/165/96 140/166/97 144/167/97
f 144/167/97 140/166/97 137/159/95 142/158/95
f 141/101/96 134/100/87 135/110/66 122/109/65 123/168/90 138/165/96
