# Blender 4.4.3
# www.blender.org
mtllib Stock31.mtl
o Cube.030
v -0.082224 0.132579 2.435716
v -0.082224 0.258973 2.435716
v -0.082224 0.132579 2.274476
v 0.082224 0.132579 2.435716
v 0.082224 0.258973 2.435716
v 0.082224 0.132579 2.274476
v 0.054552 0.132579 2.274476
v -0.055424 0.132579 2.274476
v -0.055424 0.132579 2.435716
v 0.054552 0.132579 2.435716
v 0.054552 0.258973 2.435716
v -0.055424 0.258973 2.435716
v -0.034808 -0.050679 2.435716
v 0.033935 -0.050679 2.435716
v -0.111568 0.154901 1.551038
v -0.095462 0.132236 1.551038
v -0.095462 0.246949 1.551038
v -0.111568 0.224285 1.551038
v 0.095463 0.132236 1.551038
v 0.111569 0.154901 1.551038
v 0.111569 0.224285 1.551038
v 0.095463 0.246949 1.551038
v -0.038255 0.141917 2.391098
v -0.038255 0.242471 2.391098
v -0.038255 0.141917 1.546774
v -0.038255 0.242471 1.546774
v -0.103065 0.169007 2.391098
v -0.089321 0.141917 2.391098
v -0.089321 0.242471 2.391098
v -0.103065 0.215381 2.391098
v -0.089321 0.141917 1.546774
v -0.103065 0.169007 1.546774
v -0.103065 0.215381 1.546774
v -0.089321 0.242471 1.546774
v -0.038255 0.242471 1.803320
v -0.038255 0.222690 1.803320
v -0.038255 0.222690 1.773524
v -0.038255 0.242471 1.773524
v -0.089321 0.242471 1.803320
v -0.089321 0.242471 1.773524
v -0.099357 0.222690 1.803320
v -0.099357 0.222690 1.773524
v 0.038256 0.141917 2.391098
v 0.038256 0.242471 2.391098
v 0.038256 0.141917 1.546774
v 0.038256 0.242471 1.546774
v 0.103066 0.169007 2.391098
v 0.089322 0.141917 2.391098
v 0.089322 0.242471 2.391098
v 0.103066 0.215381 2.391098
v 0.089322 0.141917 1.546774
v 0.103066 0.169007 1.546774
v 0.103066 0.215381 1.546774
v 0.089322 0.242471 1.546774
v 0.038256 0.242471 1.803320
v 0.038256 0.222690 1.803320
v 0.038256 0.222690 1.773524
v 0.038256 0.242471 1.773524
v 0.089322 0.242471 1.803320
v 0.089322 0.242471 1.773524
v 0.099357 0.222690 1.803320
v 0.099357 0.222690 1.773524
v -0.095462 0.132236 1.420452
v -0.056110 0.132236 1.386590
v -0.077032 0.161677 1.386590
v -0.111568 0.154901 1.420452
v -0.077032 0.217508 1.386590
v -0.111568 0.224285 1.420452
v -0.056110 0.246949 1.386590
v -0.095462 0.246949 1.420452
v 0.077032 0.161677 1.386590
v 0.111569 0.154901 1.420452
v 0.056110 0.132236 1.386590
v 0.095463 0.132236 1.420452
v 0.095463 0.246949 1.420452
v 0.056110 0.246949 1.386590
v 0.077032 0.217508 1.386590
v 0.111569 0.224285 1.420452
v -0.082224 0.258973 2.292408
v -0.082224 0.244916 2.274476
v 0.082224 0.244916 2.274476
v 0.082224 0.258973 2.292408
v -0.055424 0.258973 2.292408
v -0.055424 0.244916 2.274476
v 0.054552 0.244916 2.274476
v 0.054552 0.258973 2.292408
v 0.033935 -0.050679 2.309844
v 0.038088 -0.022954 2.274476
v -0.038961 -0.022954 2.274476
v -0.034808 -0.050679 2.309844
vn -0.0000 -0.0000 -1.0000
vn 1.0000 -0.0000 -0.0000
vn -0.0000 -0.0000 1.0000
vn -0.0000 -1.0000 -0.0000
vn -1.0000 -0.0000 -0.0000
vn -0.9938 -0.1112 0.0032
vn -0.0000 1.0000 -0.0000
vn 0.9938 -0.1112 0.0032
vn 0.8151 0.5793 -0.0000
vn 0.8151 -0.5793 -0.0000
vn -0.8151 0.5793 -0.0000
vn -0.8918 -0.4524 -0.0000
vn -0.8918 0.4524 -0.0000
vn 0.8918 -0.4524 -0.0000
vn 0.8918 0.4524 -0.0000
vn -0.5918 -0.4205 -0.6877
vn -0.5918 0.4205 -0.6877
vn 0.5918 -0.4205 -0.6877
vn 0.5918 0.4205 -0.6877
vn -0.7001 -0.0000 -0.7140
vn 0.7001 -0.0000 -0.7140
vn -0.8151 -0.5793 -0.0000
vn -0.0000 0.7870 -0.6169
vn -0.0000 -0.7870 -0.6169
vt 0.375000 0.250000
vt 0.597197 0.250000
vt 0.597197 0.332671
vt 0.375000 0.332671
vt 0.375000 0.500000
vt 0.597197 0.500000
vt 0.625000 0.527803
vt 0.625000 0.750000
vt 0.375000 0.750000
vt 0.597197 0.332671
vt 0.597197 0.416004
vt 0.375000 0.416004
vt 0.375000 0.917329
vt 0.625000 0.917329
vt 0.625000 1.000000
vt 0.375000 1.000000
vt 0.291004 0.500000
vt 0.291004 0.750000
vt 0.375000 0.000000
vt 0.625000 0.000000
vt 0.625000 0.222197
vt 0.125000 0.500000
vt 0.207671 0.500000
vt 0.207671 0.750000
vt 0.125000 0.750000
vt 0.207671 0.554838
vt 0.625000 0.833996
vt 0.375000 0.833996
vt 0.625000 0.527803
vt 0.708996 0.527803
vt 0.708996 0.750000
vt 0.708996 0.527803
vt 0.792329 0.527803
vt 0.792329 0.750000
vt 0.291004 0.554838
vt 0.207671 0.554838
vt 0.375000 0.799393
vt 0.424393 0.750000
vt 0.575607 0.750000
vt 0.625000 0.799393
vt 0.625000 0.950607
vt 0.575607 1.000000
vt 0.424393 1.000000
vt 0.375000 0.950607
vt 0.674393 0.551480
vt 0.674393 0.750000
vt 0.575607 0.551480
vt 0.325607 0.750000
vt 0.325607 0.551480
vt 0.424393 0.551480
vt 0.625000 0.198520
vt 0.575607 0.198520
vt 0.575607 0.000000
vt 0.424393 0.000000
vt 0.575607 0.198520
vt 0.424393 0.198520
vt 0.174393 0.551480
vt 0.205561 0.500000
vt 0.294439 0.500000
vt 0.325607 0.551480
vt 0.174393 0.750000
vt 0.674393 0.551480
vt 0.705561 0.500000
vt 0.794439 0.500000
vt 0.825607 0.551480
vt 0.825607 0.750000
vt 0.424393 0.551480
vt 0.575607 0.551480
vt 0.375000 0.330561
vt 0.439162 0.299021
vt 0.560838 0.299021
vt 0.625000 0.330561
vt 0.625000 0.419439
vt 0.560838 0.450979
vt 0.439162 0.450979
vt 0.375000 0.419439
vt 0.557648 1.000000
vt 0.442352 1.000000
vt 0.375000 0.932648
vt 0.625000 0.932648
vt 0.625000 0.500000
vt 0.625000 0.580127
vt 0.575820 0.580127
vt 0.575820 0.587851
vt 0.625000 0.587851
vt 0.807648 0.587851
vt 0.807648 0.750000
vt 0.807648 0.500000
vt 0.807648 0.580127
vt 0.442352 0.000000
vt 0.557648 0.000000
vt 0.557648 0.250000
vt 0.442352 0.250000
vt 0.625000 0.317352
vt 0.375000 0.317352
vt 0.192352 0.500000
vt 0.192352 0.750000
vt 0.625000 0.169873
vt 0.625000 0.250000
vt 0.625000 0.162149
vt 0.575820 0.162149
vt 0.575820 0.169873
vt 0.375000 0.359105
vt 0.429618 0.359105
vt 0.429618 0.337888
vt 0.375000 0.333719
vt 0.375000 0.890895
vt 0.375000 0.916281
vt 0.429618 0.912112
vt 0.429618 0.890895
vt 0.234105 0.750000
vt 0.234105 0.500000
vt 0.208719 0.500000
vt 0.208719 0.750000
vt 0.375000 0.390895
vt 0.375000 0.416281
vt 0.429618 0.412112
vt 0.429618 0.390895
vt 0.375000 0.859105
vt 0.429618 0.859105
vt 0.429618 0.837888
vt 0.375000 0.833719
vt 0.265895 0.750000
vt 0.291281 0.750000
vt 0.291281 0.500000
vt 0.265895 0.500000
vt 0.137962 0.500000
vt 0.174393 0.500000
vt 0.174393 0.551480
vt 0.125000 0.551480
vt 0.575607 0.250000
vt 0.625000 0.299393
vt 0.325607 0.500000
vt 0.398470 0.500000
vt 0.625000 0.450607
vt 0.575607 0.500000
vt 0.625000 0.416004
vt 0.625000 0.332671
vt 0.792329 0.527803
vt 0.875000 0.527803
vt 0.875000 0.750000
vt 0.375000 0.416004
s 0
f 3/1/1 80/2/1 84/3/1 8/4/1
f 6/5/2 81/6/2 82/7/2 5/8/2 4/9/2
f 8/4/1 84/10/1 85/11/1 7/12/1
f 9/13/3 12/14/3 2/15/3 1/16/3
f 7/17/4 6/5/4 4/9/4 10/18/4
f 1/19/5 2/20/5 79/21/5 80/2/5 3/1/5
f 7/12/1 85/11/1 81/6/1 6/5/1
f 3/22/4 8/23/4 9/24/4 1/25/4
f 9/24/6 8/23/6 89/23/6 90/26/6 13/24/6
f 4/9/3 5/8/3 11/27/3 10/28/3
f 10/28/3 11/27/3 12/14/3 9/13/3
f 82/29/7 86/30/7 11/31/7 5/8/7
f 86/32/7 83/33/7 12/34/7 11/31/7
f 7/17/8 10/18/8 14/18/8 87/35/8 88/17/8
f 10/28/3 9/13/3 13/13/3 14/28/3
f 90/36/4 87/35/4 14/18/4 13/24/4
f 19/37/3 20/38/3 21/39/3 22/40/3 17/41/3 18/42/3 15/43/3 16/44/3
f 75/45/9 22/46/9 21/39/9 78/47/9
f 19/48/10 74/49/10 72/50/10 20/38/10
f 17/20/11 70/51/11 68/52/11 18/53/11
f 15/54/5 18/53/5 68/55/5 66/56/5
f 63/57/4 64/58/4 73/59/4 74/60/4 19/48/4 16/61/4
f 75/62/7 76/63/7 69/64/7 70/65/7 17/66/7 22/46/7
f 72/67/2 78/68/2 21/39/2 20/38/2
f 64/69/1 65/70/1 67/71/1 69/72/1 76/73/1 77/74/1 71/75/1 73/76/1
f 30/77/3 27/78/3 28/79/3 23/9/3 24/8/3 29/80/3
f 24/8/2 23/9/2 25/5/2 26/81/2 38/82/2 37/83/2 36/84/2 35/85/2
f 39/86/7 29/87/7 24/8/7 35/85/7
f 38/82/7 26/81/7 34/88/7 40/89/7
f 27/90/5 30/91/5 33/92/5 32/93/5
f 34/94/1 26/81/1 25/5/1 31/95/1 32/93/1 33/92/1
f 31/96/12 28/97/12 27/25/12 32/22/12
f 40/98/13 34/99/13 33/92/13 30/91/13 29/20/13 39/100/13 41/101/13 42/102/13
f 31/96/4 25/5/4 23/9/4 28/97/4
f 37/103/3 38/104/3 40/105/3 42/106/3
f 36/107/1 41/108/1 39/109/1 35/110/1
f 36/111/7 37/112/7 42/113/7 41/114/7
f 50/77/3 49/80/3 44/8/3 43/9/3 48/79/3 47/78/3
f 44/8/5 55/85/5 56/84/5 57/83/5 58/82/5 46/81/5 45/5/5 43/9/5
f 59/86/7 55/85/7 44/8/7 49/87/7
f 58/82/7 60/89/7 54/88/7 46/81/7
f 47/90/2 52/93/2 53/92/2 50/91/2
f 54/94/1 53/92/1 52/93/1 51/95/1 45/5/1 46/81/1
f 51/96/14 52/22/14 47/25/14 48/97/14
f 60/98/15 62/102/15 61/101/15 59/100/15 49/20/15 50/91/15 53/92/15 54/99/15
f 51/96/4 48/97/4 43/9/4 45/5/4
f 57/115/3 62/116/3 60/117/3 58/118/3
f 56/119/1 55/120/1 59/121/1 61/122/1
f 56/123/7 61/124/7 62/125/7 57/126/7
f 65/127/16 64/128/16 63/129/16 66/130/16
f 69/72/17 67/71/17 68/131/17 70/132/17
f 73/133/18 71/134/18 72/50/18 74/49/18
f 77/74/19 76/73/19 75/135/19 78/136/19
f 67/71/20 65/70/20 66/56/20 68/55/20
f 78/68/21 72/67/21 71/75/21 77/74/21
f 63/129/22 16/61/22 15/25/22 66/130/22
f 86/137/23 82/81/23 81/6/23 85/11/23
f 79/99/23 83/138/23 84/3/23 80/2/23
f 83/138/23 86/137/23 85/11/23 84/10/23
f 83/139/7 79/140/7 2/141/7 12/34/7
f 87/35/24 90/36/24 89/23/24 88/17/24
f 8/4/1 7/12/1 88/142/1 89/4/1
