# Blender 4.4.3
# www.blender.org
mtllib Stock32.mtl
o Cube.032
v -0.082095 0.059322 1.331376
v -0.020663 -0.016218 1.331376
v -0.064102 0.005907 1.331376
v -0.020663 0.466132 1.369930
v -0.082095 0.390591 1.369930
v -0.064102 0.444006 1.369930
v -0.020663 -0.016218 1.279519
v -0.082095 0.059322 1.279519
v -0.064102 0.005907 1.279519
v -0.082095 0.390591 1.279519
v -0.020663 0.466132 1.279519
v -0.064102 0.444006 1.279519
v 0.020663 -0.016218 1.331376
v 0.082095 0.059322 1.331376
v 0.064102 0.005907 1.331376
v 0.082095 0.390591 1.369930
v 0.020663 0.466132 1.369930
v 0.064102 0.444006 1.369930
v 0.082095 0.059322 1.279519
v 0.020663 -0.016218 1.279519
v 0.064102 0.005907 1.279519
v 0.020663 0.466132 1.279519
v 0.082095 0.390591 1.279519
v 0.064102 0.444006 1.279519
v -0.020663 -0.016218 1.392961
v -0.064102 0.005907 1.392961
v -0.082095 0.059322 1.392961
v -0.064102 0.392217 1.387738
v -0.020663 0.414342 1.387738
v -0.082095 0.338802 1.387738
v 0.064102 0.005907 1.392961
v 0.020663 -0.016218 1.392961
v 0.082095 0.059322 1.392961
v 0.020663 0.414342 1.387738
v 0.064102 0.392217 1.387738
v 0.082095 0.338802 1.387738
v -0.064102 0.392217 1.506116
v -0.020663 0.414342 1.506116
v -0.082095 0.338802 1.506116
v 0.020663 0.414342 1.506116
v 0.064102 0.392217 1.506116
v 0.082095 0.338802 1.506116
v -0.020663 -0.016218 1.411019
v -0.018336 0.044383 1.506116
v -0.052129 0.061595 1.506116
v -0.064102 0.005907 1.411019
v -0.082095 0.059322 1.411019
v -0.082095 0.114646 1.506116
v 0.064102 0.005907 1.411019
v 0.052129 0.061595 1.506116
v 0.018336 0.044383 1.506116
v 0.020663 -0.016218 1.411019
v 0.082095 0.114646 1.506116
v 0.082095 0.059322 1.411019
v -0.092445 0.258299 1.654901
v -0.031448 0.395686 1.732105
v -0.092445 0.258299 1.416838
v -0.074579 0.383053 1.732105
v 0.092445 0.258299 1.654901
v 0.092445 0.268805 1.732105
v 0.092445 0.258299 1.416838
v -0.092445 0.268805 1.732105
v -0.031448 0.395686 1.654901
v -0.092445 0.352554 1.654901
v -0.074579 0.383053 1.654901
v -0.092445 0.392359 1.416838
v -0.031448 0.435491 1.416838
v -0.074579 0.422858 1.416838
v 0.092445 0.352554 1.654901
v 0.031449 0.395686 1.654901
v 0.074580 0.383053 1.654901
v 0.031449 0.435491 1.416838
v 0.092445 0.392359 1.416838
v 0.074580 0.422858 1.416838
v -0.092445 0.352554 1.732105
v 0.031449 0.395686 1.732105
v 0.074580 0.383053 1.732105
v 0.092445 0.352554 1.732105
v -0.092445 0.354485 1.858982
v -0.092445 0.370729 1.831873
v -0.092445 0.298548 1.831616
v -0.092445 0.327656 1.858982
v 0.027274 0.389691 1.858982
v 0.031449 0.413863 1.831888
v -0.031448 0.413863 1.831888
v -0.027273 0.389691 1.858982
v 0.074580 0.401229 1.831879
v 0.055306 0.381481 1.858982
v 0.092445 0.370729 1.831873
v 0.092445 0.354485 1.858982
v 0.092445 0.327656 1.858982
v 0.092445 0.298548 1.831616
v -0.055305 0.381481 1.858982
v -0.074579 0.401229 1.831879
v -0.073648 0.334885 2.373804
v -0.111369 0.304704 2.373804
v -0.126994 0.167326 2.489761
v -0.087686 0.200646 2.514715
v -0.126994 0.128234 2.489761
v -0.087686 0.108565 2.514715
v -0.073648 0.334885 2.449958
v -0.126994 0.231842 2.483827
v -0.111369 0.304704 2.459823
v -0.078033 0.269155 2.499623
v -0.065246 -0.044976 2.464252
v -0.094494 -0.052677 2.430458
v -0.027772 -0.123698 2.427856
v -0.054800 -0.155719 2.397153
v -0.058063 -0.089989 2.449459
v -0.082868 -0.125539 2.406913
v -0.053397 0.308061 2.486836
v -0.052955 0.334885 2.465553
v 0.004272 0.334885 2.373804
v 0.003179 -0.077044 2.324459
v 0.004272 0.200646 2.514715
v 0.004272 0.334885 2.465553
v 0.004272 0.308061 2.486836
v 0.003179 -0.155719 2.324459
v 0.003179 -0.155719 2.397153
v 0.003179 -0.123698 2.427856
v 0.004272 0.108565 2.514715
v 0.073649 0.334885 2.373804
v 0.111370 0.304704 2.373804
v 0.126995 0.167326 2.489761
v 0.087687 0.200646 2.514715
v 0.126995 0.128234 2.489761
v 0.087687 0.108565 2.514715
v 0.073649 0.334885 2.449958
v 0.126995 0.231842 2.483827
v 0.111370 0.304704 2.459823
v 0.078035 0.269155 2.499623
v 0.065247 -0.044976 2.464252
v 0.094496 -0.052677 2.430458
v 0.027774 -0.123698 2.427856
v 0.054802 -0.155719 2.397153
v 0.058065 -0.089989 2.449459
v 0.082870 -0.125539 2.406913
v 0.053398 0.308061 2.486836
v 0.052956 0.334885 2.465553
v -0.004270 0.334885 2.373804
v -0.003177 -0.077044 2.324459
v -0.004270 0.200646 2.514715
v -0.004270 0.334885 2.465553
v -0.004270 0.308061 2.486836
v -0.003177 -0.155719 2.324459
v -0.003177 -0.155719 2.397153
v -0.003177 -0.123698 2.427856
v -0.004270 0.108565 2.514715
v -0.054800 -0.155719 2.356082
v -0.021885 -0.155719 2.324459
v -0.094494 -0.052677 2.356038
v -0.084028 -0.043356 2.324459
v -0.071397 -0.102480 2.324459
v -0.082868 -0.125539 2.356072
v -0.126994 0.231842 2.355980
v -0.115647 0.243635 2.324459
v -0.055150 0.284134 2.324459
v -0.065007 0.315006 2.349012
v -0.102544 0.264676 2.324459
v -0.110698 0.291365 2.352765
v 0.004178 0.284134 2.324459
v 0.004272 0.315016 2.349025
v 0.021887 -0.155719 2.324459
v 0.054802 -0.155719 2.356082
v 0.084030 -0.043355 2.324459
v 0.094496 -0.052677 2.356038
v 0.082870 -0.125539 2.356072
v 0.071399 -0.102480 2.324459
v 0.115649 0.243635 2.324459
v 0.126995 0.231842 2.355980
v 0.055151 0.284134 2.324459
v 0.065009 0.315006 2.349012
v 0.102545 0.264676 2.324459
v 0.110699 0.291365 2.352765
v -0.004270 0.315016 2.349025
v -0.004177 0.284134 2.324459
vn 0.3562 0.3038 0.8836
vn 0.0765 0.3242 0.9429
vn 0.0876 0.3239 0.9420
vn 0.5525 0.2710 0.7882
vn 1.0000 -0.0000 -0.0000
vn 0.2439 0.9698 -0.0000
vn -0.2439 0.9698 -0.0000
vn -1.0000 -0.0000 -0.0000
vn -0.0000 -0.0000 -1.0000
vn -0.2439 -0.9698 -0.0000
vn -0.4539 -0.8911 -0.0000
vn -0.9477 -0.3192 -0.0000
vn -0.4539 0.8911 -0.0000
vn -0.9477 0.3192 -0.0000
vn 0.2439 -0.9698 -0.0000
vn 0.4539 -0.8911 -0.0000
vn 0.9477 -0.3192 -0.0000
vn 0.4539 0.8911 -0.0000
vn 0.9477 0.3192 -0.0000
vn -0.0765 0.3242 0.9429
vn -0.3562 0.3038 0.8836
vn -0.5525 0.2710 0.7882
vn -0.0876 0.3239 0.9420
vn -0.6945 0.2340 0.6804
vn 0.6945 0.2340 0.6804
vn -0.0000 -0.0000 1.0000
vn 0.9201 -0.3620 0.1493
vn 0.8489 -0.4795 0.2223
vn -0.8489 -0.4795 0.2223
vn -0.9201 -0.3620 0.1493
vn -0.2088 -0.8224 0.5292
vn -0.7188 -0.5745 0.3916
vn -0.2052 -0.8231 0.5295
vn -0.8740 -0.3937 0.2848
vn 0.7188 -0.5745 0.3916
vn 0.2088 -0.8224 0.5292
vn 0.2052 -0.8231 0.5295
vn 0.8740 -0.3937 0.2848
vn 0.1414 0.9764 0.1633
vn -0.1414 0.9764 0.1633
vn -0.1443 0.9861 0.0822
vn 0.1443 0.9861 0.0822
vn 0.6824 0.7279 -0.0666
vn 0.1443 0.9855 -0.0894
vn 0.1410 0.9740 -0.1774
vn 0.6604 0.7388 -0.1346
vn -0.0000 -1.0000 -0.0000
vn -0.0000 -0.9977 0.0676
vn -0.6623 0.7390 0.1236
vn -0.6822 0.7286 0.0612
vn -0.8598 0.5036 0.0842
vn -0.8621 0.5050 0.0406
vn 0.6822 0.7286 0.0612
vn 0.6623 0.7390 0.1236
vn 0.8621 0.5050 0.0406
vn 0.8598 0.5036 0.0842
vn 0.8620 0.5049 -0.0441
vn -0.1443 0.9855 -0.0894
vn -0.8620 0.5049 -0.0441
vn -0.6824 0.7279 -0.0666
vn -0.0000 -0.9774 0.2112
vn -0.8592 0.5033 -0.0917
vn -0.6604 0.7388 -0.1346
vn 0.8592 0.5033 -0.0917
vn -0.1410 0.9740 -0.1774
vn -0.0000 -0.9581 0.2864
vn 0.1203 0.7315 0.6711
vn -0.1203 0.7315 0.6711
vn -0.0925 0.7359 0.6707
vn 0.0925 0.7359 0.6707
vn 0.3276 0.6810 0.6549
vn 0.5876 0.5621 0.5821
vn 0.5031 0.6090 0.6132
vn -0.0000 -0.6850 0.7286
vn -0.5876 0.5621 0.5821
vn -0.3276 0.6810 0.6549
vn -0.5031 0.6090 0.6132
vn -0.3712 -0.3584 0.8566
vn -0.3171 -0.4372 0.8416
vn -0.0439 -0.4319 0.9008
vn 0.0584 -0.3363 0.9399
vn 0.0296 -0.1703 0.9849
vn -0.3677 -0.1950 0.9093
vn -0.9769 0.2131 -0.0149
vn -0.3154 0.7262 -0.6109
vn -0.0000 0.7802 -0.6256
vn -0.0000 0.7058 -0.7084
vn -0.1889 0.6913 -0.6974
vn -0.3420 0.9397 -0.0000
vn -0.3617 0.9323 -0.0000
vn -0.6247 0.7808 -0.0000
vn -0.9917 -0.1252 -0.0309
vn -0.9933 -0.1034 -0.0515
vn -0.9911 -0.1303 -0.0260
vn -0.0000 -0.9626 0.2709
vn -0.9875 -0.1576 -0.0000
vn 1.0000 -0.0021 -0.0018
vn -0.3942 0.6412 -0.6584
vn -0.4598 0.6720 -0.5805
vn -0.5537 0.0299 0.8322
vn -0.5909 -0.1355 0.7953
vn -0.3160 0.1399 0.9384
vn -0.2804 0.3848 0.8794
vn -0.4624 0.4164 0.7828
vn -0.5391 0.2075 0.8163
vn -0.6611 -0.3277 0.6750
vn -0.5091 -0.4655 0.7239
vn -0.2641 -0.6086 0.7483
vn -0.1429 0.4751 0.8682
vn -0.2148 0.6067 0.7654
vn -0.3914 0.5712 0.7214
vn 0.0082 0.4438 0.8961
vn -0.0000 0.6216 0.7834
vn -0.0000 -0.6921 0.7218
vn 0.0081 0.1242 0.9922
vn -0.0000 1.0000 -0.0000
vn 0.7323 -0.6810 -0.0000
vn 0.3712 -0.3584 0.8566
vn 0.3677 -0.1950 0.9093
vn -0.0296 -0.1703 0.9849
vn -0.0584 -0.3363 0.9399
vn 0.0439 -0.4319 0.9008
vn 0.3171 -0.4372 0.8416
vn 0.9769 0.2131 -0.0149
vn 0.3154 0.7262 -0.6109
vn 0.1889 0.6913 -0.6974
vn -0.0000 0.7059 -0.7084
vn 0.3420 0.9397 -0.0000
vn 0.6247 0.7808 -0.0000
vn 0.3617 0.9323 -0.0000
vn 0.9917 -0.1252 -0.0309
vn 0.9911 -0.1303 -0.0260
vn 0.9933 -0.1034 -0.0515
vn 0.9875 -0.1576 -0.0000
vn -1.0000 -0.0021 -0.0018
vn 0.4598 0.6720 -0.5805
vn 0.3942 0.6412 -0.6584
vn 0.5537 0.0299 0.8322
vn 0.3160 0.1399 0.9384
vn 0.5909 -0.1355 0.7953
vn 0.5391 0.2075 0.8163
vn 0.4624 0.4164 0.7828
vn 0.2804 0.3848 0.8794
vn 0.5091 -0.4655 0.7239
vn 0.6611 -0.3276 0.6750
vn 0.2641 -0.6086 0.7483
vn 0.3914 0.5712 0.7214
vn 0.2148 0.6067 0.7654
vn 0.1429 0.4751 0.8682
vn -0.0082 0.4438 0.8961
vn -0.0081 0.1242 0.9922
vn -0.9167 -0.1338 -0.3764
vn -0.9022 -0.1659 -0.3982
vn -0.9161 -0.1353 -0.3774
vn -0.5823 -0.5416 -0.6062
vn -0.9287 -0.1042 -0.3559
vn -0.1155 0.6176 -0.7780
vn -0.3038 0.5911 -0.7472
vn -0.0000 0.6225 -0.7826
vn -0.8799 0.3066 -0.3631
vn 0.9161 -0.1353 -0.3774
vn 0.9022 -0.1659 -0.3982
vn 0.9167 -0.1338 -0.3764
vn 0.5823 -0.5416 -0.6062
vn 0.9287 -0.1042 -0.3559
vn 0.3038 0.5911 -0.7472
vn 0.1155 0.6176 -0.7780
vn 0.8799 0.3066 -0.3631
vn -0.7323 -0.6810 -0.0000
vt 0.625000 0.750000
vt 0.718538 0.750000
vt 0.414152 0.500000
vt 0.585848 0.500000
vt 0.585848 0.750000
vt 0.414152 0.750000
vt 0.718538 0.500000
vt 0.781462 0.500000
vt 0.781462 0.750000
vt 0.414152 0.000000
vt 0.585848 0.000000
vt 0.585848 0.250000
vt 0.414152 0.250000
vt 0.375000 0.343538
vt 0.386467 0.277397
vt 0.414152 0.250000
vt 0.585848 0.250000
vt 0.613533 0.277397
vt 0.625000 0.343538
vt 0.625000 0.406462
vt 0.613533 0.472603
vt 0.585848 0.500000
vt 0.414152 0.500000
vt 0.386467 0.472603
vt 0.375000 0.406462
vt 0.218538 0.500000
vt 0.218538 0.750000
vt 0.125000 0.750000
vt 0.125000 0.500000
vt 0.375000 0.250000
vt 0.375000 0.000000
vt 0.875000 0.500000
vt 0.875000 0.750000
vt 0.625000 0.000000
vt 0.625000 0.250000
vt 0.281462 0.750000
vt 0.281462 0.500000
vt 0.375000 0.500000
vt 0.375000 0.750000
vt 0.625000 0.500000
vt 0.401297 0.847082
vt 0.410084 0.795627
vt 0.461371 0.750000
vt 0.585848 0.750000
vt 0.613533 0.777397
vt 0.625000 0.843538
vt 0.625000 0.906462
vt 0.613533 0.972603
vt 0.585848 1.000000
vt 0.461371 1.000000
vt 0.410084 0.954373
vt 0.401297 0.902918
vt 0.461371 0.000000
vt 0.461371 0.750000
vt 0.213653 0.750000
vt 0.140886 0.750000
vt 0.384903 0.000000
vt 0.359114 0.750000
vt 0.286347 0.750000
vt 0.384903 0.750000
vt 0.277919 0.750000
vt 0.222082 0.750000
vt 0.707477 0.500000
vt 0.792523 0.500000
vt 0.792523 0.750000
vt 0.707477 0.750000
vt 0.542523 0.500000
vt 0.542523 0.750000
vt 0.542523 0.000000
vt 0.542523 0.250000
vt 0.600843 0.274157
vt 0.625000 0.332477
vt 0.625000 0.417523
vt 0.600843 0.475843
vt 0.460324 0.750000
vt 0.416547 0.750000
vt 0.375000 0.750000
vt 0.460324 0.750000
vt 0.560801 0.800218
vt 0.576608 0.838122
vt 0.576608 0.911878
vt 0.560801 0.949782
vt 0.460324 1.000000
vt 0.416547 1.000000
vt 0.125000 0.750000
vt 0.625000 0.832477
vt 0.625000 0.917523
vt 0.593814 0.771245
vt 0.600843 0.774157
vt 0.624254 0.830676
vt 0.593814 0.978755
vt 0.542523 1.000000
vt 0.624254 0.919324
vt 0.600843 0.975843
vt 0.416547 0.000000
vt 0.460324 0.000000
vt 0.163690 0.671759
vt 0.173191 0.648822
vt 0.254054 0.615327
vt 0.249536 0.615327
vt 0.254204 0.750000
vt 0.163690 0.750000
vt 0.625000 0.096704
vt 0.625000 0.218500
vt 0.602612 0.231930
vt 0.572492 0.208694
vt 0.572492 0.041156
vt 0.625000 0.302508
vt 0.625000 0.379204
vt 0.604237 0.379535
vt 0.604226 0.306640
vt 0.822492 0.650138
vt 0.822492 0.533535
vt 0.875000 0.531500
vt 0.875000 0.653296
vt 0.427508 0.120392
vt 0.521051 0.034810
vt 0.541448 0.034124
vt 0.572492 0.208694
vt 0.427508 0.211388
vt 0.177508 0.535272
vt 0.221049 0.500000
vt 0.254204 0.500000
vt 0.252895 0.580629
vt 0.177508 0.581082
vt 0.000000 0.000000
vt 0.427508 0.211388
vt 0.375000 0.217827
vt 0.375000 0.166083
vt 0.553234 0.094231
vt 0.515208 0.094231
vt 0.419294 0.136328
vt 0.406071 0.151208
vt 0.406071 0.186440
vt 0.438560 0.186440
vt 0.579158 0.186440
vt 0.600463 0.174534
vt 0.608668 0.162525
vt 0.608668 0.118058
vt 0.597591 0.107743
vt 0.604226 0.306640
vt 0.593790 0.258822
vt 0.609621 0.265379
vt 0.509673 0.000000
vt 0.568106 0.000000
vt 0.577649 0.980255
vt 0.593819 0.951809
vt 0.609621 0.984621
vt 0.592526 0.991702
vt 0.389744 0.119929
vt 0.422182 0.087491
vt 0.177508 0.615327
vt 0.143747 0.615327
vt 0.125000 0.583917
vt 0.125000 0.735666
vt 0.125000 0.667835
vt 0.569403 0.001297
vt 0.612275 0.903945
vt 0.625000 0.904954
vt 0.625000 0.947492
vt 0.615189 0.971177
vt 0.750324 0.693106
vt 0.748188 0.674016
vt 0.779954 0.674016
vt 0.745946 0.693106
vt 0.573110 0.860862
vt 0.612275 0.872685
vt 0.568106 0.961310
vt 0.375000 0.346049
vt 0.401396 0.281099
vt 0.431078 0.270207
vt 0.561074 0.259102
vt 0.564687 0.263212
vt 0.569973 0.312753
vt 0.569053 0.379814
vt 0.413208 0.379297
vt 0.375000 0.379204
vt 0.745796 0.533535
vt 0.509673 0.870796
vt 0.568106 0.870796
vt 0.509673 0.961310
vt 0.125000 0.532173
vt 0.572492 0.208694
vt 0.602613 0.231930
vt 0.604226 0.306640
vt 0.604237 0.379535
vt 0.427508 0.211387
vt 0.572492 0.208694
vt 0.177508 0.535272
vt 0.600463 0.174534
vt 0.579158 0.186440
vt 0.604226 0.306640
vt 0.593790 0.258822
vt 0.569054 0.379814
vt 0.569972 0.312753
vt 0.561074 0.259102
vt 0.431078 0.270207
vt 0.401396 0.281099
vt 0.426505 0.250000
vt 0.383897 0.250000
vt 0.375000 0.302508
vt 0.390379 0.265379
vt 0.426505 0.250000
s 1
f 18/1/1 17/2/2 34/2/3 35/1/4
f 19/3/5 23/4/5 16/5/5 14/6/5
f 22/7/6 11/8/7 4/9/7 17/2/6
f 1/10/8 5/11/8 10/12/8 8/13/8
f 7/14/9 9/15/9 8/16/9 10/17/9 12/18/9 11/19/9 22/20/9 24/21/9 23/22/9 19/23/9 21/24/9 20/25/9
f 7/26/10 2/27/10 3/28/11 9/29/11
f 9/30/12 3/31/12 1/10/12 8/13/12
f 4/9/7 11/8/7 12/32/13 6/33/13
f 6/34/14 12/35/14 10/12/14 5/11/14
f 13/36/15 20/37/15 21/38/16 15/39/16
f 15/39/17 21/38/17 19/3/17 14/6/17
f 22/7/6 17/2/6 18/1/18 24/40/18
f 24/40/19 18/1/19 16/5/19 23/4/19
f 7/26/10 20/37/15 13/36/15 2/27/10
f 32/36/15 31/39/16 49/39/16 52/36/15
f 5/11/8 1/10/8 27/10/8 30/11/8
f 4/9/20 6/33/21 28/33/22 29/9/23
f 13/36/15 15/39/16 31/39/16 32/36/15
f 6/34/21 5/11/24 30/11/24 28/34/22
f 15/39/17 14/6/17 33/6/17 31/39/17
f 14/6/5 16/5/5 36/5/5 33/6/5
f 1/10/12 3/31/12 26/31/12 27/10/12
f 2/27/10 13/36/15 32/36/15 25/27/10
f 3/28/11 2/27/10 25/27/10 26/28/11
f 16/5/25 18/1/1 35/1/4 36/5/25
f 17/2/2 4/9/20 29/9/23 34/2/3
f 25/27/10 32/36/15 52/36/15 43/27/10
f 35/1/18 34/2/6 40/2/6 41/1/18
f 28/34/14 30/11/14 39/11/14 37/34/14
f 51/41/26 50/42/26 53/43/26 42/44/26 41/45/26 40/46/26 38/47/26 37/48/26 39/49/26 48/50/26 45/51/26 44/52/26
f 36/5/19 35/1/19 41/1/19 42/5/19
f 31/39/17 33/6/17 54/6/27 49/39/28
f 34/2/6 29/9/7 38/9/7 40/2/6
f 30/11/8 27/10/8 47/10/8 48/53/8 39/11/8
f 27/10/12 26/31/12 46/31/29 47/10/30
f 33/6/5 36/5/5 42/5/5 53/54/5 54/6/5
f 29/9/7 28/33/13 37/33/13 38/9/7
f 44/55/31 45/56/32 46/28/29 43/27/33
f 45/57/32 48/10/34 47/10/30 46/31/29
f 50/58/35 51/59/36 52/36/37 49/39/28
f 53/6/38 50/60/35 49/39/28 54/6/27
f 51/61/36 44/62/31 43/27/33 52/36/37
f 26/28/11 25/27/10 43/27/10 46/28/11
f 72/63/39 67/64/40 63/65/41 70/66/42
f 61/38/5 73/67/5 69/68/5 59/39/5
f 77/1/43 76/66/44 84/66/45 87/1/46
f 55/31/8 64/69/8 66/70/8 57/30/8
f 57/29/47 61/38/47 59/39/48 55/28/48
f 57/30/9 66/70/9 68/71/9 67/72/9 72/73/9 74/74/9 73/67/9 61/38/9
f 63/65/41 67/64/40 68/32/49 65/33/50
f 65/34/50 68/35/49 66/70/51 64/69/52
f 72/63/39 70/66/42 71/1/53 74/40/54
f 74/40/54 71/1/53 69/68/55 73/67/56
f 69/68/55 71/1/53 77/1/43 78/68/57
f 70/66/42 63/65/41 56/65/58 76/66/44
f 65/34/50 64/69/52 75/69/59 58/34/60
f 63/65/41 65/33/50 58/33/60 56/65/58
f 55/28/48 59/39/48 60/39/61 62/28/61
f 71/1/53 70/66/42 76/66/44 77/1/43
f 64/69/8 55/31/8 62/31/8 75/69/8
f 59/39/5 69/68/5 78/68/5 60/39/5
f 58/34/60 75/69/59 80/69/62 94/34/63
f 78/68/57 77/1/43 87/1/46 89/68/64
f 56/65/58 58/33/60 94/33/63 85/65/65
f 60/39/5 78/68/5 89/68/5 90/75/5 91/76/5 92/77/5
f 91/76/26 90/78/26 88/79/26 83/80/26 86/81/26 93/82/26 79/83/26 82/84/26
f 62/28/61 60/39/61 92/39/66 81/85/66
f 76/66/44 56/65/58 85/65/65 84/66/45
f 84/86/67 85/87/68 86/81/69 83/80/70
f 88/79/71 90/78/72 89/68/72 87/88/73
f 83/80/70 88/79/71 87/89/73 84/90/67
f 81/85/74 92/39/74 91/39/74 82/28/74
f 79/83/75 93/82/76 94/91/77 80/92/75
f 93/82/76 86/81/69 85/93/68 94/94/77
f 75/69/8 62/31/8 81/31/8 82/95/8 79/96/8 80/69/8
f 105/97/78 109/98/79 107/99/80 120/100/81 121/101/82 100/102/83
f 103/103/84 96/104/84 160/105/84 155/106/84 102/107/84
f 95/108/85 113/109/86 162/110/87 158/111/88
f 101/112/89 95/113/90 96/114/91 103/115/91
f 106/116/92 99/117/93 97/118/93 102/107/93 155/119/93 151/120/94
f 149/121/95 150/122/95 118/123/95 119/124/95 120/100/95 107/99/95 108/125/95
f 119/126/47 108/126/47 149/126/47 150/126/47 118/126/47
f 106/116/92 151/127/94 154/128/96 110/129/96
f 115/130/97 121/131/97 120/132/97 119/133/97 118/134/97 114/135/97 161/136/97 162/137/97 113/138/97 116/139/97 117/140/97
f 158/141/88 160/142/98 96/143/99 95/108/85
f 97/118/100 99/117/101 100/144/83 98/145/102
f 98/146/102 104/147/103 103/148/104 102/149/105
f 109/150/79 105/151/78 106/116/106 110/129/107
f 107/152/80 109/153/79 110/154/107 108/125/108
f 105/97/78 100/102/83 99/155/101 106/156/106
f 98/157/102 102/107/105 97/118/100
f 104/147/103 111/158/109 112/159/110 101/160/111 103/161/104
f 117/162/112 116/163/113 112/164/110 111/165/109
f 120/126/114 107/126/114 108/126/114 119/126/114
f 115/166/115 117/167/112 111/158/109 104/147/103 98/168/102
f 150/169/9 153/170/9 152/171/9 156/172/9 159/173/9 157/174/9 161/175/9 114/176/9 118/177/9
f 116/163/116 113/178/116 95/113/90 101/112/89 112/164/116
f 121/179/82 115/180/115 98/168/102 100/181/83
f 137/154/117 135/125/117 164/121/117 167/182/117
f 132/97/118 127/102/119 148/101/120 147/100/121 134/99/122 136/98/123
f 130/103/124 129/107/124 170/183/124 174/184/124 123/104/124
f 122/108/125 172/185/126 175/186/127 140/109/86
f 128/112/128 130/115/129 123/114/129 122/113/130
f 133/116/131 166/187/132 170/188/133 129/107/133 124/118/133 126/117/133
f 163/122/95 164/189/95 135/125/95 134/99/95 147/100/95 146/124/95 145/123/95
f 146/126/47 145/126/47 163/126/47 164/126/47 135/126/47
f 133/116/131 137/129/134 167/128/134 166/127/132
f 142/130/135 144/140/135 143/139/135 140/138/135 175/190/135 176/191/135 141/135/135 145/134/135 146/133/135 147/132/135 148/131/135
f 172/192/126 122/108/125 123/143/136 174/193/137
f 124/118/138 125/145/139 127/144/119 126/117/140
f 125/146/139 129/149/141 130/148/142 131/147/143
f 136/150/123 137/129/144 133/116/145 132/151/118
f 134/152/122 135/125/146 137/154/144 136/153/123
f 132/97/118 133/156/145 126/155/140 127/102/119
f 125/157/139 124/118/138 129/107/141
f 131/147/143 130/161/142 128/160/147 139/159/148 138/158/149
f 144/162/150 138/165/149 139/164/148 143/163/113
f 147/126/114 146/126/114 135/126/114 134/126/114
f 142/166/151 125/168/139 131/147/143 138/158/149 144/167/150
f 163/169/9 145/177/9 141/176/9 176/194/9 171/195/9 173/173/9 169/196/9 165/197/9 168/198/9
f 143/163/116 139/164/116 128/112/128 122/113/130 140/178/116
f 148/179/120 127/181/119 125/168/139 142/180/151
f 152/199/152 153/200/153 154/128/153 151/127/154
f 153/170/155 150/169/155 149/201/155 154/202/155
f 156/172/156 152/171/152 151/120/154 155/119/156
f 157/174/157 159/173/158 160/142/98 158/141/88
f 161/175/159 157/174/157 158/111/88 162/110/87
f 155/106/160 160/105/160 159/173/160 156/172/160
f 166/127/161 167/128/162 168/200/162 165/203/163
f 167/202/164 164/201/164 163/169/164 168/198/164
f 170/188/165 166/187/161 165/197/163 169/196/165
f 172/192/126 174/193/137 173/173/166 171/195/167
f 175/186/127 172/185/126 171/195/167 176/194/159
f 169/196/168 173/173/168 174/184/168 170/183/168
f 110/154/169 154/182/169 149/121/169 108/125/169
