# Blender 4.4.3
# www.blender.org
mtllib Stock11.mtl
o Cube.026
v -0.093380 0.163059 1.447414
v 0.093380 0.163059 1.447414
v -0.093380 0.163059 2.050462
v -0.093380 0.207751 2.100725
v -0.093380 0.176149 2.083823
v 0.093380 0.207751 2.100725
v 0.093380 0.163059 2.050462
v 0.093380 0.176149 2.083823
v -0.042960 0.323708 2.114377
v -0.093380 0.255643 2.106363
v -0.078612 0.303772 2.112030
v -0.093380 0.358753 1.447414
v -0.042960 0.427937 1.447414
v -0.078612 0.407674 1.447414
v 0.093380 0.255643 2.106363
v 0.042960 0.323708 2.114377
v 0.078612 0.303772 2.112030
v 0.042960 0.427937 1.447414
v 0.093380 0.358753 1.447414
v 0.078612 0.407674 1.447414
v -0.042960 0.367298 1.950091
v -0.078612 0.347283 1.948308
v -0.093380 0.298963 1.944003
v 0.042960 0.367298 1.950091
v 0.078612 0.347283 1.948308
v 0.093380 0.298963 1.944003
v 0.093380 0.351534 1.384356
v -0.093380 0.351534 1.384356
v -0.042960 0.432394 1.384356
v -0.078612 0.412131 1.384356
v -0.093380 0.363210 1.384356
v 0.078612 0.412131 1.384356
v 0.042960 0.432394 1.384356
v 0.093380 0.363210 1.384356
v 0.087594 -0.012737 1.395707
v 0.087594 0.030729 1.388043
v 0.107402 -0.011818 1.400920
v 0.107402 0.031648 1.393256
v 0.121903 -0.009306 1.415163
v 0.121903 0.034159 1.407499
v 0.127211 -0.005876 1.434619
v 0.127211 0.037590 1.426955
v 0.121903 -0.002445 1.454075
v 0.121903 0.041020 1.446411
v 0.107402 0.000066 1.468317
v 0.107402 0.043532 1.460653
v 0.087594 0.000985 1.473531
v 0.087594 0.044451 1.465866
v 0.067786 0.000066 1.468317
v 0.067786 0.043532 1.460653
v 0.053285 -0.002445 1.454075
v 0.053285 0.041020 1.446411
v 0.047977 -0.005876 1.434619
v 0.047977 0.037590 1.426955
v 0.053285 -0.009306 1.415163
v 0.053285 0.034159 1.407499
v 0.067786 -0.011818 1.400920
v 0.067786 0.031648 1.393256
v 0.087594 0.122750 1.371817
v 0.087594 0.166215 1.364153
v 0.107402 0.123669 1.377030
v 0.107402 0.167135 1.369366
v 0.121903 0.126180 1.391273
v 0.121903 0.169646 1.383609
v 0.127211 0.129611 1.410729
v 0.127211 0.173077 1.403065
v 0.121903 0.133041 1.430185
v 0.121903 0.176507 1.422520
v 0.107402 0.135553 1.444427
v 0.107402 0.179018 1.436763
v 0.087594 0.136472 1.449640
v 0.087594 0.179938 1.441976
v 0.067786 0.135553 1.444427
v 0.067786 0.179018 1.436763
v 0.053285 0.133041 1.430185
v 0.053285 0.176507 1.422520
v 0.047977 0.129611 1.410729
v 0.047977 0.173077 1.403065
v 0.053285 0.126180 1.391273
v 0.053285 0.169646 1.383609
v 0.067786 0.123669 1.377030
v 0.067786 0.167135 1.369366
v 0.087594 0.258897 1.347811
v 0.087594 0.360440 1.329906
v 0.107402 0.259816 1.353024
v 0.107402 0.361359 1.335119
v 0.121903 0.262327 1.367267
v 0.121903 0.363870 1.349362
v 0.127211 0.265758 1.386722
v 0.127211 0.367301 1.368818
v 0.121903 0.269189 1.406178
v 0.121903 0.370732 1.388273
v 0.107402 0.271700 1.420421
v 0.107402 0.373243 1.402516
v 0.087594 0.272619 1.425634
v 0.087594 0.374162 1.407729
v 0.067786 0.271700 1.420421
v 0.067786 0.373243 1.402516
v 0.053285 0.269189 1.406178
v 0.053285 0.370732 1.388273
v 0.047977 0.265758 1.386722
v 0.047977 0.367301 1.368818
v 0.053285 0.262327 1.367267
v 0.053285 0.363870 1.349362
v 0.067786 0.259816 1.353024
v 0.067786 0.361359 1.335119
v -0.092843 -0.056504 2.317507
v 0.092843 -0.056504 2.317507
v -0.033735 -0.443418 2.317507
v -0.092843 -0.377231 2.317507
v -0.092843 0.264223 2.317507
v -0.033735 0.330410 2.317507
v 0.092843 -0.377231 2.317507
v 0.033735 -0.443418 2.317507
v 0.033735 0.330410 2.317507
v 0.092843 0.264223 2.317507
v -0.092843 -0.393256 2.377435
v -0.033735 -0.456382 2.394257
v -0.092843 -0.273412 2.410277
v -0.033735 -0.433205 2.420809
v -0.033735 -0.451581 2.413796
v -0.033735 0.320197 2.420809
v -0.092843 0.160404 2.410277
v -0.092843 0.280248 2.377435
v -0.033735 0.343374 2.394257
v -0.033735 0.338573 2.413796
v 0.033735 -0.433205 2.420809
v 0.092843 -0.273412 2.410277
v 0.092843 -0.393256 2.377435
v 0.033735 -0.456382 2.394257
v 0.033735 -0.451581 2.413796
v 0.092843 0.280248 2.377435
v 0.033735 0.343374 2.394257
v 0.092843 0.160404 2.410277
v 0.033735 0.320197 2.420809
v 0.033735 0.338573 2.413796
v -0.092843 -0.241470 2.408171
v -0.092843 0.128462 2.408171
v -0.092843 -0.056504 2.317512
v -0.092843 -0.056504 2.394543
v 0.092843 0.128462 2.408171
v 0.092843 -0.241470 2.408171
v 0.092843 -0.056504 2.317512
v 0.092843 -0.056504 2.394543
vn -1.0000 -0.0000 -0.0000
vn -0.9910 0.1296 0.0345
vn -0.9883 0.1496 0.0295
vn -0.9891 0.1466 0.0142
vn 1.0000 -0.0000 -0.0000
vn 0.9891 0.1466 0.0142
vn 0.9883 0.1496 0.0295
vn 0.9910 0.1296 0.0345
vn -0.4922 0.8665 0.0834
vn -0.2595 0.9614 0.0916
vn -0.2584 0.9636 0.0681
vn -0.4932 0.8678 0.0613
vn -0.0000 -0.2995 0.9541
vn -0.0000 -0.1169 0.9931
vn -0.0000 -0.9826 0.1859
vn -0.0000 -0.9309 0.3653
vn -0.0000 -0.4716 0.8818
vn -0.0000 -1.0000 -0.0000
vn -0.2565 0.9494 0.1815
vn -0.4895 0.8560 0.1661
vn -0.9564 0.2871 0.0541
vn -0.9569 0.2890 0.0272
vn 0.2565 0.9494 0.1815
vn 0.2612 0.9330 0.2476
vn 0.4862 0.8446 0.2243
vn 0.4895 0.8560 0.1661
vn 0.9564 0.2871 0.0541
vn 0.9556 0.2848 0.0758
vn -0.2612 0.9330 0.2476
vn 0.2595 0.9614 0.0916
vn 0.9569 0.2890 0.0272
vn 0.4922 0.8665 0.0834
vn -0.9556 0.2848 0.0758
vn -0.4862 0.8446 0.2243
vn -0.0000 -0.1607 -0.9870
vn -0.0000 -0.0000 -1.0000
vn 0.9885 0.1507 0.0107
vn 0.9571 0.2889 0.0204
vn -0.9885 0.1507 0.0107
vn 0.4932 0.8678 0.0613
vn 0.2584 0.9636 0.0681
vn -0.9571 0.2889 0.0204
vn -0.0000 -0.3173 -0.9483
vn -0.0000 -0.1736 -0.9848
vn 0.5091 -0.1495 -0.8476
vn 0.7062 -0.1229 -0.6973
vn 0.9658 -0.0451 -0.2555
vn 0.9658 0.0451 0.2555
vn 0.7062 0.1229 0.6973
vn 0.5091 0.1495 0.8476
vn -0.0000 0.1736 0.9848
vn -0.5091 0.1495 0.8476
vn -0.7062 0.1229 0.6973
vn -0.9658 0.0451 0.2555
vn -0.9658 -0.0451 -0.2555
vn -0.0000 0.9848 -0.1736
vn -0.7062 -0.1229 -0.6973
vn -0.5091 -0.1495 -0.8476
vn -0.0000 -0.9848 0.1736
vn 0.7062 -0.1230 -0.6973
vn 0.7062 0.1230 0.6973
vn -0.0000 0.9860 -0.1666
vn -0.0000 0.9993 0.0368
vn -0.0000 0.3566 0.9343
vn -0.0000 0.1227 0.9924
vn -0.0000 0.9711 0.2386
vn -0.0000 -0.9993 0.0368
vn -0.0000 -0.9711 0.2386
vn -0.0000 -0.9860 -0.1666
vn -0.0000 -0.3566 0.9343
vn -0.0000 -0.1227 0.9924
vn -0.7259 -0.6781 -0.1151
vn -0.7409 -0.6711 0.0244
vn -0.7415 -0.6516 0.1601
vn 0.7259 -0.6781 -0.1151
vn 0.7415 -0.6516 0.1601
vn 0.7409 -0.6711 0.0244
vn -0.6658 -0.2067 0.7169
vn 0.6658 -0.2067 0.7169
vn 0.7259 0.6781 -0.1151
vn 0.7409 0.6711 0.0244
vn 0.7415 0.6516 0.1601
vn -0.7259 0.6781 -0.1151
vn -0.7415 0.6516 0.1601
vn -0.7409 0.6711 0.0244
vn 0.6658 0.2067 0.7169
vn -0.6658 0.2067 0.7169
vn -0.7210 -0.6778 -0.1438
vn 0.7210 -0.6778 -0.1438
vn -0.7210 0.6778 -0.1438
vn 0.7210 0.6778 -0.1438
vn -0.0000 0.0658 0.9978
vn -0.0000 0.0696 0.9976
vn -0.0000 -0.0696 0.9976
vn -0.0000 -0.0000 1.0000
vn -0.0000 -0.0658 0.9978
vt 0.375000 0.017360
vt 0.394518 0.005017
vt 0.444550 0.000000
vt 0.519078 0.000000
vt 0.528151 0.060065
vt 0.556842 0.250000
vt 0.375000 0.250000
vt 0.375000 0.500000
vt 0.556842 0.500000
vt 0.528151 0.689935
vt 0.519078 0.750000
vt 0.444550 0.750000
vt 0.394518 0.744983
vt 0.375000 0.732640
vt 0.875000 0.501040
vt 0.807507 0.500000
vt 0.444550 0.750000
vt 0.593976 0.769768
vt 0.625000 0.817493
vt 0.625000 0.932507
vt 0.593976 0.980232
vt 0.519078 1.000000
vt 0.444550 1.000000
vt 0.125000 0.732640
vt 0.375000 0.732640
vt 0.375000 0.750000
vt 0.125000 0.750000
vt 0.375000 1.000000
vt 0.125000 0.500000
vt 0.807507 0.689935
vt 0.875000 0.690185
vt 0.625000 0.059815
vt 0.625000 0.248960
vt 0.692493 0.689935
vt 0.692493 0.750000
vt 0.625000 0.750000
vt 0.625000 0.690185
vt 0.807507 0.750000
vt 0.692493 0.500000
vt 0.625000 0.501040
vt 0.625000 0.000000
vt 0.875000 0.750000
vt 0.605037 0.269768
vt 0.625000 0.317493
vt 0.625000 0.432507
vt 0.605037 0.480232
vt 1.000000 0.500000
vt 1.000000 1.000000
vt 0.916667 1.000000
vt 0.916667 0.500000
vt 0.833333 1.000000
vt 0.833333 0.500000
vt 0.750000 1.000000
vt 0.750000 0.500000
vt 0.666667 1.000000
vt 0.666667 0.500000
vt 0.583333 1.000000
vt 0.583333 0.500000
vt 0.500000 1.000000
vt 0.500000 0.500000
vt 0.416667 1.000000
vt 0.416667 0.500000
vt 0.333333 1.000000
vt 0.333333 0.500000
vt 0.250000 1.000000
vt 0.250000 0.500000
vt 0.166667 1.000000
vt 0.166667 0.500000
vt 0.370000 0.457846
vt 0.250000 0.490000
vt 0.130000 0.457846
vt 0.042154 0.370000
vt 0.010000 0.250000
vt 0.042154 0.130000
vt 0.130000 0.042154
vt 0.250000 0.010000
vt 0.370000 0.042154
vt 0.457846 0.130000
vt 0.490000 0.250000
vt 0.457846 0.370000
vt 0.083333 1.000000
vt 0.083333 0.500000
vt 0.000000 1.000000
vt 0.000000 0.500000
vt 0.750000 0.490000
vt 0.870000 0.457846
vt 0.957846 0.370000
vt 0.990000 0.250000
vt 0.957846 0.130000
vt 0.870000 0.042154
vt 0.750000 0.010000
vt 0.630000 0.042154
vt 0.542154 0.130000
vt 0.510000 0.250000
vt 0.542154 0.370000
vt 0.630000 0.457846
vt 0.500000 0.500000
vt 0.603617 0.500000
vt 0.607740 0.613230
vt 0.567001 0.750000
vt 0.557134 0.750000
vt 0.500000 0.500017
vt 0.704581 0.500000
vt 0.795419 0.500000
vt 0.795419 0.682483
vt 0.704581 0.682483
vt 0.625000 0.829581
vt 0.625000 0.920419
vt 0.616359 0.920419
vt 0.616359 0.829581
vt 0.396383 0.500000
vt 0.500000 0.500017
vt 0.442866 0.750000
vt 0.432999 0.750000
vt 0.395846 0.684275
vt 0.795419 0.750000
vt 0.704581 0.750000
vt 0.204581 0.682483
vt 0.295419 0.682483
vt 0.295419 0.750000
vt 0.204581 0.750000
vt 0.204581 0.500000
vt 0.295419 0.500000
vt 0.500000 0.250000
vt 0.603617 0.250000
vt 0.625000 0.329581
vt 0.625000 0.420419
vt 0.375000 0.920419
vt 0.375000 0.829581
vt 0.383641 0.829581
vt 0.383641 0.920419
vt 0.500000 0.249983
vt 0.557134 0.000000
vt 0.567001 0.000000
vt 0.604154 0.065725
vt 0.392260 0.136770
vt 0.432999 0.000000
vt 0.442866 0.000000
vt 0.500000 0.249983
vt 0.396383 0.250000
vt 0.375000 0.329581
vt 0.375000 0.420419
vt 0.125000 0.730296
vt 0.375000 0.682483
vt 0.383641 1.000000
vt 0.383641 0.750000
vt 0.604154 0.684275
vt 0.625000 0.682483
vt 0.622451 0.729955
vt 0.607740 0.136770
vt 0.622451 0.020045
vt 0.625000 0.067517
vt 0.616359 0.750000
vt 0.616359 0.000000
vt 0.125000 0.649051
vt 0.625000 0.250000
vt 0.432999 0.750000
vt 0.442866 0.750000
vt 0.442866 1.000000
vt 0.432999 1.000000
vt 0.499863 0.000000
vt 0.500000 0.000000
vt 0.500137 0.750000
vt 0.443334 0.750000
vt 0.557134 1.000000
vt 0.500000 1.000000
vt 0.500000 0.750000
vt 0.567001 1.000000
s 1
f 3/1/1 5/2/1 4/3/1 10/4/2 23/5/3 12/6/4 1/7/1
f 2/8/5 19/9/6 26/10/7 15/11/8 6/12/5 8/13/5 7/14/5
f 14/15/9 13/16/10 29/16/11 30/15/12
f 6/17/13 15/11/14 17/18/14 16/19/14 9/20/14 11/21/14 10/22/14 4/23/13
f 3/24/15 7/25/15 8/26/16 5/27/16
f 5/28/17 8/26/17 6/17/13 4/23/13
f 1/29/18 2/8/18 7/25/15 3/24/15
f 21/30/19 13/16/10 14/15/9 22/31/20
f 22/32/21 14/33/22 12/6/4 23/5/3
f 24/34/23 16/35/24 17/36/25 25/37/26
f 25/37/27 17/36/28 15/11/8 26/10/7
f 24/34/23 21/30/19 9/38/29 16/35/24
f 18/39/30 13/16/10 21/30/19 24/34/23
f 20/40/31 25/37/27 26/10/7 19/9/6
f 18/39/30 24/34/23 25/37/26 20/40/32
f 11/41/33 22/32/21 23/5/3 10/4/2
f 9/38/29 21/30/19 22/31/20 11/42/34
f 28/7/35 31/6/36 30/43/36 29/44/36 33/45/36 32/46/36 34/9/36 27/8/35
f 20/40/31 19/9/6 34/9/37 32/40/38
f 1/7/1 12/6/4 31/6/39 28/7/1
f 18/39/30 20/40/32 32/40/40 33/39/41
f 12/6/4 14/33/22 30/33/42 31/6/39
f 13/16/10 18/39/30 33/39/41 29/16/11
f 2/8/43 1/29/43 28/29/35 27/8/35
f 19/9/6 2/8/5 27/8/5 34/9/37
f 35/47/44 36/48/44 38/49/45 37/50/45
f 37/50/45 38/49/45 40/51/46 39/52/46
f 39/52/47 40/51/47 42/53/47 41/54/47
f 41/54/48 42/53/48 44/55/48 43/56/48
f 43/56/49 44/55/49 46/57/50 45/58/50
f 45/58/50 46/57/50 48/59/51 47/60/51
f 47/60/51 48/59/51 50/61/52 49/62/52
f 49/62/52 50/61/52 52/63/53 51/64/53
f 51/64/54 52/63/54 54/65/54 53/66/54
f 53/66/55 54/65/55 56/67/55 55/68/55
f 38/69/56 36/70/56 58/71/56 56/72/56 54/73/56 52/74/56 50/75/56 48/76/56 46/77/56 44/78/56 42/79/56 40/80/56
f 55/68/57 56/67/57 58/81/58 57/82/58
f 57/82/58 58/81/58 36/83/44 35/84/44
f 35/85/59 37/86/59 39/87/59 41/88/59 43/89/59 45/90/59 47/91/59 49/92/59 51/93/59 53/94/59 55/95/59 57/96/59
f 59/47/44 60/48/44 62/49/45 61/50/45
f 61/50/45 62/49/45 64/51/60 63/52/60
f 63/52/47 64/51/47 66/53/47 65/54/47
f 65/54/48 66/53/48 68/55/48 67/56/48
f 67/56/61 68/55/61 70/57/50 69/58/50
f 69/58/50 70/57/50 72/59/51 71/60/51
f 71/60/51 72/59/51 74/61/52 73/62/52
f 73/62/52 74/61/52 76/63/53 75/64/53
f 75/64/54 76/63/54 78/65/54 77/66/54
f 77/66/55 78/65/55 80/67/55 79/68/55
f 62/69/56 60/70/56 82/71/56 80/72/56 78/73/56 76/74/56 74/75/56 72/76/56 70/77/56 68/78/56 66/79/56 64/80/56
f 79/68/57 80/67/57 82/81/58 81/82/58
f 81/82/58 82/81/58 60/83/44 59/84/44
f 59/85/59 61/86/59 63/87/59 65/88/59 67/89/59 69/90/59 71/91/59 73/92/59 75/93/59 77/94/59 79/95/59 81/96/59
f 83/47/44 84/48/44 86/49/45 85/50/45
f 85/50/45 86/49/45 88/51/60 87/52/60
f 87/52/47 88/51/47 90/53/47 89/54/47
f 89/54/48 90/53/48 92/55/48 91/56/48
f 91/56/49 92/55/49 94/57/50 93/58/50
f 93/58/50 94/57/50 96/59/51 95/60/51
f 95/60/51 96/59/51 98/61/52 97/62/52
f 97/62/52 98/61/52 100/63/53 99/64/53
f 99/64/54 100/63/54 102/65/54 101/66/54
f 101/66/55 102/65/55 104/67/55 103/68/55
f 86/69/56 84/70/56 106/71/56 104/72/56 102/73/56 100/74/56 98/75/56 96/76/56 94/77/56 92/78/56 90/79/56 88/80/56
f 103/68/57 104/67/57 106/81/58 105/82/58
f 105/82/58 106/81/58 84/83/44 83/84/44
f 83/85/59 85/86/59 87/87/59 89/88/59 91/89/59 93/90/59 95/91/59 97/92/59 99/93/59 101/94/59 103/95/59 105/96/59
f 108/97/5 116/98/5 132/99/5 134/100/5 141/101/5 143/102/5
f 115/103/62 112/104/62 125/105/63 133/106/63
f 136/107/64 126/108/64 122/109/65 135/110/65
f 113/111/5 108/97/5 143/112/5 142/113/5 128/114/5 129/115/5
f 133/106/63 125/105/63 126/116/66 136/117/66
f 118/118/67 130/119/67 131/120/68 121/121/68
f 109/122/69 114/123/69 130/119/67 118/118/67
f 107/124/36 111/125/36 112/126/36 115/127/36 116/98/36 108/97/36
f 121/128/70 131/129/70 127/130/71 120/131/71
f 139/132/1 138/133/1 123/134/1 124/135/1 111/125/1 107/124/1
f 117/136/1 119/137/1 137/138/1 139/139/1 107/124/1 110/140/1
f 109/141/36 110/140/36 107/124/36 108/97/36 113/111/36 114/142/36
f 117/143/72 118/118/73 121/121/74
f 129/144/75 131/120/76 130/119/77
f 119/145/78 117/145/78 121/128/78 120/131/78
f 129/146/79 128/146/79 127/130/79 131/129/79
f 132/147/80 133/148/81 136/149/82
f 124/150/83 126/151/84 125/152/85
f 134/100/86 132/99/86 136/149/86 135/153/86
f 124/150/87 123/134/87 122/154/87 126/151/87
f 109/122/88 118/118/73 117/155/72 110/29/88
f 113/111/89 129/115/75 130/119/77 114/123/89
f 125/152/85 112/156/90 111/125/90 124/135/83
f 132/147/80 116/98/91 115/103/91 133/106/81
f 127/130/71 128/157/92 142/158/93 137/159/93 119/160/92 120/131/71
f 137/138/1 140/161/1 139/139/1
f 140/161/1 138/162/1 139/139/1
f 141/101/5 144/163/5 143/112/5
f 144/163/5 142/164/5 143/112/5
f 141/101/94 138/165/94 140/166/95 144/167/95
f 144/167/95 140/166/95 137/159/93 142/158/93
f 141/101/94 134/100/96 135/110/65 122/109/65 123/168/96 138/165/94
