# Blender 4.4.3
# www.blender.org
mtllib Stock12.mtl
o Cube.007
v -0.086173 0.060023 2.010145
v -0.022243 -0.019763 1.988505
v -0.067449 0.003606 1.994843
v -0.022243 0.326678 2.082469
v -0.086173 0.246892 2.060828
v -0.067449 0.303309 2.076130
v -0.022243 -0.019763 1.443022
v -0.086173 0.060023 1.439997
v -0.067449 0.003606 1.442136
v -0.086173 0.246892 1.432913
v -0.022243 0.326678 1.429888
v -0.067449 0.303309 1.430774
v 0.022243 -0.019763 1.988505
v 0.086173 0.060023 2.010145
v 0.067449 0.003606 1.994843
v 0.086173 0.246892 2.060828
v 0.022243 0.326678 2.082469
v 0.067449 0.303309 2.076130
v 0.086173 0.060023 1.439997
v 0.022243 -0.019763 1.443022
v 0.067449 0.003606 1.442136
v 0.022243 0.326678 1.429888
v 0.086173 0.246892 1.432913
v 0.067449 0.303309 1.430774
v -0.078758 0.006987 2.328262
v 0.078758 0.006987 2.328262
v -0.078758 0.050255 2.082118
v -0.078758 0.097124 2.035263
v 0.078758 0.097124 2.035263
v 0.078758 0.050255 2.082118
v -0.078758 -0.360470 2.328262
v -0.020099 -0.427009 2.328262
v -0.061577 -0.407520 2.328262
v -0.020099 0.307445 2.328262
v -0.078758 0.240907 2.328262
v -0.061577 0.287957 2.328262
v -0.020099 0.307445 2.003183
v -0.078758 0.240907 2.003162
v -0.061577 0.287957 2.003177
v 0.020099 -0.427009 2.328262
v 0.078758 -0.360470 2.328262
v 0.061577 -0.407520 2.328262
v 0.078758 0.240907 2.328262
v 0.020099 0.307445 2.328262
v 0.061577 0.287957 2.328262
v 0.078758 0.240907 2.003162
v 0.020099 0.307445 2.003183
v 0.061577 0.287957 2.003177
v -0.078758 -0.321020 2.249932
v -0.020099 -0.312543 2.174587
v -0.020099 -0.367607 2.210789
v -0.061616 -0.323400 2.201221
v -0.053966 -0.359268 2.216324
v -0.078758 -0.360470 2.310498
v -0.020099 -0.418831 2.273600
v -0.061577 -0.400641 2.280777
v -0.078758 -0.351663 2.281350
v -0.053966 -0.394689 2.255957
v -0.020099 -0.402683 2.251239
v 0.078758 -0.360470 2.310498
v 0.020099 -0.418831 2.273600
v 0.061577 -0.400641 2.280777
v 0.078758 -0.321020 2.249932
v 0.020099 -0.367607 2.210789
v 0.020099 -0.312543 2.174587
v 0.053966 -0.359268 2.216324
v 0.061616 -0.323400 2.201221
v 0.078758 -0.351663 2.281350
v 0.053966 -0.394689 2.255957
v 0.020099 -0.402683 2.251239
v -0.078758 0.241075 1.463382
v -0.020099 0.307613 1.463402
v -0.061577 0.288125 1.463396
v 0.020099 0.307613 1.463402
v 0.078758 0.241075 1.463382
v 0.061577 0.288125 1.463396
v -0.020099 0.007155 1.463309
v -0.078758 0.065942 1.463327
v -0.061577 0.024373 1.463314
v 0.078758 0.065942 1.463327
v 0.020099 0.007155 1.463309
v 0.061577 0.024373 1.463314
v -0.078758 0.065460 2.014716
v -0.020099 0.007002 1.956220
v -0.061577 0.024124 1.973353
v -0.020099 -0.034310 2.025254
v -0.078758 0.027902 2.062470
v -0.061577 -0.016089 2.036155
v -0.020099 -0.005104 1.995854
v -0.078758 0.060791 2.029153
v -0.061577 0.014196 2.005607
v 0.078758 0.027902 2.062470
v 0.020099 -0.034310 2.025254
v 0.061577 -0.016089 2.036155
v 0.020099 0.007002 1.956220
v 0.078758 0.065460 2.014716
v 0.061577 0.024124 1.973353
v 0.020099 -0.005104 1.995854
v 0.078758 0.060791 2.029153
v 0.061577 0.014196 2.005607
v 0.087594 0.166900 1.369163
v 0.087594 0.259978 1.352751
v 0.104869 0.167702 1.373710
v 0.104869 0.260780 1.357298
v 0.117515 0.169892 1.386131
v 0.117515 0.262970 1.369719
v 0.122144 0.172884 1.403099
v 0.122144 0.265962 1.386687
v 0.117515 0.175876 1.420066
v 0.117515 0.268954 1.403654
v 0.104869 0.178066 1.432487
v 0.104869 0.271144 1.416075
v 0.087594 0.178867 1.437034
v 0.087594 0.271945 1.420622
v 0.070319 0.178066 1.432487
v 0.070319 0.271144 1.416075
v 0.057673 0.175876 1.420066
v 0.057673 0.268954 1.403654
v 0.053044 0.172884 1.403099
v 0.053044 0.265962 1.386687
v 0.057673 0.169892 1.386131
v 0.057673 0.262970 1.369719
v 0.070319 0.167702 1.373710
v 0.070319 0.260780 1.357298
v 0.094254 0.285670 1.498456
v 0.094254 0.192592 1.514868
v 0.076979 0.193393 1.519414
v 0.076979 0.286471 1.503002
v 0.059704 0.192592 1.514868
v 0.059704 0.285670 1.498456
v 0.087594 0.031094 1.393110
v 0.087594 0.124172 1.376698
v 0.104869 0.031895 1.397656
v 0.104869 0.124973 1.381244
v 0.117515 0.034085 1.410077
v 0.117515 0.127163 1.393665
v 0.122144 0.037077 1.427045
v 0.122144 0.130155 1.410633
v 0.117515 0.040069 1.444013
v 0.117515 0.133147 1.427601
v 0.104869 0.042259 1.456434
v 0.104869 0.135337 1.440022
v 0.087594 0.043061 1.460980
v 0.087594 0.136139 1.444568
v 0.070319 0.042259 1.456434
v 0.070319 0.135337 1.440022
v 0.057673 0.040069 1.444013
v 0.057673 0.133147 1.427601
v 0.053044 0.037077 1.427045
v 0.053044 0.130155 1.410633
v 0.057673 0.034085 1.410077
v 0.057673 0.127163 1.393665
v 0.070319 0.031895 1.397656
v 0.070319 0.124973 1.381244
v 0.094254 0.149863 1.522402
v 0.094254 0.056785 1.538814
v 0.076979 0.057587 1.543361
v 0.076979 0.150665 1.526948
v 0.059704 0.056785 1.538814
v 0.059704 0.149863 1.522402
v -0.082095 0.059322 1.331376
v -0.020663 -0.016218 1.331376
v -0.064102 0.005907 1.331376
v -0.020663 0.466132 1.369930
v -0.082095 0.390591 1.369930
v -0.064102 0.444006 1.369930
v -0.020663 -0.016218 1.279519
v -0.082095 0.059322 1.279519
v -0.064102 0.005907 1.279519
v -0.082095 0.390591 1.279519
v -0.020663 0.466132 1.279519
v -0.064102 0.444006 1.279519
v 0.020663 -0.016218 1.331376
v 0.082095 0.059322 1.331376
v 0.064102 0.005907 1.331376
v 0.082095 0.390591 1.369930
v 0.020663 0.466132 1.369930
v 0.064102 0.444006 1.369930
v 0.082095 0.059322 1.279519
v 0.020663 -0.016218 1.279519
v 0.064102 0.005907 1.279519
v 0.020663 0.466132 1.279519
v 0.082095 0.390591 1.279519
v 0.064102 0.444006 1.279519
v -0.020663 -0.016218 1.441827
v -0.064102 0.005907 1.441827
v -0.082095 0.059322 1.441827
v -0.064102 0.392217 1.387738
v -0.020663 0.414342 1.387738
v -0.082095 0.338802 1.387738
v 0.064102 0.005907 1.441827
v 0.020663 -0.016218 1.441827
v 0.082095 0.059322 1.441827
v 0.020663 0.414342 1.387738
v 0.064102 0.392217 1.387738
v 0.082095 0.338802 1.387738
v -0.020663 -0.016218 1.506116
v -0.064102 0.005907 1.506116
v -0.082095 0.059322 1.506116
v -0.064102 0.392217 1.506116
v -0.020663 0.414342 1.506116
v -0.082095 0.338802 1.506116
v 0.064102 0.005907 1.506116
v 0.020663 -0.016218 1.506116
v 0.082095 0.059322 1.506116
v 0.020663 0.414342 1.506116
v 0.064102 0.392217 1.506116
v 0.082095 0.338802 1.506116
vn -0.0000 -0.2618 0.9651
vn 0.9881 -0.1537 -0.0000
vn 0.9869 0.1611 -0.0000
vn 0.9830 0.1835 -0.0000
vn 0.9913 -0.1316 -0.0000
vn 0.2398 0.9708 -0.0000
vn -0.2398 0.9708 -0.0000
vn -0.2329 0.9725 -0.0000
vn 0.2329 0.9725 -0.0000
vn -0.9913 -0.1316 -0.0000
vn -0.9830 0.1835 -0.0000
vn -0.9869 0.1611 -0.0000
vn -0.9881 -0.1537 -0.0000
vn -0.0000 -0.0379 -0.9993
vn -0.2420 -0.9703 -0.0000
vn -0.2484 -0.9686 -0.0000
vn -0.4592 -0.8883 -0.0000
vn -0.9491 -0.3150 -0.0000
vn -0.4592 0.8883 -0.0000
vn -0.9491 0.3150 -0.0000
vn 0.2484 -0.9686 -0.0000
vn 0.2420 -0.9703 -0.0000
vn 0.4592 -0.8883 -0.0000
vn 0.9491 -0.3150 -0.0000
vn 0.4592 0.8883 -0.0000
vn 0.9491 0.3150 -0.0000
vn -1.0000 -0.0000 -0.0000
vn -0.9852 0.1714 -0.0000
vn 1.0000 -0.0000 -0.0000
vn 0.9852 0.1714 -0.0000
vn -0.2215 0.9752 0.0002
vn 0.2215 0.9752 0.0002
vn 0.2215 0.9752 0.0003
vn -0.2215 0.9752 0.0003
vn -0.0000 -0.0000 1.0000
vn -0.9852 -0.1714 -0.0000
vn -0.9883 -0.0951 -0.1196
vn -0.9747 -0.1454 -0.1695
vn -0.9733 -0.1864 -0.1336
vn -0.9821 -0.1865 -0.0275
vn -0.2215 0.9752 -0.0000
vn 0.2215 0.9752 -0.0000
vn -0.0000 0.0003 -1.0000
vn -0.1933 -0.4910 -0.8495
vn -0.2256 -0.5769 -0.7850
vn 0.2256 -0.5769 -0.7850
vn 0.1933 -0.4910 -0.8494
vn -0.9887 -0.1470 -0.0301
vn -0.9876 -0.1352 -0.0797
vn 0.2213 -0.9662 -0.1324
vn -0.2213 -0.9662 -0.1324
vn -0.1976 -0.9803 -0.0003
vn 0.1976 -0.9803 -0.0003
vn -0.9852 0.1714 0.0001
vn -0.9815 -0.1912 -0.0001
vn 0.9887 -0.1470 -0.0301
vn 0.9815 -0.1912 -0.0001
vn 0.9852 0.1714 0.0001
vn 0.2497 -0.8297 -0.4992
vn -0.2497 -0.8297 -0.4992
vn 0.9883 -0.0951 -0.1196
vn 0.9876 -0.1352 -0.0797
vn 0.9821 -0.1865 -0.0275
vn 0.9733 -0.1864 -0.1336
vn 0.9747 -0.1454 -0.1695
vn 0.9852 -0.1714 -0.0000
vn -0.9210 -0.2317 -0.3131
vn -0.8961 -0.3204 -0.3072
vn -0.1526 -0.6445 -0.7493
vn -0.3069 -0.5964 -0.7417
vn -0.3603 -0.4638 -0.8094
vn -0.9214 -0.3417 -0.1853
vn -0.9336 -0.3561 -0.0401
vn -0.1996 -0.9185 -0.3412
vn -0.2146 -0.9661 -0.1435
vn -0.4194 -0.8981 -0.1324
vn -0.3981 -0.8782 -0.2651
vn -0.8908 -0.3272 -0.3152
vn -0.1609 -0.7922 -0.5887
vn -0.3200 -0.7835 -0.5327
vn 0.9336 -0.3561 -0.0401
vn 0.9214 -0.3417 -0.1853
vn 0.1996 -0.9185 -0.3412
vn 0.3981 -0.8782 -0.2651
vn 0.4194 -0.8981 -0.1324
vn 0.2146 -0.9661 -0.1435
vn 0.8961 -0.3204 -0.3072
vn 0.9210 -0.2317 -0.3131
vn 0.3603 -0.4638 -0.8094
vn 0.3069 -0.5964 -0.7417
vn 0.1526 -0.6445 -0.7493
vn 0.8908 -0.3272 -0.3152
vn 0.1609 -0.7922 -0.5887
vn 0.3200 -0.7835 -0.5327
vn -0.4253 0.9051 0.0001
vn -0.4253 0.9051 -0.0000
vn -0.9393 0.3430 -0.0000
vn -0.9393 0.3430 0.0001
vn 0.4253 0.9051 -0.0000
vn 0.4253 0.9051 0.0001
vn 0.9393 0.3430 0.0001
vn 0.9393 0.3430 -0.0000
vn -0.4253 0.9051 0.0003
vn 0.4253 0.9051 0.0003
vn -0.4620 -0.7627 -0.4526
vn -0.4307 -0.8892 -0.1543
vn -0.9338 -0.3565 -0.0313
vn -0.9497 -0.2662 -0.1648
vn -0.4298 -0.5493 -0.7166
vn -0.9384 -0.1960 -0.2846
vn 0.4620 -0.7627 -0.4526
vn 0.4298 -0.5493 -0.7166
vn 0.9384 -0.1960 -0.2846
vn 0.9497 -0.2662 -0.1648
vn 0.4307 -0.8892 -0.1543
vn 0.9338 -0.3565 -0.0313
vn -0.3825 -0.9239 -0.0004
vn -0.9238 -0.3828 -0.0003
vn 0.9238 -0.3828 -0.0003
vn 0.3825 -0.9239 -0.0004
vn -0.0000 -0.1736 -0.9848
vn 0.5091 -0.1495 -0.8476
vn 0.7062 -0.1230 -0.6973
vn 0.9658 -0.0451 -0.2555
vn 0.9658 0.0451 0.2555
vn 0.7062 0.1230 0.6973
vn -0.0000 -0.9848 0.1736
vn -0.9920 -0.0219 -0.1240
vn -0.7062 0.1230 0.6973
vn -0.9658 0.0451 0.2555
vn -0.9658 -0.0451 -0.2555
vn -0.0000 0.9848 -0.1736
vn -0.7062 -0.1230 -0.6973
vn -0.5091 -0.1495 -0.8476
vn 0.2582 0.1678 0.9514
vn -0.0000 0.1736 0.9848
vn -0.2582 0.1678 0.9514
vn 0.9920 0.0219 0.1240
vn 0.1634 0.3208 0.9329
vn 0.0714 0.3243 0.9432
vn 0.0907 0.3238 0.9418
vn 0.9872 -0.1595 -0.0000
vn 0.9872 0.1595 -0.0000
vn 0.9896 0.1441 -0.0000
vn 0.2378 0.9713 -0.0000
vn -0.2378 0.9713 -0.0000
vn -0.9872 -0.1595 -0.0000
vn -0.9896 0.1441 -0.0000
vn -0.9872 0.1595 -0.0000
vn -0.0000 -0.0000 -1.0000
vn -0.2378 -0.9713 -0.0000
vn -0.4539 -0.8911 -0.0000
vn -0.9477 -0.3192 -0.0000
vn -0.4539 0.8911 -0.0000
vn -0.9477 0.3192 -0.0000
vn 0.2378 -0.9713 -0.0000
vn 0.4539 -0.8911 -0.0000
vn 0.9477 -0.3192 -0.0000
vn 0.4539 0.8911 -0.0000
vn 0.9477 0.3192 -0.0000
vn -0.9965 0.0834 -0.0000
vn -0.0714 0.3243 0.9432
vn -0.1634 0.3208 0.9329
vn -0.0907 0.3238 0.9418
vn -0.6945 0.2340 0.6804
vn 0.9965 0.0834 -0.0000
vn 0.6945 0.2340 0.6804
vt 0.375000 0.842734
vt 0.391864 0.777161
vt 0.432576 0.750000
vt 0.567424 0.750000
vt 0.608136 0.777161
vt 0.625000 0.842734
vt 0.625000 0.907266
vt 0.608136 0.972839
vt 0.567424 1.000000
vt 0.432576 1.000000
vt 0.391864 0.972839
vt 0.375000 0.907266
vt 0.432576 0.500000
vt 0.567424 0.500000
vt 0.567424 0.750000
vt 0.432576 0.750000
vt 0.717734 0.500000
vt 0.782266 0.500000
vt 0.782266 0.750000
vt 0.717734 0.750000
vt 0.432576 0.000000
vt 0.567424 0.000000
vt 0.567424 0.250000
vt 0.432576 0.250000
vt 0.375000 0.342734
vt 0.391864 0.277161
vt 0.608136 0.277161
vt 0.625000 0.342734
vt 0.625000 0.407266
vt 0.608136 0.472839
vt 0.391864 0.472839
vt 0.375000 0.407266
vt 0.217734 0.500000
vt 0.217734 0.750000
vt 0.125000 0.750000
vt 0.125000 0.500000
vt 0.375000 0.250000
vt 0.375000 0.000000
vt 0.875000 0.500339
vt 0.875000 0.747572
vt 0.625000 0.002428
vt 0.625000 0.249661
vt 0.282266 0.750000
vt 0.282266 0.500000
vt 0.375000 0.500000
vt 0.375000 0.750000
vt 0.625000 0.747572
vt 0.625000 0.500339
vt 0.522727 0.000000
vt 0.602351 0.000000
vt 0.602351 0.250000
vt 0.538681 0.250000
vt 0.522727 0.213966
vt 0.522727 0.536034
vt 0.538681 0.500000
vt 0.602351 0.500000
vt 0.602351 0.750000
vt 0.522727 0.750000
vt 0.781899 0.500000
vt 0.718101 0.500000
vt 0.718101 0.500000
vt 0.602351 0.750000
vt 0.618366 0.777269
vt 0.625000 0.843101
vt 0.625000 0.906899
vt 0.618366 0.972731
vt 0.602351 1.000000
vt 0.522727 1.000000
vt 0.397649 0.000000
vt 0.529846 0.199054
vt 0.411077 0.138477
vt 0.400647 0.092392
vt 0.397649 0.034870
vt 0.375000 0.843101
vt 0.381634 0.777269
vt 0.397649 0.750000
vt 0.397649 1.000000
vt 0.381634 0.972731
vt 0.375000 0.906899
vt 0.781899 0.750000
vt 0.718101 0.750000
vt 0.522727 0.343101
vt 0.524681 0.259090
vt 0.542738 0.250000
vt 0.618366 0.277269
vt 0.625000 0.343101
vt 0.625000 0.406899
vt 0.618366 0.472731
vt 0.542738 0.500000
vt 0.524681 0.490911
vt 0.522727 0.406899
vt 0.413963 0.343101
vt 0.508670 0.343101
vt 0.508670 0.406899
vt 0.413963 0.406899
vt 0.540680 0.243017
vt 0.538505 0.233672
vt 0.527242 0.207951
vt 0.522727 0.343101
vt 0.542632 0.250000
vt 0.542632 0.500000
vt 0.508670 0.406899
vt 0.528600 0.542049
vt 0.539792 0.516328
vt 0.541836 0.506983
vt 0.397649 0.715130
vt 0.400647 0.657608
vt 0.411077 0.611523
vt 0.529846 0.550945
vt 0.522727 0.536034
vt 0.397649 0.750000
vt 0.407316 0.250000
vt 0.386528 0.228186
vt 0.394007 0.343101
vt 0.394570 0.263116
vt 0.378759 0.168613
vt 0.218101 0.470119
vt 0.218101 0.669116
vt 0.164348 0.669116
vt 0.125000 0.554915
vt 0.390407 0.239501
vt 0.381613 0.213850
vt 0.376491 0.115679
vt 0.397365 0.343101
vt 0.375000 0.343101
vt 0.375000 0.289348
vt 0.388916 0.250000
vt 0.218101 0.698997
vt 0.125000 0.623822
vt 0.125000 0.513166
vt 0.218101 0.500000
vt 0.361884 0.669071
vt 0.378759 0.581387
vt 0.281899 0.470119
vt 0.375000 0.554915
vt 0.281899 0.669116
vt 0.394570 0.486884
vt 0.407316 0.500000
vt 0.394007 0.406899
vt 0.376491 0.634321
vt 0.380134 0.549316
vt 0.390407 0.510499
vt 0.281899 0.698997
vt 0.281899 0.500000
vt 0.335652 0.500000
vt 0.375000 0.623822
vt 0.397365 0.406899
vt 0.388916 0.500000
vt 0.376480 0.500000
vt 0.375000 0.406899
vt 0.875000 0.500000
vt 0.875000 0.750000
vt 0.625000 0.000000
vt 0.625000 0.250000
vt 0.625000 0.750000
vt 0.625000 0.500000
vt 0.386528 0.521814
vt 0.394007 0.406899
vt 0.394007 0.343101
vt 0.522727 0.250000
vt 0.510403 0.250000
vt 0.521643 0.500000
vt 0.509470 0.500000
vt 0.522727 0.500000
vt 0.520558 0.500000
vt 0.526956 0.500000
vt 0.508670 0.250000
vt 1.000000 0.500000
vt 1.000000 1.000000
vt 0.916667 1.000000
vt 0.916667 0.500000
vt 0.833333 1.000000
vt 0.833333 0.500000
vt 0.750000 1.000000
vt 0.750000 0.500000
vt 0.666667 1.000000
vt 0.666667 0.500000
vt 0.583333 1.000000
vt 0.583333 0.500000
vt 0.630000 0.042154
vt 0.750000 0.010000
vt 0.416667 1.000000
vt 0.416667 0.500000
vt 0.333333 1.000000
vt 0.333333 0.500000
vt 0.250000 1.000000
vt 0.250000 0.500000
vt 0.166667 1.000000
vt 0.166667 0.500000
vt 0.370000 0.457846
vt 0.250000 0.490000
vt 0.130000 0.457846
vt 0.042154 0.370000
vt 0.010000 0.250000
vt 0.042154 0.130000
vt 0.130000 0.042154
vt 0.250000 0.010000
vt 0.370000 0.042154
vt 0.457846 0.130000
vt 0.490000 0.250000
vt 0.457846 0.370000
vt 0.083333 1.000000
vt 0.083333 0.500000
vt 0.000000 1.000000
vt 0.000000 0.500000
vt 0.750000 0.490000
vt 0.870000 0.457846
vt 0.957846 0.370000
vt 0.990000 0.250000
vt 0.957846 0.130000
vt 0.870000 0.042154
vt 0.542154 0.130000
vt 0.510000 0.250000
vt 0.542154 0.370000
vt 0.630000 0.457846
vt 0.500000 1.000000
vt 0.500000 0.500000
vt 0.718538 0.750000
vt 0.414152 0.500000
vt 0.585848 0.500000
vt 0.585848 0.750000
vt 0.414152 0.750000
vt 0.718538 0.500000
vt 0.781462 0.500000
vt 0.781462 0.750000
vt 0.414152 0.000000
vt 0.585848 0.000000
vt 0.585848 0.250000
vt 0.414152 0.250000
vt 0.375000 0.343538
vt 0.386467 0.277397
vt 0.414152 0.250000
vt 0.585848 0.250000
vt 0.613533 0.277397
vt 0.625000 0.343538
vt 0.625000 0.406462
vt 0.613533 0.472603
vt 0.585848 0.500000
vt 0.414152 0.500000
vt 0.386467 0.472603
vt 0.375000 0.406462
vt 0.218538 0.500000
vt 0.218538 0.750000
vt 0.281462 0.750000
vt 0.281462 0.500000
vt 0.375000 0.843538
vt 0.386467 0.777397
vt 0.414152 0.750000
vt 0.585848 0.750000
vt 0.613533 0.777397
vt 0.625000 0.843538
vt 0.625000 0.906462
vt 0.613533 0.972603
vt 0.585848 1.000000
vt 0.414152 1.000000
vt 0.386467 0.972603
vt 0.375000 0.906462
s 1
f 13/1/1 15/2/1 14/3/1 16/4/1 18/5/1 17/6/1 4/7/1 6/8/1 5/9/1 1/10/1 3/11/1 2/12/1
f 19/13/2 23/14/3 16/15/4 14/16/5
f 22/17/6 11/18/7 4/19/8 17/20/9
f 1/21/10 5/22/11 10/23/12 8/24/13
f 7/25/14 9/26/14 8/24/14 10/23/14 12/27/14 11/28/14 22/29/14 24/30/14 23/14/14 19/13/14 21/31/14 20/32/14
f 7/33/15 2/34/16 3/35/17 9/36/17
f 9/37/18 3/38/18 1/21/10 8/24/13
f 4/19/8 11/18/7 12/39/19 6/40/19
f 6/41/20 12/42/20 10/23/12 5/22/11
f 13/43/21 20/44/22 21/45/23 15/46/23
f 15/46/24 21/45/24 19/13/2 14/16/5
f 22/17/6 17/20/9 18/47/25 24/48/25
f 24/48/26 18/47/26 16/15/4 23/14/3
f 7/33/15 20/44/22 13/43/21 2/34/16
f 25/49/27 35/50/28 38/51/28 28/52/27 27/53/27
f 30/54/29 29/55/29 46/56/30 43/57/30 26/58/29
f 37/59/31 47/60/32 74/61/33 72/59/34
f 26/58/35 43/62/35 45/63/35 44/64/35 34/65/35 36/66/35 35/67/35 25/68/35
f 31/69/36 25/49/27 27/53/27 87/70/37 49/71/38 57/72/39 54/73/40
f 40/74/35 42/75/35 41/76/35 26/58/35 25/68/35 31/77/35 33/78/35 32/79/35
f 47/61/32 37/59/31 34/80/41 44/81/42
f 77/82/43 79/83/43 78/84/43 71/51/43 73/85/43 72/86/43 74/87/43 76/88/43 75/56/43 80/89/43 82/90/43 81/91/43
f 50/92/44 86/93/45 93/94/46 65/95/47
f 83/96/48 90/97/49 87/98/37 27/53/27 28/52/27
f 95/91/50 84/82/51 77/99/52 81/91/53
f 83/100/48 28/52/27 38/51/28 71/51/54 78/84/55
f 46/56/30 29/55/29 96/101/56 80/89/57 75/56/58
f 84/99/51 95/91/50 98/91/59 89/82/60
f 89/99/60 98/91/59 93/102/46 86/93/45
f 92/103/61 99/104/62 96/105/56 29/55/29 30/54/29
f 60/106/63 68/107/64 63/108/65 92/109/61 30/110/29 26/58/29 41/111/66
f 49/71/38 52/112/67 53/113/68
f 50/92/44 51/114/69 53/115/70 52/112/71
f 54/73/40 56/116/72 33/38/73
f 55/117/74 32/118/75 33/119/76 56/120/77
f 57/72/39 53/121/68 58/122/78 56/123/72
f 51/124/69 59/125/79 58/126/80 53/127/70
f 55/128/74 56/129/77 58/130/80 59/131/79
f 60/106/63 42/132/81 62/133/82
f 61/134/83 62/135/84 42/132/85 40/136/86
f 63/108/65 66/137/87 67/138/88
f 65/95/47 67/138/89 66/137/90 64/139/91
f 68/107/64 62/140/82 69/141/92 66/142/87
f 61/143/83 70/144/93 69/145/94 62/146/84
f 64/147/91 66/148/90 69/149/94 70/150/93
f 34/80/41 37/59/31 39/151/95 36/152/96
f 36/153/97 39/154/98 38/51/28 35/50/28
f 47/61/32 44/81/42 45/155/99 48/156/100
f 48/156/101 45/155/102 43/57/30 46/56/30
f 68/107/64 60/106/63 62/140/82
f 40/136/86 32/118/75 55/117/74 61/134/83
f 54/73/40 57/72/39 56/116/72
f 51/124/69 64/147/91 70/150/93 59/125/79
f 59/131/79 70/144/93 61/143/83 55/128/74
f 63/108/65 68/107/64 66/157/87
f 57/72/39 49/71/38 53/121/68
f 50/92/44 65/95/47 64/158/91 51/159/69
f 33/38/73 31/69/36 54/73/40
f 60/106/63 41/111/66 42/46/81
f 37/59/31 72/59/34 73/151/103 39/151/95
f 39/154/98 73/154/98 71/51/54 38/51/28
f 46/56/30 75/56/58 76/156/101 48/156/101
f 48/156/100 76/156/104 74/61/33 47/60/32
f 84/99/51 89/82/60 91/160/105 85/160/106
f 85/160/107 91/160/108 90/97/49 83/96/48
f 89/99/60 86/93/45 88/161/109 91/160/105
f 91/160/108 88/160/110 87/98/37 90/97/49
f 93/102/46 98/91/59 100/162/111 94/163/112
f 94/163/113 100/162/114 99/104/62 92/103/61
f 98/91/59 95/91/50 97/164/115 100/164/111
f 100/165/114 97/166/116 96/105/56 99/104/62
f 77/99/52 84/82/51 85/160/106 79/83/117
f 79/83/118 85/160/107 83/100/48 78/84/55
f 49/71/38 87/70/37 88/167/110 52/112/67
f 52/112/71 88/167/109 86/93/45 50/92/44
f 92/109/61 63/108/65 67/138/88 94/163/113
f 94/163/112 67/138/89 65/95/47 93/94/46
f 80/89/57 96/101/56 97/164/116 82/90/119
f 82/90/120 97/164/115 95/91/50 81/91/53
f 101/168/121 102/169/121 104/170/122 103/171/122
f 103/171/122 104/170/122 106/172/123 105/173/123
f 105/173/124 106/172/124 108/174/124 107/175/124
f 107/175/125 108/174/125 110/176/125 109/177/125
f 109/177/126 110/176/126 112/178/126 111/179/126
f 115/180/127 113/181/127 127/181/127 129/180/127
f 116/182/128 115/183/128 129/183/128 130/182/128
f 115/183/129 116/182/129 118/184/129 117/185/129
f 117/185/130 118/184/130 120/186/130 119/187/130
f 119/187/131 120/186/131 122/188/131 121/189/131
f 104/190/132 102/191/132 124/192/132 122/193/132 120/194/132 118/195/132 116/196/132 114/197/132 112/198/132 110/199/132 108/200/132 106/201/132
f 121/189/133 122/188/133 124/202/134 123/203/134
f 123/203/134 124/202/134 102/204/121 101/205/121
f 101/206/127 103/207/127 105/208/127 107/209/127 109/210/127 111/211/127 113/181/127 115/180/127 117/212/127 119/213/127 121/214/127 123/215/127
f 126/179/135 125/178/135 128/216/136 127/217/136
f 127/217/136 128/216/136 130/182/137 129/183/137
f 112/198/132 114/197/132 128/197/132 125/198/132
f 111/179/138 112/178/138 125/178/138 126/179/138
f 114/197/132 116/196/132 130/196/132 128/197/132
f 113/181/127 111/211/127 126/211/127 127/181/127
f 131/168/121 132/169/121 134/170/122 133/171/122
f 133/171/122 134/170/122 136/172/123 135/173/123
f 135/173/124 136/172/124 138/174/124 137/175/124
f 137/175/125 138/174/125 140/176/125 139/177/125
f 139/177/126 140/176/126 142/178/126 141/179/126
f 143/181/127 141/211/127 156/211/127 157/181/127
f 144/197/132 146/196/132 160/196/132 158/197/132
f 145/183/129 146/182/129 148/184/129 147/185/129
f 147/185/130 148/184/130 150/186/130 149/187/130
f 149/187/131 150/186/131 152/188/131 151/189/131
f 134/190/132 132/191/132 154/192/132 152/193/132 150/194/132 148/195/132 146/196/132 144/197/132 142/198/132 140/199/132 138/200/132 136/201/132
f 151/189/133 152/188/133 154/202/134 153/203/134
f 153/203/134 154/202/134 132/204/121 131/205/121
f 131/206/127 133/207/127 135/208/127 137/209/127 139/210/127 141/211/127 143/181/127 145/180/127 147/212/127 149/213/127 151/214/127 153/215/127
f 156/179/135 155/178/135 158/216/136 157/217/136
f 157/217/136 158/216/136 160/182/137 159/183/137
f 146/182/128 145/183/128 159/183/128 160/182/128
f 145/180/127 143/181/127 157/181/127 159/180/127
f 142/198/132 144/197/132 158/197/132 155/198/132
f 141/179/138 142/178/138 155/178/138 156/179/138
f 178/155/139 177/218/140 194/218/141 195/155/139
f 179/219/142 183/220/143 176/221/144 174/222/142
f 182/223/145 171/224/146 164/225/146 177/218/145
f 161/226/147 165/227/148 170/228/149 168/229/147
f 167/230/150 169/231/150 168/232/150 170/233/150 172/234/150 171/235/150 182/236/150 184/237/150 183/238/150 179/239/150 181/240/150 180/241/150
f 167/242/151 162/243/151 163/35/152 169/36/152
f 169/37/153 163/38/153 161/226/147 168/229/147
f 164/225/146 171/224/146 172/151/154 166/152/154
f 166/153/155 172/154/155 170/228/149 165/227/148
f 173/244/156 180/245/156 181/45/157 175/46/157
f 175/46/158 181/45/158 179/219/142 174/222/142
f 182/223/145 177/218/145 178/155/159 184/156/159
f 184/156/160 178/155/160 176/221/144 183/220/143
f 167/242/151 180/245/156 173/244/156 162/243/151
f 190/227/161 187/226/147 199/226/147 202/227/149
f 165/227/148 161/226/147 187/226/147 190/227/161
f 164/225/162 166/152/163 188/152/163 189/225/164
f 173/244/156 175/46/157 191/46/157 192/244/156
f 166/153/165 165/227/165 190/227/165 188/153/165
f 175/46/158 174/222/142 193/222/142 191/46/158
f 174/222/142 176/221/144 196/221/166 193/222/142
f 161/226/147 163/38/153 186/38/153 187/226/147
f 162/243/151 173/244/156 192/244/156 185/243/151
f 163/35/152 162/243/151 185/243/151 186/35/152
f 176/221/167 178/155/167 195/155/167 196/221/167
f 177/218/140 164/225/162 189/225/164 194/218/141
f 204/246/35 203/247/35 205/248/35 208/249/35 207/250/35 206/251/35 201/252/35 200/253/35 202/254/35 199/255/35 198/256/35 197/257/35
f 195/155/159 194/218/145 206/218/145 207/155/159
f 188/153/155 190/227/161 202/227/149 200/153/155
f 193/222/142 196/221/166 208/221/143 205/222/142
f 186/35/152 185/243/151 197/243/151 198/35/152
f 196/221/166 195/155/160 207/155/160 208/221/143
f 192/244/156 191/46/157 203/46/157 204/244/156
f 194/218/145 189/225/146 201/225/146 206/218/145
f 187/226/147 186/38/153 198/38/153 199/226/147
f 185/243/151 192/244/156 204/244/156 197/243/151
f 191/46/158 193/222/142 205/222/142 203/46/158
f 189/225/146 188/152/154 200/152/154 201/225/146
