# Blender 4.4.3
# www.blender.org
mtllib MGSecond.mtl
o Cylinder.011
v 0.652268 2.662255 -0.374123
v 0.652268 2.783813 -0.374123
v 0.633514 2.662255 -0.363295
v 0.633514 2.783813 -0.363295
v 0.633514 2.662255 -0.341639
v 0.633514 2.783813 -0.341639
v 0.652268 2.662255 -0.330811
v 0.652268 2.783813 -0.330811
v 0.671023 2.662255 -0.341639
v 0.671023 2.783813 -0.341639
v 0.671023 2.662255 -0.363295
v 0.671023 2.783813 -0.363295
v 0.843911 2.767562 -0.709937
v 0.768112 2.767562 -0.709937
v 0.843911 2.779257 -0.703185
v 0.768112 2.779257 -0.703185
v 0.843911 2.779257 -0.689681
v 0.768112 2.779257 -0.689681
v 0.843911 2.767562 -0.682929
v 0.768112 2.767562 -0.682929
v 0.843911 2.755867 -0.689681
v 0.768112 2.755867 -0.689681
v 0.843911 2.755867 -0.703185
v 0.768112 2.755867 -0.703185
v 0.781434 2.662255 -0.374123
v 0.781434 2.783813 -0.374123
v 0.800188 2.662255 -0.363295
v 0.800188 2.783813 -0.363295
v 0.800188 2.662255 -0.341639
v 0.800188 2.783813 -0.341639
v 0.781434 2.662255 -0.330811
v 0.781434 2.783813 -0.330811
v 0.762679 2.662255 -0.341639
v 0.762679 2.783813 -0.341639
v 0.762679 2.662255 -0.363295
v 0.762679 2.783813 -0.363295
vn -0.5000 -0.0000 -0.8660
vn -1.0000 -0.0000 -0.0000
vn -0.5000 -0.0000 0.8660
vn 0.5000 -0.0000 0.8660
vn -0.0000 1.0000 -0.0000
vn 1.0000 -0.0000 -0.0000
vn 0.5000 -0.0000 -0.8660
vn -0.0000 -1.0000 -0.0000
vn -0.0000 0.5000 -0.8660
vn -0.0000 0.5000 0.8660
vn -0.0000 -0.5000 0.8660
vn -0.0000 -0.5000 -0.8660
vt 1.000000 0.500000
vt 1.000000 1.000000
vt 0.833333 1.000000
vt 0.833333 0.500000
vt 0.666667 1.000000
vt 0.666667 0.500000
vt 0.500000 1.000000
vt 0.500000 0.500000
vt 0.333333 1.000000
vt 0.333333 0.500000
vt 0.457846 0.370000
vt 0.250000 0.490000
vt 0.042154 0.370000
vt 0.042154 0.130000
vt 0.250000 0.010000
vt 0.457846 0.130000
vt 0.166667 1.000000
vt 0.166667 0.500000
vt -0.000000 1.000000
vt -0.000000 0.500000
vt 0.750000 0.490000
vt 0.957846 0.370000
vt 0.957846 0.130000
vt 0.750000 0.010000
vt 0.542154 0.130000
vt 0.542154 0.370000
s 0
f 1/1/1 3/4/1 4/3/1 2/2/1
f 3/4/2 5/6/2 6/5/2 4/3/2
f 5/6/3 7/8/3 8/7/3 6/5/3
f 7/8/4 9/10/4 10/9/4 8/7/4
f 4/11/5 6/16/5 8/15/5 10/14/5 12/13/5 2/12/5
f 9/10/6 11/18/6 12/17/6 10/9/6
f 11/18/7 1/20/7 2/19/7 12/17/7
f 1/21/8 11/26/8 9/25/8 7/24/8 5/23/8 3/22/8
f 13/1/9 14/2/9 16/3/9 15/4/9
f 15/4/5 16/3/5 18/5/5 17/6/5
f 17/6/10 18/5/10 20/7/10 19/8/10
f 19/8/11 20/7/11 22/9/11 21/10/11
f 16/11/2 14/12/2 24/13/2 22/14/2 20/15/2 18/16/2
f 21/10/8 22/9/8 24/17/8 23/18/8
f 23/18/12 24/17/12 14/19/12 13/20/12
f 13/21/6 15/22/6 17/23/6 19/24/6 21/25/6 23/26/6
f 25/1/7 26/2/7 28/3/7 27/4/7
f 27/4/6 28/3/6 30/5/6 29/6/6
f 29/6/4 30/5/4 32/7/4 31/8/4
f 31/8/3 32/7/3 34/9/3 33/10/3
f 28/11/5 26/12/5 36/13/5 34/14/5 32/15/5 30/16/5
f 33/10/2 34/9/2 36/17/2 35/18/2
f 35/18/1 36/17/1 26/19/1 25/20/1
f 25/21/8 27/22/8 29/23/8 31/24/8 33/25/8 35/26/8
