# Blender 4.4.3
# www.blender.org
mtllib RearLights.mtl
o Cylinder.024
v -1.823429 1.122743 4.024862
v -1.823429 1.076249 4.331957
v -1.714854 1.077770 4.024862
v -1.747730 1.044893 4.331957
v -1.669881 0.969195 4.024862
v -1.716375 0.969195 4.331957
v -1.714854 0.860620 4.024862
v -1.747730 0.893496 4.331957
v -1.823429 0.815647 4.024862
v -1.823429 0.862141 4.331957
v -1.932003 0.860620 4.024862
v -1.899127 0.893496 4.331957
v -1.976977 0.969195 4.024862
v -1.930483 0.969195 4.331957
v -1.932003 1.077770 4.024862
v -1.899127 1.044893 4.331957
v -1.714854 1.077770 4.331957
v -1.823429 1.122743 4.331957
v -1.669881 0.969195 4.331957
v -1.714854 0.860620 4.331957
v -1.823429 0.815647 4.331957
v -1.932003 0.860620 4.331957
v -1.976977 0.969195 4.331957
v -1.932003 1.077770 4.331957
v -1.747730 1.044893 4.251102
v -1.823429 1.076249 4.251102
v -1.716375 0.969195 4.251102
v -1.747730 0.893496 4.251102
v -1.823429 0.862141 4.251102
v -1.899127 0.893496 4.251102
v -1.930483 0.969195 4.251102
v -1.899127 1.044893 4.251102
v 1.823429 1.122743 4.024862
v 1.823429 1.076249 4.331957
v 1.714854 1.077770 4.024862
v 1.747730 1.044893 4.331957
v 1.669881 0.969195 4.024862
v 1.716375 0.969195 4.331957
v 1.714854 0.860620 4.024862
v 1.747730 0.893496 4.331957
v 1.823429 0.815647 4.024862
v 1.823429 0.862141 4.331957
v 1.932003 0.860620 4.024862
v 1.899127 0.893496 4.331957
v 1.976977 0.969195 4.024862
v 1.930483 0.969195 4.331957
v 1.932003 1.077770 4.024862
v 1.899127 1.044893 4.331957
v 1.714854 1.077770 4.331957
v 1.823429 1.122743 4.331957
v 1.669881 0.969195 4.331957
v 1.714854 0.860620 4.331957
v 1.823429 0.815647 4.331957
v 1.932003 0.860620 4.331957
v 1.976977 0.969195 4.331957
v 1.932003 1.077770 4.331957
v 1.747730 1.044893 4.251102
v 1.823429 1.076249 4.251102
v 1.716375 0.969195 4.251102
v 1.747730 0.893496 4.251102
v 1.823429 0.862141 4.251102
v 1.899127 0.893496 4.251102
v 1.930483 0.969195 4.251102
v 1.899127 1.044893 4.251102
vn 0.3827 0.9239 -0.0000
vn 0.9239 0.3827 -0.0000
vn 0.9239 -0.3827 -0.0000
vn 0.3827 -0.9239 -0.0000
vn -0.3827 -0.9239 -0.0000
vn -0.9239 -0.3827 -0.0000
vn -0.9239 0.3827 -0.0000
vn -0.3827 0.9239 -0.0000
vn -0.0000 -0.0000 -1.0000
vn -0.0000 -0.0000 1.0000
vt 1.000000 0.500000
vt 1.000000 1.000000
vt 0.875000 1.000000
vt 0.875000 0.500000
vt 0.750000 1.000000
vt 0.750000 0.500000
vt 0.625000 1.000000
vt 0.625000 0.500000
vt 0.500000 1.000000
vt 0.500000 0.500000
vt 0.375000 1.000000
vt 0.375000 0.500000
vt 0.250000 1.000000
vt 0.250000 0.500000
vt 0.131681 0.368319
vt 0.082671 0.250000
vt 0.125000 1.000000
vt 0.125000 0.500000
vt 0.000000 1.000000
vt 0.000000 0.500000
vt 0.750000 0.490000
vt 0.919706 0.419706
vt 0.990000 0.250000
vt 0.919706 0.080294
vt 0.750000 0.010000
vt 0.580294 0.080294
vt 0.510000 0.250000
vt 0.580294 0.419706
vt 0.250000 0.417328
vt 0.368319 0.368319
vt 0.419706 0.419706
vt 0.250000 0.490000
vt 0.417329 0.250000
vt 0.490000 0.250000
vt 0.368319 0.131681
vt 0.419706 0.080294
vt 0.250000 0.082671
vt 0.250000 0.010000
vt 0.131681 0.131681
vt 0.080294 0.080294
vt 0.010000 0.250000
vt 0.080294 0.419706
s 0
f 1/1/1 18/2/1 17/3/1 3/4/1
f 3/4/2 17/3/2 19/5/2 5/6/2
f 5/6/3 19/5/3 20/7/3 7/8/3
f 7/8/4 20/7/4 21/9/4 9/10/4
f 9/10/5 21/9/5 22/11/5 11/12/5
f 11/12/6 22/11/6 23/13/6 13/14/6
f 16/15/3 14/16/3 31/16/3 32/15/3
f 13/14/7 23/13/7 24/17/7 15/18/7
f 15/18/8 24/17/8 18/19/8 1/20/8
f 1/21/9 3/22/9 5/23/9 7/24/9 9/25/9 11/26/9 13/27/9 15/28/9
f 2/29/10 4/30/10 17/31/10 18/32/10
f 4/30/10 6/33/10 19/34/10 17/31/10
f 6/33/10 8/35/10 20/36/10 19/34/10
f 8/35/10 10/37/10 21/38/10 20/36/10
f 10/37/10 12/39/10 22/40/10 21/38/10
f 12/39/10 14/16/10 23/41/10 22/40/10
f 14/16/10 16/15/10 24/42/10 23/41/10
f 16/15/10 2/29/10 18/32/10 24/42/10
f 25/30/10 26/29/10 32/15/10 31/16/10 30/39/10 29/37/10 28/35/10 27/33/10
f 12/39/1 10/37/1 29/37/1 30/39/1
f 8/35/7 6/33/7 27/33/7 28/35/7
f 4/30/5 2/29/5 26/29/5 25/30/5
f 2/29/4 16/15/4 32/15/4 26/29/4
f 14/16/2 12/39/2 30/39/2 31/16/2
f 10/37/8 8/35/8 28/35/8 29/37/8
f 6/33/6 4/30/6 25/30/6 27/33/6
f 33/1/8 35/4/8 49/3/8 50/2/8
f 35/4/7 37/6/7 51/5/7 49/3/7
f 37/6/6 39/8/6 52/7/6 51/5/6
f 39/8/5 41/10/5 53/9/5 52/7/5
f 41/10/4 43/12/4 54/11/4 53/9/4
f 43/12/3 45/14/3 55/13/3 54/11/3
f 48/15/6 64/15/6 63/16/6 46/16/6
f 45/14/2 47/18/2 56/17/2 55/13/2
f 47/18/1 33/20/1 50/19/1 56/17/1
f 33/21/9 47/28/9 45/27/9 43/26/9 41/25/9 39/24/9 37/23/9 35/22/9
f 34/29/10 50/32/10 49/31/10 36/30/10
f 36/30/10 49/31/10 51/34/10 38/33/10
f 38/33/10 51/34/10 52/36/10 40/35/10
f 40/35/10 52/36/10 53/38/10 42/37/10
f 42/37/10 53/38/10 54/40/10 44/39/10
f 44/39/10 54/40/10 55/41/10 46/16/10
f 46/16/10 55/41/10 56/42/10 48/15/10
f 48/15/10 56/42/10 50/32/10 34/29/10
f 57/30/10 59/33/10 60/35/10 61/37/10 62/39/10 63/16/10 64/15/10 58/29/10
f 44/39/8 62/39/8 61/37/8 42/37/8
f 40/35/2 60/35/2 59/33/2 38/33/2
f 36/30/4 57/30/4 58/29/4 34/29/4
f 34/29/5 58/29/5 64/15/5 48/15/5
f 46/16/7 63/16/7 62/39/7 44/39/7
f 42/37/1 61/37/1 60/35/1 40/35/1
f 38/33/3 59/33/3 57/30/3 36/30/3
