# Blender 4.4.3
# www.blender.org
mtllib TurretSecond.mtl
o Cube.039
v 1.670489 1.271860 2.358349
v 1.670489 1.653128 2.358349
v 1.830682 1.127817 0.446226
v 1.830682 1.653128 0.446226
v 1.719008 1.271860 2.362414
v 1.719008 1.653128 2.362414
v 1.879200 1.127817 0.450291
v 1.879200 1.653128 0.450291
v -1.670489 1.271860 2.358349
v -1.670489 1.653128 2.358349
v -1.830682 1.127817 0.446226
v -1.830682 1.653128 0.446226
v -1.719008 1.271860 2.362414
v -1.719008 1.653128 2.362414
v -1.879200 1.127817 0.450291
v -1.879200 1.653128 0.450291
v -1.728727 1.269118 2.367958
v -1.728727 1.677559 2.367958
v 1.728727 1.269118 2.367958
v 1.728727 1.677559 2.367958
v 1.149103 1.269118 2.367958
v -1.149103 1.269118 2.367958
v -1.149103 1.677559 2.367958
v 1.149103 1.677559 2.367958
v -1.149103 1.269118 3.019171
v 1.149103 1.269118 3.019171
v 1.149103 1.677559 3.019171
v -1.149103 1.677559 3.019171
v -1.407895 1.269118 3.019171
v -1.728727 1.269118 2.698339
v -1.634758 1.269118 2.925201
v -1.728727 1.677559 2.698339
v -1.407895 1.677559 3.019171
v -1.634758 1.677559 2.925201
v 1.728727 1.269118 2.698339
v 1.407895 1.269118 3.019171
v 1.634758 1.269118 2.925201
v 1.407895 1.677559 3.019171
v 1.728727 1.677559 2.698339
v 1.634758 1.677559 2.925201
v -1.066727 1.269118 3.616215
v -1.149103 1.269118 3.533838
v 1.149103 1.269118 3.533838
v 1.066727 1.269118 3.616215
v 1.066727 1.677559 3.616215
v 1.149103 1.677559 3.533838
v -1.149103 1.677559 3.533838
v -1.066727 1.677559 3.616215
v -1.149103 1.365201 2.428529
v -1.149103 1.365201 2.958601
v 1.149103 1.365201 2.428529
v 1.149103 1.365201 2.958601
v -1.097558 1.365201 3.070716
v 1.097558 1.365201 3.070716
v 1.045376 1.365201 3.564669
v 1.097558 1.365201 3.512487
v -1.097558 1.365201 3.512487
v -1.045376 1.365201 3.564669
v -1.668157 1.365201 2.428529
v 1.668157 1.365201 2.428529
v -1.588399 1.365201 2.878843
v -1.395847 1.365201 2.958601
v -1.668157 1.365201 2.686290
v 1.395847 1.365201 2.958601
v 1.588399 1.365201 2.878843
v 1.668157 1.365201 2.686290
v -1.668157 1.677559 2.428529
v -1.149103 1.677559 2.958601
v -1.149103 1.677559 2.428529
v -1.668157 1.677559 2.686290
v -1.395847 1.677559 2.958601
v -1.588399 1.677559 2.878843
v 1.149103 1.677559 2.958601
v 1.149103 1.677559 2.428529
v 1.668157 1.677559 2.428529
v 1.588399 1.677559 2.878843
v 1.395847 1.677559 2.958601
v 1.668157 1.677559 2.686290
v 1.097558 1.677559 3.512487
v 1.097558 1.677559 3.070716
v -1.097558 1.677559 3.512487
v 1.045376 1.677559 3.564669
v -1.097558 1.677559 3.070716
v -1.045376 1.677559 3.564669
v -2.011045 1.741792 2.699341
v -2.011045 1.672432 2.866791
v -2.011045 1.504982 2.936151
v -2.011045 1.337533 2.866791
v -2.011045 1.268173 2.699341
v -2.011045 1.337533 2.531891
v -2.011045 1.504982 2.462531
v -2.011045 1.672432 2.531891
v -1.717081 1.705199 2.699341
v -1.773459 1.882803 2.699341
v -1.717081 1.646557 2.840915
v -1.773459 1.772142 2.966500
v -1.717081 1.504982 2.899558
v -1.773459 1.504982 3.077161
v -1.717081 1.363408 2.840915
v -1.773459 1.237823 2.966500
v -1.717081 1.304766 2.699341
v -1.773459 1.127162 2.699341
v -1.717081 1.363408 2.557766
v -1.773459 1.237823 2.432182
v -1.717081 1.504982 2.499124
v -1.773459 1.504982 2.321521
v -1.717081 1.646557 2.557766
v -1.773459 1.772142 2.432182
v -2.011045 1.772142 2.966500
v -2.011045 1.882803 2.699341
v -2.011045 1.504982 3.077161
v -2.011045 1.237823 2.966500
v -2.011045 1.127162 2.699341
v -2.011045 1.237823 2.432182
v -2.011045 1.504982 2.321521
v -2.011045 1.772142 2.432182
v -1.856211 1.609757 2.804115
v -1.856211 1.653156 2.699341
v -1.856211 1.504982 2.847514
v -1.856211 1.400208 2.804115
v -1.856211 1.356809 2.699341
v -1.856211 1.400208 2.594566
v -1.856211 1.504982 2.551167
v -1.856211 1.609757 2.594566
v 1.363219 1.304419 2.550644
v 1.363219 1.796362 2.572444
v 1.504418 1.304419 2.609131
v 1.489003 1.796362 2.624546
v 1.562905 1.304419 2.750330
v 1.541105 1.796362 2.750330
v 1.504418 1.304419 2.891529
v 1.489003 1.796362 2.876114
v 1.363219 1.304419 2.950016
v 1.363219 1.796362 2.928216
v 1.222020 1.304419 2.891529
v 1.237435 1.796362 2.876114
v 1.163533 1.304419 2.750330
v 1.185333 1.796362 2.750330
v 1.222020 1.304419 2.609131
v 1.237435 1.796362 2.624546
v 1.504418 1.796362 2.609131
v 1.363219 1.796362 2.550644
v 1.562905 1.796362 2.750330
v 1.504418 1.796362 2.891529
v 1.363219 1.796362 2.950016
v 1.222020 1.796362 2.891529
v 1.163533 1.796362 2.750330
v 1.222020 1.796362 2.609131
v 1.461689 1.831955 2.651860
v 1.363219 1.831955 2.611072
v 1.502476 1.831955 2.750330
v 1.461689 1.831955 2.848800
v 1.363219 1.831955 2.889587
v 1.264749 1.831955 2.848800
v 1.223962 1.831955 2.750330
v 1.264749 1.831955 2.651860
v -1.369440 1.304419 2.550644
v -1.369440 1.796362 2.572444
v -1.228241 1.304419 2.609131
v -1.243656 1.796362 2.624546
v -1.169755 1.304419 2.750330
v -1.191555 1.796362 2.750330
v -1.228241 1.304419 2.891529
v -1.243656 1.796362 2.876114
v -1.369440 1.304419 2.950015
v -1.369440 1.796362 2.928216
v -1.510639 1.304419 2.891529
v -1.495224 1.796362 2.876114
v -1.569126 1.304419 2.750330
v -1.547326 1.796362 2.750330
v -1.510639 1.304419 2.609131
v -1.495224 1.796362 2.624546
v -1.228241 1.796362 2.609131
v -1.369440 1.796362 2.550644
v -1.169755 1.796362 2.750330
v -1.228241 1.796362 2.891529
v -1.369440 1.796362 2.950015
v -1.510639 1.796362 2.891529
v -1.569126 1.796362 2.750330
v -1.510639 1.796362 2.609131
v -1.270970 1.831955 2.651860
v -1.369440 1.831955 2.611072
v -1.230183 1.831955 2.750330
v -1.270970 1.831955 2.848799
v -1.369440 1.831955 2.889587
v -1.467910 1.831955 2.848799
v -1.508698 1.831955 2.750330
v -1.467910 1.831955 2.651860
v 0.634604 1.741792 3.899085
v 0.802054 1.672432 3.899085
v 0.871414 1.504982 3.899085
v 0.802054 1.337533 3.899085
v 0.634604 1.268173 3.899085
v 0.467154 1.337533 3.899085
v 0.397794 1.504982 3.899085
v 0.467154 1.672432 3.899085
v 0.634604 1.705199 3.605121
v 0.634604 1.882803 3.661500
v 0.776179 1.646557 3.605121
v 0.901763 1.772142 3.661500
v 0.834821 1.504982 3.605121
v 1.012424 1.504982 3.661500
v 0.776179 1.363408 3.605121
v 0.901763 1.237823 3.661500
v 0.634604 1.304766 3.605121
v 0.634604 1.127162 3.661500
v 0.493030 1.363408 3.605121
v 0.367445 1.237823 3.661500
v 0.434387 1.504982 3.605121
v 0.256784 1.504982 3.661500
v 0.493030 1.646557 3.605121
v 0.367445 1.772142 3.661500
v 0.901763 1.772142 3.899085
v 0.634604 1.882803 3.899085
v 1.012424 1.504982 3.899085
v 0.901763 1.237823 3.899085
v 0.634604 1.127162 3.899085
v 0.367445 1.237823 3.899085
v 0.256784 1.504982 3.899085
v 0.367445 1.772142 3.899085
v 0.739379 1.609757 3.744251
v 0.634604 1.653156 3.744251
v 0.782778 1.504982 3.744251
v 0.739379 1.400208 3.744251
v 0.634604 1.356809 3.744251
v 0.529830 1.400208 3.744251
v 0.486431 1.504982 3.744251
v 0.529830 1.609757 3.744251
v -0.623527 1.181577 3.670990
v -0.623527 1.820271 3.670990
v -0.623527 1.181577 3.591331
v -0.623527 1.820271 3.591331
v 0.165899 1.181577 3.670990
v 0.165899 1.820271 3.670990
v 0.165899 1.181577 3.591331
v 0.165899 1.820271 3.591331
vn -0.9965 -0.0000 -0.0835
vn 0.0835 -0.0000 -0.9965
vn 0.9965 -0.0000 0.0835
vn -0.0835 -0.0000 0.9965
vn -0.0063 -0.9972 0.0746
vn -0.0000 1.0000 -0.0000
vn 0.9965 -0.0000 -0.0835
vn -0.0835 -0.0000 -0.9965
vn -0.9965 -0.0000 0.0835
vn 0.0835 -0.0000 0.9965
vn 0.0063 -0.9972 0.0746
vn -0.0000 -0.0000 1.0000
vn -0.0000 -0.0000 -1.0000
vn 1.0000 -0.0000 -0.0000
vn -0.0000 -1.0000 -0.0000
vn -1.0000 -0.0000 -0.0000
vn -0.3827 -0.0000 0.9239
vn -0.9239 -0.0000 0.3827
vn 0.3827 -0.0000 0.9239
vn 0.9239 -0.0000 0.3827
vn 0.7071 -0.0000 0.7071
vn -0.7071 -0.0000 0.7071
vn -0.7071 -0.0000 -0.7071
vn 0.3827 -0.0000 -0.9239
vn 0.7071 -0.0000 -0.7071
vn 0.9239 -0.0000 -0.3827
vn -0.3827 -0.0000 -0.9239
vn -0.9239 -0.0000 -0.3827
vn -0.0000 0.9239 -0.3827
vn -0.0000 -0.3827 0.9239
vn -0.0000 -0.9239 0.3827
vn -0.0000 -0.9239 -0.3827
vn -0.0000 -0.3827 -0.9239
vn -0.0000 0.3827 -0.9239
vn -0.4675 -0.8167 0.3383
vn -0.0000 0.3827 0.9239
vn -0.0000 0.9239 0.3827
vn 0.9457 0.3002 0.1244
vn 0.9457 0.1244 0.3002
vn 0.9457 -0.1244 0.3002
vn 0.9457 -0.3002 0.1244
vn 0.9457 -0.3002 -0.1244
vn 0.9457 -0.1244 -0.3002
vn 0.9457 0.1244 -0.3002
vn 0.9457 0.3002 -0.1244
vn -0.4675 0.3383 0.8167
vn -0.4675 0.8167 -0.3383
vn -0.4675 -0.3383 -0.8167
vn -0.4675 -0.3383 0.8167
vn -0.4675 0.8167 0.3383
vn -0.4675 0.3383 -0.8167
vn -0.4675 -0.8167 -0.3383
vn -0.6524 0.7081 0.2702
vn 0.2702 0.7081 0.6524
vn 0.6524 0.7081 -0.2702
vn -0.6524 0.7081 -0.2702
vn -0.2702 0.7081 0.6524
vn 0.6524 0.7081 0.2702
vn 0.2702 0.7081 -0.6524
vn -0.2702 0.7081 -0.6524
vn -0.3827 0.9239 -0.0000
vn 0.9239 -0.3827 -0.0000
vn 0.3827 -0.9239 -0.0000
vn -0.3827 -0.9239 -0.0000
vn -0.9239 -0.3827 -0.0000
vn -0.9239 0.3827 -0.0000
vn 0.3383 -0.8167 0.4675
vn 0.9239 0.3827 -0.0000
vn 0.3827 0.9239 -0.0000
vn 0.1244 0.3002 -0.9457
vn 0.3002 0.1244 -0.9457
vn 0.3002 -0.1244 -0.9457
vn 0.1244 -0.3002 -0.9457
vn -0.1244 -0.3002 -0.9457
vn -0.3002 -0.1244 -0.9457
vn -0.3002 0.1244 -0.9457
vn -0.1244 0.3002 -0.9457
vn 0.8167 0.3383 0.4675
vn -0.3383 0.8167 0.4675
vn -0.8167 -0.3383 0.4675
vn 0.8167 -0.3383 0.4675
vn 0.3383 0.8167 0.4675
vn -0.8167 0.3383 0.4675
vn -0.3383 -0.8167 0.4675
vt 0.375000 0.000000
vt 0.625000 0.000000
vt 0.625000 0.250000
vt 0.375000 0.250000
vt 0.625000 0.500000
vt 0.375000 0.500000
vt 0.625000 0.750000
vt 0.375000 0.750000
vt 0.625000 1.000000
vt 0.375000 1.000000
vt 0.125000 0.500000
vt 0.125000 0.750000
vt 0.875000 0.500000
vt 0.875000 0.750000
vt 0.375000 0.916667
vt 0.625000 0.916667
vt 0.625000 0.953873
vt 0.375000 0.953873
vt 0.375000 0.416667
vt 0.625000 0.416667
vt 0.375000 0.796126
vt 0.625000 0.796126
vt 0.625000 0.833333
vt 0.375000 0.833333
vt 0.791667 0.523253
vt 0.791667 0.500000
vt 0.875000 0.626833
vt 0.861490 0.713925
vt 0.828873 0.750000
vt 0.791667 0.750000
vt 0.791667 0.726747
vt 0.827141 0.726747
vt 0.854825 0.696128
vt 0.866292 0.622207
vt 0.866292 0.523253
vt 0.625000 0.626833
vt 0.375000 0.626833
vt 0.361490 0.713925
vt 0.328873 0.750000
vt 0.291667 0.750000
vt 0.291667 0.500000
vt 0.708333 0.750000
vt 0.708333 0.726747
vt 0.708333 0.523253
vt 0.708333 0.500000
vt 0.375000 0.123167
vt 0.625000 0.123167
vt 0.208333 0.500000
vt 0.208333 0.750000
vt 0.671126 0.750000
vt 0.638510 0.713925
vt 0.633708 0.523253
vt 0.633708 0.622207
vt 0.645175 0.696128
vt 0.672859 0.726747
vt 0.625000 0.333333
vt 0.375000 0.333333
vt 0.375000 0.836320
vt 0.625000 0.836320
vt 0.625000 0.913680
vt 0.375000 0.913680
vt 0.710202 0.750000
vt 0.789798 0.750000
vt 0.789798 0.750000
vt 0.710202 0.750000
vt 0.788680 0.750000
vt 0.711320 0.750000
vt 0.712095 0.750000
vt 0.787905 0.750000
vt 0.125000 0.626833
vt 0.171127 0.750000
vt 0.138510 0.713925
vt 0.288680 0.750000
vt 0.211320 0.750000
vt 0.291667 0.726747
vt 0.208333 0.726747
vt 0.210202 0.750000
vt 0.289798 0.750000
vt 0.366292 0.523253
vt 0.366292 0.622207
vt 0.208333 0.523253
vt 0.291667 0.523253
vt 0.354825 0.696128
vt 0.327141 0.726747
vt 0.133708 0.622207
vt 0.145175 0.696128
vt 0.172859 0.726747
vt 0.133708 0.523253
vt 0.287905 0.750000
vt 0.289798 0.750000
vt 0.210202 0.750000
vt 0.212095 0.750000
vt 0.212094 0.750000
vt 0.125000 0.608573
vt 0.125000 1.000000
vt 0.000000 1.000000
vt 0.000000 0.608573
vt 0.750000 0.608573
vt 0.750000 1.000000
vt 0.625000 0.608573
vt 0.625000 0.608573
vt 0.500000 1.000000
vt 0.500000 0.608573
vt 0.500000 0.608573
vt 0.375000 0.608573
vt 0.375000 0.608573
vt 0.250000 1.000000
vt 0.250000 0.608573
vt 0.250000 0.608573
vt 0.125000 0.608573
vt 0.250000 0.400427
vt 0.143632 0.356368
vt 0.875000 0.608573
vt 0.875000 1.000000
vt 0.750000 0.608573
vt 1.000000 0.608573
vt 1.000000 1.000000
vt 0.875000 0.608573
vt 0.750000 0.490000
vt 0.919706 0.419706
vt 0.839931 0.339931
vt 0.750000 0.377182
vt 0.990000 0.250000
vt 0.877182 0.250000
vt 0.919706 0.080294
vt 0.839931 0.160069
vt 0.750000 0.010000
vt 0.750000 0.122818
vt 0.580294 0.080294
vt 0.660069 0.160069
vt 0.510000 0.250000
vt 0.622818 0.250000
vt 0.580294 0.419706
vt 0.660069 0.339931
vt 0.356368 0.356368
vt 0.419706 0.419706
vt 0.250000 0.490000
vt 0.400427 0.250000
vt 0.490000 0.250000
vt 0.356368 0.143632
vt 0.419706 0.080294
vt 0.250000 0.099573
vt 0.250000 0.010000
vt 0.143632 0.143632
vt 0.080294 0.080294
vt 0.099573 0.250000
vt 0.010000 0.250000
vt 0.080294 0.419706
vt 1.000000 0.500000
vt 0.750000 0.500000
vt 0.500000 0.500000
vt 0.250000 0.500000
vt 0.036201 0.250000
vt 0.098821 0.098821
vt 0.000000 0.500000
vt 0.250000 0.463799
vt 0.401179 0.401179
vt 0.463799 0.250000
vt 0.401179 0.098821
vt 0.250000 0.036201
vt 0.098821 0.401179
s 0
f 1/1/1 2/2/1 4/3/1 3/4/1
f 3/4/2 4/3/2 8/5/2 7/6/2
f 7/6/3 8/5/3 6/7/3 5/8/3
f 5/8/4 6/7/4 2/9/4 1/10/4
f 3/11/5 7/6/5 5/8/5 1/12/5
f 8/5/6 4/13/6 2/14/6 6/7/6
f 9/1/7 11/4/7 12/3/7 10/2/7
f 11/4/8 15/6/8 16/5/8 12/3/8
f 15/6/9 13/8/9 14/7/9 16/5/9
f 13/8/10 9/10/10 10/9/10 14/7/10
f 11/11/11 9/12/11 13/8/11 15/6/11
f 16/5/6 14/7/6 10/14/6 12/13/6
f 25/15/12 28/16/12 33/17/12 29/18/12
f 21/19/13 24/20/13 20/5/13 19/6/13
f 36/21/12 38/22/12 27/23/12 26/24/12
f 69/25/6 23/26/6 18/13/6 32/27/6 34/28/6 33/29/6 28/30/6 68/31/6 71/32/6 72/33/6 70/34/6 67/35/6
f 19/6/14 20/5/14 39/36/14 35/37/14
f 37/38/15 36/39/15 26/40/15 21/41/15 19/6/15 35/37/15
f 68/31/6 28/30/6 27/42/6 73/43/6
f 74/44/6 24/45/6 23/26/6 69/25/6
f 30/46/16 32/47/16 18/3/16 17/4/16
f 22/48/15 21/41/15 26/40/15 25/49/15
f 73/43/6 27/42/6 38/50/6 40/51/6 39/36/6 20/5/6 24/45/6 74/44/6 75/52/6 78/53/6 76/54/6 77/55/6
f 17/4/13 18/3/13 23/56/13 22/57/13
f 22/57/13 23/56/13 24/20/13 21/19/13
f 28/16/16 25/15/16 42/15/16 47/16/16
f 44/58/12 45/59/12 48/60/12 41/61/12
f 79/62/6 46/42/6 27/42/6 28/30/6 47/30/6 81/63/6 83/64/6 80/65/6
f 81/63/6 47/30/6 48/66/6 45/67/6 46/42/6 79/62/6 82/68/6 84/69/6
f 26/24/14 27/23/14 46/23/14 43/24/14
f 29/18/17 33/17/17 34/9/17 31/10/17
f 31/1/18 34/2/18 32/47/18 30/46/18
f 38/22/19 36/21/19 37/8/19 40/7/19
f 40/7/20 37/8/20 35/37/20 39/36/20
f 30/70/15 17/11/15 22/48/15 25/49/15 29/71/15 31/72/15
f 45/59/21 44/58/21 43/24/21 46/23/21
f 47/16/22 42/15/22 41/61/22 48/60/22
f 44/73/15 41/74/15 42/49/15 25/49/15 26/40/15 43/40/15
f 52/75/13 50/76/13 68/76/13 73/75/13
f 83/77/12 53/77/12 54/78/12 80/78/12
f 60/79/16 66/80/16 78/80/16 75/79/16
f 69/81/12 49/81/12 51/82/12 74/82/12
f 65/83/6 66/80/6 60/79/6 51/82/6 52/75/6 64/84/6
f 49/81/6 50/76/6 52/75/6 51/82/6
f 63/85/6 61/86/6 62/87/6 50/76/6 49/81/6 59/88/6
f 55/89/6 56/90/6 54/78/6 53/77/6 57/91/6 58/92/6
f 64/84/13 52/75/13 73/75/13 77/84/13
f 79/90/23 56/90/23 55/89/23 82/89/23
f 62/87/24 61/86/24 72/86/24 71/87/24
f 58/92/25 57/91/25 81/91/25 84/93/25
f 72/86/26 61/86/26 63/85/26 70/85/26
f 81/91/14 57/91/14 53/77/14 83/77/14
f 65/83/27 64/84/27 77/84/27 76/83/27
f 54/78/16 56/90/16 79/90/16 80/78/16
f 66/80/28 65/83/28 76/83/28 78/80/28
f 67/88/12 59/88/12 49/81/12 69/81/12
f 55/89/13 58/92/13 84/93/13 82/89/13
f 70/85/14 63/85/14 59/88/14 67/88/14
f 74/82/12 51/82/12 60/79/12 75/79/12
f 50/76/13 62/87/13 71/87/13 68/76/13
f 108/94/29 116/95/29 110/96/29 94/97/29
f 98/98/30 111/99/30 112/9/30 100/100/30
f 100/101/31 112/9/31 113/102/31 102/103/31
f 102/104/32 113/102/32 114/10/32 104/105/32
f 104/106/33 114/10/33 115/107/33 106/108/33
f 106/109/34 115/107/34 116/95/34 108/110/34
f 85/111/35 92/112/35 124/112/35 118/111/35
f 96/113/36 109/114/36 111/99/36 98/115/36
f 94/116/37 110/117/37 109/114/37 96/118/37
f 94/119/38 96/120/38 95/121/38 93/122/38
f 96/120/39 98/123/39 97/124/39 95/121/39
f 98/123/40 100/125/40 99/126/40 97/124/40
f 100/125/41 102/127/41 101/128/41 99/126/41
f 102/127/42 104/129/42 103/130/42 101/128/42
f 104/129/43 106/131/43 105/132/43 103/130/43
f 106/131/44 108/133/44 107/134/44 105/132/44
f 108/133/45 94/119/45 93/122/45 107/134/45
f 93/122/14 95/121/14 97/124/14 99/126/14 101/128/14 103/130/14 105/132/14 107/134/14
f 85/111/16 86/135/16 109/136/16 110/137/16
f 86/135/16 87/138/16 111/139/16 109/136/16
f 87/138/16 88/140/16 112/141/16 111/139/16
f 88/140/16 89/142/16 113/143/16 112/141/16
f 89/142/16 90/144/16 114/145/16 113/143/16
f 90/144/16 91/146/16 115/147/16 114/145/16
f 91/146/16 92/112/16 116/148/16 115/147/16
f 92/112/16 85/111/16 110/137/16 116/148/16
f 117/135/16 118/111/16 124/112/16 123/146/16 122/144/16 121/142/16 120/140/16 119/138/16
f 91/146/46 90/144/46 122/144/46 123/146/46
f 89/142/47 88/140/47 120/140/47 121/142/47
f 87/138/48 86/135/48 117/135/48 119/138/48
f 92/112/49 91/146/49 123/146/49 124/112/49
f 90/144/50 89/142/50 121/142/50 122/144/50
f 88/140/51 87/138/51 119/138/51 120/140/51
f 86/135/52 85/111/52 118/111/52 117/135/52
f 125/149/24 142/117/24 141/114/24 127/13/24
f 127/13/26 141/114/26 143/99/26 129/150/26
f 129/150/20 143/99/20 144/9/20 131/5/20
f 131/5/19 144/9/19 145/102/19 133/151/19
f 133/151/17 145/102/17 146/10/17 135/6/17
f 135/6/18 146/10/18 147/107/18 137/152/18
f 138/153/53 136/154/53 154/154/53 155/153/53
f 137/152/28 147/107/28 148/95/28 139/11/28
f 139/11/27 148/95/27 142/96/27 125/155/27
f 125/119/15 127/120/15 129/123/15 131/125/15 133/127/15 135/129/15 137/131/15 139/133/15
f 126/156/6 128/157/6 141/136/6 142/137/6
f 128/157/6 130/158/6 143/139/6 141/136/6
f 130/158/6 132/159/6 144/141/6 143/139/6
f 132/159/6 134/160/6 145/143/6 144/141/6
f 134/160/6 136/154/6 146/145/6 145/143/6
f 136/154/6 138/153/6 147/147/6 146/145/6
f 138/153/6 140/161/6 148/148/6 147/147/6
f 140/161/6 126/156/6 142/137/6 148/148/6
f 149/157/6 150/156/6 156/161/6 155/153/6 154/154/6 153/160/6 152/159/6 151/158/6
f 134/160/54 132/159/54 152/159/54 153/160/54
f 130/158/55 128/157/55 149/157/55 151/158/55
f 140/161/56 138/153/56 155/153/56 156/161/56
f 136/154/57 134/160/57 153/160/57 154/154/57
f 132/159/58 130/158/58 151/158/58 152/159/58
f 128/157/59 126/156/59 150/156/59 149/157/59
f 126/156/60 140/161/60 156/161/60 150/156/60
f 157/149/24 174/117/24 173/114/24 159/13/24
f 159/13/26 173/114/26 175/99/26 161/150/26
f 161/150/20 175/99/20 176/9/20 163/5/20
f 163/5/19 176/9/19 177/102/19 165/151/19
f 165/151/17 177/102/17 178/10/17 167/6/17
f 167/6/18 178/10/18 179/107/18 169/152/18
f 170/153/53 168/154/53 186/154/53 187/153/53
f 169/152/28 179/107/28 180/95/28 171/11/28
f 171/11/27 180/95/27 174/96/27 157/155/27
f 157/119/15 159/120/15 161/123/15 163/125/15 165/127/15 167/129/15 169/131/15 171/133/15
f 158/156/6 160/157/6 173/136/6 174/137/6
f 160/157/6 162/158/6 175/139/6 173/136/6
f 162/158/6 164/159/6 176/141/6 175/139/6
f 164/159/6 166/160/6 177/143/6 176/141/6
f 166/160/6 168/154/6 178/145/6 177/143/6
f 168/154/6 170/153/6 179/147/6 178/145/6
f 170/153/6 172/161/6 180/148/6 179/147/6
f 172/161/6 158/156/6 174/137/6 180/148/6
f 181/157/6 182/156/6 188/161/6 187/153/6 186/154/6 185/160/6 184/159/6 183/158/6
f 166/160/54 164/159/54 184/159/54 185/160/54
f 162/158/55 160/157/55 181/157/55 183/158/55
f 172/161/56 170/153/56 187/153/56 188/161/56
f 168/154/57 166/160/57 185/160/57 186/154/57
f 164/159/58 162/158/58 183/158/58 184/159/58
f 160/157/59 158/156/59 182/156/59 181/157/59
f 158/156/60 172/161/60 188/161/60 182/156/60
f 212/94/61 220/95/61 214/96/61 198/97/61
f 202/98/62 215/99/62 216/9/62 204/100/62
f 204/101/63 216/9/63 217/102/63 206/103/63
f 206/104/64 217/102/64 218/10/64 208/105/64
f 208/106/65 218/10/65 219/107/65 210/108/65
f 210/109/66 219/107/66 220/95/66 212/110/66
f 189/111/67 196/112/67 228/112/67 222/111/67
f 200/113/68 213/114/68 215/99/68 202/115/68
f 198/116/69 214/117/69 213/114/69 200/118/69
f 198/119/70 200/120/70 199/121/70 197/122/70
f 200/120/71 202/123/71 201/124/71 199/121/71
f 202/123/72 204/125/72 203/126/72 201/124/72
f 204/125/73 206/127/73 205/128/73 203/126/73
f 206/127/74 208/129/74 207/130/74 205/128/74
f 208/129/75 210/131/75 209/132/75 207/130/75
f 210/131/76 212/133/76 211/134/76 209/132/76
f 212/133/77 198/119/77 197/122/77 211/134/77
f 197/122/13 199/121/13 201/124/13 203/126/13 205/128/13 207/130/13 209/132/13 211/134/13
f 189/111/12 190/135/12 213/136/12 214/137/12
f 190/135/12 191/138/12 215/139/12 213/136/12
f 191/138/12 192/140/12 216/141/12 215/139/12
f 192/140/12 193/142/12 217/143/12 216/141/12
f 193/142/12 194/144/12 218/145/12 217/143/12
f 194/144/12 195/146/12 219/147/12 218/145/12
f 195/146/12 196/112/12 220/148/12 219/147/12
f 196/112/12 189/111/12 214/137/12 220/148/12
f 221/135/12 222/111/12 228/112/12 227/146/12 226/144/12 225/142/12 224/140/12 223/138/12
f 195/146/78 194/144/78 226/144/78 227/146/78
f 193/142/79 192/140/79 224/140/79 225/142/79
f 191/138/80 190/135/80 221/135/80 223/138/80
f 196/112/81 195/146/81 227/146/81 228/112/81
f 194/144/82 193/142/82 225/142/82 226/144/82
f 192/140/83 191/138/83 223/138/83 224/140/83
f 190/135/84 189/111/84 222/111/84 221/135/84
f 229/1/16 230/2/16 232/3/16 231/4/16
f 231/4/13 232/3/13 236/5/13 235/6/13
f 235/6/14 236/5/14 234/7/14 233/8/14
f 233/8/12 234/7/12 230/9/12 229/10/12
f 231/11/15 235/6/15 233/8/15 229/12/15
f 236/5/6 232/13/6 230/14/6 234/7/6
