# Blender 4.4.3
# www.blender.org
mtllib TurretBarrel.mtl
o Cube
v -0.227611 0.979892 -1.948001
v -0.227611 1.485817 -1.948001
v -0.227611 0.979892 -2.602579
v 0.404238 0.979892 -1.948001
v 0.404238 1.485817 -1.948001
v 0.404238 0.979892 -2.602579
v -0.227611 1.485817 -2.475166
v -0.227611 1.138199 -2.721207
v 0.404238 1.138199 -2.721207
v 0.404238 1.485817 -2.475166
v -0.000000 1.072973 -4.859331
v -0.000000 1.072973 -6.443192
v 0.076014 1.104459 -4.859331
v 0.076014 1.104459 -6.443192
v 0.107500 1.180473 -4.859331
v 0.107500 1.180473 -6.443192
v 0.076014 1.256487 -4.859331
v 0.076014 1.256487 -6.443192
v -0.000000 1.287973 -4.859331
v -0.000000 1.287973 -6.443192
v -0.076014 1.256487 -4.859331
v -0.076014 1.256487 -6.443192
v -0.107500 1.180473 -4.859331
v -0.107500 1.180473 -6.443192
v -0.076014 1.104459 -4.859331
v -0.076014 1.104459 -6.443192
v 0.090001 1.090472 -6.495089
v -0.000000 1.053192 -6.495089
v 0.127281 1.180473 -6.495089
v 0.090001 1.270474 -6.495089
v -0.000000 1.307754 -6.495089
v -0.090001 1.270474 -6.495089
v -0.127281 1.180473 -6.495089
v -0.090001 1.090472 -6.495089
v 0.090001 1.090472 -6.572931
v -0.000000 1.053192 -6.572931
v 0.127281 1.180473 -6.572931
v 0.090001 1.270474 -6.572931
v -0.000000 1.307754 -6.572931
v -0.090001 1.270474 -6.572931
v -0.127281 1.180473 -6.572931
v -0.090001 1.090472 -6.572931
v 0.062475 1.117998 -6.621774
v 0.000000 1.092120 -6.621774
v 0.088353 1.180473 -6.621774
v 0.062475 1.242948 -6.621774
v 0.000000 1.268826 -6.621774
v -0.062475 1.242948 -6.621774
v -0.088353 1.180473 -6.621774
v -0.062475 1.117998 -6.621774
v 0.035988 1.144485 -6.867515
v 0.000000 1.129578 -6.867515
v 0.050895 1.180473 -6.867515
v 0.035988 1.216461 -6.867515
v 0.000000 1.231368 -6.867515
v -0.035988 1.216461 -6.867515
v -0.050895 1.180473 -6.867515
v -0.035988 1.144485 -6.867515
v 0.062475 1.117998 -6.867515
v 0.000000 1.092120 -6.867515
v 0.088353 1.180473 -6.867515
v 0.062475 1.242948 -6.867515
v 0.000000 1.268826 -6.867515
v -0.062475 1.242948 -6.867515
v -0.088353 1.180473 -6.867515
v -0.062475 1.117998 -6.867515
v 0.035988 1.144485 -6.714369
v 0.000000 1.129578 -6.714369
v 0.050895 1.180473 -6.714369
v 0.035988 1.216461 -6.714369
v 0.000000 1.231368 -6.714369
v -0.035988 1.216461 -6.714369
v -0.050895 1.180473 -6.714369
v -0.035988 1.144485 -6.714369
v -0.000000 1.058856 -4.090327
v 0.085996 1.094477 -4.090327
v 0.121617 1.180473 -4.090327
v 0.085996 1.266469 -4.090327
v -0.000000 1.302090 -4.090327
v -0.085996 1.266469 -4.090327
v -0.121617 1.180473 -4.090327
v -0.085996 1.094477 -4.090327
v -0.000000 1.058856 -3.670306
v 0.085996 1.094477 -3.670306
v 0.121617 1.180473 -3.670306
v 0.085996 1.266469 -3.670306
v -0.000000 1.302090 -3.670306
v -0.085996 1.266469 -3.670306
v -0.121617 1.180473 -3.670306
v -0.085996 1.094477 -3.670306
v -0.000000 1.027040 -4.859331
v 0.108493 1.071980 -4.859331
v 0.139705 1.213615 -4.748526
v 0.108493 1.288966 -4.748526
v -0.000000 1.333906 -4.748526
v -0.108493 1.288966 -4.748526
v -0.139705 1.213615 -4.748526
v -0.108493 1.071980 -4.859331
v -0.000000 1.027040 -4.091728
v 0.108493 1.071979 -4.091728
v 0.139705 1.213615 -4.161016
v 0.108493 1.288966 -4.161016
v -0.000000 1.333906 -4.161016
v -0.108493 1.288966 -4.161016
v -0.139705 1.213615 -4.161016
v -0.108493 1.071979 -4.091728
v -0.000000 1.058856 -3.550743
v 0.085996 1.094477 -3.550743
v 0.121617 1.180473 -3.550743
v 0.085996 1.266469 -3.550743
v -0.000000 1.302090 -3.550743
v -0.085996 1.266469 -3.550743
v -0.121617 1.180473 -3.550743
v -0.085996 1.094477 -3.550743
v -0.000000 1.058856 -3.076305
v 0.085996 1.094477 -3.076305
v 0.121617 1.180473 -3.076305
v 0.085996 1.266469 -3.076305
v -0.000000 1.302090 -3.076305
v -0.085996 1.266469 -3.076305
v -0.121617 1.180473 -3.076305
v -0.085996 1.094477 -3.076305
v -0.000000 1.003850 -3.035603
v 0.124891 1.055581 -3.035603
v 0.176623 1.180473 -3.035603
v 0.124891 1.305364 -3.035603
v -0.000000 1.357096 -3.035603
v -0.124892 1.305364 -3.035603
v -0.176623 1.180473 -3.035603
v -0.124892 1.055581 -3.035603
v -0.000000 1.029594 -3.653266
v 0.106687 1.073786 -3.653266
v 0.150878 1.180473 -3.653266
v 0.106687 1.287160 -3.653266
v -0.000000 1.331351 -3.653266
v -0.106687 1.287160 -3.653266
v -0.150878 1.180473 -3.653266
v -0.106687 1.073786 -3.653266
v -0.000000 1.029594 -3.567783
v 0.106687 1.073786 -3.567783
v 0.150878 1.180473 -3.567783
v 0.106687 1.287160 -3.567783
v -0.000000 1.331351 -3.567783
v -0.106687 1.287160 -3.567783
v -0.150878 1.180473 -3.567783
v -0.106687 1.073786 -3.567783
v -0.000000 0.996334 -2.436727
v 0.130206 1.050267 -2.436727
v 0.184139 1.180473 -2.436727
v 0.130206 1.310679 -2.436727
v -0.000000 1.364612 -2.436727
v -0.130206 1.310679 -2.436727
v -0.184139 1.180473 -2.436727
v -0.130206 1.050267 -2.436727
v 0.153433 1.180473 -4.859331
v 0.108493 1.288966 -4.859331
v -0.000000 1.333906 -4.859331
v -0.108493 1.288966 -4.859331
v -0.153433 1.180473 -4.859331
v 0.153433 1.180473 -4.091728
v 0.108493 1.288966 -4.091728
v -0.000000 1.333906 -4.091728
v -0.108493 1.288966 -4.091728
v -0.153433 1.180473 -4.091728
v -0.000000 1.391660 -4.748526
v -0.000000 1.391660 -4.161016
v 0.090634 1.360183 -4.161016
v 0.090634 1.360183 -4.748526
v -0.090634 1.360183 -4.748526
v -0.090634 1.360183 -4.161016
v 0.134168 1.273817 -4.748526
v -0.134168 1.273817 -4.748526
v 0.134168 1.273817 -4.161016
v -0.134168 1.273817 -4.161016
vn -0.0000 -0.5997 -0.8002
vn 1.0000 -0.0000 -0.0000
vn -0.0000 -0.0000 1.0000
vn -0.0000 -1.0000 -0.0000
vn -1.0000 -0.0000 -0.0000
vn -0.0000 0.5777 -0.8162
vn -0.0000 1.0000 -0.0000
vn 0.3827 -0.9239 -0.0000
vn 0.9239 -0.3827 -0.0000
vn 0.9239 0.3827 -0.0000
vn 0.3827 0.9239 -0.0000
vn -0.3827 0.9239 -0.0000
vn -0.9239 0.3827 -0.0000
vn 0.3610 0.8714 0.3322
vn -0.9239 -0.3827 -0.0000
vn -0.3827 -0.9239 -0.0000
vn 0.0440 0.0182 0.9989
vn -0.8714 -0.3610 0.3322
vn 0.8714 -0.3610 0.3322
vn -0.3610 0.8714 0.3322
vn -0.3610 -0.8714 0.3322
vn 0.3610 -0.8714 0.3322
vn 0.8714 0.3610 0.3322
vn -0.8714 0.3610 0.3322
vn -0.7440 -0.3082 -0.5929
vn -0.3082 0.7440 -0.5929
vn 0.7440 0.3082 -0.5929
vn 0.3082 -0.7440 -0.5929
vn -0.3082 -0.7440 -0.5929
vn -0.7440 0.3082 -0.5929
vn 0.3082 0.7440 -0.5929
vn 0.7440 -0.3082 -0.5929
vn -0.0000 -0.0000 -1.0000
vn 0.0440 -0.0182 0.9989
vn 0.0182 -0.0440 0.9989
vn -0.0182 -0.0440 0.9989
vn -0.0440 -0.0182 0.9989
vn -0.2041 -0.4926 0.8460
vn 0.0182 0.0440 0.9989
vn -0.0182 0.0440 0.9989
vn -0.0440 0.0182 0.9989
vn 0.2041 0.4926 -0.8460
vn -0.4926 -0.2041 0.8460
vn 0.4926 0.2041 -0.8460
vn -0.4926 0.2041 0.8460
vn 0.4926 -0.2041 -0.8460
vn -0.2041 0.4926 0.8460
vn 0.2041 -0.4926 -0.8460
vn 0.2392 -0.5776 -0.7805
vn -0.9238 -0.3827 -0.0116
vn -0.2392 -0.5776 -0.7805
vn -0.5776 0.2392 -0.7805
vn 0.2392 0.5776 -0.7805
vn 0.5776 -0.2392 -0.7805
vn -0.5776 -0.2392 -0.7805
vn -0.2392 0.5776 -0.7805
vn 0.5776 0.2392 -0.7805
vn 0.2041 -0.4926 0.8460
vn -0.2041 0.4926 -0.8460
vn 0.4926 -0.2041 0.8460
vn -0.4926 0.2041 -0.8460
vn 0.4926 0.2041 0.8460
vn -0.4926 -0.2041 -0.8460
vn 0.2041 0.4926 0.8460
vn -0.2041 -0.4926 -0.8460
vn -0.3827 0.9238 -0.0116
vn 0.9238 0.3827 -0.0116
vn 0.3827 -0.9238 -0.0116
vn -0.3827 -0.9238 -0.0116
vn -0.9238 0.3827 -0.0116
vn 0.3827 0.9238 -0.0116
vn 0.9238 -0.3827 -0.0116
vn 0.3281 0.9447 -0.0000
vn -0.3281 0.9447 -0.0000
vn 0.8930 0.4501 -0.0000
vn -0.8930 0.4501 -0.0000
vn -0.9958 0.0916 -0.0000
vn 0.9958 0.0916 -0.0000
vt 0.375000 0.250000
vt 0.546345 0.250000
vt 0.546345 0.500000
vt 0.375000 0.500000
vt 0.625000 0.558696
vt 0.625000 0.750000
vt 0.375000 0.750000
vt 0.625000 1.000000
vt 0.375000 1.000000
vt 0.125000 0.500000
vt 0.125000 0.750000
vt 0.375000 0.000000
vt 0.625000 0.000000
vt 0.625000 0.191304
vt 0.625000 0.250000
vt 0.625000 0.500000
vt 0.875000 0.558696
vt 0.875000 0.750000
vt 1.000000 0.500000
vt 1.000000 1.000000
vt 0.875000 1.000000
vt 0.875000 0.500000
vt 0.750000 1.000000
vt 0.750000 0.500000
vt 0.500000 1.000000
vt 0.500000 0.500000
vt 0.250000 1.000000
vt 0.250000 0.500000
vt 0.125000 1.000000
vt 0.000000 1.000000
vt 0.000000 0.500000
vt 0.250000 0.111750
vt 0.347758 0.152242
vt 0.250000 0.388250
vt 0.347758 0.347757
vt 0.419706 0.419706
vt 0.250000 0.490000
vt 0.388250 0.250000
vt 0.490000 0.250000
vt 0.419706 0.080294
vt 0.250000 0.010000
vt 0.152243 0.152243
vt 0.080294 0.080294
vt 0.111750 0.250000
vt 0.010000 0.250000
vt 0.152243 0.347758
vt 0.080294 0.419706
vt 0.711815 0.500000
vt 0.288185 0.500000
vt 0.711815 0.500000
vt 0.288185 0.500000
vt 0.750000 0.490000
vt 0.919706 0.419706
vt 0.990000 0.250000
vt 0.919706 0.080294
vt 0.750000 0.010000
vt 0.580294 0.080294
vt 0.510000 0.250000
vt 0.580294 0.419706
s 0
f 3/1/1 8/2/1 9/3/1 6/4/1
f 6/4/2 9/3/2 10/5/2 5/6/2 4/7/2
f 4/7/3 5/6/3 2/8/3 1/9/3
f 3/10/4 6/4/4 4/7/4 1/11/4
f 1/12/5 2/13/5 7/14/5 8/2/5 3/1/5
f 7/15/6 10/16/6 9/3/6 8/2/6
f 10/5/7 7/17/7 2/18/7 5/6/7
f 11/19/8 12/20/8 14/21/8 13/22/8
f 13/22/9 14/21/9 16/23/9 15/24/9
f 15/24/10 16/23/10 18/8/10 17/16/10
f 17/16/11 18/8/11 20/25/11 19/26/11
f 19/26/12 20/25/12 22/9/12 21/4/12
f 21/4/13 22/9/13 24/27/13 23/28/13
f 20/25/14 18/8/14 30/8/14 31/25/14
f 23/28/15 24/27/15 26/29/15 25/10/15
f 25/10/16 26/29/16 12/30/16 11/31/16
f 78/16/17 77/24/17 160/24/17 161/16/17
f 27/21/8 28/20/8 36/20/8 35/21/8
f 26/29/18 24/27/18 33/27/18 34/29/18
f 16/23/19 14/21/19 27/21/19 29/23/19
f 22/9/20 20/25/20 31/25/20 32/9/20
f 12/30/21 26/29/21 34/29/21 28/30/21
f 14/21/22 12/20/22 28/20/22 27/21/22
f 18/8/23 16/23/23 29/23/23 30/8/23
f 24/27/24 22/9/24 32/9/24 33/27/24
f 42/29/25 41/27/25 49/27/25 50/29/25
f 28/30/16 34/29/16 42/29/16 36/30/16
f 33/27/13 32/9/13 40/9/13 41/27/13
f 31/25/11 30/8/11 38/8/11 39/25/11
f 29/23/9 27/21/9 35/21/9 37/23/9
f 34/29/15 33/27/15 41/27/15 42/29/15
f 32/9/12 31/25/12 39/25/12 40/9/12
f 30/8/10 29/23/10 37/23/10 38/8/10
f 45/23/9 43/21/9 59/21/9 61/23/9
f 40/9/26 39/25/26 47/25/26 48/9/26
f 38/8/27 37/23/27 45/23/27 46/8/27
f 35/21/28 36/20/28 44/20/28 43/21/28
f 36/30/29 42/29/29 50/29/29 44/30/29
f 41/27/30 40/9/30 48/9/30 49/27/30
f 39/25/31 38/8/31 46/8/31 47/25/31
f 37/23/32 35/21/32 43/21/32 45/23/32
f 55/32/16 54/33/16 70/33/16 71/32/16
f 50/29/15 49/27/15 65/27/15 66/29/15
f 48/9/12 47/25/12 63/25/12 64/9/12
f 46/8/10 45/23/10 61/23/10 62/8/10
f 43/21/8 44/20/8 60/20/8 59/21/8
f 44/30/16 50/29/16 66/29/16 60/30/16
f 49/27/13 48/9/13 64/9/13 65/27/13
f 47/25/11 46/8/11 62/8/11 63/25/11
f 52/34/33 51/35/33 59/36/33 60/37/33
f 51/35/33 53/38/33 61/39/33 59/36/33
f 53/38/33 54/33/33 62/40/33 61/39/33
f 54/33/33 55/32/33 63/41/33 62/40/33
f 55/32/33 56/42/33 64/43/33 63/41/33
f 56/42/33 57/44/33 65/45/33 64/43/33
f 57/44/33 58/46/33 66/47/33 65/45/33
f 58/46/33 52/34/33 60/37/33 66/47/33
f 67/35/33 68/34/33 74/46/33 73/44/33 72/42/33 71/32/33 70/33/33 69/38/33
f 53/38/13 51/35/13 67/35/13 69/38/13
f 58/46/10 57/44/10 73/44/10 74/46/10
f 56/42/8 55/32/8 71/32/8 72/42/8
f 54/33/15 53/38/15 69/38/15 70/33/15
f 51/35/12 52/34/12 68/34/12 67/35/12
f 52/34/11 58/46/11 74/46/11 68/34/11
f 57/44/9 56/42/9 72/42/9 73/44/9
f 79/26/12 80/4/12 88/4/12 87/26/12
f 17/16/33 19/26/33 157/26/33 156/16/33
f 77/24/34 76/22/34 100/22/34 160/24/34
f 76/22/35 75/19/35 99/19/35 100/22/35
f 21/4/33 23/28/33 159/28/33 158/4/33
f 75/31/36 82/10/36 106/10/36 99/31/36
f 82/10/37 81/28/37 164/28/37 106/10/37
f 11/19/33 13/22/33 92/22/33 91/19/33
f 107/31/38 114/10/38 146/10/38 139/31/38
f 77/24/10 78/16/10 86/16/10 85/24/10
f 75/19/8 76/22/8 84/22/8 83/19/8
f 82/10/16 75/31/16 83/31/16 90/10/16
f 80/4/13 81/28/13 89/28/13 88/4/13
f 78/16/11 79/26/11 87/26/11 86/16/11
f 76/22/9 77/24/9 85/24/9 84/22/9
f 81/28/15 82/10/15 90/10/15 89/28/15
f 102/16/3 101/48/3 173/48/3 167/16/3
f 159/28/15 98/10/15 106/10/15 164/28/15
f 92/22/9 155/24/9 160/24/9 100/22/9
f 105/49/3 104/4/3 170/4/3 174/49/3
f 98/10/16 91/31/16 99/31/16 106/10/16
f 91/19/8 92/22/8 100/22/8 99/19/8
f 93/50/33 94/16/33 168/16/33 171/50/33
f 96/4/33 97/51/33 172/51/33 169/4/33
f 13/22/33 15/24/33 155/24/33 92/22/33
f 23/28/33 25/10/33 98/10/33 159/28/33
f 79/26/39 78/16/39 161/16/39 162/26/39
f 80/4/40 79/26/40 162/26/40 163/4/40
f 19/26/33 21/4/33 158/4/33 157/26/33
f 81/28/41 80/4/41 163/4/41 164/28/41
f 15/24/33 17/16/33 156/16/33 155/24/33
f 25/10/33 11/31/33 91/31/33 98/10/33
f 112/4/13 113/28/13 121/28/13 120/4/13
f 86/16/42 87/26/42 135/26/42 134/16/42
f 114/10/43 113/28/43 145/28/43 146/10/43
f 85/24/44 86/16/44 134/16/44 133/24/44
f 113/28/45 112/4/45 144/4/45 145/28/45
f 84/22/46 85/24/46 133/24/46 132/22/46
f 112/4/47 111/26/47 143/26/47 144/4/47
f 83/19/48 84/22/48 132/22/48 131/19/48
f 115/19/49 116/22/49 124/22/49 123/19/49
f 110/16/11 111/26/11 119/26/11 118/16/11
f 108/22/9 109/24/9 117/24/9 116/22/9
f 113/28/15 114/10/15 122/10/15 121/28/15
f 111/26/12 112/4/12 120/4/12 119/26/12
f 109/24/10 110/16/10 118/16/10 117/24/10
f 107/19/8 108/22/8 116/22/8 115/19/8
f 114/10/16 107/31/16 115/31/16 122/10/16
f 129/28/50 130/10/50 154/10/50 153/28/50
f 122/10/51 115/31/51 123/31/51 130/10/51
f 120/4/52 121/28/52 129/28/52 128/4/52
f 118/16/53 119/26/53 127/26/53 126/16/53
f 116/22/54 117/24/54 125/24/54 124/22/54
f 121/28/55 122/10/55 130/10/55 129/28/55
f 119/26/56 120/4/56 128/4/56 127/26/56
f 117/24/57 118/16/57 126/16/57 125/24/57
f 138/10/16 131/31/16 139/31/16 146/10/16
f 136/4/13 137/28/13 145/28/13 144/4/13
f 134/16/11 135/26/11 143/26/11 142/16/11
f 132/22/9 133/24/9 141/24/9 140/22/9
f 137/28/15 138/10/15 146/10/15 145/28/15
f 135/26/12 136/4/12 144/4/12 143/26/12
f 133/24/10 134/16/10 142/16/10 141/24/10
f 131/19/8 132/22/8 140/22/8 139/19/8
f 108/22/58 107/19/58 139/19/58 140/22/58
f 87/26/59 88/4/59 136/4/59 135/26/59
f 109/24/60 108/22/60 140/22/60 141/24/60
f 88/4/61 89/28/61 137/28/61 136/4/61
f 110/16/62 109/24/62 141/24/62 142/16/62
f 89/28/63 90/10/63 138/10/63 137/28/63
f 111/26/64 110/16/64 142/16/64 143/26/64
f 90/10/65 83/31/65 131/31/65 138/10/65
f 147/52/3 148/53/3 149/54/3 150/55/3 151/56/3 152/57/3 153/58/3 154/59/3
f 127/26/66 128/4/66 152/4/66 151/26/66
f 125/24/67 126/16/67 150/16/67 149/24/67
f 123/19/68 124/22/68 148/22/68 147/19/68
f 130/10/69 123/31/69 147/31/69 154/10/69
f 128/4/70 129/28/70 153/28/70 152/4/70
f 126/16/71 127/26/71 151/26/71 150/16/71
f 124/22/72 125/24/72 149/24/72 148/22/72
f 94/16/10 93/50/10 155/24/10 156/16/10
f 95/26/11 94/16/11 156/16/11 157/26/11
f 96/4/12 95/26/12 157/26/12 158/4/12
f 97/51/13 96/4/13 158/4/13 159/28/13
f 101/48/10 102/16/10 161/16/10 160/24/10
f 102/16/11 103/26/11 162/26/11 161/16/11
f 103/26/12 104/4/12 163/4/12 162/26/12
f 104/4/13 105/49/13 164/28/13 163/4/13
f 105/49/13 97/51/13 159/28/13 164/28/13
f 93/50/10 101/48/10 160/24/10 155/24/10
f 168/16/73 165/26/73 166/26/73 167/16/73
f 165/26/74 169/4/74 170/4/74 166/26/74
f 171/50/75 168/16/75 167/16/75 173/48/75
f 169/4/76 172/51/76 174/49/76 170/4/76
f 94/16/33 95/26/33 165/26/33 168/16/33
f 97/51/77 105/49/77 174/49/77 172/51/77
f 103/26/3 102/16/3 167/16/3 166/26/3
f 95/26/33 96/4/33 169/4/33 165/26/33
f 101/48/78 93/50/78 171/50/78 173/48/78
f 104/4/3 103/26/3 166/26/3 170/4/3
