# Blender 4.4.3
# www.blender.org
mtllib Mag22.mtl
o Cube.004
v -0.037678 -0.024032 0.780159
v -0.020614 -0.058262 0.780159
v -0.020614 0.092900 0.780159
v -0.037678 0.058670 0.780159
v -0.020614 -0.058262 0.664431
v -0.037678 -0.024032 0.664431
v -0.037678 0.058670 0.664431
v -0.020614 0.092900 0.664431
v 0.020614 -0.058262 0.780159
v 0.037678 -0.024032 0.780159
v 0.037678 0.058670 0.780159
v 0.020614 0.092900 0.780159
v 0.037678 -0.024032 0.664431
v 0.020614 -0.058262 0.664431
v 0.020614 0.092900 0.664431
v 0.037678 0.058670 0.664431
v -0.046868 -0.297107 1.478347
v -0.022625 -0.322802 1.473816
v -0.022625 0.046888 1.539003
v -0.046868 0.021193 1.534472
v 0.022625 -0.322802 1.473816
v 0.046868 -0.297107 1.478347
v 0.046868 0.021193 1.534472
v 0.022625 0.046888 1.539003
v -0.022625 -0.296421 1.421319
v -0.046868 -0.270635 1.425865
v -0.046868 -0.292607 1.452830
v -0.022625 -0.318275 1.448139
v -0.046868 0.025692 1.508955
v -0.022625 0.051416 1.513325
v -0.046868 0.014268 1.476101
v -0.022625 0.040053 1.480648
v 0.046868 -0.292607 1.452830
v 0.022625 -0.318275 1.448139
v 0.046868 -0.270635 1.425865
v 0.022625 -0.296421 1.421319
v 0.022625 0.040053 1.480648
v 0.046868 0.014268 1.476101
v 0.046868 0.025692 1.508955
v 0.022625 0.051416 1.513325
v -0.013534 -0.307184 1.497134
v -0.028037 -0.284148 1.501196
v 0.028037 -0.284148 1.501196
v 0.013535 -0.307184 1.497134
v -0.028037 0.001201 1.551511
v -0.013534 0.024236 1.555573
v 0.013535 0.024236 1.555573
v 0.028037 0.001201 1.551511
v 0.093284 0.074475 0.635614
v 0.093284 -0.032205 0.635614
v 0.026169 0.074475 0.635614
v 0.026169 -0.032205 0.635614
v 0.026169 0.074475 0.708877
v 0.026169 -0.032205 0.708877
v 0.093284 0.074475 0.679654
v 0.066514 0.074475 0.708877
v 0.066514 -0.032205 0.708877
v 0.093284 -0.032205 0.679654
vn -0.0000 -0.0000 1.0000
vn 1.0000 -0.0000 -0.0000
vn -0.0000 1.0000 -0.0000
vn -1.0000 -0.0000 -0.0000
vn -0.0000 -0.0000 -1.0000
vn -0.8950 -0.4462 -0.0000
vn -0.8950 0.4462 -0.0000
vn 0.8950 -0.4462 -0.0000
vn 0.8950 0.4462 -0.0000
vn -0.0000 -1.0000 -0.0000
vn -0.0000 0.9445 -0.3284
vn -0.0000 -0.9848 -0.1736
vn 0.7323 -0.1182 0.6706
vn -0.0000 -0.7752 -0.6317
vn -0.0000 0.1736 -0.9848
vn -0.0000 0.9848 0.1736
vn 0.6861 -0.5640 -0.4596
vn -0.6861 -0.5640 -0.4596
vn -0.6861 0.6872 -0.2390
vn 0.6861 0.6872 -0.2390
vn -0.7326 -0.6703 -0.1182
vn 0.7326 -0.6703 -0.1182
vn -0.7326 0.6703 0.1182
vn 0.7326 0.6703 0.1182
vn -0.0000 -0.1736 0.9848
vn 0.5314 -0.5379 0.6544
vn -0.5314 -0.5379 0.6544
vn 0.5314 0.2817 0.7989
vn -0.0000 0.5904 0.8071
vn -0.0000 -0.8308 0.5565
vn -0.7323 -0.1182 0.6706
vn -0.5314 0.2817 0.7989
vn 0.7374 -0.0000 0.6755
vt 0.375000 0.806611
vt 0.431611 0.750000
vt 0.568389 0.750000
vt 0.625000 0.806611
vt 0.625000 0.943389
vt 0.568389 1.000000
vt 0.431611 1.000000
vt 0.375000 0.943389
vt 0.431611 0.500000
vt 0.568389 0.500000
vt 0.681611 0.500000
vt 0.818389 0.500000
vt 0.818389 0.750000
vt 0.681611 0.750000
vt 0.431611 0.000000
vt 0.568389 0.000000
vt 0.568389 0.250000
vt 0.431611 0.250000
vt 0.375000 0.306611
vt 0.625000 0.306611
vt 0.625000 0.443389
vt 0.375000 0.443389
vt 0.181611 0.500000
vt 0.181611 0.750000
vt 0.125000 0.750000
vt 0.125000 0.500000
vt 0.625000 0.000000
vt 0.625000 0.250000
vt 0.318389 0.750000
vt 0.318389 0.500000
vt 0.625000 0.267376
vt 0.625000 0.482624
vt 0.613769 0.482624
vt 0.613769 0.267376
vt 0.392376 0.540522
vt 0.403668 0.500000
vt 0.596331 0.500000
vt 0.607624 0.540522
vt 0.607624 0.750000
vt 0.392376 0.750000
vt 0.142376 0.511231
vt 0.357624 0.511231
vt 0.357624 0.750000
vt 0.142376 0.750000
vt 0.142376 0.500000
vt 0.357624 0.500000
vt 0.386231 0.267376
vt 0.403668 0.250000
vt 0.596331 0.250000
vt 0.403668 0.500000
vt 0.386231 0.482624
vt 0.642377 0.511231
vt 0.857623 0.511231
vt 0.857623 0.750000
vt 0.642377 0.750000
vt 0.375000 0.500000
vt 0.375000 0.511171
vt 0.125000 0.511171
vt 0.607623 0.209478
vt 0.625000 0.238769
vt 0.613769 0.250000
vt 0.613769 0.500000
vt 0.625000 0.511231
vt 0.125000 0.512728
vt 0.607624 0.000000
vt 0.392376 0.000000
vt 0.403668 0.250000
vt 0.392376 0.209478
vt 0.375000 0.767376
vt 0.625000 0.767376
vt 0.625000 0.982624
vt 0.607624 1.000000
vt 0.392376 1.000000
vt 0.375000 0.982624
vt 0.375000 0.349718
vt 0.625000 0.500000
vt 0.625000 0.349718
vt 0.625000 0.750000
vt 0.875000 0.750000
vt 0.875000 0.599718
vt 0.775282 0.500000
vt 0.375000 0.750000
vt 0.375000 1.000000
vt 0.625000 1.000000
vt 0.375000 0.000000
vt 0.375000 0.150282
vt 0.625000 0.150282
vt 0.125000 0.599718
vt 0.224718 0.500000
s 0
f 9/1/1 10/2/1 11/3/1 12/4/1 3/5/1 4/6/1 1/7/1 2/8/1
f 13/9/2 16/10/2 11/3/2 10/2/2
f 15/11/3 8/12/3 3/13/3 12/14/3
f 1/15/4 4/16/4 7/17/4 6/18/4
f 5/19/5 6/18/5 7/17/5 8/20/5 15/21/5 16/10/5 13/9/5 14/22/5
f 5/23/6 2/24/6 1/25/6 6/26/6
f 3/27/7 8/28/7 7/17/7 4/16/7
f 9/29/8 14/30/8 13/9/8 10/2/8
f 15/11/9 12/14/9 11/3/9 16/10/9
f 5/23/10 14/30/10 9/29/10 2/24/10
f 30/31/11 40/32/11 37/33/11 32/34/11
f 33/35/2 35/36/2 38/37/2 39/38/2 23/39/2 22/40/2
f 28/41/12 34/42/12 21/43/12 18/44/12
f 22/40/13 23/39/13 48/39/13 43/40/13
f 34/42/14 28/41/14 25/45/14 36/46/14
f 25/47/15 26/48/15 31/49/15 32/34/15 37/33/15 38/37/15 35/50/15 36/51/15
f 40/52/16 30/53/16 19/54/16 24/55/16
f 35/56/17 33/57/17 34/42/17 36/46/17
f 27/58/18 26/26/18 25/45/18 28/41/18
f 31/49/19 29/59/19 30/60/19 32/61/19
f 39/38/20 38/37/20 37/62/20 40/63/20
f 17/25/21 27/64/21 28/41/21 18/44/21
f 33/35/22 22/40/22 21/43/22 34/42/22
f 19/27/23 30/60/23 29/59/23 20/65/23
f 23/39/24 39/38/24 40/52/24 24/55/24
f 17/66/4 20/65/4 29/59/4 31/49/4 26/67/4 27/68/4
f 44/69/25 43/40/25 48/39/25 47/70/25 46/71/25 45/72/25 42/73/25 41/74/25
f 21/43/26 22/40/26 43/40/26 44/43/26
f 17/25/27 18/44/27 41/44/27 42/25/27
f 23/39/28 24/55/28 47/55/28 48/39/28
f 24/55/29 19/54/29 46/54/29 47/55/29
f 18/44/30 21/43/30 44/43/30 41/44/30
f 20/65/31 17/66/31 42/66/31 45/65/31
f 19/27/32 20/65/32 45/65/32 46/27/32
f 56/75/1 53/56/1 54/76/1 57/77/1
f 54/76/10 52/78/10 50/79/10 58/80/10 57/81/10
f 53/56/4 51/82/4 52/78/4 54/76/4
f 51/82/5 49/83/5 50/84/5 52/78/5
f 49/85/2 55/86/2 58/87/2 50/27/2
f 57/77/33 58/87/33 55/86/33 56/75/33
f 55/88/3 49/25/3 51/82/3 53/56/3 56/89/3
