# Blender 4.4.3
# www.blender.org
mtllib Slide.mtl
o Cube.010_Cube.004
v 0.005040 0.131005 0.057807
v 0.005040 0.148560 0.057807
v 0.005040 0.148560 -0.243303
v 0.005040 0.131005 -0.243303
v 0.016009 0.148560 -0.243303
v 0.029639 0.131005 -0.243303
v 0.016009 0.148560 0.057807
v 0.029639 0.131005 0.057807
v 0.005040 0.052588 -0.243303
v 0.055874 0.052588 -0.243303
v 0.055874 0.052588 0.057807
v 0.005040 0.052588 0.057807
v 0.055874 0.077516 0.057807
v 0.005040 0.077516 0.057807
v 0.055874 0.077516 -0.243303
v 0.005040 0.077516 -0.243303
v 0.046746 0.088126 0.057807
v 0.005040 0.088126 0.057807
v 0.046746 0.088126 -0.243303
v 0.005040 0.088126 -0.243303
v 0.040987 0.122217 0.057807
v 0.005040 0.115989 0.057807
v 0.040987 0.122217 -0.243303
v 0.005040 0.115989 -0.243303
vn -1.0000 -0.0000 -0.0000
vn -0.0000 -0.0000 -1.0000
vn 0.7048 0.7094 -0.0000
vn 0.7899 0.6133 -0.0000
vn -0.0000 -0.0000 1.0000
vn -0.0000 -1.0000 -0.0000
vn -0.0000 1.0000 -0.0000
vn 1.0000 -0.0000 -0.0000
vn 0.7580 0.6522 -0.0000
vn 0.9016 0.4327 -0.0000
vn 0.9860 0.1666 -0.0000
vn 0.6123 0.7906 -0.0000
vt 0.579271 0.000000
vt 0.625000 0.000000
vt 0.625000 0.250000
vt 0.579271 0.250000
vt 0.625000 0.500000
vt 0.579271 0.500000
vt 0.625000 0.750000
vt 0.579271 0.750000
vt 0.625000 1.000000
vt 0.579271 1.000000
vt 0.125000 0.500000
vt 0.375000 0.500000
vt 0.375000 0.750000
vt 0.125000 0.750000
vt 0.875000 0.500000
vt 0.875000 0.750000
vt 0.439935 0.750000
vt 0.439935 1.000000
vt 0.375000 1.000000
vt 0.439935 0.500000
vt 0.375000 0.250000
vt 0.439935 0.250000
vt 0.375000 0.000000
vt 0.439935 0.000000
vt 0.467575 0.750000
vt 0.467575 1.000000
vt 0.467575 0.500000
vt 0.467575 0.250000
vt 0.467575 0.000000
vt 0.540154 0.750000
vt 0.540154 1.000000
vt 0.540154 0.500000
vt 0.540154 0.250000
vt 0.540154 0.000000
s 1
usemtl None.014
f 1/1/1 2/2/1 3/3/1 4/4/1
f 4/4/2 3/3/2 5/5/2 6/6/2
f 6/6/3 5/5/4 7/7/4 8/8/3
f 8/8/5 7/7/5 2/9/5 1/10/5
f 9/11/6 10/12/6 11/13/6 12/14/6
f 5/5/7 3/15/7 2/16/7 7/7/7
f 11/13/5 13/17/5 14/18/5 12/19/5
f 10/12/8 15/20/8 13/17/8 11/13/8
f 9/21/2 16/22/2 15/20/2 10/12/2
f 12/23/1 14/24/1 16/22/1 9/21/1
f 13/17/5 17/25/5 18/26/5 14/18/5
f 15/20/9 19/27/10 17/25/10 13/17/9
f 16/22/2 20/28/2 19/27/2 15/20/2
f 14/24/1 18/29/1 20/28/1 16/22/1
f 17/25/5 21/30/5 22/31/5 18/26/5
f 19/27/10 23/32/11 21/30/11 17/25/10
f 20/28/2 24/33/2 23/32/2 19/27/2
f 18/29/1 22/34/1 24/33/1 20/28/1
f 21/30/5 8/8/5 1/10/5 22/31/5
f 23/32/12 6/6/3 8/8/3 21/30/12
f 24/33/2 4/4/2 6/6/2 23/32/2
f 22/34/1 1/1/1 4/4/1 24/33/1
