# Blender 4.4.3
# www.blender.org
mtllib ADSGrey.mtl
o Cylinder.002
v 0.000000 0.292800 2.656164
v 0.000000 0.292800 2.996499
v 0.000000 0.235036 2.739893
v 0.207041 0.207041 2.656164
v 0.207041 0.207041 2.996499
v 0.166195 0.166195 2.739893
v 0.292800 0.000000 2.656164
v 0.292800 -0.000000 2.996499
v 0.235036 0.000000 2.739893
v 0.207041 -0.207041 2.656164
v 0.207041 -0.207041 2.996499
v 0.166195 -0.166195 2.739893
v 0.000000 -0.292800 2.656164
v 0.000000 -0.292800 2.996499
v 0.000000 -0.235036 2.739893
v -0.207041 -0.207041 2.656164
v -0.207041 -0.207041 2.996499
v -0.166195 -0.166195 2.739893
v -0.292800 0.000000 2.656164
v -0.292800 -0.000000 2.996499
v -0.235036 0.000000 2.739893
v -0.207041 0.207041 2.656164
v -0.207041 0.207041 2.996499
v -0.166195 0.166195 2.739893
v 0.130709 0.130709 2.794842
v 0.000000 0.292800 2.839552
v 0.207041 0.207041 2.839552
v 0.000000 0.184851 2.794842
v 0.184851 0.000000 2.794842
v 0.292800 0.000000 2.839552
v 0.207041 -0.207041 2.839552
v 0.130709 -0.130709 2.794842
v 0.000000 -0.292800 2.839552
v 0.000000 -0.184851 2.794842
v -0.130709 -0.130709 2.794842
v -0.207041 -0.207041 2.839552
v -0.292800 0.000000 2.839552
v -0.184851 0.000000 2.794842
v -0.207041 0.207041 2.839552
v -0.130709 0.130709 2.794842
v 0.207041 0.207041 2.747858
v 0.166195 0.166195 2.852843
v 0.292800 0.000000 2.747858
v 0.000000 0.235036 2.852843
v 0.235036 0.000000 2.852843
v 0.207041 -0.207041 2.747858
v 0.166195 -0.166195 2.852843
v 0.000000 -0.292800 2.747858
v -0.207041 -0.207041 2.747858
v 0.000000 -0.235036 2.852843
v -0.166195 -0.166195 2.852843
v -0.292800 0.000000 2.747858
v -0.207041 0.207041 2.747858
v -0.235036 0.000000 2.852843
v -0.166195 0.166195 2.852843
v 0.000000 0.292800 2.747858
v 0.166195 0.166195 2.993157
v -0.000000 0.260755 2.767919
v -0.000000 0.260755 2.819492
v 0.000000 0.235036 2.993157
v -0.184382 0.184382 2.819492
v 0.235036 -0.000000 2.993157
v -0.260755 0.000000 2.819492
v 0.166195 -0.166195 2.993157
v 0.000000 -0.235036 2.993157
v -0.184382 -0.184382 2.819492
v -0.000000 -0.260755 2.819492
v -0.166195 -0.166195 2.993157
v -0.235036 -0.000000 2.993157
v 0.184382 -0.184382 2.819492
v -0.166195 0.166195 2.993157
v 0.260755 0.000000 2.819492
v 0.184382 0.184382 2.819492
v 0.109422 0.109422 3.225160
v 0.184382 0.184382 2.767919
v 0.000000 0.154746 3.225160
v 0.260755 0.000000 2.767919
v 0.154746 -0.000000 3.225160
v 0.184382 -0.184382 2.767919
v 0.109422 -0.109422 3.225160
v -0.000000 -0.260755 2.767919
v 0.000000 -0.154746 3.225160
v -0.109422 -0.109422 3.225160
v -0.184382 -0.184382 2.767919
v -0.260755 0.000000 2.767919
v -0.154746 -0.000000 3.225160
v -0.184382 0.184382 2.767919
v -0.109422 0.109422 3.225160
v 0.135920 0.135920 3.220687
v 0.000000 0.192220 3.220687
v 0.192220 -0.000000 3.220687
v 0.135920 -0.135920 3.220687
v 0.000000 -0.192220 3.220687
v -0.135920 -0.135920 3.220687
v -0.192220 -0.000000 3.220687
v -0.135920 0.135920 3.220687
v 0.135920 0.135920 3.885837
v -0.000000 0.192220 3.885837
v 0.192220 -0.000000 3.885837
v 0.135920 -0.135920 3.885837
v -0.000000 -0.192220 3.885837
v -0.135920 -0.135920 3.885837
v -0.192221 -0.000000 3.885837
v -0.135920 0.135920 3.885837
v 0.000000 0.292800 2.906042
v 0.207041 0.207041 2.906042
v 0.292800 -0.000000 2.906042
v 0.207041 -0.207041 2.906042
v 0.000000 -0.292800 2.906042
v -0.207041 -0.207041 2.906042
v -0.292800 -0.000000 2.906042
v -0.207041 0.207041 2.906042
v 0.000000 0.235036 2.656164
v 0.235036 0.000000 2.656164
v 0.000000 -0.235036 2.656164
v -0.235036 0.000000 2.656164
v 0.166195 0.166195 2.656164
v -0.166195 -0.166195 2.656164
v -0.166195 0.166195 2.656164
v 0.166195 -0.166195 2.656164
v 0.109421 0.109422 3.885837
v -0.109422 0.109422 3.885837
v -0.109422 -0.109422 3.885837
v 0.109421 -0.109422 3.885837
v -0.154746 -0.000000 3.885837
v 0.154745 -0.000000 3.885837
v -0.000000 0.154746 3.885837
v -0.000000 -0.154746 3.885837
v -0.179746 0.000000 3.535471
v -0.253687 0.000000 3.535471
v -0.179746 -0.093425 3.524162
v -0.253687 -0.093425 3.524162
v -0.179746 -0.132122 3.496861
v -0.253687 -0.132122 3.496861
v -0.179746 -0.093425 3.469560
v -0.253687 -0.093425 3.469560
v -0.179746 0.000000 3.458251
v -0.253687 0.000000 3.458251
v -0.179746 0.093425 3.469560
v -0.253687 0.093425 3.469560
v -0.179746 0.132122 3.496861
v -0.253687 0.132122 3.496861
v -0.179746 0.093425 3.524162
v -0.253687 0.093425 3.524162
v -0.288743 -0.112642 3.529778
v -0.288743 -0.000000 3.543413
v -0.288743 -0.159300 3.496861
v -0.288743 -0.112642 3.463944
v -0.288743 0.000000 3.450309
v -0.288743 0.112642 3.463944
v -0.288743 0.159300 3.496861
v -0.288743 0.112642 3.529778
v -0.372210 -0.112642 3.529778
v -0.372210 -0.000000 3.543413
v -0.372210 -0.159300 3.496861
v -0.372210 -0.112642 3.463944
v -0.372210 0.000000 3.450309
v -0.372210 0.112642 3.463944
v -0.372210 0.159300 3.496861
v -0.372210 0.112642 3.529778
v -0.000000 0.179746 3.458251
v -0.000000 0.253687 3.458251
v 0.093425 0.179746 3.469560
v 0.093425 0.253687 3.469560
v 0.132122 0.179746 3.496861
v 0.132122 0.253687 3.496861
v 0.093425 0.179746 3.524163
v 0.093425 0.253687 3.524163
v -0.000000 0.179746 3.535471
v -0.000000 0.253687 3.535471
v -0.093425 0.179746 3.524163
v -0.093425 0.253687 3.524163
v -0.132123 0.179746 3.496861
v -0.132123 0.253687 3.496861
v -0.093425 0.179746 3.469560
v -0.093425 0.253687 3.469560
v 0.112642 0.288743 3.463944
v -0.000000 0.288743 3.450309
v 0.159300 0.288743 3.496861
v 0.112642 0.288743 3.529778
v -0.000000 0.288743 3.543413
v -0.112642 0.288743 3.529778
v -0.159300 0.288743 3.496861
v -0.112642 0.288743 3.463944
v 0.112642 0.372210 3.463944
v -0.000000 0.372210 3.450309
v 0.159300 0.372210 3.496861
v 0.112642 0.372210 3.529778
v -0.000000 0.372210 3.543413
v -0.112642 0.372210 3.529778
v -0.159300 0.372210 3.496861
v -0.112642 0.372210 3.463944
v 0.295077 0.000000 3.592983
v 0.217898 -0.000000 3.592983
v 0.295077 0.073035 3.562731
v 0.217898 0.073035 3.562731
v 0.295077 0.103287 3.489695
v 0.217898 0.103287 3.489695
v 0.295077 0.073035 3.416660
v 0.217898 0.073035 3.416660
v 0.295077 0.000000 3.386408
v 0.217898 -0.000000 3.386408
v 0.295077 -0.073035 3.416660
v 0.217898 -0.073035 3.416660
v 0.295077 -0.103287 3.489695
v 0.217898 -0.103287 3.489695
v 0.295077 -0.073035 3.562731
v 0.217898 -0.073035 3.562731
v 0.295077 0.088161 3.453178
v 0.217898 0.088161 3.453178
v 0.295077 0.088161 3.526213
v 0.217898 0.088161 3.526213
v 0.295077 0.036518 3.401534
v 0.217898 0.036518 3.401534
v 0.295077 -0.036518 3.401534
v 0.217898 -0.036518 3.401534
v 0.295077 -0.088382 3.453711
v 0.217898 -0.088382 3.453711
v 0.295077 -0.088161 3.526213
v 0.217898 -0.088161 3.526213
v 0.295077 -0.036518 3.577857
v 0.217898 -0.036518 3.577857
v 0.295077 0.036518 3.577857
v 0.217898 0.036518 3.577857
v 0.255719 -0.000000 3.592983
v 0.255719 0.073035 3.562731
v 0.255719 0.103287 3.489695
v 0.255719 0.073035 3.416660
v 0.255719 -0.000000 3.386408
v 0.255719 -0.073035 3.416660
v 0.255719 -0.103287 3.489695
v 0.255719 -0.073035 3.562731
v 0.255719 0.088161 3.453178
v 0.255719 0.088161 3.526213
v 0.255719 0.036518 3.401534
v 0.255719 -0.036518 3.401534
v 0.255719 -0.088382 3.453711
v 0.255719 -0.088161 3.526213
v 0.255719 -0.036518 3.577857
v 0.255719 0.036518 3.577857
v 0.217898 0.035836 3.603765
v 0.217898 -0.000000 3.615748
v 0.255719 -0.000000 3.615748
v 0.217898 0.114069 3.453860
v 0.217898 0.126053 3.489695
v 0.217898 -0.035836 3.375626
v 0.217898 -0.000000 3.363642
v 0.217898 -0.114091 3.525572
v 0.217898 -0.126075 3.489736
v 0.217898 0.114069 3.525531
v 0.217898 0.035836 3.375626
v 0.217898 -0.114246 3.454311
v 0.217898 -0.035836 3.603765
v 0.255719 0.126053 3.489695
v 0.255719 -0.000000 3.363642
v 0.255719 -0.126075 3.489736
v 0.255719 0.114069 3.453860
v 0.255719 0.114069 3.525531
v 0.255719 0.035836 3.375626
v 0.255719 -0.035836 3.375626
v 0.255719 -0.114246 3.454311
v 0.255719 -0.114091 3.525572
v 0.255719 -0.035836 3.603765
v 0.255719 0.035836 3.603765
vn 0.3827 0.9239 -0.0000
vn 0.9239 0.3827 -0.0000
vn 0.9239 -0.3827 -0.0000
vn 0.3827 -0.9239 -0.0000
vn -0.3827 -0.9239 -0.0000
vn -0.9239 -0.3827 -0.0000
vn 0.8535 -0.3535 0.3829
vn -0.9239 0.3827 -0.0000
vn -0.3827 0.9239 -0.0000
vn -0.0000 -0.0000 -1.0000
vn -0.5182 0.2147 0.8279
vn 0.2147 0.5182 -0.8279
vn -0.5182 -0.2147 0.8279
vn 0.5182 0.2147 -0.8279
vn -0.2147 -0.5182 0.8279
vn 0.5182 -0.2147 -0.8279
vn 0.2147 -0.5182 0.8279
vn 0.2147 -0.5182 -0.8279
vn -0.2147 0.5182 -0.8279
vn -0.2147 0.5182 0.8279
vn -0.5182 0.2147 -0.8279
vn 0.2147 0.5182 0.8279
vn -0.5182 -0.2147 -0.8279
vn 0.5182 0.2147 0.8279
vn -0.2147 -0.5182 -0.8279
vn 0.5182 -0.2147 0.8279
vn -0.8535 -0.3535 0.3829
vn 0.3535 -0.8535 0.3829
vn -0.8535 0.3535 0.3829
vn 0.8535 0.3535 0.3829
vn -0.3535 -0.8535 0.3829
vn -0.3535 0.8535 0.3829
vn 0.3535 0.8535 0.3829
vn -0.0000 -0.0000 1.0000
vn -0.7061 -0.2925 -0.6449
vn 0.2989 0.7216 0.6244
vn 0.2925 0.7061 -0.6449
vn 0.2925 -0.7061 -0.6449
vn -0.2925 -0.7061 -0.6449
vn -0.7061 0.2925 -0.6449
vn 0.7061 0.2925 -0.6449
vn -0.2925 0.7061 -0.6449
vn 0.7061 -0.2925 -0.6449
vn -0.7216 0.2989 0.6244
vn -0.2989 -0.7216 0.6244
vn 0.2989 -0.7216 0.6244
vn 0.7216 0.2989 0.6244
vn -0.2989 0.7216 0.6244
vn -0.7216 -0.2989 0.6244
vn 0.7216 -0.2989 0.6244
vn 0.8800 0.3645 -0.3045
vn -0.3645 0.8800 -0.3045
vn -0.8800 -0.3645 -0.3045
vn 0.8800 -0.3645 -0.3045
vn 0.3645 0.8800 -0.3045
vn -0.8800 0.3645 -0.3045
vn -0.3645 -0.8800 -0.3045
vn 0.3645 -0.8800 -0.3045
vn -0.0000 -0.1202 0.9928
vn -0.0000 -0.5765 0.8171
vn -0.0000 -0.5765 -0.8171
vn -0.0000 -0.1202 -0.9928
vn -0.0000 0.1202 -0.9928
vn -0.0000 0.5765 -0.8171
vn 0.4080 -0.5263 -0.7460
vn -0.0000 0.5765 0.8171
vn -0.0000 0.1202 0.9928
vn 1.0000 -0.0000 -0.0000
vn 0.4080 0.5263 -0.7460
vn 0.2194 -0.1172 -0.9686
vn 0.4080 0.5263 0.7460
vn 0.4080 -0.5263 0.7460
vn 0.2194 0.1172 -0.9686
vn 0.2194 0.1172 0.9686
vn 0.2194 -0.1172 0.9686
vn -1.0000 -0.0000 -0.0000
vn 0.1202 -0.0000 -0.9928
vn 0.5765 -0.0000 -0.8171
vn 0.5765 -0.0000 0.8171
vn 0.1202 -0.0000 0.9928
vn -0.1202 -0.0000 0.9928
vn -0.5765 -0.0000 0.8171
vn 0.5263 -0.4080 0.7460
vn -0.5765 -0.0000 -0.8171
vn -0.1202 -0.0000 -0.9928
vn -0.0000 -1.0000 -0.0000
vn -0.5263 -0.4080 0.7460
vn 0.1172 -0.2194 0.9686
vn -0.5263 -0.4080 -0.7460
vn 0.5263 -0.4080 -0.7460
vn -0.1172 -0.2194 0.9686
vn -0.1172 -0.2194 -0.9686
vn 0.1172 -0.2194 -0.9686
vn -0.0000 1.0000 -0.0000
vn -0.0000 0.3827 0.9239
vn -0.0000 0.0263 0.9997
vn -0.0000 0.9239 -0.3827
vn -0.0000 -0.3827 -0.9239
vn -0.0000 -0.9239 0.3827
vn -0.0000 0.0263 -0.9997
vn -0.0000 0.9239 0.3827
vn -0.0000 0.3827 -0.9239
vn -0.0000 -0.9239 -0.3827
vn -0.0000 0.9997 0.0263
vn -0.0000 -0.3827 0.9239
vn -0.0000 -0.9997 0.0263
vn -0.0000 0.9484 0.3171
vn -0.0000 0.3171 -0.9484
vn -0.0000 -0.9485 -0.3167
vn -0.0000 -0.3171 0.9484
vn -0.0000 0.9484 -0.3171
vn -0.0000 -0.3171 -0.9484
vn -0.0000 -0.9484 0.3171
vn -0.0000 0.3171 0.9484
vn -0.0000 0.9997 -0.0263
vn -0.0000 -0.9997 -0.0263
vn -0.0000 -0.0232 -0.9997
vn -0.0000 -0.0247 0.9997
vt 1.000000 0.846939
vt 1.000000 1.000000
vt 0.875000 1.000000
vt 0.875000 0.846939
vt 0.750000 1.000000
vt 0.750000 0.846939
vt 0.625000 1.000000
vt 0.625000 0.846939
vt 0.500000 1.000000
vt 0.500000 0.846939
vt 0.375000 1.000000
vt 0.375000 0.846939
vt 0.250000 1.000000
vt 0.250000 0.846939
vt 0.125000 1.000000
vt 0.125000 0.846939
vt 0.000000 1.000000
vt 0.000000 0.846939
vt 0.750000 0.010000
vt 0.580294 0.080294
vt 0.510000 0.250000
vt 0.580294 0.419706
vt 0.750000 0.490000
vt 0.919706 0.419706
vt 0.990000 0.250000
vt 0.919706 0.080294
vt 0.886226 0.113774
vt 0.942652 0.250000
vt 0.886226 0.386226
vt 0.750000 0.442652
vt 0.613774 0.386226
vt 0.557348 0.250000
vt 0.613774 0.113774
vt 0.750000 0.057348
vt 0.125000 0.535714
vt 0.250000 0.535714
vt 1.000000 0.571429
vt 0.875000 0.571429
vt 0.375000 0.535714
vt 0.750000 0.571429
vt 0.500000 0.535714
vt 0.625000 0.571429
vt 0.625000 0.535714
vt 0.500000 0.571429
vt 1.000000 0.500000
vt 1.000000 0.535714
vt 0.875000 0.535714
vt 0.875000 0.500000
vt 0.750000 0.535714
vt 0.750000 0.500000
vt 0.625000 0.500000
vt 0.500000 0.500000
vt 0.375000 0.500000
vt 0.250000 0.500000
vt 0.125000 0.500000
vt 0.000000 0.535714
vt 0.000000 0.500000
vt 0.125000 0.571429
vt 0.000000 0.571429
vt 0.250000 0.571429
vt 0.375000 0.571429
vt 0.080294 0.419706
vt 0.010000 0.250000
vt 0.056789 0.250000
vt 0.113379 0.386621
vt 0.080294 0.080294
vt 0.250000 0.010000
vt 0.419706 0.080294
vt 0.490000 0.250000
vt 0.419706 0.419706
vt 0.250000 0.490000
vt 0.250000 0.443211
vt 0.386620 0.386621
vt 0.443210 0.250000
vt 0.386620 0.113379
vt 0.250000 0.056789
vt 0.113379 0.113379
vt 0.875000 0.596483
vt 1.000000 0.596483
vt 0.750000 0.596483
vt 0.625000 0.596483
vt 0.500000 0.596483
vt 0.375000 0.596483
vt 0.250000 0.596483
vt 0.125000 0.596483
vt 0.000000 0.596483
vt 0.937500 0.792208
vt 0.875000 0.792208
vt 0.937500 1.000000
vt 0.812500 0.792208
vt 0.812500 1.000000
vt 0.687500 0.792208
vt 0.625000 0.792208
vt 0.687500 1.000000
vt 0.045147 0.334853
vt 0.437500 0.792208
vt 0.375000 0.792208
vt 0.437500 1.000000
vt 1.000000 0.792208
vt 0.454853 0.334853
vt 0.454853 0.165147
vt 0.334853 0.045147
vt 0.165147 0.045147
vt 0.044634 0.166387
vt 0.165147 0.454853
vt 0.334853 0.454853
vt 0.187500 0.792208
vt 0.125000 0.792208
vt 0.187500 1.000000
vt 0.750000 0.792208
vt 0.665147 0.454853
vt 0.545147 0.334853
vt 0.544634 0.166387
vt 0.665147 0.045147
vt 0.834853 0.045147
vt 0.954853 0.165147
vt 0.954853 0.334853
vt 0.834853 0.454853
vt 0.562500 0.792208
vt 0.562500 1.000000
vt 0.311587 0.792208
vt 0.311587 1.000000
vt 0.062500 0.792208
vt 0.062500 1.000000
vt 0.937500 0.500000
vt 0.062500 0.500000
vt 0.187500 0.500000
vt 0.250000 0.792208
vt 0.311587 0.500000
vt 0.437500 0.500000
vt 0.500000 0.792208
vt 0.562500 0.500000
vt 0.812500 0.500000
vt 0.687500 0.500000
vt 0.000000 0.792208
s 0
f 105/1/1 2/2/1 5/3/1 106/4/1
f 106/4/2 5/3/2 8/5/2 107/6/2
f 107/6/3 8/5/3 11/7/3 108/8/3
f 108/8/4 11/7/4 14/9/4 109/10/4
f 109/10/5 14/9/5 17/11/5 110/12/5
f 110/12/6 17/11/6 20/13/6 111/14/6
f 11/7/7 8/5/7 91/5/7 92/7/7
f 111/14/8 20/13/8 23/15/8 112/16/8
f 112/16/9 23/15/9 2/17/9 105/18/9
f 13/19/10 16/20/10 19/21/10 22/22/10 1/23/10 4/24/10 7/25/10 10/26/10 120/27/10 114/28/10 117/29/10 113/30/10 119/31/10 116/32/10 118/33/10 115/34/10
f 120/27/10 10/26/10 13/19/10 115/34/10
f 53/35/11 52/36/11 85/36/11 87/35/11
f 26/37/12 27/38/12 73/38/12 59/37/12
f 52/36/13 49/39/13 84/39/13 85/36/13
f 27/38/14 30/40/14 72/40/14 73/38/14
f 49/39/15 48/41/15 81/41/15 84/39/15
f 30/40/16 31/42/16 70/42/16 72/40/16
f 48/41/17 46/43/17 79/43/17 81/41/17
f 31/42/18 33/44/18 67/44/18 70/42/18
f 1/45/1 56/46/1 41/47/1 4/48/1
f 4/48/2 41/47/2 43/49/2 7/50/2
f 7/50/3 43/49/3 46/43/3 10/51/3
f 10/51/4 46/43/4 48/41/4 13/52/4
f 13/52/5 48/41/5 49/39/5 16/53/5
f 16/53/6 49/39/6 52/36/6 19/54/6
f 19/54/8 52/36/8 53/35/8 22/55/8
f 22/55/9 53/35/9 56/56/9 1/57/9
f 87/35/9 61/58/9 59/59/9 58/56/9
f 85/36/8 63/60/8 61/58/8 87/35/8
f 84/39/6 66/61/6 63/60/6 85/36/6
f 81/41/5 67/44/5 66/61/5 84/39/5
f 79/43/4 70/42/4 67/44/4 81/41/4
f 77/49/3 72/40/3 70/42/3 79/43/3
f 75/47/2 73/38/2 72/40/2 77/49/2
f 58/46/1 59/37/1 73/38/1 75/47/1
f 39/58/19 26/59/19 59/59/19 61/58/19
f 56/56/20 53/35/20 87/35/20 58/56/20
f 37/60/21 39/58/21 61/58/21 63/60/21
f 41/47/22 56/46/22 58/46/22 75/47/22
f 36/61/23 37/60/23 63/60/23 66/61/23
f 43/49/24 41/47/24 75/47/24 77/49/24
f 33/44/25 36/61/25 66/61/25 67/44/25
f 46/43/26 43/49/26 77/49/26 79/43/26
f 96/15/8 95/13/8 103/13/8 104/15/8
f 20/13/27 17/11/27 94/11/27 95/13/27
f 14/9/28 11/7/28 92/7/28 93/9/28
f 23/15/29 20/13/29 95/13/29 96/15/29
f 8/5/30 5/3/30 89/3/30 91/5/30
f 17/11/31 14/9/31 93/9/31 94/11/31
f 2/17/32 23/15/32 96/15/32 90/17/32
f 5/3/33 2/2/33 90/2/33 89/3/33
f 104/62/34 103/63/34 125/64/34 122/65/34
f 125/64/34 103/63/34 102/66/34 101/67/34 100/68/34 99/69/34 97/70/34 98/71/34 104/62/34 122/65/34 127/72/34 121/73/34 126/74/34 124/75/34 128/76/34 123/77/34
f 94/11/5 93/9/5 101/9/5 102/11/5
f 92/7/3 91/5/3 99/5/3 100/7/3
f 89/3/1 90/2/1 98/2/1 97/3/1
f 90/17/9 96/15/9 104/15/9 98/17/9
f 95/13/6 94/11/6 102/11/6 103/13/6
f 93/9/4 92/7/4 100/7/4 101/9/4
f 91/5/2 89/3/2 97/3/2 99/5/2
f 39/58/9 112/16/9 105/18/9 26/59/9
f 37/60/8 111/14/8 112/16/8 39/58/8
f 36/61/6 110/12/6 111/14/6 37/60/6
f 33/44/5 109/10/5 110/12/5 36/61/5
f 31/42/4 108/8/4 109/10/4 33/44/4
f 30/40/3 107/6/3 108/8/3 31/42/3
f 27/38/2 106/4/2 107/6/2 30/40/2
f 26/37/1 105/1/1 106/4/1 27/38/1
f 117/78/5 6/3/5 3/2/5 113/79/5
f 9/5/6 6/3/6 117/78/6 114/80/6
f 120/81/8 12/7/8 9/5/8 114/80/8
f 15/9/9 12/7/9 120/81/9 115/82/9
f 18/11/1 15/9/1 115/82/1 118/83/1
f 116/84/2 21/13/2 18/11/2 118/83/2
f 6/3/35 9/5/35 29/5/35 25/3/35
f 119/85/3 24/15/3 21/13/3 116/84/3
f 113/86/4 3/17/4 24/15/4 119/85/4
f 34/9/36 35/11/36 51/11/36 50/9/36
f 18/11/37 35/11/37 34/9/37 15/9/37
f 24/15/38 3/17/38 28/17/38 40/15/38
f 3/2/39 6/3/39 25/3/39 28/2/39
f 29/5/40 9/5/40 12/7/40 32/7/40
f 21/13/41 38/13/41 35/11/41 18/11/41
f 32/7/42 12/7/42 15/9/42 34/9/42
f 21/13/43 24/15/43 40/15/43 38/13/43
f 69/13/3 54/13/3 55/15/3 71/15/3
f 29/5/44 32/7/44 47/7/44 45/5/44
f 44/2/45 28/2/45 25/3/45 42/3/45
f 55/15/46 40/15/46 28/17/46 44/17/46
f 38/13/47 54/13/47 51/11/47 35/11/47
f 32/7/48 34/9/48 50/9/48 47/7/48
f 42/3/49 25/3/49 29/5/49 45/5/49
f 54/13/50 38/13/50 40/15/50 55/15/50
f 83/11/51 68/11/51 69/13/51 86/13/51
f 51/11/1 68/11/1 65/9/1 50/9/1
f 62/5/8 45/5/8 47/7/8 64/7/8
f 60/2/5 44/2/5 42/3/5 57/3/5
f 71/15/4 55/15/4 44/17/4 60/17/4
f 68/11/2 51/11/2 54/13/2 69/13/2
f 50/9/9 65/9/9 64/7/9 47/7/9
f 45/5/6 62/5/6 57/3/6 42/3/6
f 76/2/5 74/3/5 121/3/5 127/2/5
f 80/7/52 64/7/52 65/9/52 82/9/52
f 74/3/53 57/3/53 62/5/53 78/5/53
f 86/13/54 69/13/54 71/15/54 88/15/54
f 82/9/55 65/9/55 68/11/55 83/11/55
f 64/7/56 80/7/56 78/5/56 62/5/56
f 76/2/57 60/2/57 57/3/57 74/3/57
f 88/15/58 71/15/58 60/17/58 76/17/58
f 88/15/4 76/17/4 127/17/4 122/15/4
f 123/11/2 83/11/2 86/13/2 125/13/2
f 80/7/9 82/9/9 128/9/9 124/7/9
f 74/3/6 78/5/6 126/5/6 121/3/6
f 125/13/3 86/13/3 88/15/3 122/15/3
f 82/9/1 83/11/1 123/11/1 128/9/1
f 78/5/8 80/7/8 124/7/8 126/5/8
f 129/45/59 130/2/59 132/3/59 131/48/59
f 131/48/60 132/3/60 134/5/60 133/50/60
f 133/50/61 134/5/61 136/7/61 135/51/61
f 135/51/62 136/7/62 138/9/62 137/52/62
f 137/52/63 138/9/63 140/11/63 139/53/63
f 139/53/64 140/11/64 142/13/64 141/54/64
f 136/7/65 134/5/65 147/5/65 148/7/65
f 141/54/66 142/13/66 144/15/66 143/55/66
f 143/55/67 144/15/67 130/17/67 129/57/67
f 129/23/68 131/24/68 133/25/68 135/26/68 137/19/68 139/20/68 141/21/68 143/22/68
f 152/15/66 151/13/66 159/13/66 160/15/66
f 142/13/69 140/11/69 150/11/69 151/13/69
f 138/9/70 136/7/70 148/7/70 149/9/70
f 144/15/71 142/13/71 151/13/71 152/15/71
f 134/5/72 132/3/72 145/3/72 147/5/72
f 140/11/73 138/9/73 149/9/73 150/11/73
f 130/17/74 144/15/74 152/15/74 146/17/74
f 132/3/75 130/2/75 146/2/75 145/3/75
f 153/70/76 154/71/76 160/62/76 159/63/76 158/66/76 157/67/76 156/68/76 155/69/76
f 150/11/63 149/9/63 157/9/63 158/11/63
f 148/7/61 147/5/61 155/5/61 156/7/61
f 145/3/59 146/2/59 154/2/59 153/3/59
f 146/17/67 152/15/67 160/15/67 154/17/67
f 151/13/64 150/11/64 158/11/64 159/13/64
f 149/9/62 148/7/62 156/7/62 157/9/62
f 147/5/60 145/3/60 153/3/60 155/5/60
f 161/45/77 162/2/77 164/3/77 163/48/77
f 163/48/78 164/3/78 166/5/78 165/50/78
f 165/50/79 166/5/79 168/7/79 167/51/79
f 167/51/80 168/7/80 170/9/80 169/52/80
f 169/52/81 170/9/81 172/11/81 171/53/81
f 171/53/82 172/11/82 174/13/82 173/54/82
f 168/7/83 166/5/83 179/5/83 180/7/83
f 173/54/84 174/13/84 176/15/84 175/55/84
f 175/55/85 176/15/85 162/17/85 161/57/85
f 161/23/86 163/24/86 165/25/86 167/26/86 169/19/86 171/20/86 173/21/86 175/22/86
f 184/15/84 183/13/84 191/13/84 192/15/84
f 174/13/87 172/11/87 182/11/87 183/13/87
f 170/9/88 168/7/88 180/7/88 181/9/88
f 176/15/89 174/13/89 183/13/89 184/15/89
f 166/5/90 164/3/90 177/3/90 179/5/90
f 172/11/91 170/9/91 181/9/91 182/11/91
f 162/17/92 176/15/92 184/15/92 178/17/92
f 164/3/93 162/2/93 178/2/93 177/3/93
f 185/70/94 186/71/94 192/62/94 191/63/94 190/66/94 189/67/94 188/68/94 187/69/94
f 182/11/81 181/9/81 189/9/81 190/11/81
f 180/7/79 179/5/79 187/5/79 188/7/79
f 177/3/77 178/2/77 186/2/77 185/3/77
f 178/17/85 184/15/85 192/15/85 186/17/85
f 183/13/82 182/11/82 190/11/82 191/13/82
f 181/9/80 180/7/80 188/7/80 189/9/80
f 179/5/78 177/3/78 185/3/78 187/5/78
f 240/87/95 226/88/95 196/3/95 224/89/95
f 234/90/96 258/90/96 250/91/96 212/91/96
f 233/92/97 228/93/97 200/7/97 210/94/97
f 206/63/76 249/63/76 248/95/76 220/95/76
f 236/96/98 230/97/98 204/11/98 216/98/98
f 240/87/68 264/87/68 243/99/68 225/99/68
f 196/70/76 212/100/76 198/69/76 210/101/76 200/68/76 214/102/76 202/67/76 216/103/76 204/66/76 218/104/76 206/63/76 220/95/76 208/62/76 222/105/76 194/71/76 224/106/76
f 238/107/99 232/108/99 208/15/99 220/109/99
f 233/92/68 257/92/68 254/110/68 227/110/68
f 193/23/68 221/111/68 207/22/68 219/112/68 205/21/68 217/113/68 203/20/68 215/114/68 201/19/68 213/115/68 199/26/68 209/116/68 197/25/68 211/117/68 195/24/68 223/118/68
f 210/94/100 244/94/100 257/92/100 233/92/100
f 226/88/101 234/90/101 212/91/101 196/3/101
f 228/93/102 235/119/102 214/120/102 200/7/102
f 227/110/68 254/110/68 258/90/68 234/90/68
f 230/97/103 237/121/103 218/122/103 204/11/103
f 224/89/104 241/89/104 264/87/104 240/87/104
f 232/108/105 239/123/105 222/124/105 208/15/105
f 239/123/106 263/123/106 253/124/106 222/124/106
f 193/45/95 223/125/95 240/87/95 225/99/95
f 207/55/105 221/126/105 239/123/105 232/108/105
f 205/54/99 219/127/99 238/107/99 231/128/99
f 203/53/103 217/129/103 237/121/103 230/97/103
f 201/52/98 215/130/98 236/96/98 229/131/98
f 199/51/102 213/132/102 235/119/102 228/93/102
f 195/48/101 211/133/101 234/90/101 226/88/101
f 197/50/97 209/134/97 233/92/97 227/110/97
f 221/126/105 193/57/105 225/135/105 239/123/105
f 219/127/99 207/55/99 232/108/99 238/107/99
f 217/129/103 205/54/103 231/128/103 237/121/103
f 215/130/98 203/53/98 230/97/98 236/96/98
f 213/132/102 201/52/102 229/131/102 235/119/102
f 209/134/97 199/51/97 228/93/97 233/92/97
f 211/133/101 197/50/101 227/110/101 234/90/101
f 223/125/95 195/48/95 226/88/95 240/87/95
f 258/90/107 254/110/107 245/5/107 250/91/107
f 259/119/108 255/131/108 247/9/108 251/120/108
f 261/121/109 256/128/109 249/13/109 252/122/109
f 263/123/110 243/135/110 242/17/110 253/124/110
f 254/110/111 257/92/111 244/94/111 245/5/111
f 255/131/112 260/96/112 246/98/112 247/9/112
f 256/128/113 262/107/113 248/109/113 249/13/113
f 243/99/114 264/87/114 241/89/114 242/2/114
f 225/135/68 243/135/68 263/123/68 239/123/68
f 212/100/76 250/100/76 245/69/76 198/69/76
f 222/105/76 253/105/76 242/71/76 194/71/76
f 235/119/115 259/119/115 251/120/115 214/120/115
f 202/67/76 247/67/76 246/103/76 216/103/76
f 238/107/68 262/107/68 256/128/68 231/128/68
f 216/98/116 246/98/116 260/96/116 236/96/116
f 231/128/68 256/128/68 261/121/68 237/121/68
f 218/104/76 252/104/76 249/63/76 206/63/76
f 198/69/76 245/69/76 244/101/76 210/101/76
f 237/121/117 261/121/117 252/122/117 218/122/117
f 194/71/76 242/71/76 241/106/76 224/106/76
f 236/96/68 260/96/68 255/131/68 229/131/68
f 214/102/76 251/102/76 247/67/76 202/67/76
f 220/109/118 248/109/118 262/107/118 238/107/118
f 229/131/68 255/131/68 259/119/68 235/119/68
