# Blender 4.4.3
# www.blender.org
mtllib ADSMain.mtl
o Cube.003
v -0.095908 -0.205206 3.762192
v -0.095908 -0.659305 3.235541
v -0.095908 -0.205206 3.235541
v 0.095908 -0.205206 3.762192
v 0.095908 -0.659305 3.235541
v 0.095908 -0.205206 3.235541
v -0.095908 -0.659305 3.608603
v -0.095908 -0.321884 3.762192
v 0.095908 -0.321884 3.762192
v 0.095908 -0.659305 3.608603
v 0.095908 -0.502149 3.352155
v 0.095908 -0.276029 3.645963
v 0.095908 -0.205206 3.352155
v 0.095908 -0.205206 3.645963
v 0.095908 -0.502149 3.543037
v -0.095908 -0.502149 3.543037
v -0.095908 -0.276029 3.645963
v -0.095908 -0.205206 3.352155
v -0.095908 -0.205206 3.645963
v -0.095908 -0.502149 3.352155
v -0.185079 0.094887 3.282661
v 0.095752 -0.237572 3.235408
v 0.095752 -0.237572 3.352134
v -0.095752 -0.237572 3.235408
v -0.133348 0.104009 3.265271
v -0.095752 -0.237572 3.352134
v -0.236810 0.085766 3.265271
v -0.095752 0.237572 3.235408
v -0.095752 0.237572 3.352134
v 0.095752 0.237572 3.235408
v -0.185079 0.094887 3.247880
v 0.095752 0.237572 3.352134
v 0.268339 0.061846 3.235408
v 0.185079 0.094887 3.282661
v 0.268339 -0.061846 3.235408
v 0.133348 0.104009 3.265271
v 0.268339 -0.061846 3.352134
v 0.268339 0.061846 3.352134
v 0.236810 0.085766 3.265271
v -0.268339 -0.061846 3.235408
v -0.268339 0.061846 3.235408
v -0.268339 0.061846 3.352134
v 0.185079 0.094887 3.247880
v -0.268339 -0.061846 3.352134
v 0.185079 0.094887 3.304880
v 0.133348 0.104009 3.322271
v 0.236810 0.085766 3.322271
v 0.185079 0.094887 3.339661
v -0.185079 0.094887 3.304880
v -0.133348 0.104009 3.322271
v -0.236810 0.085766 3.322271
v -0.185079 0.094887 3.339661
v 0.147592 0.184789 3.322271
v 0.192813 0.138746 3.339661
v 0.205931 0.125389 3.309926
v 0.192813 0.138746 3.304880
v 0.192813 0.138746 3.247880
v 0.147592 0.184789 3.265271
v 0.192813 0.138746 3.282661
v 0.238033 0.092703 3.322271
v 0.238033 0.092703 3.265271
v -0.192813 0.138746 3.304880
v -0.147592 0.184789 3.322271
v -0.192813 0.138746 3.339661
v -0.205931 0.125389 3.277616
v -0.238033 0.092703 3.322271
v -0.238033 0.092703 3.265271
v -0.147592 0.184789 3.265271
v -0.192813 0.138746 3.247880
v -0.192813 0.138746 3.282661
v -0.053447 0.132608 3.352134
v -0.109422 0.109422 3.352134
v -0.154746 0.000000 3.352134
v -0.000000 -0.154746 3.352134
v 0.053447 -0.132608 3.352134
v -0.109422 -0.109422 3.352134
v -0.000000 0.154746 3.352134
v 0.109422 0.109422 3.352134
v 0.154746 0.000000 3.352134
v 0.109422 -0.109422 3.352134
v -0.000000 0.154746 3.235408
v -0.109422 0.109422 3.235408
v 0.109422 0.109422 3.235408
v -0.154746 0.000000 3.235408
v -0.141260 -0.032557 3.235408
v 0.141260 0.032557 3.235408
v 0.154746 0.000000 3.235408
v -0.000000 -0.154746 3.235408
v -0.109422 -0.109422 3.235408
v 0.109422 -0.109422 3.235408
v -0.185079 0.094887 3.693084
v 0.095752 -0.237572 3.645831
v 0.095752 -0.237572 3.762556
v -0.095752 -0.237572 3.645831
v -0.133348 0.104009 3.675694
v -0.095752 -0.237572 3.762556
v -0.236810 0.085766 3.675694
v -0.095752 0.237572 3.645831
v -0.095752 0.237572 3.762556
v 0.095752 0.237572 3.645831
v -0.185079 0.094887 3.658303
v 0.095752 0.237572 3.762556
v 0.268339 0.061846 3.645831
v 0.185079 0.094887 3.693084
v 0.268339 -0.061846 3.645831
v 0.133348 0.104009 3.675694
v 0.268339 -0.061846 3.762556
v 0.268339 0.061846 3.762556
v 0.236810 0.085766 3.675694
v -0.268339 -0.061846 3.645831
v -0.268339 0.061846 3.645831
v -0.268339 0.061846 3.762556
v 0.185079 0.094887 3.658303
v -0.268339 -0.061846 3.762556
v 0.185079 0.094887 3.715303
v 0.133348 0.104009 3.732693
v 0.236810 0.085766 3.732693
v 0.185079 0.094887 3.750084
v -0.185079 0.094887 3.715303
v -0.133348 0.104009 3.732693
v -0.236810 0.085766 3.732693
v -0.185079 0.094887 3.750084
v 0.147592 0.184789 3.732693
v 0.192813 0.138746 3.750084
v 0.205931 0.125389 3.720348
v 0.192813 0.138746 3.715303
v 0.192813 0.138746 3.658303
v 0.147592 0.184789 3.675694
v 0.192813 0.138746 3.693084
v 0.238033 0.092703 3.732693
v 0.238033 0.092703 3.675694
v -0.192813 0.138746 3.715303
v -0.147592 0.184789 3.732693
v -0.192813 0.138746 3.750084
v -0.205931 0.125389 3.688039
v -0.238033 0.092703 3.732693
v -0.238033 0.092703 3.675694
v -0.147592 0.184789 3.675694
v -0.192813 0.138746 3.658303
v -0.192813 0.138746 3.693084
v -0.053447 0.132608 3.762556
v -0.109422 0.109422 3.762556
v -0.109422 -0.109422 3.762556
v -0.000000 -0.154746 3.762556
v 0.053447 -0.132607 3.762556
v -0.154746 0.000000 3.762556
v -0.000000 0.154746 3.762556
v 0.109422 0.109422 3.762556
v 0.154746 0.000000 3.762556
v 0.109422 -0.109422 3.762556
v -0.000000 0.154746 3.645831
v -0.109422 0.109422 3.645831
v -0.068313 0.126450 3.645831
v 0.109422 0.109422 3.645831
v -0.154746 0.000000 3.645831
v 0.154746 0.000000 3.645831
v -0.000000 -0.154746 3.645831
v 0.068313 -0.126450 3.645831
v -0.109422 -0.109422 3.645831
v 0.109422 -0.109422 3.645831
v 0.135293 0.221271 3.452737
v 0.135293 0.135293 3.424273
v 0.221271 0.135293 3.452737
v 0.135293 -0.135293 3.424273
v 0.135293 -0.221271 3.452737
v 0.221271 -0.135293 3.452737
v 0.135293 0.221271 3.542319
v 0.221271 0.135293 3.542319
v 0.135293 0.135293 3.570783
v 0.135293 -0.221271 3.542319
v 0.135293 -0.135293 3.570783
v 0.221271 -0.135293 3.542319
v -0.135293 0.221271 3.452737
v -0.221271 0.135293 3.452737
v -0.135293 0.135293 3.424273
v -0.135293 -0.221271 3.452737
v -0.135293 -0.135293 3.424273
v -0.221271 -0.135293 3.452737
v -0.135293 0.221271 3.542319
v -0.135293 0.135293 3.570783
v -0.221271 0.135293 3.542319
v -0.135293 -0.221271 3.542319
v -0.221271 -0.135293 3.542319
v -0.135293 -0.135293 3.570783
v -0.129209 0.129209 3.424273
v 0.114521 -0.135293 3.424273
v 0.129209 -0.129209 3.424273
v -0.135293 -0.114521 3.424273
v -0.129209 -0.129209 3.424273
v -0.135293 0.114521 3.424273
v -0.114521 -0.135293 3.424273
v 0.135293 0.114521 3.424273
v 0.129209 0.129209 3.424273
v -0.114521 0.135293 3.424273
v 0.114521 0.135293 3.424273
v 0.135293 -0.114521 3.424273
v 0.135293 0.114521 3.570783
v 0.129209 0.129209 3.570783
v -0.114521 -0.135293 3.570783
v -0.129209 -0.129209 3.570783
v 0.135293 -0.114521 3.570783
v 0.114521 -0.135293 3.570783
v 0.129209 -0.129209 3.570783
v 0.114521 0.135293 3.570783
v -0.135293 -0.114521 3.570783
v -0.129209 0.129209 3.570783
v -0.114521 0.135293 3.570783
v -0.135293 0.114521 3.570783
v 0.182730 0.000000 3.439977
v 0.182730 0.000000 3.555079
v 0.000000 0.182730 3.555079
v 0.000000 -0.182730 3.555079
v -0.182730 0.000000 3.555079
v -0.182730 0.000000 3.439977
v 0.000000 0.182730 3.439977
v 0.000000 -0.182730 3.439977
v 0.140547 -0.654584 3.235701
v 0.140547 -0.654584 3.608897
v -0.140547 -0.654584 3.235701
v -0.140547 -0.654584 3.608897
v -0.096082 -0.609240 3.608897
v 0.096082 -0.609240 3.608897
v 0.096082 -0.699929 3.608897
v -0.096082 -0.699929 3.608897
v 0.096082 -0.609240 3.235701
v -0.096082 -0.609240 3.235701
v -0.096082 -0.699929 3.235701
v 0.096082 -0.699929 3.235701
vn -0.0000 -0.0000 1.0000
vn -0.0000 -0.0000 -1.0000
vn 1.0000 -0.0000 -0.0000
vn -1.0000 -0.0000 -0.0000
vn -0.0000 1.0000 -0.0000
vn -0.0000 -0.4143 0.9101
vn -0.0000 -1.0000 -0.0000
vn -0.0000 0.4143 -0.9101
vn 0.7135 0.7007 -0.0000
vn -0.7135 0.7007 -0.0000
vn -0.7135 -0.7007 -0.0000
vn 0.7135 -0.7007 -0.0000
vn -0.3095 -0.0546 -0.9493
vn -0.3095 -0.0546 0.9493
vn 0.3095 0.0546 0.9493
vn 0.3095 0.0546 -0.9493
vn -0.1736 0.9848 -0.0000
vn 0.3095 -0.0546 -0.9493
vn 0.3095 -0.0546 0.9493
vn -0.3095 0.0546 0.9493
vn -0.3095 0.0546 -0.9493
vn 0.1736 0.9848 -0.0000
vn -0.3827 -0.9239 -0.0000
vn 0.3827 -0.9239 -0.0000
vn 0.9239 0.3827 -0.0000
vn -0.3827 0.9239 -0.0000
vn -0.9239 -0.3827 -0.0000
vn 0.9239 -0.3827 -0.0000
vn 0.3827 0.9239 -0.0000
vn -0.9239 0.3827 -0.0000
vn 0.2998 0.2998 -0.9057
vn 0.2998 -0.2998 -0.9057
vn 0.2998 0.2998 0.9057
vn 0.2998 -0.2998 0.9057
vn -0.2998 0.2998 -0.9057
vn -0.2998 -0.2998 -0.9057
vn -0.2998 0.2998 0.9057
vn -0.2998 -0.2998 0.9057
vn 0.7071 0.7071 -0.0000
vn 0.3143 -0.0000 -0.9493
vn 0.7071 -0.7071 -0.0000
vn 0.3143 -0.0000 0.9493
vn -0.0000 0.3143 0.9493
vn -0.0000 -0.3143 0.9493
vn -0.3143 -0.0000 0.9493
vn -0.7071 0.7071 -0.0000
vn -0.7071 -0.7071 -0.0000
vn -0.3143 -0.0000 -0.9493
vn -0.0000 0.3143 -0.9493
vn -0.0000 -0.3143 -0.9493
vn -0.7140 0.7002 -0.0000
vn 0.7140 -0.7002 -0.0000
vn -0.7140 -0.7002 -0.0000
vn 0.7140 0.7002 -0.0000
vt 0.560764 0.750000
vt 0.625000 0.750000
vt 0.625000 1.000000
vt 0.560764 1.000000
vt 0.375000 0.250000
vt 0.625000 0.250000
vt 0.625000 0.500000
vt 0.375000 0.500000
vt 0.375000 0.696972
vt 0.625000 0.555357
vt 0.461521 0.559247
vt 0.461521 0.656262
vt 0.586009 0.697113
vt 0.625000 0.694827
vt 0.625000 0.194643
vt 0.375000 0.053028
vt 0.560764 0.000000
vt 0.625000 0.000000
vt 0.625000 0.055173
vt 0.586009 0.052887
vt 0.461521 0.093738
vt 0.461521 0.190753
vt 0.875000 0.694827
vt 0.875000 0.750000
vt 0.875000 0.500000
vt 0.875000 0.555357
vt 0.125000 0.696972
vt 0.375000 0.750000
vt 0.125000 0.750000
vt 0.125000 0.500000
vt 0.560764 0.815343
vt 0.560764 0.934657
vt 0.618947 0.934657
vt 0.618947 0.815343
vt 0.618947 0.315343
vt 0.375000 0.315343
vt 0.375000 0.434657
vt 0.618947 0.434657
vt 0.190343 0.750000
vt 0.309657 0.750000
vt 0.309657 0.696972
vt 0.190343 0.696972
vt 0.309657 0.500000
vt 0.190343 0.500000
vt 0.065035 0.872081
vt 0.097336 0.946574
vt 0.043387 1.000000
vt 0.043387 0.500000
vt 0.097336 0.553426
vt 0.065035 0.627919
vt 0.097336 0.702412
vt 0.087965 0.819199
vt 0.166667 0.500000
vt 0.166667 1.000000
vt 0.129637 0.872081
vt 0.097336 0.797588
vt 0.129637 0.627919
vt 0.833333 0.500000
vt 0.833333 1.000000
vt 0.666667 1.000000
vt 0.666667 0.500000
vt 0.333333 1.000000
vt 0.333333 0.500000
vt 0.456613 0.500000
vt 0.402664 0.553426
vt 0.370363 0.627919
vt 0.402664 0.702412
vt 0.412035 0.680801
vt 0.402664 0.797588
vt 0.370363 0.872081
vt 0.402664 0.946574
vt 0.456613 1.000000
vt 0.434965 0.627919
vt 0.434965 0.872081
vt 0.543387 1.000000
vt 0.543387 0.500000
vt 0.133985 0.198093
vt 0.042154 0.130000
vt 0.195893 0.041239
vt 0.304107 0.041239
vt 0.457846 0.130000
vt 0.457846 0.370000
vt 0.366015 0.301906
vt 0.385383 0.250000
vt 0.345731 0.151387
vt 0.250000 0.124253
vt 0.154269 0.151387
vt 0.304107 0.458761
vt 0.195893 0.458761
vt 0.042154 0.370000
vt 0.114617 0.250000
vt 0.154269 0.348613
vt 0.250000 0.375747
vt 0.345731 0.348613
vt 0.956613 0.500000
vt 0.956613 1.000000
vt -0.000000 1.000000
vt -0.000000 0.500000
vt 0.804107 0.041239
vt 0.695893 0.041239
vt 0.542154 0.130000
vt 0.542154 0.370000
vt 0.695893 0.458761
vt 0.721516 0.366254
vt 0.654269 0.348613
vt 0.614617 0.250000
vt 0.654269 0.151387
vt 0.750000 0.124253
vt 0.778484 0.133746
vt 0.804107 0.458761
vt 0.957846 0.370000
vt 0.957846 0.130000
vt 0.845731 0.151387
vt 0.885383 0.250000
vt 0.845731 0.348613
vt 0.750000 0.375747
vt 0.449247 0.250000
vt 0.375000 0.000000
vt 0.415312 0.000000
vt 0.415312 0.500000
vt 0.381377 0.750000
vt 0.405467 0.927473
vt 0.415312 1.000000
vt 0.375000 1.000000
vt 0.449247 0.250000
vt 0.381376 0.750000
vt 0.405467 0.927473
vt 0.875000 1.000000
vt 0.875000 1.000000
vt 1.000000 1.000000
vt 0.000000 1.000000
vt 0.061056 1.000000
vt 0.125000 1.000000
vt 0.250000 1.000000
vt 0.287192 1.000000
vt 0.500000 1.000000
vt 0.561056 1.000000
vt 0.750000 1.000000
vt 0.787192 1.000000
vt 0.133985 0.198093
vt 0.366015 0.301906
vt 0.385383 0.250000
vt 0.345731 0.151387
vt 0.250000 0.124252
vt 0.154269 0.151387
vt 0.114617 0.250000
vt 0.154269 0.348612
vt 0.250000 0.375747
vt 0.345731 0.348612
vt 0.614617 0.250000
vt 0.639372 0.184973
vt 0.860628 0.315027
vt 0.845730 0.348612
vt 0.750000 0.375747
vt 0.654269 0.348612
vt 0.885383 0.250000
vt 0.654269 0.151387
vt 0.750000 0.124252
vt 0.845731 0.151387
vt 0.061056 1.000000
vt 0.078038 1.000000
vt 0.561056 1.000000
vt 0.578039 1.000000
vt 0.576430 0.951430
vt 0.576430 0.939695
vt 0.572993 0.947993
vt 0.564695 0.951430
vt 0.564695 0.798570
vt 0.572993 0.802007
vt 0.576430 0.810305
vt 0.576430 0.798570
vt 0.435305 0.951430
vt 0.427007 0.947993
vt 0.423570 0.939695
vt 0.423570 0.951430
vt 0.427007 0.802007
vt 0.435305 0.798570
vt 0.423570 0.798570
vt 0.423570 0.810305
vt 0.423570 0.548570
vt 0.423570 0.701430
vt 0.576430 0.701430
vt 0.576430 0.548570
vt 0.673570 0.548570
vt 0.673570 0.701430
vt 0.826430 0.701430
vt 0.826430 0.548570
vt 0.423570 0.048570
vt 0.423570 0.201430
vt 0.576430 0.201430
vt 0.576430 0.048570
vt 0.576430 0.439695
vt 0.572993 0.447993
vt 0.564695 0.451430
vt 0.576430 0.451430
vt 0.576430 0.298570
vt 0.564695 0.298570
vt 0.572993 0.302007
vt 0.576430 0.310305
vt 0.427007 0.302007
vt 0.435305 0.298570
vt 0.423570 0.298570
vt 0.423570 0.310305
vt 0.423570 0.451430
vt 0.435305 0.451430
vt 0.427007 0.447993
vt 0.423570 0.439695
vt 0.173570 0.701430
vt 0.125000 0.701430
vt 0.173570 0.750000
vt 0.576430 0.000000
vt 0.625000 0.048570
vt 0.173570 0.548570
vt 0.173570 0.500000
vt 0.125000 0.548570
vt 0.625000 0.201430
vt 0.576430 0.250000
vt 0.326430 0.701430
vt 0.326430 0.750000
vt 0.375000 0.701430
vt 0.625000 0.798570
vt 0.576430 0.750000
vt 0.326430 0.548570
vt 0.375000 0.548570
vt 0.326430 0.500000
vt 0.625000 0.451430
vt 0.576430 0.500000
vt 0.564695 0.000000
vt 0.500000 0.026798
vt 0.435305 0.000000
vt 0.423570 0.000000
vt 0.500000 0.244975
vt 0.314695 0.500000
vt 0.250000 0.526798
vt 0.185305 0.500000
vt 0.603227 0.375000
vt 0.625000 0.298570
vt 0.500000 0.505025
vt 0.500000 0.744975
vt 0.185305 0.750000
vt 0.250000 0.723202
vt 0.314695 0.750000
vt 0.603227 0.875000
vt 0.625000 0.951430
vt 0.889210 0.902960
vt 1.000000 0.874102
vt 1.000000 0.662589
vt 0.889210 0.633731
vt 0.875000 0.633731
vt 0.875000 0.902960
vt 0.860790 0.633731
vt 0.750000 0.662589
vt 0.750000 0.874102
vt 0.860790 0.902960
vt 0.639210 0.902960
vt 0.639210 0.633731
vt 0.625000 0.633731
vt 0.625000 0.902960
vt 0.610790 0.633731
vt 0.500000 0.662589
vt 0.500000 0.874102
vt 0.610790 0.902960
vt 0.375000 0.902960
vt 0.389210 0.902960
vt 0.389210 0.633731
vt 0.375000 0.633731
vt 0.360790 0.633731
vt 0.250000 0.662589
vt 0.250000 0.874102
vt 0.360790 0.902960
vt 0.139210 0.902960
vt 0.139210 0.633731
vt 0.125000 0.633731
vt 0.125000 0.902960
vt 0.110790 0.633731
vt 0.000000 0.662589
vt 0.000000 0.874102
vt 0.110790 0.902960
vt 0.375000 0.416667
vt 0.625000 0.416667
vt 0.375000 0.916667
vt 0.625000 0.916667
vt 0.291667 0.500000
vt 0.291667 0.750000
vt 0.791667 0.500000
vt 0.791667 0.750000
vt 0.708333 0.750000
vt 0.708333 0.500000
vt 0.208333 0.750000
vt 0.208333 0.500000
vt 0.375000 0.833333
vt 0.625000 0.833333
vt 0.375000 0.333333
vt 0.625000 0.333333
s 0
f 9/1/1 4/2/1 1/3/1 8/4/1
f 2/5/2 3/6/2 6/7/2 5/8/2
f 4/2/3 9/1/3 10/9/3 5/8/3 6/7/3 13/10/3 11/11/3 15/12/3 12/13/3 14/14/3
f 18/15/4 3/6/4 2/5/4 7/16/4 8/17/4 1/18/4 19/19/4 17/20/4 16/21/4 20/22/4
f 19/23/5 1/24/5 4/2/5 14/14/5
f 13/10/5 6/7/5 3/25/5 18/26/5
f 7/27/6 10/9/6 9/28/6 8/29/6
f 2/30/7 5/8/7 10/9/7 7/27/7
f 12/31/2 17/32/2 19/33/2 14/34/2
f 18/35/1 20/36/1 11/37/1 13/38/1
f 17/39/8 12/40/8 15/41/8 16/42/8
f 15/41/5 11/43/5 20/44/5 16/42/5
f 60/45/9 54/46/9 38/47/9 33/48/9 57/49/9 61/50/9 59/51/9 55/52/9
f 57/49/9 33/48/9 30/53/9 32/54/9 38/47/9 54/46/9 53/55/9 56/56/9 55/52/9 59/51/9 58/57/9
f 22/58/7 23/59/7 26/60/7 24/61/7
f 29/62/10 28/63/10 41/64/10 69/65/10 68/66/10 70/67/10 65/68/10 62/69/10 63/70/10 64/71/10 42/72/10
f 67/73/10 69/65/10 41/64/10 42/72/10 64/71/10 66/74/10 62/69/10 65/68/10
f 24/61/11 26/60/11 44/75/11 40/76/11
f 28/63/5 29/62/5 32/54/5 30/53/5
f 71/77/1 29/78/1 42/79/1 44/80/1 26/81/1 23/82/1 75/83/1 74/84/1 76/85/1 73/86/1 72/87/1
f 75/83/1 23/82/1 37/88/1 38/89/1 32/90/1 29/78/1 71/77/1 77/91/1 78/92/1 79/93/1 80/94/1
f 35/95/12 37/96/12 23/59/12 22/58/12
f 33/48/3 38/47/3 37/97/3 35/98/3
f 42/72/4 41/64/4 40/76/4 44/75/4
f 40/99/2 41/100/2 28/101/2 30/102/2 33/103/2 86/104/2 83/105/2 81/106/2 82/107/2 84/108/2 85/109/2
f 33/103/2 35/110/2 22/111/2 24/112/2 40/99/2 85/109/2 89/113/2 88/114/2 90/115/2 87/116/2 86/104/2
f 68/117/13 25/5/13 21/118/13 70/119/13
f 69/120/14 31/8/14 25/5/14 68/117/14
f 67/121/15 27/28/15 31/8/15 69/120/15
f 65/122/16 70/123/16 21/124/16 27/28/16 67/121/16
f 27/28/17 21/29/17 25/30/17 31/8/17
f 59/119/18 34/118/18 36/5/18 58/125/18
f 58/125/19 36/5/19 43/8/19 57/120/19
f 43/8/20 39/28/20 61/121/20 57/120/20
f 34/124/21 59/123/21 61/121/21 39/28/21
f 36/30/22 34/29/22 39/28/22 43/8/22
f 53/117/19 46/5/19 45/118/19 56/119/19
f 54/120/18 48/8/18 46/5/18 53/117/18
f 60/126/21 47/28/21 48/8/21 54/120/21
f 55/127/20 56/123/20 45/124/20 47/28/20 60/126/20
f 48/8/22 47/28/22 45/29/22 46/30/22
f 50/5/14 63/117/14 62/119/14 49/118/14
f 50/5/13 52/8/13 64/120/13 63/117/13
f 64/120/16 52/8/16 51/28/16 66/121/16
f 66/121/15 51/28/15 49/124/15 62/123/15
f 52/8/17 50/30/17 49/29/17 51/28/17
f 83/128/23 78/129/23 77/130/23 81/130/23
f 81/131/24 77/131/24 71/132/24 72/133/24 82/133/24
f 73/134/25 76/124/25 89/124/25 85/135/25 84/134/25
f 74/136/26 75/137/26 80/3/26 90/3/26 88/136/26
f 87/138/27 79/138/27 78/129/27 83/128/27 86/139/27
f 72/133/28 73/134/28 84/134/28 82/133/28
f 76/124/29 74/136/29 88/136/29 89/124/29
f 90/3/30 80/3/30 79/138/30 87/138/30
f 130/45/9 124/46/9 108/47/9 103/48/9 127/49/9 131/50/9 129/51/9 125/52/9
f 127/49/9 103/48/9 100/53/9 102/54/9 108/47/9 124/46/9 123/55/9 126/56/9 125/52/9 129/51/9 128/57/9
f 92/58/7 93/59/7 96/60/7 94/61/7
f 99/62/10 98/63/10 111/64/10 139/65/10 138/66/10 140/67/10 135/68/10 132/69/10 133/70/10 134/71/10 112/72/10
f 137/73/10 139/65/10 111/64/10 112/72/10 134/71/10 136/74/10 132/69/10 135/68/10
f 94/61/11 96/60/11 114/75/11 110/76/11
f 98/63/5 99/62/5 102/54/5 100/53/5
f 141/140/1 99/78/1 112/79/1 114/80/1 96/81/1 93/82/1 145/141/1 144/142/1 143/143/1 146/144/1 142/145/1
f 145/141/1 93/82/1 107/88/1 108/89/1 102/90/1 99/78/1 141/140/1 147/146/1 148/147/1 149/148/1 150/149/1
f 105/95/12 107/96/12 93/59/12 92/58/12
f 103/48/3 108/47/3 107/97/3 105/98/3
f 112/72/4 111/64/4 110/76/4 114/75/4
f 151/150/2 153/151/2 98/101/2 100/102/2 103/103/2 105/110/2 92/111/2 158/152/2 160/153/2 156/154/2 154/155/2
f 157/156/2 158/152/2 92/111/2 94/112/2 110/99/2 111/100/2 98/101/2 153/151/2 152/157/2 155/158/2 159/159/2
f 138/117/13 95/5/13 91/118/13 140/119/13
f 139/120/14 101/8/14 95/5/14 138/117/14
f 137/121/15 97/28/15 101/8/15 139/120/15
f 135/122/16 140/123/16 91/124/16 97/28/16 137/121/16
f 97/28/17 91/29/17 95/30/17 101/8/17
f 129/119/18 104/118/18 106/5/18 128/125/18
f 128/125/19 106/5/19 113/8/19 127/120/19
f 113/8/20 109/28/20 131/121/20 127/120/20
f 104/124/21 129/123/21 131/121/21 109/28/21
f 106/30/22 104/29/22 109/28/22 113/8/22
f 123/117/19 116/5/19 115/118/19 126/119/19
f 124/120/18 118/8/18 116/5/18 123/117/18
f 130/126/21 117/28/21 118/8/21 124/120/21
f 125/127/20 126/123/20 115/124/20 117/28/20 130/126/20
f 118/8/22 117/28/22 115/29/22 116/30/22
f 120/5/14 133/117/14 132/119/14 119/118/14
f 120/5/13 122/8/13 134/120/13 133/117/13
f 134/120/16 122/8/16 121/28/16 136/121/16
f 136/121/15 121/28/15 119/124/15 132/123/15
f 122/8/17 120/30/17 119/29/17 121/28/17
f 154/129/23 148/129/23 147/130/23 151/130/23
f 151/131/24 147/131/24 141/160/24 142/133/24 152/133/24 153/161/24
f 146/134/25 143/124/25 159/124/25 155/134/25
f 144/136/26 145/162/26 150/3/26 160/3/26 158/163/26 157/136/26
f 156/138/27 149/138/27 148/129/27 154/129/27
f 142/133/28 146/134/28 155/134/28 152/133/28
f 143/124/29 144/136/29 157/136/29 159/124/29
f 160/3/30 150/3/30 149/138/30 156/138/30
f 164/164/2 186/165/2 187/166/2 196/167/2
f 188/168/2 189/169/2 191/170/2 177/171/2
f 192/172/2 193/173/2 195/174/2 162/175/2
f 185/176/2 190/177/2 175/178/2 194/179/2
f 181/180/4 174/181/4 178/182/4 183/183/4
f 182/184/7 176/185/7 165/186/7 170/187/7
f 163/188/3 168/189/3 172/190/3 166/191/3
f 199/192/1 200/193/1 205/194/1 184/195/1
f 171/196/1 201/197/1 203/198/1 202/199/1
f 198/200/1 197/201/1 169/202/1 204/203/1
f 180/204/1 208/205/1 206/206/1 207/207/1
f 161/208/31 163/209/31 162/210/31
f 164/211/32 166/191/32 165/212/32
f 167/213/33 169/214/33 168/215/33
f 170/216/34 172/190/34 171/217/34
f 173/218/35 175/219/35 174/220/35
f 176/221/36 178/222/36 177/171/36
f 179/223/37 181/224/37 180/225/37
f 182/226/38 184/195/38 183/227/38
f 167/213/39 168/215/39 163/209/39 161/208/39
f 196/228/40 209/229/40 192/230/40 162/231/40 163/188/40 166/191/40 164/211/40
f 165/212/41 166/191/41 172/190/41 170/216/41
f 169/202/42 197/201/42 210/232/42 201/197/42 171/196/42 172/190/42 168/189/42
f 207/233/43 211/234/43 204/235/43 169/214/43 167/213/43 179/223/43 180/225/43
f 202/199/44 212/236/44 199/192/44 184/195/44 182/226/44 170/237/44 171/196/44
f 184/195/45 205/194/45 213/238/45 208/205/45 180/204/45 181/180/45 183/183/45
f 173/218/46 174/181/46 181/180/46 179/223/46
f 182/184/47 183/183/47 178/182/47 176/185/47
f 190/177/48 214/239/48 188/168/48 177/171/48 178/182/48 174/181/48 175/178/48
f 161/208/49 162/210/49 195/240/49 215/241/49 194/242/49 175/219/49 173/218/49
f 177/171/50 191/170/50 216/243/50 186/165/50 164/164/50 165/244/50 176/221/50
f 167/213/5 161/208/5 173/218/5 179/223/5
f 204/245/23 211/246/23 215/247/23 195/248/23 193/249/23 198/250/23
f 192/251/27 209/252/27 210/253/27 197/254/27 198/250/27 193/249/27
f 201/255/30 210/253/30 209/252/30 196/256/30 187/257/30 203/258/30
f 187/257/26 186/259/26 216/260/26 212/261/26 202/262/26 203/258/26
f 200/263/29 199/264/29 212/261/29 216/260/29 191/265/29 189/266/29
f 189/266/25 188/267/25 214/268/25 213/269/25 205/270/25 200/263/25
f 208/271/28 213/269/28 214/268/28 190/272/28 185/273/28 206/274/28
f 194/275/24 215/276/24 211/277/24 207/278/24 206/274/24 185/273/24
f 221/279/1 220/8/1 224/280/1
f 225/281/2 217/124/2 228/282/2
f 221/283/51 226/284/51 219/28/51 220/8/51
f 223/285/52 228/286/52 217/24/52 218/25/52
f 220/7/53 219/2/53 227/287/53 224/288/53
f 224/288/7 227/287/7 228/286/7 223/285/7
f 218/30/54 217/29/54 225/289/54 222/290/54
f 222/290/5 225/289/5 226/284/5 221/283/5
f 219/2/2 226/291/2 227/292/2
f 226/291/2 225/281/2 228/282/2 227/292/2
f 218/6/1 222/293/1 223/294/1
f 222/293/1 221/279/1 224/280/1 223/294/1
