# Blender 4.4.3
# www.blender.org
mtllib Barrel3.mtl
o Cylinder.013
v 0.000000 0.309244 -0.325568
v 0.000000 0.309244 -2.998668
v 0.036622 0.324414 -0.325568
v 0.036622 0.324414 -2.998668
v 0.051792 0.361036 -0.325568
v 0.051792 0.361036 -2.998668
v 0.036622 0.397658 -0.325568
v 0.036622 0.397658 -2.998668
v 0.000000 0.412828 -0.325568
v 0.000000 0.412828 -2.998668
v -0.036622 0.397658 -0.325568
v -0.036622 0.397658 -2.998668
v -0.051792 0.361036 -0.325568
v -0.051792 0.361036 -2.998668
v -0.036622 0.324414 -0.325568
v -0.036622 0.324414 -2.998668
v 0.000000 0.298808 -0.226355
v 0.044002 0.317034 -0.226355
v 0.062228 0.361036 -0.226355
v 0.044002 0.405038 -0.226355
v 0.000000 0.423264 -0.226355
v -0.044002 0.405038 -0.226355
v -0.062228 0.361036 -0.226355
v -0.044002 0.317034 -0.226355
v 0.026044 0.334992 -2.998668
v -0.026044 0.334992 -2.998668
v -0.026044 0.387080 -2.998668
v 0.026044 0.387080 -2.998668
v 0.000000 0.324205 -2.998668
v -0.036831 0.361036 -2.998668
v 0.036831 0.361036 -2.998668
v 0.000000 0.397868 -2.998668
v -0.026044 0.334992 -0.226355
v 0.000000 0.324204 -0.226355
v 0.036831 0.361036 -0.226355
v 0.026044 0.387080 -0.226355
v 0.026044 0.334992 -0.226355
v -0.036831 0.361036 -0.226355
v 0.000000 0.397867 -0.226355
v -0.026044 0.387080 -0.226355
v 0.000000 0.292008 -2.660367
v 0.000000 0.292008 -2.575332
v 0.053467 0.269861 -2.660367
v 0.053467 0.269861 -2.575332
v 0.075614 0.216394 -2.660367
v 0.075614 0.216394 -2.575332
v 0.053467 0.162927 -2.660367
v 0.053467 0.162927 -2.575332
v 0.000000 0.140780 -2.660367
v 0.000000 0.140780 -2.575332
v -0.053467 0.162927 -2.660367
v -0.053467 0.162927 -2.575332
v -0.075614 0.216394 -2.660367
v -0.075614 0.216394 -2.575332
v -0.053467 0.269861 -2.660367
v -0.053467 0.269861 -2.575332
v -0.026734 0.280935 -2.660367
v -0.026734 0.280935 -2.575332
v 0.026734 0.280935 -2.660367
v 0.026734 0.280935 -2.575332
v 0.026734 0.320127 -2.575332
v 0.000000 0.309789 -2.575332
v 0.000000 0.309789 -2.660367
v -0.026734 0.320127 -2.660367
v -0.026734 0.320127 -2.575332
v 0.026734 0.320127 -2.660367
v 0.000000 0.292008 -1.358111
v 0.000000 0.292008 -1.198926
v 0.053467 0.269861 -1.358111
v 0.053467 0.269861 -1.198926
v 0.075614 0.216394 -1.358111
v 0.075614 0.216394 -1.198926
v 0.053467 0.162927 -1.358111
v 0.053467 0.162927 -1.198926
v 0.000000 0.140780 -1.358111
v 0.000000 0.140780 -1.198926
v -0.053467 0.162927 -1.358111
v -0.053467 0.162927 -1.198926
v -0.075614 0.216394 -1.358111
v -0.075614 0.216394 -1.198926
v -0.053467 0.269861 -1.358111
v -0.053467 0.269861 -1.198926
v -0.026734 0.280935 -1.358111
v -0.026734 0.280935 -1.198926
v 0.026734 0.280935 -1.358111
v 0.026734 0.280935 -1.198926
v 0.026734 0.320127 -1.198926
v 0.000000 0.309789 -1.198926
v 0.000000 0.309789 -1.358111
v -0.026734 0.320127 -1.358111
v -0.026734 0.320127 -1.198926
v 0.026734 0.320127 -1.358111
v 0.000000 0.152317 -0.229350
v 0.000000 0.152317 -2.663885
v 0.045309 0.171085 -0.229350
v 0.045309 0.171085 -2.663885
v 0.064077 0.216394 -0.229350
v 0.064077 0.216394 -2.663885
v 0.045309 0.261703 -0.229350
v 0.045309 0.261703 -2.663885
v 0.000000 0.280471 -0.229350
v 0.000000 0.280471 -2.663885
v -0.045309 0.261703 -0.229350
v -0.045309 0.261703 -2.663885
v -0.064077 0.216394 -0.229350
v -0.064077 0.216394 -2.663885
v -0.045309 0.171085 -0.229350
v -0.045309 0.171085 -2.663885
v 0.045309 0.171085 -2.761400
v 0.000000 0.152317 -2.761400
v 0.064077 0.216394 -2.761400
v 0.045309 0.261703 -2.761400
v 0.000000 0.280471 -2.761400
v -0.045309 0.261703 -2.761400
v -0.064077 0.216394 -2.761400
v -0.045309 0.171085 -2.761400
v 0.054750 0.271144 -2.689068
v 0.054750 0.271144 -2.736218
v -0.000000 0.293822 -2.736218
v -0.000000 0.293822 -2.689068
v -0.077428 0.216394 -2.689068
v -0.077428 0.216394 -2.736218
v -0.054750 0.161644 -2.736218
v -0.054750 0.161644 -2.689068
v 0.054750 0.161644 -2.689068
v 0.054750 0.161644 -2.736218
v 0.077428 0.216394 -2.736218
v 0.077428 0.216394 -2.689068
v -0.054750 0.271144 -2.736218
v -0.054750 0.271144 -2.689068
v -0.000000 0.138966 -2.736218
v -0.000000 0.138966 -2.689068
v -0.029841 0.387579 -2.720190
v -0.029841 0.387579 -2.935655
v -0.029841 0.504260 -2.842195
v 0.029841 0.387579 -2.720190
v 0.029841 0.387579 -2.935655
v 0.029841 0.504260 -2.842195
v -0.029841 0.505286 -2.766058
v -0.029841 0.512956 -2.784358
v 0.029841 0.512956 -2.784358
v 0.029841 0.505286 -2.766058
v -0.029841 0.419259 -2.752446
v -0.029841 0.444792 -2.760728
v -0.029841 0.444792 -2.853220
v -0.029841 0.419259 -2.875580
v -0.029841 0.444792 -2.857834
v 0.029841 0.419259 -2.875580
v 0.029841 0.444792 -2.857834
v 0.029841 0.419259 -2.752446
v 0.029841 0.444792 -2.760728
v 0.018956 0.504260 -2.842195
v -0.018956 0.504260 -2.842195
v -0.018956 0.512956 -2.784358
v 0.018956 0.512956 -2.784358
v -0.013651 0.459258 -2.800759
v 0.013651 0.459258 -2.800759
v -0.018956 0.505286 -2.766058
v 0.018956 0.505286 -2.766058
v 0.013651 0.459258 -2.784966
v -0.013651 0.459258 -2.784966
v -0.018956 0.459258 -2.878242
v 0.018956 0.459258 -2.878242
v -0.018956 0.459258 -2.748122
v 0.018956 0.459258 -2.748122
v -0.011442 0.467910 -2.800759
v 0.011442 0.467910 -2.800759
v -0.011442 0.467910 -2.784966
v 0.011442 0.467910 -2.784966
v -0.005897 0.469065 -2.800759
v 0.005897 0.469065 -2.800759
v -0.005897 0.469065 -2.784966
v 0.005897 0.469065 -2.784966
v -0.003813 0.483904 -2.799342
v 0.003813 0.483904 -2.799342
v -0.003813 0.483904 -2.786383
v 0.003813 0.483904 -2.786383
vn 0.3827 -0.9239 -0.0000
vn 0.9239 -0.3827 -0.0000
vn 0.9239 0.3827 -0.0000
vn 0.3827 0.9239 -0.0000
vn -0.3827 0.9239 -0.0000
vn -0.9239 0.3827 -0.0000
vn -0.0000 -0.0000 -1.0000
vn -0.9239 -0.3827 -0.0000
vn -0.3827 -0.9239 -0.0000
vn -0.3809 0.9195 -0.0967
vn -0.0000 -0.0000 1.0000
vn -0.3809 -0.9195 -0.0967
vn 0.3809 -0.9195 -0.0967
vn 0.9195 0.3809 -0.0967
vn -0.9195 0.3809 -0.0967
vn 0.3809 0.9195 -0.0967
vn -0.9195 -0.3809 -0.0967
vn 0.9195 -0.3809 -0.0967
vn -1.0000 -0.0000 -0.0000
vn 0.3607 0.9327 -0.0000
vn -0.3607 0.9327 -0.0000
vn 1.0000 -0.0000 -0.0000
vn 0.3437 0.8297 -0.4399
vn -0.8297 -0.3437 -0.4399
vn 0.8297 -0.3437 -0.4399
vn -0.3437 0.8297 -0.4399
vn -0.3437 -0.8297 -0.4399
vn 0.3437 -0.8297 -0.4399
vn 0.8297 0.3437 -0.4399
vn -0.8297 0.3437 -0.4399
vn -0.8297 0.3437 0.4399
vn 0.8297 0.3437 0.4399
vn 0.3437 -0.8297 0.4399
vn -0.3437 -0.8297 0.4399
vn -0.3437 0.8297 0.4399
vn 0.8297 -0.3437 0.4399
vn -0.8297 -0.3437 0.4399
vn 0.3437 0.8297 0.4399
vn -0.0000 0.9889 -0.1487
vn -0.0000 0.6252 -0.7805
vn -0.0000 -1.0000 -0.0000
vn -0.0000 0.9223 0.3866
vn -0.0000 0.3631 0.9318
vn -0.0000 -0.5707 0.8211
vn -0.0000 -0.3085 -0.9512
vn -0.0000 1.0000 -0.0000
vn -0.9689 0.2474 -0.0000
vn 0.2040 0.9790 -0.0000
vn 0.9689 0.2474 -0.0000
vn -0.0000 0.0951 0.9955
vn -0.2040 0.9790 -0.0000
vn -0.9903 0.1391 -0.0000
vn 0.9903 0.1391 -0.0000
vn -0.0000 0.0951 -0.9955
vt 1.000000 0.500000
vt 1.000000 1.000000
vt 0.875000 1.000000
vt 0.875000 0.500000
vt 0.750000 1.000000
vt 0.750000 0.500000
vt 0.625000 1.000000
vt 0.625000 0.500000
vt 0.500000 1.000000
vt 0.500000 0.500000
vt 0.375000 1.000000
vt 0.375000 0.500000
vt 0.250000 1.000000
vt 0.250000 0.500000
vt 0.419706 0.080294
vt 0.490000 0.250000
vt 0.419706 0.419706
vt 0.250000 0.490000
vt 0.080294 0.419706
vt 0.010000 0.250000
vt 0.080294 0.080294
vt 0.250000 0.010000
vt 0.250000 0.079326
vt 0.129315 0.129315
vt 0.079326 0.250000
vt 0.129315 0.370684
vt 0.250000 0.420674
vt 0.370685 0.370684
vt 0.420674 0.250000
vt 0.370685 0.129315
vt 0.125000 1.000000
vt 0.125000 0.500000
vt 0.000000 1.000000
vt 0.000000 0.500000
vt 0.580294 0.419706
vt 0.750000 0.490000
vt 0.919706 0.419706
vt 0.850444 0.350445
vt 0.750000 0.392050
vt 0.649556 0.350445
vt 0.990000 0.250000
vt 0.919706 0.080294
vt 0.750000 0.010000
vt 0.580294 0.080294
vt 0.510000 0.250000
vt 0.607950 0.250000
vt 0.649556 0.149556
vt 0.750000 0.107950
vt 0.850444 0.149556
vt 0.892050 0.250000
vt 1.000000 0.588702
vt 0.875000 0.588702
vt 0.875000 0.957678
vt 1.000000 0.957678
vt 0.750000 0.588702
vt 0.750000 0.957678
vt 0.625000 0.588702
vt 0.625000 0.957678
vt 0.500000 0.588702
vt 0.500000 0.957678
vt 0.375000 0.588702
vt 0.375000 0.957678
vt 0.250000 0.588702
vt 0.250000 0.957678
vt 0.125000 0.588702
vt 0.125000 0.957678
vt 0.000000 0.588702
vt 0.000000 0.957678
vt 0.937500 0.500000
vt 0.937500 1.000000
vt 0.334853 0.454853
vt 0.165147 0.454853
vt 0.062500 0.500000
vt 0.062500 1.000000
vt 0.834853 0.454853
vt 0.665147 0.454853
vt 0.875000 0.703268
vt 0.829403 0.703268
vt 0.829403 0.500000
vt 0.670597 0.703268
vt 0.625000 0.703268
vt 0.670597 0.500000
vt 0.625000 0.454403
vt 0.375000 0.250000
vt 0.625000 0.250000
vt 0.625000 0.295597
vt 0.528578 0.295597
vt 0.528578 0.454403
vt 0.436821 0.029471
vt 0.375000 0.000000
vt 0.600415 0.000000
vt 0.625000 0.046732
vt 0.495487 0.193670
vt 0.486304 0.030544
vt 0.495804 0.201133
vt 0.441870 0.203161
vt 0.375000 0.750000
vt 0.125000 0.750000
vt 0.441870 0.546839
vt 0.436821 0.720529
vt 0.600415 0.750000
vt 0.486304 0.719456
vt 0.495804 0.548867
vt 0.600415 1.000000
vt 0.600415 0.954403
vt 0.625000 0.954403
vt 0.600415 0.795597
vt 0.625000 0.750000
vt 0.625000 0.795597
vt 0.512269 0.795596
vt 0.512269 0.954403
vt 0.625000 0.405200
vt 0.625000 0.344800
vt 0.375000 0.344800
vt 0.375000 0.405200
vt 0.375000 0.844800
vt 0.375000 0.905200
vt 0.625000 0.905200
vt 0.625000 0.844800
vt 0.219800 0.500000
vt 0.219800 0.750000
vt 0.280200 0.750000
vt 0.280200 0.500000
vt 0.719800 0.750000
vt 0.780200 0.750000
vt 0.780200 0.511878
vt 0.780200 0.500000
vt 0.719800 0.500000
vt 0.375000 0.187109
vt 0.452521 0.151397
vt 0.467500 0.094095
vt 0.454287 0.075966
vt 0.375000 0.058196
vt 0.452521 0.598603
vt 0.375000 0.562891
vt 0.375000 0.691804
vt 0.454287 0.674034
vt 0.467500 0.655905
vt 0.162359 0.574699
vt 0.162359 0.679996
vt 0.337641 0.574699
vt 0.125000 0.562891
vt 0.125000 0.691804
vt 0.337641 0.679997
s 0
f 1/1/1 2/2/1 4/3/1 3/4/1
f 3/4/2 4/3/2 6/5/2 5/6/2
f 5/6/3 6/5/3 8/7/3 7/8/3
f 7/8/4 8/7/4 10/9/4 9/10/4
f 9/10/5 10/9/5 12/11/5 11/12/5
f 11/12/6 12/11/6 14/13/6 13/14/6
f 8/15/7 6/16/7 4/17/7 2/18/7 16/19/7 14/20/7 12/21/7 10/22/7 32/23/7 27/24/7 30/25/7 26/26/7 29/27/7 25/28/7 31/29/7 28/30/7
f 32/23/7 10/22/7 8/15/7 28/30/7
f 13/14/8 14/13/8 16/31/8 15/32/8
f 15/32/9 16/31/9 2/33/9 1/34/9
f 9/10/10 11/12/10 22/12/10 21/10/10
f 24/35/11 17/36/11 18/37/11 37/38/11 34/39/11 33/40/11
f 37/38/11 18/37/11 19/41/11 20/42/11 21/43/11 22/44/11 23/45/11 24/35/11 33/40/11 38/46/11 40/47/11 39/48/11 36/49/11 35/50/11
f 15/32/12 1/34/12 17/34/12 24/32/12
f 1/1/13 3/4/13 18/4/13 17/1/13
f 5/6/14 7/8/14 20/8/14 19/6/14
f 11/12/15 13/14/15 23/14/15 22/12/15
f 7/8/16 9/10/16 21/10/16 20/8/16
f 13/14/17 15/32/17 24/32/17 23/14/17
f 3/4/18 5/6/18 19/6/18 18/4/18
f 32/51/9 28/52/9 36/53/9 39/54/9
f 28/52/8 31/55/8 35/56/8 36/53/8
f 31/55/6 25/57/6 37/58/6 35/56/6
f 37/58/5 25/57/5 29/59/5 34/60/5
f 34/60/4 29/59/4 26/61/4 33/62/4
f 33/62/3 26/61/3 30/63/3 38/64/3
f 38/64/2 30/63/2 27/65/2 40/66/2
f 27/65/1 32/67/1 39/68/1 40/66/1
f 59/69/4 60/70/4 44/3/4 43/4/4
f 43/4/3 44/3/3 46/5/3 45/6/3
f 45/6/2 46/5/2 48/7/2 47/8/2
f 47/8/1 48/7/1 50/9/1 49/10/1
f 49/10/9 50/9/9 52/11/9 51/12/9
f 51/12/8 52/11/8 54/13/8 53/14/8
f 44/17/11 60/71/11 42/18/11 58/72/11 56/19/11 54/20/11 52/21/11 50/22/11 48/15/11 46/16/11
f 53/14/6 54/13/6 56/31/6 55/32/6
f 57/73/19 58/74/19 65/74/19 64/73/19
f 41/36/7 59/75/7 43/37/7 45/41/7 47/42/7 49/43/7 51/44/7 53/45/7 55/35/7 57/76/7
f 55/32/5 56/31/5 58/74/5 57/73/5
f 42/18/11 60/71/11 61/71/11 62/18/11
f 64/73/20 65/74/20 62/33/20 63/34/20
f 63/1/21 62/2/21 61/70/21 66/69/21
f 41/36/7 57/76/7 64/76/7 63/36/7
f 60/70/22 59/69/22 66/69/22 61/70/22
f 59/75/7 41/36/7 63/36/7 66/75/7
f 58/72/11 42/18/11 62/18/11 65/72/11
f 85/69/4 86/70/4 70/3/4 69/4/4
f 69/4/3 70/3/3 72/5/3 71/6/3
f 71/6/2 72/5/2 74/7/2 73/8/2
f 73/8/1 74/7/1 76/9/1 75/10/1
f 75/10/9 76/9/9 78/11/9 77/12/9
f 77/12/8 78/11/8 80/13/8 79/14/8
f 70/17/11 86/71/11 68/18/11 84/72/11 82/19/11 80/20/11 78/21/11 76/22/11 74/15/11 72/16/11
f 79/14/6 80/13/6 82/31/6 81/32/6
f 83/73/19 84/74/19 91/74/19 90/73/19
f 67/36/7 85/75/7 69/37/7 71/41/7 73/42/7 75/43/7 77/44/7 79/45/7 81/35/7 83/76/7
f 81/32/5 82/31/5 84/74/5 83/73/5
f 68/18/11 86/71/11 87/71/11 88/18/11
f 90/73/20 91/74/20 88/33/20 89/34/20
f 89/1/21 88/2/21 87/70/21 92/69/21
f 67/36/7 83/76/7 90/76/7 89/36/7
f 86/70/22 85/69/22 92/69/22 87/70/22
f 85/75/7 67/36/7 89/36/7 92/75/7
f 84/72/11 68/18/11 88/18/11 91/72/11
f 93/1/1 94/2/1 96/3/1 95/4/1
f 95/4/2 96/3/2 98/5/2 97/6/2
f 97/6/3 98/5/3 100/7/3 99/8/3
f 99/8/4 100/7/4 102/9/4 101/10/4
f 101/10/5 102/9/5 104/11/5 103/12/5
f 103/12/6 104/11/6 106/13/6 105/14/6
f 119/9/23 118/7/23 112/7/23 113/9/23
f 105/14/8 106/13/8 108/31/8 107/32/8
f 107/32/9 108/31/9 94/33/9 93/34/9
f 93/36/11 95/37/11 97/41/11 99/42/11 101/43/11 103/44/11 105/45/11 107/35/11
f 109/17/7 110/18/7 116/19/7 115/20/7 114/21/7 113/22/7 112/15/7 111/16/7
f 123/31/24 122/13/24 115/13/24 116/31/24
f 127/5/25 126/3/25 109/3/25 111/5/25
f 129/11/26 119/9/26 113/9/26 114/11/26
f 131/33/27 123/31/27 116/31/27 110/33/27
f 126/3/28 131/2/28 110/2/28 109/3/28
f 118/7/29 127/5/29 111/5/29 112/7/29
f 122/13/30 129/11/30 114/11/30 115/13/30
f 106/13/31 104/11/31 130/11/31 121/13/31
f 121/13/6 130/11/6 129/11/6 122/13/6
f 100/7/32 98/5/32 128/5/32 117/7/32
f 117/7/3 128/5/3 127/5/3 118/7/3
f 96/3/33 94/2/33 132/2/33 125/3/33
f 125/3/1 132/2/1 131/2/1 126/3/1
f 94/33/34 108/31/34 124/31/34 132/33/34
f 132/33/9 124/31/9 123/31/9 131/33/9
f 104/11/35 102/9/35 120/9/35 130/11/35
f 130/11/5 120/9/5 119/9/5 129/11/5
f 98/5/36 96/3/36 125/3/36 128/5/36
f 128/5/2 125/3/2 126/3/2 127/5/2
f 108/31/37 106/13/37 121/13/37 124/31/37
f 124/31/8 121/13/8 122/13/8 123/31/8
f 102/9/38 100/7/38 117/7/38 120/9/38
f 120/9/4 117/7/4 118/7/4 119/9/4
f 135/4/39 140/77/39 154/78/39 153/79/39
f 155/80/39 141/81/39 138/8/39 152/82/39
f 152/83/40 138/8/40 137/12/40 134/84/40 135/85/40 153/86/40 162/87/40 163/88/40
f 143/89/19 133/90/19 139/91/19 140/92/19 135/85/19 145/93/19 144/94/19
f 147/95/19 145/93/19 135/85/19 134/84/19 133/90/19 143/89/19 146/96/19
f 134/32/41 137/12/41 136/97/41 133/98/41
f 148/99/22 150/100/22 136/97/22 137/12/22 138/8/22 141/81/22 142/101/22 151/102/22 149/103/22
f 151/102/22 142/101/22 136/97/22 150/100/22
f 140/7/42 139/104/42 158/105/42 154/106/42
f 159/107/42 142/101/42 141/108/42 155/109/42
f 158/105/43 139/104/43 133/11/43 136/97/43 142/101/43 159/107/43 165/110/43 164/111/43
f 149/112/44 147/113/44 146/114/44 148/115/44
f 150/116/45 143/117/45 144/118/45 151/119/45
f 146/120/46 143/121/46 150/122/46 148/123/46
f 151/124/41 144/125/41 145/126/41 147/127/41 149/128/41
f 162/129/22 153/130/22 154/131/22 158/132/22 164/133/22
f 152/134/19 163/135/19 165/136/19 159/137/19 155/138/19
f 156/139/47 161/140/47 168/140/47 166/139/47
f 156/139/46 157/141/46 163/135/46 162/142/46
f 161/140/46 156/139/46 162/142/46 164/143/46
f 157/141/46 160/144/46 165/136/46 163/135/46
f 160/144/46 161/140/46 164/143/46 165/136/46
f 169/144/48 167/141/48 171/141/48 173/144/48
f 160/144/49 157/141/49 167/141/49 169/144/49
f 157/141/7 156/139/7 166/139/7 167/141/7
f 161/140/11 160/144/11 169/144/11 168/140/11
f 172/140/50 173/144/50 177/144/50 176/140/50
f 167/141/7 166/139/7 170/139/7 171/141/7
f 168/140/11 169/144/11 173/144/11 172/140/11
f 166/139/51 168/140/51 172/140/51 170/139/51
f 177/144/46 175/141/46 174/139/46 176/140/46
f 170/139/52 172/140/52 176/140/52 174/139/52
f 173/144/53 171/141/53 175/141/53 177/144/53
f 171/141/54 170/139/54 174/139/54 175/141/54
