# Blender 4.4.3
# www.blender.org
mtllib Muzzle.mtl
o Cylinder.004
v 0.000000 0.417459 -2.444308
v 0.039897 0.400933 -2.444308
v 0.056423 0.361036 -2.444308
v 0.039897 0.321139 -2.444308
v 0.000000 0.304613 -2.444308
v -0.039897 0.321139 -2.444308
v -0.056423 0.361036 -2.444308
v -0.039897 0.400933 -2.444308
v 0.000000 0.404142 -2.515470
v 0.000000 0.417459 -2.498983
v 0.030480 0.391516 -2.515470
v 0.039897 0.400933 -2.498983
v 0.043106 0.361036 -2.515470
v 0.056423 0.361036 -2.498983
v 0.030480 0.330556 -2.515470
v 0.039897 0.321139 -2.498983
v 0.000000 0.317930 -2.515470
v 0.000000 0.304613 -2.498983
v -0.030480 0.330556 -2.515470
v -0.039897 0.321139 -2.498983
v -0.043106 0.361036 -2.515470
v -0.056423 0.361036 -2.498983
v -0.030480 0.391516 -2.515470
v -0.039897 0.400933 -2.498983
v -0.023838 0.384874 -2.444308
v 0.023838 0.384874 -2.444308
v 0.000000 0.394748 -2.444308
v -0.033712 0.361036 -2.444308
v -0.023838 0.337198 -2.444308
v 0.033712 0.361036 -2.444308
v 0.023838 0.337198 -2.444308
v 0.000000 0.327324 -2.444308
v 0.000000 0.394748 -2.515470
v 0.033712 0.361036 -2.515470
v 0.000000 0.327324 -2.515470
v -0.033712 0.361036 -2.515470
v -0.023838 0.384874 -2.515470
v 0.023838 0.337198 -2.515470
v 0.023838 0.384874 -2.515470
v -0.023838 0.337198 -2.515470
vn -0.3827 0.9239 -0.0000
vn 0.9239 -0.3827 -0.0000
vn 0.3827 -0.9239 -0.0000
vn -0.3827 -0.9239 -0.0000
vn -0.9239 -0.3827 -0.0000
vn -0.9239 0.3827 -0.0000
vn -0.0000 -0.0000 1.0000
vn 0.9239 0.3827 -0.0000
vn 0.3827 0.9239 -0.0000
vn 0.3067 0.7404 -0.5981
vn 0.7404 0.3067 -0.5981
vn 0.7404 -0.3067 -0.5981
vn 0.3067 -0.7404 -0.5981
vn -0.3067 -0.7404 -0.5981
vn -0.7404 -0.3067 -0.5981
vn -0.7404 0.3067 -0.5981
vn -0.3067 0.7404 -0.5981
vn -0.0000 -0.0000 -1.0000
vt 0.125000 0.588332
vt 0.125000 1.000000
vt 0.000000 1.000000
vt 0.000000 0.588332
vt 0.750000 0.588332
vt 0.750000 1.000000
vt 0.625000 1.000000
vt 0.625000 0.588332
vt 0.500000 1.000000
vt 0.500000 0.588332
vt 0.375000 1.000000
vt 0.375000 0.588332
vt 0.250000 1.000000
vt 0.250000 0.588332
vt 0.393397 0.250000
vt 0.490000 0.250000
vt 0.419706 0.419706
vt 0.250000 0.490000
vt 0.080294 0.419706
vt 0.010000 0.250000
vt 0.080294 0.080294
vt 0.250000 0.010000
vt 0.250000 0.106603
vt 0.148603 0.148603
vt 0.106603 0.250000
vt 0.148603 0.351397
vt 0.250000 0.393397
vt 0.351397 0.351397
vt 0.419706 0.080294
vt 0.351397 0.148603
vt 0.875000 0.588332
vt 0.875000 1.000000
vt 1.000000 0.588332
vt 1.000000 1.000000
vt 0.750000 0.490000
vt 0.919706 0.419706
vt 0.833832 0.333832
vt 0.750000 0.368556
vt 0.990000 0.250000
vt 0.868556 0.250000
vt 0.919706 0.080294
vt 0.833832 0.166168
vt 0.750000 0.010000
vt 0.750000 0.131444
vt 0.580294 0.080294
vt 0.666168 0.166168
vt 0.510000 0.250000
vt 0.631444 0.250000
vt 0.580294 0.419706
vt 0.666168 0.333832
vt 0.750000 0.342720
vt 0.815563 0.315563
vt 0.684437 0.315563
vt 0.657280 0.250000
vt 0.684437 0.184437
vt 0.750000 0.157280
vt 0.815563 0.184437
vt 0.842720 0.250000
vt 0.000000 0.730282
vt 0.000000 0.819259
vt 0.125000 0.819259
vt 0.125000 0.730282
vt 0.625000 0.819259
vt 0.750000 0.819259
vt 0.750000 0.730282
vt 0.625000 0.730282
vt 0.500000 0.819259
vt 0.500000 0.730282
vt 0.375000 0.819259
vt 0.375000 0.730282
vt 0.250000 0.730282
vt 0.250000 0.819259
vt 0.875000 0.819259
vt 0.875000 0.730282
vt 1.000000 0.819259
vt 1.000000 0.730282
s 0
f 24/1/1 8/2/1 1/3/1 10/4/1
f 14/5/2 3/6/2 4/7/2 16/8/2
f 16/8/3 4/7/3 5/9/3 18/10/3
f 18/10/4 5/9/4 6/11/4 20/12/4
f 20/12/5 6/11/5 7/13/5 22/14/5
f 22/14/6 7/13/6 8/2/6 24/1/6
f 30/15/7 3/16/7 2/17/7 1/18/7 8/19/7 7/20/7 6/21/7 5/22/7 32/23/7 29/24/7 28/25/7 25/26/7 27/27/7 26/28/7
f 32/23/7 5/22/7 4/29/7 3/16/7 30/15/7 31/30/7
f 12/31/8 2/32/8 3/6/8 14/5/8
f 10/33/9 1/34/9 2/32/9 12/31/9
f 10/35/10 12/36/10 11/37/10 9/38/10
f 12/36/11 14/39/11 13/40/11 11/37/11
f 14/39/12 16/41/12 15/42/12 13/40/12
f 16/41/13 18/43/13 17/44/13 15/42/13
f 18/43/14 20/45/14 19/46/14 17/44/14
f 20/45/15 22/47/15 21/48/15 19/46/15
f 22/47/16 24/49/16 23/50/16 21/48/16
f 24/49/17 10/35/17 9/38/17 23/50/17
f 33/51/18 9/38/18 11/37/18 39/52/18
f 39/52/18 11/37/18 13/40/18 15/42/18 17/44/18 19/46/18 21/48/18 23/50/18 9/38/18 33/51/18 37/53/18 36/54/18 40/55/18 35/56/18 38/57/18 34/58/18
f 33/59/3 27/60/3 25/61/3 37/62/3
f 31/63/6 30/64/6 34/65/6 38/66/6
f 32/67/1 31/63/1 38/66/1 35/68/1
f 29/69/9 32/67/9 35/68/9 40/70/9
f 36/71/8 28/72/8 29/69/8 40/70/8
f 37/62/2 25/61/2 28/72/2 36/71/2
f 26/73/5 39/74/5 34/65/5 30/64/5
f 39/74/4 26/73/4 27/75/4 33/76/4
