# Blender v3.0.0 OBJ File: 'Scopes.blend'
# www.blender.org
mtllib Mag.mtl
o Cube.007_Cube
v -0.750526 -0.234222 -0.264804
v -0.750526 -0.227869 -0.260079
v -0.750526 -0.218220 -0.273407
v -0.750526 -0.224573 -0.278132
v -0.716428 -0.218220 -0.273407
v -0.716428 -0.224573 -0.278132
v -0.707287 -0.284107 -0.195900
v -0.707287 -0.277754 -0.191175
v -0.718402 -0.284147 -0.182344
v -0.718402 -0.290501 -0.187068
v -0.748552 -0.284147 -0.182344
v -0.748552 -0.290501 -0.187068
v -0.759667 -0.284107 -0.195900
v -0.744439 -0.216193 -0.264549
v -0.722515 -0.216193 -0.264549
v -0.707287 -0.234916 -0.250346
v -0.716428 -0.227869 -0.260079
v -0.722515 -0.222269 -0.256025
v -0.707287 -0.229316 -0.246291
v -0.716428 -0.234222 -0.264804
v -0.707287 -0.241270 -0.255070
v -0.759667 -0.241270 -0.255070
v -0.759667 -0.277754 -0.191175
v -0.759667 -0.234916 -0.250346
v -0.707287 -0.272154 -0.187121
v -0.711754 -0.274869 -0.183236
v -0.755200 -0.274869 -0.183236
v -0.709918 -0.271455 -0.188120
v -0.757035 -0.271455 -0.188120
v -0.753611 -0.273670 -0.184951
v -0.713343 -0.273670 -0.184951
v -0.724227 -0.223097 -0.254882
v -0.742727 -0.223097 -0.254882
v -0.757035 -0.230144 -0.245148
v -0.709918 -0.230144 -0.245148
v -0.724227 -0.217417 -0.262832
v -0.742727 -0.217417 -0.262832
v -0.744439 -0.222269 -0.256025
v -0.759667 -0.272154 -0.187121
v -0.759667 -0.229316 -0.246291
v -0.711754 -0.187049 -0.135907
v -0.755200 -0.187049 -0.135907
v -0.709918 -0.157729 -0.206432
v -0.724227 -0.153105 -0.217523
v -0.707287 -0.157186 -0.207735
v -0.707287 -0.185298 -0.140311
v -0.757035 -0.157729 -0.206432
v -0.757035 -0.184848 -0.141444
v -0.744439 -0.148604 -0.228517
v -0.722515 -0.148604 -0.228517
v -0.753611 -0.186276 -0.137852
v -0.713343 -0.186276 -0.137852
v -0.722515 -0.152562 -0.218826
v -0.744439 -0.152562 -0.218826
v -0.709918 -0.184848 -0.141444
v -0.707287 -0.094019 -0.185350
v -0.707287 -0.109501 -0.113960
v -0.709918 -0.094319 -0.183970
v -0.724227 -0.091772 -0.195714
v -0.744439 -0.091472 -0.197094
v -0.744439 -0.089329 -0.207339
v -0.722515 -0.089329 -0.207339
v -0.722515 -0.091472 -0.197094
v -0.757035 -0.094319 -0.183970
v -0.757035 -0.109262 -0.115156
v -0.759667 -0.157186 -0.207735
v -0.759667 -0.094019 -0.185350
v -0.753611 -0.110019 -0.111364
v -0.713343 -0.110019 -0.111364
v -0.709918 -0.109262 -0.115156
v -0.759667 -0.185298 -0.140311
v -0.742727 -0.153105 -0.217523
v -0.724227 -0.149401 -0.226565
v -0.742727 -0.149401 -0.226565
v -0.757035 -0.024298 -0.096386
v -0.753611 -0.024561 -0.092529
v -0.759667 -0.109501 -0.113960
v -0.759667 -0.024381 -0.095170
v -0.759667 -0.018203 -0.167957
v -0.742727 -0.089761 -0.205276
v -0.724227 -0.089761 -0.205276
v -0.724227 -0.016541 -0.188266
v -0.742727 -0.016541 -0.188266
v -0.709918 -0.024298 -0.096386
v -0.709918 -0.018322 -0.166551
v -0.755200 -0.110428 -0.109312
v -0.711754 -0.110428 -0.109312
v -0.711754 -0.024703 -0.090442
v -0.755200 -0.024703 -0.090442
v -0.742727 -0.091772 -0.195714
v -0.742727 -0.017306 -0.178525
v -0.724227 -0.017306 -0.178525
v -0.707287 -0.024381 -0.095170
v -0.757035 -0.018322 -0.166551
v -0.755200 0.036118 -0.085859
v -0.759667 0.036192 -0.090598
v -0.742727 0.038880 -0.174209
v -0.757035 0.038494 -0.162199
v -0.722515 -0.016378 -0.190368
v -0.744439 -0.016378 -0.190368
v -0.744439 0.039185 -0.186085
v -0.722515 0.039185 -0.186085
v -0.707287 -0.018203 -0.167957
v -0.707287 0.038539 -0.163610
v -0.707287 0.036192 -0.090598
v -0.709918 0.038494 -0.162199
v -0.724227 0.038880 -0.174209
v -0.744439 -0.017187 -0.179931
v -0.744439 0.038925 -0.175620
v -0.722515 -0.017187 -0.179931
v -0.722515 0.038925 -0.175620
v -0.757035 0.036210 -0.091817
v -0.759667 0.038539 -0.163610
v -0.713343 -0.024561 -0.092529
v -0.753611 0.036151 -0.087951
v -0.713343 0.036151 -0.087951
v -0.742727 0.039133 -0.183977
v -0.724227 0.039133 -0.183977
v -0.709918 0.036210 -0.091817
v -0.711754 0.036118 -0.085859
vt 0.375000 0.213411
vt 0.625000 0.213411
vt 0.625000 0.250000
vt 0.375000 0.250000
vt 0.625000 0.500000
vt 0.375000 0.500000
vt 0.375000 0.725755
vt 0.625000 0.725755
vt 0.625000 0.750000
vt 0.375000 0.750000
vt 0.625000 1.000000
vt 0.375000 1.000000
vt 0.125000 0.725755
vt 0.125000 0.750000
vt 0.625000 0.250000
vt 0.625000 0.500000
vt 0.625000 0.563312
vt 0.625000 0.536589
vt 0.625000 0.536589
vt 0.625000 0.563312
vt 0.125000 0.536589
vt 0.375000 0.536589
vt 0.375000 0.563312
vt 0.125000 0.563312
vt 0.375000 0.024245
vt 0.625000 0.024245
vt 0.625000 0.186688
vt 0.375000 0.186688
vt 0.125000 0.500000
vt 0.625000 0.725755
vt 0.625000 0.750000
vt 0.375000 0.000000
vt 0.625000 0.000000
vt 0.625000 1.000000
vt 0.630330 0.723024
vt 0.864425 0.719516
vt 0.863830 0.739297
vt 0.636170 0.739297
vt 0.637736 0.541499
vt 0.854176 0.539729
vt 0.861982 0.566451
vt 0.630331 0.566451
vt 0.637735 0.507370
vt 0.862264 0.507370
vt 0.625000 0.213411
vt 0.625000 0.000000
vt 0.625000 0.024245
vt 0.625000 0.186688
vt 0.625000 0.750000
vt 0.625000 1.000000
vt 0.630331 0.566451
vt 0.637736 0.541499
vt 0.625000 0.563312
vt 0.625000 0.725755
vt 0.861982 0.566451
vt 0.864425 0.719516
vt 0.625000 0.250000
vt 0.625000 0.500000
vt 0.863830 0.739297
vt 0.636170 0.739297
vt 0.625000 0.536589
vt 0.625000 0.213411
vt 0.630330 0.723024
vt 0.625000 0.563312
vt 0.625000 0.725755
vt 0.630331 0.566451
vt 0.637736 0.541499
vt 0.625000 0.213411
vt 0.625000 0.250000
vt 0.625000 0.500000
vt 0.625000 0.536589
vt 0.861982 0.566451
vt 0.864425 0.719516
vt 0.625000 0.186688
vt 0.625000 0.186688
vt 0.863830 0.739297
vt 0.636170 0.739297
vt 0.630330 0.723024
vt 0.625000 0.000000
vt 0.625000 0.024245
vt 0.854176 0.539729
vt 0.637735 0.507370
vt 0.862264 0.507370
vt 0.864425 0.719516
vt 0.863830 0.739297
vt 0.625000 0.024245
vt 0.625000 0.024245
vt 0.625000 0.186688
vt 0.862264 0.507370
vt 0.637735 0.507370
vt 0.637735 0.507370
vt 0.862264 0.507370
vt 0.630330 0.723024
vt 0.630331 0.566451
vt 0.625000 1.000000
vt 0.625000 0.750000
vt 0.625000 0.750000
vt 0.625000 1.000000
vt 0.854176 0.539729
vt 0.854176 0.539729
vt 0.637736 0.541499
vt 0.625000 0.725755
vt 0.625000 0.000000
vt 0.625000 0.000000
vt 0.861982 0.566451
vt 0.625000 0.000000
vt 0.625000 0.024245
vt 0.854176 0.539729
vt 0.861982 0.566451
vt 0.625000 0.500000
vt 0.625000 0.250000
vt 0.625000 0.250000
vt 0.625000 0.500000
vt 0.625000 0.563312
vt 0.625000 0.563312
vt 0.625000 0.725755
vt 0.630331 0.566451
vt 0.637736 0.541499
vt 0.625000 0.213411
vt 0.625000 0.213411
vt 0.625000 0.536589
vt 0.625000 0.536589
vt 0.864425 0.719516
vt 0.625000 0.186688
vt 0.636170 0.739297
vt 0.863830 0.739297
vt 0.636170 0.739297
vt 0.862264 0.507370
vt 0.875000 0.500000
vt 0.875000 0.536589
vt 0.637735 0.507370
vt 0.630330 0.723024
vt 0.625000 0.750000
vt 0.875000 0.750000
vt 0.875000 0.563312
vt 0.875000 0.725755
vt 0.625000 1.000000
vn -1.0000 0.0000 0.0000
vn 0.0000 0.5967 -0.8024
vn 0.7002 -0.4260 0.5729
vn 0.7042 -0.4303 0.5647
vn 0.7026 -0.4286 0.5680
vn 0.0000 -0.5967 0.8024
vn 0.0000 -0.8100 -0.5864
vn 0.0000 0.9748 -0.2231
vn 0.7429 0.5068 -0.4374
vn 0.7358 0.5220 -0.4313
vn 0.6511 0.4831 -0.5854
vn 0.6591 0.5196 -0.5437
vn 0.7959 0.3613 -0.4858
vn 1.0000 0.0000 0.0000
vn 0.7183 -0.3801 0.5828
vn 0.7158 -0.3947 0.5760
vn -0.7959 0.3613 -0.4858
vn -0.7429 0.5068 -0.4374
vn -0.7358 0.5220 -0.4313
vn -0.7002 -0.4260 0.5729
vn -0.7026 -0.4286 0.5680
vn -0.7042 -0.4303 0.5647
vn 0.0000 -0.0958 -0.9954
vn 0.0000 0.8133 0.5819
vn 0.0000 0.8196 0.5729
vn 0.0000 0.8114 0.5844
vn 0.0000 0.8099 0.5866
vn 0.0000 0.8136 0.5814
vn -0.7483 0.5384 0.3875
vn 0.7483 0.5384 0.3875
vn -0.7158 -0.3947 0.5760
vn -0.7183 -0.3801 0.5828
vn -0.6591 0.5196 -0.5437
vn -0.6511 0.4831 -0.5854
vn 0.0000 -0.4744 0.8803
vn -0.6405 -0.3618 0.6774
vn -0.6420 -0.3093 0.7016
vn -0.6420 -0.3102 0.7012
vn 0.7267 -0.2774 0.6284
vn 0.7268 -0.2757 0.6291
vn 0.0000 0.4704 -0.8824
vn 0.0000 0.4045 -0.9145
vn 0.0000 0.4744 -0.8803
vn 0.0000 0.4026 -0.9154
vn -0.7464 0.3158 -0.5859
vn -0.7477 0.2665 -0.6082
vn -0.7477 0.2682 -0.6075
vn -0.6419 -0.2133 0.7365
vn -0.6419 -0.2157 0.7358
vn -0.6183 0.3180 -0.7188
vn -0.6183 0.3171 -0.7191
vn -0.6182 0.2188 -0.7549
vn -0.6182 0.2212 -0.7542
vn 0.0000 0.2721 -0.9623
vn 0.6183 0.3171 -0.7191
vn 0.6183 0.3180 -0.7188
vn 0.6182 0.2212 -0.7542
vn 0.6182 0.2188 -0.7549
vn -0.7474 0.1795 -0.6397
vn -0.7474 0.1823 -0.6389
vn 0.7477 0.2665 -0.6082
vn 0.7477 0.2682 -0.6075
vn 0.7474 0.1823 -0.6389
vn 0.7474 0.1795 -0.6397
vn -0.7267 -0.2757 0.6292
vn -0.7267 -0.2774 0.6284
vn 0.6405 -0.3618 0.6774
vn 0.6420 -0.3102 0.7012
vn 0.6420 -0.3093 0.7016
vn 0.0000 -0.4705 0.8824
vn 0.0000 -0.4044 0.9146
vn 0.7464 0.3157 -0.5859
vn 0.7483 0.0984 -0.6560
vn 0.7484 0.0949 -0.6564
vn 0.0000 -0.2817 0.9595
vn 0.0000 -0.1520 0.9884
vn 0.0000 -0.2719 0.9623
vn 0.0000 -0.1454 0.9894
vn 0.7264 -0.1856 0.6617
vn 0.7264 -0.1884 0.6609
vn 0.7274 -0.1017 0.6786
vn 0.7275 -0.0982 0.6791
vn -0.7264 -0.1884 0.6609
vn -0.7264 -0.1856 0.6617
vn -0.7275 -0.0982 0.6791
vn -0.7274 -0.1017 0.6786
vn 0.6419 -0.2133 0.7365
vn 0.6419 -0.2157 0.7358
vn 0.6431 -0.1170 0.7568
vn 0.6432 -0.1139 0.7572
vn 0.0000 0.2820 -0.9594
vn 0.0000 -0.3279 0.9447
vn -0.7274 -0.0516 0.6843
vn 0.6429 -0.0586 0.7637
vn 0.0000 0.1522 -0.9884
vn 0.0000 0.0769 -0.9970
vn -0.6431 -0.1170 0.7568
vn -0.6432 -0.1139 0.7572
vn -0.6429 -0.0586 0.7637
vn -0.6195 0.1200 -0.7758
vn -0.6195 0.1169 -0.7762
vn -0.6193 0.0601 -0.7829
vn 0.0000 0.1456 -0.9893
vn 0.0000 0.0752 -0.9972
vn -0.7484 0.0949 -0.6564
vn -0.7483 0.0984 -0.6560
vn 0.6195 0.1200 -0.7758
vn 0.6195 0.1169 -0.7762
vn 0.0009 0.9996 0.0295
vn 0.0013 0.9997 0.0251
vn 0.0011 0.9997 0.0251
vn 0.0014 0.9996 0.0283
vn -0.0013 0.9997 0.0251
vn -0.0011 0.9997 0.0251
vn -0.0020 0.9997 0.0242
vn 0.0000 0.9999 0.0156
vn 0.0000 0.9999 0.0155
vn -0.0018 0.9997 0.0235
vn 0.0020 0.9997 0.0242
vn 0.0020 0.9995 0.0322
vn 0.0018 0.9995 0.0322
vn 0.0018 0.9997 0.0235
vn -0.0009 0.9996 0.0295
vn -0.0020 0.9995 0.0322
vn -0.0018 0.9995 0.0322
vn -0.0014 0.9996 0.0283
vn 0.7274 -0.0516 0.6843
vn 0.0000 -0.0751 0.9972
vn 0.0000 -0.0768 0.9970
vn 0.7483 0.0499 -0.6615
vn -0.7483 0.0499 -0.6615
vn 0.6193 0.0601 -0.7829
usemtl None.010
s 1
f 1/1/1 2/2/1 3/3/1 4/4/1
f 4/4/2 3/3/2 5/5/2 6/6/2
f 7/7/3 8/8/4 9/9/5 10/10/3
f 10/10/6 9/9/6 11/11/6 12/12/6
f 13/13/7 7/7/7 10/10/7 12/14/7
f 5/5/8 3/3/8 14/15/8 15/16/8
f 16/17/9 17/18/10 18/19/11 19/20/12
f 1/21/7 20/22/7 21/23/7 22/24/7
f 20/22/13 17/18/10 16/17/9 21/23/13
f 13/25/1 23/26/1 24/27/1 22/28/1
f 6/6/14 5/5/14 17/18/14 20/22/14
f 4/29/7 6/6/7 20/22/7 1/21/7
f 9/9/5 8/8/4 25/30/15 26/31/16
f 22/28/17 24/27/18 2/2/19 1/1/17
f 12/32/20 11/33/21 23/26/22 13/25/20
f 11/11/23 27/34/23 26/31/23 9/9/23
f 22/24/7 21/23/7 7/7/7 13/13/7
f 21/23/14 16/17/14 8/8/14 7/7/14
f 28/35/24 29/36/24 30/37/25 31/38/25
f 32/39/26 33/40/26 34/41/27 35/42/27
f 36/43/28 37/44/28 33/40/26 32/39/26
f 35/42/27 34/41/27 29/36/24 28/35/24
f 8/8/14 16/17/14 19/20/14 25/30/14
f 3/3/29 2/2/29 38/45/29 14/15/29
f 17/18/30 5/5/30 15/16/30 18/19/30
f 23/26/22 11/33/21 27/46/31 39/47/32
f 24/27/1 23/26/1 39/47/1 40/48/1
f 2/2/19 24/27/18 40/48/33 38/45/34
f 27/34/35 26/31/35 41/49/35 42/50/35
f 32/39/36 35/42/36 43/51/37 44/52/38
f 25/30/14 19/20/14 45/53/14 46/54/14
f 26/31/16 25/30/15 46/54/39 41/49/40
f 29/36/14 34/41/14 47/55/14 48/56/14
f 15/16/41 14/15/41 49/57/42 50/58/42
f 31/38/43 30/37/43 51/59/44 52/60/44
f 18/19/14 15/16/14 50/58/14 53/61/14
f 14/15/1 38/45/1 54/62/1 49/57/1
f 28/35/45 31/38/45 52/60/46 55/63/47
f 46/54/14 45/53/14 56/64/14 57/65/14
f 44/52/38 43/51/37 58/66/48 59/67/49
f 49/57/1 54/62/1 60/68/1 61/69/1
f 53/61/14 50/58/14 62/70/14 63/71/14
f 48/56/14 47/55/14 64/72/14 65/73/14
f 54/62/50 66/74/51 67/75/52 60/68/53
f 52/60/44 51/59/44 68/76/54 69/77/54
f 45/53/55 53/61/56 63/71/57 56/64/58
f 55/63/47 52/60/46 69/77/59 70/78/60
f 51/59/61 48/56/62 65/73/63 68/76/64
f 39/47/32 27/46/31 42/79/65 71/80/66
f 34/41/67 33/40/67 72/81/68 47/55/69
f 40/48/1 39/47/1 71/80/1 66/74/1
f 36/43/1 32/39/1 44/52/1 73/82/1
f 19/20/12 18/19/11 53/61/56 45/53/55
f 33/40/14 37/44/14 74/83/14 72/81/14
f 35/42/1 28/35/1 55/63/1 43/51/1
f 37/44/70 36/43/70 73/82/71 74/83/71
f 30/37/72 29/36/72 48/56/62 51/59/61
f 38/45/34 40/48/33 66/74/51 54/62/50
f 68/76/64 65/73/63 75/84/73 76/85/74
f 67/75/1 77/86/1 78/87/1 79/88/1
f 80/89/75 81/90/75 82/91/76 83/92/76
f 58/66/1 70/78/1 84/93/1 85/94/1
f 86/95/77 87/96/77 88/97/78 89/98/78
f 90/99/14 80/89/14 83/92/14 91/100/14
f 81/90/1 59/67/1 92/101/1 82/91/1
f 87/96/79 57/65/80 93/102/81 88/97/82
f 77/86/83 86/103/84 89/104/85 78/87/86
f 64/72/87 90/99/88 91/100/89 94/105/90
f 50/58/42 49/57/42 61/69/91 62/70/91
f 47/55/69 72/81/68 90/99/88 64/72/87
f 71/80/66 42/79/65 86/103/84 77/86/83
f 41/49/40 46/54/39 57/65/80 87/96/79
f 73/82/1 44/52/1 59/67/1 81/90/1
f 72/81/14 74/83/14 80/89/14 90/99/14
f 42/50/92 41/49/92 87/96/77 86/95/77
f 43/51/1 55/63/1 70/78/1 58/66/1
f 74/83/71 73/82/71 81/90/75 80/89/75
f 66/74/1 71/80/1 77/86/1 67/75/1
f 78/87/86 89/104/85 95/106/93 96/107/93
f 94/105/90 91/100/89 97/108/94 98/109/94
f 99/110/95 100/111/95 101/112/96 102/113/96
f 93/102/14 103/114/14 104/115/14 105/116/14
f 92/101/97 85/94/98 106/117/99 107/118/99
f 100/111/1 108/119/1 109/120/1 101/112/1
f 110/121/14 99/110/14 102/113/14 111/122/14
f 75/84/14 94/105/14 98/109/14 112/123/14
f 108/119/100 79/88/101 113/124/102 109/120/102
f 114/125/103 76/85/103 115/126/104 116/127/104
f 70/78/60 69/77/59 114/125/105 84/93/106
f 56/64/58 63/71/57 110/121/107 103/114/108
f 69/77/54 68/76/54 76/85/103 114/125/103
f 60/68/53 67/75/52 79/88/101 108/119/100
f 65/73/14 64/72/14 94/105/14 75/84/14
f 63/71/14 62/70/14 99/110/14 110/121/14
f 61/69/1 60/68/1 108/119/1 100/111/1
f 59/67/49 58/66/48 85/94/98 92/101/97
f 57/65/14 56/64/14 103/114/14 93/102/14
f 62/70/91 61/69/91 100/111/95 99/110/95
f 97/108/109 117/128/110 101/129/111 109/130/112
f 117/128/110 118/131/113 102/113/114 101/129/111
f 119/132/115 116/127/116 120/133/117 105/116/118
f 116/127/116 115/126/116 95/134/117 120/133/117
f 112/123/119 98/109/120 113/135/121 96/136/122
f 107/118/123 106/117/124 104/115/125 111/122/126
f 98/109/120 97/108/109 109/130/112 113/135/121
f 118/131/113 107/118/123 111/122/126 102/113/114
f 106/117/124 119/132/115 105/116/118 104/115/125
f 115/126/116 112/123/119 96/136/122 95/134/117
f 88/97/82 93/102/81 105/116/127 120/133/127
f 82/91/1 92/101/1 107/118/1 118/131/1
f 91/100/14 83/92/14 117/128/14 97/108/14
f 89/98/78 88/97/78 120/133/128 95/137/128
f 85/94/1 84/93/1 119/132/1 106/117/1
f 83/92/76 82/91/76 118/131/129 117/128/129
f 79/88/1 78/87/1 96/107/1 113/124/1
f 76/85/74 75/84/73 112/123/130 115/126/130
f 84/93/106 114/125/105 116/127/131 119/132/131
f 103/114/108 110/121/107 111/122/132 104/115/132
f 26/31/35 42/50/35 27/34/35
f 26/31/35 41/49/35 42/50/35
f 11/11/23 26/31/23 9/9/23
f 11/11/23 27/34/23 26/31/23
f 11/11/6 10/10/6 9/9/6
f 10/10/6 11/11/6 12/12/6
