# Blender 4.4.3
# www.blender.org
mtllib Mag1.mtl
o Cube.007_Cube
v 0.015807 -0.234222 -0.264804
v 0.015807 -0.227869 -0.260079
v 0.015807 -0.218220 -0.273407
v 0.015807 -0.224573 -0.278132
v 0.049905 -0.218220 -0.273407
v 0.049905 -0.224573 -0.278132
v 0.059046 -0.284107 -0.195900
v 0.059046 -0.277754 -0.191175
v 0.047931 -0.284147 -0.182344
v 0.047931 -0.290501 -0.187068
v 0.017781 -0.284147 -0.182344
v 0.017781 -0.290501 -0.187068
v 0.006666 -0.284107 -0.195900
v 0.021894 -0.216193 -0.264549
v 0.043818 -0.216193 -0.264549
v 0.059046 -0.234916 -0.250346
v 0.049905 -0.227869 -0.260079
v 0.043818 -0.222269 -0.256025
v 0.059046 -0.229316 -0.246291
v 0.049905 -0.234222 -0.264804
v 0.059046 -0.241270 -0.255070
v 0.006666 -0.241270 -0.255070
v 0.006666 -0.277754 -0.191175
v 0.006666 -0.234916 -0.250346
v 0.059046 -0.272154 -0.187121
v 0.054579 -0.274869 -0.183236
v 0.011133 -0.274869 -0.183236
v 0.056415 -0.271455 -0.188120
v 0.009298 -0.271455 -0.188120
v 0.012722 -0.273670 -0.184951
v 0.052990 -0.273670 -0.184951
v 0.042106 -0.223097 -0.254882
v 0.023606 -0.223097 -0.254882
v 0.009298 -0.230144 -0.245148
v 0.056415 -0.230144 -0.245148
v 0.042106 -0.217417 -0.262832
v 0.023606 -0.217417 -0.262832
v 0.021894 -0.222269 -0.256025
v 0.006666 -0.272154 -0.187121
v 0.006666 -0.229316 -0.246291
v 0.054579 -0.187049 -0.135907
v 0.011133 -0.187049 -0.135907
v 0.056415 -0.157729 -0.206432
v 0.042106 -0.153105 -0.217523
v 0.059046 -0.157186 -0.207735
v 0.059046 -0.185298 -0.140311
v 0.009298 -0.157729 -0.206432
v 0.009298 -0.184848 -0.141444
v 0.021894 -0.148604 -0.228517
v 0.043818 -0.148604 -0.228517
v 0.012722 -0.186276 -0.137852
v 0.052990 -0.186276 -0.137852
v 0.043818 -0.152562 -0.218826
v 0.021894 -0.152562 -0.218826
v 0.056415 -0.184848 -0.141444
v 0.059046 -0.094019 -0.185350
v 0.059046 -0.109501 -0.113960
v 0.056415 -0.094319 -0.183970
v 0.042106 -0.091772 -0.195714
v 0.021894 -0.091472 -0.197094
v 0.021894 -0.089329 -0.207339
v 0.043818 -0.089329 -0.207339
v 0.043818 -0.091472 -0.197094
v 0.009298 -0.094319 -0.183970
v 0.009298 -0.109262 -0.115156
v 0.006666 -0.157186 -0.207735
v 0.006666 -0.094019 -0.185350
v 0.012722 -0.110019 -0.111364
v 0.052990 -0.110019 -0.111364
v 0.056415 -0.109262 -0.115156
v 0.006666 -0.185298 -0.140311
v 0.023606 -0.153105 -0.217523
v 0.042106 -0.149401 -0.226565
v 0.023606 -0.149401 -0.226565
v 0.009298 -0.024298 -0.096386
v 0.012722 -0.024561 -0.092529
v 0.006666 -0.109501 -0.113960
v 0.006666 -0.024381 -0.095170
v 0.006666 -0.018203 -0.167957
v 0.023606 -0.089761 -0.205276
v 0.042106 -0.089761 -0.205276
v 0.042106 -0.016541 -0.188266
v 0.023606 -0.016541 -0.188266
v 0.056415 -0.024298 -0.096386
v 0.056415 -0.018322 -0.166551
v 0.011133 -0.110428 -0.109312
v 0.054579 -0.110428 -0.109312
v 0.054579 -0.024703 -0.090442
v 0.011133 -0.024703 -0.090442
v 0.023606 -0.091772 -0.195714
v 0.023606 -0.017306 -0.178525
v 0.042106 -0.017306 -0.178525
v 0.059046 -0.024381 -0.095170
v 0.009298 -0.018322 -0.166551
v 0.011133 0.036118 -0.085859
v 0.006666 0.036192 -0.090598
v 0.023606 0.038880 -0.174209
v 0.009298 0.038494 -0.162199
v 0.043818 -0.016378 -0.190368
v 0.021894 -0.016378 -0.190368
v 0.021894 0.039185 -0.186085
v 0.043818 0.039185 -0.186085
v 0.059046 -0.018203 -0.167957
v 0.059046 0.038539 -0.163610
v 0.059046 0.036192 -0.090598
v 0.056415 0.038494 -0.162199
v 0.042106 0.038880 -0.174209
v 0.021894 -0.017187 -0.179931
v 0.021894 0.038925 -0.175620
v 0.043818 -0.017187 -0.179931
v 0.043818 0.038925 -0.175620
v 0.009298 0.036210 -0.091817
v 0.006666 0.038539 -0.163610
v 0.052990 -0.024561 -0.092529
v 0.012722 0.036151 -0.087951
v 0.052990 0.036151 -0.087951
v 0.023606 0.039133 -0.183977
v 0.042106 0.039133 -0.183977
v 0.056415 0.036210 -0.091817
v 0.054579 0.036118 -0.085859
vn -1.0000 -0.0000 -0.0000
vn -0.0000 0.5968 -0.8024
vn 0.7002 -0.4260 0.5729
vn 0.7042 -0.4303 0.5647
vn 0.7026 -0.4286 0.5680
vn -0.0000 0.5966 -0.8025
vn -0.0000 -0.8100 -0.5864
vn -0.0000 0.9748 -0.2231
vn 0.7429 0.5068 -0.4374
vn 0.7358 0.5220 -0.4313
vn 0.6511 0.4831 -0.5854
vn 0.6591 0.5196 -0.5437
vn 0.7959 0.3613 -0.4858
vn 1.0000 -0.0000 -0.0000
vn 0.7183 -0.3801 0.5828
vn 0.7158 -0.3947 0.5760
vn -0.7959 0.3613 -0.4858
vn -0.7429 0.5068 -0.4374
vn -0.7358 0.5220 -0.4313
vn -0.7002 -0.4260 0.5729
vn -0.7026 -0.4286 0.5680
vn -0.7042 -0.4303 0.5647
vn -0.0000 0.0957 0.9954
vn -0.0000 0.8133 0.5819
vn -0.0000 0.8196 0.5729
vn -0.0000 0.8114 0.5844
vn -0.0000 0.8099 0.5866
vn -0.0000 0.8137 0.5813
vn -0.7483 0.5384 0.3875
vn 0.7483 0.5384 0.3875
vn -0.7159 -0.3947 0.5760
vn -0.7183 -0.3801 0.5828
vn -0.6591 0.5196 -0.5437
vn -0.6511 0.4831 -0.5854
vn -0.0000 -0.4744 0.8803
vn -0.6405 -0.3619 0.6774
vn -0.6420 -0.3093 0.7016
vn -0.6419 -0.3102 0.7012
vn 0.7268 -0.2773 0.6284
vn 0.7268 -0.2757 0.6291
vn -0.0000 0.4704 -0.8824
vn -0.0000 0.4045 -0.9145
vn -0.0000 0.4744 -0.8803
vn -0.0000 0.4026 -0.9154
vn -0.7463 0.3158 -0.5860
vn -0.7476 0.2666 -0.6083
vn -0.7476 0.2682 -0.6076
vn -0.6419 -0.2133 0.7365
vn -0.6419 -0.2157 0.7358
vn -0.6183 0.3180 -0.7188
vn -0.6183 0.3171 -0.7191
vn -0.6182 0.2188 -0.7549
vn -0.6182 0.2212 -0.7542
vn -0.0000 0.2721 -0.9623
vn 0.6183 0.3171 -0.7191
vn 0.6183 0.3180 -0.7188
vn 0.6182 0.2212 -0.7542
vn 0.6182 0.2188 -0.7549
vn -0.7473 0.1795 -0.6398
vn -0.7473 0.1823 -0.6390
vn 0.7477 0.2665 -0.6082
vn 0.7477 0.2682 -0.6075
vn 0.7474 0.1823 -0.6389
vn 0.7474 0.1795 -0.6397
vn -0.7267 -0.2757 0.6292
vn -0.7267 -0.2774 0.6284
vn 0.6405 -0.3618 0.6774
vn 0.6420 -0.3102 0.7012
vn 0.6420 -0.3093 0.7016
vn -0.0000 -0.4705 0.8824
vn -0.0000 -0.4044 0.9146
vn 0.7464 0.3157 -0.5859
vn 0.7483 0.0984 -0.6560
vn 0.7484 0.0949 -0.6564
vn -0.0000 -0.2817 0.9595
vn -0.0000 -0.1520 0.9884
vn -0.0000 -0.2719 0.9623
vn -0.0000 -0.1454 0.9894
vn 0.7264 -0.1856 0.6617
vn 0.7264 -0.1884 0.6609
vn 0.7274 -0.1017 0.6786
vn 0.7275 -0.0982 0.6791
vn -0.7264 -0.1884 0.6609
vn -0.7264 -0.1856 0.6617
vn -0.7275 -0.0982 0.6791
vn -0.7274 -0.1017 0.6786
vn 0.6419 -0.2133 0.7365
vn 0.6419 -0.2157 0.7358
vn 0.6431 -0.1170 0.7568
vn 0.6432 -0.1139 0.7572
vn -0.0000 0.2820 -0.9594
vn -0.0000 -0.3279 0.9447
vn -0.7274 -0.0516 0.6843
vn 0.6429 -0.0586 0.7637
vn -0.0000 0.1522 -0.9884
vn -0.0000 0.0769 -0.9970
vn -0.6431 -0.1170 0.7568
vn -0.6431 -0.1139 0.7572
vn -0.6429 -0.0586 0.7637
vn -0.6195 0.1200 -0.7758
vn -0.6195 0.1169 -0.7762
vn -0.6193 0.0601 -0.7829
vn -0.0000 0.1456 -0.9893
vn -0.0000 0.0752 -0.9972
vn -0.7483 0.0949 -0.6565
vn -0.7483 0.0984 -0.6561
vn 0.6195 0.1200 -0.7758
vn 0.6195 0.1169 -0.7762
vn 0.0008 0.9996 0.0294
vn 0.0012 0.9997 0.0250
vn 0.0010 0.9997 0.0250
vn 0.0012 0.9996 0.0283
vn -0.0012 0.9997 0.0250
vn -0.0010 0.9997 0.0250
vn -0.0021 0.9997 0.0242
vn -0.0000 0.9999 0.0156
vn -0.0019 0.9997 0.0235
vn 0.0021 0.9997 0.0242
vn 0.0020 0.9995 0.0322
vn 0.0019 0.9995 0.0321
vn 0.0019 0.9997 0.0235
vn -0.0008 0.9996 0.0294
vn -0.0020 0.9995 0.0321
vn -0.0019 0.9995 0.0321
vn -0.0012 0.9996 0.0283
vn 0.7274 -0.0516 0.6843
vn -0.0000 -0.0751 0.9972
vn -0.0000 -0.0768 0.9970
vn 0.7483 0.0499 -0.6615
vn -0.7482 0.0499 -0.6616
vn 0.6193 0.0601 -0.7829
vn -0.0000 -0.5966 0.8025
vt 0.375000 0.213411
vt 0.625000 0.213411
vt 0.625000 0.250000
vt 0.375000 0.250000
vt 0.625000 0.500000
vt 0.375000 0.500000
vt 0.375000 0.725755
vt 0.625000 0.725755
vt 0.625000 0.750000
vt 0.375000 0.750000
vt 0.375000 1.000000
vt 0.625000 1.000000
vt 0.125000 0.725755
vt 0.125000 0.750000
vt 0.625000 0.563312
vt 0.625000 0.536589
vt 0.125000 0.536589
vt 0.375000 0.536589
vt 0.375000 0.563312
vt 0.125000 0.563312
vt 0.375000 0.024245
vt 0.625000 0.024245
vt 0.625000 0.186688
vt 0.375000 0.186688
vt 0.125000 0.500000
vt 0.375000 0.000000
vt 0.625000 0.000000
vt 0.630330 0.723024
vt 0.864425 0.719516
vt 0.863830 0.739297
vt 0.636170 0.739297
vt 0.637736 0.541499
vt 0.854176 0.539729
vt 0.861982 0.566451
vt 0.630331 0.566451
vt 0.637735 0.507370
vt 0.862264 0.507370
vt 0.875000 0.500000
vt 0.875000 0.536589
vt 0.875000 0.750000
vt 0.875000 0.563312
vt 0.875000 0.725755
s 1
usemtl None.010
f 1/1/1 2/2/1 3/3/1 4/4/1
f 4/4/2 3/3/2 5/5/2 6/6/2
f 7/7/3 8/8/4 9/9/5 10/10/3
f 10/10/6 12/11/6 11/12/6 9/9/6
f 13/13/7 7/7/7 10/10/7 12/14/7
f 5/5/8 3/3/8 14/3/8 15/5/8
f 16/15/9 17/16/10 18/16/11 19/15/12
f 1/17/7 20/18/7 21/19/7 22/20/7
f 20/18/13 17/16/10 16/15/9 21/19/13
f 13/21/1 23/22/1 24/23/1 22/24/1
f 6/6/14 5/5/14 17/16/14 20/18/14
f 4/25/7 6/6/7 20/18/7 1/17/7
f 9/9/5 8/8/4 25/8/15 26/9/16
f 22/24/17 24/23/18 2/2/19 1/1/17
f 12/26/20 11/27/21 23/22/22 13/21/20
f 11/12/23 9/9/23 26/9/23 27/12/23
f 22/20/7 21/19/7 7/7/7 13/13/7
f 21/19/14 16/15/14 8/8/14 7/7/14
f 28/28/24 29/29/24 30/30/25 31/31/25
f 32/32/26 33/33/26 34/34/27 35/35/27
f 36/36/28 37/37/28 33/33/26 32/32/26
f 35/35/27 34/34/27 29/29/24 28/28/24
f 8/8/14 16/15/14 19/15/14 25/8/14
f 3/3/29 2/2/29 38/2/29 14/3/29
f 17/16/30 5/5/30 15/5/30 18/16/30
f 23/22/22 11/27/21 27/27/31 39/22/32
f 24/23/1 23/22/1 39/22/1 40/23/1
f 2/2/19 24/23/18 40/23/33 38/2/34
f 27/12/35 26/9/35 41/9/35 42/12/35
f 32/32/36 35/35/36 43/35/37 44/32/38
f 25/8/14 19/15/14 45/15/14 46/8/14
f 26/9/16 25/8/15 46/8/39 41/9/40
f 29/29/14 34/34/14 47/34/14 48/29/14
f 15/5/41 14/3/41 49/3/42 50/5/42
f 31/31/43 30/30/43 51/30/44 52/31/44
f 18/16/14 15/5/14 50/5/14 53/16/14
f 14/3/1 38/2/1 54/2/1 49/3/1
f 28/28/45 31/31/45 52/31/46 55/28/47
f 46/8/14 45/15/14 56/15/14 57/8/14
f 44/32/38 43/35/37 58/35/48 59/32/49
f 49/3/1 54/2/1 60/2/1 61/3/1
f 53/16/14 50/5/14 62/5/14 63/16/14
f 48/29/14 47/34/14 64/34/14 65/29/14
f 54/2/50 66/23/51 67/23/52 60/2/53
f 52/31/44 51/30/44 68/30/54 69/31/54
f 45/15/55 53/16/56 63/16/57 56/15/58
f 55/28/47 52/31/46 69/31/59 70/28/60
f 51/30/61 48/29/62 65/29/63 68/30/64
f 39/22/32 27/27/31 42/27/65 71/22/66
f 34/34/67 33/33/67 72/33/68 47/34/69
f 40/23/1 39/22/1 71/22/1 66/23/1
f 36/36/1 32/32/1 44/32/1 73/36/1
f 19/15/12 18/16/11 53/16/56 45/15/55
f 33/33/14 37/37/14 74/37/14 72/33/14
f 35/35/1 28/28/1 55/28/1 43/35/1
f 37/37/70 36/36/70 73/36/71 74/37/71
f 30/30/72 29/29/72 48/29/62 51/30/61
f 38/2/34 40/23/33 66/23/51 54/2/50
f 68/30/64 65/29/63 75/29/73 76/30/74
f 67/23/1 77/22/1 78/22/1 79/23/1
f 80/37/75 81/36/75 82/36/76 83/37/76
f 58/35/1 70/28/1 84/28/1 85/35/1
f 86/12/77 87/9/77 88/9/78 89/12/78
f 90/33/14 80/37/14 83/37/14 91/33/14
f 81/36/1 59/32/1 92/32/1 82/36/1
f 87/9/79 57/8/80 93/8/81 88/9/82
f 77/22/83 86/27/84 89/27/85 78/22/86
f 64/34/87 90/33/88 91/33/89 94/34/90
f 50/5/42 49/3/42 61/3/91 62/5/91
f 47/34/69 72/33/68 90/33/88 64/34/87
f 71/22/66 42/27/65 86/27/84 77/22/83
f 41/9/40 46/8/39 57/8/80 87/9/79
f 73/36/1 44/32/1 59/32/1 81/36/1
f 72/33/14 74/37/14 80/37/14 90/33/14
f 42/12/92 41/9/92 87/9/77 86/12/77
f 43/35/1 55/28/1 70/28/1 58/35/1
f 74/37/71 73/36/71 81/36/75 80/37/75
f 66/23/1 71/22/1 77/22/1 67/23/1
f 78/22/86 89/27/85 95/27/93 96/22/93
f 94/34/90 91/33/89 97/33/94 98/34/94
f 99/5/95 100/3/95 101/3/96 102/5/96
f 93/8/14 103/15/14 104/15/14 105/8/14
f 92/32/97 85/35/98 106/35/99 107/32/99
f 100/3/1 108/2/1 109/2/1 101/3/1
f 110/16/14 99/5/14 102/5/14 111/16/14
f 75/29/14 94/34/14 98/34/14 112/29/14
f 108/2/100 79/23/101 113/23/102 109/2/102
f 114/31/103 76/30/103 115/30/104 116/31/104
f 70/28/60 69/31/59 114/31/105 84/28/106
f 56/15/58 63/16/57 110/16/107 103/15/108
f 69/31/54 68/30/54 76/30/103 114/31/103
f 60/2/53 67/23/52 79/23/101 108/2/100
f 65/29/14 64/34/14 94/34/14 75/29/14
f 63/16/14 62/5/14 99/5/14 110/16/14
f 61/3/1 60/2/1 108/2/1 100/3/1
f 59/32/49 58/35/48 85/35/98 92/32/97
f 57/8/14 56/15/14 103/15/14 93/8/14
f 62/5/91 61/3/91 100/3/95 99/5/95
f 97/33/109 117/37/110 101/38/111 109/39/112
f 117/37/110 118/36/113 102/5/114 101/38/111
f 119/28/115 116/31/116 120/9/116 105/8/117
f 116/31/116 115/30/116 95/40/116 120/9/116
f 112/29/118 98/34/119 113/41/120 96/42/121
f 107/32/122 106/35/123 104/15/124 111/16/125
f 98/34/119 97/33/109 109/39/112 113/41/120
f 118/36/113 107/32/122 111/16/125 102/5/114
f 106/35/123 119/28/115 105/8/117 104/15/124
f 115/30/116 112/29/118 96/42/121 95/40/116
f 88/9/82 93/8/81 105/8/126 120/9/126
f 82/36/1 92/32/1 107/32/1 118/36/1
f 91/33/14 83/37/14 117/37/14 97/33/14
f 89/12/78 88/9/78 120/9/127 95/12/127
f 85/35/1 84/28/1 119/28/1 106/35/1
f 83/37/76 82/36/76 118/36/128 117/37/128
f 79/23/1 78/22/1 96/22/1 113/23/1
f 76/30/74 75/29/73 112/29/129 115/30/129
f 84/28/106 114/31/105 116/31/130 119/28/130
f 103/15/108 110/16/107 111/16/131 104/15/131
f 26/9/35 42/12/35 27/12/35
f 26/9/35 41/9/35 42/12/35
f 11/12/23 9/9/23 26/9/23
f 11/12/23 26/9/23 27/12/23
f 11/12/132 10/10/132 9/9/132
f 10/10/132 11/12/132 12/11/132
