# Blender 4.4.3
# www.blender.org
mtllib Mag2.mtl
o Cube.007_Cube.001
v 0.410226 -0.170637 -0.218193
v 0.410226 -0.163316 -0.215179
v 0.410226 -0.157249 -0.230474
v 0.410226 -0.164570 -0.233488
v 0.444324 -0.157249 -0.230474
v 0.444324 -0.164570 -0.233488
v 0.453465 -0.202004 -0.139121
v 0.453465 -0.194683 -0.136107
v 0.442350 -0.198703 -0.125973
v 0.442350 -0.206025 -0.128986
v 0.412200 -0.198703 -0.125973
v 0.412200 -0.206025 -0.128986
v 0.401085 -0.202004 -0.139121
v 0.416313 -0.153101 -0.222389
v 0.438237 -0.153101 -0.222389
v 0.453465 -0.167747 -0.204010
v 0.444324 -0.163316 -0.215179
v 0.438237 -0.156889 -0.212630
v 0.453465 -0.161320 -0.201460
v 0.444324 -0.170637 -0.218193
v 0.453465 -0.175069 -0.207023
v 0.401085 -0.175069 -0.207023
v 0.401085 -0.194683 -0.136107
v 0.401085 -0.167747 -0.204010
v 0.453465 -0.188257 -0.133558
v 0.448998 -0.189930 -0.129124
v 0.405552 -0.189930 -0.129124
v 0.450834 -0.187825 -0.134699
v 0.403717 -0.187825 -0.134699
v 0.407141 -0.189191 -0.131082
v 0.447409 -0.189191 -0.131082
v 0.436525 -0.157410 -0.211319
v 0.418025 -0.157410 -0.211319
v 0.403717 -0.161841 -0.200148
v 0.450834 -0.161841 -0.200148
v 0.436525 -0.153864 -0.220423
v 0.418025 -0.153864 -0.220423
v 0.416313 -0.156889 -0.212630
v 0.401085 -0.188257 -0.133558
v 0.401085 -0.161320 -0.201460
v 0.448998 -0.133913 -0.109522
v 0.405552 -0.133913 -0.109522
v 0.450834 -0.114334 -0.183347
v 0.436525 -0.111241 -0.194959
v 0.453465 -0.113971 -0.184711
v 0.453465 -0.132770 -0.114122
v 0.403717 -0.114334 -0.183347
v 0.403717 -0.132476 -0.115305
v 0.416313 -0.108258 -0.206458
v 0.438237 -0.108258 -0.206458
v 0.407141 -0.133409 -0.111554
v 0.447409 -0.133409 -0.111554
v 0.438237 -0.110878 -0.196323
v 0.416313 -0.110878 -0.196323
v 0.450834 -0.132476 -0.115305
v 0.453465 -0.063316 -0.173894
v 0.453465 -0.070438 -0.101192
v 0.450834 -0.063455 -0.172488
v 0.436525 -0.062283 -0.184448
v 0.416313 -0.062145 -0.185853
v 0.416313 -0.061201 -0.196278
v 0.438237 -0.061201 -0.196278
v 0.438237 -0.062145 -0.185853
v 0.403717 -0.063455 -0.172488
v 0.403717 -0.070339 -0.102408
v 0.401085 -0.113971 -0.184711
v 0.401085 -0.063316 -0.173894
v 0.407141 -0.070652 -0.098554
v 0.447409 -0.070652 -0.098554
v 0.450834 -0.070339 -0.102408
v 0.401085 -0.132770 -0.114122
v 0.418025 -0.111241 -0.194959
v 0.436525 -0.108786 -0.204416
v 0.418025 -0.108786 -0.204416
v 0.403717 -0.016718 -0.094865
v 0.407141 -0.016870 -0.091002
v 0.401085 -0.070438 -0.101192
v 0.401085 -0.016766 -0.093647
v 0.401085 -0.012669 -0.166581
v 0.418025 -0.061392 -0.194178
v 0.436525 -0.061392 -0.194178
v 0.436525 -0.011588 -0.186929
v 0.418025 -0.011588 -0.186929
v 0.450834 -0.016718 -0.094865
v 0.450834 -0.012748 -0.165172
v 0.405552 -0.070821 -0.096468
v 0.448998 -0.070821 -0.096468
v 0.448998 -0.016953 -0.088912
v 0.405552 -0.016953 -0.088912
v 0.418025 -0.062283 -0.184448
v 0.418025 -0.012074 -0.177170
v 0.436525 -0.012074 -0.177170
v 0.453465 -0.016766 -0.093647
v 0.403717 -0.012748 -0.165172
v 0.405552 0.036118 -0.085859
v 0.401085 0.036192 -0.090598
v 0.418025 0.038880 -0.174209
v 0.403717 0.038494 -0.162199
v 0.438237 -0.011485 -0.189035
v 0.416313 -0.011485 -0.189035
v 0.416313 0.039185 -0.186085
v 0.438237 0.039185 -0.186085
v 0.453465 -0.012669 -0.166581
v 0.453465 0.038539 -0.163610
v 0.453465 0.036192 -0.090598
v 0.450834 0.038494 -0.162199
v 0.436525 0.038880 -0.174209
v 0.416313 -0.011995 -0.178579
v 0.416313 0.038925 -0.175620
v 0.438237 -0.011995 -0.178579
v 0.438237 0.038925 -0.175620
v 0.403717 0.036210 -0.091817
v 0.401085 0.038539 -0.163610
v 0.447409 -0.016870 -0.091002
v 0.407141 0.036151 -0.087951
v 0.447409 0.036151 -0.087951
v 0.418025 0.039133 -0.183977
v 0.436525 0.039133 -0.183977
v 0.450834 0.036210 -0.091817
v 0.448998 0.036118 -0.085859
vn -1.0000 -0.0000 -0.0000
vn -0.0000 0.3806 -0.9247
vn 0.7002 -0.2717 0.6602
vn 0.7042 -0.2779 0.6533
vn 0.7026 -0.2754 0.6561
vn -0.0000 0.3805 -0.9248
vn -0.0000 -0.9295 -0.3687
vn -0.0000 0.8898 -0.4564
vn 0.7429 0.3834 -0.5488
vn 0.7358 0.3997 -0.5466
vn 0.6484 0.3705 -0.6650
vn 0.6548 0.4008 -0.6408
vn -0.0000 -0.9295 -0.3688
vn 0.7959 0.2304 -0.5599
vn 1.0000 -0.0000 -0.0000
vn 0.7179 -0.2556 0.6475
vn 0.7157 -0.2622 0.6473
vn -0.7959 0.2304 -0.5599
vn -0.7429 0.3834 -0.5488
vn -0.7358 0.3997 -0.5466
vn -0.7002 -0.2717 0.6602
vn -0.7026 -0.2754 0.6561
vn -0.7042 -0.2779 0.6533
vn -0.0000 0.3380 0.9411
vn -0.0000 0.9316 0.3635
vn -0.0000 0.9355 0.3532
vn -0.0000 0.9304 0.3664
vn -0.0000 0.9295 0.3689
vn -0.0000 0.9318 0.3629
vn -0.7483 0.6173 0.2428
vn 0.7483 0.6173 0.2428
vn -0.7157 -0.2622 0.6473
vn -0.7179 -0.2556 0.6475
vn -0.6548 0.4008 -0.6408
vn -0.6484 0.3705 -0.6650
vn -0.0000 -0.3303 0.9439
vn -0.6424 -0.2558 0.7225
vn -0.6428 -0.2081 0.7372
vn -0.6428 -0.2087 0.7371
vn 0.7274 -0.1839 0.6612
vn 0.7273 -0.1828 0.6615
vn -0.0000 0.3348 -0.9423
vn -0.0000 0.2737 -0.9618
vn -0.0000 0.3304 -0.9438
vn -0.0000 0.2672 -0.9636
vn -0.7477 0.2195 -0.6267
vn -0.7482 0.1768 -0.6395
vn -0.7482 0.1779 -0.6392
vn -0.6421 -0.1343 0.7547
vn -0.6421 -0.1360 0.7544
vn -0.6192 0.2140 -0.7555
vn -0.6192 0.2134 -0.7557
vn -0.6185 0.1378 -0.7736
vn -0.6185 0.1395 -0.7733
vn -0.0000 0.1710 -0.9853
vn 0.6192 0.2134 -0.7557
vn 0.6192 0.2140 -0.7555
vn 0.6185 0.1395 -0.7733
vn 0.6185 0.1378 -0.7736
vn -0.7475 0.1128 -0.6547
vn -0.7475 0.1146 -0.6543
vn 0.7483 0.1768 -0.6394
vn 0.7483 0.1779 -0.6391
vn 0.7475 0.1146 -0.6542
vn 0.7476 0.1128 -0.6545
vn -0.7278 -0.1732 0.6636
vn -0.7278 -0.1749 0.6631
vn 0.6424 -0.2557 0.7224
vn 0.6428 -0.2087 0.7370
vn 0.6428 -0.2081 0.7372
vn -0.0000 -0.3346 0.9424
vn -0.0000 -0.2734 0.9619
vn 0.7478 0.2194 -0.6266
vn 0.7483 0.0661 -0.6601
vn 0.7483 0.0645 -0.6602
vn -0.0000 -0.1777 0.9841
vn -0.0000 -0.1012 0.9949
vn -0.0000 -0.1709 0.9853
vn -0.0000 -0.0983 0.9952
vn 0.7266 -0.1166 0.6771
vn 0.7266 -0.1184 0.6768
vn 0.7273 -0.0683 0.6829
vn 0.7273 -0.0667 0.6830
vn -0.7266 -0.1184 0.6768
vn -0.7266 -0.1166 0.6771
vn -0.7273 -0.0667 0.6830
vn -0.7273 -0.0683 0.6829
vn 0.6422 -0.1343 0.7547
vn 0.6422 -0.1360 0.7544
vn 0.6430 -0.0777 0.7619
vn 0.6430 -0.0765 0.7620
vn -0.0000 0.1779 -0.9840
vn -0.7270 -0.1935 0.6588
vn -0.7270 -0.1917 0.6594
vn -0.0000 -0.2026 0.9793
vn -0.7275 -0.0394 0.6849
vn 0.6431 -0.0444 0.7645
vn -0.0000 0.1012 -0.9949
vn -0.0000 0.0581 -0.9983
vn -0.6430 -0.0777 0.7620
vn -0.6430 -0.0765 0.7621
vn -0.6430 -0.0444 0.7645
vn -0.6193 0.0797 -0.7811
vn -0.6193 0.0785 -0.7812
vn -0.6194 0.0455 -0.7838
vn -0.0000 0.0983 -0.9952
vn -0.0000 0.0574 -0.9983
vn -0.7482 0.0645 -0.6603
vn -0.7482 0.0661 -0.6602
vn 0.6193 0.0797 -0.7811
vn 0.6193 0.0785 -0.7812
vn 0.0008 0.9996 0.0294
vn 0.0012 0.9997 0.0250
vn 0.0010 0.9997 0.0250
vn 0.0012 0.9996 0.0283
vn -0.0012 0.9997 0.0250
vn -0.0010 0.9997 0.0250
vn -0.0021 0.9997 0.0242
vn -0.0000 0.9999 0.0156
vn -0.0019 0.9997 0.0235
vn 0.0021 0.9997 0.0242
vn 0.0020 0.9995 0.0322
vn 0.0019 0.9995 0.0321
vn 0.0019 0.9997 0.0235
vn -0.0008 0.9996 0.0294
vn -0.0020 0.9995 0.0321
vn -0.0019 0.9995 0.0321
vn -0.0012 0.9996 0.0283
vn 0.7275 -0.0394 0.6850
vn -0.0000 -0.0574 0.9983
vn -0.0000 -0.0581 0.9983
vn 0.7485 0.0381 -0.6621
vn -0.7484 0.0381 -0.6622
vn 0.6194 0.0455 -0.7838
vn -0.0000 -0.3805 0.9248
vt 0.375000 0.213411
vt 0.625000 0.213411
vt 0.625000 0.250000
vt 0.375000 0.250000
vt 0.625000 0.500000
vt 0.375000 0.500000
vt 0.375000 0.725755
vt 0.625000 0.725755
vt 0.625000 0.750000
vt 0.375000 0.750000
vt 0.375000 1.000000
vt 0.625000 1.000000
vt 0.125000 0.725755
vt 0.125000 0.750000
vt 0.625000 0.563312
vt 0.625000 0.536589
vt 0.125000 0.536589
vt 0.375000 0.536589
vt 0.375000 0.563312
vt 0.125000 0.563312
vt 0.375000 0.024245
vt 0.625000 0.024245
vt 0.625000 0.186688
vt 0.375000 0.186688
vt 0.125000 0.500000
vt 0.375000 0.000000
vt 0.625000 0.000000
vt 0.630330 0.723024
vt 0.864425 0.719516
vt 0.863830 0.739297
vt 0.636170 0.739297
vt 0.637736 0.541499
vt 0.854176 0.539729
vt 0.861982 0.566451
vt 0.630331 0.566451
vt 0.637735 0.507370
vt 0.862264 0.507370
vt 0.875000 0.500000
vt 0.875000 0.536589
vt 0.875000 0.750000
vt 0.875000 0.563312
vt 0.875000 0.725755
s 1
usemtl None.004
f 1/1/1 2/2/1 3/3/1 4/4/1
f 4/4/2 3/3/2 5/5/2 6/6/2
f 7/7/3 8/8/4 9/9/5 10/10/3
f 10/10/6 12/11/6 11/12/6 9/9/6
f 13/13/7 7/7/7 10/10/7 12/14/7
f 5/5/8 3/3/8 14/3/8 15/5/8
f 16/15/9 17/16/10 18/16/11 19/15/12
f 1/17/13 20/18/13 21/19/13 22/20/13
f 20/18/14 17/16/10 16/15/9 21/19/14
f 13/21/1 23/22/1 24/23/1 22/24/1
f 6/6/15 5/5/15 17/16/15 20/18/15
f 4/25/7 6/6/7 20/18/13 1/17/13
f 9/9/5 8/8/4 25/8/16 26/9/17
f 22/24/18 24/23/19 2/2/20 1/1/18
f 12/26/21 11/27/22 23/22/23 13/21/21
f 11/12/24 9/9/24 26/9/24 27/12/24
f 22/20/13 21/19/13 7/7/7 13/13/7
f 21/19/15 16/15/15 8/8/15 7/7/15
f 28/28/25 29/29/25 30/30/26 31/31/26
f 32/32/27 33/33/27 34/34/28 35/35/28
f 36/36/29 37/37/29 33/33/27 32/32/27
f 35/35/28 34/34/28 29/29/25 28/28/25
f 8/8/15 16/15/15 19/15/15 25/8/15
f 3/3/30 2/2/30 38/2/30 14/3/30
f 17/16/31 5/5/31 15/5/31 18/16/31
f 23/22/23 11/27/22 27/27/32 39/22/33
f 24/23/1 23/22/1 39/22/1 40/23/1
f 2/2/20 24/23/19 40/23/34 38/2/35
f 27/12/36 26/9/36 41/9/36 42/12/36
f 32/32/37 35/35/37 43/35/38 44/32/39
f 25/8/15 19/15/15 45/15/15 46/8/15
f 26/9/17 25/8/16 46/8/40 41/9/41
f 29/29/15 34/34/15 47/34/15 48/29/15
f 15/5/42 14/3/42 49/3/43 50/5/43
f 31/31/44 30/30/44 51/30/45 52/31/45
f 18/16/15 15/5/15 50/5/15 53/16/15
f 14/3/1 38/2/1 54/2/1 49/3/1
f 28/28/46 31/31/46 52/31/47 55/28/48
f 46/8/15 45/15/15 56/15/15 57/8/15
f 44/32/39 43/35/38 58/35/49 59/32/50
f 49/3/1 54/2/1 60/2/1 61/3/1
f 53/16/15 50/5/15 62/5/15 63/16/15
f 48/29/15 47/34/15 64/34/15 65/29/15
f 54/2/51 66/23/52 67/23/53 60/2/54
f 52/31/45 51/30/45 68/30/55 69/31/55
f 45/15/56 53/16/57 63/16/58 56/15/59
f 55/28/48 52/31/47 69/31/60 70/28/61
f 51/30/62 48/29/63 65/29/64 68/30/65
f 39/22/33 27/27/32 42/27/66 71/22/67
f 34/34/68 33/33/68 72/33/69 47/34/70
f 40/23/1 39/22/1 71/22/1 66/23/1
f 36/36/1 32/32/1 44/32/1 73/36/1
f 19/15/12 18/16/11 53/16/57 45/15/56
f 33/33/15 37/37/15 74/37/15 72/33/15
f 35/35/1 28/28/1 55/28/1 43/35/1
f 37/37/71 36/36/71 73/36/72 74/37/72
f 30/30/73 29/29/73 48/29/63 51/30/62
f 38/2/35 40/23/34 66/23/52 54/2/51
f 68/30/65 65/29/64 75/29/74 76/30/75
f 67/23/1 77/22/1 78/22/1 79/23/1
f 80/37/76 81/36/76 82/36/77 83/37/77
f 58/35/1 70/28/1 84/28/1 85/35/1
f 86/12/78 87/9/78 88/9/79 89/12/79
f 90/33/15 80/37/15 83/37/15 91/33/15
f 81/36/1 59/32/1 92/32/1 82/36/1
f 87/9/80 57/8/81 93/8/82 88/9/83
f 77/22/84 86/27/85 89/27/86 78/22/87
f 64/34/88 90/33/89 91/33/90 94/34/91
f 50/5/43 49/3/43 61/3/92 62/5/92
f 47/34/70 72/33/69 90/33/89 64/34/88
f 71/22/93 42/27/94 86/27/85 77/22/84
f 41/9/41 46/8/40 57/8/81 87/9/80
f 73/36/1 44/32/1 59/32/1 81/36/1
f 72/33/15 74/37/15 80/37/15 90/33/15
f 42/12/95 41/9/95 87/9/78 86/12/78
f 43/35/1 55/28/1 70/28/1 58/35/1
f 74/37/72 73/36/72 81/36/76 80/37/76
f 66/23/1 71/22/1 77/22/1 67/23/1
f 78/22/87 89/27/86 95/27/96 96/22/96
f 94/34/91 91/33/90 97/33/97 98/34/97
f 99/5/98 100/3/98 101/3/99 102/5/99
f 93/8/15 103/15/15 104/15/15 105/8/15
f 92/32/100 85/35/101 106/35/102 107/32/102
f 100/3/1 108/2/1 109/2/1 101/3/1
f 110/16/15 99/5/15 102/5/15 111/16/15
f 75/29/15 94/34/15 98/34/15 112/29/15
f 108/2/103 79/23/104 113/23/105 109/2/105
f 114/31/106 76/30/106 115/30/107 116/31/107
f 70/28/61 69/31/60 114/31/108 84/28/109
f 56/15/59 63/16/58 110/16/110 103/15/111
f 69/31/55 68/30/55 76/30/106 114/31/106
f 60/2/54 67/23/53 79/23/104 108/2/103
f 65/29/15 64/34/15 94/34/15 75/29/15
f 63/16/15 62/5/15 99/5/15 110/16/15
f 61/3/1 60/2/1 108/2/1 100/3/1
f 59/32/50 58/35/49 85/35/101 92/32/100
f 57/8/15 56/15/15 103/15/15 93/8/15
f 62/5/92 61/3/92 100/3/98 99/5/98
f 97/33/112 117/37/113 101/38/114 109/39/115
f 117/37/113 118/36/116 102/5/117 101/38/114
f 119/28/118 116/31/119 120/9/119 105/8/120
f 116/31/119 115/30/119 95/40/119 120/9/119
f 112/29/121 98/34/122 113/41/123 96/42/124
f 107/32/125 106/35/126 104/15/127 111/16/128
f 98/34/122 97/33/112 109/39/115 113/41/123
f 118/36/116 107/32/125 111/16/128 102/5/117
f 106/35/126 119/28/118 105/8/120 104/15/127
f 115/30/119 112/29/121 96/42/124 95/40/119
f 88/9/83 93/8/82 105/8/129 120/9/129
f 82/36/1 92/32/1 107/32/1 118/36/1
f 91/33/15 83/37/15 117/37/15 97/33/15
f 89/12/79 88/9/79 120/9/130 95/12/130
f 85/35/1 84/28/1 119/28/1 106/35/1
f 83/37/77 82/36/77 118/36/131 117/37/131
f 79/23/1 78/22/1 96/22/1 113/23/1
f 76/30/75 75/29/74 112/29/132 115/30/132
f 84/28/109 114/31/108 116/31/133 119/28/133
f 103/15/111 110/16/110 111/16/134 104/15/134
f 26/9/36 42/12/36 27/12/36
f 26/9/36 41/9/36 42/12/36
f 11/12/24 9/9/24 26/9/24
f 11/12/24 26/9/24 27/12/24
f 11/12/135 10/10/135 9/9/135
f 10/10/135 11/12/135 12/11/135
