# Blender 4.0.2
# www.blender.org
mtllib Mag.mtl
o Cube.001
v -0.042600 -0.413551 0.535915
v -0.050148 -0.424493 0.117819
v -0.042600 -0.413551 0.124516
v 0.042600 -0.413551 0.535915
v 0.050148 -0.424493 0.117819
v 0.042600 -0.413551 0.124516
v -0.050148 -0.413551 0.542612
v -0.050148 -0.413551 0.117819
v 0.050148 -0.413551 0.117819
v 0.050148 -0.413551 0.542612
v -0.050148 0.112716 0.542612
v -0.050148 0.112716 0.117819
v 0.050148 0.112716 0.117819
v 0.050148 0.112716 0.542612
v -0.042600 0.112716 0.535915
v -0.042600 0.112716 0.124516
v 0.042600 0.112716 0.124516
v 0.042600 0.112716 0.535915
v -0.050148 -0.496271 0.482648
v -0.050148 -0.413551 0.481927
v -0.050148 -0.413551 0.421243
v -0.050148 -0.413551 0.360558
v -0.050148 -0.413551 0.299873
v -0.050148 -0.413551 0.239189
v -0.050148 -0.413551 0.178504
v 0.050148 -0.496271 0.482648
v 0.050148 -0.413551 0.178504
v 0.050148 -0.413551 0.239189
v 0.050148 -0.413551 0.299873
v 0.050148 -0.413551 0.360558
v 0.050148 -0.413551 0.421243
v 0.050148 -0.413551 0.481927
v -0.042600 -0.413551 0.477144
v -0.042600 -0.413551 0.418373
v -0.042600 -0.413551 0.359601
v -0.042600 -0.413551 0.300830
v -0.042600 -0.413551 0.242059
v -0.042600 -0.413551 0.183287
v 0.042600 -0.413551 0.183287
v 0.042600 -0.413551 0.242059
v 0.042600 -0.413551 0.300830
v 0.042600 -0.413551 0.359601
v 0.042600 -0.413551 0.418373
v 0.042600 -0.413551 0.477144
v -0.050148 0.112716 0.481927
v -0.050148 0.112716 0.421243
v -0.050148 0.112716 0.360558
v -0.050148 0.112716 0.299873
v -0.050148 0.112716 0.239189
v -0.050148 0.112716 0.178504
v 0.050148 0.112716 0.178504
v 0.050148 0.112716 0.239189
v 0.050148 0.112716 0.299873
v 0.050148 0.112716 0.360558
v 0.050148 0.112716 0.421243
v 0.050148 0.112716 0.481927
v -0.042600 0.112716 0.477144
v -0.042600 0.112716 0.418373
v -0.042600 0.112716 0.359601
v -0.042600 0.112716 0.300830
v -0.042600 0.112716 0.242059
v -0.042600 0.112716 0.183287
v 0.042600 0.112716 0.183287
v 0.042600 0.112716 0.242059
v 0.042600 0.112716 0.300830
v 0.042600 0.112716 0.359601
v 0.042600 0.112716 0.418373
v 0.042600 0.112716 0.477144
v -0.052799 -0.413551 0.178504
v -0.062561 -0.413551 0.166421
v -0.062561 -0.413551 0.129903
v -0.052799 -0.413551 0.117819
v 0.052799 -0.413551 0.481927
v 0.062561 -0.413551 0.494011
v 0.062561 -0.413551 0.530529
v 0.052799 -0.413551 0.542612
v 0.062561 0.112716 0.129903
v 0.052799 0.112716 0.117819
v 0.052799 -0.413551 0.117819
v 0.062561 -0.413551 0.129903
v -0.052799 0.112716 0.117819
v -0.062561 0.112716 0.129903
v -0.062561 0.112716 0.530529
v -0.052799 0.112716 0.542612
v -0.052799 -0.413551 0.542612
v -0.062561 -0.413551 0.530529
v 0.052799 0.112716 0.542612
v 0.062561 0.112716 0.530529
v -0.062561 0.112716 0.166421
v -0.052799 0.112716 0.178504
v 0.062561 0.112716 0.494011
v 0.052799 0.112716 0.481927
v -0.062561 -0.413551 0.494011
v -0.052799 -0.413551 0.481927
v -0.052799 -0.413551 0.421243
v -0.062561 -0.413551 0.409159
v -0.062561 -0.413551 0.372641
v -0.052799 -0.413551 0.360558
v -0.052799 -0.413551 0.299873
v -0.062561 -0.413551 0.287790
v -0.062561 -0.413551 0.251272
v -0.052799 -0.413551 0.239189
v 0.062561 -0.413551 0.166421
v 0.052799 -0.413551 0.178504
v 0.052799 -0.413551 0.239189
v 0.062561 -0.413551 0.251272
v 0.062561 -0.413551 0.287790
v 0.052799 -0.413551 0.299873
v 0.052799 -0.413551 0.360558
v 0.062561 -0.413551 0.372641
v 0.062561 -0.413551 0.409159
v 0.052799 -0.413551 0.421243
v -0.052799 0.112716 0.481927
v -0.062561 0.112716 0.494011
v -0.062561 0.112716 0.409159
v -0.052799 0.112716 0.421243
v -0.052799 0.112716 0.360558
v -0.062561 0.112716 0.372641
v -0.062561 0.112716 0.287790
v -0.052799 0.112716 0.299873
v -0.052799 0.112716 0.239189
v -0.062561 0.112716 0.251272
v 0.052799 0.112716 0.178504
v 0.062561 0.112716 0.166421
v 0.062561 0.112716 0.251272
v 0.052799 0.112716 0.239189
v 0.052799 0.112716 0.299873
v 0.062561 0.112716 0.287790
v 0.062561 0.112716 0.372641
v 0.052799 0.112716 0.360558
v 0.052799 0.112716 0.421243
v 0.062561 0.112716 0.409159
v -0.050148 -0.484567 0.542612
v 0.050148 -0.484567 0.542612
v -0.054169 -0.543851 0.526610
v -0.031756 -0.503724 0.506010
v -0.031756 -0.430286 0.136055
v 0.054169 -0.543851 0.526610
v 0.031756 -0.503724 0.506010
v 0.031756 -0.430286 0.136055
v -0.054169 -0.528534 0.115455
v -0.054169 -0.543851 0.153739
v 0.054169 -0.543851 0.153739
v 0.054169 -0.528534 0.115455
v 0.054169 -0.521660 0.162236
v 0.054169 -0.511996 0.135741
v 0.054169 -0.451845 0.135741
v 0.054169 -0.521660 0.446788
v -0.054169 -0.521660 0.446788
v -0.054169 -0.511996 0.135741
v -0.054169 -0.451845 0.135741
v -0.054169 -0.521660 0.162236
v -0.054169 -0.507814 0.526610
v -0.054169 -0.426197 0.115455
v 0.054169 -0.426197 0.115455
v 0.054169 -0.507814 0.526610
v -0.031756 -0.486822 0.509366
v -0.031756 -0.413383 0.139410
v 0.031756 -0.413383 0.139410
v 0.031756 -0.486822 0.509366
vn -1.0000 -0.0000 -0.0000
vn -0.0000 -0.0000 -1.0000
vn 1.0000 -0.0000 -0.0000
vn -0.0000 1.0000 -0.0000
vn -0.0000 -0.0000 1.0000
vn -0.0000 -1.0000 -0.0000
vn -0.0000 -0.9812 -0.1930
vn 0.7779 -0.0000 -0.6284
vn -0.7779 -0.0000 -0.6284
vn -0.7779 -0.0000 0.6284
vn 0.7779 -0.0000 0.6284
vn -0.0000 -0.9815 0.1916
vn -0.0000 -0.1947 0.9809
vn -0.0000 -0.9284 -0.3715
vn -0.0000 -0.9757 -0.2190
vn -0.0000 0.9395 0.3427
vn -0.0000 0.9809 0.1947
vn -0.0000 0.1947 -0.9809
vt 0.375000 0.214286
vt 0.625000 0.214286
vt 0.625000 0.250000
vt 0.375000 0.250000
vt 0.625000 0.500000
vt 0.375000 0.500000
vt 0.375000 0.714286
vt 0.625000 0.714286
vt 0.625000 0.750000
vt 0.553856 0.750000
vt 0.641849 0.703246
vt 0.858151 0.703246
vt 0.858151 0.734544
vt 0.641849 0.734544
vt 0.858151 0.546754
vt 0.858151 0.515456
vt 0.625000 1.000000
vt 0.875000 0.500000
vt 0.875000 0.535714
vt 0.641849 0.515456
vt 0.875000 0.750000
vt 0.625000 0.678571
vt 0.875000 0.678571
vt 0.875000 0.642857
vt 0.875000 0.649968
vt 0.875000 0.671460
vt 0.875000 0.678571
vt 0.625000 0.571429
vt 0.625000 0.607143
vt 0.625000 0.600031
vt 0.625000 0.578540
vt 0.625000 0.178571
vt 0.625000 0.035714
vt 0.625000 0.142857
vt 0.625000 0.107143
vt 0.625000 0.714286
vt 0.625000 0.721397
vt 0.625000 0.742889
vt 0.625000 0.071429
vt 0.625000 0.078540
vt 0.625000 0.100032
vt 0.625000 0.642857
vt 0.625000 0.607143
vt 0.875000 0.607143
vt 0.875000 0.571429
vt 0.875000 0.578540
vt 0.875000 0.600031
vt 0.625000 0.535714
vt 0.625000 0.535714
vt 0.641849 0.546754
vt 0.641849 0.578053
vt 0.641849 0.609351
vt 0.641849 0.640649
vt 0.641849 0.671947
vt 0.858151 0.703246
vt 0.875000 0.714286
vt 0.858151 0.671947
vt 0.858151 0.640649
vt 0.858151 0.609351
vt 0.858151 0.578053
vt 0.641849 0.578053
vt 0.641849 0.640649
vt 0.641849 0.671947
vt 0.858151 0.671947
vt 0.858151 0.640649
vt 0.125000 0.500000
vt 0.375000 0.535714
vt 0.125000 0.535714
vt 0.375000 0.571429
vt 0.375000 0.607143
vt 0.375000 0.642857
vt 0.375000 0.678571
vt 0.553856 1.000000
vt 0.375000 0.035714
vt 0.375000 0.071429
vt 0.375000 0.107143
vt 0.375000 0.142857
vt 0.375000 0.178571
vt 0.625000 0.528603
vt 0.625000 0.507111
vt 0.875000 0.721397
vt 0.875000 0.742889
vt 0.625000 0.507111
vt 0.625000 0.528603
vt 0.625000 0.649968
vt 0.625000 0.671460
vt 0.625000 0.600031
vt 0.875000 0.507111
vt 0.875000 0.528603
vt 0.625000 0.742889
vt 0.625000 0.242889
vt 0.625000 0.221397
vt 0.625000 0.578540
vt 0.625000 0.528603
vt 0.625000 0.028603
vt 0.625000 0.007111
vt 0.625000 0.007111
vt 0.625000 0.028603
vt 0.625000 0.000000
vt 0.625000 0.149969
vt 0.625000 0.171460
vt 0.125000 0.716288
vt 0.375000 0.716288
vt 0.375000 0.750000
vt 0.125000 0.750000
vt 0.375000 0.033712
vt 0.553856 0.000000
vt 0.456346 0.250000
vt 0.456346 0.500000
vt 0.473220 0.512334
vt 0.584087 0.512335
vt 0.375000 0.523278
vt 0.437312 0.528444
vt 0.483037 0.701465
vt 0.375000 1.000000
vt 0.473220 0.237666
vt 0.375000 0.226722
vt 0.375000 0.000000
vt 0.584087 0.237666
vt 0.483037 0.048535
vt 0.437312 0.221556
vt 0.823280 0.737475
vt 0.676720 0.737475
vt 0.375000 0.523278
vt 0.125000 0.523278
vt 0.456346 0.332830
vt 0.456346 0.417170
vt 0.625000 0.417170
vt 0.625000 0.332830
vt 0.792170 0.500000
vt 0.707830 0.500000
vt 0.707830 0.750000
vt 0.792170 0.750000
vt 0.292170 0.523278
vt 0.292170 0.500000
vt 0.207830 0.500000
vt 0.207830 0.523278
vt 0.207830 0.750000
vt 0.292170 0.750000
vt 0.292170 0.523278
vt 0.823280 0.512525
vt 0.676720 0.512525
s 0
f 19/1/1 25/2/1 8/3/1 2/4/1
f 2/4/2 8/3/2 9/5/2 5/6/2
f 26/7/3 32/8/3 10/9/3 134/10/3
f 44/11/4 33/12/4 1/13/4 4/14/4
f 38/15/3 3/16/3 16/16/3 62/15/3
f 44/11/1 4/14/1 18/14/1 68/11/1
f 9/5/2 8/3/2 12/3/2 13/5/2
f 7/17/5 10/9/5 14/9/5 11/17/5
f 62/15/4 16/16/4 12/18/4 50/19/4
f 16/16/4 17/20/4 13/5/4 12/18/4
f 68/11/4 18/14/4 14/9/4 56/8/4
f 18/14/4 15/13/4 11/21/4 14/9/4
f 55/22/5 31/22/5 112/22/5 131/22/5
f 4/14/2 1/13/2 15/13/2 18/14/2
f 3/16/5 6/20/5 17/20/5 16/16/5
f 46/23/4 47/24/4 117/24/4 118/25/4 115/26/4 116/27/4
f 52/28/4 53/29/4 127/29/4 128/30/4 125/31/4 126/28/4
f 25/2/1 24/32/1 49/32/1 50/2/1
f 45/33/2 20/33/2 94/33/2 113/33/2
f 23/34/1 22/35/1 47/35/1 48/34/1
f 10/9/6 32/8/6 73/36/6 74/37/6 75/38/6 76/9/6
f 21/39/1 20/33/1 45/33/1 46/39/1
f 14/9/5 10/9/5 76/9/5 87/9/5
f 32/8/3 31/22/3 55/22/3 56/8/3
f 22/35/6 21/39/6 95/39/6 96/40/6 97/41/6 98/35/6
f 30/42/3 29/43/3 53/29/3 54/42/3
f 48/44/4 49/45/4 121/45/4 122/46/4 119/47/4 120/44/4
f 28/28/3 27/48/3 51/49/3 52/28/3
f 17/20/4 63/50/4 51/49/4 13/5/4
f 63/50/4 64/51/4 52/28/4 51/49/4
f 64/51/4 65/52/4 53/29/4 52/28/4
f 65/52/4 66/53/4 54/42/4 53/29/4
f 66/53/4 67/54/4 55/22/4 54/42/4
f 67/54/4 68/11/4 56/8/4 55/22/4
f 15/13/4 57/55/4 45/56/4 11/21/4
f 57/55/4 58/57/4 46/23/4 45/56/4
f 58/57/4 59/58/4 47/24/4 46/23/4
f 59/58/4 60/59/4 48/44/4 47/24/4
f 60/59/4 61/60/4 49/45/4 48/44/4
f 61/60/4 62/15/4 50/19/4 49/45/4
f 6/20/1 39/50/1 63/50/1 17/20/1
f 39/50/1 40/61/1 64/51/1 63/50/1
f 40/61/1 41/52/1 65/52/1 64/51/1
f 41/52/1 42/62/1 66/53/1 65/52/1
f 42/62/1 43/63/1 67/54/1 66/53/1
f 43/63/1 44/11/1 68/11/1 67/54/1
f 1/13/3 33/12/3 57/55/3 15/13/3
f 33/12/3 34/64/3 58/57/3 57/55/3
f 34/64/3 35/65/3 59/58/3 58/57/3
f 35/65/3 36/59/3 60/59/3 59/58/3
f 36/59/3 37/60/3 61/60/3 60/59/3
f 37/60/3 38/15/3 62/15/3 61/60/3
f 6/20/4 3/16/4 38/15/4 39/50/4
f 39/50/4 38/15/4 37/60/4 40/61/4
f 40/61/4 37/60/4 36/59/4 41/52/4
f 41/52/4 36/59/4 35/65/4 42/62/4
f 42/62/4 35/65/4 34/64/4 43/63/4
f 43/63/4 34/64/4 33/12/4 44/11/4
f 2/66/7 5/6/7 26/67/7 19/68/7
f 5/6/3 9/5/3 27/48/3 26/67/3
f 26/67/3 27/48/3 28/28/3
f 26/69/3 28/28/3 29/43/3
f 26/70/3 29/43/3 30/42/3
f 26/71/3 30/42/3 31/22/3
f 26/72/3 31/22/3 32/8/3
f 134/10/5 10/9/5 7/17/5 133/73/5
f 19/74/1 20/33/1 21/39/1
f 19/75/1 21/39/1 22/35/1
f 19/76/1 22/35/1 23/34/1
f 19/77/1 23/34/1 24/32/1
f 19/78/1 24/32/1 25/2/1
f 13/5/4 51/49/4 123/49/4 124/79/4 77/80/4 78/5/4
f 11/21/4 45/56/4 113/56/4 114/81/4 83/82/4 84/21/4
f 25/2/5 50/2/5 90/2/5 69/2/5
f 23/34/5 48/34/5 120/34/5 99/34/5
f 21/39/5 46/39/5 116/39/5 95/39/5
f 32/8/2 56/8/2 92/36/2 73/36/2
f 30/42/2 54/42/2 130/42/2 109/42/2
f 28/28/2 52/28/2 126/28/2 105/28/2
f 27/48/6 9/5/6 79/5/6 80/83/6 103/84/6 104/48/6
f 31/22/6 30/42/6 109/42/6 110/85/6 111/86/6 112/22/6
f 53/29/5 29/43/5 108/43/5 127/29/5
f 54/42/4 55/22/4 131/22/4 132/86/4 129/85/4 130/42/4
f 29/43/6 28/28/6 105/28/6 106/31/6 107/87/6 108/43/6
f 50/19/4 12/18/4 81/18/4 82/88/4 89/89/4 90/19/4
f 56/8/4 14/9/4 87/9/4 88/90/4 91/37/4 92/36/4
f 71/91/1 70/92/1 89/92/1 82/91/1
f 12/3/2 8/3/2 72/3/2 81/3/2
f 107/87/3 106/93/3 125/31/3 128/87/3
f 103/94/3 80/80/3 77/80/3 124/79/3
f 51/49/5 27/48/5 104/48/5 123/49/5
f 75/90/3 74/37/3 91/37/3 88/38/3
f 97/41/1 96/40/1 115/40/1 118/41/1
f 49/32/2 24/32/2 102/32/2 121/32/2
f 111/86/3 110/85/3 129/85/3 132/86/3
f 93/95/1 86/96/1 83/97/1 114/98/1
f 20/33/6 7/99/6 85/99/6 86/97/6 93/98/6 94/33/6
f 24/32/6 23/34/6 99/34/6 100/100/6 101/101/6 102/32/6
f 9/5/2 13/5/2 78/5/2 79/5/2
f 101/101/1 100/100/1 119/100/1 122/101/1
f 47/35/2 22/35/2 98/35/2 117/35/2
f 7/17/5 11/17/5 84/17/5 85/17/5
f 77/80/8 80/80/8 79/5/8 78/5/8
f 71/91/9 82/91/9 81/3/9 72/3/9
f 83/97/10 86/96/10 85/99/10 84/99/10
f 75/90/11 88/38/11 87/9/11 76/9/11
f 69/2/10 90/2/10 89/92/10 70/92/10
f 101/101/9 122/101/9 121/32/9 102/32/9
f 99/34/10 120/34/10 119/100/10 100/100/10
f 97/41/9 118/41/9 117/35/9 98/35/9
f 95/39/10 116/39/10 115/40/10 96/40/10
f 93/95/9 114/98/9 113/33/9 94/33/9
f 73/36/8 92/36/8 91/37/8 74/37/8
f 111/86/11 132/86/11 131/22/11 112/22/11
f 109/42/8 130/42/8 129/85/8 110/85/8
f 107/87/11 128/87/11 127/29/11 108/43/11
f 105/28/8 126/28/8 125/31/8 106/93/8
f 103/94/11 124/79/11 123/49/11 104/48/11
f 8/3/6 25/2/6 69/2/6 70/92/6 71/91/6 72/3/6
f 19/102/12 26/103/12 134/104/12 133/105/12
f 19/106/1 133/107/1 7/99/1 20/33/1
f 141/108/2 154/3/2 155/5/2 144/109/2
f 146/110/3 144/109/3 155/5/3 147/111/3
f 147/111/3 155/5/3 156/9/3 138/104/3 143/112/3 144/109/3 146/110/3 145/113/3 148/114/3
f 138/104/5 156/9/5 153/17/5 135/115/5
f 150/116/1 141/108/1 142/117/1 135/118/1 153/99/1 154/3/1 151/119/1 149/120/1 152/121/1
f 154/3/1 141/108/1 150/116/1 151/119/1
f 136/122/13 139/123/13 160/123/13 157/122/13
f 143/124/14 142/125/14 141/66/14 144/6/14
f 142/125/6 143/124/6 138/104/6 135/105/6
f 150/126/5 146/127/5 147/128/5 151/129/5
f 151/130/15 147/131/15 148/132/15 149/133/15
f 145/134/16 146/135/16 150/136/16 152/137/16
f 149/138/4 148/139/4 145/140/4 152/137/4
f 136/122/17 137/141/17 154/18/17 153/21/17
f 137/141/17 140/142/17 155/5/17 154/18/17
f 139/123/17 136/122/17 153/21/17 156/9/17
f 140/142/17 139/123/17 156/9/17 155/5/17
f 159/142/17 158/141/17 157/122/17 160/123/17
f 137/141/1 136/122/1 157/122/1 158/141/1
f 139/123/3 140/142/3 159/142/3 160/123/3
f 140/142/18 137/141/18 158/141/18 159/142/18
