# Blender v3.0.0 OBJ File: 'M4A1.blend'
# www.blender.org
mtllib Bolt.mtl
o Handle.005_Cube.007
v 0.008928 0.079161 -0.111389
v 0.008928 0.086348 -0.111389
v 0.008928 0.079161 0.120210
v 0.008928 0.086348 0.120210
v -0.008928 0.079161 -0.111389
v -0.008928 0.086348 -0.111389
v -0.008928 0.079161 0.120210
v -0.008928 0.086348 0.120210
v 0.013579 0.079161 0.111077
v 0.013579 0.086348 0.111077
v 0.017339 0.079161 0.148714
v 0.017339 0.086348 0.148714
v -0.013579 0.079161 0.111077
v -0.013579 0.086348 0.111077
v -0.017339 0.079161 0.148714
v -0.017339 0.086348 0.148714
v 0.013579 0.079161 0.123588
v 0.013579 0.086348 0.123618
v -0.013579 0.079161 0.123588
v -0.013579 0.086348 0.123618
v 0.013579 0.093895 0.123618
v 0.017339 0.093895 0.148714
v -0.017339 0.093895 0.148714
v -0.013579 0.093895 0.123618
v 0.000000 0.079161 0.148714
v 0.000000 0.086348 0.148714
v 0.000000 0.079161 0.111077
v 0.000000 0.086348 0.111077
v 0.000000 0.086348 0.128431
v 0.000000 0.079161 0.118103
v 0.000000 0.093895 0.148714
v 0.000000 0.093895 0.128431
v 0.009756 0.079161 0.148714
v 0.009756 0.086348 0.111077
v 0.009756 0.079161 0.118103
v 0.009756 0.086348 0.148714
v 0.009756 0.079161 0.111077
v 0.007403 0.086348 0.126471
v 0.009756 0.093895 0.148714
v 0.007403 0.093895 0.126471
v -0.017391 0.086348 0.148714
v -0.009756 0.079161 0.111077
v -0.007403 0.086348 0.126471
v -0.009756 0.093895 0.148714
v -0.007403 0.093895 0.126471
v -0.009756 0.079161 0.148714
v -0.009756 0.086348 0.111077
v -0.009756 0.079161 0.118103
v 0.029850 0.086348 0.123618
v 0.029850 0.086348 0.148714
v 0.029850 0.079161 0.148714
v -0.029850 0.086348 0.148714
v -0.029850 0.079161 0.148714
v -0.029850 0.079161 0.123588
v 0.029850 0.079161 0.123588
v -0.029850 0.086348 0.123618
v 0.029850 0.093895 0.123618
v 0.029850 0.093895 0.148714
v -0.029850 0.093895 0.148714
v -0.029850 0.093895 0.123618
v -0.017339 0.079161 0.135924
v 0.017339 0.079161 0.135924
v 0.017339 0.093895 0.135925
v -0.017339 0.093895 0.135925
v 0.000000 0.093895 0.135929
v 0.000000 0.079161 0.135919
v 0.009756 0.079161 0.135919
v 0.009756 0.093895 0.135927
v -0.009756 0.093895 0.135927
v -0.009756 0.079161 0.135919
v 0.037522 0.086348 0.135925
v -0.037522 0.079161 0.135924
v 0.037522 0.079161 0.135924
v -0.037522 0.086348 0.135925
v 0.037522 0.093895 0.135925
v -0.037522 0.093895 0.135925
v -0.017339 0.079161 0.142319
v 0.017339 0.093895 0.142319
v 0.036320 0.086348 0.142319
v -0.036319 0.079161 0.142319
v 0.036320 0.093895 0.142319
v 0.017339 0.079161 0.142319
v -0.017339 0.093895 0.142319
v 0.000000 0.093895 0.142322
v 0.000000 0.079161 0.142317
v 0.009756 0.079161 0.142317
v 0.009756 0.093895 0.142321
v -0.009756 0.093895 0.142321
v -0.009756 0.079161 0.142317
v 0.036320 0.079161 0.142319
v -0.036319 0.086348 0.142319
v -0.036319 0.093895 0.142319
v 0.017339 0.079161 0.129765
v -0.017339 0.093895 0.129765
v 0.000000 0.093895 0.129777
v 0.000000 0.079161 0.129752
v 0.009756 0.079161 0.129752
v 0.009756 0.093895 0.129772
v -0.009756 0.093895 0.129772
v -0.009756 0.079161 0.129752
v 0.036320 0.079161 0.129765
v -0.036319 0.086348 0.129765
v -0.036319 0.093895 0.129765
v -0.017339 0.079161 0.129765
v 0.017339 0.093895 0.129765
v 0.036320 0.086348 0.129765
v -0.036319 0.079161 0.129765
v 0.036320 0.093895 0.129765
v 0.013579 0.082754 0.109037
v 0.017339 0.082754 0.148714
v -0.017339 0.082754 0.148714
v -0.013579 0.082754 0.109037
v -0.013579 0.082754 0.123603
v 0.013579 0.082754 0.123603
v 0.000000 0.082754 0.109037
v 0.000000 0.082754 0.148714
v 0.009756 0.082754 0.148714
v 0.009756 0.082754 0.109037
v -0.009756 0.082754 0.109037
v -0.017391 0.082754 0.148714
v 0.029850 0.082754 0.148714
v -0.029850 0.082754 0.148714
v -0.029850 0.082754 0.123603
v 0.029850 0.082754 0.123603
v -0.037522 0.082754 0.135924
v 0.037522 0.082754 0.135924
v -0.036319 0.082754 0.142319
v 0.036320 0.082754 0.142319
v 0.036320 0.082754 0.129765
v -0.036319 0.082754 0.129765
v -0.017394 0.086340 0.123667
v -0.017394 0.082746 0.123653
v -0.013559 0.083010 0.112290
v -0.013559 0.086149 0.112290
v -0.013559 0.083010 0.146464
v -0.013559 0.086149 0.146464
v -0.015692 0.083010 0.112290
v -0.015692 0.086149 0.112290
v -0.015692 0.083010 0.146464
v -0.015692 0.086149 0.146464
v -0.013559 0.083010 0.120356
v -0.013559 0.086149 0.120356
v -0.018329 0.083010 0.120356
v -0.015692 0.083010 0.115053
v -0.013559 0.083010 0.120356
v -0.015692 0.083010 0.125659
v -0.016465 0.083010 0.118803
v -0.015692 0.086149 0.115053
v -0.018329 0.086149 0.120356
v -0.015692 0.086149 0.125659
v -0.013559 0.086149 0.120356
v -0.016465 0.086149 0.118803
v -0.036682 0.086149 0.136521
v -0.028561 0.086149 0.146464
v -0.034303 0.086149 0.143552
v -0.028561 0.083010 0.146464
v -0.036682 0.083010 0.136521
v -0.034303 0.083010 0.143552
v -0.036682 0.083010 0.130299
v -0.028561 0.083010 0.120356
v -0.034303 0.083010 0.123268
v -0.028561 0.086149 0.120356
v -0.036682 0.086149 0.130299
v -0.034303 0.086149 0.123268
vt 0.375000 0.000000
vt 0.625000 0.000000
vt 0.625000 0.250000
vt 0.375000 0.250000
vt 0.625000 0.500000
vt 0.375000 0.500000
vt 0.625000 0.750000
vt 0.375000 0.750000
vt 0.625000 1.000000
vt 0.375000 1.000000
vt 0.125000 0.500000
vt 0.125000 0.750000
vt 0.875000 0.500000
vt 0.875000 0.750000
vt 0.500000 0.250000
vt 0.375000 0.250000
vt 0.375000 0.250000
vt 0.500000 0.250000
vt 0.500000 0.625000
vt 0.500000 0.625000
vt 0.500000 0.625000
vt 0.625000 0.625000
vt 0.625000 0.750000
vt 0.500000 0.750000
vt 0.500000 0.937500
vt 0.625000 0.937500
vt 0.625000 1.000000
vt 0.500000 1.000000
vt 0.312500 0.625000
vt 0.375000 0.625000
vt 0.375000 0.750000
vt 0.312500 0.750000
vt 0.812500 0.625000
vt 0.875000 0.625000
vt 0.875000 0.750000
vt 0.812500 0.750000
vt 0.875000 0.531250
vt 0.875000 0.500000
vt 0.875000 0.500000
vt 0.875000 0.531250
vt 0.312500 0.593750
vt 0.375000 0.593750
vt 0.625000 0.562500
vt 0.625000 0.593750
vt 0.625000 0.562500
vt 0.500000 0.000000
vt 0.625000 0.000000
vt 0.625000 0.125000
vt 0.500000 0.125000
vt 0.812500 0.593750
vt 0.875000 0.593750
vt 0.875000 0.625000
vt 0.812500 0.625000
vt 0.875000 0.625000
vt 0.875000 0.625000
vt 0.625000 0.312500
vt 0.625000 0.250000
vt 0.625000 0.250000
vt 0.625000 0.312500
vt 0.687500 0.625000
vt 0.625000 0.625000
vt 0.687500 0.625000
vt 0.750000 0.625000
vt 0.750000 0.625000
vt 0.625000 0.437500
vt 0.625000 0.375000
vt 0.625000 0.375000
vt 0.625000 0.437500
vt 0.687500 0.593750
vt 0.750000 0.593750
vt 0.187500 0.593750
vt 0.250000 0.593750
vt 0.250000 0.625000
vt 0.187500 0.625000
vt 0.750000 0.750000
vt 0.687500 0.750000
vt 0.250000 0.750000
vt 0.187500 0.750000
vt 0.500000 0.812500
vt 0.625000 0.812500
vt 0.625000 0.875000
vt 0.500000 0.875000
vt 0.500000 0.312500
vt 0.500000 0.375000
vt 0.125000 0.625000
vt 0.125000 0.750000
vt 0.125000 0.593750
vt 0.625000 0.593750
vt 0.625000 0.500000
vt 0.625000 0.500000
vt 0.500000 0.437500
vt 0.500000 0.218750
vt 0.625000 0.218750
vt 0.625000 0.250000
vt 0.625000 0.531250
vt 0.625000 0.500000
vt 0.625000 0.500000
vt 0.625000 0.531250
vt 0.625000 0.531250
vt 0.625000 0.156250
vt 0.625000 0.125000
vt 0.625000 0.125000
vt 0.625000 0.156250
vt 0.625000 0.250000
vt 0.375000 0.531250
vt 0.375000 0.500000
vt 0.375000 0.500000
vt 0.375000 0.531250
vt 0.375000 0.625000
vt 0.625000 0.625000
vt 0.625000 0.625000
vt 0.625000 0.593750
vt 0.125000 0.625000
vt 0.125000 0.593750
vt 0.500000 0.125000
vt 0.125000 0.531250
vt 0.125000 0.562500
vt 0.125000 0.562500
vt 0.125000 0.531250
vt 0.625000 0.531250
vt 0.625000 0.562500
vt 0.625000 0.562500
vt 0.375000 0.562500
vt 0.375000 0.562500
vt 0.375000 0.593750
vt 0.625000 0.187500
vt 0.625000 0.187500
vt 0.625000 0.218750
vt 0.625000 0.500000
vt 0.500000 0.156250
vt 0.500000 0.187500
vt 0.250000 0.531250
vt 0.312500 0.531250
vt 0.312500 0.562500
vt 0.250000 0.562500
vt 0.687500 0.531250
vt 0.687500 0.562500
vt 0.750000 0.531250
vt 0.812500 0.531250
vt 0.812500 0.562500
vt 0.750000 0.562500
vt 0.187500 0.531250
vt 0.187500 0.562500
vt 0.875000 0.562500
vt 0.875000 0.562500
vt 0.875000 0.593750
vt 0.312500 0.500000
vt 0.812500 0.500000
vt 0.687500 0.500000
vt 0.750000 0.500000
vt 0.187500 0.500000
vt 0.250000 0.500000
vt 0.125000 0.500000
vt 0.125000 0.500000
vt 0.500000 0.562500
vt 0.500000 0.531250
vt 0.500000 0.562500
vt 0.500000 0.593750
vt 0.375000 0.125000
vt 0.375000 0.156250
vt 0.375000 0.187500
vt 0.375000 0.218750
vt 0.500000 0.500000
vt 0.375000 0.125000
vt 0.625000 0.625000
vt 0.375000 0.375000
vt 0.375000 0.437500
vt 0.375000 0.812500
vt 0.375000 0.875000
vt 0.375000 0.937500
vt 0.375000 0.312500
vt 0.375000 0.000000
vt 0.500000 0.500000
vt 0.375000 1.000000
vt 0.500000 0.593750
vt 0.625000 0.593750
vt 0.500000 0.500000
vt 0.500000 0.531250
vt 0.375000 0.125000
vt 0.625000 0.125000
vt 0.625000 0.250000
vt 0.375000 0.250000
vt 0.625000 0.500000
vt 0.375000 0.500000
vt 0.375000 0.750000
vt 0.625000 0.750000
vt 0.625000 1.000000
vt 0.375000 1.000000
vt 0.125000 0.500000
vt 0.375000 0.599612
vt 0.125050 0.625000
vt 0.125000 0.625000
vt 0.625000 0.500000
vt 0.375000 0.500000
vt 0.375000 0.707185
vt 0.625000 0.707185
vt 0.375000 0.625000
vt 0.375000 0.504648
vt 0.375000 0.547607
vt 0.375000 0.577393
vt 0.375000 0.620352
vt 0.375000 0.625000
vt 0.375000 0.000000
vt 0.625000 0.000000
vt 0.625000 0.599612
vt 0.625000 0.625000
vt 0.625000 0.625000
vt 0.625000 0.620352
vt 0.625000 0.577393
vt 0.625000 0.547607
vt 0.625000 0.504648
vt 0.875000 0.500000
vt 0.875000 0.625000
vt 0.874950 0.625000
vt 0.125000 0.750000
vt 0.875000 0.750000
vt 0.375000 0.625000
vt 0.375000 0.625000
vt 0.625000 0.649071
vt 0.625000 0.625000
vn 1.0000 0.0000 -0.0000
vn 0.0000 0.0000 1.0000
vn -1.0000 0.0000 0.0000
vn 0.0000 0.0000 -1.0000
vn 0.0000 -1.0000 -0.0000
vn 0.0000 1.0000 0.0000
vn 0.3800 -0.0000 0.9250
vn 0.0000 0.9867 0.1625
vn 0.0000 0.4937 -0.8696
vn -0.0002 -1.0000 0.0001
vn -0.1428 0.0014 -0.9898
vn -0.2147 0.0000 -0.9767
vn 0.3709 0.0000 -0.9287
vn 0.3712 0.0015 -0.9286
vn 0.3389 0.0000 -0.9408
vn 0.2147 0.0000 -0.9767
vn -0.3389 0.0000 -0.9408
vn 0.7030 -0.0000 0.7112
vn -0.7030 0.0000 0.7112
vn -0.3800 0.0000 0.9250
vn 0.6891 0.0007 -0.7247
vn 0.6888 0.0000 -0.7249
vn -0.0000 0.0040 -1.0000
vn -0.3714 0.0030 -0.9285
vn -0.3720 0.0030 -0.9282
vn -0.3709 0.0000 -0.9287
vn 0.3714 0.0030 -0.9285
vn 0.9828 -0.0000 0.1849
vn -0.9815 0.0000 -0.1917
vn 0.9815 0.0000 -0.1917
vn -0.9828 0.0000 0.1849
vn 0.6897 0.0015 -0.7241
vn -0.6888 0.0000 -0.7249
vn 0.0002 1.0000 -0.0001
vn 0.6901 0.0015 -0.7237
vn 0.0000 -0.9868 -0.1620
vn -0.6901 0.0015 -0.7237
vn 0.0000 -0.4937 -0.8696
vn 0.0000 -0.4937 -0.8697
vn -1.0000 -0.0000 0.0001
vn 0.0004 1.0000 -0.0002
vn -0.0004 -1.0000 0.0002
vn -0.0130 0.0040 -0.9999
vn -0.2325 -0.0000 0.9726
vn -0.9794 0.0000 -0.2017
vn -0.6401 0.0000 -0.7683
vn -0.3403 0.0000 -0.9403
vn -0.2325 0.0000 -0.9726
vn -0.9473 -0.0000 0.3205
vn -0.7559 -0.0000 0.6547
vn -0.7559 0.0000 -0.6547
vn -0.9473 0.0000 -0.3205
usemtl M4A1
s 1
f 1/1/1 2/2/1 4/3/1 3/4/1
f 3/4/2 4/3/2 8/5/2 7/6/2
f 7/6/3 8/5/3 6/7/3 5/8/3
f 5/8/4 6/7/4 2/9/4 1/10/4
f 3/11/5 7/6/5 5/8/5 1/12/5
f 8/5/6 4/13/6 2/14/6 6/7/6
f 110/15/2 11/16/2 51/17/7 121/18/7
f 113/19/8 123/20/8 132/21/8
f 113/19/3 20/22/3 14/23/3 112/24/3
f 118/25/4 34/26/9 10/27/9 109/28/4
f 48/29/5 19/30/5 13/31/5 42/32/5
f 38/33/6 18/34/6 10/35/6 34/36/6
f 78/37/6 22/38/6 58/39/6 81/40/6
f 100/41/5 104/42/5 19/30/5 48/29/5
f 74/43/5 102/44/10 41/45/10
f 109/46/1 10/47/1 18/48/1 114/49/1
f 98/50/6 105/51/6 21/52/6 40/53/6
f 18/34/11 21/52/12 57/54/13 49/55/14
f 36/56/2 12/57/2 22/58/2 39/59/2
f 43/60/15 20/22/16 24/61/16 45/62/15
f 38/33/17 29/63/4 32/64/4 40/53/17
f 41/65/2 26/66/2 31/67/2 44/68/2
f 99/69/6 95/70/6 32/64/6 45/62/6
f 97/71/5 96/72/5 30/73/5 35/74/5
f 43/60/6 29/63/6 28/75/6 47/76/6
f 35/74/5 30/73/5 27/77/5 37/78/5
f 119/79/4 47/80/9 28/81/9 115/82/4
f 117/83/2 36/56/2 26/66/2 116/84/2
f 110/15/2 12/57/2 36/56/2 117/83/2
f 17/85/5 35/74/5 37/78/5 9/86/5
f 93/87/5 97/71/5 35/74/5 17/85/5
f 18/34/11 38/33/17 40/53/17 21/52/12
f 26/66/2 36/56/2 39/59/2 31/67/2
f 95/70/6 98/50/6 40/53/6 32/64/6
f 29/63/6 38/33/6 34/36/6 28/75/6
f 115/82/4 28/81/9 34/26/9 118/25/4
f 112/24/4 14/23/9 47/80/9 119/79/4
f 20/22/6 43/60/6 47/76/6 14/23/6
f 94/88/6 99/69/6 45/62/6 24/61/6
f 16/89/2 41/65/2 44/68/2 23/90/2
f 29/63/4 43/60/15 45/62/15 32/64/4
f 96/72/5 100/41/5 48/29/5 30/73/5
f 30/73/5 48/29/5 42/32/5 27/77/5
f 116/84/2 26/66/2 41/65/2 120/91/2
f 128/92/18 79/93/18 50/94/7 121/18/7
f 91/95/19 52/96/20 59/97/20 92/98/19
f 91/95/5 74/43/5 41/99/10
f 106/100/21 49/101/14 57/102/13 108/103/22
f 22/58/2 12/57/2 50/94/7 58/104/7
f 77/105/5 15/106/5 53/107/5 80/108/5
f 16/89/2 23/90/2 59/97/20 52/96/20
f 113/19/23 19/30/23 54/109/24 123/20/25
f 24/61/16 20/22/16 56/110/26 60/111/26
f 94/88/6 24/61/6 60/111/6 103/112/6
f 93/87/5 17/85/5 55/113/5 101/114/5
f 114/49/23 18/48/11 49/101/14 124/115/27
f 82/116/5 62/117/5 73/118/5 90/119/5
f 83/120/6 64/121/6 76/122/6 92/98/6
f 104/42/5 61/123/5 72/124/5 107/125/5
f 79/93/28 71/126/28 75/127/28 81/128/28
f 16/89/2 52/96/2 41/129/2
f 102/44/29 74/43/29 76/122/29 103/112/29
f 129/130/30 106/100/30 71/126/30 126/131/30
f 85/132/5 89/133/5 70/134/5 66/135/5
f 83/120/6 88/136/6 69/137/6 64/121/6
f 84/138/6 87/139/6 68/140/6 65/141/6
f 82/116/5 86/142/5 67/143/5 62/117/5
f 86/142/5 85/132/5 66/135/5 67/143/5
f 88/136/6 84/138/6 65/141/6 69/137/6
f 87/139/6 78/37/6 63/144/6 68/140/6
f 89/133/5 77/105/5 61/123/5 70/134/5
f 105/51/6 63/144/6 75/145/6 108/146/6
f 46/147/5 15/106/5 77/105/5 89/133/5
f 39/148/6 22/38/6 78/37/6 87/139/6
f 44/149/6 31/150/6 84/138/6 88/136/6
f 33/151/5 25/152/5 85/132/5 86/142/5
f 11/153/5 33/151/5 86/142/5 82/116/5
f 31/150/6 39/148/6 87/139/6 84/138/6
f 23/90/6 44/149/6 88/136/6 83/120/6
f 25/152/5 46/147/5 89/133/5 85/132/5
f 50/94/7 79/93/18 81/128/18 58/104/7
f 23/90/6 83/120/6 92/98/6 59/97/6
f 11/153/5 82/116/5 90/119/5 51/154/5
f 61/123/5 77/105/5 80/108/5 72/124/5
f 74/43/31 91/95/31 92/98/31 76/122/31
f 126/131/28 71/126/28 79/93/28 128/92/28
f 63/144/6 78/37/6 81/40/6 75/145/6
f 21/52/6 105/51/6 108/146/6 57/54/6
f 124/115/27 49/101/14 106/100/21 129/130/32
f 56/110/26 102/44/33 103/112/33 60/111/26
f 19/30/5 104/42/5 107/125/5 54/109/5
f 62/117/5 93/87/5 101/114/5 73/118/5
f 64/121/6 94/88/6 103/112/6 76/122/6
f 71/126/30 106/100/30 108/103/30 75/127/30
f 125/155/6 127/156/6 120/157/34
f 66/135/5 70/134/5 100/41/5 96/72/5
f 64/121/6 69/137/6 99/69/6 94/88/6
f 65/141/6 68/140/6 98/50/6 95/70/6
f 62/117/5 67/143/5 97/71/5 93/87/5
f 67/143/5 66/135/5 96/72/5 97/71/5
f 69/137/6 65/141/6 95/70/6 99/69/6
f 68/140/6 63/144/6 105/51/6 98/50/6
f 70/134/5 61/123/5 104/42/5 100/41/5
f 72/124/29 125/155/29 130/158/29 107/125/29
f 55/159/27 124/115/27 129/130/32 101/160/35
f 73/161/28 126/131/28 128/92/28 90/162/28
f 53/107/20 122/163/20 127/156/19 80/108/19
f 101/160/30 129/130/30 126/131/30 73/161/30
f 80/108/31 127/156/31 125/155/31 72/124/31
f 17/164/23 114/49/23 124/115/27 55/159/27
f 56/110/36 20/22/36 131/165/36
f 107/125/37 130/158/37 123/20/25 54/109/24
f 90/162/18 128/92/18 121/18/7 51/17/7
f 25/166/2 116/84/2 120/91/2 46/167/2
f 13/31/38 112/24/4 119/79/4 42/168/39
f 27/169/39 115/82/4 118/25/4 37/170/39
f 11/16/2 110/15/2 117/83/2 33/171/2
f 33/171/2 117/83/2 116/84/2 25/166/2
f 42/168/39 119/79/4 115/82/4 27/169/39
f 9/172/1 109/46/1 114/49/1 17/164/1
f 15/106/2 111/173/2 122/163/20 53/107/20
f 37/170/39 118/25/4 109/28/4 9/174/38
f 19/30/3 113/19/3 112/24/3 13/31/3
f 46/167/2 120/91/2 111/173/2 15/106/2
f 12/57/2 110/15/2 121/18/7 50/94/7
f 120/175/40 41/176/40 131/165/40 132/21/40
f 130/158/34 125/155/6 120/175/34
f 123/20/41 130/158/34 120/175/34 132/21/41
f 52/96/5 91/95/5 41/129/10
f 122/163/4 111/173/4 120/177/4
f 127/156/6 122/163/6 120/178/34
f 102/44/10 56/110/42 131/165/42 41/176/10
f 20/22/43 113/19/43 132/21/43 131/165/43
f 141/179/1 142/180/1 136/181/1 135/182/1
f 135/182/2 136/181/2 140/183/2 139/184/2
f 137/185/4 138/186/4 134/187/4 133/188/4
f 135/189/5 139/184/5 146/190/5 145/191/5 141/192/5
f 139/184/2 140/183/2 154/193/44 156/194/44
f 144/195/3 148/196/3 138/186/3 137/185/3
f 143/197/5 146/190/5 139/184/5 156/194/5 158/198/5 157/199/5 159/200/5 161/201/5 160/202/5
f 133/203/1 134/204/1 142/180/1 141/179/1
f 140/183/6 150/205/6 149/206/6 162/207/6 164/208/6 163/209/6 153/210/6 155/211/6 154/193/6
f 140/183/6 136/212/6 142/213/6 151/214/6 150/205/6
f 141/192/5 145/191/5 144/195/5 137/185/5 133/215/5
f 148/196/6 151/214/6 142/213/6 134/216/6 138/186/6
f 143/197/5 147/217/5 144/218/5 145/191/5 146/190/5
f 148/196/6 152/219/6 149/206/6 150/205/6 151/214/6
f 148/196/45 144/195/45 147/217/45 152/220/45
f 152/220/46 147/217/46 143/197/47 149/206/47
f 149/206/47 143/197/47 160/202/48 162/207/48
f 153/210/49 157/199/49 158/198/50 155/211/50
f 155/211/50 158/198/50 156/194/44 154/193/44
f 162/207/48 160/202/48 161/201/51 164/208/51
f 164/208/51 161/201/51 159/200/52 163/209/52
f 157/199/3 153/210/3 163/209/3 159/200/3
