# Blender v3.0.0 OBJ File: 'M4A1.blend'
# www.blender.org
mtllib Slide.mtl
o Handle.009_Cube.011
v -0.000000 0.076334 -0.013946
v -0.000000 0.076334 -0.163235
v -0.005167 0.075825 -0.013946
v -0.005167 0.075825 -0.163235
v -0.010136 0.074318 -0.013946
v -0.010136 0.074318 -0.163235
v -0.014715 0.071870 -0.013946
v -0.014715 0.071870 -0.163235
v -0.018728 0.068576 -0.013946
v -0.018728 0.068576 -0.163235
v -0.022022 0.064563 -0.013946
v -0.022022 0.064563 -0.163235
v -0.024469 0.059984 -0.013946
v -0.024469 0.059984 -0.163235
v -0.025977 0.055015 -0.013946
v -0.025977 0.055015 -0.163235
v -0.026486 0.049848 -0.013946
v -0.026486 0.049848 -0.163235
v -0.025977 0.044681 -0.013946
v -0.025977 0.044681 -0.163235
v -0.024469 0.039713 -0.013946
v -0.024469 0.039713 -0.163235
v -0.022022 0.035134 -0.013946
v -0.022022 0.035134 -0.163235
v -0.018728 0.031120 -0.013946
v -0.018728 0.031120 -0.163235
v -0.014715 0.027826 -0.013946
v -0.014715 0.027826 -0.163235
v -0.010136 0.025379 -0.013946
v -0.010136 0.025379 -0.163235
v -0.005167 0.023871 -0.013946
v -0.005167 0.023872 -0.163235
v 0.000000 0.023363 -0.013946
v -0.000000 0.023363 -0.163235
v 0.005167 0.023871 -0.013946
v 0.005167 0.023872 -0.163235
v 0.010136 0.025379 -0.013946
v 0.010136 0.025379 -0.163235
v 0.014715 0.027826 -0.013946
v 0.014715 0.027826 -0.163235
v 0.018728 0.031120 -0.013946
v 0.018728 0.031120 -0.163235
v 0.022022 0.035134 -0.013946
v 0.022022 0.035134 -0.163235
v 0.024469 0.039713 -0.013946
v 0.024469 0.039713 -0.163235
v 0.025977 0.044681 -0.013946
v 0.025977 0.044681 -0.163235
v 0.018728 0.068576 -0.013946
v 0.018728 0.068576 -0.163235
v 0.014715 0.071870 -0.013946
v 0.014715 0.071870 -0.163235
v 0.010136 0.074318 -0.013946
v 0.010136 0.074318 -0.163235
v 0.005167 0.075825 -0.013946
v 0.005167 0.075825 -0.163235
v -0.000000 0.076334 -0.085369
v -0.005167 0.075825 -0.085369
v -0.010136 0.074318 -0.085369
v -0.014715 0.071870 -0.085369
v -0.018728 0.068576 -0.085369
v -0.022022 0.064563 -0.085369
v -0.024469 0.059984 -0.085369
v -0.025977 0.055015 -0.085369
v -0.026486 0.049848 -0.085369
v -0.025977 0.044681 -0.085369
v -0.024469 0.039713 -0.085369
v -0.022022 0.035134 -0.085369
v -0.018728 0.031120 -0.085369
v -0.014715 0.027826 -0.085369
v -0.010136 0.025379 -0.085369
v -0.005167 0.023872 -0.085369
v -0.000000 0.023363 -0.085369
v 0.005167 0.023872 -0.085369
v 0.010136 0.025379 -0.085369
v 0.014715 0.027826 -0.085369
v 0.018728 0.031120 -0.085369
v 0.022022 0.035134 -0.085369
v 0.024469 0.039713 -0.085369
v 0.025977 0.044681 -0.085369
v 0.018728 0.068576 -0.085369
v 0.014715 0.071870 -0.085369
v 0.010136 0.074318 -0.085369
v 0.005167 0.075825 -0.085369
v -0.000000 0.076334 -0.121080
v -0.005167 0.075825 -0.121080
v -0.010136 0.074318 -0.121080
v -0.014715 0.071870 -0.121080
v -0.018728 0.068576 -0.121080
v -0.022022 0.064563 -0.121080
v -0.024469 0.059984 -0.121080
v -0.025977 0.055015 -0.121080
v -0.026486 0.049848 -0.121080
v -0.025977 0.044681 -0.121080
v -0.024469 0.039713 -0.121080
v -0.022022 0.035134 -0.121080
v -0.018728 0.031120 -0.121080
v -0.014715 0.027826 -0.121080
v -0.010136 0.025379 -0.121080
v -0.005167 0.023872 -0.121080
v -0.000000 0.023363 -0.121080
v 0.005167 0.023872 -0.121080
v 0.010136 0.025379 -0.121080
v 0.014715 0.027826 -0.121080
v 0.018728 0.031120 -0.121080
v 0.022022 0.035134 -0.121080
v 0.024469 0.039713 -0.121080
v 0.025977 0.044681 -0.121080
v 0.018728 0.068576 -0.121080
v 0.014715 0.071870 -0.121080
v 0.010136 0.074318 -0.121080
v 0.005167 0.075825 -0.121080
v -0.004436 0.072150 -0.115825
v -0.004436 0.072150 -0.090624
v -0.008702 0.070856 -0.115825
v -0.008702 0.070856 -0.090624
v -0.012633 0.068755 -0.115825
v -0.012633 0.068755 -0.090624
v -0.016079 0.065927 -0.115825
v -0.016079 0.065927 -0.090624
v -0.018907 0.062481 -0.115825
v -0.018907 0.062481 -0.090624
v -0.021008 0.058550 -0.115825
v -0.021008 0.058550 -0.090624
v -0.022302 0.054284 -0.115825
v -0.022302 0.054284 -0.090624
v -0.022739 0.049848 -0.115825
v -0.022739 0.049848 -0.090624
v -0.022302 0.045412 -0.115825
v -0.022302 0.045412 -0.090624
v -0.021008 0.041146 -0.115825
v -0.021008 0.041146 -0.090624
v -0.018907 0.037215 -0.115825
v -0.018907 0.037215 -0.090624
v -0.016079 0.033769 -0.115825
v -0.016079 0.033769 -0.090624
v -0.012633 0.030941 -0.115825
v -0.012633 0.030941 -0.090624
v -0.008702 0.028840 -0.115825
v -0.008702 0.028840 -0.090624
v -0.004436 0.027546 -0.115825
v -0.004436 0.027546 -0.090624
v -0.000000 0.027109 -0.115825
v -0.000000 0.027109 -0.090624
v 0.004436 0.027546 -0.115825
v 0.004436 0.027546 -0.090624
v 0.008702 0.028840 -0.115825
v 0.008702 0.028840 -0.090624
v 0.012633 0.030941 -0.115825
v 0.012633 0.030941 -0.090624
v 0.016079 0.033769 -0.115825
v 0.016079 0.033769 -0.090624
v 0.018907 0.037215 -0.115825
v 0.018907 0.037215 -0.090624
v 0.021008 0.041146 -0.115825
v 0.021008 0.041146 -0.090624
v 0.022302 0.045412 -0.115825
v 0.022302 0.045412 -0.090624
v 0.012633 0.068755 -0.115825
v 0.012633 0.068755 -0.090624
v 0.008702 0.070856 -0.115825
v 0.008702 0.070856 -0.090624
v 0.004436 0.072150 -0.115825
v 0.004436 0.072150 -0.090624
v -0.000000 0.072587 -0.090624
v -0.000000 0.072587 -0.115825
v 0.023825 0.059402 -0.013946
v 0.023825 0.059402 -0.163235
v 0.023825 0.059402 -0.085369
v 0.023825 0.059402 -0.121080
v 0.020774 0.056731 -0.090624
v 0.020774 0.056731 -0.115825
vt 1.000000 0.875000
vt 1.000000 1.000000
vt 0.968750 1.000000
vt 0.968750 0.875000
vt 0.937500 1.000000
vt 0.937500 0.875000
vt 0.906250 1.000000
vt 0.906250 0.875000
vt 0.875000 1.000000
vt 0.875000 0.875000
vt 0.843750 1.000000
vt 0.843750 0.875000
vt 0.812500 1.000000
vt 0.812500 0.875000
vt 0.781250 1.000000
vt 0.781250 0.875000
vt 0.750000 1.000000
vt 0.750000 0.875000
vt 0.718750 1.000000
vt 0.718750 0.875000
vt 0.687500 1.000000
vt 0.687500 0.875000
vt 0.656250 1.000000
vt 0.656250 0.875000
vt 0.625000 1.000000
vt 0.625000 0.875000
vt 0.593750 1.000000
vt 0.593750 0.875000
vt 0.562500 1.000000
vt 0.562500 0.875000
vt 0.531250 1.000000
vt 0.531250 0.875000
vt 0.500000 1.000000
vt 0.500000 0.875000
vt 0.468750 1.000000
vt 0.468750 0.875000
vt 0.437500 1.000000
vt 0.437500 0.875000
vt 0.406250 1.000000
vt 0.406250 0.875000
vt 0.375000 1.000000
vt 0.375000 0.875000
vt 0.343750 1.000000
vt 0.343750 0.875000
vt 0.312500 1.000000
vt 0.312500 0.875000
vt 0.281250 1.000000
vt 0.281250 0.875000
vt 0.265625 0.875000
vt 0.265625 1.000000
vt 0.250000 1.000000
vt 0.250000 0.875000
vt 0.125000 0.875000
vt 0.125000 1.000000
vt 0.093750 1.000000
vt 0.093750 0.875000
vt 0.062500 1.000000
vt 0.062500 0.875000
vt 0.031250 1.000000
vt 0.031250 0.875000
vt 0.000000 1.000000
vt 0.000000 0.875000
vt 0.750000 0.490000
vt 0.796822 0.485388
vt 0.841844 0.471731
vt 0.883337 0.449553
vt 0.919706 0.419706
vt 0.949553 0.383337
vt 0.971731 0.341844
vt 0.985388 0.296822
vt 0.990000 0.250000
vt 0.985388 0.203178
vt 0.971731 0.158156
vt 0.949553 0.116663
vt 0.919706 0.080294
vt 0.883337 0.050447
vt 0.841844 0.028269
vt 0.796822 0.014612
vt 0.750000 0.010000
vt 0.703178 0.014612
vt 0.658156 0.028269
vt 0.616663 0.050447
vt 0.580294 0.080294
vt 0.550447 0.116663
vt 0.528269 0.158156
vt 0.514612 0.203178
vt 0.547453 0.311442
vt 0.580294 0.419706
vt 0.616663 0.449553
vt 0.658156 0.471731
vt 0.703178 0.485388
vt 0.031250 0.500000
vt 0.031250 0.750000
vt 0.000000 0.750000
vt 0.000000 0.500000
vt 0.062500 0.500000
vt 0.062500 0.750000
vt 0.093750 0.500000
vt 0.093750 0.750000
vt 0.125000 0.500000
vt 0.125000 0.750000
vt 0.265625 0.500000
vt 0.265625 0.750000
vt 0.250000 0.750000
vt 0.250000 0.500000
vt 0.312500 0.500000
vt 0.312500 0.750000
vt 0.281250 0.750000
vt 0.281250 0.500000
vt 0.343750 0.500000
vt 0.343750 0.750000
vt 0.375000 0.500000
vt 0.375000 0.750000
vt 0.406250 0.500000
vt 0.406250 0.750000
vt 0.437500 0.500000
vt 0.437500 0.750000
vt 0.468750 0.500000
vt 0.468750 0.750000
vt 0.500000 0.500000
vt 0.500000 0.750000
vt 0.531250 0.500000
vt 0.531250 0.750000
vt 0.562500 0.500000
vt 0.562500 0.750000
vt 0.593750 0.500000
vt 0.593750 0.750000
vt 0.625000 0.500000
vt 0.625000 0.750000
vt 0.656250 0.500000
vt 0.656250 0.750000
vt 0.687500 0.500000
vt 0.687500 0.750000
vt 0.718750 0.500000
vt 0.718750 0.750000
vt 0.750000 0.500000
vt 0.750000 0.750000
vt 0.781250 0.500000
vt 0.781250 0.750000
vt 0.812500 0.500000
vt 0.812500 0.750000
vt 0.843750 0.500000
vt 0.843750 0.750000
vt 0.875000 0.500000
vt 0.875000 0.750000
vt 0.906250 0.500000
vt 0.906250 0.750000
vt 0.937500 0.500000
vt 0.937500 0.750000
vt 0.968750 0.500000
vt 0.968750 0.750000
vt 1.000000 0.500000
vt 1.000000 0.750000
vt 0.031250 0.833333
vt 0.000000 0.833333
vt 0.062500 0.833333
vt 0.093750 0.833333
vt 0.125000 0.833333
vt 0.265625 0.833333
vt 0.250000 0.833333
vt 0.312500 0.833333
vt 0.281250 0.833333
vt 0.343750 0.833333
vt 0.375000 0.833333
vt 0.406250 0.833333
vt 0.437500 0.833333
vt 0.468750 0.833333
vt 0.500000 0.833333
vt 0.531250 0.833333
vt 0.562500 0.833333
vt 0.593750 0.833333
vt 0.625000 0.833333
vt 0.656250 0.833333
vt 0.687500 0.833333
vt 0.718750 0.833333
vt 0.750000 0.833333
vt 0.781250 0.833333
vt 0.812500 0.833333
vt 0.843750 0.833333
vt 0.875000 0.833333
vt 0.906250 0.833333
vt 0.937500 0.833333
vt 0.968750 0.833333
vt 1.000000 0.833333
vt 1.000000 0.791667
vt 0.968750 0.791667
vt 0.937500 0.791667
vt 0.906250 0.791667
vt 0.875000 0.791667
vt 0.843750 0.791667
vt 0.812500 0.791667
vt 0.781250 0.791667
vt 0.750000 0.791667
vt 0.718750 0.791667
vt 0.687500 0.791667
vt 0.656250 0.791667
vt 0.625000 0.791667
vt 0.593750 0.791667
vt 0.562500 0.791667
vt 0.531250 0.791667
vt 0.500000 0.791667
vt 0.468750 0.791667
vt 0.437500 0.791667
vt 0.406250 0.791667
vt 0.375000 0.791667
vt 0.343750 0.791667
vt 0.312500 0.791667
vt 0.281250 0.791667
vt 0.265625 0.791667
vt 0.250000 0.791667
vt 0.093750 0.791667
vt 0.062500 0.791667
vt 0.031250 0.791667
vt 0.000000 0.791667
vt 0.296822 0.485388
vt 0.250000 0.490000
vt 0.203178 0.485388
vt 0.158156 0.471731
vt 0.116663 0.449553
vt 0.010000 0.250000
vt 0.012306 0.226589
vt 0.014612 0.203178
vt 0.028269 0.158156
vt 0.050447 0.116663
vt 0.080294 0.080294
vt 0.116663 0.050447
vt 0.158156 0.028269
vt 0.203178 0.014612
vt 0.250000 0.010000
vt 0.296822 0.014612
vt 0.341844 0.028269
vt 0.383337 0.050447
vt 0.419706 0.080294
vt 0.449553 0.116663
vt 0.471731 0.158156
vt 0.485388 0.203178
vt 0.490000 0.250000
vt 0.485388 0.296822
vt 0.471731 0.341844
vt 0.449553 0.383337
vt 0.419706 0.419706
vt 0.383337 0.449553
vt 0.341844 0.471731
vn 0.0000 1.0000 0.0000
vn -0.1951 0.9808 0.0000
vn -0.3827 0.9239 0.0000
vn -0.5556 0.8315 0.0000
vn -0.7071 0.7071 0.0000
vn -0.8315 0.5556 0.0000
vn -0.9239 0.3827 0.0000
vn -0.9808 0.1951 0.0000
vn -1.0000 -0.0000 0.0000
vn -0.9808 -0.1951 0.0000
vn -0.9239 -0.3827 0.0000
vn -0.8315 -0.5556 0.0000
vn -0.7071 -0.7071 -0.0000
vn -0.5556 -0.8315 -0.0000
vn -0.3827 -0.9239 -0.0000
vn -0.1951 -0.9808 -0.0000
vn 0.0000 -1.0000 -0.0000
vn 0.1951 -0.9808 -0.0000
vn 0.3827 -0.9239 -0.0000
vn 0.5556 -0.8315 -0.0000
vn 0.7071 -0.7071 -0.0000
vn 0.8315 -0.5556 -0.0000
vn 0.9239 -0.3827 -0.0000
vn 0.9972 -0.0746 -0.0000
vn 0.9473 0.3204 -0.0000
vn 0.7678 0.6406 0.0000
vn 0.5556 0.8315 0.0000
vn 0.3827 0.9239 0.0000
vn 0.1951 0.9808 0.0000
vn 0.0000 -0.0000 1.0000
vn 0.1589 0.7986 0.5805
vn -0.0000 0.8143 0.5805
vn 0.3116 0.7523 0.5805
vn 0.5033 0.6087 0.6133
vn 0.4524 0.6770 0.5805
vn 0.6069 0.4783 0.6347
vn 0.7575 0.2452 0.6051
vn 0.7308 0.2859 0.6198
vn 0.7523 -0.3116 0.5805
vn 0.8156 -0.0696 0.5745
vn 0.8176 -0.0539 0.5732
vn 0.6770 -0.4524 0.5805
vn 0.5758 -0.5758 0.5805
vn 0.4524 -0.6770 0.5805
vn 0.3116 -0.7523 0.5805
vn 0.1589 -0.7986 0.5805
vn -0.0000 -0.8143 0.5805
vn -0.1589 -0.7986 0.5805
vn -0.3116 -0.7523 0.5805
vn -0.4524 -0.6770 0.5805
vn -0.5758 -0.5758 0.5805
vn -0.6770 -0.4524 0.5805
vn -0.7523 -0.3116 0.5805
vn -0.7986 -0.1589 0.5805
vn -0.8143 -0.0000 0.5805
vn -0.7986 0.1589 0.5805
vn -0.7523 0.3116 0.5805
vn -0.6770 0.4524 0.5805
vn -0.5758 0.5758 0.5805
vn -0.4524 0.6770 0.5805
vn -0.3116 0.7523 0.5805
vn -0.1589 0.7986 0.5805
vn 0.0000 0.8143 -0.5805
vn -0.1589 0.7986 -0.5805
vn -0.3116 0.7523 -0.5805
vn -0.4524 0.6770 -0.5805
vn -0.5758 0.5758 -0.5805
vn -0.6770 0.4524 -0.5805
vn -0.7523 0.3116 -0.5805
vn -0.7986 0.1589 -0.5805
vn -0.8143 -0.0000 -0.5805
vn -0.7986 -0.1589 -0.5805
vn -0.7523 -0.3116 -0.5805
vn -0.6770 -0.4524 -0.5805
vn -0.5758 -0.5758 -0.5805
vn -0.4524 -0.6770 -0.5805
vn -0.3116 -0.7523 -0.5805
vn -0.1589 -0.7986 -0.5805
vn 0.0000 -0.8143 -0.5805
vn 0.1589 -0.7986 -0.5805
vn 0.3116 -0.7523 -0.5805
vn 0.4524 -0.6770 -0.5805
vn 0.5758 -0.5758 -0.5805
vn 0.6770 -0.4524 -0.5805
vn 0.7523 -0.3116 -0.5805
vn 0.8176 -0.0539 -0.5732
vn 0.8156 -0.0696 -0.5745
vn 0.9968 -0.0801 -0.0000
vn 0.7308 0.2859 -0.6198
vn 0.7575 0.2452 -0.6051
vn 0.5033 0.6087 -0.6133
vn 0.6069 0.4783 -0.6347
vn 0.9342 0.3566 -0.0000
vn 0.6693 0.7430 -0.0000
vn 0.4524 0.6770 -0.5805
vn 0.3116 0.7523 -0.5805
vn 0.1589 0.7986 -0.5805
vn -0.0000 0.0000 -1.0000
usemtl M4A1
s 1
f 85/1/1 2/2/1 4/3/2 86/4/2
f 86/4/2 4/3/2 6/5/3 87/6/3
f 87/6/3 6/5/3 8/7/4 88/8/4
f 88/8/4 8/7/4 10/9/5 89/10/5
f 89/10/5 10/9/5 12/11/6 90/12/6
f 90/12/6 12/11/6 14/13/7 91/14/7
f 91/14/7 14/13/7 16/15/8 92/16/8
f 92/16/8 16/15/8 18/17/9 93/18/9
f 93/18/9 18/17/9 20/19/10 94/20/10
f 94/20/10 20/19/10 22/21/11 95/22/11
f 95/22/11 22/21/11 24/23/12 96/24/12
f 96/24/12 24/23/12 26/25/13 97/26/13
f 97/26/13 26/25/13 28/27/14 98/28/14
f 98/28/14 28/27/14 30/29/15 99/30/15
f 99/30/15 30/29/15 32/31/16 100/32/16
f 100/32/16 32/31/16 34/33/17 101/34/17
f 101/34/17 34/33/17 36/35/18 102/36/18
f 102/36/18 36/35/18 38/37/19 103/38/19
f 103/38/19 38/37/19 40/39/20 104/40/20
f 104/40/20 40/39/20 42/41/21 105/42/21
f 105/42/21 42/41/21 44/43/22 106/44/22
f 106/44/22 44/43/22 46/45/23 107/46/23
f 107/46/23 46/45/23 48/47/24 108/48/24
f 170/49/25 168/50/25 50/51/26 109/52/26
f 109/53/26 50/54/26 52/55/27 110/56/27
f 110/56/27 52/55/27 54/57/28 111/58/28
f 111/58/28 54/57/28 56/59/29 112/60/29
f 112/60/29 56/59/29 2/61/1 85/62/1
f 1/63/30 3/64/30 5/65/30 7/66/30 9/67/30 11/68/30 13/69/30 15/70/30 17/71/30 19/72/30 21/73/30 23/74/30 25/75/30 27/76/30 29/77/30 31/78/30 33/79/30 35/80/30 37/81/30 39/82/30 41/83/30 43/84/30 45/85/30 47/86/30 167/87/30 49/88/30 51/89/30 53/90/30 55/91/30
f 55/92/29 84/93/29 57/94/1 1/95/1
f 53/96/28 83/97/28 84/93/29 55/92/29
f 51/98/27 82/99/27 83/97/28 53/96/28
f 49/100/26 81/101/26 82/99/27 51/98/27
f 167/102/25 169/103/25 81/104/26 49/105/26
f 45/106/23 79/107/23 80/108/24 47/109/24
f 43/110/22 78/111/22 79/107/23 45/106/23
f 41/112/21 77/113/21 78/111/22 43/110/22
f 39/114/20 76/115/20 77/113/21 41/112/21
f 37/116/19 75/117/19 76/115/20 39/114/20
f 35/118/18 74/119/18 75/117/19 37/116/19
f 33/120/17 73/121/17 74/119/18 35/118/18
f 31/122/16 72/123/16 73/121/17 33/120/17
f 29/124/15 71/125/15 72/123/16 31/122/16
f 27/126/14 70/127/14 71/125/15 29/124/15
f 25/128/13 69/129/13 70/127/14 27/126/14
f 23/130/12 68/131/12 69/129/13 25/128/13
f 21/132/11 67/133/11 68/131/12 23/130/12
f 19/134/10 66/135/10 67/133/11 21/132/11
f 17/136/9 65/137/9 66/135/10 19/134/10
f 15/138/8 64/139/8 65/137/9 17/136/9
f 13/140/7 63/141/7 64/139/8 15/138/8
f 11/142/6 62/143/6 63/141/7 13/140/7
f 9/144/5 61/145/5 62/143/6 11/142/6
f 7/146/4 60/147/4 61/145/5 9/144/5
f 5/148/3 59/149/3 60/147/4 7/146/4
f 3/150/2 58/151/2 59/149/3 5/148/3
f 1/152/1 57/153/1 58/151/2 3/150/2
f 163/154/31 112/60/31 85/62/32 166/155/32
f 161/156/33 111/58/33 112/60/31 163/154/31
f 159/157/34 110/56/35 111/58/33 161/156/33
f 159/158/34 109/53/36 110/56/35
f 172/159/37 170/49/38 109/52/36 159/160/34
f 155/161/39 107/46/39 108/48/40 157/162/41
f 153/163/42 106/44/42 107/46/39 155/161/39
f 151/164/43 105/42/43 106/44/42 153/163/42
f 149/165/44 104/40/44 105/42/43 151/164/43
f 147/166/45 103/38/45 104/40/44 149/165/44
f 145/167/46 102/36/46 103/38/45 147/166/45
f 143/168/47 101/34/47 102/36/46 145/167/46
f 141/169/48 100/32/48 101/34/47 143/168/47
f 139/170/49 99/30/49 100/32/48 141/169/48
f 137/171/50 98/28/50 99/30/49 139/170/49
f 135/172/51 97/26/51 98/28/50 137/171/50
f 133/173/52 96/24/52 97/26/51 135/172/51
f 131/174/53 95/22/53 96/24/52 133/173/52
f 129/175/54 94/20/54 95/22/53 131/174/53
f 127/176/55 93/18/55 94/20/54 129/175/54
f 125/177/56 92/16/56 93/18/55 127/176/55
f 123/178/57 91/14/57 92/16/56 125/177/56
f 121/179/58 90/12/58 91/14/57 123/178/57
f 119/180/59 89/10/59 90/12/58 121/179/58
f 117/181/60 88/8/60 89/10/59 119/180/59
f 115/182/61 87/6/61 88/8/60 117/181/60
f 113/183/62 86/4/62 87/6/61 115/182/61
f 166/184/32 85/1/32 86/4/62 113/183/62
f 57/153/63 165/185/63 114/186/64 58/151/64
f 165/185/1 166/184/1 113/183/2 114/186/2
f 58/151/64 114/186/64 116/187/65 59/149/65
f 114/186/2 113/183/2 115/182/3 116/187/3
f 59/149/65 116/187/65 118/188/66 60/147/66
f 116/187/3 115/182/3 117/181/4 118/188/4
f 60/147/66 118/188/66 120/189/67 61/145/67
f 118/188/4 117/181/4 119/180/5 120/189/5
f 61/145/67 120/189/67 122/190/68 62/143/68
f 120/189/5 119/180/5 121/179/6 122/190/6
f 62/143/68 122/190/68 124/191/69 63/141/69
f 122/190/6 121/179/6 123/178/7 124/191/7
f 63/141/69 124/191/69 126/192/70 64/139/70
f 124/191/7 123/178/7 125/177/8 126/192/8
f 64/139/70 126/192/70 128/193/71 65/137/71
f 126/192/8 125/177/8 127/176/9 128/193/9
f 65/137/71 128/193/71 130/194/72 66/135/72
f 128/193/9 127/176/9 129/175/10 130/194/10
f 66/135/72 130/194/72 132/195/73 67/133/73
f 130/194/10 129/175/10 131/174/11 132/195/11
f 67/133/73 132/195/73 134/196/74 68/131/74
f 132/195/11 131/174/11 133/173/12 134/196/12
f 68/131/74 134/196/74 136/197/75 69/129/75
f 134/196/12 133/173/12 135/172/13 136/197/13
f 69/129/75 136/197/75 138/198/76 70/127/76
f 136/197/13 135/172/13 137/171/14 138/198/14
f 70/127/76 138/198/76 140/199/77 71/125/77
f 138/198/14 137/171/14 139/170/15 140/199/15
f 71/125/77 140/199/77 142/200/78 72/123/78
f 140/199/15 139/170/15 141/169/16 142/200/16
f 72/123/78 142/200/78 144/201/79 73/121/79
f 142/200/16 141/169/16 143/168/17 144/201/17
f 73/121/79 144/201/79 146/202/80 74/119/80
f 144/201/17 143/168/17 145/167/18 146/202/18
f 74/119/80 146/202/80 148/203/81 75/117/81
f 146/202/18 145/167/18 147/166/19 148/203/19
f 75/117/81 148/203/81 150/204/82 76/115/82
f 148/203/19 147/166/19 149/165/20 150/204/20
f 76/115/82 150/204/82 152/205/83 77/113/83
f 150/204/20 149/165/20 151/164/21 152/205/21
f 77/113/83 152/205/83 154/206/84 78/111/84
f 152/205/21 151/164/21 153/163/22 154/206/22
f 78/111/84 154/206/84 156/207/85 79/107/85
f 154/206/22 153/163/22 155/161/23 156/207/23
f 79/107/85 156/207/85 158/208/86 80/108/87
f 156/207/23 155/161/23 157/162/88 158/208/88
f 169/103/89 171/209/90 160/210/91 81/104/92
f 171/209/93 172/159/93 159/160/94 160/210/94
f 81/101/92 160/211/91 82/99/95
f 82/99/95 160/211/91 162/212/96 83/97/96
f 160/211/94 159/157/94 161/156/28 162/212/28
f 83/97/96 162/212/96 164/213/97 84/93/97
f 162/212/28 161/156/28 163/154/29 164/213/29
f 84/93/97 164/213/97 165/214/63 57/94/63
f 164/213/29 163/154/29 166/155/1 165/214/1
f 4/215/98 2/216/98 56/217/98 54/218/98 52/219/98 50/220/98 168/221/98 48/222/98 46/223/98 44/224/98 42/225/98 40/226/98 38/227/98 36/228/98 34/229/98 32/230/98 30/231/98 28/232/98 26/233/98 24/234/98 22/235/98 20/236/98 18/237/98 16/238/98 14/239/98 12/240/98 10/241/98 8/242/98 6/243/98
f 158/208/88 157/162/88 172/159/93 171/209/93
f 80/108/87 158/208/86 171/209/90 169/103/89
f 157/162/41 108/48/40 170/49/38 172/159/37
f 47/109/24 80/108/24 169/103/25 167/102/25
f 108/48/24 48/47/24 168/50/25 170/49/25
