# Blender 4.4.3
# www.blender.org
mtllib Barrel3.mtl
o Cube.032
v -0.000655 1.576097 0.338771
v 0.118631 1.526687 0.338771
v 0.168041 1.407400 0.338771
v 0.118631 1.288113 0.338771
v -0.000655 1.238703 0.338771
v -0.119941 1.288113 0.338771
v -0.169351 1.407400 0.338771
v -0.119941 1.526687 0.338771
v 0.090379 1.498434 2.206150
v -0.091689 1.498434 2.206150
v -0.091689 1.316366 2.206150
v 0.090379 1.316366 2.206150
v -0.129396 1.407400 2.206150
v 0.128086 1.407400 2.206150
v -0.000655 1.536142 2.206150
v -0.000655 1.278658 2.206150
v -0.000655 1.536142 0.338771
v 0.128086 1.407400 0.338771
v -0.000655 1.278658 0.338771
v -0.129396 1.407400 0.338771
v 0.090379 1.498434 0.338771
v -0.091689 1.316366 0.338771
v -0.091689 1.498434 0.338771
v 0.090379 1.316366 0.338771
v -0.000655 1.555812 2.206150
v -0.000655 1.576097 2.188213
v 0.104288 1.512343 2.206150
v 0.118631 1.526687 2.188213
v 0.147757 1.407400 2.206150
v 0.168041 1.407400 2.188213
v 0.104288 1.302457 2.206150
v 0.118631 1.288113 2.188213
v -0.000655 1.258988 2.206150
v -0.000655 1.238703 2.188213
v -0.105598 1.302457 2.206150
v -0.119941 1.288113 2.188213
v -0.149067 1.407400 2.206150
v -0.169351 1.407400 2.188213
v -0.119941 1.526687 2.188213
v -0.105598 1.512343 2.206150
v 0.090379 1.498434 2.367070
v -0.000655 1.536142 2.367070
v -0.091689 1.498434 2.367070
v -0.129396 1.407400 2.367070
v 0.128086 1.407400 2.367070
v 0.090379 1.316366 2.367070
v -0.000655 1.278659 2.367070
v -0.091689 1.316366 2.367070
v -0.000655 1.555812 2.367070
v 0.104288 1.512343 2.367070
v 0.147757 1.407400 2.367070
v 0.104288 1.302457 2.367070
v -0.000655 1.258988 2.367070
v -0.105598 1.302457 2.367070
v -0.149067 1.407400 2.367070
v -0.105598 1.512343 2.367070
v -0.234306 1.367714 1.466742
v -0.192454 1.314519 1.466742
v -0.192454 1.553934 1.466742
v -0.234306 1.500739 1.466742
v -0.192454 1.314519 0.694714
v -0.234306 1.367714 0.694714
v -0.234306 1.500739 0.694714
v -0.192454 1.553934 0.694714
v 0.191136 1.314519 1.466742
v 0.232989 1.367714 1.466742
v 0.232989 1.500739 1.466742
v 0.191136 1.553934 1.466742
v 0.232989 1.367714 0.694714
v 0.191136 1.314519 0.694714
v 0.191136 1.553934 0.694714
v 0.232989 1.500739 0.694714
vn -0.3827 -0.9239 -0.0000
vn -0.0000 -1.0000 -0.0000
vn -0.9239 0.3827 -0.0000
vn 0.3827 -0.9239 -0.0000
vn -0.9239 -0.3827 -0.0000
vn 0.9239 0.3827 -0.0000
vn 0.9239 -0.3827 -0.0000
vn -0.0000 1.0000 -0.0000
vn 0.3827 0.9239 -0.0000
vn -0.0000 -0.0000 -1.0000
vn -0.3827 0.9239 -0.0000
vn -0.0000 0.6624 0.7491
vn 0.2646 0.6388 0.7224
vn 0.6388 0.2646 0.7224
vn 0.6388 -0.2646 0.7224
vn 0.2646 -0.6388 0.7224
vn -0.0000 -0.6624 0.7491
vn -0.2646 -0.6388 0.7224
vn -0.6388 -0.2646 0.7224
vn -0.2646 0.6388 0.7224
vn -0.6388 0.2646 0.7224
vn -0.0000 -0.0000 1.0000
vn 1.0000 -0.0000 -0.0000
vn -1.0000 -0.0000 -0.0000
vn -0.7859 -0.6183 -0.0000
vn -0.7859 0.6183 -0.0000
vn 0.7859 -0.6183 -0.0000
vn 0.7859 0.6183 -0.0000
vt 0.100700 0.100700
vt 0.250000 0.038858
vt 0.750000 0.973041
vt 0.625000 0.973041
vt 0.625000 0.500000
vt 0.625000 0.995714
vt 0.500000 0.995714
vt 0.500000 0.500000
vt 0.500000 0.995714
vt 0.375000 0.995714
vt 0.375000 0.500000
vt 0.375000 0.995714
vt 0.250000 0.995714
vt 0.250000 0.500000
vt 0.250000 0.995714
vt 0.125000 0.995714
vt 0.125000 0.500000
vt 0.875000 0.500000
vt 0.875000 0.995714
vt 0.750000 0.995714
vt 0.750000 0.500000
vt 0.750000 0.995714
vt 0.625000 0.995714
vt 1.000000 0.500000
vt 1.000000 0.995714
vt 0.875000 0.995714
vt 0.750000 0.066843
vt 0.750000 0.010000
vt 0.580294 0.080294
vt 0.510000 0.250000
vt 0.580294 0.419706
vt 0.750000 0.490000
vt 0.919706 0.419706
vt 0.990000 0.250000
vt 0.919706 0.080294
vt 0.879512 0.120488
vt 0.933157 0.250000
vt 0.879512 0.379512
vt 0.750000 0.433157
vt 0.620488 0.379511
vt 0.566843 0.250000
vt 0.620488 0.120488
vt 0.875000 0.820053
vt 0.875000 0.973041
vt 1.000000 0.973041
vt 1.000000 0.820053
vt 0.750000 0.820053
vt 0.625000 0.820053
vt 0.500000 0.973041
vt 0.500000 0.820053
vt 0.375000 0.973041
vt 0.375000 0.820053
vt 0.250000 0.820053
vt 0.250000 0.973041
vt 0.125000 0.820053
vt 0.125000 0.973041
vt 0.000000 0.820053
vt 0.000000 0.973041
vt 0.250000 0.461142
vt 0.399300 0.399300
vt 0.419706 0.419706
vt 0.250000 0.490000
vt 0.461142 0.250000
vt 0.490000 0.250000
vt 0.399300 0.100700
vt 0.419706 0.080294
vt 0.250000 0.010000
vt 0.080294 0.080294
vt 0.038858 0.250000
vt 0.010000 0.250000
vt 0.080294 0.419706
vt 0.100700 0.399300
vt 0.000000 0.995714
vt 0.000000 0.500000
vt 0.379512 0.379512
vt 0.120488 0.379512
vt 0.250000 0.433157
vt 0.433157 0.250000
vt 0.379512 0.120488
vt 0.250000 0.066843
vt 0.120488 0.120488
vt 0.066843 0.250000
vt 0.375000 0.805547
vt 0.430547 0.750000
vt 0.569453 0.750000
vt 0.625000 0.805547
vt 0.625000 0.944453
vt 0.569453 1.000000
vt 0.430547 1.000000
vt 0.375000 0.944453
vt 0.430547 0.500000
vt 0.569453 0.500000
vt 0.680547 0.500000
vt 0.819453 0.500000
vt 0.819453 0.750000
vt 0.680547 0.750000
vt 0.430547 0.000000
vt 0.569453 0.000000
vt 0.569453 0.250000
vt 0.430547 0.250000
vt 0.375000 0.305547
vt 0.625000 0.305547
vt 0.625000 0.444453
vt 0.375000 0.444453
vt 0.180547 0.500000
vt 0.180547 0.750000
vt 0.125000 0.750000
vt 0.625000 0.000000
vt 0.625000 0.250000
vt 0.319453 0.750000
vt 0.319453 0.500000
s 1
f 35/1/1 33/2/2 53/2/2 54/1/1
f 14/3/3 12/4/3 46/4/3 45/3/3
f 4/5/4 32/6/4 34/7/2 5/8/2
f 5/8/2 34/9/2 36/10/1 6/11/1
f 6/11/5 36/12/5 38/13/5 7/14/5
f 7/14/3 38/15/3 39/16/3 8/17/3
f 2/18/6 28/19/6 30/20/6 3/21/6
f 3/21/7 30/22/7 32/23/7 4/5/7
f 1/24/8 26/25/8 28/26/9 2/18/9
f 19/27/10 5/28/10 6/29/10 7/30/10 8/31/10 1/32/10 2/33/10 3/34/10 4/35/10 24/36/10 18/37/10 21/38/10 17/39/10 23/40/10 20/41/10 22/42/10
f 24/36/10 4/35/10 5/28/10 19/27/10
f 21/43/1 9/44/1 15/45/2 17/46/2
f 14/3/5 9/44/5 21/43/5 18/47/5
f 12/4/3 14/3/3 18/47/3 24/48/3
f 16/49/8 12/4/11 24/48/11 19/50/8
f 11/51/9 16/49/8 19/50/8 22/52/9
f 20/53/6 13/54/6 11/51/6 22/52/6
f 23/55/7 10/56/7 13/54/7 20/53/7
f 17/57/2 15/58/2 10/56/4 23/55/4
f 25/59/12 27/60/13 28/61/13 26/62/12
f 27/60/14 29/63/14 30/64/14 28/61/14
f 29/63/15 31/65/15 32/66/15 30/64/15
f 31/65/16 33/2/17 34/67/17 32/66/16
f 33/2/17 35/1/18 36/68/18 34/67/17
f 35/1/19 37/69/19 38/70/19 36/68/19
f 26/62/12 39/71/20 40/72/20 25/59/12
f 37/69/21 40/72/21 39/71/21 38/70/21
f 8/17/11 39/16/11 26/73/8 1/74/8
f 41/75/22 50/60/22 49/59/22 56/72/22 43/76/22 42/77/22
f 43/76/22 56/72/22 55/69/22 54/1/22 53/2/22 52/65/22 51/63/22 50/60/22 41/75/22 45/78/22 46/79/22 47/80/22 48/81/22 44/82/22
f 25/59/8 40/72/11 56/72/11 49/59/8
f 12/4/11 16/49/8 47/49/8 46/4/11
f 31/65/7 29/63/7 51/63/7 52/65/7
f 40/72/3 37/69/3 55/69/3 56/72/3
f 16/49/8 11/51/9 48/51/9 47/49/8
f 27/60/9 25/59/8 49/59/8 50/60/9
f 37/69/5 35/1/5 54/1/5 55/69/5
f 11/51/6 13/54/6 44/54/6 48/51/6
f 15/45/2 9/44/1 41/44/1 42/45/2
f 33/2/2 31/65/4 52/65/4 53/2/2
f 10/56/4 15/58/2 42/58/2 43/56/4
f 13/54/7 10/56/7 43/56/7 44/54/7
f 29/63/6 27/60/6 50/60/6 51/63/6
f 9/44/5 14/3/5 45/3/5 41/44/5
f 65/83/22 66/84/22 67/85/22 68/86/22 59/87/22 60/88/22 57/89/22 58/90/22
f 69/91/23 72/92/23 67/85/23 66/84/23
f 71/93/8 64/94/8 59/95/8 68/96/8
f 57/97/24 60/98/24 63/99/24 62/100/24
f 61/101/10 62/100/10 63/99/10 64/102/10 71/103/10 72/92/10 69/91/10 70/104/10
f 61/105/25 58/106/25 57/107/25 62/17/25
f 59/108/26 64/109/26 63/99/26 60/98/26
f 65/110/27 70/111/27 69/91/27 66/84/27
f 71/93/28 68/96/28 67/85/28 72/92/28
f 61/105/2 70/111/2 65/110/2 58/106/2
