# Blender 4.4.3
# www.blender.org
mtllib Handgrip.mtl
o Cube.002
v -0.259054 0.485050 -0.832324
v -0.259054 0.589576 -0.909758
v 0.257744 0.589576 -0.909758
v 0.257744 0.485050 -0.832324
v -0.259054 0.389441 -0.722741
v -0.259054 0.474090 -0.775297
v 0.257744 0.474090 -0.775297
v 0.257744 0.389441 -0.722741
v -0.197097 -1.549474 -1.229228
v -0.259054 -1.550348 -1.283541
v -0.259054 -1.270391 -1.244520
v -0.197097 -1.282103 -1.191960
v 0.257744 -1.270391 -1.244520
v 0.195788 -1.282103 -1.191960
v 0.257744 -1.550348 -1.283541
v 0.195788 -1.549474 -1.229228
v -0.259054 -1.563104 -2.076203
v -0.049568 -1.567524 -2.350892
v -0.197697 -1.566230 -2.270437
v 0.048259 -1.567524 -2.350892
v 0.257744 -1.563104 -2.076203
v 0.196387 -1.566230 -2.270437
v -0.259054 -1.412188 -2.253389
v -0.049568 -1.510690 -2.417619
v -0.197697 -1.481839 -2.369517
v 0.257744 -1.412188 -2.253389
v 0.048259 -1.510690 -2.417619
v 0.196387 -1.481839 -2.369517
v -0.259054 -1.061852 -2.254234
v -0.049568 -1.013935 -2.431006
v -0.197697 -1.027969 -2.379231
v -0.259054 -1.279019 -2.282501
v -0.049568 -1.286918 -2.466538
v -0.197697 -1.284605 -2.412635
v 0.257744 -1.279019 -2.282501
v 0.048259 -1.286918 -2.466538
v 0.196387 -1.284605 -2.412635
v 0.257744 -1.061852 -2.254234
v 0.048259 -1.013935 -2.431006
v 0.196387 -1.027969 -2.379231
v -0.259054 0.131594 -1.749690
v -0.049568 0.178565 -1.926862
v -0.197697 0.164807 -1.874969
v 0.257744 0.131594 -1.749690
v 0.048259 0.178565 -1.926862
v 0.196387 0.164807 -1.874969
v -0.259054 0.411456 -1.716419
v -0.049568 0.373708 -1.903662
v -0.197697 0.384764 -1.848820
v 0.257744 0.411456 -1.716419
v 0.048259 0.373708 -1.903662
v 0.196387 0.384764 -1.848820
v -0.049568 0.506648 -2.000945
v -0.259054 0.757429 -1.980368
v -0.197697 0.580100 -1.994918
v 0.257744 0.757429 -1.980368
v 0.048259 0.506648 -2.000945
v 0.196387 0.580100 -1.994918
v -0.259054 1.028854 -1.741406
v -0.259054 0.817517 -1.974692
v -0.259054 0.967350 -1.898058
v 0.257744 0.817517 -1.974692
v 0.257744 1.028854 -1.741406
v 0.257744 0.967350 -1.898058
v -0.259054 0.909814 -0.928556
v -0.259054 1.026269 -1.048336
v -0.259054 0.991945 -0.965206
v 0.257744 1.026269 -1.048336
v 0.257744 0.909814 -0.928556
v 0.257744 0.991945 -0.965205
v 0.257744 0.202798 -0.781414
v 0.257744 0.205964 -0.789057
v 0.257744 0.015701 -0.867866
v 0.257744 0.005572 -0.843413
v 0.257744 0.094511 -0.900510
v 0.257744 0.173320 -0.867866
v 0.195788 -0.015013 -0.793716
v -0.197097 -0.015013 -0.793716
v -0.259054 0.205964 -0.789057
v -0.259054 0.202798 -0.781414
v -0.259054 0.015701 -0.867866
v -0.259054 0.005572 -0.843413
v -0.259054 0.173320 -0.867866
v -0.259054 0.094511 -0.900510
v 0.257744 1.026409 -1.085750
v 0.257744 1.027795 -1.457273
v -0.259054 1.026409 -1.085750
v -0.259054 1.027795 -1.457273
v 0.257744 0.854818 -1.133559
v 0.257744 0.902627 -1.085750
v 0.257744 0.902627 -1.457273
v 0.257744 0.854818 -1.409464
v -0.259054 0.902627 -1.085750
v -0.259054 0.854818 -1.133559
v -0.259054 0.854818 -1.409464
v -0.259054 0.902627 -1.457273
v -0.222102 -1.376173 -1.226943
v -0.206854 -1.280258 -1.200237
v -0.222102 -1.277376 -1.213173
v 0.222377 -1.386142 -1.229719
v 0.205545 -1.280258 -1.200237
v 0.222377 -1.277076 -1.214517
v 0.222377 -0.854884 -1.081798
v -0.222102 -0.894931 -1.092949
v 0.222377 -1.550217 -1.275403
v -0.222102 -1.550217 -1.275403
v -0.222102 -1.550277 -1.279128
v 0.222377 0.471689 -0.737743
v 0.222377 0.471689 -0.737743
v 0.222377 0.485050 -0.832324
v 0.222377 0.474840 -0.779199
v 0.222377 0.473763 -0.770181
v -0.222102 0.485050 -0.832324
v -0.222102 0.471581 -0.736060
v -0.222102 0.476005 -0.759076
v -0.222102 0.484266 -0.828246
v -0.222102 1.026409 -1.085750
v -0.222102 0.902627 -1.085750
v 0.222377 1.026409 -1.085750
v 0.222377 0.902627 -1.085750
v 0.129244 -1.282103 -1.191960
v -0.128982 -1.282103 -1.191960
v -0.194946 -0.015013 -0.793716
v 0.195193 -0.015013 -0.793716
v 0.109816 -1.357341 -1.202447
v -0.109541 -1.357341 -1.202447
v 0.222377 0.589576 -0.909758
v -0.222102 0.589576 -0.909758
v -0.222102 0.393926 -0.687847
v 0.222377 0.393734 -0.689343
v 0.222377 0.191050 -0.753051
v 0.222377 -0.039265 -0.825445
v 0.202619 -0.012743 -0.799195
v 0.222377 -0.006178 -0.815044
v -0.222102 0.190523 -0.751780
v -0.109541 -1.550155 -1.271556
v -0.114052 -1.550217 -1.275403
v 0.114325 -1.550217 -1.275403
v 0.109816 -1.550155 -1.271556
v 0.222377 -1.551701 -1.367591
v 0.222377 -1.551701 -1.367591
v -0.222102 -1.551701 -1.367591
v -0.222102 -1.551701 -1.367591
v -0.222102 -1.562853 -2.060600
v 0.222377 -1.562853 -2.060600
v 0.188396 -1.564385 -2.155818
v -0.188120 -1.564385 -2.155818
v -0.222102 0.909814 -0.928556
v 0.222377 0.909814 -0.928556
v -0.222102 0.991945 -0.965206
v -0.222102 1.026269 -1.048336
v 0.222377 0.991945 -0.965205
v 0.222377 1.026269 -1.048336
v 0.211772 1.027795 -1.457273
v -0.211497 1.027795 -1.457273
v -0.188120 1.028038 -1.522458
v 0.188396 1.028038 -1.522458
v -0.222102 0.015701 -0.867866
v -0.222102 0.094511 -0.900510
v 0.222377 0.094511 -0.900510
v 0.222377 0.015701 -0.867866
v -0.222102 -0.006705 -0.813774
v 0.222377 0.205964 -0.789057
v -0.222102 0.205964 -0.789057
v 0.222377 0.173320 -0.867866
v -0.222102 0.173320 -0.867866
v 0.222377 0.902627 -1.457273
v 0.222377 0.906642 -1.457273
v -0.222102 0.902627 -1.457273
v -0.222102 0.906642 -1.457273
v -0.222102 0.854818 -1.409464
v 0.222377 0.854818 -1.409464
v -0.222102 0.854818 -1.133559
v 0.222377 0.854818 -1.133559
v -0.222102 -0.404859 -0.956496
v 0.222377 -0.404859 -0.956496
vn -0.1764 0.1162 -0.9774
vn 0.1764 0.1162 -0.9774
vn 0.1744 0.2523 -0.9518
vn -0.1744 0.2523 -0.9518
vn 0.0005 0.9874 0.1584
vn -0.0665 0.9854 0.1570
vn -0.0000 0.0847 -0.9964
vn -0.0000 0.2752 -0.9614
vn -0.1684 0.2579 -0.9514
vn 0.1684 0.2579 -0.9514
vn 0.1685 -0.0423 -0.9848
vn -0.1685 -0.0423 -0.9848
vn -0.1772 -0.5839 -0.7923
vn 0.1772 -0.5839 -0.7923
vn 0.1678 -0.5847 -0.7937
vn -0.1678 -0.5847 -0.7937
vn -0.0000 -0.0000 -1.0000
vn 0.1625 -0.2107 -0.9639
vn -0.1625 -0.2107 -0.9639
vn -0.0000 -0.2197 0.9756
vn -0.0000 -0.2998 0.9540
vn -0.0000 -0.2133 0.9770
vn -0.0000 -0.1380 0.9904
vn -0.0000 0.5953 0.8035
vn 0.1896 -0.7475 -0.6367
vn -0.1896 -0.7475 -0.6367
vn -0.1625 -0.7512 -0.6398
vn 0.1625 -0.7512 -0.6398
vn -0.6548 0.3987 0.6421
vn 0.6548 0.3987 0.6421
vn -0.6559 -0.1659 0.7364
vn -0.6559 -0.1658 0.7364
vn -0.6548 -0.1043 0.7486
vn -0.6559 -0.1632 0.7370
vn 0.6559 -0.1632 0.7370
vn 0.6559 -0.1659 0.7364
vn 0.6548 -0.1043 0.7486
vn 0.6559 -0.1658 0.7364
vn 0.6540 -0.2268 0.7217
vn 0.6544 -0.2267 0.7214
vn -0.6544 -0.2267 0.7214
vn -0.6540 -0.2268 0.7217
vn 0.9670 -0.1310 -0.2185
vn 0.9943 -0.0815 -0.0694
vn 0.9022 -0.3284 -0.2797
vn 0.9109 -0.2123 -0.3539
vn 0.3377 -0.7165 -0.6103
vn -0.9943 -0.0815 -0.0694
vn -0.9670 -0.1310 -0.2185
vn -0.9109 -0.2123 -0.3539
vn -0.9022 -0.3284 -0.2797
vn -0.3377 -0.7165 -0.6103
vn -0.9699 -0.0104 -0.2435
vn -0.9708 0.0628 -0.2317
vn -0.9037 0.1120 -0.4132
vn -0.9047 -0.0183 -0.4258
vn -0.3422 -0.0403 -0.9387
vn -0.3405 0.2460 -0.9075
vn 0.9708 0.0628 -0.2317
vn 0.9699 -0.0104 -0.2435
vn 0.9047 -0.0183 -0.4258
vn 0.9037 0.1120 -0.4132
vn 0.3405 0.2460 -0.9075
vn 0.3422 -0.0403 -0.9387
vn -0.3377 -0.2010 -0.9195
vn 0.3377 -0.2010 -0.9195
vn -0.3407 0.2409 -0.9088
vn -0.9038 0.1096 -0.4136
vn -0.9749 0.0570 -0.2151
vn 0.9749 0.0570 -0.2151
vn 0.9038 0.1096 -0.4136
vn 0.3407 0.2409 -0.9088
vn -0.3377 0.1111 -0.9347
vn -0.9088 -0.1186 -0.3999
vn -0.9763 -0.0547 -0.2096
vn 0.9763 -0.0547 -0.2096
vn 0.9088 -0.1186 -0.3999
vn 0.3377 0.1111 -0.9347
vn -0.3176 -0.5647 -0.7617
vn -0.8906 -0.2746 -0.3625
vn -0.9932 -0.0702 -0.0927
vn 0.9932 -0.0702 -0.0927
vn 0.8906 -0.2746 -0.3625
vn 0.3176 -0.5647 -0.7617
vn -0.0000 -0.9999 0.0161
vn -0.0000 0.9829 -0.1841
vn -0.0000 0.9308 -0.3655
vn -0.0000 0.4554 -0.8903
vn -0.0000 0.2369 0.9715
vn -0.0000 0.0586 0.9983
vn -0.0000 0.9805 0.1964
vn -0.0000 0.9243 0.3816
vn -0.0000 0.4075 0.9132
vn -0.0000 1.0000 0.0037
vn -0.0000 0.3827 0.9239
vn -0.0000 0.9239 0.3827
vn -0.0000 0.9239 0.3826
vn -0.0000 -0.9239 -0.3827
vn -0.0000 -0.9239 0.3827
vn -0.0000 -0.3827 0.9239
vn -1.0000 -0.0000 -0.0000
vn -0.0000 -0.0000 1.0000
vn 1.0000 -0.0000 -0.0000
vn -0.0000 0.7071 0.7071
vn -0.0000 0.7071 -0.7071
vn -0.0000 1.0000 -0.0000
vn -0.0000 0.2682 -0.9634
vn -0.0000 -0.2373 0.9714
vn -0.0000 0.3374 -0.9414
vn 0.9788 -0.0487 0.1992
vn 0.9382 -0.0821 0.3362
vn 0.9470 -0.0763 0.3121
vn -0.9382 -0.0821 0.3362
vn -0.9788 -0.0487 0.1992
vn -0.9470 -0.0763 0.3121
vn 0.6240 0.2637 -0.7356
vn -0.6238 0.2637 -0.7358
vt 0.621887 0.351338
vt 0.621887 0.398662
vt 0.615619 0.398662
vt 0.615619 0.351338
vt 0.602368 0.750000
vt 0.606434 0.750000
vt 0.606434 0.767109
vt 0.603283 0.767109
vt 0.602823 0.767109
vt 0.601477 0.767109
vt 0.606434 0.982125
vt 0.606434 1.000000
vt 0.602368 1.000000
vt 0.601437 0.982125
vt 0.602357 0.982125
vt 0.606199 0.982125
vt 0.624454 0.279681
vt 0.624763 0.250000
vt 0.624816 0.250000
vt 0.624816 0.500000
vt 0.624763 0.500000
vt 0.624454 0.470319
vt 0.624325 0.398662
vt 0.624325 0.351338
vt 0.452012 0.351338
vt 0.452012 0.398662
vt 0.226338 0.500000
vt 0.273662 0.500000
vt 0.273662 0.505592
vt 0.226338 0.505592
vt 0.439911 0.987779
vt 0.607969 0.987778
vt 0.607969 0.971651
vt 0.439911 0.971651
vt 0.607968 0.762222
vt 0.439911 0.762222
vt 0.439911 0.777657
vt 0.607968 0.777657
vt 0.273662 0.521569
vt 0.226338 0.521569
vt 0.381048 0.779971
vt 0.540194 0.779971
vt 0.540194 0.780259
vt 0.381048 0.812162
vt 0.540194 0.968988
vt 0.540194 0.970029
vt 0.381048 0.970029
vt 0.381048 0.937078
vt 0.187922 0.750000
vt 0.154971 0.750000
vt 0.154971 0.739238
vt 0.345029 0.739238
vt 0.345029 0.750000
vt 0.312838 0.750000
vt 0.303440 0.746972
vt 0.197327 0.746972
vt 0.613716 0.750000
vt 0.613716 0.767109
vt 0.613716 1.000000
vt 0.613716 0.982125
vt 0.273662 0.542458
vt 0.226338 0.542458
vt 0.602368 0.004670
vt 0.591328 0.005706
vt 0.591691 0.002303
vt 0.601437 0.003492
vt 0.591328 0.744293
vt 0.602368 0.745330
vt 0.601477 0.765104
vt 0.591676 0.764659
vt 0.142875 0.750000
vt 0.125000 0.750000
vt 0.125000 0.739238
vt 0.150251 0.750000
vt 0.142875 0.746098
vt 0.349749 0.750000
vt 0.375000 0.739238
vt 0.375000 0.750000
vt 0.357891 0.750000
vt 0.357891 0.745697
vt 0.566470 0.764290
vt 0.568470 0.743432
vt 0.540649 0.775842
vt 0.382151 0.773147
vt 0.436511 0.762219
vt 0.384056 0.761373
vt 0.388057 0.736636
vt 0.544317 0.742523
vt 0.541964 0.763899
vt 0.537857 0.763827
vt 0.429034 0.982121
vt 0.381048 0.974749
vt 0.540908 1.000000
vt 0.381048 1.000000
vt 0.381048 0.982125
vt 0.590753 0.982125
vt 0.589001 1.000000
vt 0.565617 1.000000
vt 0.565229 0.982125
vt 0.399460 0.550842
vt 0.375000 0.590649
vt 0.375000 0.542458
vt 0.393220 0.525838
vt 0.375000 0.525838
vt 0.375000 0.159351
vt 0.399460 0.199158
vt 0.393220 0.224162
vt 0.375000 0.207542
vt 0.125000 0.542458
vt 0.125000 0.525838
vt 0.418751 0.210972
vt 0.444091 0.216527
vt 0.451340 0.249853
vt 0.427302 0.244596
vt 0.125000 0.505404
vt 0.125000 0.500147
vt 0.444091 0.533473
vt 0.418752 0.539028
vt 0.427302 0.505404
vt 0.451340 0.500147
vt 0.375000 0.500147
vt 0.375000 0.505404
vt 0.425289 0.243763
vt 0.400132 0.229680
vt 0.125000 0.520320
vt 0.125000 0.506237
vt 0.400132 0.520320
vt 0.425289 0.506237
vt 0.375000 0.506237
vt 0.375000 0.520320
vt 0.452926 0.250000
vt 0.615619 0.250000
vt 0.586901 0.193685
vt 0.586900 0.556315
vt 0.452926 0.500000
vt 0.615619 0.500000
vt 0.621887 0.250000
vt 0.621887 0.240845
vt 0.602641 0.182807
vt 0.602641 0.567192
vt 0.621887 0.509155
vt 0.621887 0.500000
vt 0.624325 0.250000
vt 0.624325 0.227329
vt 0.624763 0.217672
vt 0.624763 0.532328
vt 0.624325 0.522671
vt 0.624325 0.500000
vt 0.357892 0.731137
vt 0.375000 0.729710
vt 0.125000 0.729710
vt 0.142875 0.730484
vt 0.142875 0.731137
vt 0.195144 0.731137
vt 0.197327 0.731812
vt 0.303440 0.731812
vt 0.305621 0.731137
vt 0.125000 0.590649
vt 0.154681 0.556573
vt 0.345319 0.556573
vt 0.357892 0.714964
vt 0.357891 0.593386
vt 0.341453 0.576681
vt 0.159314 0.576681
vt 0.142875 0.593386
vt 0.142875 0.714964
vt 0.875000 0.572014
vt 0.625000 0.572014
vt 0.625000 0.537544
vt 0.875000 0.537544
vt 0.625000 0.250000
vt 0.625000 0.500000
vt 0.622001 1.000000
vt 0.622001 0.982125
vt 0.622001 0.750000
vt 0.622001 0.767109
vt 0.875000 0.665561
vt 0.875000 0.684313
vt 0.857125 0.684313
vt 0.857125 0.665561
vt 0.625000 0.684313
vt 0.625000 0.665561
vt 0.642109 0.665561
vt 0.642109 0.684313
vt 0.625000 1.000000
vt 0.625000 0.982125
vt 0.625000 0.750000
vt 0.625000 0.767109
vt 0.625000 0.660511
vt 0.642109 0.660511
vt 0.875000 0.660511
vt 0.857125 0.660511
vt 0.647239 0.610365
vt 0.625000 0.610365
vt 0.875000 0.610365
vt 0.851995 0.610365
vt 0.840686 0.601567
vt 0.658547 0.601567
vt 1.000000 0.561955
vt 0.875000 0.561955
vt 0.875000 0.588846
vt 1.000000 0.588846
vt 0.875000 0.912308
vt 0.875000 0.938045
vt 1.000000 0.938045
vt 1.000000 0.912308
vt 0.836214 0.561955
vt 0.757389 0.607042
vt 0.757389 0.608608
vt 0.789203 0.588845
vt 0.757389 0.892957
vt 0.766080 0.897928
vt 0.757389 0.892524
vt 0.791218 0.912307
vt 0.836214 0.938045
vt 0.250000 0.938045
vt 0.262123 0.938045
vt 0.307109 0.912308
vt 0.250000 0.912308
vt 0.309125 0.588846
vt 0.262123 0.561955
vt 0.250000 0.561955
vt 0.250000 0.588846
vt 0.125000 0.938045
vt 0.125000 0.912308
vt 0.125000 0.561955
vt 0.125000 0.588846
vt 0.000000 0.561955
vt 0.000000 0.588846
vt 0.000000 0.912308
vt 0.000000 0.938045
vt 0.606434 0.009813
vt 0.613716 0.026598
vt 0.622001 0.055297
vt 0.623492 0.069133
vt 0.625000 0.084439
vt 0.625000 0.089489
vt 0.619010 0.082200
vt 0.616526 0.086606
vt 0.615542 0.128279
vt 0.618033 0.136643
vt 0.625000 0.139635
vt 0.625000 0.177986
vt 0.623381 0.202770
vt 0.624816 0.216521
vt 0.375000 0.020290
vt 0.388057 0.013364
vt 0.544317 0.007477
vt 0.545606 0.012142
vt 0.555148 0.021243
vt 0.564646 0.019160
vt 0.568838 0.007939
vt 0.568470 0.006568
vt 0.439911 0.472343
vt 0.439911 0.487778
vt 0.609850 0.487779
vt 0.609850 0.467714
vt 0.445361 0.472343
vt 0.609850 0.282978
vt 0.609850 0.262222
vt 0.439911 0.262222
vt 0.439911 0.278349
vt 0.445361 0.278349
vt 0.619010 0.667800
vt 0.623492 0.680867
vt 0.622001 0.694703
vt 0.613716 0.723402
vt 0.606434 0.740187
vt 0.568838 0.742061
vt 0.564646 0.730839
vt 0.555148 0.728757
vt 0.545606 0.737858
vt 0.624816 0.533479
vt 0.623381 0.547230
vt 0.618033 0.613357
vt 0.615542 0.621721
vt 0.616526 0.663394
vt 0.375000 0.262222
vt 0.375000 0.278349
vt 0.375000 0.487778
vt 0.375000 0.472343
vt 0.375000 0.987778
vt 0.375000 0.971651
vt 0.375000 0.762222
vt 0.375000 0.777657
vt 0.153349 0.532171
vt 0.137222 0.532171
vt 0.137222 0.717829
vt 0.153349 0.717829
vt 0.347343 0.717829
vt 0.362778 0.717829
vt 0.362779 0.532171
vt 0.347343 0.532171
vt 0.443832 0.750000
vt 0.404433 0.759468
vt 0.394626 0.750000
vt 0.379429 0.750000
vt 0.379429 0.810775
vt 0.485515 0.750000
vt 0.379429 0.939226
vt 0.379429 1.000000
vt 0.395549 1.000000
vt 0.404433 0.991424
vt 0.440123 1.000000
vt 0.485515 1.000000
vt 0.485515 0.000000
vt 0.440123 0.000000
vt 0.404700 0.003827
vt 0.395549 0.000000
vt 0.379429 0.000000
vt 0.379423 0.001041
vt 0.379292 0.026161
vt 0.379292 0.723824
vt 0.404728 0.745775
vt 0.618233 0.312711
vt 0.378117 0.312711
vt 0.378117 0.437289
vt 0.618233 0.437289
vt 0.397294 0.936689
vt 0.397294 0.813311
vt 0.379435 0.813311
vt 0.379435 0.936689
vt 0.378259 0.222946
vt 0.618210 0.252661
vt 0.606989 0.225305
vt 0.618210 0.497339
vt 0.378259 0.527054
vt 0.606989 0.524695
vt 0.618082 0.595909
vt 0.606617 0.603648
vt 0.602189 0.596621
vt 0.602189 0.537982
vt 0.606617 0.524914
vt 0.379292 0.722835
vt 0.519377 0.726272
vt 0.522441 0.726015
vt 0.524468 0.712306
vt 0.531767 0.698874
vt 0.539067 0.700246
vt 0.542090 0.715350
vt 0.540709 0.724527
vt 0.559482 0.723063
vt 0.566702 0.706648
vt 0.566895 0.699449
vt 0.566994 0.697413
vt 0.567940 0.685158
vt 0.577621 0.661154
vt 0.607283 0.635864
vt 0.614890 0.622980
vt 0.618069 0.603636
vt 0.404263 0.004573
vt 0.397294 0.000000
vt 0.379435 0.000000
vt 0.379429 0.001083
vt 0.485515 0.024559
vt 0.379292 0.027166
vt 0.379292 0.027166
vt 0.522393 0.023654
vt 0.521623 0.017947
vt 0.379429 0.809692
vt 0.404262 0.797812
vt 0.521623 0.747343
vt 0.521833 0.741607
vt 0.379292 0.722834
vt 0.485515 0.725441
vt 0.606617 0.146352
vt 0.618082 0.154091
vt 0.618069 0.146364
vt 0.614890 0.127020
vt 0.607283 0.114135
vt 0.577621 0.088846
vt 0.567940 0.064842
vt 0.567867 0.063902
vt 0.567102 0.048304
vt 0.566693 0.042979
vt 0.559500 0.026624
vt 0.540660 0.025149
vt 0.542090 0.034650
vt 0.539067 0.049754
vt 0.531767 0.051126
vt 0.524468 0.037694
vt 0.606617 0.225086
vt 0.602189 0.212018
vt 0.602189 0.153379
s 1
f 48/1/1 51/2/2 45/3/3 42/4/4
f 7/5/5 4/6/5 110/7/5 111/8/5 112/9/5 108/10/5 109/10/5
f 113/11/6 1/12/6 6/13/6 114/14/6 115/15/6 116/16/6
f 55/17/7 54/18/7 60/19/8 62/20/8 56/21/7 58/22/7 57/23/7 53/24/7
f 30/25/9 42/4/4 45/3/3 39/26/10
f 30/27/9 39/28/10 36/29/11 33/30/12
f 53/24/13 57/23/14 51/2/15 48/1/16
f 93/31/17 87/32/17 117/33/17 118/34/17
f 85/35/17 90/36/17 120/37/17 119/38/17
f 33/30/12 36/29/11 27/39/18 24/40/19
f 14/41/20 77/42/21 124/43/21 121/44/22
f 123/45/21 78/46/21 12/47/20 122/48/22
f 122/49/22 12/50/20 9/51/23 16/52/23 14/53/20 121/54/22 125/55/23 126/56/23
f 110/7/24 4/6/24 3/57/24 127/58/24
f 2/59/24 1/12/24 113/11/24 128/60/24
f 20/61/25 18/62/26 24/40/27 27/39/28
f 6/63/29 5/64/29 129/65/29 114/66/29
f 8/67/30 7/68/30 109/69/30 130/70/30
f 99/71/31 11/72/32 10/73/33 9/51/33 12/50/31 98/74/34 97/75/33
f 101/76/35 14/53/36 16/52/37 15/77/37 13/78/38 102/79/36 100/80/37
f 131/81/39 71/82/39 8/67/39 130/70/39
f 133/83/40 77/42/40 14/41/36 101/84/35 103/85/40 102/86/36 13/87/38 74/88/40 134/89/40 132/90/40
f 104/91/41 98/92/34 12/47/31 78/46/41 82/93/41 11/94/32 99/95/31
f 129/96/42 5/97/42 80/98/42 135/99/42
f 26/100/43 21/101/44 22/102/45 28/103/46
f 28/104/47 22/102/47 20/61/25 27/39/28
f 17/105/48 23/106/49 25/107/50 19/108/51
f 19/109/52 25/110/52 24/40/27 18/62/26
f 32/111/53 29/112/54 31/113/55 34/114/56
f 34/115/57 31/116/58 30/27/9 33/30/12
f 38/117/59 35/118/60 37/119/61 40/120/62
f 40/121/63 37/122/64 36/29/11 39/28/10
f 23/106/49 32/111/53 34/123/56 25/124/50
f 25/125/65 34/126/57 33/30/12 24/40/19
f 35/118/60 26/100/43 28/127/46 37/128/61
f 37/129/64 28/130/66 27/39/18 36/29/11
f 42/4/4 30/25/9 31/131/58 43/132/67
f 43/132/68 31/131/55 29/112/54 41/133/69
f 44/134/70 38/117/59 40/135/62 46/136/71
f 46/136/72 40/135/63 39/26/10 45/3/3
f 48/1/1 42/4/4 43/132/67 49/137/73
f 49/138/74 43/132/68 41/133/69 47/139/75
f 50/140/76 44/134/70 46/136/71 52/141/77
f 52/142/78 46/136/72 45/3/3 51/2/2
f 53/24/13 48/1/16 49/137/79 55/143/79
f 55/144/80 49/138/74 47/139/75 54/145/81
f 56/146/82 50/140/76 52/141/77 58/147/83
f 58/148/84 52/142/84 51/2/15 57/23/14
f 105/149/85 15/150/85 16/52/85 9/51/85 10/151/85 107/152/85 106/153/85 137/154/85 136/155/85 139/156/85 138/157/85
f 107/152/85 10/151/85 17/158/85 19/159/85 18/62/85 20/61/85 22/160/85 21/101/85 15/150/85 105/149/85 141/161/85 140/161/85 145/162/85 146/163/85 147/164/85 144/165/85 142/166/85 143/166/85
f 59/167/86 63/168/86 64/169/87 61/170/87
f 61/171/88 64/172/88 62/20/8 60/19/8
f 65/173/89 2/59/90 128/60/90 148/174/89
f 3/57/90 69/175/89 149/176/89 127/58/90
f 66/177/91 67/178/92 150/179/92 151/180/91
f 70/181/92 68/182/91 153/183/91 152/184/92
f 67/185/93 65/173/89 148/174/89 150/186/93
f 69/175/89 70/187/93 152/188/93 149/176/89
f 153/183/91 68/182/91 85/189/94 119/190/94
f 87/191/94 66/177/91 151/180/91 117/192/94
f 154/193/94 86/194/94 63/168/86 59/167/86 88/195/94 155/196/94 156/197/94 157/198/94
f 84/199/95 81/200/95 158/201/95 159/202/95
f 161/203/95 73/204/95 75/205/95 160/206/95
f 158/201/96 81/200/96 82/207/96 78/208/96 123/209/96 162/210/96
f 77/211/97 133/212/97 124/213/97
f 134/214/96 74/215/96 73/204/96 161/203/96
f 72/216/98 71/217/98 131/218/98 163/219/98
f 135/220/98 80/221/98 79/222/98 164/223/98
f 76/224/99 72/216/99 163/219/99 165/225/99
f 79/222/99 83/226/99 166/227/99 164/223/99
f 83/226/100 84/228/100 159/229/100 166/227/100
f 160/230/100 75/231/100 76/224/100 165/225/100
f 5/64/101 6/63/101 1/232/101 2/233/101 65/234/101 67/235/101 66/236/101 87/237/101 93/238/101 94/239/101 95/240/101 96/241/101 88/242/101 59/243/101 61/244/101 60/245/101 54/145/81 47/139/75 41/133/69 29/112/54 32/111/53 23/106/49 17/105/48 10/246/101 11/247/101 82/248/101 81/249/101 84/250/101 83/251/101 79/252/101 80/253/101
f 167/254/102 91/255/102 86/256/102 154/257/102 168/258/102
f 155/259/102 88/260/102 96/261/102 169/262/102 170/263/102
f 90/264/103 85/189/103 68/182/103 70/265/103 69/266/103 3/267/103 4/268/103 7/68/103 8/67/103 71/82/103 72/269/103 76/270/103 75/271/103 73/272/103 74/88/103 13/87/103 15/150/103 21/101/44 26/100/43 35/118/60 38/117/59 44/134/70 50/140/76 56/146/82 62/273/103 64/274/103 63/168/103 86/194/103 91/275/103 92/276/103 89/277/103
f 96/261/104 95/278/104 171/279/104 169/262/104
f 92/280/104 91/255/104 167/254/104 172/281/104
f 94/282/105 93/31/105 118/34/105 173/283/105
f 90/36/105 89/284/105 174/285/105 120/37/105
f 171/286/106 95/287/106 94/288/106 173/289/106
f 174/290/106 89/291/106 92/292/106 172/293/106
f 103/294/107 101/295/107 100/296/107 105/297/107 138/298/107 176/299/107
f 137/300/107 106/301/107 97/302/107 98/303/107 104/304/107 175/305/107
f 175/306/103 104/307/103 99/308/103 97/309/103 106/310/103 107/311/103 143/312/103
f 141/313/101 105/297/101 100/296/101 102/314/101 103/294/101 176/299/101
f 156/315/108 147/316/108 146/317/108 157/318/108
f 126/319/109 125/320/109 139/321/109 136/322/109
f 144/323/110 147/316/111 156/315/111 155/324/111 170/325/112
f 154/326/113 157/318/113 146/317/113 145/327/114 168/328/115
f 119/329/101 120/330/101 174/331/101 172/332/101 167/333/101 168/328/115 145/327/114 140/334/101 132/335/101 134/336/101 161/337/101 160/338/101 165/339/101 163/340/101 131/341/101 130/342/101 109/343/101 108/343/101 112/344/101 111/345/101 110/346/101 127/347/101 149/348/101 152/349/101 153/350/101
f 122/351/116 126/352/116 136/353/116 137/354/116 175/355/116 143/356/116 142/357/116 162/358/116 123/359/116
f 138/360/117 139/321/117 125/320/117 121/361/117 124/362/117 133/363/117 132/335/117 140/334/117 141/364/117 176/365/117
f 118/366/103 117/367/103 151/368/103 150/369/103 148/370/103 128/371/103 113/372/103 116/373/103 115/374/103 114/375/103 129/376/103 135/377/103 164/378/103 166/379/103 159/380/103 158/381/103 162/358/103 142/357/103 144/323/110 170/325/112 169/382/103 171/383/103 173/384/103
