# Blender 4.4.3
# www.blender.org
mtllib Slide13.mtl
o Cylinder
v 0.000000 1.636467 2.191429
v 0.000000 1.660720 2.132499
v 0.022530 1.645097 2.194981
v 0.022530 1.669351 2.136050
v 0.031863 1.665932 2.203555
v 0.031863 1.690186 2.144625
v 0.022530 1.686767 2.212130
v 0.022530 1.711020 2.153200
v 0.000000 1.695397 2.215682
v 0.000000 1.719651 2.156752
v -0.022530 1.686767 2.212130
v -0.022530 1.711020 2.153200
v -0.031863 1.665932 2.203555
v -0.031863 1.690186 2.144625
v -0.022530 1.645097 2.194981
v -0.022530 1.669351 2.136050
v -0.082374 1.654976 -1.644825
v -0.082374 1.658358 -1.658827
v -0.059844 1.663990 -1.642410
v -0.059844 1.667372 -1.656412
v -0.050511 1.685753 -1.636579
v -0.050511 1.689135 -1.650580
v -0.059844 1.707516 -1.630747
v -0.059844 1.710898 -1.644749
v -0.082374 1.716530 -1.628331
v -0.082374 1.719912 -1.642334
v -0.104905 1.707516 -1.630747
v -0.104905 1.710898 -1.644749
v -0.114237 1.685753 -1.636579
v -0.114237 1.689135 -1.650580
v -0.104905 1.663990 -1.642410
v -0.104905 1.667372 -1.656412
v 0.082374 1.654976 -1.644825
v 0.082374 1.658358 -1.658827
v 0.059844 1.663990 -1.642410
v 0.059844 1.667372 -1.656412
v 0.050511 1.685753 -1.636579
v 0.050511 1.689135 -1.650580
v 0.059844 1.707516 -1.630747
v 0.059844 1.710898 -1.644749
v 0.082374 1.716530 -1.628331
v 0.082374 1.719912 -1.642334
v 0.104905 1.707516 -1.630747
v 0.104905 1.710898 -1.644749
v 0.114237 1.685753 -1.636579
v 0.114237 1.689135 -1.650580
v 0.104905 1.663990 -1.642410
v 0.104905 1.667372 -1.656412
vn 0.3827 -0.8544 -0.3516
vn 0.9239 -0.3539 -0.1456
vn 0.9239 0.3539 0.1456
vn 0.3827 0.8544 0.3516
vn -0.3827 0.8544 0.3516
vn -0.9239 0.3539 0.1456
vn -0.0000 0.3806 -0.9247
vn -0.9239 -0.3539 -0.1456
vn -0.3827 -0.8544 -0.3516
vn -0.0000 -0.3806 0.9247
vn 0.3826 -0.8981 -0.2169
vn 0.9238 -0.3721 -0.0899
vn 0.9238 0.3721 0.0899
vn 0.3826 0.8981 0.2169
vn -0.3826 0.8981 0.2169
vn -0.9238 0.3721 0.0899
vn -0.0000 0.2588 -0.9659
vn -0.9238 -0.3721 -0.0899
vn -0.3826 -0.8981 -0.2169
vn -0.0000 -0.2588 0.9659
vt 1.000000 0.500000
vt 1.000000 1.000000
vt 0.875000 1.000000
vt 0.875000 0.500000
vt 0.750000 1.000000
vt 0.750000 0.500000
vt 0.625000 1.000000
vt 0.625000 0.500000
vt 0.500000 1.000000
vt 0.500000 0.500000
vt 0.375000 1.000000
vt 0.375000 0.500000
vt 0.250000 1.000000
vt 0.250000 0.500000
vt 0.419706 0.419706
vt 0.250000 0.490000
vt 0.080294 0.419706
vt 0.010000 0.250000
vt 0.080294 0.080294
vt 0.250000 0.010000
vt 0.419706 0.080294
vt 0.490000 0.250000
vt 0.125000 1.000000
vt 0.125000 0.500000
vt 0.000000 1.000000
vt 0.000000 0.500000
vt 0.750000 0.490000
vt 0.919706 0.419706
vt 0.990000 0.250000
vt 0.919706 0.080294
vt 0.750000 0.010000
vt 0.580294 0.080294
vt 0.510000 0.250000
vt 0.580294 0.419706
s 0
f 1/1/1 2/2/1 4/3/1 3/4/1
f 3/4/2 4/3/2 6/5/2 5/6/2
f 5/6/3 6/5/3 8/7/3 7/8/3
f 7/8/4 8/7/4 10/9/4 9/10/4
f 9/10/5 10/9/5 12/11/5 11/12/5
f 11/12/6 12/11/6 14/13/6 13/14/6
f 4/15/7 2/16/7 16/17/7 14/18/7 12/19/7 10/20/7 8/21/7 6/22/7
f 13/14/8 14/13/8 16/23/8 15/24/8
f 15/24/9 16/23/9 2/25/9 1/26/9
f 1/27/10 3/28/10 5/29/10 7/30/10 9/31/10 11/32/10 13/33/10 15/34/10
f 17/1/11 18/2/11 20/3/11 19/4/11
f 19/4/12 20/3/12 22/5/12 21/6/12
f 21/6/13 22/5/13 24/7/13 23/8/13
f 23/8/14 24/7/14 26/9/14 25/10/14
f 25/10/15 26/9/15 28/11/15 27/12/15
f 27/12/16 28/11/16 30/13/16 29/14/16
f 20/15/17 18/16/17 32/17/17 30/18/17 28/19/17 26/20/17 24/21/17 22/22/17
f 29/14/18 30/13/18 32/23/18 31/24/18
f 31/24/19 32/23/19 18/25/19 17/26/19
f 17/27/20 19/28/20 21/29/20 23/30/20 25/31/20 27/32/20 29/33/20 31/34/20
f 33/1/19 35/4/19 36/3/19 34/2/19
f 35/4/18 37/6/18 38/5/18 36/3/18
f 37/6/16 39/8/16 40/7/16 38/5/16
f 39/8/15 41/10/15 42/9/15 40/7/15
f 41/10/14 43/12/14 44/11/14 42/9/14
f 43/12/13 45/14/13 46/13/13 44/11/13
f 36/15/17 38/22/17 40/21/17 42/20/17 44/19/17 46/18/17 48/17/17 34/16/17
f 45/14/12 47/24/12 48/23/12 46/13/12
f 47/24/11 33/26/11 34/25/11 48/23/11
f 33/27/20 47/34/20 45/33/20 43/32/20 41/31/20 39/30/20 37/29/20 35/28/20
