# Blender 4.4.3
# www.blender.org
mtllib Slide12.mtl
o Cube.015
v -0.153748 1.602010 -1.516019
v -0.153748 1.602010 -1.669819
v -0.068180 1.664894 -1.587117
v 0.153748 1.602010 -1.516019
v 0.153748 1.602010 -1.669819
v 0.068180 1.664894 -1.587117
v -0.153748 1.650029 -1.516019
v -0.153748 1.650029 -1.656714
v -0.044836 1.664894 -1.617887
v 0.044836 1.664894 -1.617887
v 0.153748 1.650029 -1.656714
v 0.153748 1.650029 -1.516019
v -0.086966 1.650029 -1.446062
v -0.153748 1.650029 -1.486726
v -0.086966 1.724159 -1.446062
v 0.086966 1.724159 -1.446062
v 0.153748 1.650029 -1.486726
v 0.086966 1.650029 -1.446062
v 0.044836 1.724159 -1.633781
v -0.044836 1.724159 -1.633781
v -0.044836 1.650029 -1.656714
v 0.044836 1.650029 -1.656714
v -0.068180 1.724159 -1.516019
v 0.068180 1.724159 -1.516019
v -0.068180 1.724159 -1.446062
v 0.068180 1.724159 -1.446062
v -0.068180 1.724159 -1.587117
v 0.044836 1.724159 -1.617887
v -0.044836 1.724159 -1.617887
v 0.068180 1.724159 -1.587117
v -0.068180 1.650029 -1.516019
v -0.068180 1.664894 -1.516019
v 0.068180 1.664894 -1.516019
v 0.068180 1.650029 -1.516019
v 0.068180 1.650029 -1.446062
v -0.068180 1.650029 -1.446062
v -0.153748 1.673275 -1.516019
v -0.104395 1.724159 -1.516019
v -0.153748 1.673275 -1.649523
v -0.104395 1.724159 -1.633781
v 0.104395 1.724159 -1.516019
v 0.153748 1.673275 -1.516019
v 0.104395 1.724159 -1.633781
v 0.153748 1.673275 -1.649523
v -0.104395 1.724159 -1.456675
v -0.153748 1.673275 -1.486726
v 0.153748 1.673275 -1.486726
v 0.104395 1.724159 -1.456675
v -0.044836 1.664894 -1.630488
v -0.044836 1.650029 -1.656714
v 0.044836 1.650029 -1.656714
v 0.044836 1.664894 -1.630488
v -0.035393 1.619716 2.359584
v -0.035393 1.619716 2.122880
v -0.035393 1.721975 2.163723
v 0.035393 1.619716 2.359584
v 0.035393 1.619716 2.122880
v 0.035393 1.721975 2.163723
v -0.035393 1.659330 2.357020
v -0.035393 1.709689 2.312494
v -0.035393 1.694090 2.342500
v 0.035393 1.709689 2.312494
v 0.035393 1.663548 2.357020
v 0.035393 1.694090 2.342500
v -0.235519 1.248992 -0.134729
v -0.235519 1.325279 -0.134729
v -0.235519 1.248992 -0.274209
v -0.235519 1.325279 -0.274209
v -0.057188 1.248992 -0.134729
v -0.057188 1.248992 -0.274209
v -0.235519 1.336913 -0.294164
v -0.235519 1.237358 -0.294164
v -0.057188 1.237358 -0.294164
v -0.235519 1.336913 -0.332914
v -0.235519 1.237358 -0.332914
v -0.057188 1.237358 -0.332914
v -0.235519 1.325403 -0.353661
v -0.235519 1.248868 -0.353661
v -0.057188 1.248868 -0.353661
v -0.085812 1.321588 -0.353661
v -0.085812 1.321588 -0.134729
v -0.092159 1.336913 -0.332914
v -0.087392 1.325403 -0.353661
v -0.092159 1.336913 -0.294164
v -0.087340 1.325279 -0.274209
v -0.087340 1.325279 -0.134729
v -0.057188 1.309732 -0.353661
v -0.057188 1.309732 -0.332914
v -0.057188 1.309732 -0.294164
v -0.057188 1.309732 -0.274209
v -0.057188 1.309732 -0.134729
vn -0.0000 1.0000 -0.0000
vn -0.5201 -0.0000 0.8541
vn 1.0000 -0.0000 -0.0000
vn -0.0000 0.2956 -0.9553
vn -0.0000 -1.0000 -0.0000
vn -0.0000 -0.0000 1.0000
vn -1.0000 -0.0000 -0.0000
vn 0.5201 -0.0000 0.8541
vn 0.7967 -0.0000 0.6044
vn -0.7967 -0.0000 0.6044
vn -0.0000 0.2633 -0.9647
vn -0.7178 0.6962 -0.0000
vn 0.7178 0.6962 -0.0000
vn -0.0000 0.8700 -0.4931
vn -0.0000 0.9966 0.0823
vn -0.0000 0.3709 -0.9287
vn -0.0000 0.8873 0.4613
vn -0.0121 0.4063 0.9137
vn -0.0018 0.0613 0.9981
vn -0.0000 -0.8639 0.5037
vn -0.0000 0.8639 0.5037
vn -0.0000 -0.0000 -1.0000
vn -0.0000 -0.8744 -0.4851
vn -0.0000 0.8744 -0.4851
vt 0.772130 0.533741
vt 0.772130 0.500000
vt 0.828385 0.500000
vt 0.822314 0.750000
vt 0.783653 0.750000
vt 0.783653 0.599064
vt 0.465909 0.000000
vt 0.625000 0.000000
vt 0.515798 0.000000
vt 0.465909 0.000000
vt 0.716347 0.599064
vt 0.716347 0.750000
vt 0.677686 0.750000
vt 0.671615 0.500000
vt 0.727870 0.500000
vt 0.727870 0.533741
vt 0.465909 0.750000
vt 0.515798 0.750000
vt 0.515798 0.750000
vt 0.465909 0.250000
vt 0.515798 0.250000
vt 0.625000 0.296615
vt 0.625000 0.352870
vt 0.465909 0.352870
vt 0.625000 0.453385
vt 0.515798 0.500000
vt 0.465909 0.500000
vt 0.465909 0.397130
vt 0.625000 0.397130
vt 0.125000 0.500000
vt 0.375000 0.500000
vt 0.375000 0.750000
vt 0.125000 0.750000
vt 0.822314 0.750000
vt 0.851303 0.750000
vt 0.842934 0.750000
vt 0.794232 0.750000
vt 0.465909 1.000000
vt 0.375000 1.000000
vt 0.465909 0.841347
vt 0.460619 0.841347
vt 0.460619 0.908653
vt 0.465909 0.908653
vt 0.375000 0.000000
vt 0.375000 0.250000
vt 0.465909 0.782067
vt 0.465909 0.830768
vt 0.465909 0.967933
vt 0.465909 0.919232
vt 0.705768 0.750000
vt 0.657066 0.750000
vt 0.648697 0.750000
vt 0.677686 0.750000
vt 0.515798 0.250000
vt 0.625000 0.782067
vt 0.625000 0.773698
vt 0.625000 0.967933
vt 0.625000 0.919232
vt 0.625000 0.830768
vt 0.381719 0.132180
vt 0.381719 0.190614
vt 0.375000 0.190614
vt 0.559974 0.250000
vt 0.559974 0.190614
vt 0.559974 0.132180
vt 0.559974 0.559386
vt 0.559974 0.500000
vt 0.375000 0.559386
vt 0.381719 0.559386
vt 0.381719 0.617820
vt 0.559974 0.617820
vt 0.125000 0.559386
vt 0.381719 0.500000
vt 0.559974 0.500000
vt 0.875000 0.500000
vt 0.875000 0.750000
vt 0.460619 0.352870
vt 0.460619 0.397130
vt 0.381719 0.250000
vt 0.559974 0.250000
vt 0.625000 0.500000
vt 0.875000 0.704420
vt 0.625000 0.704420
vt 0.625000 0.250000
vt 0.521071 0.000000
vt 0.595831 0.012421
vt 0.625000 0.045580
vt 0.625000 0.704420
vt 0.595831 0.737579
vt 0.521071 0.750000
vt 0.625000 0.750000
vt 0.625000 1.000000
vt 0.521071 1.000000
vt 0.574052 0.500000
vt 0.574052 0.750000
vt 0.612907 0.790127
vt 0.625000 0.792270
vt 0.667270 0.500000
vt 0.674026 0.500000
vt 0.625000 0.457658
vt 0.612540 0.459873
vt 0.573812 0.500000
vt 0.667342 0.500000
vt 0.556745 0.500000
vt 0.667270 0.750000
s 0
f 29/1/1 20/2/1 40/3/1 38/4/1 23/5/1 27/6/1
f 13/7/2 15/8/2 45/8/2 46/9/2 14/10/2
f 30/11/1 24/12/1 41/13/1 43/14/1 19/15/1 28/16/1
f 12/17/3 42/18/3 47/19/3 17/17/3
f 8/20/4 39/21/4 40/22/4 20/23/4 21/24/4
f 43/25/4 44/26/4 11/27/4 22/28/4 19/29/4
f 2/30/5 5/31/5 4/32/5 1/33/5
f 23/5/1 38/34/1 45/35/1 15/36/1 25/37/1
f 11/27/3 44/26/3 42/19/3 12/17/3
f 7/38/6 1/39/6 4/32/6 12/17/6 34/40/6 33/41/6 32/42/6 31/43/6
f 5/31/3 11/27/3 12/17/3 4/32/3
f 49/30/1 9/30/1 10/31/1 52/31/1
f 1/44/7 7/7/7 8/20/7 2/45/7
f 12/17/5 17/17/5 18/46/5 35/47/5 34/40/5
f 13/48/5 14/38/5 7/38/5 31/43/5 36/49/5
f 26/50/1 16/51/1 48/52/1 41/53/1 24/12/1
f 7/7/7 37/9/7 39/54/7 8/20/7
f 16/55/8 18/46/8 17/17/8 47/18/8 48/56/8
f 15/57/6 13/48/6 36/49/6 25/58/6
f 18/46/6 16/55/6 26/59/6 35/47/6
f 36/60/3 31/61/3 32/62/3 3/45/3 27/63/3 23/64/3 25/65/3
f 24/66/7 30/67/7 6/31/7 33/68/7 34/69/7 35/70/7 26/71/7
f 33/68/1 6/31/1 3/30/1 32/72/1
f 27/63/9 3/45/9 9/45/9 29/63/9
f 10/31/10 6/31/10 30/67/10 28/67/10
f 6/31/1 10/31/1 9/30/1 3/30/1
f 11/27/11 5/31/11 2/45/11 8/20/11 21/24/11 50/24/11 51/28/11 22/28/11
f 51/73/7 52/31/7 10/31/7 28/67/7 19/74/7 22/73/7
f 38/4/12 40/3/12 39/75/12 37/76/12
f 42/19/13 44/26/13 43/14/13 41/13/13
f 37/76/12 46/76/12 45/35/12 38/34/12
f 41/53/13 48/52/13 47/19/13 42/18/13
f 37/9/7 7/7/7 14/10/7 46/9/7
f 49/77/14 52/78/14 51/28/14 50/24/14
f 29/63/3 9/45/3 49/45/3 50/79/3 21/79/3 20/80/3
f 58/81/15 55/75/15 60/82/15 62/83/15
f 54/45/16 55/84/16 58/81/16 57/31/16
f 53/44/7 59/85/7 61/86/7 60/87/7 55/84/7 54/45/7
f 54/30/5 57/31/5 56/32/5 53/33/5
f 57/31/3 58/81/3 62/88/3 64/89/3 63/90/3 56/32/3
f 62/83/17 60/82/17 61/76/17 64/91/17
f 64/91/18 61/92/18 59/93/18 63/90/18
f 56/32/19 63/90/19 59/93/19 53/39/19
f 65/44/7 66/8/7 68/84/7 67/45/7
f 70/31/20 67/30/20 72/30/20 73/31/20
f 70/31/3 90/94/3 91/95/3 69/32/3
f 69/32/6 91/95/6 81/96/6 86/97/6 66/92/6 65/39/6
f 67/30/5 70/31/5 69/32/5 65/33/5
f 68/75/21 85/98/21 84/99/21 71/75/21
f 67/45/7 68/84/7 71/84/7 72/45/7
f 73/31/5 72/30/5 75/30/5 76/31/5
f 71/75/1 84/99/1 82/99/1 74/75/1
f 72/45/7 71/84/7 74/84/7 75/45/7
f 78/45/22 77/84/22 83/100/22 80/101/22 87/102/22 79/31/22
f 76/31/23 75/30/23 78/30/23 79/31/23
f 74/75/24 82/99/24 83/103/24 77/75/24
f 75/45/7 74/84/7 77/84/7 78/45/7
f 87/102/3 88/104/3 76/31/3 79/31/3
f 88/104/3 89/104/3 73/31/3 76/31/3
f 89/104/3 90/94/3 70/31/3 73/31/3
f 86/105/1 85/98/1 68/75/1 66/76/1
