# Blender 4.4.3
# www.blender.org
mtllib Stick3.mtl
o Cylinder.006
v -0.000655 1.032432 2.048157
v 0.051055 1.011014 2.048157
v 0.072474 0.959304 2.048157
v 0.051055 0.907594 2.048157
v -0.000655 0.886175 2.048157
v -0.052365 0.907594 2.048157
v -0.073784 0.959304 2.048157
v -0.052365 1.011014 2.048157
v -0.000655 1.033064 2.134840
v -0.000655 1.061185 2.093144
v 0.051501 1.011460 2.134840
v 0.071386 1.031345 2.093144
v 0.073105 0.959304 2.134840
v 0.101226 0.959304 2.093144
v 0.051501 0.907148 2.134840
v 0.071386 0.887263 2.093144
v -0.000655 0.885544 2.134840
v -0.000655 0.857423 2.093144
v -0.052811 0.907148 2.134840
v -0.072696 0.887263 2.093144
v -0.074415 0.959304 2.134840
v -0.102536 0.959304 2.093144
v -0.052811 1.011460 2.134840
v -0.072696 1.031345 2.093144
v -0.000655 1.061185 2.048157
v 0.071386 1.031344 2.048157
v 0.101226 0.959304 2.048157
v 0.071386 0.887263 2.048157
v -0.000655 0.857423 2.048157
v -0.072696 0.887263 2.048157
v -0.102536 0.959304 2.048157
v -0.072696 1.031344 2.048157
v -0.000655 1.032432 0.960830
v 0.051055 1.011013 0.960830
v 0.072474 0.959304 0.960830
v 0.051055 0.907594 0.960830
v -0.000655 0.886175 0.960830
v -0.052365 0.907594 0.960830
v -0.073784 0.959304 0.960830
v -0.052365 1.011013 0.960830
vn -0.3827 0.9239 -0.0000
vn 0.9239 -0.3827 -0.0000
vn 0.3827 -0.9239 -0.0000
vn -0.3827 -0.9239 -0.0000
vn -0.9239 -0.3827 -0.0000
vn -0.9239 0.3827 -0.0000
vn 0.3827 0.9239 -0.0000
vn 0.9239 0.3827 -0.0000
vn 0.5862 0.5862 0.5592
vn -0.0000 0.8291 0.5592
vn 0.8291 -0.0000 0.5592
vn 0.5862 -0.5862 0.5592
vn -0.0000 -0.8291 0.5592
vn -0.5862 -0.5862 0.5592
vn -0.8291 -0.0000 0.5592
vn -0.5862 0.5862 0.5592
vn -0.0000 -0.0000 1.0000
vn -0.0000 -0.0000 -1.0000
vt 0.125000 0.500000
vt 0.125000 0.922008
vt 0.000000 0.922008
vt 0.000000 0.500000
vt 0.750000 0.500000
vt 0.750000 0.922008
vt 0.625000 0.922008
vt 0.625000 0.500000
vt 0.500000 0.922008
vt 0.500000 0.500000
vt 0.375000 0.922008
vt 0.375000 0.500000
vt 0.250000 0.922008
vt 0.250000 0.500000
vt 1.000000 0.500000
vt 1.000000 0.922008
vt 0.875000 0.922008
vt 0.875000 0.500000
vt 0.875000 0.922008
vt 0.628188 0.371812
vt 0.750000 0.422268
vt 0.419706 0.419706
vt 0.250000 0.490000
vt 0.250000 0.423755
vt 0.372864 0.372864
vt 0.490000 0.250000
vt 0.423755 0.250000
vt 0.419706 0.080294
vt 0.372864 0.127136
vt 0.250000 0.010000
vt 0.250000 0.076245
vt 0.080294 0.080294
vt 0.127136 0.127136
vt 0.010000 0.250000
vt 0.076245 0.250000
vt 0.080294 0.419706
vt 0.127136 0.372864
vt 0.871812 0.371812
vt 0.750000 0.490000
vt 0.919706 0.419706
vt 0.922268 0.250000
vt 0.990000 0.250000
vt 0.871812 0.128188
vt 0.919706 0.080294
vt 0.750000 0.077732
vt 0.750000 0.010000
vt 0.628188 0.128188
vt 0.580294 0.080294
vt 0.577731 0.250000
vt 0.510000 0.250000
vt 0.580294 0.419706
s 1
f 32/1/1 24/2/1 10/3/1 25/4/1
f 27/5/2 14/6/2 16/7/2 28/8/2
f 28/8/3 16/7/3 18/9/3 29/10/3
f 29/10/4 18/9/4 20/11/4 30/12/4
f 30/12/5 20/11/5 22/13/5 31/14/5
f 31/14/6 22/13/6 24/2/6 32/1/6
f 25/15/7 10/16/7 12/17/7 26/18/7
f 26/18/8 12/19/8 14/6/8 27/5/8
f 8/20/1 1/21/1 33/21/1 40/20/1
f 12/22/9 10/23/10 9/24/10 11/25/9
f 14/26/11 12/22/9 11/25/9 13/27/11
f 16/28/12 14/26/11 13/27/11 15/29/12
f 18/30/13 16/28/12 15/29/12 17/31/13
f 20/32/14 18/30/13 17/31/13 19/33/14
f 22/34/15 20/32/14 19/33/14 21/35/15
f 24/36/16 22/34/15 21/35/15 23/37/16
f 10/23/10 24/36/16 23/37/16 9/24/10
f 11/25/17 9/24/17 23/37/17 21/35/17 19/33/17 17/31/17 15/29/17 13/27/17
f 2/38/18 1/21/18 25/39/18 26/40/18
f 3/41/18 2/38/18 26/40/18 27/42/18
f 4/43/18 3/41/18 27/42/18 28/44/18
f 5/45/18 4/43/18 28/44/18 29/46/18
f 6/47/18 5/45/18 29/46/18 30/48/18
f 7/49/18 6/47/18 30/48/18 31/50/18
f 8/20/18 7/49/18 31/50/18 32/51/18
f 1/21/18 8/20/18 32/51/18 25/39/18
f 33/21/18 34/38/18 35/41/18 36/43/18 37/45/18 38/47/18 39/49/18 40/20/18
f 6/47/5 7/49/5 39/49/5 38/47/5
f 4/43/3 5/45/3 37/45/3 36/43/3
f 2/38/8 3/41/8 35/41/8 34/38/8
f 7/49/6 8/20/6 40/20/6 39/49/6
f 5/45/4 6/47/4 38/47/4 37/45/4
f 3/41/2 4/43/2 36/43/2 35/41/2
f 1/21/7 2/38/7 34/38/7 33/21/7
