# Blender 4.4.3
# www.blender.org
mtllib Glass.mtl
o Cylinder.018
v -0.311674 0.109005 -0.401084
v -0.311674 0.126966 -0.408815
v -0.331631 0.117272 -0.401084
v -0.318931 0.129972 -0.408815
v -0.339897 0.137228 -0.401084
v -0.321936 0.137228 -0.408815
v -0.331631 0.157184 -0.401084
v -0.318931 0.144484 -0.408815
v -0.311674 0.165451 -0.401084
v -0.311674 0.147490 -0.408815
v -0.291718 0.157184 -0.401084
v -0.304418 0.144484 -0.408815
v -0.283452 0.137228 -0.401084
v -0.301413 0.137228 -0.408815
v -0.291718 0.117272 -0.401084
v -0.304418 0.129972 -0.408815
v -0.331631 0.117272 -0.406497
v -0.311674 0.109005 -0.406497
v -0.339897 0.137228 -0.406497
v -0.331631 0.157184 -0.406497
v -0.311674 0.165451 -0.406497
v -0.291718 0.157184 -0.406497
v -0.283452 0.137228 -0.406497
v -0.291718 0.117272 -0.406497
v -0.311674 0.118076 -0.251551
v -0.311674 0.130264 -0.245164
v -0.298132 0.123685 -0.251551
v -0.306750 0.132304 -0.245164
v -0.292522 0.137228 -0.251551
v -0.304711 0.137228 -0.245164
v -0.298132 0.150771 -0.251551
v -0.306750 0.142152 -0.245164
v -0.311674 0.156380 -0.251551
v -0.311674 0.144192 -0.245164
v -0.325217 0.150771 -0.251551
v -0.316599 0.142152 -0.245164
v -0.330827 0.137228 -0.251551
v -0.318638 0.137228 -0.245164
v -0.325217 0.123685 -0.251551
v -0.316599 0.132304 -0.245164
v -0.298132 0.123685 -0.247079
v -0.311674 0.118076 -0.247079
v -0.292522 0.137228 -0.247079
v -0.298132 0.150771 -0.247079
v -0.311674 0.156380 -0.247079
v -0.325217 0.150771 -0.247079
v -0.330827 0.137228 -0.247079
v -0.325217 0.123685 -0.247079
vn -0.3827 -0.9239 -0.0000
vn -0.9239 -0.3827 -0.0000
vn -0.9239 0.3827 -0.0000
vn -0.3827 0.9239 -0.0000
vn 0.3827 0.9239 -0.0000
vn 0.9239 0.3827 -0.0000
vn -0.0000 -0.0000 -1.0000
vn 0.9239 -0.3827 -0.0000
vn 0.3827 -0.9239 -0.0000
vn -0.0000 -0.0000 1.0000
vn -0.0529 -0.1278 -0.9904
vn -0.1278 -0.0529 -0.9904
vn -0.1278 0.0529 -0.9904
vn -0.0529 0.1278 -0.9904
vn 0.0529 0.1278 -0.9904
vn 0.1278 0.0529 -0.9904
vn 0.1278 -0.0529 -0.9904
vn 0.0529 -0.1278 -0.9904
vn 0.0641 -0.1549 0.9859
vn 0.1549 -0.0641 0.9859
vn 0.1549 0.0641 0.9859
vn 0.0641 0.1549 0.9859
vn -0.0641 0.1549 0.9859
vn -0.1549 0.0641 0.9859
vn -0.1549 -0.0641 0.9859
vn -0.0641 -0.1549 0.9859
vt 1.000000 0.500000
vt 1.000000 1.000000
vt 0.875000 1.000000
vt 0.875000 0.500000
vt 0.750000 1.000000
vt 0.750000 0.500000
vt 0.625000 1.000000
vt 0.625000 0.500000
vt 0.500000 1.000000
vt 0.500000 0.500000
vt 0.375000 1.000000
vt 0.375000 0.500000
vt 0.250000 1.000000
vt 0.250000 0.500000
vt 0.346002 0.346002
vt 0.250000 0.385767
vt 0.153998 0.346002
vt 0.114233 0.250000
vt 0.153998 0.153998
vt 0.250000 0.114233
vt 0.346002 0.153998
vt 0.385767 0.250000
vt 0.125000 1.000000
vt 0.125000 0.500000
vt 0.000000 1.000000
vt 0.000000 0.500000
vt 0.750000 0.490000
vt 0.919706 0.419706
vt 0.990000 0.250000
vt 0.919706 0.080294
vt 0.750000 0.010000
vt 0.580294 0.080294
vt 0.510000 0.250000
vt 0.580294 0.419706
vt 0.419706 0.419706
vt 0.250000 0.490000
vt 0.490000 0.250000
vt 0.419706 0.080294
vt 0.250000 0.010000
vt 0.080294 0.080294
vt 0.010000 0.250000
vt 0.080294 0.419706
s 0
f 1/1/1 3/4/1 17/3/1 18/2/1
f 3/4/2 5/6/2 19/5/2 17/3/2
f 5/6/3 7/8/3 20/7/3 19/5/3
f 7/8/4 9/10/4 21/9/4 20/7/4
f 9/10/5 11/12/5 22/11/5 21/9/5
f 11/12/6 13/14/6 23/13/6 22/11/6
f 4/15/7 6/22/7 8/21/7 10/20/7 12/19/7 14/18/7 16/17/7 2/16/7
f 13/14/8 15/24/8 24/23/8 23/13/8
f 15/24/9 1/26/9 18/25/9 24/23/9
f 1/27/10 15/34/10 13/33/10 11/32/10 9/31/10 7/30/10 5/29/10 3/28/10
f 2/16/11 18/36/11 17/35/11 4/15/11
f 4/15/12 17/35/12 19/37/12 6/22/12
f 6/22/13 19/37/13 20/38/13 8/21/13
f 8/21/14 20/38/14 21/39/14 10/20/14
f 10/20/15 21/39/15 22/40/15 12/19/15
f 12/19/16 22/40/16 23/41/16 14/18/16
f 14/18/17 23/41/17 24/42/17 16/17/17
f 16/17/18 24/42/18 18/36/18 2/16/18
f 25/1/9 27/4/9 41/3/9 42/2/9
f 27/4/8 29/6/8 43/5/8 41/3/8
f 29/6/6 31/8/6 44/7/6 43/5/6
f 31/8/5 33/10/5 45/9/5 44/7/5
f 33/10/4 35/12/4 46/11/4 45/9/4
f 35/12/3 37/14/3 47/13/3 46/11/3
f 28/15/10 30/22/10 32/21/10 34/20/10 36/19/10 38/18/10 40/17/10 26/16/10
f 37/14/2 39/24/2 48/23/2 47/13/2
f 39/24/1 25/26/1 42/25/1 48/23/1
f 25/27/7 39/34/7 37/33/7 35/32/7 33/31/7 31/30/7 29/29/7 27/28/7
f 26/16/19 42/36/19 41/35/19 28/15/19
f 28/15/20 41/35/20 43/37/20 30/22/20
f 30/22/21 43/37/21 44/38/21 32/21/21
f 32/21/22 44/38/22 45/39/22 34/20/22
f 34/20/23 45/39/23 46/40/23 36/19/23
f 36/19/24 46/40/24 47/41/24 38/18/24
f 38/18/25 47/41/25 48/42/25 40/17/25
f 40/17/26 48/42/26 42/36/26 26/16/26
