# Blender 4.4.3
# www.blender.org
mtllib Neon.mtl
o Cylinder.019
v -0.306262 0.167602 -0.374975
v -0.299798 0.159865 -0.303272
v -0.303823 0.166194 -0.374975
v -0.297359 0.158457 -0.303272
v -0.303823 0.163378 -0.374975
v -0.297359 0.155641 -0.303272
v -0.306262 0.161970 -0.374975
v -0.299798 0.154233 -0.303272
v -0.308701 0.163378 -0.374975
v -0.302237 0.155641 -0.303272
v -0.308701 0.166194 -0.374975
v -0.302237 0.158457 -0.303272
v -0.311539 0.170341 -0.421806
v -0.311373 0.171912 -0.420335
v -0.308934 0.170504 -0.420335
v -0.310578 0.169787 -0.421806
v -0.308934 0.167688 -0.420335
v -0.310578 0.168678 -0.421806
v -0.311373 0.166280 -0.420335
v -0.311539 0.168123 -0.421806
v -0.313812 0.167688 -0.420335
v -0.312499 0.168678 -0.421806
v -0.313812 0.170504 -0.420335
v -0.312499 0.169787 -0.421806
vn 0.4994 0.8650 0.0483
vn 0.9960 -0.0000 -0.0898
vn 0.4953 -0.8578 -0.1372
vn -0.4994 -0.8650 -0.0483
vn -0.0000 -0.0000 1.0000
vn -0.9960 -0.0000 0.0898
vn -0.4953 0.8578 0.1372
vn -0.4998 -0.8657 -0.0259
vn -0.4953 0.8578 0.1373
vn 0.9937 -0.0000 -0.1120
vn -0.9937 -0.0000 0.1120
vn 0.4953 -0.8578 -0.1373
vn -0.0000 -0.0000 -1.0000
vn 0.3568 0.6180 -0.7005
vn 0.6667 -0.0000 -0.7453
vn 0.3294 -0.5706 -0.7523
vn -0.3485 -0.6035 -0.7171
vn -0.7460 -0.0000 -0.6659
vn -0.3774 0.6537 -0.6559
vn 0.4998 0.8657 0.0259
vt 1.000000 0.500000
vt 1.000000 1.000000
vt 0.833333 1.000000
vt 0.833333 0.500000
vt 0.666667 1.000000
vt 0.666667 0.500000
vt 0.500000 1.000000
vt 0.500000 0.500000
vt 0.333333 1.000000
vt 0.333333 0.500000
vt 0.457846 0.370000
vt 0.250000 0.490000
vt 0.042154 0.370000
vt 0.042154 0.130000
vt 0.250000 0.010000
vt 0.457846 0.130000
vt 0.166667 1.000000
vt 0.166667 0.500000
vt -0.000000 1.000000
vt -0.000000 0.500000
vt 0.166667 0.500000
vt 0.750000 0.344519
vt 0.831856 0.297259
vt 0.831856 0.202741
vt 0.750000 0.155481
vt 0.668144 0.202741
vt 0.668144 0.297259
vt 0.765609 0.480988
vt 0.957846 0.370000
vt 0.957846 0.358411
vt 0.957846 0.130000
vt 0.755573 0.013218
vt 0.750000 0.010000
vt 0.557764 0.120988
vt 0.542154 0.130000
vt 0.542154 0.358412
vt 0.547727 0.373217
vt 0.750000 0.490000
vt 0.833333 0.500000
s 0
f 1/1/1 2/2/1 4/3/1 3/4/1
f 3/4/2 4/3/2 6/5/2 5/6/2
f 5/6/3 6/5/3 8/7/3 7/8/3
f 7/8/4 8/7/4 10/9/4 9/10/4
f 4/11/5 2/12/5 12/13/5 10/14/5 8/15/5 6/16/5
f 9/10/6 10/9/6 12/17/6 11/18/6
f 11/18/7 12/17/7 2/19/7 1/20/7
f 7/8/8 9/10/8 21/10/8 19/8/8
f 11/18/9 1/20/9 14/20/9 23/21/9
f 3/4/10 5/6/10 17/6/10 15/4/10
f 9/10/11 11/18/11 23/18/11 21/10/11
f 5/6/12 7/8/12 19/8/12 17/6/12
f 13/22/13 16/23/13 18/24/13 20/25/13 22/26/13 24/27/13
f 14/28/14 15/29/14 16/23/14 13/22/14
f 15/30/15 17/31/15 18/24/15 16/23/15
f 17/31/16 19/32/16 20/25/16 18/24/16
f 19/33/17 21/34/17 22/26/17 20/25/17
f 21/35/18 23/36/18 24/27/18 22/26/18
f 23/37/19 14/38/19 13/22/19 24/27/19
f 1/1/20 3/4/20 15/39/20 14/1/20
