# Blender v3.0.0 OBJ File: 'G36C.blend'
# www.blender.org
mtllib Lid.mtl
o Cube.009_Cube.021
v -0.042551 0.439067 0.856621
v -0.042551 0.471291 0.856621
v 0.042551 0.439067 0.856621
v 0.042551 0.471291 0.856621
v -0.042551 0.439067 0.754218
v -0.033408 0.439067 0.742070
v -0.033408 0.471291 0.742070
v -0.042551 0.471291 0.754218
v 0.033408 0.439067 0.742070
v 0.042551 0.439067 0.754218
v 0.042551 0.471291 0.754218
v 0.033408 0.471291 0.742070
v 0.042551 0.503002 0.856621
v -0.042551 0.503002 0.856621
v -0.015498 0.455956 1.129076
v -0.042551 0.453955 1.096799
v -0.015498 0.471291 1.129076
v -0.042551 0.471291 1.096799
v 0.042551 0.471291 1.096799
v 0.015498 0.471291 1.129076
v 0.042551 0.453955 1.096799
v 0.015498 0.455956 1.129076
v 0.015498 0.503002 1.129076
v 0.042551 0.503002 1.096799
v -0.042551 0.503002 1.096799
v -0.015498 0.503002 1.129076
vt 0.375000 0.276858
vt 0.625000 0.276858
vt 0.625000 0.473142
vt 0.375000 0.473142
vt 0.625000 0.526858
vt 0.651858 0.500000
vt 0.848142 0.500000
vt 0.875000 0.526858
vt 0.875000 0.750000
vt 0.625000 0.750000
vt 0.875000 0.750000
vt 0.625000 0.750000
vt 0.375000 0.000000
vt 0.625000 0.000000
vt 0.625000 0.223142
vt 0.375000 0.223142
vt 0.375000 0.526858
vt 0.375000 0.750000
vt 0.125000 0.526858
vt 0.151858 0.500000
vt 0.348142 0.500000
vt 0.125000 0.750000
vt 0.375000 0.750000
vt 0.330365 0.750000
vt 0.169635 0.750000
vt 0.125000 0.750000
vt 0.625000 0.750000
vt 0.625000 0.750000
vt 0.625000 0.955365
vt 0.625000 0.794635
vt 0.625000 0.794635
vt 0.625000 0.955365
vt 0.375000 0.794635
vt 0.375000 0.955365
vt 0.875000 0.750000
vt 0.830365 0.750000
vt 0.669635 0.750000
vt 0.625000 0.000000
vt 0.625000 0.000000
vt 0.625000 0.000000
vt 0.375000 0.000000
vt 0.625000 0.000000
vt 0.375000 0.000000
vt 0.625000 0.000000
vn 0.0000 0.0000 -1.0000
vn 0.0000 1.0000 0.0000
vn -1.0000 0.0000 0.0000
vn 1.0000 0.0000 0.0000
vn -0.7990 0.0000 -0.6013
vn 0.7990 0.0000 -0.6013
vn 0.0000 -1.0000 0.0000
vn 0.0000 -0.9981 0.0619
vn 0.0000 0.0000 1.0000
vn -0.7664 0.0000 0.6424
vn 0.7664 0.0000 0.6424
usemtl None
s off
f 6/1/1 7/2/1 12/3/1 9/4/1
f 11/5/2 12/6/2 7/7/2 8/8/2 2/9/2 4/10/2
f 4/10/1 2/9/1 14/11/1 13/12/1
f 1/13/3 2/14/3 8/15/3 5/16/3
f 10/17/4 11/5/4 4/10/4 3/18/4
f 7/2/5 6/1/5 5/16/5 8/15/5
f 11/5/6 10/17/6 9/4/6 12/3/6
f 5/19/7 6/20/7 9/21/7 10/17/7 3/18/7 1/22/7
f 1/22/8 3/18/8 21/23/8 22/24/8 15/25/8 16/26/8
f 19/27/4 4/10/4 13/12/4 24/28/4
f 17/29/9 20/30/9 23/31/9 26/32/9
f 22/33/9 20/30/9 17/29/9 15/34/9
f 13/12/2 14/11/2 25/35/2 26/36/2 23/37/2 24/28/2
f 2/14/3 18/38/3 25/39/3 14/40/3
f 3/18/4 4/10/4 19/27/4 21/23/4
f 15/41/10 17/42/10 18/38/10 16/43/10
f 20/30/11 22/33/11 21/23/11 19/27/11
f 23/31/11 20/30/11 19/27/11 24/28/11
f 25/39/10 18/38/10 17/42/10 26/44/10
f 2/14/3 1/13/3 16/43/3 18/38/3
