# Blender v3.0.0 OBJ File: 'G36C.blend'
# www.blender.org
mtllib Slide.mtl
o Cube.013_Cube.004
v -0.104446 0.207445 0.518861
v -0.080437 0.262852 0.036259
v -0.104446 0.318259 0.518861
v -0.104446 0.207445 0.013307
v -0.080437 0.275688 0.039698
v -0.104446 0.318259 0.013307
v -0.054630 0.207445 0.518861
v -0.080437 0.285085 0.049095
v -0.054630 0.318259 0.518861
v -0.054630 0.207445 0.013307
v -0.080437 0.288525 0.061931
v -0.054630 0.318259 0.013307
v -0.080437 0.285085 0.074767
v -0.080437 0.275688 0.084164
v -0.080437 0.262852 0.087604
v -0.080437 0.250016 0.084164
v -0.080437 0.240619 0.074767
v -0.080437 0.237179 0.061931
v -0.080437 0.240619 0.049095
v -0.080437 0.250016 0.039698
v -0.104446 0.262852 0.087604
v -0.104446 0.250016 0.084164
v -0.104446 0.275688 0.084164
v -0.104446 0.240619 0.074767
v -0.104446 0.285085 0.074767
v -0.104446 0.240619 0.049095
v -0.104446 0.285085 0.049095
v -0.104446 0.262852 0.036259
v -0.104446 0.250016 0.039698
v -0.104446 0.275688 0.039698
v -0.104446 0.288525 0.061931
v -0.104446 0.237179 0.061931
v -0.066784 0.262852 0.041142
v -0.104846 0.262852 0.041142
v -0.066784 0.273247 0.043927
v -0.104846 0.273247 0.043927
v -0.066784 0.280856 0.051537
v -0.104846 0.280856 0.051537
v -0.066784 0.283641 0.061931
v -0.104846 0.283641 0.061931
v -0.066784 0.280856 0.072326
v -0.104846 0.280856 0.072326
v -0.066784 0.273247 0.079935
v -0.104846 0.273247 0.079935
v -0.066784 0.262852 0.082720
v -0.104846 0.262852 0.082720
v -0.066784 0.252457 0.079935
v -0.104846 0.252457 0.079935
v -0.066784 0.244848 0.072326
v -0.104846 0.244848 0.072326
v -0.066784 0.242063 0.061931
v -0.104846 0.242063 0.061931
v -0.066784 0.244848 0.051537
v -0.104846 0.244848 0.051537
v -0.066784 0.252457 0.043927
v -0.104846 0.252457 0.043927
vt 0.449841 0.232303
vt 0.375000 0.250000
vt 0.375000 0.000000
vt 0.625000 0.000000
vt 0.625000 0.250000
vt 0.550159 0.232303
vt 0.557918 0.225955
vt 0.550159 0.219607
vt 0.528959 0.214960
vt 0.500000 0.213260
vt 0.471041 0.214960
vt 0.449841 0.219607
vt 0.442082 0.225955
vt 0.471041 0.236949
vt 0.500000 0.238650
vt 0.528959 0.236949
vt 0.625000 0.500000
vt 0.375000 0.500000
vt 0.625000 0.750000
vt 0.375000 0.750000
vt 0.625000 1.000000
vt 0.375000 1.000000
vt 0.125000 0.500000
vt 0.125000 0.750000
vt 0.875000 0.500000
vt 0.875000 0.750000
vt 1.000000 0.865487
vt 1.000000 0.500000
vt 0.916667 0.500000
vt 0.916667 0.865487
vt 0.833333 0.500000
vt 0.833333 0.865487
vt 0.750000 0.500000
vt 0.750000 0.865487
vt 0.666667 0.500000
vt 0.666667 0.865487
vt 0.583333 0.500000
vt 0.583333 0.865487
vt 0.500000 0.500000
vt 0.500000 0.865487
vt 0.416667 0.500000
vt 0.416667 0.865487
vt 0.333333 0.500000
vt 0.333333 0.865487
vt 0.250000 0.500000
vt 0.250000 0.865487
vt 0.166667 0.500000
vt 0.166667 0.865487
vt 0.083333 0.500000
vt 0.083333 0.865487
vt 0.000000 0.500000
vt 0.000000 0.865487
vt 0.990000 0.250000
vt 0.957846 0.130000
vt 0.870000 0.042154
vt 0.750000 0.010000
vt 0.870000 0.042154
vt 0.957846 0.130000
vt 0.990000 0.250000
vt 0.957846 0.370000
vt 0.630000 0.457846
vt 0.750000 0.490000
vt 0.630000 0.457846
vt 0.957846 0.370000
vt 1.000000 0.500000
vt 1.000000 1.000000
vt 0.916667 1.000000
vt 0.916667 0.500000
vt 0.833333 1.000000
vt 0.833333 0.500000
vt 0.750000 1.000000
vt 0.750000 0.500000
vt 0.666667 1.000000
vt 0.666667 0.500000
vt 0.583333 1.000000
vt 0.583333 0.500000
vt 0.500000 1.000000
vt 0.500000 0.500000
vt 0.416667 1.000000
vt 0.416667 0.500000
vt 0.333333 1.000000
vt 0.333333 0.500000
vt 0.250000 1.000000
vt 0.250000 0.500000
vt 0.166667 1.000000
vt 0.166667 0.500000
vt 0.370000 0.457846
vt 0.250000 0.490000
vt 0.130000 0.457846
vt 0.042154 0.370000
vt 0.010000 0.250000
vt 0.042154 0.130000
vt 0.130000 0.042154
vt 0.250000 0.010000
vt 0.370000 0.042154
vt 0.457846 0.130000
vt 0.490000 0.250000
vt 0.457846 0.370000
vt 0.083333 1.000000
vt 0.083333 0.500000
vt 0.000000 1.000000
vt 0.000000 0.500000
vt 0.750000 0.490000
vt 0.870000 0.457846
vt 0.957846 0.370000
vt 0.990000 0.250000
vt 0.957846 0.130000
vt 0.870000 0.042154
vt 0.750000 0.010000
vt 0.630000 0.042154
vt 0.542154 0.130000
vt 0.510000 0.250000
vt 0.542154 0.370000
vt 0.630000 0.457846
vn -1.0000 -0.0000 0.0000
vn 0.0000 0.0000 -1.0000
vn 1.0000 0.0000 0.0000
vn 0.0000 0.0000 1.0000
vn 0.0000 -1.0000 0.0000
vn 0.0000 1.0000 0.0000
vn 0.0000 -0.2588 0.9659
vn 0.0000 -0.7071 0.7071
vn 0.0000 -0.9659 0.2588
vn 0.0000 -0.9659 -0.2588
vn 0.0000 -0.7071 -0.7071
vn 0.0000 -0.2588 -0.9659
vn 0.0000 0.2588 -0.9659
vn 0.0000 0.7071 -0.7071
vn 0.0000 0.9659 -0.2588
vn 0.0000 0.9659 0.2588
vn 0.0000 0.7071 0.7071
vn 0.0000 0.2588 0.9659
usemtl None
s off
f 26/1/1 4/2/1 1/3/1 3/4/1 6/5/1 27/6/1 31/7/1 25/8/1 23/9/1 21/10/1 22/11/1 24/12/1 32/13/1
f 27/6/1 6/5/1 4/2/1 26/1/1 29/14/1 28/15/1 30/16/1
f 4/2/2 6/5/2 12/17/2 10/18/2
f 10/18/3 12/17/3 9/19/3 7/20/3
f 7/20/4 9/19/4 3/21/4 1/22/4
f 4/23/5 10/18/5 7/20/5 1/24/5
f 12/17/6 6/25/6 3/26/6 9/19/6
f 28/27/7 2/28/7 5/29/7 30/30/7
f 30/30/8 5/29/8 8/31/8 27/32/8
f 27/32/9 8/31/9 11/33/9 31/34/9
f 31/34/10 11/33/10 13/35/10 25/36/10
f 25/36/11 13/35/11 14/37/11 23/38/11
f 23/38/12 14/37/12 15/39/12 21/40/12
f 21/40/13 15/39/13 16/41/13 22/42/13
f 22/42/14 16/41/14 17/43/14 24/44/14
f 24/44/15 17/43/15 18/45/15 32/46/15
f 32/46/16 18/45/16 19/47/16 26/48/16
f 26/48/17 19/47/17 20/49/17 29/50/17
f 29/50/18 20/49/18 2/51/18 28/52/18
f 18/53/1 17/54/1 16/55/1 15/56/1 14/57/1 13/58/1 11/59/1 8/60/1 5/61/1 2/62/1 20/63/1 19/64/1
f 33/65/13 34/66/13 36/67/13 35/68/13
f 35/68/14 36/67/14 38/69/14 37/70/14
f 37/70/15 38/69/15 40/71/15 39/72/15
f 39/72/16 40/71/16 42/73/16 41/74/16
f 41/74/17 42/73/17 44/75/17 43/76/17
f 43/76/18 44/75/18 46/77/18 45/78/18
f 45/78/7 46/77/7 48/79/7 47/80/7
f 47/80/8 48/79/8 50/81/8 49/82/8
f 49/82/9 50/81/9 52/83/9 51/84/9
f 51/84/10 52/83/10 54/85/10 53/86/10
f 36/87/1 34/88/1 56/89/1 54/90/1 52/91/1 50/92/1 48/93/1 46/94/1 44/95/1 42/96/1 40/97/1 38/98/1
f 53/86/11 54/85/11 56/99/11 55/100/11
f 55/100/12 56/99/12 34/101/12 33/102/12
f 33/103/3 35/104/3 37/105/3 39/106/3 41/107/3 43/108/3 45/109/3 47/110/3 49/111/3 51/112/3 53/113/3 55/114/3
