# Blender 4.4.3
# www.blender.org
mtllib Barrel1.mtl
o Cylinder
v 0.000000 0.197313 -0.286872
v 0.000000 0.197313 -0.798816
v 0.024374 0.203844 -0.286872
v 0.024374 0.203844 -0.798816
v 0.042216 0.221686 -0.286872
v 0.042216 0.221687 -0.798816
v 0.048747 0.246060 -0.286872
v 0.048747 0.246060 -0.798816
v 0.042216 0.270434 -0.286872
v 0.042216 0.270434 -0.798816
v 0.024374 0.288277 -0.286872
v 0.024374 0.288277 -0.798816
v 0.000000 0.294808 -0.286872
v 0.000000 0.294808 -0.798816
v -0.024374 0.288277 -0.286872
v -0.024374 0.288277 -0.798816
v -0.042216 0.270434 -0.286872
v -0.042216 0.270434 -0.798816
v -0.048747 0.246060 -0.286872
v -0.048747 0.246060 -0.798816
v -0.042216 0.221686 -0.286872
v -0.042216 0.221687 -0.798816
v -0.024374 0.203844 -0.286872
v -0.024374 0.203844 -0.798816
v 0.000000 0.159351 -0.193597
v 0.043355 0.170968 -0.193597
v 0.075092 0.202706 -0.193597
v 0.086709 0.246060 -0.193597
v 0.075092 0.289415 -0.193597
v 0.043355 0.321153 -0.193597
v 0.000000 0.332769 -0.193597
v -0.043355 0.321153 -0.193597
v -0.075092 0.289415 -0.193597
v -0.086709 0.246060 -0.193597
v -0.075092 0.202706 -0.193597
v -0.043355 0.170968 -0.193597
v 0.000000 0.159351 0.136520
v 0.043355 0.170968 0.136520
v 0.075092 0.202706 0.136520
v 0.086709 0.246060 0.136520
v 0.075092 0.289415 0.136520
v 0.043355 0.321153 0.136520
v 0.000000 0.332769 0.136520
v -0.043355 0.321153 0.136520
v -0.075092 0.289415 0.136520
v -0.086709 0.246060 0.136520
v -0.075092 0.202706 0.136520
v -0.043355 0.170968 0.136520
v 0.000000 0.197313 -0.848208
v 0.024374 0.203844 -0.848208
v 0.042216 0.221686 -0.848208
v 0.048747 0.246060 -0.848208
v -0.033192 0.269241 -0.874726
v 0.042216 0.270434 -0.848208
v -0.040611 0.261838 -0.905470
v 0.024374 0.288276 -0.848208
v -0.015693 0.286704 -0.905470
v -0.023112 0.279301 -0.874726
v -0.040611 0.261838 -1.485055
v 0.000000 0.294807 -0.848208
v -0.033192 0.269241 -1.515799
v -0.023112 0.279301 -1.515799
v -0.024374 0.288276 -0.848208
v -0.015693 0.286704 -1.485055
v -0.042216 0.270434 -0.848208
v -0.048747 0.246060 -0.848208
v -0.042216 0.221686 -0.848208
v -0.024374 0.203844 -0.848208
v 0.033192 0.222879 -0.874726
v 0.040611 0.230282 -0.905470
v 0.015693 0.205416 -0.905470
v 0.023112 0.212819 -0.874726
v 0.040611 0.230282 -1.485055
v 0.033192 0.222879 -1.515799
v 0.023112 0.212819 -1.515799
v 0.015693 0.205416 -1.485055
v 0.023742 0.278854 -0.874726
v 0.016466 0.286397 -0.905470
v 0.040904 0.261061 -0.905470
v 0.033628 0.268604 -0.874726
v 0.016466 0.286397 -1.485055
v 0.023742 0.278854 -1.515799
v 0.033628 0.268604 -1.515799
v 0.040904 0.261061 -1.485055
v -0.023742 0.213266 -0.874726
v -0.016466 0.205723 -0.905470
v -0.040904 0.231059 -0.905470
v -0.033628 0.223516 -0.874726
v -0.016466 0.205723 -1.485055
v -0.023742 0.213266 -1.515799
v -0.033628 0.223516 -1.515799
v -0.040904 0.231059 -1.485055
v 0.018763 0.202340 -1.485055
v 0.018763 0.202340 -0.905470
v 0.024374 0.203844 -1.499821
v 0.024374 0.203844 -0.890705
v 0.028225 0.207695 -1.515799
v 0.038295 0.217765 -1.515799
v 0.028225 0.207695 -0.874726
v 0.042216 0.221686 -0.890994
v 0.042216 0.221686 -1.499531
v 0.038295 0.217765 -0.874726
v 0.043692 0.227194 -1.485055
v 0.043692 0.227194 -0.905470
v 0.043943 0.263992 -1.485055
v 0.043943 0.263992 -0.905470
v 0.042216 0.270434 -0.888353
v 0.042216 0.270434 -1.502172
v 0.028860 0.283791 -1.515799
v 0.038931 0.273719 -1.515799
v 0.024374 0.288277 -1.497192
v 0.028860 0.283791 -0.874726
v 0.038931 0.273719 -0.874726
v 0.024374 0.288276 -0.893333
v 0.019710 0.289526 -1.485055
v 0.019710 0.289526 -0.905470
v -0.018763 0.289780 -1.485055
v -0.018763 0.289780 -0.905470
v -0.024374 0.288276 -0.890705
v -0.024374 0.288277 -1.499821
v -0.038295 0.274355 -1.515799
v -0.028225 0.284425 -1.515799
v -0.042216 0.270434 -1.499531
v -0.038295 0.274355 -0.874726
v -0.028225 0.284425 -0.874726
v -0.042216 0.270434 -0.890994
v -0.043692 0.264926 -1.485055
v -0.043692 0.264926 -0.905470
v -0.043943 0.228129 -1.485055
v -0.043943 0.228128 -0.905470
v -0.042216 0.221686 -1.502172
v -0.042216 0.221686 -0.888353
v -0.038931 0.218401 -1.515799
v -0.028860 0.208329 -1.515799
v -0.038931 0.218401 -0.874726
v -0.024374 0.203844 -0.893333
v -0.024374 0.203844 -1.497192
v -0.028860 0.208329 -0.874726
v -0.019710 0.202594 -1.485055
v -0.019710 0.202594 -0.905470
v -0.015885 0.218546 -0.848208
v 0.015885 0.218546 -0.848208
v 0.000000 0.214290 -0.848208
v 0.015885 0.273574 -0.848208
v 0.031770 0.246060 -0.848208
v 0.027514 0.261945 -0.848208
v -0.031770 0.246060 -0.848208
v -0.027514 0.261945 -0.848208
v -0.015885 0.273574 -0.848208
v -0.027514 0.230175 -0.848208
v 0.000000 0.277830 -0.848208
v 0.027514 0.230175 -0.848208
v 0.024374 0.203844 -1.617274
v 0.000000 0.197313 -1.631509
v 0.042216 0.221686 -1.606854
v 0.048747 0.246060 -1.603040
v 0.042216 0.270434 -1.606854
v 0.024374 0.288277 -1.617274
v 0.000000 0.294807 -1.631509
v -0.024374 0.288277 -1.617274
v -0.042216 0.270434 -1.606854
v -0.048747 0.246060 -1.603040
v -0.042216 0.221686 -1.606854
v -0.024374 0.203844 -1.617274
v 0.015885 0.218547 -1.622232
v 0.000000 0.214290 -1.631509
v 0.027514 0.230175 -1.615441
v 0.031770 0.246060 -1.612955
v 0.027514 0.261945 -1.615441
v 0.015885 0.273574 -1.622232
v 0.000000 0.277830 -1.631509
v -0.015885 0.273574 -1.622232
v -0.027514 0.261945 -1.615441
v -0.031770 0.246060 -1.612955
v -0.027514 0.230175 -1.615441
v -0.015885 0.218547 -1.622232
vn 0.2588 -0.9659 -0.0000
vn 0.5000 -0.8660 -0.0000
vn 0.8660 -0.5000 -0.0000
vn 1.0000 -0.0000 -0.0000
vn 0.8660 0.5000 -0.0000
vn 0.5000 0.8660 -0.0000
vn 0.2588 0.9659 -0.0000
vn -0.2588 0.9659 -0.0000
vn -0.5000 0.8660 -0.0000
vn -0.8660 0.5000 -0.0000
vn -1.0000 -0.0000 -0.0000
vn -0.8660 -0.5000 -0.0000
vn -0.0000 -0.0000 -1.0000
vn -0.5000 -0.8660 -0.0000
vn -0.2588 -0.9659 -0.0000
vn -0.4631 -0.8021 -0.3770
vn -0.0000 -0.9262 -0.3770
vn 0.4631 -0.8021 -0.3770
vn 0.8021 -0.4631 -0.3770
vn 0.9262 -0.0000 -0.3770
vn -0.8021 -0.4631 -0.3770
vn -0.9262 -0.0000 -0.3770
vn -0.8021 0.4631 -0.3770
vn -0.4631 0.8021 -0.3770
vn -0.0000 0.9262 -0.3770
vn 0.4631 0.8021 -0.3770
vn 0.8021 0.4631 -0.3770
vn -0.0000 -0.0000 1.0000
vn 0.9659 -0.2588 -0.0000
vn -0.9659 -0.2588 -0.0000
vn 0.9659 0.2588 -0.0000
vn -0.7071 0.7071 -0.0000
vn 0.7071 0.7071 -0.0000
vn -0.9659 0.2588 -0.0000
vn 0.4354 -0.9002 -0.0000
vn 0.4882 -0.8727 -0.0000
vn 0.4354 -0.9003 -0.0000
vn 0.7071 -0.7071 -0.0000
vn 0.4882 0.8727 -0.0000
vn 0.4357 0.9001 -0.0000
vn -0.9003 -0.4353 -0.0000
vn -0.4357 -0.9001 -0.0000
vn -0.7071 -0.7071 -0.0000
vn -0.4882 -0.8727 -0.0000
vn -0.5748 -0.5736 -0.5836
vn -0.5746 -0.5735 -0.5839
vn 0.5746 0.5735 -0.5839
vn 0.5742 0.5736 -0.5842
vn -0.7064 0.7078 -0.0000
vn -0.7078 -0.7064 -0.0000
vn 0.5744 0.5734 0.5842
vn 0.5747 0.5734 0.5839
vn -0.5746 -0.5734 0.5839
vn -0.5745 -0.5739 0.5837
vn 0.6700 0.6685 0.3227
vn -0.6700 -0.6686 0.3227
vn 0.6700 0.6685 -0.3227
vn -0.6699 -0.6686 -0.3227
vn 0.7079 0.7063 -0.0000
vn 0.5748 0.5736 -0.5836
vn -0.5745 -0.5736 -0.5839
vn -0.5743 -0.5736 -0.5842
vn 0.7064 -0.7078 -0.0000
vn 0.7078 0.7064 -0.0000
vn -0.5747 -0.5734 0.5839
vn 0.5746 0.5735 0.5839
vn 0.5745 0.5739 0.5836
vn -0.5745 -0.5733 0.5842
vn -0.6700 -0.6685 0.3227
vn 0.6700 0.6686 0.3227
vn -0.6700 -0.6685 -0.3227
vn 0.6699 0.6686 -0.3227
vn -0.7079 -0.7063 -0.0000
vn -0.5658 0.5866 -0.5795
vn -0.5636 0.5843 -0.5839
vn 0.5637 -0.5842 -0.5839
vn 0.5614 -0.5820 -0.5883
vn 0.7197 0.6942 -0.0000
vn -0.6942 0.7198 -0.0000
vn 0.5636 -0.5843 0.5839
vn -0.5636 0.5843 0.5839
vn -0.5658 0.5866 0.5795
vn 0.5614 -0.5820 0.5883
vn 0.6571 -0.6812 0.3227
vn -0.6571 0.6812 0.3227
vn 0.6571 -0.6813 -0.3227
vn -0.6571 0.6812 -0.3227
vn 0.6942 -0.7198 -0.0000
vn 0.5636 -0.5843 -0.5839
vn -0.5614 0.5820 -0.5883
vn 0.5658 -0.5866 -0.5795
vn -0.7197 -0.6942 -0.0000
vn 0.6941 -0.7198 -0.0000
vn 0.5658 -0.5866 0.5795
vn -0.5614 0.5820 0.5883
vn -0.6571 0.6813 0.3227
vn 0.6571 -0.6813 0.3227
vn -0.6571 0.6813 -0.3227
vn 0.6571 -0.6812 -0.3227
vn -0.6942 0.7197 -0.0000
vn -0.0000 1.0000 -0.0000
vn -0.0000 -1.0000 -0.0000
vn 0.8621 0.5067 -0.0000
vn -0.5043 -0.0000 -0.8635
vn 0.5043 -0.0000 -0.8635
vt 1.000000 0.500000
vt 1.000000 1.000000
vt 0.916667 1.000000
vt 0.916667 0.500000
vt 0.833333 1.000000
vt 0.833333 0.500000
vt 0.750000 1.000000
vt 0.750000 0.500000
vt 0.666667 1.000000
vt 0.666667 0.500000
vt 0.583333 1.000000
vt 0.583333 0.500000
vt 0.500000 1.000000
vt 0.500000 0.500000
vt 0.416667 1.000000
vt 0.416667 0.500000
vt 0.333333 1.000000
vt 0.333333 0.500000
vt 0.250000 1.000000
vt 0.250000 0.500000
vt 0.166667 1.000000
vt 0.166667 0.500000
vt 0.370000 0.457846
vt 0.250000 0.490000
vt 0.130000 0.457846
vt 0.042154 0.370000
vt 0.010000 0.250000
vt 0.042154 0.130000
vt 0.130000 0.042154
vt 0.250000 0.010000
vt 0.370000 0.042154
vt 0.457846 0.130000
vt 0.490000 0.250000
vt 0.457846 0.370000
vt 0.083333 1.000000
vt 0.083333 0.500000
vt 0.000000 1.000000
vt 0.000000 0.500000
vt 0.750000 0.490000
vt 0.870000 0.457846
vt 0.957846 0.370000
vt 0.990000 0.250000
vt 0.957846 0.130000
vt 0.870000 0.042154
vt 0.750000 0.010000
vt 0.630000 0.042154
vt 0.542154 0.130000
vt 0.510000 0.250000
vt 0.542154 0.370000
vt 0.630000 0.457846
vt 0.935850 0.519416
vt 0.916667 0.514409
vt 1.000000 0.992126
vt 0.916667 0.987299
vt 0.916667 0.947474
vt 0.935850 0.942468
vt 0.833333 0.947376
vt 0.851647 0.952892
vt 0.898678 0.952892
vt 0.833333 0.983766
vt 0.851647 0.508991
vt 0.833333 0.514507
vt 0.898679 0.508991
vt 0.750000 0.982473
vt 0.814503 0.519416
vt 0.814503 0.942468
vt 0.688692 0.519416
vt 0.666667 0.513612
vt 0.666667 0.983766
vt 0.666667 0.948272
vt 0.688692 0.942468
vt 0.583333 0.987299
vt 0.583333 0.946583
vt 0.604284 0.952892
vt 0.651323 0.952892
vt 0.604284 0.508991
vt 0.583333 0.515301
vt 0.651323 0.508992
vt 0.500000 0.992126
vt 0.567387 0.519416
vt 0.567387 0.942468
vt 0.435850 0.519416
vt 0.416667 0.514409
vt 0.416667 0.987299
vt 0.416667 0.947474
vt 0.435850 0.942468
vt 0.333333 0.983766
vt 0.333333 0.947376
vt 0.351647 0.952892
vt 0.398679 0.952892
vt 0.351647 0.508992
vt 0.333333 0.514507
vt 0.398679 0.508992
vt 0.314503 0.519416
vt 0.314503 0.942468
vt 0.250000 0.982473
vt 0.188692 0.519416
vt 0.166667 0.513612
vt 0.166667 0.983766
vt 0.166667 0.948272
vt 0.188692 0.942468
vt 0.083333 0.946583
vt 0.104284 0.952892
vt 0.151323 0.952892
vt 0.083333 0.987299
vt 0.104284 0.508991
vt 0.083333 0.515301
vt 0.151323 0.508991
vt 0.067387 0.519416
vt 0.067387 0.942468
vt 0.000000 0.992126
vt 0.828207 0.385459
vt 0.750000 0.406414
vt 0.614541 0.328207
vt 0.593586 0.250000
vt 0.614541 0.171793
vt 0.671793 0.114542
vt 0.750000 0.093586
vt 0.828207 0.114542
vt 0.885459 0.171793
vt 0.906414 0.250000
vt 0.885459 0.328207
vt 0.671793 0.385459
vt 0.498272 0.750000
vt 0.618944 0.750000
vt 0.381056 0.750000
vt 0.381056 0.767816
vt 0.625000 0.506056
vt 0.618944 0.500000
vt 0.381056 0.500000
vt 0.375000 0.506056
vt 0.375000 0.743944
vt 0.625000 0.743944
vt 0.635717 0.506056
vt 0.381056 0.482184
vt 0.618944 0.482148
vt 0.364242 0.506056
vt 0.375000 0.500000
vt 0.357184 0.500000
vt 0.357199 0.503204
vt 0.625000 0.500000
vt 0.625000 0.489283
vt 0.622091 0.482133
vt 0.364242 0.743944
vt 0.357199 0.746796
vt 0.357184 0.750000
vt 0.375000 0.750000
vt 0.618944 0.767852
vt 0.622091 0.767867
vt 0.625000 0.760717
vt 0.625000 0.750000
vt 0.381056 0.802046
vt 0.381056 0.783876
vt 0.381056 0.767536
vt 0.635410 0.743944
vt 0.635410 0.506056
vt 0.381056 0.466124
vt 0.381056 0.447954
vt 0.381056 0.482464
vt 0.357746 0.503665
vt 0.363884 0.506056
vt 0.357464 0.500000
vt 0.621628 0.481624
vt 0.618944 0.481830
vt 0.625000 0.489590
vt 0.357746 0.746335
vt 0.357464 0.750000
vt 0.363884 0.743944
vt 0.621628 0.768376
vt 0.625000 0.760410
vt 0.618944 0.768170
vt 0.363885 0.506056
vt 0.618944 0.481831
vt 0.625000 0.489589
vt 1.000000 0.715126
vt 1.000000 0.516111
vt 0.916667 0.516111
vt 0.916667 0.713854
vt 0.833333 0.516111
vt 0.833333 0.712923
vt 0.750000 0.516111
vt 0.750000 0.712582
vt 0.666667 0.516111
vt 0.666667 0.712923
vt 0.583333 0.516111
vt 0.583333 0.713854
vt 0.500000 0.516111
vt 0.500000 0.715126
vt 0.416667 0.516111
vt 0.416667 0.713854
vt 0.333333 0.516111
vt 0.333333 0.712923
vt 0.250000 0.516111
vt 0.250000 0.712582
vt 0.166667 0.516111
vt 0.166667 0.712923
vt 0.083333 0.516111
vt 0.083333 0.713854
vt 0.000000 0.516111
vt 0.000000 0.715126
vt 0.402464 0.893743
vt 0.443688 0.907463
vt 0.500000 0.912485
vt 0.556312 0.907463
vt 0.597536 0.893743
vt 0.612625 0.875000
vt 0.573400 0.875000
vt 0.563567 0.887215
vt 0.536700 0.896157
vt 0.500000 0.899430
vt 0.463300 0.896157
vt 0.436433 0.887215
vt 0.426600 0.875000
vt 0.387375 0.875000
vt 0.443688 0.842537
vt 0.402464 0.856257
vt 0.436433 0.862785
vt 0.463300 0.853843
vt 0.500000 0.850570
vt 0.536700 0.853843
vt 0.563567 0.862785
vt 0.597536 0.856257
vt 0.556312 0.842537
vt 0.500000 0.837515
s 1
f 1/1/1 2/2/1 4/3/2 3/4/2
f 3/4/2 4/3/2 6/5/3 5/6/3
f 5/6/3 6/5/3 8/7/4 7/8/4
f 7/8/4 8/7/4 10/9/5 9/10/5
f 9/10/5 10/9/5 12/11/6 11/12/6
f 11/12/6 12/11/6 14/13/7 13/14/7
f 13/14/8 14/13/8 16/15/9 15/16/9
f 15/16/9 16/15/9 18/17/10 17/18/10
f 17/18/10 18/17/10 20/19/11 19/20/11
f 19/20/11 20/19/11 22/21/12 21/22/12
f 4/23/13 2/24/13 24/25/13 22/26/13 20/27/13 18/28/13 16/29/13 14/30/13 12/31/13 10/32/13 8/33/13 6/34/13
f 21/22/12 22/21/12 24/35/14 23/36/14
f 23/36/14 24/35/14 2/37/15 1/38/15
f 23/36/16 1/38/17 25/38/17 36/36/16
f 30/12/6 31/14/7 43/14/7 42/12/6
f 1/1/17 3/4/18 26/4/18 25/1/17
f 5/6/19 7/8/20 28/8/20 27/6/19
f 21/22/21 23/36/16 36/36/16 35/22/21
f 3/4/18 5/6/19 27/6/19 26/4/18
f 19/20/22 21/22/21 35/22/21 34/20/22
f 17/18/23 19/20/22 34/20/22 33/18/23
f 15/16/24 17/18/23 33/18/23 32/16/24
f 13/14/25 15/16/24 32/16/24 31/14/25
f 11/12/26 13/14/25 31/14/25 30/12/26
f 9/10/27 11/12/26 30/12/26 29/10/27
f 7/8/20 9/10/27 29/10/27 28/8/20
f 37/39/28 38/40/28 39/41/28 40/42/28 41/43/28 42/44/28 43/45/28 44/46/28 45/47/28 46/48/28 47/49/28 48/50/28
f 27/6/3 28/8/29 40/8/29 39/6/3
f 34/20/30 35/22/12 47/22/12 46/20/30
f 31/14/8 32/16/9 44/16/9 43/14/8
f 28/8/31 29/10/31 41/10/31 40/8/31
f 35/22/12 36/36/14 48/36/14 47/22/12
f 25/1/1 26/4/2 38/4/2 37/1/1
f 32/16/9 33/18/32 45/18/32 44/16/9
f 29/10/33 30/12/6 42/12/6 41/10/33
f 36/36/14 25/38/15 37/38/15 48/36/14
f 26/4/2 27/6/3 39/6/3 38/4/2
f 33/18/34 34/20/34 46/20/34 45/18/34
f 94/51/1 96/52/35 50/4/2 49/1/1 154/53/1 153/54/36 95/55/37 93/56/1
f 101/57/38 98/58/38 97/59/38 95/55/37 153/54/36 155/60/38
f 102/61/38 100/62/38 51/6/38 50/4/2 96/52/35 99/63/38
f 156/64/4 52/8/4 51/6/29 100/62/29 104/65/29 103/66/29 101/57/29 155/60/29
f 106/67/31 107/68/31 54/10/31 52/8/4 156/64/4 157/69/31 108/70/31 105/71/31
f 158/72/39 111/73/40 109/74/33 110/75/33 108/70/33 157/69/33
f 112/76/33 114/77/33 56/12/33 54/10/33 107/68/33 113/78/33
f 159/79/7 60/14/7 56/12/7 114/77/7 116/80/7 115/81/7 111/73/40 158/72/39
f 118/82/8 119/83/8 63/16/8 60/14/8 159/79/8 160/84/8 120/85/8 117/86/8
f 161/87/32 123/88/32 121/89/32 122/90/32 120/85/32 160/84/32
f 124/91/32 126/92/32 65/18/32 63/16/32 119/83/32 125/93/32
f 66/20/11 65/18/34 126/92/34 128/94/34 127/95/34 123/88/34 161/87/34 162/96/11
f 130/97/30 132/98/41 67/22/12 66/20/11 162/96/11 163/99/30 131/100/30 129/101/30
f 137/102/42 134/103/43 133/104/43 131/100/43 163/99/43 164/105/44
f 138/106/43 136/107/42 68/36/14 67/22/12 132/98/41 135/108/43
f 49/38/15 68/36/14 136/107/42 140/109/15 139/110/15 137/102/42 164/105/44 154/111/15
f 142/112/28 143/113/28 49/39/28 50/40/28 51/41/28 52/42/28 54/43/28 56/44/28 60/45/28 63/46/28 65/47/28 66/48/28 67/49/28 150/114/28 147/115/28 148/116/28 149/117/28 151/118/28 144/119/28 146/120/28 145/121/28 152/122/28
f 150/114/28 67/49/28 68/50/28 49/39/28 143/113/28 141/123/28
f 125/124/45 58/125/46 53/126/47 124/127/48
f 64/128/49 62/129/49 61/130/49 59/131/49 55/132/49 53/126/49 58/125/49 57/133/49
f 117/134/50 64/133/50 57/133/50 118/134/50
f 121/135/51 61/130/52 62/129/53 122/136/54
f 127/137/55 59/131/55 61/138/52 121/139/51 123/140/55
f 122/136/54 62/129/53 64/141/56 117/142/56 120/143/56
f 128/144/57 126/145/57 124/146/48 53/147/47 55/132/57
f 125/148/45 119/149/58 118/150/58 57/151/58 58/125/46
f 128/137/59 55/131/59 59/131/59 127/137/59
f 99/124/60 72/125/47 69/126/61 102/127/62
f 76/128/63 75/129/63 74/130/63 73/131/63 70/132/63 69/126/63 72/125/63 71/133/63
f 76/133/64 71/133/64 94/134/64 93/134/64
f 74/130/65 75/129/66 97/136/67 98/135/68
f 103/137/69 73/131/69 74/138/65 98/139/68 101/140/69
f 97/136/67 75/129/66 76/141/70 93/142/70 95/143/70
f 104/144/71 100/145/71 102/146/62 69/147/61 70/132/71
f 99/148/60 96/149/72 94/150/72 71/151/72 72/125/47
f 70/131/73 73/131/73 103/137/73 104/137/73
f 113/152/74 80/153/75 77/126/76 112/154/77
f 84/128/78 83/129/78 82/130/78 81/131/78 78/132/78 77/126/78 80/125/78 79/133/78
f 84/128/79 79/133/79 106/155/79 105/156/79
f 82/130/80 83/157/81 110/158/82 109/159/83
f 111/160/84 115/161/84 81/131/84 82/138/80 109/162/83
f 108/163/85 110/164/82 83/129/81 84/141/85 105/165/85
f 114/166/86 112/167/77 77/147/76 78/132/86 116/168/86
f 107/169/87 106/170/87 79/151/87 80/125/75 113/171/74
f 78/132/88 81/131/88 115/161/88 116/168/88
f 88/153/89 85/126/75 138/154/90 135/152/91
f 92/128/92 91/129/92 90/130/92 89/131/92 86/132/92 85/126/92 88/125/92 87/133/92
f 129/156/93 92/128/93 87/133/93 130/155/93
f 90/130/81 91/157/80 133/158/94 134/159/95
f 139/172/96 89/131/96 90/138/81 134/162/95 137/160/96
f 133/173/94 91/129/80 92/141/97 129/174/97 131/163/97
f 140/168/98 136/166/98 138/167/90 85/147/75 86/132/98
f 135/171/91 132/169/99 130/170/99 87/151/99 88/125/89
f 140/168/100 86/132/100 89/131/100 139/172/100
f 166/175/101 143/176/101 142/177/8 165/178/8
f 165/178/32 142/177/32 152/179/32 167/180/32
f 152/179/34 145/181/11 168/182/11 167/180/34
f 145/181/11 146/183/30 169/184/30 168/182/11
f 146/183/43 144/185/43 170/186/43 169/184/43
f 144/185/15 151/187/102 171/188/102 170/186/15
f 151/187/102 149/189/1 172/190/1 171/188/102
f 149/189/38 148/191/38 173/192/38 172/190/38
f 173/192/29 148/191/29 147/193/4 174/194/4
f 174/194/4 147/193/4 150/195/5 175/196/103
f 175/196/103 150/195/5 141/197/6 176/198/39
f 176/198/39 141/197/6 143/199/101 166/200/101
f 164/201/104 163/202/104 162/203/104 161/204/104 160/205/104 159/206/13 171/207/13 172/208/104 173/209/104 174/210/104 175/211/104 176/212/104 166/213/13 154/214/13
f 155/215/105 153/216/105 154/214/13 166/213/13 165/217/105 167/218/105 168/219/105 169/220/105 170/221/105 171/207/13 159/206/13 158/222/105 157/223/105 156/224/105
