# Blender 4.4.3
# www.blender.org
mtllib Stock2.mtl
o Cube.013
v -0.108746 0.275855 2.381062
v -0.035282 0.342500 2.381062
v 0.035282 0.342500 2.381062
v 0.108746 0.275855 2.381062
v -0.053079 -0.153728 2.381062
v -0.074184 -0.133224 2.381062
v 0.074184 -0.133224 2.381062
v 0.053079 -0.153728 2.381062
v -0.014607 0.282723 2.616547
v -0.035282 0.342500 2.565381
v -0.070068 0.203378 2.616547
v -0.108746 0.275855 2.565381
v 0.108746 0.275855 2.565381
v 0.070068 0.203377 2.616547
v 0.014607 0.282723 2.616547
v 0.035282 0.342500 2.565381
v -0.074242 -0.087676 2.578753
v -0.068471 0.163470 2.612530
v -0.038448 0.127300 2.618550
v -0.053079 -0.108172 2.578757
v 0.038448 0.127300 2.618550
v 0.053079 -0.108172 2.578757
v 0.068471 0.163470 2.612530
v 0.074242 -0.087676 2.578753
vn -0.0000 -0.9745 0.2246
vn -0.0000 -0.0000 -1.0000
vn -0.0000 0.0054 1.0000
vn -0.0000 1.0000 -0.0000
vn 0.6719 0.7406 -0.0000
vn -0.9928 -0.0869 0.0823
vn 0.9928 -0.0869 0.0823
vn 0.6869 -0.7082 0.1631
vn -0.4592 0.4055 0.7904
vn 0.4592 0.4055 0.7904
vn -0.0000 0.6503 0.7597
vn -0.6719 0.7406 -0.0000
vn -0.2605 -0.1336 0.9562
vn 0.2605 -0.1336 0.9562
vn -0.0000 -0.1666 0.9860
vn -0.6869 -0.7082 0.1631
vt 0.158322 0.500000
vt 0.341678 0.500000
vt 0.341678 0.695326
vt 0.158322 0.695326
vt 0.375000 0.283322
vt 0.383767 0.250000
vt 0.550886 0.250000
vt 0.625000 0.324114
vt 0.625000 0.425886
vt 0.550886 0.500000
vt 0.383767 0.500000
vt 0.375000 0.466678
vt 0.393590 0.810841
vt 0.411154 0.750000
vt 0.518615 0.750000
vt 0.577932 0.856879
vt 0.577932 0.893121
vt 0.518615 1.000000
vt 0.411154 1.000000
vt 0.393591 0.939159
vt 0.699114 0.500000
vt 0.800886 0.500000
vt 0.800886 0.692943
vt 0.699114 0.692943
vt 0.550886 0.692943
vt 0.384047 0.054686
vt 0.411154 0.000000
vt 0.518615 0.000000
vt 0.550886 0.057057
vt 0.384047 0.695314
vt 0.341678 0.695327
vt 0.625000 0.925886
vt 0.550886 1.000000
vt 0.550886 0.750000
vt 0.625000 0.824114
vt 0.625000 0.057057
vt 0.625000 0.250000
vt 0.141288 0.750000
vt 0.125000 0.750000
vt 0.125000 0.695675
vt 0.384126 0.750000
vt 0.363377 0.750000
vt 0.316408 0.750000
vt 0.183592 0.750000
vt 0.125000 0.501648
s 1
f 5/1/1 8/2/1 22/3/1 20/4/1
f 5/5/2 6/6/2 1/7/2 2/8/2 3/9/2 4/10/2 7/11/2 8/12/2
f 21/13/3 23/14/3 14/15/3 15/16/3 9/17/3 11/18/3 18/19/3 19/20/3
f 3/21/4 2/22/4 10/23/4 16/24/4
f 3/21/5 16/24/5 13/25/5 4/10/5
f 17/26/6 18/27/6 11/28/6 12/29/6 1/7/6 6/6/6
f 7/11/7 4/10/7 13/25/7 14/15/7 23/14/7 24/30/7
f 22/31/8 8/2/8 7/11/8 24/30/8
f 11/18/9 9/17/9 10/32/9 12/33/9
f 15/16/10 14/15/10 13/34/10 16/35/10
f 16/35/11 10/32/11 9/17/11 15/16/11
f 10/36/12 2/37/12 1/7/12 12/29/12
f 19/38/13 18/39/13 17/40/13 20/4/13
f 23/41/14 21/42/14 22/31/14 24/30/14
f 21/43/15 19/44/15 20/4/15 22/3/15
f 5/1/16 20/4/16 17/40/16 6/45/16
