# Blender 4.4.3
# www.blender.org
mtllib IS2.mtl
o Cube.005
v -0.247266 0.380224 0.121970
v -0.247266 0.380224 0.047143
v -0.196291 0.401339 0.121970
v -0.196291 0.401339 0.047143
v -0.175176 0.452314 0.121970
v -0.175176 0.452314 0.047143
v -0.196291 0.503290 0.121970
v -0.196291 0.503290 0.047143
v -0.247266 0.524404 0.121970
v -0.247266 0.524404 0.047143
v -0.298242 0.503290 0.121970
v -0.298242 0.503290 0.047143
v -0.319356 0.452314 0.121970
v -0.319356 0.452314 0.047143
v -0.298242 0.401339 0.121970
v -0.298242 0.401339 0.047143
v -0.247266 0.372066 0.133742
v -0.190522 0.395570 0.133742
v -0.167018 0.452314 0.133742
v -0.190522 0.509058 0.133742
v -0.247266 0.532563 0.133742
v -0.304010 0.509058 0.133742
v -0.327515 0.452314 0.133742
v -0.304010 0.395570 0.133742
v -0.247266 0.388635 0.146083
v -0.202239 0.407286 0.146083
v -0.183587 0.452314 0.146083
v -0.202239 0.497342 0.146083
v -0.247266 0.515993 0.146083
v -0.292294 0.497342 0.146083
v -0.310945 0.452314 0.146083
v -0.292294 0.407286 0.146083
v -0.247266 0.372066 0.146083
v -0.190522 0.395570 0.146083
v -0.167018 0.452314 0.146083
v -0.190522 0.509058 0.146083
v -0.247266 0.532563 0.146083
v -0.304010 0.509058 0.146083
v -0.327515 0.452314 0.146083
v -0.304010 0.395570 0.146083
v -0.247266 0.388635 0.100200
v -0.202239 0.407286 0.100200
v -0.183587 0.452314 0.100200
v -0.202239 0.497342 0.100200
v -0.247266 0.515993 0.100200
v -0.292294 0.497342 0.100200
v -0.310945 0.452314 0.100200
v -0.292294 0.407286 0.100200
vn 0.3827 -0.9239 -0.0000
vn 0.9239 -0.3827 -0.0000
vn 0.9239 0.3827 -0.0000
vn 0.3827 0.9239 -0.0000
vn -0.3827 0.9239 -0.0000
vn -0.9239 0.3827 -0.0000
vn -0.0000 -0.0000 -1.0000
vn -0.9239 -0.3827 -0.0000
vn -0.3827 -0.9239 -0.0000
vn 0.7781 0.3223 -0.5392
vn -0.7781 0.3223 -0.5392
vn 0.3223 0.7781 -0.5392
vn -0.7781 -0.3223 -0.5392
vn 0.7781 -0.3223 -0.5392
vn -0.3223 0.7781 -0.5392
vn -0.3223 -0.7781 -0.5392
vn 0.3223 -0.7781 -0.5392
vn -0.0000 -0.0000 1.0000
vt 1.000000 0.500000
vt 1.000000 1.000000
vt 0.875000 1.000000
vt 0.875000 0.500000
vt 0.750000 1.000000
vt 0.750000 0.500000
vt 0.625000 1.000000
vt 0.625000 0.500000
vt 0.500000 1.000000
vt 0.500000 0.500000
vt 0.375000 1.000000
vt 0.375000 0.500000
vt 0.250000 1.000000
vt 0.250000 0.500000
vt 0.419706 0.419706
vt 0.250000 0.490000
vt 0.080294 0.419706
vt 0.010000 0.250000
vt 0.080294 0.080294
vt 0.250000 0.010000
vt 0.419706 0.080294
vt 0.490000 0.250000
vt 0.125000 1.000000
vt 0.125000 0.500000
vt 0.000000 1.000000
vt 0.000000 0.500000
vt 0.559555 0.250000
vt 0.615335 0.384665
vt 0.884665 0.384665
vt 0.750000 0.440445
vt 0.750000 0.490000
vt 0.919706 0.419706
vt 0.940445 0.250000
vt 0.990000 0.250000
vt 0.884665 0.115335
vt 0.919706 0.080294
vt 0.750000 0.059555
vt 0.750000 0.010000
vt 0.615335 0.115335
vt 0.580294 0.080294
vt 0.510000 0.250000
vt 0.580294 0.419706
s 0
f 1/1/1 2/2/1 4/3/1 3/4/1
f 3/4/2 4/3/2 6/5/2 5/6/2
f 5/6/3 6/5/3 8/7/3 7/8/3
f 7/8/4 8/7/4 10/9/4 9/10/4
f 9/10/5 10/9/5 12/11/5 11/12/5
f 11/12/6 12/11/6 14/13/6 13/14/6
f 4/15/7 2/16/7 16/17/7 14/18/7 12/19/7 10/20/7 8/21/7 6/22/7
f 13/14/8 14/13/8 16/23/8 15/24/8
f 15/24/9 16/23/9 2/25/9 1/26/9
f 5/6/10 7/8/10 20/8/10 19/6/10
f 24/24/9 17/26/9 33/26/9 40/24/9
f 11/12/11 13/14/11 23/14/11 22/12/11
f 7/8/12 9/10/12 21/10/12 20/8/12
f 13/14/13 15/24/13 24/24/13 23/14/13
f 3/4/14 5/6/14 19/6/14 18/4/14
f 9/10/15 11/12/15 22/12/15 21/10/15
f 15/24/16 1/26/16 17/26/16 24/24/16
f 1/1/17 3/4/17 18/4/17 17/1/17
f 31/27/3 32/28/3 48/28/3 47/27/3
f 22/12/6 23/14/6 39/14/6 38/12/6
f 20/8/4 21/10/4 37/10/4 36/8/4
f 18/4/2 19/6/2 35/6/2 34/4/2
f 23/14/8 24/24/8 40/24/8 39/14/8
f 21/10/5 22/12/5 38/12/5 37/10/5
f 19/6/3 20/8/3 36/8/3 35/6/3
f 17/1/1 18/4/1 34/4/1 33/1/1
f 26/29/18 25/30/18 33/31/18 34/32/18
f 27/33/18 26/29/18 34/32/18 35/34/18
f 28/35/18 27/33/18 35/34/18 36/36/18
f 29/37/18 28/35/18 36/36/18 37/38/18
f 30/39/18 29/37/18 37/38/18 38/40/18
f 31/27/18 30/39/18 38/40/18 39/41/18
f 32/28/18 31/27/18 39/41/18 40/42/18
f 25/30/18 32/28/18 40/42/18 33/31/18
f 41/30/18 42/29/18 43/33/18 44/35/18 45/37/18 46/39/18 47/27/18 48/28/18
f 29/37/1 30/39/1 46/39/1 45/37/1
f 27/33/8 28/35/8 44/35/8 43/33/8
f 25/30/5 26/29/5 42/29/5 41/30/5
f 32/28/4 25/30/4 41/30/4 48/28/4
f 30/39/2 31/27/2 47/27/2 46/39/2
f 28/35/9 29/37/9 45/37/9 44/35/9
f 26/29/6 27/33/6 43/33/6 42/29/6
