# Blender 4.4.3
# www.blender.org
mtllib Warhead.mtl
o Cylinder.004
v 0.000000 0.478661 -2.076629
v 0.000000 0.478661 -1.459834
v 0.105817 0.450307 -2.076629
v 0.105817 0.450307 -1.459834
v 0.183281 0.372843 -2.076629
v 0.183281 0.372843 -1.459834
v 0.211635 0.267026 -2.076629
v 0.211635 0.267026 -1.459834
v 0.183281 0.161209 -2.076629
v 0.183281 0.161209 -1.459834
v 0.105817 0.083745 -2.076629
v 0.105817 0.083745 -1.459834
v -0.000000 0.055391 -2.076629
v -0.000000 0.055391 -1.459834
v -0.105817 0.083745 -2.076629
v -0.105817 0.083745 -1.459834
v -0.183281 0.161209 -2.076629
v -0.183281 0.161209 -1.459834
v -0.211635 0.267026 -2.076629
v -0.211635 0.267026 -1.459834
v -0.183281 0.372843 -2.076629
v -0.183281 0.372843 -1.459834
v -0.105817 0.450307 -2.076629
v -0.105817 0.450307 -1.459834
v -0.000000 0.342984 -2.350217
v 0.037979 0.332808 -2.350217
v 0.065782 0.305005 -2.350217
v 0.075958 0.267026 -2.350217
v 0.065782 0.229047 -2.350217
v 0.037979 0.201244 -2.350217
v -0.000000 0.191068 -2.350217
v -0.037979 0.201244 -2.350217
v -0.065782 0.229047 -2.350217
v -0.075958 0.267026 -2.350217
v -0.065782 0.305005 -2.350217
v -0.037979 0.332808 -2.350217
v 0.057299 0.366270 -1.309330
v -0.000000 0.381623 -1.309330
v 0.099244 0.324325 -1.309330
v 0.114597 0.267026 -1.309330
v 0.099244 0.209727 -1.309330
v 0.057299 0.167782 -1.309330
v -0.000000 0.152429 -1.309330
v -0.057299 0.167782 -1.309330
v -0.099244 0.209727 -1.309330
v -0.114597 0.267026 -1.309330
v -0.099244 0.324325 -1.309330
v -0.057299 0.366270 -1.309330
v 0.068547 0.385753 -1.309330
v -0.000000 0.404120 -1.309330
v 0.118727 0.335573 -1.309330
v 0.137094 0.267026 -1.309330
v 0.118727 0.198479 -1.309330
v 0.068547 0.148299 -1.309330
v -0.000000 0.129932 -1.309330
v -0.068547 0.148299 -1.309330
v -0.118727 0.198479 -1.309330
v -0.137094 0.267026 -1.309330
v -0.118727 0.335573 -1.309330
v -0.068547 0.385753 -1.309330
v 0.041247 0.338468 -0.505891
v 0.000000 0.349520 -0.505891
v 0.071442 0.308273 -0.505891
v 0.082494 0.267026 -0.505891
v 0.071442 0.225779 -0.505891
v 0.041247 0.195584 -0.505891
v -0.000000 0.184532 -0.505891
v -0.041247 0.195584 -0.505891
v -0.071442 0.225779 -0.505891
v -0.082494 0.267026 -0.505891
v -0.071442 0.308273 -0.505891
v -0.041247 0.338468 -0.505891
v 0.057299 0.366270 -0.505891
v -0.000000 0.381623 -0.505891
v 0.099244 0.324325 -0.505891
v 0.114597 0.267026 -0.505891
v 0.099244 0.209727 -0.505891
v 0.057299 0.167782 -0.505891
v -0.000000 0.152429 -0.505891
v -0.057299 0.167782 -0.505891
v -0.099244 0.209727 -0.505891
v -0.114597 0.267026 -0.505891
v -0.099244 0.324325 -0.505891
v -0.057299 0.366270 -0.505891
v 0.041247 0.338468 -0.555946
v 0.000000 0.349520 -0.555946
v 0.071442 0.308273 -0.555946
v 0.082494 0.267026 -0.555946
v 0.071442 0.225779 -0.555946
v 0.041247 0.195584 -0.555946
v 0.000000 0.184532 -0.555946
v -0.041247 0.195584 -0.555946
v -0.071442 0.225779 -0.555946
v -0.082494 0.267026 -0.555946
v -0.071442 0.308273 -0.555946
v -0.041247 0.338468 -0.555946
v 0.000000 0.478661 -2.106247
v 0.105817 0.450307 -2.106247
v 0.105817 0.450307 -1.430216
v 0.000000 0.478661 -1.430216
v 0.183281 0.372843 -2.106247
v 0.183281 0.372843 -1.430216
v 0.211635 0.267026 -2.106247
v 0.211635 0.267026 -1.430216
v 0.183281 0.161209 -2.106247
v 0.183281 0.161209 -1.430216
v 0.105817 0.083745 -2.106247
v 0.105817 0.083745 -1.430216
v -0.000000 0.055391 -2.106247
v -0.000000 0.055391 -1.430216
v -0.105817 0.083745 -2.106247
v -0.105817 0.083745 -1.430216
v -0.183281 0.161209 -2.106247
v -0.183281 0.161209 -1.430216
v -0.211635 0.267026 -2.106247
v -0.211635 0.267026 -1.430216
v -0.183281 0.372843 -2.106247
v -0.183281 0.372843 -1.430216
v -0.105817 0.450307 -2.106247
v -0.105817 0.450307 -1.430216
v 0.000000 0.469294 -2.076629
v 0.000000 0.469294 -1.459834
v 0.101134 0.442195 -1.459834
v 0.101134 0.442195 -2.076629
v 0.175169 0.368160 -1.459834
v 0.175169 0.368160 -2.076629
v 0.202268 0.267026 -1.459834
v 0.202268 0.267026 -2.076629
v 0.175169 0.165892 -1.459834
v 0.175169 0.165892 -2.076629
v 0.101134 0.091857 -1.459834
v 0.101134 0.091857 -2.076629
v -0.000000 0.064758 -1.459834
v -0.000000 0.064758 -2.076629
v -0.101134 0.091857 -1.459834
v -0.101134 0.091857 -2.076629
v -0.175169 0.165892 -1.459834
v -0.175169 0.165892 -2.076629
v -0.202268 0.267026 -1.459834
v -0.202268 0.267026 -2.076629
v -0.175169 0.368160 -1.459834
v -0.175169 0.368160 -2.076629
v -0.101134 0.442195 -1.459834
v -0.101134 0.442195 -2.076629
vn -0.0000 -0.0000 -1.0000
vn -0.0000 -0.0000 1.0000
vn 0.2224 -0.8299 0.5117
vn -0.2280 0.8509 -0.4732
vn 0.2280 0.8509 -0.4732
vn 0.8509 0.2280 -0.4732
vn -0.6229 0.6229 -0.4732
vn 0.6229 0.6229 -0.4732
vn -0.8509 0.2280 -0.4732
vn -0.8509 -0.2280 -0.4732
vn -0.6229 -0.6229 -0.4732
vn -0.2280 -0.8509 -0.4732
vn 0.2280 -0.8509 -0.4732
vn 0.6229 -0.6229 -0.4732
vn 0.8509 -0.2280 -0.4732
vn 0.7071 0.7071 -0.0000
vn 0.6075 -0.6075 0.5117
vn 0.8299 -0.2224 0.5117
vn -0.2224 0.8299 0.5117
vn 0.2224 0.8299 0.5117
vn 0.8299 0.2224 0.5117
vn -0.6075 0.6075 0.5117
vn 0.6075 0.6075 0.5117
vn -0.8299 0.2224 0.5117
vn -0.8299 -0.2224 0.5117
vn -0.6075 -0.6075 0.5117
vn -0.2224 -0.8299 0.5117
vn -0.7071 0.7071 -0.0000
vn -0.9659 -0.2588 -0.0000
vn 0.2588 -0.9659 -0.0000
vn 0.9659 0.2588 -0.0000
vn -0.9659 0.2588 -0.0000
vn -0.2588 -0.9659 -0.0000
vn 0.9659 -0.2588 -0.0000
vn 0.2588 0.9659 -0.0000
vn -0.7071 -0.7071 -0.0000
vn 0.7071 -0.7071 -0.0000
vn -0.2588 0.9659 -0.0000
vt 0.666667 0.978094
vt 0.583333 0.978094
vt 0.250000 0.521906
vt 0.333333 0.521906
vt 1.000000 0.978094
vt 0.916667 0.978094
vt 0.083333 0.978094
vt 0.000000 0.978094
vt 0.583333 0.521906
vt 0.666667 0.521906
vt 0.416667 0.978094
vt 0.333333 0.978094
vt 0.916667 0.521906
vt 1.000000 0.521906
vt 0.000000 0.521906
vt 0.083333 0.521906
vt 0.750000 0.978094
vt 0.416667 0.521906
vt 0.500000 1.000000
vt 0.583333 1.000000
vt 0.166667 0.978094
vt 0.750000 0.521906
vt 0.083333 0.500000
vt 0.000000 0.500000
vt 0.750000 0.490000
vt 0.870000 0.457846
vt 0.957846 0.370000
vt 0.990000 0.250000
vt 0.957846 0.130000
vt 0.870000 0.042154
vt 0.750000 0.010000
vt 0.630000 0.042154
vt 0.542154 0.130000
vt 0.510000 0.250000
vt 0.542154 0.370000
vt 0.630000 0.457846
vt 1.000000 0.500000
vt 0.916667 0.500000
vt 0.833333 0.500000
vt 0.750000 0.500000
vt 0.166667 0.500000
vt 0.250000 0.500000
vt 0.333333 0.500000
vt 0.416667 0.500000
vt 0.500000 0.500000
vt 0.583333 0.500000
vt 0.666667 0.500000
vt 0.423739 0.350308
vt 0.350308 0.423739
vt 0.666667 1.000000
vt 0.750000 1.000000
vt 0.000000 1.000000
vt 0.083333 1.000000
vt 0.916667 1.000000
vt 1.000000 1.000000
vt 0.833333 1.000000
vt 0.166667 1.000000
vt 0.250000 1.000000
vt 0.333333 1.000000
vt 0.416667 1.000000
vt 0.250000 0.450616
vt 0.370000 0.457846
vt 0.250000 0.490000
vt 0.457846 0.370000
vt 0.450616 0.250000
vt 0.490000 0.250000
vt 0.423739 0.149692
vt 0.457846 0.130000
vt 0.350308 0.076261
vt 0.370000 0.042154
vt 0.250000 0.049384
vt 0.250000 0.010000
vt 0.149692 0.076261
vt 0.130000 0.042154
vt 0.076261 0.149692
vt 0.042154 0.130000
vt 0.049384 0.250000
vt 0.010000 0.250000
vt 0.076261 0.350308
vt 0.042154 0.370000
vt 0.149692 0.423739
vt 0.130000 0.457846
vt 0.322208 0.124932
vt 0.375068 0.177792
vt 0.250000 0.394416
vt 0.322208 0.375068
vt 0.375068 0.322208
vt 0.394416 0.250000
vt 0.250000 0.105584
vt 0.177792 0.124932
vt 0.124932 0.177792
vt 0.105584 0.250000
vt 0.124932 0.322208
vt 0.177792 0.375068
vt 0.833333 0.521906
vt 0.833333 0.978094
vt 0.500000 0.521906
vt 0.500000 0.978094
vt 0.250000 0.978094
vt 0.166667 0.521906
s 0
f 10/1/1 12/2/1 131/2/1 129/1/1
f 19/3/2 17/4/2 138/4/2 140/3/2
f 2/5/1 4/6/1 123/6/1 122/5/1
f 24/7/1 2/8/1 122/8/1 143/7/1
f 11/9/2 9/10/2 130/10/2 132/9/2
f 16/11/1 18/12/1 137/12/1 135/11/1
f 3/13/2 1/14/2 121/14/2 124/13/2
f 1/15/2 23/16/2 144/16/2 121/15/2
f 8/17/1 10/1/1 129/1/1 127/17/1
f 17/4/2 15/18/2 136/18/2 138/4/2
f 110/19/3 108/20/3 54/20/3 55/19/3
f 22/21/1 24/7/1 143/7/1 141/21/1
f 9/10/2 7/22/2 128/22/2 130/10/2
f 119/23/4 97/24/4 25/24/4 36/23/4
f 25/25/1 26/26/1 27/27/1 28/28/1 29/29/1 30/30/1 31/31/1 32/32/1 33/33/1 34/34/1 35/35/1 36/36/1
f 97/37/5 98/38/5 26/38/5 25/37/5
f 101/39/6 103/40/6 28/40/6 27/39/6
f 117/41/7 119/23/7 36/23/7 35/41/7
f 98/38/8 101/39/8 27/39/8 26/38/8
f 115/42/9 117/41/9 35/41/9 34/42/9
f 113/43/10 115/42/10 34/42/10 33/43/10
f 111/44/11 113/43/11 33/43/11 32/44/11
f 109/45/12 111/44/12 32/44/12 31/45/12
f 107/46/13 109/45/13 31/45/13 30/46/13
f 105/47/14 107/46/14 30/46/14 29/47/14
f 103/40/15 105/47/15 29/47/15 28/40/15
f 39/48/16 37/49/16 73/49/16 75/48/16
f 108/20/17 106/50/17 53/50/17 54/20/17
f 106/50/18 104/51/18 52/51/18 53/50/18
f 100/52/19 120/53/19 60/53/19 50/52/19
f 99/54/20 100/55/20 50/55/20 49/54/20
f 104/51/21 102/56/21 51/56/21 52/51/21
f 120/53/22 118/57/22 59/57/22 60/53/22
f 102/56/23 99/54/23 49/54/23 51/56/23
f 118/57/24 116/58/24 58/58/24 59/57/24
f 116/58/25 114/59/25 57/59/25 58/58/25
f 114/59/26 112/60/26 56/60/26 57/59/26
f 112/60/27 110/19/27 55/19/27 56/60/27
f 38/61/2 37/49/2 49/62/2 50/63/2
f 37/49/2 39/48/2 51/64/2 49/62/2
f 39/48/2 40/65/2 52/66/2 51/64/2
f 40/65/2 41/67/2 53/68/2 52/66/2
f 41/67/2 42/69/2 54/70/2 53/68/2
f 42/69/2 43/71/2 55/72/2 54/70/2
f 43/71/2 44/73/2 56/74/2 55/72/2
f 44/73/2 45/75/2 57/76/2 56/74/2
f 45/75/2 46/77/2 58/78/2 57/76/2
f 46/77/2 47/79/2 59/80/2 58/78/2
f 47/79/2 48/81/2 60/82/2 59/80/2
f 48/81/2 38/61/2 50/63/2 60/82/2
f 66/83/28 65/84/28 89/84/28 90/83/28
f 46/77/29 45/75/29 81/75/29 82/77/29
f 43/71/30 42/69/30 78/69/30 79/71/30
f 40/65/31 39/48/31 75/48/31 76/65/31
f 47/79/32 46/77/32 82/77/32 83/79/32
f 44/73/33 43/71/33 79/71/33 80/73/33
f 41/67/34 40/65/34 76/65/34 77/67/34
f 48/81/28 47/79/28 83/79/28 84/81/28
f 37/49/35 38/61/35 74/61/35 73/49/35
f 45/75/36 44/73/36 80/73/36 81/75/36
f 42/69/37 41/67/37 77/67/37 78/69/37
f 38/61/38 48/81/38 84/81/38 74/61/38
f 62/85/2 61/86/2 73/49/2 74/61/2
f 61/86/2 63/87/2 75/48/2 73/49/2
f 63/87/2 64/88/2 76/65/2 75/48/2
f 64/88/2 65/84/2 77/67/2 76/65/2
f 65/84/2 66/83/2 78/69/2 77/67/2
f 66/83/2 67/89/2 79/71/2 78/69/2
f 67/89/2 68/90/2 80/73/2 79/71/2
f 68/90/2 69/91/2 81/75/2 80/73/2
f 69/91/2 70/92/2 82/77/2 81/75/2
f 70/92/2 71/93/2 83/79/2 82/77/2
f 71/93/2 72/94/2 84/81/2 83/79/2
f 72/94/2 62/85/2 74/61/2 84/81/2
f 85/86/2 86/85/2 96/94/2 95/93/2 94/92/2 93/91/2 92/90/2 91/89/2 90/83/2 89/84/2 88/88/2 87/87/2
f 62/85/30 72/94/30 96/94/30 86/85/30
f 63/87/36 61/86/36 85/86/36 87/87/36
f 70/92/31 69/91/31 93/91/31 94/92/31
f 67/89/38 66/83/38 90/83/38 91/89/38
f 64/88/29 63/87/29 87/87/29 88/88/29
f 71/93/34 70/92/34 94/92/34 95/93/34
f 68/90/35 67/89/35 91/89/35 92/90/35
f 65/84/32 64/88/32 88/88/32 89/84/32
f 72/94/37 71/93/37 95/93/37 96/94/37
f 61/86/33 62/85/33 86/85/33 85/86/33
f 69/91/16 68/90/16 92/90/16 93/91/16
f 1/14/35 3/13/35 98/38/35 97/37/35
f 4/6/35 2/5/35 100/55/35 99/54/35
f 3/13/16 5/95/16 101/39/16 98/38/16
f 6/96/16 4/6/16 99/54/16 102/56/16
f 5/95/31 7/22/31 103/40/31 101/39/31
f 8/17/31 6/96/31 102/56/31 104/51/31
f 7/22/34 9/10/34 105/47/34 103/40/34
f 10/1/34 8/17/34 104/51/34 106/50/34
f 9/10/37 11/9/37 107/46/37 105/47/37
f 12/2/37 10/1/37 106/50/37 108/20/37
f 11/9/30 13/97/30 109/45/30 107/46/30
f 14/98/30 12/2/30 108/20/30 110/19/30
f 13/97/33 15/18/33 111/44/33 109/45/33
f 16/11/33 14/98/33 110/19/33 112/60/33
f 15/18/36 17/4/36 113/43/36 111/44/36
f 18/12/36 16/11/36 112/60/36 114/59/36
f 17/4/29 19/3/29 115/42/29 113/43/29
f 20/99/29 18/12/29 114/59/29 116/58/29
f 19/3/32 21/100/32 117/41/32 115/42/32
f 22/21/32 20/99/32 116/58/32 118/57/32
f 21/100/28 23/16/28 119/23/28 117/41/28
f 24/7/28 22/21/28 118/57/28 120/53/28
f 23/16/38 1/15/38 97/24/38 119/23/38
f 2/8/38 24/7/38 120/53/38 100/52/38
f 121/14/35 122/5/35 123/6/35 124/13/35
f 124/13/16 123/6/16 125/96/16 126/95/16
f 126/95/31 125/96/31 127/17/31 128/22/31
f 128/22/34 127/17/34 129/1/34 130/10/34
f 130/10/37 129/1/37 131/2/37 132/9/37
f 132/9/30 131/2/30 133/98/30 134/97/30
f 134/97/33 133/98/33 135/11/33 136/18/33
f 136/18/36 135/11/36 137/12/36 138/4/36
f 138/4/29 137/12/29 139/99/29 140/3/29
f 140/3/32 139/99/32 141/21/32 142/100/32
f 142/100/28 141/21/28 143/7/28 144/16/28
f 144/16/38 143/7/38 122/8/38 121/15/38
f 5/95/2 3/13/2 124/13/2 126/95/2
f 18/12/1 20/99/1 139/99/1 137/12/1
f 13/97/2 11/9/2 132/9/2 134/97/2
f 4/6/1 6/96/1 125/96/1 123/6/1
f 21/100/2 19/3/2 140/3/2 142/100/2
f 12/2/1 14/98/1 133/98/1 131/2/1
f 7/22/2 5/95/2 126/95/2 128/22/2
f 20/99/1 22/21/1 141/21/1 139/99/1
f 15/18/2 13/97/2 134/97/2 136/18/2
f 6/96/1 8/17/1 127/17/1 125/96/1
f 23/16/2 21/100/2 142/100/2 144/16/2
f 14/98/1 16/11/1 135/11/1 133/98/1
