# Blender v3.0.0 OBJ File: ''
# www.blender.org
mtllib Main.mtl
o Sphere
v -0.000000 -0.649735 -1.869785
v -0.000000 -1.332786 -1.740445
v -0.000000 -1.916844 -1.372116
v -0.000000 -2.304862 -0.820873
v 0.521302 0.551744 -1.253132
v 0.681114 0.000500 -1.584985
v 0.737233 -0.649735 -1.701516
v 0.681114 -1.332786 -1.584985
v 0.521302 -1.916844 -1.253132
v 0.282127 -2.304862 -0.756480
v 0.939354 0.551744 -0.919747
v 1.227325 0.000500 -1.149397
v 1.328447 -0.649735 -1.230039
v 1.227325 -1.332786 -1.149397
v 0.939354 -1.916844 -0.919747
v 0.508375 -2.304862 -0.576053
v 1.171355 0.551744 -0.437991
v 1.530450 0.000500 -0.519952
v 1.656546 -0.649735 -0.548733
v 1.530450 -1.332786 -0.519952
v 1.171355 -1.916844 -0.437991
v 0.633933 -2.304862 -0.315328
v 1.171355 0.551744 0.096717
v 1.530450 0.000500 0.178678
v 1.656546 -0.649735 0.207459
v 1.530450 -1.332786 0.178678
v 1.171355 -1.916844 0.096717
v 0.633933 -2.304862 -0.025946
v 0.939354 0.551744 0.578473
v 1.227325 0.000500 0.808122
v 1.328447 -0.649735 0.888764
v 1.227325 -1.332786 0.808122
v 0.939354 -1.916844 0.578473
v 0.508375 -2.304862 0.234778
v 0.521302 0.551744 0.911858
v 0.681114 0.000500 1.243711
v 0.737232 -0.649735 1.360242
v 0.681114 -1.332786 1.243711
v 0.521302 -1.916844 0.911858
v 0.282127 -2.304862 0.415205
v -0.000000 0.551744 1.030841
v -0.000000 0.000500 1.399171
v -0.000000 -0.649735 1.528510
v -0.000000 -1.332786 1.399171
v -0.000000 -1.916844 1.030841
v -0.000000 -2.304862 0.479598
v -0.521302 0.551744 0.911857
v -0.681114 0.000500 1.243711
v -0.737233 -0.649735 1.360242
v -0.681114 -1.332786 1.243711
v -0.521302 -1.916844 0.911857
v -0.282127 -2.304862 0.415205
v -0.000000 -2.381698 -0.170637
v -0.939354 0.551744 0.578472
v -1.227325 0.000500 0.808122
v -1.328447 -0.649735 0.888763
v -1.227325 -1.332786 0.808122
v -0.939354 -1.916844 0.578472
v -0.508375 -2.304862 0.234778
v -1.171355 0.551744 0.096717
v -1.530450 0.000500 0.178677
v -1.656546 -0.649735 0.207458
v -1.530450 -1.332786 0.178677
v -1.171355 -1.916844 0.096717
v -0.633933 -2.304862 -0.025946
v -1.171355 0.551744 -0.437992
v -1.530449 0.000500 -0.519953
v -1.656546 -0.649735 -0.548734
v -1.530449 -1.332786 -0.519953
v -1.171355 -1.916844 -0.437992
v -0.633933 -2.304862 -0.315329
v -0.939354 0.551744 -0.919747
v -1.227325 0.000500 -1.149397
v -1.328447 -0.649735 -1.230039
v -1.227325 -1.332786 -1.149397
v -0.939354 -1.916844 -0.919747
v -0.508375 -2.304862 -0.576053
v -0.521302 0.551744 -1.253132
v -0.681114 0.000500 -1.584985
v -0.737232 -0.649735 -1.701517
v -0.681114 -1.332786 -1.584985
v -0.521302 -1.916844 -1.253132
v -0.282126 -2.304862 -0.756480
v 0.000000 0.551744 -1.372116
v 0.000001 0.000500 -1.740445
v 0.000000 0.729485 -1.106108
v 0.405886 0.729485 -1.013467
v 0.731380 0.729485 -0.753894
v 0.912016 0.729485 -0.378799
v 0.912016 0.729485 0.037525
v 0.731380 0.729485 0.412619
v 0.405885 0.729485 0.672193
v -0.000000 0.729485 0.764833
v -0.405886 0.729485 0.672192
v -0.731380 0.729485 0.412619
v -0.912016 0.729485 0.037524
v -0.912016 0.729485 -0.378799
v -0.731380 0.729485 -0.753894
v -0.405885 0.729485 -1.013467
v 0.000000 0.384824 -0.692151
v 0.354844 0.384824 -0.545170
v 0.501825 0.384824 -0.190326
v 0.354844 0.384824 0.164518
v -0.000000 0.384824 0.311499
v -0.354844 0.384824 0.164518
v -0.501825 0.384824 -0.190326
v -0.354844 0.384824 -0.545170
v 0.000000 1.183070 -0.692151
v 0.354844 1.352108 -0.545170
v 0.380354 1.422936 -0.483584
v 0.501825 1.504973 -0.190326
v 0.501825 1.504973 -0.190326
v 0.380354 1.422936 0.102932
v 0.354844 1.352108 0.164518
v -0.000000 1.183070 0.311499
v -0.354844 1.352108 0.164518
v -0.380354 1.422936 0.102932
v -0.501825 1.504973 -0.190326
v -0.501825 1.504973 -0.190326
v -0.380354 1.422936 -0.483584
v -0.354844 1.352108 -0.545170
v -0.392008 1.161418 1.089325
v -0.392008 2.332832 0.574313
v 0.392008 1.161418 1.089325
v 0.392008 2.332832 0.574313
v -0.392008 1.161418 -0.297730
v -0.017707 1.161418 -0.672032
v -0.282378 1.161418 -0.562401
v -0.017707 2.332832 -0.672032
v -0.392008 2.332832 -0.297730
v -0.282378 2.332832 -0.562401
v 0.017707 1.161418 -0.672032
v 0.392008 1.161418 -0.297730
v 0.282378 1.161418 -0.562401
v 0.392008 2.332832 -0.297730
v 0.017707 2.332832 -0.672032
v 0.282378 2.332832 -0.562401
vt 0.714286 0.250000
vt 0.714286 0.375000
vt 0.642857 0.375000
vt 0.642857 0.250000
vt 0.714286 0.500000
vt 0.714286 0.625000
vt 0.642857 0.625000
vt 0.642857 0.500000
vt 0.642857 0.810320
vt 0.642857 0.750000
vt 0.714286 0.750000
vt 0.714286 0.810320
vt 0.714286 0.125000
vt 0.642857 0.125000
vt 0.678571 0.000000
vt 0.571429 0.250000
vt 0.571429 0.125000
vt 0.571429 0.500000
vt 0.571429 0.375000
vt 0.571429 0.750000
vt 0.571429 0.625000
vt 0.607143 0.000000
vt 0.571429 0.810320
vt 0.500000 0.750000
vt 0.500000 0.625000
vt 0.535714 0.000000
vt 0.500000 0.125000
vt 0.500000 0.375000
vt 0.500000 0.250000
vt 0.500000 0.500000
vt 0.500000 0.810320
vt 0.464286 0.000000
vt 0.428571 0.125000
vt 0.428571 0.375000
vt 0.428571 0.250000
vt 0.428571 0.625000
vt 0.428571 0.500000
vt 0.428571 0.750000
vt 0.428571 0.810320
vt 0.357143 0.750000
vt 0.357143 0.810320
vt 0.357143 0.250000
vt 0.357143 0.125000
vt 0.357143 0.500000
vt 0.357143 0.375000
vt 0.357143 0.625000
vt 0.392857 0.000000
vt 0.285714 0.250000
vt 0.285714 0.125000
vt 0.285714 0.500000
vt 0.285714 0.375000
vt 0.285714 0.750000
vt 0.285714 0.625000
vt 0.321429 0.000000
vt 0.285714 0.810320
vt 0.250000 0.000000
vt 0.214286 0.125000
vt 0.214286 0.375000
vt 0.214286 0.250000
vt 0.214286 0.625000
vt 0.214286 0.500000
vt 0.214286 0.750000
vt 0.214286 0.810320
vt 0.142857 0.375000
vt 0.142857 0.250000
vt 0.142857 0.625000
vt 0.142857 0.500000
vt 0.142857 0.810320
vt 0.142857 0.750000
vt 0.142857 0.125000
vt 0.178571 0.000000
vt 0.071429 0.250000
vt 0.071429 0.125000
vt 0.071429 0.500000
vt 0.071429 0.375000
vt 0.071429 0.750000
vt 0.071429 0.625000
vt 0.107143 0.000000
vt 0.071429 0.810320
vt 0.000000 0.500000
vt 0.000000 0.375000
vt 0.000000 0.750000
vt 0.000000 0.625000
vt 0.035714 0.000000
vt 0.000000 0.125000
vt 0.000000 0.250000
vt 0.000000 0.810320
vt 0.964286 0.000000
vt 1.000000 0.125000
vt 0.928571 0.125000
vt 1.000000 0.250000
vt 1.000000 0.375000
vt 0.928571 0.375000
vt 0.928571 0.250000
vt 1.000000 0.500000
vt 1.000000 0.625000
vt 0.928571 0.625000
vt 0.928571 0.500000
vt 0.928571 0.810320
vt 0.928571 0.750000
vt 1.000000 0.750000
vt 1.000000 0.810320
vt 0.857143 0.625000
vt 0.857143 0.500000
vt 0.857143 0.810320
vt 0.857143 0.750000
vt 0.857143 0.250000
vt 0.857143 0.125000
vt 0.857143 0.375000
vt 0.892857 0.000000
vt 0.785714 0.250000
vt 0.785714 0.125000
vt 0.785714 0.500000
vt 0.785714 0.375000
vt 0.785714 0.750000
vt 0.785714 0.625000
vt 0.821429 0.000000
vt 0.785714 0.810320
vt 0.750000 0.000000
vt 0.765901 0.608610
vt 0.769828 0.616765
vt 0.769828 0.625816
vt 0.765901 0.633971
vt 0.758824 0.639614
vt 0.750000 0.641628
vt 0.741176 0.639614
vt 0.734099 0.633971
vt 0.730172 0.625816
vt 0.730172 0.616765
vt 0.734099 0.608610
vt 0.741176 0.602966
vt 0.750000 0.600952
vt 0.758824 0.602966
vt 0.875000 0.500000
vt 1.000000 0.500000
vt 1.000000 0.848049
vt 0.875000 0.921752
vt 0.853305 0.952635
vt 0.750000 0.988405
vt 0.750000 0.988405
vt 0.750000 0.500000
vt 0.646695 0.952635
vt 0.625000 0.921752
vt 0.625000 0.500000
vt 0.500000 0.848049
vt 0.500000 0.500000
vt 0.375000 0.921752
vt 0.375000 0.500000
vt 0.250000 0.500000
vt 0.353305 0.952635
vt 0.250000 0.988405
vt 0.250000 0.988405
vt 0.125000 0.500000
vt 0.146695 0.952635
vt 0.125000 0.921752
vt 0.000000 0.500000
vt 0.000000 0.848049
vt 0.580294 0.419706
vt 0.750000 0.490000
vt 0.919706 0.419706
vt 0.990000 0.250000
vt 0.919706 0.080294
vt 0.750000 0.010000
vt 0.580294 0.080294
vt 0.510000 0.250000
vt 0.174374 0.700626
vt 0.250000 0.731951
vt 0.325626 0.700626
vt 0.331062 0.687500
vt 0.168938 0.687500
vt 0.325626 0.549375
vt 0.250000 0.518049
vt 0.174374 0.549374
vt 0.168938 0.562500
vt 0.331062 0.562500
vt 0.143049 0.625000
vt 0.143049 0.625000
vt 0.356951 0.625000
vt 0.356951 0.625000
vt 0.375000 0.369354
vt 0.625000 0.369354
vt 0.625000 0.380646
vt 0.375000 0.380646
vt 0.625000 0.574115
vt 0.659958 0.521708
vt 0.744354 0.500000
vt 0.755646 0.500000
vt 0.840042 0.521708
vt 0.875000 0.574115
vt 0.875000 0.750000
vt 0.625000 0.750000
vt 0.375000 0.750000
vt 0.625000 1.000000
vt 0.375000 1.000000
vt 0.375000 0.000000
vt 0.625000 0.000000
vt 0.625000 0.175885
vt 0.375000 0.197358
vt 0.375000 0.552642
vt 0.375000 0.250000
vt 0.625000 0.250000
vt 0.375000 0.500000
vt 0.625000 0.500000
vt 0.125000 0.552642
vt 0.159958 0.515418
vt 0.244354 0.500000
vt 0.255646 0.500000
vt 0.340042 0.515419
vt 0.125000 0.750000
vn 0.1896 -0.5238 -0.8305
vn 0.2185 0.1904 -0.9571
vn 0.1258 0.8249 -0.5512
vn 0.1303 -0.8108 -0.5707
vn 0.2188 -0.1815 -0.9587
vn 0.1864 0.5458 -0.8169
vn 0.0268 -0.9927 -0.1173
vn 0.3650 -0.8108 -0.4577
vn 0.6131 -0.1815 -0.7688
vn 0.5224 0.5458 -0.6551
vn 0.0750 -0.9927 -0.0941
vn 0.5311 -0.5238 -0.6660
vn 0.6121 0.1904 -0.7675
vn 0.3525 0.8249 -0.4420
vn 0.7549 0.5458 -0.3635
vn 0.1084 -0.9927 -0.0522
vn 0.7675 -0.5238 -0.3696
vn 0.8845 0.1904 -0.4259
vn 0.5093 0.8249 -0.2453
vn 0.5274 -0.8108 -0.2540
vn 0.8860 -0.1815 -0.4267
vn 0.1203 -0.9927 -0.0000
vn 0.8519 -0.5238 0.0000
vn 0.9817 0.1904 0.0000
vn 0.5653 0.8249 0.0000
vn 0.5854 -0.8108 0.0000
vn 0.9834 -0.1815 0.0000
vn 0.8379 0.5458 0.0000
vn 0.5093 0.8249 0.2453
vn 0.5274 -0.8108 0.2540
vn 0.8860 -0.1815 0.4267
vn 0.7549 0.5458 0.3635
vn 0.1084 -0.9927 0.0522
vn 0.7675 -0.5238 0.3696
vn 0.8845 0.1904 0.4259
vn 0.3650 -0.8108 0.4577
vn 0.6131 -0.1815 0.7688
vn 0.5224 0.5458 0.6551
vn 0.0750 -0.9927 0.0941
vn 0.5311 -0.5238 0.6660
vn 0.6121 0.1904 0.7675
vn 0.3525 0.8249 0.4420
vn 0.0268 -0.9927 0.1173
vn 0.1896 -0.5238 0.8305
vn 0.2185 0.1904 0.9571
vn 0.1258 0.8249 0.5512
vn 0.1303 -0.8108 0.5707
vn 0.2188 -0.1815 0.9587
vn 0.1864 0.5458 0.8169
vn -0.1896 -0.5238 0.8305
vn -0.2185 0.1904 0.9571
vn -0.1258 0.8249 0.5512
vn -0.1303 -0.8108 0.5707
vn -0.2188 -0.1815 0.9587
vn -0.1865 0.5458 0.8169
vn -0.0268 -0.9927 0.1173
vn -0.3650 -0.8108 0.4577
vn -0.6131 -0.1815 0.7688
vn -0.5224 0.5458 0.6551
vn -0.0750 -0.9927 0.0941
vn -0.5311 -0.5238 0.6660
vn -0.6121 0.1904 0.7675
vn -0.3525 0.8249 0.4420
vn -0.8860 -0.1815 0.4267
vn -0.7549 0.5458 0.3635
vn -0.1084 -0.9927 0.0522
vn -0.7675 -0.5238 0.3696
vn -0.8845 0.1904 0.4259
vn -0.5093 0.8249 0.2453
vn -0.5274 -0.8108 0.2540
vn -0.1203 -0.9927 -0.0000
vn -0.8519 -0.5238 -0.0000
vn -0.9817 0.1904 -0.0000
vn -0.5653 0.8249 0.0000
vn -0.5854 -0.8108 0.0000
vn -0.9834 -0.1815 -0.0000
vn -0.8379 0.5458 -0.0000
vn -0.8845 0.1904 -0.4259
vn -0.5093 0.8249 -0.2453
vn -0.5274 -0.8108 -0.2540
vn -0.8860 -0.1815 -0.4267
vn -0.7549 0.5458 -0.3636
vn -0.1084 -0.9927 -0.0522
vn -0.7675 -0.5238 -0.3696
vn -0.3650 -0.8108 -0.4577
vn -0.6131 -0.1815 -0.7688
vn -0.5224 0.5458 -0.6551
vn -0.0750 -0.9927 -0.0941
vn -0.5311 -0.5238 -0.6660
vn -0.6121 0.1904 -0.7675
vn -0.3525 0.8249 -0.4420
vn -0.1864 0.5458 -0.8169
vn -0.0268 -0.9927 -0.1173
vn -0.1896 -0.5238 -0.8305
vn -0.2185 0.1904 -0.9571
vn -0.1258 0.8249 -0.5512
vn -0.1303 -0.8108 -0.5707
vn -0.2188 -0.1815 -0.9587
vn 0.0000 1.0000 -0.0000
vn 0.3827 0.0000 -0.9239
vn 0.9239 -0.0000 -0.3827
vn 0.9239 -0.0000 0.3827
vn 0.3827 0.0000 0.9239
vn -0.3827 0.0000 0.9239
vn -0.9239 0.0000 0.3827
vn -0.9239 0.0000 -0.3827
vn -0.3827 0.0000 -0.9239
vn 0.0000 -1.0000 -0.0000
vn 0.0000 0.6562 0.7546
vn 0.0000 0.6562 -0.7546
vn 0.0000 0.9630 -0.2694
vn -0.0000 0.9630 0.2694
vn 0.0000 0.0000 -1.0000
vn 0.0000 0.4025 0.9154
vn -1.0000 0.0000 0.0000
vn 1.0000 0.0000 0.0000
usemtl None
s off
f 3/1/1 2/2/1 8/3/1 9/4/1
f 1/5/2 85/6/2 6/7/2 7/8/2
f 87/9/3 5/10/3 84/11/3 86/12/3
f 4/13/4 3/1/4 9/4/4 10/14/4
f 2/2/5 1/5/5 7/8/5 8/3/5
f 85/6/6 84/11/6 5/10/6 6/7/6
f 53/15/7 4/13/7 10/14/7
f 10/14/8 9/4/8 15/16/8 16/17/8
f 8/3/9 7/8/9 13/18/9 14/19/9
f 6/7/10 5/10/10 11/20/10 12/21/10
f 53/22/11 10/14/11 16/17/11
f 9/4/12 8/3/12 14/19/12 15/16/12
f 7/8/13 6/7/13 12/21/13 13/18/13
f 88/23/14 11/20/14 5/10/14 87/9/14
f 12/21/15 11/20/15 17/24/15 18/25/15
f 53/26/16 16/17/16 22/27/16
f 15/16/17 14/19/17 20/28/17 21/29/17
f 13/18/18 12/21/18 18/25/18 19/30/18
f 89/31/19 17/24/19 11/20/19 88/23/19
f 16/17/20 15/16/20 21/29/20 22/27/20
f 14/19/21 13/18/21 19/30/21 20/28/21
f 53/32/22 22/27/22 28/33/22
f 21/29/23 20/28/23 26/34/23 27/35/23
f 19/30/24 18/25/24 24/36/24 25/37/24
f 23/38/25 17/24/25 89/31/25 90/39/25
f 22/27/26 21/29/26 27/35/26 28/33/26
f 20/28/27 19/30/27 25/37/27 26/34/27
f 18/25/28 17/24/28 23/38/28 24/36/28
f 29/40/29 23/38/29 90/39/29 91/41/29
f 28/33/30 27/35/30 33/42/30 34/43/30
f 26/34/31 25/37/31 31/44/31 32/45/31
f 24/36/32 23/38/32 29/40/32 30/46/32
f 53/47/33 28/33/33 34/43/33
f 27/35/34 26/34/34 32/45/34 33/42/34
f 25/37/35 24/36/35 30/46/35 31/44/35
f 34/43/36 33/42/36 39/48/36 40/49/36
f 32/45/37 31/44/37 37/50/37 38/51/37
f 30/46/38 29/40/38 35/52/38 36/53/38
f 53/54/39 34/43/39 40/49/39
f 33/42/40 32/45/40 38/51/40 39/48/40
f 31/44/41 30/46/41 36/53/41 37/50/41
f 92/55/42 35/52/42 29/40/42 91/41/42
f 53/56/43 40/49/43 46/57/43
f 39/48/44 38/51/44 44/58/44 45/59/44
f 37/50/45 36/53/45 42/60/45 43/61/45
f 41/62/46 35/52/46 92/55/46 93/63/46
f 40/49/47 39/48/47 45/59/47 46/57/47
f 38/51/48 37/50/48 43/61/48 44/58/48
f 36/53/49 35/52/49 41/62/49 42/60/49
f 45/59/50 44/58/50 50/64/50 51/65/50
f 43/61/51 42/60/51 48/66/51 49/67/51
f 94/68/52 47/69/52 41/62/52 93/63/52
f 46/57/53 45/59/53 51/65/53 52/70/53
f 44/58/54 43/61/54 49/67/54 50/64/54
f 42/60/55 41/62/55 47/69/55 48/66/55
f 53/71/56 46/57/56 52/70/56
f 52/70/57 51/65/57 58/72/57 59/73/57
f 50/64/58 49/67/58 56/74/58 57/75/58
f 48/66/59 47/69/59 54/76/59 55/77/59
f 53/78/60 52/70/60 59/73/60
f 51/65/61 50/64/61 57/75/61 58/72/61
f 49/67/62 48/66/62 55/77/62 56/74/62
f 95/79/63 54/76/63 47/69/63 94/68/63
f 57/75/64 56/74/64 62/80/64 63/81/64
f 55/77/65 54/76/65 60/82/65 61/83/65
f 53/84/66 59/73/66 65/85/66
f 58/72/67 57/75/67 63/81/67 64/86/67
f 56/74/68 55/77/68 61/83/68 62/80/68
f 96/87/69 60/82/69 54/76/69 95/79/69
f 59/73/70 58/72/70 64/86/70 65/85/70
f 53/88/71 65/89/71 71/90/71
f 64/91/72 63/92/72 69/93/72 70/94/72
f 62/95/73 61/96/73 67/97/73 68/98/73
f 97/99/74 66/100/74 60/101/74 96/102/74
f 65/89/75 64/91/75 70/94/75 71/90/75
f 63/92/76 62/95/76 68/98/76 69/93/76
f 61/96/77 60/101/77 66/100/77 67/97/77
f 68/98/78 67/97/78 73/103/78 74/104/78
f 98/105/79 72/106/79 66/100/79 97/99/79
f 71/90/80 70/94/80 76/107/80 77/108/80
f 69/93/81 68/98/81 74/104/81 75/109/81
f 67/97/82 66/100/82 72/106/82 73/103/82
f 53/110/83 71/90/83 77/108/83
f 70/94/84 69/93/84 75/109/84 76/107/84
f 77/108/85 76/107/85 82/111/85 83/112/85
f 75/109/86 74/104/86 80/113/86 81/114/86
f 73/103/87 72/106/87 78/115/87 79/116/87
f 53/117/88 77/108/88 83/112/88
f 76/107/89 75/109/89 81/114/89 82/111/89
f 74/104/90 73/103/90 79/116/90 80/113/90
f 99/118/91 78/115/91 72/106/91 98/105/91
f 79/116/92 78/115/92 84/11/92 85/6/92
f 53/119/93 83/112/93 4/13/93
f 82/111/94 81/114/94 2/2/94 3/1/94
f 80/113/95 79/116/95 85/6/95 1/5/95
f 86/12/96 84/11/96 78/115/96 99/118/96
f 83/112/97 82/111/97 3/1/97 4/13/97
f 81/114/98 80/113/98 1/5/98 2/2/98
f 98/120/99 97/121/99 96/122/99 95/123/99 94/124/99 93/125/99 92/126/99 91/127/99 90/128/99 89/129/99 88/130/99 87/131/99 86/132/99 99/133/99
f 101/134/100 100/135/100 108/136/100 109/137/100
f 110/138/101 112/139/101 111/140/101 102/141/101 101/134/101 109/137/101
f 113/142/102 114/143/102 103/144/102 102/141/102 111/140/102
f 115/145/103 104/146/103 103/144/103 114/143/103
f 116/147/104 105/148/104 104/146/104 115/145/104
f 106/149/105 105/148/105 116/147/105 117/150/105 119/151/105 118/152/105
f 107/153/106 106/149/106 118/152/106 120/154/106 121/155/106
f 100/156/107 107/153/107 121/155/107 108/157/107
f 107/158/108 100/159/108 101/160/108 102/161/108 103/162/108 104/163/108 105/164/108 106/165/108
f 116/166/109 115/167/109 114/168/109 113/169/109 117/170/109
f 109/171/110 108/172/110 121/173/110 120/174/110 110/175/110
f 118/176/111 119/177/111 112/178/111 110/175/111 120/174/111
f 112/178/112 119/177/112 117/170/112 113/169/112 111/179/112
f 127/180/113 129/181/113 136/182/113 132/183/113
f 135/184/99 137/185/99 136/186/99 129/187/99 131/188/99 130/189/99 123/190/99 125/191/99
f 124/192/114 125/191/114 123/193/114 122/194/114
f 122/195/115 123/196/115 130/197/115 126/198/115
f 133/199/116 135/184/116 125/191/116 124/192/116
f 129/181/107 127/180/107 128/200/107 131/201/107
f 131/201/106 128/200/106 126/198/106 130/197/106
f 135/184/101 133/199/101 134/202/101 137/203/101
f 137/203/100 134/202/100 132/183/100 136/182/100
f 126/204/108 128/205/108 127/206/108 132/207/108 134/208/108 133/199/108 124/192/108 122/209/108
