# Blender 4.4.3
# www.blender.org
mtllib Bolt1.mtl
o Cube.014
v -0.075486 0.759175 -1.511304
v -0.069475 0.747586 -1.504794
v -0.084550 0.707773 -1.511304
v -0.074937 0.716607 -1.504794
v -0.177886 0.777231 -1.511304
v -0.187498 0.768397 -1.504794
v -0.186950 0.725829 -1.511304
v -0.192961 0.737418 -1.504794
v -0.152491 0.772753 -1.491877
v -0.154292 0.762542 -1.478575
v -0.102682 0.753442 -1.478575
v -0.100881 0.763653 -1.491877
v -0.109945 0.712251 -1.491877
v -0.108144 0.722462 -1.478575
v -0.159754 0.731563 -1.478575
v -0.161555 0.721351 -1.491877
v -0.102682 0.753442 -1.575389
v -0.100881 0.763653 -1.562615
v -0.152491 0.772753 -1.562615
v -0.154292 0.762542 -1.575389
v -0.159754 0.731563 -1.575389
v -0.161555 0.721351 -1.562615
v -0.109945 0.712251 -1.562615
v -0.108144 0.722462 -1.575389
v -0.087092 0.761222 -1.571469
v -0.089036 0.751035 -1.584226
v -0.075486 0.759175 -1.564420
v -0.069475 0.747586 -1.575712
v -0.084550 0.707773 -1.564420
v -0.074937 0.716607 -1.575712
v -0.096155 0.709819 -1.571469
v -0.094498 0.720056 -1.584226
v -0.177886 0.777231 -1.564420
v -0.187498 0.768397 -1.575712
v -0.166280 0.775185 -1.571469
v -0.167938 0.764948 -1.584226
v -0.175344 0.723782 -1.571469
v -0.173400 0.733969 -1.584226
v -0.186950 0.725829 -1.564420
v -0.192961 0.737418 -1.575712
vn 0.5295 -0.0934 -0.8431
vn 0.1736 0.9848 -0.0000
vn 0.3880 -0.0684 -0.9191
vn -0.9848 0.1736 -0.0000
vn -0.6045 0.1066 0.7894
vn -0.1736 -0.9848 -0.0000
vn -0.0000 -0.0000 -1.0000
vn -0.0000 -0.0000 1.0000
vn -0.5295 0.0934 -0.8431
vn -0.3880 0.0684 -0.9191
vn 0.9848 -0.1736 -0.0000
vn 0.5480 0.6181 0.5636
vn -0.5480 -0.6181 0.5636
vn -0.3036 0.7682 0.5636
vn 0.1370 0.7767 0.6148
vn 0.3036 -0.7682 0.5636
vn -0.1370 -0.7767 0.6148
vn 0.1348 0.7646 -0.6302
vn -0.1348 -0.7646 -0.6302
vn 0.4110 0.7093 -0.5727
vn 0.1437 -0.8071 -0.5727
vn -0.4110 -0.7093 -0.5727
vn -0.1437 0.8071 -0.5727
vn 0.8877 0.4604 -0.0000
vn -0.2400 0.7753 -0.5842
vn 0.6767 -0.7363 -0.0000
vn -0.4907 -0.6464 -0.5842
vn -0.6767 0.7363 -0.0000
vn 0.4907 0.6465 -0.5842
vn -0.8877 -0.4604 -0.0000
vn 0.2400 -0.7753 -0.5842
vn 0.6045 -0.1066 0.7894
vt 0.407910 0.799088
vt 0.592090 0.799088
vt 0.592090 0.833333
vt 0.407910 0.833333
vt 0.291667 0.534348
vt 0.336010 0.535386
vt 0.336010 0.708792
vt 0.326272 0.718781
vt 0.291667 0.717012
vt 0.407910 0.000000
vt 0.592090 0.000000
vt 0.592090 0.045955
vt 0.407910 0.045955
vt 0.407910 0.500000
vt 0.592090 0.500000
vt 0.592090 0.704046
vt 0.407910 0.704046
vt 0.407910 0.416667
vt 0.592090 0.416667
vt 0.663990 0.535386
vt 0.708333 0.534348
vt 0.708333 0.717012
vt 0.673728 0.718781
vt 0.663990 0.708792
vt 0.592090 0.916667
vt 0.407910 0.916667
vt 0.791667 0.534348
vt 0.836010 0.535386
vt 0.836010 0.708792
vt 0.826272 0.718781
vt 0.791667 0.717012
vt 0.407910 0.333333
vt 0.592090 0.333333
vt 0.592090 0.416667
vt 0.592090 0.916667
vt 0.592090 0.950912
vt 0.407910 0.950912
vt 0.163990 0.535386
vt 0.208333 0.534348
vt 0.208333 0.717012
vt 0.173728 0.718781
vt 0.163990 0.708792
vt 0.592090 0.799088
vt 0.592090 0.250000
vt 0.407910 0.250000
vt 0.125000 0.500000
vt 0.208333 0.500000
vt 0.625000 0.440593
vt 0.625000 0.485145
vt 0.291667 0.500000
vt 0.375000 0.500000
vt 0.625000 0.264855
vt 0.625000 0.309407
vt 0.592090 0.333333
vt 0.625000 0.333333
vt 0.625000 0.416667
vt 0.291667 0.750000
vt 0.208333 0.750000
vt 0.625000 0.833333
vt 0.625000 0.916667
vt 0.174088 0.750000
vt 0.125000 0.704046
vt 0.625000 0.019780
vt 0.625000 0.028897
vt 0.625000 0.739323
vt 0.625000 0.758179
vt 0.375000 0.704046
vt 0.325912 0.750000
vt 0.625000 0.063022
vt 0.625000 0.246691
vt 0.625000 0.928005
vt 0.625000 0.821995
vt 0.407910 0.333333
s 0
f 36/1/1 20/4/1 21/3/1 38/2/1
f 9/5/2 19/9/2 35/8/2 33/7/2 5/6/2
f 26/10/3 28/13/3 30/12/3 32/11/3
f 6/14/4 34/17/4 40/16/4 8/15/4
f 10/18/5 6/14/5 8/15/5 15/19/5
f 7/20/6 39/24/6 37/23/6 22/22/6 16/21/6
f 20/4/7 17/26/7 24/25/7 21/3/7
f 13/27/6 23/31/6 31/30/6 29/29/6 3/28/6
f 16/21/6 22/22/6 23/31/6 13/27/6
f 11/32/8 10/18/8 15/34/8 14/33/8
f 17/26/9 26/37/9 32/36/9 24/35/9
f 1/38/2 27/42/2 25/41/2 18/40/2 12/39/2
f 12/39/2 18/40/2 19/9/2 9/5/2
f 38/43/10 40/16/10 34/17/10 36/1/10
f 28/13/11 2/45/11 4/44/11 30/12/11
f 12/39/12 11/47/12 2/46/12 1/38/12
f 16/48/13 15/19/13 8/15/13 7/49/13
f 5/6/14 6/51/14 10/50/14 9/5/14
f 9/5/15 10/50/15 11/47/15 12/39/15
f 3/52/16 4/44/16 14/54/16 13/53/16
f 13/55/17 14/33/17 15/34/17 16/56/17
f 18/40/18 17/58/18 20/57/18 19/9/18
f 22/59/19 21/3/19 24/25/19 23/60/19
f 27/42/20 28/62/20 26/61/20 25/41/20
f 31/63/21 32/11/21 30/12/21 29/64/21
f 39/65/22 40/16/22 38/43/22 37/66/22
f 35/8/23 36/68/23 34/67/23 33/7/23
f 28/62/24 27/42/24 1/38/24 2/46/24
f 17/58/25 18/40/25 25/41/25 26/61/25
f 29/69/26 30/12/26 4/44/26 3/70/26
f 23/60/27 24/35/27 32/36/27 31/71/27
f 6/14/28 5/6/28 33/7/28 34/17/28
f 36/68/29 35/8/29 19/9/29 20/57/29
f 7/20/30 8/15/30 40/16/30 39/24/30
f 37/72/31 38/2/31 21/3/31 22/59/31
f 2/45/32 11/73/32 14/54/32 4/44/32
