# Blender 4.4.3
# www.blender.org
mtllib ForeGrip2.mtl
o Cube.018
v -0.087495 0.691323 -0.871743
v 0.087495 0.691323 -0.871743
v -0.184857 0.390542 -0.871743
v -0.049013 0.269911 -0.871743
v -0.145069 0.305243 -0.871743
v -0.037828 0.399650 -2.081933
v -0.142673 0.520281 -2.081933
v -0.111965 0.434982 -2.081933
v 0.049013 0.269911 -0.871743
v 0.184857 0.390542 -0.871743
v 0.126526 0.543145 -1.998637
v 0.145069 0.305243 -0.871743
v 0.142673 0.520281 -2.081933
v 0.116712 0.603662 -1.966568
v 0.037828 0.399650 -2.081933
v 0.126526 0.567731 -1.968784
v 0.111965 0.434982 -2.081933
v -0.126526 0.543145 -1.998637
v -0.116712 0.603662 -1.966568
v -0.126526 0.567731 -1.968784
v 0.126766 0.607839 -1.918411
v 0.135871 0.547393 -1.932160
v 0.145182 0.510902 -1.977805
v 0.141761 0.525613 -2.081933
v 0.087495 0.691323 -1.965251
v -0.141761 0.525613 -2.081933
v 0.083222 0.691323 -2.081933
v -0.083222 0.691323 -2.081933
v -0.126526 0.550010 -2.081933
v 0.126526 0.550009 -2.081933
v -0.087495 0.691323 -1.965251
v -0.129326 0.607954 -1.918424
v -0.138514 0.547370 -1.932344
v -0.145320 0.510844 -1.977793
v -0.083064 0.691323 -1.975240
v 0.083064 0.691323 -1.975240
vn -0.0000 -0.0000 1.0000
vn 0.9513 0.3082 0.0034
vn -0.0000 -0.0000 -1.0000
vn -0.9514 0.3080 0.0046
vn -0.0000 1.0000 -0.0000
vn -0.3813 -0.9184 -0.1054
vn -0.9220 -0.3810 -0.0695
vn 0.3813 -0.9184 -0.1054
vn 0.9220 -0.3810 -0.0695
vn -0.0000 -0.9943 -0.1066
vn 0.9563 0.2904 -0.0328
vn 0.9317 0.3300 -0.1520
vn 0.9596 0.2179 -0.1780
vn 0.8499 0.5251 0.0449
vn 0.9173 0.3095 -0.2507
vn -0.9563 0.2904 -0.0328
vn -0.9233 0.3348 -0.1883
vn -0.9462 0.2251 -0.2324
vn -0.8493 0.5261 0.0446
vn -0.9070 0.3066 -0.2886
vt 0.396849 0.776904
vt 0.449596 0.750000
vt 0.625000 0.750000
vt 0.625000 1.000000
vt 0.449596 1.000000
vt 0.396849 0.973096
vt 0.375000 0.908142
vt 0.375000 0.841858
vt 0.484847 0.500000
vt 0.488369 0.504087
vt 0.504792 0.523930
vt 0.535903 0.531729
vt 0.573492 0.532524
vt 0.625000 0.521024
vt 0.489702 0.500000
vt 0.407173 0.473096
vt 0.375000 0.408142
vt 0.375000 0.341858
vt 0.407173 0.276904
vt 0.484847 0.250000
vt 0.489702 0.250000
vt 0.505951 0.281321
vt 0.625000 0.278063
vt 0.625000 0.471937
vt 0.503889 0.468449
vt 0.449596 0.000000
vt 0.625000 0.000000
vt 0.598633 0.222952
vt 0.573491 0.217254
vt 0.527199 0.218271
vt 0.483884 0.232535
vt 0.653063 0.515463
vt 0.653063 0.500000
vt 0.846937 0.500000
vt 0.846753 0.518154
vt 0.875000 0.521024
vt 0.875000 0.750000
vt 0.216858 0.500000
vt 0.216858 0.750000
vt 0.125000 0.749226
vt 0.125000 0.500000
vt 0.375000 0.250000
vt 0.375000 0.000774
vt 0.283142 0.750000
vt 0.283142 0.500000
vt 0.375000 0.500000
vt 0.375000 0.749226
vt 0.603819 0.047267
vt 0.446092 0.019198
vt 0.408411 0.037743
vt 0.391818 0.100708
vt 0.404527 0.237411
vt 0.610728 0.234683
vt 0.198573 0.662051
vt 0.125000 0.668349
vt 0.125000 0.741327
vt 0.182271 0.748005
vt 0.376881 0.942729
vt 0.383176 1.000000
vt 0.423941 1.000000
vt 0.429284 0.944659
vt 0.125000 0.512718
vt 0.125000 0.651297
vt 0.198573 0.661865
vt 0.192584 0.512988
vt 0.434955 0.004915
vt 0.602411 0.017196
vt 0.401279 0.237450
vt 0.608232 0.070113
vt 0.610728 0.234683
vt 0.186898 0.748544
vt 0.198814 0.662031
vt 0.429717 0.940177
vt 0.383022 0.938084
vt 0.198814 0.661900
vt 0.192584 0.512988
vt 0.434053 0.003758
vt 0.602410 0.017196
vt 0.603819 0.047267
s 0
f 12/1/1 10/2/1 2/3/1 1/4/1 3/5/1 5/6/1 4/7/1 9/8/1
f 2/3/2 10/2/2 13/9/2 24/10/2 23/11/2 22/12/2 21/13/2 25/14/2
f 24/15/3 13/9/3 17/16/3 15/17/3 6/18/3 8/19/3 7/20/3 26/21/3 29/22/3 28/23/3 27/24/3 30/25/3
f 7/20/4 3/26/4 1/27/4 31/28/4 32/29/4 33/30/4 34/31/4 26/21/4
f 36/32/5 27/33/5 28/34/5 35/35/5 31/36/5 1/37/5 2/3/5 25/14/5
f 6/38/6 4/39/6 5/40/6 8/41/6
f 8/42/7 5/43/7 3/26/7 7/20/7
f 9/44/8 15/45/8 17/46/8 12/47/8
f 12/47/9 17/46/9 13/9/9 10/2/9
f 6/38/10 15/45/10 9/44/10 4/39/10
f 36/48/11 14/49/11 16/50/11 11/51/11 30/52/11 27/53/11
f 23/54/12 11/55/12 16/56/12 22/57/12
f 22/58/13 16/59/13 14/60/13 21/61/13
f 30/62/14 11/63/14 23/64/14 24/65/14
f 21/66/15 14/49/15 36/48/15 25/67/15
f 29/68/16 18/51/16 20/50/16 19/49/16 35/69/16 28/70/16
f 33/71/17 20/56/17 18/55/17 34/72/17
f 32/73/18 19/60/18 20/59/18 33/74/18
f 34/75/19 18/63/19 29/62/19 26/76/19
f 19/49/20 32/77/20 31/78/20 35/79/20
