# Blender 4.4.3
# www.blender.org
mtllib Grip2.mtl
o Cylinder.029
v -3.940990 0.321000 -0.822766
v -3.940990 0.321000 -2.156140
v -3.790761 0.383227 -0.822766
v -3.790761 0.383227 -2.156140
v -3.728533 0.533457 -0.822766
v -3.728533 0.533457 -2.156140
v -3.790761 0.683686 -0.822766
v -3.790761 0.683686 -2.156140
v -4.091219 0.683686 -0.822766
v -4.091219 0.683686 -2.156140
v -4.153447 0.533457 -0.822766
v -4.153447 0.533457 -2.156140
v -4.091219 0.383227 -0.822766
v -4.091219 0.383227 -2.156140
v -3.940990 0.321000 -0.873288
v -3.940990 0.321000 -2.105619
v -3.790761 0.383227 -2.105619
v -3.790761 0.383227 -0.873288
v -3.728533 0.533457 -2.105619
v -3.728533 0.533457 -0.873288
v -3.790761 0.683686 -2.105619
v -3.790761 0.683686 -0.873288
v -4.091219 0.683686 -2.105619
v -4.091219 0.683686 -0.873288
v -4.153447 0.533457 -2.105619
v -4.153447 0.533457 -0.873288
v -4.091219 0.383227 -2.105619
v -4.091219 0.383227 -0.873288
v -3.940990 0.334546 -0.873288
v -3.940990 0.334546 -2.105619
v -3.800339 0.392806 -2.105619
v -3.800339 0.392806 -0.873288
v -3.742079 0.533457 -2.105619
v -3.742079 0.533457 -0.873288
v -3.803275 0.678502 -2.105619
v -3.803275 0.678502 -0.873288
v -4.078704 0.678502 -2.105619
v -4.078704 0.678502 -0.873288
v -4.081641 0.392806 -2.105619
v -4.081641 0.392806 -0.873288
v -4.103385 0.445301 -2.105619
v -4.102808 0.621372 -2.105619
v -4.153436 0.533457 -2.105619
v -4.102808 0.621372 -0.873288
v -4.103385 0.445301 -0.873288
v -4.153436 0.533457 -0.873288
v -3.869085 0.698964 -0.822766
v -4.012895 0.698964 -0.822766
v -4.012895 0.698964 -2.156140
v -3.869085 0.698964 -2.156140
v -4.012895 0.698964 -2.105619
v -3.869085 0.698964 -2.105619
v -3.869085 0.698964 -0.873288
v -4.012895 0.698964 -0.873288
v -3.872708 0.343650 -0.875994
v -3.858558 0.327261 -0.875994
v -3.872708 0.343650 -2.103000
v -3.858558 0.327261 -2.103000
v -4.009273 0.343650 -0.875994
v -4.023422 0.327261 -0.875994
v -4.009273 0.343650 -2.103000
v -4.023422 0.327261 -2.103000
v -3.872708 0.455065 -2.103000
v -3.872708 0.455065 -0.875994
v -4.009273 0.455065 -2.103000
v -4.009273 0.455065 -0.875994
v -4.009273 0.310891 -1.820292
v -4.023422 0.327281 -1.820292
v -4.009273 0.310891 -1.866506
v -4.023422 0.327281 -1.866506
v -3.872708 0.310891 -1.820292
v -3.858558 0.327281 -1.820292
v -3.872708 0.310891 -1.866506
v -3.858558 0.327281 -1.866506
v -4.009273 0.310891 -1.912882
v -4.023422 0.327281 -1.912882
v -4.009273 0.310891 -1.959097
v -4.023422 0.327281 -1.959097
v -3.872708 0.310891 -1.912882
v -3.858558 0.327281 -1.912882
v -3.872708 0.310891 -1.959097
v -3.858558 0.327281 -1.959097
v -4.009273 0.310891 -2.005296
v -4.023422 0.327281 -2.005296
v -4.009273 0.310891 -2.083807
v -4.023422 0.327281 -2.101357
v -3.872708 0.310891 -2.005296
v -3.858558 0.327281 -2.005296
v -3.872708 0.310891 -2.083807
v -3.858558 0.327281 -2.101357
v -4.009273 0.310891 -1.358050
v -4.023422 0.327281 -1.358050
v -4.009273 0.310891 -1.404265
v -4.023422 0.327281 -1.404265
v -3.872708 0.310891 -1.358050
v -3.858558 0.327281 -1.358050
v -3.872708 0.310891 -1.404265
v -3.858558 0.327281 -1.404265
v -4.009273 0.310891 -1.450469
v -4.023422 0.327281 -1.450469
v -4.009273 0.310891 -1.496679
v -4.023422 0.327281 -1.496679
v -3.872708 0.310891 -1.450469
v -3.858558 0.327281 -1.450469
v -3.872708 0.310891 -1.496679
v -3.858558 0.327281 -1.496679
v -4.009273 0.310891 -1.543040
v -4.023422 0.327281 -1.543040
v -4.009273 0.310891 -1.589254
v -4.023422 0.327281 -1.589254
v -3.872708 0.310891 -1.543040
v -3.858558 0.327281 -1.543040
v -3.872708 0.310891 -1.589254
v -3.858558 0.327281 -1.589254
v -4.009273 0.310891 -1.635459
v -4.023422 0.327281 -1.635459
v -4.009273 0.310891 -1.681668
v -4.023422 0.327281 -1.681668
v -3.872708 0.310891 -1.635459
v -3.858558 0.327281 -1.635459
v -3.872708 0.310891 -1.681668
v -3.858558 0.327281 -1.681668
v -4.009273 0.310891 -1.727878
v -4.023422 0.327281 -1.727878
v -4.009273 0.310891 -1.774092
v -4.023422 0.327281 -1.774092
v -3.872708 0.310891 -1.727878
v -3.858558 0.327281 -1.727878
v -3.872708 0.310891 -1.774092
v -3.858558 0.327281 -1.774092
v -4.009273 0.310891 -1.080910
v -4.023422 0.327281 -1.080910
v -4.009273 0.310891 -1.127125
v -4.023422 0.327281 -1.127125
v -3.872708 0.310891 -1.080910
v -3.858558 0.327281 -1.080910
v -3.872708 0.310891 -1.127125
v -3.858558 0.327281 -1.127125
v -4.009273 0.310891 -1.173329
v -4.023422 0.327281 -1.173329
v -4.009273 0.310891 -1.219539
v -4.023422 0.327281 -1.219539
v -3.872708 0.310891 -1.173329
v -3.858558 0.327281 -1.173329
v -3.872708 0.310891 -1.219539
v -3.858558 0.327281 -1.219539
v -4.009273 0.310891 -1.265748
v -4.023422 0.327281 -1.265748
v -4.009273 0.310891 -1.311963
v -4.023422 0.327281 -1.311963
v -3.872708 0.310891 -1.265748
v -3.858558 0.327281 -1.265748
v -3.872708 0.310891 -1.311963
v -3.858558 0.327281 -1.311963
v -4.009273 0.310891 -0.895123
v -4.023422 0.327281 -0.876458
v -4.009273 0.310891 -0.942026
v -4.023422 0.327281 -0.942026
v -3.872708 0.310891 -0.895123
v -3.858558 0.327281 -0.876458
v -3.872708 0.310891 -0.942026
v -3.858558 0.327281 -0.942026
v -4.009273 0.310891 -0.988236
v -4.023422 0.327281 -0.988236
v -4.009273 0.310891 -1.034450
v -4.023422 0.327281 -1.034450
v -3.872708 0.310891 -0.988236
v -3.858558 0.327281 -0.988236
v -3.872708 0.310891 -1.034450
v -3.858558 0.327281 -1.034450
v -4.144555 0.467892 -0.903546
v -4.161038 0.453850 -0.903546
v -4.144555 0.467892 -1.498681
v -4.161038 0.453850 -1.498681
v -4.143654 0.604453 -0.903546
v -4.159950 0.618711 -0.903546
v -4.143654 0.604453 -1.498681
v -4.159950 0.618711 -1.498681
v -4.086560 0.467157 -1.498681
v -4.086560 0.467157 -0.903546
v -4.085659 0.603718 -1.498681
v -4.085659 0.603718 -0.903546
v -4.176413 0.604670 -0.916430
v -4.159930 0.618711 -0.903607
v -4.176413 0.604670 -0.986508
v -4.159930 0.618711 -0.986508
v -4.177314 0.468108 -0.916430
v -4.161017 0.453850 -0.903607
v -4.177314 0.468108 -0.986508
v -4.161017 0.453850 -0.986508
v -4.176413 0.604670 -1.032712
v -4.159930 0.618711 -1.032712
v -4.176413 0.604670 -1.078922
v -4.159930 0.618711 -1.078922
v -4.177314 0.468108 -1.032712
v -4.161017 0.453850 -1.032712
v -4.177314 0.468108 -1.078922
v -4.161017 0.453850 -1.078922
v -4.176413 0.604670 -1.125131
v -4.159930 0.618711 -1.125131
v -4.176413 0.604670 -1.171346
v -4.159930 0.618711 -1.171346
v -4.177314 0.468108 -1.125131
v -4.161017 0.453850 -1.125131
v -4.177314 0.468108 -1.171346
v -4.161017 0.453850 -1.171346
v -4.176413 0.604670 -1.217551
v -4.159930 0.618711 -1.217551
v -4.176413 0.604670 -1.263760
v -4.159930 0.618711 -1.263760
v -4.177314 0.468108 -1.217551
v -4.161017 0.453850 -1.217551
v -4.177314 0.468108 -1.263760
v -4.161017 0.453850 -1.263760
v -4.176413 0.604670 -1.310121
v -4.159930 0.618711 -1.310121
v -4.176413 0.604670 -1.356335
v -4.159930 0.618711 -1.356335
v -4.177314 0.468108 -1.310121
v -4.161017 0.453850 -1.310121
v -4.177314 0.468108 -1.356335
v -4.161017 0.453850 -1.356335
v -4.176413 0.604670 -1.402333
v -4.159930 0.618711 -1.402333
v -4.176413 0.604670 -1.480845
v -4.159930 0.618711 -1.498394
v -4.177314 0.468108 -1.402333
v -4.161017 0.453850 -1.402333
v -4.177314 0.468108 -1.480845
v -4.161017 0.453850 -1.498394
v -3.737425 0.467892 -0.903546
v -3.720942 0.453850 -0.903546
v -3.737425 0.467892 -1.498681
v -3.720942 0.453850 -1.498681
v -3.738326 0.604453 -0.903546
v -3.722030 0.618711 -0.903546
v -3.738326 0.604453 -1.498681
v -3.722030 0.618711 -1.498681
v -3.795420 0.467157 -1.498681
v -3.795420 0.467157 -0.903546
v -3.796321 0.603718 -1.498681
v -3.796321 0.603718 -0.903546
v -3.705567 0.604670 -0.916430
v -3.722050 0.618711 -0.903607
v -3.705567 0.604670 -0.986508
v -3.722050 0.618711 -0.986508
v -3.704666 0.468108 -0.916430
v -3.720962 0.453850 -0.903607
v -3.704666 0.468108 -0.986508
v -3.720962 0.453850 -0.986508
v -3.705567 0.604670 -1.032712
v -3.722050 0.618711 -1.032712
v -3.705567 0.604670 -1.078922
v -3.722050 0.618711 -1.078922
v -3.704666 0.468108 -1.032712
v -3.720962 0.453850 -1.032712
v -3.704666 0.468108 -1.078922
v -3.720962 0.453850 -1.078922
v -3.705567 0.604670 -1.125131
v -3.722050 0.618711 -1.125131
v -3.705567 0.604670 -1.171346
v -3.722050 0.618711 -1.171346
v -3.704666 0.468108 -1.125131
v -3.720962 0.453850 -1.125131
v -3.704666 0.468108 -1.171346
v -3.720962 0.453850 -1.171346
v -3.705567 0.604670 -1.217551
v -3.722050 0.618711 -1.217551
v -3.705567 0.604670 -1.263760
v -3.722050 0.618711 -1.263760
v -3.704666 0.468108 -1.217551
v -3.720962 0.453850 -1.217551
v -3.704666 0.468108 -1.263760
v -3.720962 0.453850 -1.263760
v -3.705567 0.604670 -1.310121
v -3.722050 0.618711 -1.310121
v -3.705567 0.604670 -1.356335
v -3.722050 0.618711 -1.356335
v -3.704666 0.468108 -1.310121
v -3.720962 0.453850 -1.310121
v -3.704666 0.468108 -1.356335
v -3.720962 0.453850 -1.356335
v -3.705567 0.604670 -1.402333
v -3.722050 0.618711 -1.402333
v -3.705567 0.604670 -1.480845
v -3.722050 0.618711 -1.498394
v -3.704666 0.468108 -1.402333
v -3.720962 0.453850 -1.402333
v -3.704666 0.468108 -1.480845
v -3.720962 0.453850 -1.498394
vn 0.3827 -0.9239 -0.0000
vn 0.9239 -0.3827 -0.0000
vn 0.9239 0.3827 -0.0000
vn 0.1914 0.9815 -0.0000
vn -0.9239 0.3827 -0.0000
vn -0.1914 0.9815 -0.0000
vn -0.9239 -0.3827 -0.0000
vn -0.3827 -0.9239 -0.0000
vn -0.0000 -0.0000 -1.0000
vn -0.0000 -0.0000 1.0000
vn -0.9214 0.3887 -0.0000
vn 0.9214 0.3887 -0.0000
vn -1.0000 0.0033 -0.0000
vn -0.0000 1.0000 -0.0000
vn 0.7569 0.6535 -0.0000
vn -0.7569 0.6535 -0.0000
vn -0.4324 -0.6547 0.6200
vn 0.4323 -0.6547 0.6201
vn -0.0000 -1.0000 -0.0000
vn 0.6547 -0.4324 -0.6200
vn -0.3295 -0.5416 -0.7734
vn 1.0000 -0.0000 -0.0000
vn 0.7734 -0.3295 0.5416
vn 0.6200 -0.4324 -0.6547
vn -1.0000 -0.0000 -0.0000
vn -0.6201 -0.4323 -0.6547
vn -0.6200 -0.6547 0.4324
vn -0.7569 -0.6535 -0.0000
vn 0.7569 -0.6535 -0.0000
vn -0.0000 -0.7308 -0.6825
vn -0.5416 0.7734 0.3295
vn 0.4324 0.6200 0.6547
vn 0.6547 0.6201 -0.4323
vn -0.6547 0.6200 -0.4324
vn -0.0000 -0.7514 0.6598
vn 0.6485 -0.7612 -0.0000
vn 0.6585 0.7526 -0.0000
vn -0.6502 0.4392 0.6200
vn -0.6591 -0.4255 0.6201
vn -1.0000 0.0066 -0.0000
vn -0.4381 -0.6508 -0.6200
vn -0.5381 0.3352 -0.7734
vn -0.0127 -0.9999 -0.0000
vn -0.3393 -0.7692 0.5416
vn -0.4402 -0.6145 -0.6547
vn 0.0127 0.9999 -0.0000
vn -0.4244 0.6255 -0.6547
vn -0.6468 0.6283 0.4324
vn -0.6485 0.7612 -0.0000
vn -0.6585 -0.7526 -0.0000
vn -0.6162 0.0041 0.7876
vn 1.0000 -0.0066 -0.0000
vn -0.7308 0.0048 -0.6825
vn 0.7769 0.5365 0.3295
vn 0.6172 -0.4364 0.6547
vn 0.6157 -0.6587 -0.4323
vn 0.6243 0.6506 -0.4324
vn -0.6485 -0.7612 -0.0000
vn -0.6585 0.7526 -0.0000
vn 0.4381 -0.6508 0.6201
vn 0.4265 0.6585 0.6200
vn 1.0000 0.0066 -0.0000
vn 0.3247 0.5444 -0.7734
vn 0.6592 -0.4255 -0.6200
vn 0.0127 -0.9999 -0.0000
vn 0.6625 -0.6117 -0.4324
vn 0.5513 -0.7665 0.3295
vn -0.0127 0.9999 -0.0000
vn 0.4245 0.6255 0.6547
vn 0.6468 0.6283 -0.4323
vn 0.6485 0.7612 -0.0000
vn 0.6585 -0.7526 -0.0000
vn 0.6162 0.0041 0.7876
vn -1.0000 -0.0066 -0.0000
vn 0.7308 0.0048 -0.6825
vn -0.7755 0.3244 0.5416
vn -0.6229 0.4283 -0.6547
vn -0.6172 -0.4364 -0.6547
vn -0.6157 -0.6588 0.4324
vt 1.000000 0.833333
vt 1.000000 1.000000
vt 0.875000 1.000000
vt 0.875000 0.833333
vt 0.750000 1.000000
vt 0.750000 0.833333
vt 0.625000 1.000000
vt 0.625000 0.833333
vt 0.625000 0.666667
vt 0.594311 0.833333
vt 0.594311 0.666667
vt 0.594311 1.000000
vt 0.375000 0.833333
vt 0.375000 1.000000
vt 0.250000 1.000000
vt 0.250000 0.833333
vt 0.405689 0.833333
vt 0.405689 1.000000
vt 0.125000 1.000000
vt 0.125000 0.833333
vt 0.000000 1.000000
vt 0.000000 0.833333
vt 0.419706 0.419706
vt 0.250000 0.490000
vt 0.080294 0.419706
vt 0.010000 0.250000
vt 0.080294 0.080294
vt 0.121959 0.063036
vt 0.378041 0.063036
vt 0.419706 0.080294
vt 0.490000 0.250000
vt 0.125000 0.500000
vt 0.125000 0.666667
vt 0.000000 0.666667
vt 0.000000 0.500000
vt 0.250000 0.500000
vt 0.250000 0.666667
vt 0.171654 0.666667
vt 0.375000 0.500000
vt 0.375000 0.666667
vt 0.750000 0.666667
vt 0.875000 0.666667
vt 0.750000 0.490000
vt 0.919706 0.419706
vt 0.990000 0.250000
vt 0.919706 0.080294
vt 0.878041 0.063036
vt 0.621959 0.063036
vt 0.580294 0.080294
vt 0.510000 0.250000
vt 0.580294 0.419706
vt 0.405689 0.500000
vt 0.405689 0.666667
vt 0.750000 0.500000
vt 0.625000 0.500000
vt 0.875000 0.500000
vt 1.000000 0.500000
vt 1.000000 0.666667
vt 0.325765 0.833333
vt 0.325765 0.666667
vt 0.171654 0.833333
vt 0.305035 0.833333
vt 0.196778 0.666667
vt 0.171654 0.833333
vt 0.594311 0.500000
vt 0.375000 0.000000
vt 0.625000 0.000000
vt 0.625000 0.250000
vt 0.375000 0.250000
vt 0.625000 0.750000
vt 0.375000 0.750000
vt 0.875000 0.750000
vt 0.125000 0.750000
s 0
usemtl 
f 16/1/1 2/2/1 4/3/1 17/4/1
f 17/4/2 4/3/2 6/5/2 19/6/2
f 19/6/3 6/5/3 8/7/3 21/8/3
f 22/9/4 21/8/4 52/10/4 53/11/4
f 21/8/4 8/7/4 50/12/4 52/10/4
f 23/13/5 10/14/5 12/15/5 25/16/5
f 51/17/6 49/18/6 10/14/6 23/13/6
f 25/16/7 12/15/7 14/19/7 27/20/7
f 27/20/8 14/19/8 2/21/8 16/22/8
f 4/23/9 2/24/9 14/25/9 12/26/9 10/27/9 49/28/9 50/29/9 8/30/9 6/31/9
f 13/32/8 28/33/8 15/34/8 1/35/8
f 17/4/10 19/6/10 33/6/10 31/4/10
f 11/36/7 26/37/7 28/33/7 13/32/7
f 28/33/9 26/37/9 46/37/9 45/38/9 40/33/9
f 9/39/5 24/40/5 26/37/5 11/36/5
f 20/41/9 18/42/9 32/42/9 34/41/9
f 1/43/10 3/44/10 5/45/10 7/46/10 47/47/10 48/48/10 9/49/10 11/50/10 13/51/10
f 48/52/6 54/53/6 24/40/6 9/39/6
f 54/53/6 51/17/6 23/13/6 24/40/6
f 5/54/3 20/41/3 22/9/3 7/55/3
f 3/56/2 18/42/2 20/41/2 5/54/2
f 19/6/10 21/8/10 35/8/10 33/6/10
f 1/57/1 15/58/1 18/42/1 3/56/1
f 38/40/11 37/13/11 42/59/11 44/60/11
f 40/33/8 39/20/8 30/22/8 29/34/8
f 23/13/10 25/16/10 43/16/10 42/59/10 37/13/10
f 45/38/7 41/61/7 39/20/7 40/33/7
f 34/41/12 33/6/12 35/8/12 36/9/12
f 32/42/2 31/4/2 33/6/2 34/41/2
f 29/58/1 30/1/1 31/4/1 32/42/1
f 21/8/1 22/9/1 36/9/1 35/8/1
f 18/42/9 15/58/9 29/58/9 32/42/9
f 15/34/9 28/33/9 40/33/9 29/34/9
f 16/1/10 17/4/10 31/4/10 30/1/10
f 27/20/10 16/22/10 30/22/10 39/20/10
f 26/37/9 24/40/9 38/40/9 44/60/9 46/37/9
f 24/40/8 23/13/8 37/13/8 38/40/8
f 22/9/9 20/41/9 34/41/9 36/9/9
f 41/61/10 42/62/10 43/16/10
f 44/60/9 45/63/9 46/37/9
f 41/61/13 45/38/13 44/60/13 42/59/13
f 25/16/10 27/20/10 39/20/10 41/64/10 43/16/10
f 54/53/14 48/52/14 47/65/14 53/11/14
f 49/18/14 51/17/14 52/10/14 50/12/14
f 51/17/14 54/53/14 53/11/14 52/10/14
f 7/55/4 22/9/4 53/11/4 47/65/4
usemtl M4A1.011
f 55/66/15 56/67/15 58/68/15 57/69/15
f 57/69/9 58/68/9 62/55/9 61/39/9
f 61/39/16 62/55/16 60/70/16 59/71/16
f 59/71/10 60/70/10 56/7/10 55/14/10
f 59/71/10 55/14/10 64/14/17 66/71/18
f 62/55/19 58/56/19 56/72/19 60/70/19
f 57/69/9 61/39/9 65/39/20 63/69/21
f 55/66/22 57/69/22 63/69/23 64/66/24
f 61/39/25 59/71/25 66/71/26 65/39/27
f 67/66/28 68/67/28 70/68/28 69/69/28
f 69/69/9 70/68/9 74/55/9 73/39/9
f 73/39/29 74/55/29 72/70/29 71/71/29
f 71/71/10 72/70/10 68/7/10 67/14/10
f 69/32/19 73/39/19 71/71/19 67/73/19
f 74/55/14 70/56/14 68/72/14 72/70/14
f 75/66/28 76/67/28 78/68/28 77/69/28
f 77/69/9 78/68/9 82/55/9 81/39/9
f 81/39/29 82/55/29 80/70/29 79/71/29
f 79/71/10 80/70/10 76/7/10 75/14/10
f 77/32/19 81/39/19 79/71/19 75/73/19
f 82/55/14 78/56/14 76/72/14 80/70/14
f 83/66/28 84/67/28 86/68/28 85/69/28
f 85/69/30 86/68/30 90/55/30 89/39/30
f 89/39/29 90/55/29 88/70/29 87/71/29
f 87/71/10 88/70/10 84/7/10 83/14/10
f 85/32/19 89/39/19 87/71/19 83/73/19
f 90/55/14 86/56/14 84/72/14 88/70/14
f 63/32/31 65/39/32 66/71/33 64/73/34
f 91/66/28 92/67/28 94/68/28 93/69/28
f 93/69/9 94/68/9 98/55/9 97/39/9
f 97/39/29 98/55/29 96/70/29 95/71/29
f 95/71/10 96/70/10 92/7/10 91/14/10
f 93/32/19 97/39/19 95/71/19 91/73/19
f 98/55/14 94/56/14 92/72/14 96/70/14
f 99/66/28 100/67/28 102/68/28 101/69/28
f 101/69/9 102/68/9 106/55/9 105/39/9
f 105/39/29 106/55/29 104/70/29 103/71/29
f 103/71/10 104/70/10 100/7/10 99/14/10
f 101/32/19 105/39/19 103/71/19 99/73/19
f 106/55/14 102/56/14 100/72/14 104/70/14
f 107/66/28 108/67/28 110/68/28 109/69/28
f 109/69/9 110/68/9 114/55/9 113/39/9
f 113/39/29 114/55/29 112/70/29 111/71/29
f 111/71/10 112/70/10 108/7/10 107/14/10
f 109/32/19 113/39/19 111/71/19 107/73/19
f 114/55/14 110/56/14 108/72/14 112/70/14
f 115/66/28 116/67/28 118/68/28 117/69/28
f 117/69/9 118/68/9 122/55/9 121/39/9
f 121/39/29 122/55/29 120/70/29 119/71/29
f 119/71/10 120/70/10 116/7/10 115/14/10
f 117/32/19 121/39/19 119/71/19 115/73/19
f 122/55/14 118/56/14 116/72/14 120/70/14
f 123/66/28 124/67/28 126/68/28 125/69/28
f 125/69/9 126/68/9 130/55/9 129/39/9
f 129/39/29 130/55/29 128/70/29 127/71/29
f 127/71/10 128/70/10 124/7/10 123/14/10
f 125/32/19 129/39/19 127/71/19 123/73/19
f 130/55/14 126/56/14 124/72/14 128/70/14
usemtl M4A1.013
f 171/66/36 172/67/36 174/68/36 173/69/36
f 173/69/9 174/68/9 178/55/9 177/39/9
f 177/39/37 178/55/37 176/70/37 175/71/37
f 175/71/10 176/70/10 172/7/10 171/14/10
f 175/71/10 171/14/10 180/14/38 182/71/39
f 178/55/40 174/56/40 172/72/40 176/70/40
f 173/69/9 177/39/9 181/39/41 179/69/42
f 171/66/43 173/69/43 179/69/44 180/66/45
f 177/39/46 175/71/46 182/71/47 181/39/48
f 183/66/49 184/67/49 186/68/49 185/69/49
f 185/69/9 186/68/9 190/55/9 189/39/9
f 189/39/50 190/55/50 188/70/50 187/71/50
f 187/71/51 188/70/51 184/7/51 183/14/51
f 185/32/40 189/39/40 187/71/40 183/73/40
f 190/55/52 186/56/52 184/72/52 188/70/52
f 191/66/49 192/67/49 194/68/49 193/69/49
f 193/69/9 194/68/9 198/55/9 197/39/9
f 197/39/50 198/55/50 196/70/50 195/71/50
f 195/71/10 196/70/10 192/7/10 191/14/10
f 193/32/40 197/39/40 195/71/40 191/73/40
f 198/55/52 194/56/52 192/72/52 196/70/52
f 199/66/49 200/67/49 202/68/49 201/69/49
f 201/69/9 202/68/9 206/55/9 205/39/9
f 205/39/50 206/55/50 204/70/50 203/71/50
f 203/71/10 204/70/10 200/7/10 199/14/10
f 201/32/40 205/39/40 203/71/40 199/73/40
f 206/55/52 202/56/52 200/72/52 204/70/52
f 207/66/49 208/67/49 210/68/49 209/69/49
f 209/69/9 210/68/9 214/55/9 213/39/9
f 213/39/50 214/55/50 212/70/50 211/71/50
f 211/71/10 212/70/10 208/7/10 207/14/10
f 209/32/40 213/39/40 211/71/40 207/73/40
f 214/55/52 210/56/52 208/72/52 212/70/52
f 215/66/49 216/67/49 218/68/49 217/69/49
f 217/69/9 218/68/9 222/55/9 221/39/9
f 221/39/50 222/55/50 220/70/50 219/71/50
f 219/71/10 220/70/10 216/7/10 215/14/10
f 217/32/40 221/39/40 219/71/40 215/73/40
f 222/55/52 218/56/52 216/72/52 220/70/52
f 223/66/49 224/67/49 226/68/49 225/69/49
f 225/69/53 226/68/53 230/55/53 229/39/53
f 229/39/50 230/55/50 228/70/50 227/71/50
f 227/71/10 228/70/10 224/7/10 223/14/10
f 225/32/40 229/39/40 227/71/40 223/73/40
f 230/55/52 226/56/52 224/72/52 228/70/52
f 179/32/54 181/39/55 182/71/56 180/73/57
usemtl M4A1.020
f 131/66/28 132/67/28 134/68/28 133/69/28
f 133/69/9 134/68/9 138/55/9 137/39/9
f 137/39/29 138/55/29 136/70/29 135/71/29
f 135/71/10 136/70/10 132/7/10 131/14/10
f 133/32/19 137/39/19 135/71/19 131/73/19
f 138/55/14 134/56/14 132/72/14 136/70/14
f 139/66/28 140/67/28 142/68/28 141/69/28
f 141/69/9 142/68/9 146/55/9 145/39/9
f 145/39/29 146/55/29 144/70/29 143/71/29
f 143/71/10 144/70/10 140/7/10 139/14/10
f 141/32/19 145/39/19 143/71/19 139/73/19
f 146/55/14 142/56/14 140/72/14 144/70/14
f 147/66/28 148/67/28 150/68/28 149/69/28
f 149/69/9 150/68/9 154/55/9 153/39/9
f 153/39/29 154/55/29 152/70/29 151/71/29
f 151/71/10 152/70/10 148/7/10 147/14/10
f 149/32/19 153/39/19 151/71/19 147/73/19
f 154/55/14 150/56/14 148/72/14 152/70/14
usemtl M4A1.023
f 155/66/28 156/67/28 158/68/28 157/69/28
f 157/69/9 158/68/9 162/55/9 161/39/9
f 161/39/29 162/55/29 160/70/29 159/71/29
f 159/71/35 160/70/35 156/7/35 155/14/35
f 157/32/19 161/39/19 159/71/19 155/73/19
f 162/55/14 158/56/14 156/72/14 160/70/14
f 163/66/28 164/67/28 166/68/28 165/69/28
f 165/69/9 166/68/9 170/55/9 169/39/9
f 169/39/29 170/55/29 168/70/29 167/71/29
f 167/71/10 168/70/10 164/7/10 163/14/10
f 165/32/19 169/39/19 167/71/19 163/73/19
f 170/55/14 166/56/14 164/72/14 168/70/14
usemtl M4A1.016
f 231/66/58 233/69/58 234/68/58 232/67/58
f 233/69/9 237/39/9 238/55/9 234/68/9
f 237/39/59 235/71/59 236/70/59 238/55/59
f 235/71/10 231/14/10 232/7/10 236/70/10
f 235/71/10 242/71/60 240/14/61 231/14/10
f 238/55/62 236/70/62 232/72/62 234/56/62
f 233/69/9 239/69/63 241/39/64 237/39/9
f 231/66/65 240/66/66 239/69/67 233/69/65
f 237/39/68 241/39/69 242/71/70 235/71/68
f 243/66/71 245/69/71 246/68/71 244/67/71
f 245/69/9 249/39/9 250/55/9 246/68/9
f 249/39/72 247/71/72 248/70/72 250/55/72
f 247/71/73 243/14/73 244/7/73 248/70/73
f 245/32/62 243/73/62 247/71/62 249/39/62
f 250/55/74 248/70/74 244/72/74 246/56/74
f 251/66/71 253/69/71 254/68/71 252/67/71
f 253/69/9 257/39/9 258/55/9 254/68/9
f 257/39/72 255/71/72 256/70/72 258/55/72
f 255/71/10 251/14/10 252/7/10 256/70/10
f 253/32/62 251/73/62 255/71/62 257/39/62
f 258/55/74 256/70/74 252/72/74 254/56/74
f 259/66/71 261/69/71 262/68/71 260/67/71
f 261/69/9 265/39/9 266/55/9 262/68/9
f 265/39/72 263/71/72 264/70/72 266/55/72
f 263/71/10 259/14/10 260/7/10 264/70/10
f 261/32/62 259/73/62 263/71/62 265/39/62
f 266/55/74 264/70/74 260/72/74 262/56/74
f 267/66/71 269/69/71 270/68/71 268/67/71
f 269/69/9 273/39/9 274/55/9 270/68/9
f 273/39/72 271/71/72 272/70/72 274/55/72
f 271/71/10 267/14/10 268/7/10 272/70/10
f 269/32/62 267/73/62 271/71/62 273/39/62
f 274/55/74 272/70/74 268/72/74 270/56/74
f 275/66/71 277/69/71 278/68/71 276/67/71
f 277/69/9 281/39/9 282/55/9 278/68/9
f 281/39/72 279/71/72 280/70/72 282/55/72
f 279/71/10 275/14/10 276/7/10 280/70/10
f 277/32/62 275/73/62 279/71/62 281/39/62
f 282/55/74 280/70/74 276/72/74 278/56/74
f 283/66/71 285/69/71 286/68/71 284/67/71
f 285/69/75 289/39/75 290/55/75 286/68/75
f 289/39/72 287/71/72 288/70/72 290/55/72
f 287/71/10 283/14/10 284/7/10 288/70/10
f 285/32/62 283/73/62 287/71/62 289/39/62
f 290/55/74 288/70/74 284/72/74 286/56/74
f 239/32/76 240/73/77 242/71/78 241/39/79
