# Blender 4.4.3
# www.blender.org
mtllib Grip12.mtl
o Cube.007
v -0.087495 0.691323 -0.871743
v 0.087495 0.691323 -0.871743
v -0.049013 0.269911 -0.871743
v -0.037828 0.399650 -2.081933
v 0.065819 0.379626 -1.162037
v 0.049013 0.269911 -0.871743
v 0.037828 0.399650 -2.081933
v -0.065819 0.379626 -1.162037
v 0.087495 0.691323 -1.965251
v 0.083222 0.691323 -2.081933
v -0.083222 0.691323 -2.081933
v -0.087495 0.691323 -1.965251
v -0.083064 0.691323 -1.975240
v 0.083064 0.691323 -1.975240
v 0.057949 0.410977 -2.081933
v 0.057949 0.409239 -2.081933
v -0.057949 0.409239 -2.081933
v -0.057949 0.410977 -2.081933
v 0.092266 0.416812 -2.081933
v -0.092266 0.416812 -2.081933
v -0.042096 0.379626 -1.886694
v -0.057949 0.379626 -1.819823
v -0.047122 0.291843 -1.076316
v -0.039555 0.379626 -1.895145
v 0.047122 0.291843 -1.076316
v 0.039555 0.379626 -1.895145
v 0.057949 0.379626 -1.816601
v 0.065482 0.378971 -1.161382
v 0.057949 0.379626 -1.453676
v -0.065482 0.378971 -1.161382
v -0.057949 0.379626 -1.453676
v 0.114898 0.608386 -1.967036
v 0.114898 0.587955 -2.081933
v 0.114898 0.446181 -2.081933
v 0.114898 0.633068 -1.932566
v 0.114898 0.398532 -1.161742
v 0.114898 0.378971 -1.161382
v 0.114898 0.606666 -0.871743
v 0.114898 0.321027 -1.103970
v 0.114898 0.294146 -0.871743
v -0.114898 0.398532 -1.161742
v -0.114898 0.378971 -1.161382
v -0.114898 0.606666 -0.871743
v -0.114898 0.321027 -1.103970
v -0.114898 0.390542 -0.871743
v -0.114898 0.294146 -0.871743
v -0.114898 0.446181 -2.081933
v -0.114898 0.608386 -1.967036
v -0.114898 0.587955 -2.081933
v -0.114898 0.636709 -1.934575
v 0.068282 0.343650 -1.114072
v 0.082432 0.327261 -1.114072
v 0.068282 0.343650 -2.080606
v 0.082432 0.327261 -2.080606
v -0.068282 0.343650 -1.114072
v -0.082432 0.327261 -1.114072
v -0.068282 0.343650 -2.080606
v -0.082432 0.327261 -2.080606
v 0.068282 0.455065 -2.080606
v 0.068282 0.455065 -1.114072
v -0.068282 0.455065 -2.080606
v -0.068282 0.455065 -1.114072
v -0.068282 0.310891 -1.126955
v -0.082432 0.327281 -1.114132
v -0.068282 0.310891 -1.197033
v -0.082432 0.327281 -1.197033
v 0.068282 0.310891 -1.126955
v 0.082432 0.327281 -1.114132
v 0.068282 0.310891 -1.197033
v 0.082432 0.327281 -1.197033
v -0.068282 0.310891 -1.243238
v -0.082432 0.327281 -1.243238
v -0.068282 0.310891 -1.289447
v -0.082432 0.327281 -1.289447
v 0.068282 0.310891 -1.243238
v 0.082432 0.327281 -1.243238
v 0.068282 0.310891 -1.289447
v 0.082432 0.327281 -1.289447
v -0.068282 0.310891 -1.335657
v -0.082432 0.327281 -1.335657
v -0.068282 0.310891 -1.381871
v -0.082432 0.327281 -1.381871
v 0.068282 0.310891 -1.335657
v 0.082432 0.327281 -1.335657
v 0.068282 0.310891 -1.381871
v 0.082432 0.327281 -1.381871
v -0.068282 0.310891 -1.428076
v -0.082432 0.327281 -1.428076
v -0.068282 0.310891 -1.474285
v -0.082432 0.327281 -1.474285
v 0.068282 0.310891 -1.428076
v 0.082432 0.327281 -1.428076
v 0.068282 0.310891 -1.474285
v 0.082432 0.327281 -1.474285
v -0.068282 0.310891 -1.520646
v -0.082432 0.327281 -1.520646
v -0.068282 0.310891 -1.566860
v -0.082432 0.327281 -1.566860
v 0.068282 0.310891 -1.520646
v 0.082432 0.327281 -1.520646
v 0.068282 0.310891 -1.566860
v 0.082432 0.327281 -1.566860
v -0.068282 0.310891 -1.613065
v -0.082432 0.327281 -1.613065
v -0.068282 0.310891 -1.659274
v -0.082432 0.327281 -1.659274
v 0.068282 0.310891 -1.613065
v 0.082432 0.327281 -1.613065
v 0.068282 0.310891 -1.659274
v 0.082432 0.327281 -1.659274
v -0.068282 0.310891 -1.797898
v -0.082432 0.327281 -1.797898
v -0.068282 0.310891 -1.844113
v -0.082432 0.327281 -1.844113
v 0.068282 0.310891 -1.797898
v 0.082432 0.327281 -1.797898
v 0.068282 0.310891 -1.844113
v 0.082432 0.327281 -1.844113
v -0.068282 0.310891 -1.705484
v -0.082432 0.327281 -1.705484
v -0.068282 0.310891 -1.751698
v -0.082432 0.327281 -1.751698
v 0.068282 0.310891 -1.705484
v 0.082432 0.327281 -1.705484
v 0.068282 0.310891 -1.751698
v 0.082432 0.327281 -1.751698
v -0.068282 0.310891 -1.890488
v -0.082432 0.327281 -1.890488
v -0.068282 0.310891 -1.936703
v -0.082432 0.327281 -1.936703
v 0.068282 0.310891 -1.890488
v 0.082432 0.327281 -1.890488
v 0.068282 0.310891 -1.936703
v 0.082432 0.327281 -1.936703
v -0.068282 0.310891 -1.982902
v -0.082432 0.327281 -1.982902
v -0.068282 0.310891 -2.061413
v -0.082432 0.327281 -2.078963
v 0.068282 0.310891 -1.982902
v 0.082432 0.327281 -1.982902
v 0.068282 0.310891 -2.061413
v 0.082432 0.327281 -2.078963
v 0.145747 0.634041 -0.956420
v 0.162230 0.648083 -0.956420
v 0.145747 0.634041 -1.551555
v 0.162230 0.648083 -1.551555
v 0.144846 0.497480 -0.956420
v 0.161142 0.483222 -0.956420
v 0.144846 0.497480 -1.551555
v 0.161142 0.483222 -1.551555
v 0.087752 0.634777 -1.551555
v 0.087752 0.634777 -0.956420
v 0.086851 0.498215 -1.551555
v 0.086851 0.498215 -0.956420
v 0.177605 0.497264 -0.969304
v 0.161122 0.483222 -0.956480
v 0.177605 0.497264 -1.039382
v 0.161122 0.483222 -1.039382
v 0.178506 0.633825 -0.969304
v 0.162210 0.648083 -0.956480
v 0.178506 0.633825 -1.039382
v 0.162210 0.648083 -1.039382
v 0.177605 0.497264 -1.085586
v 0.161122 0.483222 -1.085586
v 0.177605 0.497264 -1.131796
v 0.161122 0.483222 -1.131796
v 0.178506 0.633825 -1.085586
v 0.162210 0.648083 -1.085586
v 0.178506 0.633825 -1.131796
v 0.162210 0.648083 -1.131796
v 0.177605 0.497264 -1.178005
v 0.161122 0.483222 -1.178005
v 0.177605 0.497264 -1.224220
v 0.161122 0.483222 -1.224220
v 0.178506 0.633825 -1.178005
v 0.162210 0.648083 -1.178005
v 0.178506 0.633825 -1.224220
v 0.162210 0.648083 -1.224220
v 0.177605 0.497264 -1.270424
v 0.161122 0.483222 -1.270424
v 0.177605 0.497264 -1.316634
v 0.161122 0.483222 -1.316634
v 0.178506 0.633825 -1.270424
v 0.162210 0.648083 -1.270424
v 0.178506 0.633825 -1.316634
v 0.162210 0.648083 -1.316634
v 0.177605 0.497264 -1.362994
v 0.161122 0.483222 -1.362994
v 0.177605 0.497264 -1.409209
v 0.161122 0.483222 -1.409209
v 0.178506 0.633825 -1.362994
v 0.162210 0.648083 -1.362994
v 0.178506 0.633825 -1.409209
v 0.162210 0.648083 -1.409209
v 0.177605 0.497264 -1.455207
v 0.161122 0.483222 -1.455207
v 0.177605 0.497264 -1.533718
v 0.161122 0.483222 -1.551268
v 0.178506 0.633825 -1.455207
v 0.162210 0.648083 -1.455207
v 0.178506 0.633825 -1.533718
v 0.162210 0.648083 -1.551268
v -0.145747 0.497208 -0.956420
v -0.162230 0.483167 -0.956420
v -0.145747 0.497208 -1.551555
v -0.162230 0.483167 -1.551555
v -0.144846 0.633770 -0.956420
v -0.161143 0.648027 -0.956420
v -0.144846 0.633770 -1.551555
v -0.161143 0.648027 -1.551555
v -0.087752 0.496473 -1.551555
v -0.087752 0.496473 -0.956420
v -0.086851 0.633035 -1.551555
v -0.086851 0.633035 -0.956420
v -0.177605 0.633986 -0.969304
v -0.161122 0.648027 -0.956480
v -0.177605 0.633986 -1.039382
v -0.161122 0.648027 -1.039382
v -0.178506 0.497424 -0.969304
v -0.162210 0.483167 -0.956480
v -0.178506 0.497424 -1.039382
v -0.162210 0.483167 -1.039382
v -0.177605 0.633986 -1.085586
v -0.161122 0.648027 -1.085586
v -0.177605 0.633986 -1.131796
v -0.161122 0.648027 -1.131796
v -0.178506 0.497424 -1.085586
v -0.162210 0.483167 -1.085586
v -0.178506 0.497424 -1.131796
v -0.162210 0.483167 -1.131796
v -0.177605 0.633986 -1.178005
v -0.161122 0.648027 -1.178005
v -0.177605 0.633986 -1.224220
v -0.161122 0.648027 -1.224220
v -0.178506 0.497424 -1.178005
v -0.162210 0.483167 -1.178005
v -0.178506 0.497424 -1.224220
v -0.162210 0.483167 -1.224220
v -0.177605 0.633986 -1.270424
v -0.161122 0.648027 -1.270424
v -0.177605 0.633986 -1.316634
v -0.161122 0.648027 -1.316634
v -0.178506 0.497424 -1.270424
v -0.162210 0.483167 -1.270424
v -0.178506 0.497424 -1.316634
v -0.162210 0.483167 -1.316634
v -0.177605 0.633986 -1.362994
v -0.161122 0.648027 -1.362994
v -0.177605 0.633986 -1.409209
v -0.161122 0.648027 -1.409209
v -0.178506 0.497424 -1.362994
v -0.162210 0.483167 -1.362994
v -0.178506 0.497424 -1.409209
v -0.162210 0.483167 -1.409209
v -0.177605 0.633986 -1.455207
v -0.161122 0.648027 -1.455207
v -0.177605 0.633986 -1.533718
v -0.161122 0.648027 -1.551268
v -0.178506 0.497424 -1.455207
v -0.162210 0.483167 -1.455207
v -0.178506 0.497424 -1.533718
v -0.162210 0.483167 -1.551268
vn -0.0000 -0.0000 -1.0000
vn 0.0126 -0.0503 -0.9987
vn -0.0000 1.0000 -0.0000
vn -0.4237 -0.9001 -0.1016
vn -0.3501 -0.9307 -0.1055
vn 0.4281 -0.8982 -0.1002
vn -0.0000 -0.9943 -0.1066
vn 0.9465 0.3214 -0.0290
vn 1.0000 -0.0000 -0.0000
vn 0.3691 -0.9287 -0.0348
vn -1.0000 -0.0000 -0.0000
vn -0.0000 -1.0000 -0.0000
vn -0.3691 -0.9287 -0.0348
vn -0.9301 0.3672 0.0051
vn 0.9146 0.3078 -0.2621
vn 0.5583 -0.8291 -0.0302
vn 0.3501 -0.9307 -0.1055
vn -0.9465 0.3214 -0.0290
vn -0.5583 -0.8291 -0.0302
vn -0.9044 0.3052 -0.2981
vn -0.0126 -0.0503 -0.9987
vn 0.9333 0.3589 0.0044
vn -0.0000 -0.6998 -0.7144
vn -0.0000 -0.0000 1.0000
vn 0.7569 0.6535 -0.0000
vn -0.7569 0.6535 -0.0000
vn -0.3633 -0.6764 0.6408
vn 0.3632 -0.6763 0.6408
vn 0.5758 -0.4676 -0.6707
vn -0.2730 -0.5517 -0.7881
vn 0.7044 -0.3689 0.6064
vn 0.5408 -0.4635 -0.7019
vn -0.5408 -0.4635 -0.7019
vn -0.5408 -0.7019 0.4635
vn -0.7569 -0.6535 -0.0000
vn 0.7569 -0.6535 -0.0000
vn -0.0000 -0.6162 0.7876
vn -0.0000 -0.7308 -0.6825
vn -0.4640 0.8150 0.3471
vn 0.3633 0.6408 0.6764
vn 0.5758 0.6708 -0.4675
vn -0.5758 0.6707 -0.4676
vn -0.6485 0.7612 -0.0000
vn -0.6585 -0.7526 -0.0000
vn 0.5706 -0.4753 0.6698
vn 0.5810 0.4598 0.6716
vn 1.0000 -0.0066 -0.0000
vn 0.3687 0.6729 -0.6413
vn 0.4603 -0.3537 -0.8143
vn 0.0127 0.9999 -0.0000
vn 0.2834 0.7838 0.5526
vn 0.3719 0.6346 -0.6775
vn -0.0127 -0.9999 -0.0000
vn 0.3546 -0.6466 -0.6754
vn 0.5658 -0.6799 0.4664
vn 0.6485 -0.7612 -0.0000
vn 0.6585 0.7526 -0.0000
vn 0.6162 -0.0041 0.7876
vn -1.0000 0.0066 -0.0000
vn 0.7308 -0.0048 -0.6825
vn -0.7077 -0.6024 0.3693
vn -0.5384 0.4669 0.7016
vn -0.5372 0.7049 -0.4632
vn -0.5442 -0.6990 -0.4640
vn -0.5706 0.4753 0.6698
vn -0.5810 -0.4598 0.6716
vn -0.3687 -0.6729 -0.6413
vn -0.4603 0.3537 -0.8143
vn -0.2834 -0.7838 0.5526
vn -0.3719 -0.6346 -0.6775
vn -0.3546 0.6466 -0.6754
vn -0.5658 0.6799 0.4664
vn -0.6162 0.0041 0.7876
vn -0.7308 0.0048 -0.6825
vn 0.7077 0.6024 0.3693
vn 0.5384 -0.4669 0.7016
vn 0.5372 -0.7049 -0.4632
vn 0.5442 0.6990 -0.4640
vt 0.442045 0.294555
vt 0.461262 0.274550
vt 0.537918 0.280446
vt 0.625000 0.278063
vt 0.625000 0.471937
vt 0.536410 0.469386
vt 0.442492 0.468950
vt 0.441996 0.455432
vt 0.385265 0.425767
vt 0.383732 0.425771
vt 0.375000 0.408142
vt 0.375000 0.341858
vt 0.383732 0.324229
vt 0.385266 0.324233
vt 0.605788 0.765186
vt 0.625000 0.819174
vt 0.621310 0.894087
vt 0.584886 0.864793
vt 0.653063 0.515463
vt 0.653063 0.500000
vt 0.846937 0.500000
vt 0.846753 0.518154
vt 0.875000 0.521024
vt 0.875000 0.750000
vt 0.625000 0.750000
vt 0.625000 0.521024
vt 0.214016 0.540334
vt 0.195717 0.554127
vt 0.191928 0.500000
vt 0.216858 0.500000
vt 0.216858 0.538587
vt 0.216858 0.707739
vt 0.216858 0.750000
vt 0.153852 0.749469
vt 0.174997 0.704223
vt 0.283142 0.500000
vt 0.308072 0.500000
vt 0.304421 0.554784
vt 0.283142 0.538587
vt 0.283142 0.750000
vt 0.283142 0.707739
vt 0.603819 0.047267
vt 0.454593 0.020710
vt 0.459896 0.236679
vt 0.610728 0.234683
vt 0.573625 0.572795
vt 0.602774 0.501036
vt 0.605033 0.501035
vt 0.601860 0.670948
vt 0.694174 0.501035
vt 0.621894 0.749823
vt 0.601860 0.670949
vt 0.602774 0.501035
vt 0.573372 0.571924
vt 0.271140 0.683604
vt 0.265357 0.699907
vt 0.264430 0.701967
vt 0.235570 0.701967
vt 0.228860 0.682818
vt 0.228860 0.594338
vt 0.225989 0.523236
vt 0.274011 0.523236
vt 0.271140 0.594337
vt 0.694174 0.750000
vt 0.440182 0.013500
vt 0.509331 0.013500
vt 0.518943 0.202746
vt 0.509881 0.208526
vt 0.503344 0.228985
vt 0.457984 0.228985
vt 0.442739 0.065137
vt 0.436480 0.065073
vt 0.417941 0.054850
vt 0.409340 0.013500
vt 0.582163 0.219219
vt 0.575631 0.000000
vt 0.625000 0.000000
vt 0.598633 0.222952
vt 0.485561 0.008626
vt 0.602411 0.017196
vt 0.765019 0.599544
vt 0.767276 0.750000
vt 0.353532 0.701435
vt 0.346148 0.749469
vt 0.291763 0.707227
vt 0.457520 0.236707
vt 0.454831 0.021942
vt 0.608232 0.070113
vt 0.610728 0.234683
vt 0.767661 0.750000
vt 0.724856 0.501035
vt 0.454593 0.020710
vt 0.492122 0.008393
vt 0.602410 0.017196
vt 0.603819 0.047267
vt 0.598538 0.876061
vt 0.625000 0.892661
vt 0.575631 0.750000
vt 0.589058 0.529049
vt 0.509331 0.013500
vt 0.409340 0.013500
vt 0.417941 0.054850
vt 0.436480 0.065073
vt 0.442739 0.065137
vt 0.457984 0.228985
vt 0.503344 0.228985
vt 0.509881 0.208526
vt 0.517778 0.202389
vt 0.210167 0.519002
vt 0.223544 0.502469
vt 0.231230 0.500000
vt 0.269236 0.500000
vt 0.292444 0.507496
vt 0.291916 0.523058
vt 0.273889 0.523058
vt 0.226111 0.523058
vt 0.389986 0.797306
vt 0.625000 1.000000
vt 0.575631 1.000000
vt 0.448474 0.954716
vt 0.389986 0.952694
vt 0.375000 0.908142
vt 0.375000 0.841858
vt 0.375000 0.000000
vt 0.625000 0.250000
vt 0.375000 0.250000
vt 0.625000 0.500000
vt 0.375000 0.500000
vt 0.375000 0.750000
vt 0.375000 1.000000
vt 0.875000 0.500000
vt 0.125000 0.500000
vt 0.125000 0.750000
s 0
usemtl 
f 20/1/1 47/2/1 49/3/1 11/4/1 10/5/1 33/6/1 34/7/1 19/8/1 15/9/1 16/10/1 7/11/1 4/12/1 17/13/1 18/14/1
f 28/15/2 5/16/2 36/17/2 37/18/2
f 14/19/3 10/20/3 11/21/3 13/22/3 12/23/3 1/24/3 2/25/3 9/26/3
f 21/27/4 22/28/4 17/29/4 4/30/4 24/31/4
f 23/32/5 3/33/5 46/34/5 44/35/5
f 7/36/6 16/37/6 27/38/6 26/39/6
f 6/40/7 3/33/7 23/32/7 25/41/7
f 24/31/7 4/30/7 7/36/7 26/39/7
f 14/42/8 32/43/8 33/44/8 10/45/8
f 27/46/9 16/47/9 15/48/9 29/49/9
f 19/50/10 5/51/10 29/49/10 15/48/10
f 31/52/11 18/48/11 17/53/11 22/54/11
f 22/55/12 21/56/12 24/57/12 26/58/12 27/59/12 29/60/12 5/61/12 8/62/12 31/63/12
f 8/64/13 20/50/13 18/48/13 31/52/13
f 45/65/11 43/66/11 50/67/11 48/68/11 49/69/11 47/70/11 41/71/11 42/72/11 44/73/11 46/74/11
f 50/75/14 43/76/14 1/77/14 12/78/14
f 35/79/15 32/43/15 14/42/15 9/80/15
f 34/81/16 36/82/16 5/64/16 19/50/16
f 39/83/17 40/84/17 6/40/17 25/85/17
f 49/86/18 48/87/18 13/88/18 11/89/18
f 41/90/19 47/91/19 20/50/19 8/64/19
f 48/92/20 50/93/20 12/94/20 13/95/20
f 42/96/21 41/97/21 8/16/21 30/15/21
f 38/98/22 35/99/22 9/26/22 2/25/22
f 38/100/9 40/101/9 39/102/9 37/103/9 36/104/9 34/105/9 33/106/9 32/107/9 35/108/9
f 37/109/23 39/110/23 25/111/23 23/112/23 44/113/23 42/114/23 30/115/23 8/62/23 5/61/23 28/116/23
f 40/117/24 38/98/24 2/25/24 1/118/24 43/119/24 45/120/24 46/121/24 3/122/24 6/123/24
usemtl M4A1.003
f 51/124/25 52/77/25 54/125/25 53/126/25
f 53/126/1 54/125/1 58/127/1 57/128/1
f 57/128/26 58/127/26 56/25/26 55/129/26
f 55/129/24 56/25/24 52/118/24 51/130/24
f 55/129/24 51/130/24 60/130/27 62/129/28
f 58/127/12 54/131/12 52/24/12 56/25/12
f 53/126/1 57/128/1 61/128/29 59/126/30
f 51/124/9 53/126/9 59/126/31 60/124/32
f 57/128/11 55/129/11 62/129/33 61/128/34
f 63/124/35 64/77/35 66/125/35 65/126/35
f 65/126/1 66/125/1 70/127/1 69/128/1
f 69/128/36 70/127/36 68/25/36 67/129/36
f 67/129/37 68/25/37 64/118/37 63/130/37
f 65/132/12 69/128/12 67/129/12 63/133/12
f 70/127/3 66/131/3 64/24/3 68/25/3
f 71/124/35 72/77/35 74/125/35 73/126/35
f 73/126/1 74/125/1 78/127/1 77/128/1
f 77/128/36 78/127/36 76/25/36 75/129/36
f 75/129/24 76/25/24 72/118/24 71/130/24
f 73/132/12 77/128/12 75/129/12 71/133/12
f 78/127/3 74/131/3 72/24/3 76/25/3
f 79/124/35 80/77/35 82/125/35 81/126/35
f 81/126/1 82/125/1 86/127/1 85/128/1
f 85/128/36 86/127/36 84/25/36 83/129/36
f 83/129/24 84/25/24 80/118/24 79/130/24
f 81/132/12 85/128/12 83/129/12 79/133/12
f 86/127/3 82/131/3 80/24/3 84/25/3
f 87/124/35 88/77/35 90/125/35 89/126/35
f 89/126/1 90/125/1 94/127/1 93/128/1
f 93/128/36 94/127/36 92/25/36 91/129/36
f 91/129/24 92/25/24 88/118/24 87/130/24
f 89/132/12 93/128/12 91/129/12 87/133/12
f 94/127/3 90/131/3 88/24/3 92/25/3
f 95/124/35 96/77/35 98/125/35 97/126/35
f 97/126/1 98/125/1 102/127/1 101/128/1
f 101/128/36 102/127/36 100/25/36 99/129/36
f 99/129/24 100/25/24 96/118/24 95/130/24
f 97/132/12 101/128/12 99/129/12 95/133/12
f 102/127/3 98/131/3 96/24/3 100/25/3
f 103/124/35 104/77/35 106/125/35 105/126/35
f 105/126/1 106/125/1 110/127/1 109/128/1
f 109/128/36 110/127/36 108/25/36 107/129/36
f 107/129/24 108/25/24 104/118/24 103/130/24
f 105/132/12 109/128/12 107/129/12 103/133/12
f 110/127/3 106/131/3 104/24/3 108/25/3
f 111/124/35 112/77/35 114/125/35 113/126/35
f 113/126/1 114/125/1 118/127/1 117/128/1
f 117/128/36 118/127/36 116/25/36 115/129/36
f 115/129/24 116/25/24 112/118/24 111/130/24
f 113/132/12 117/128/12 115/129/12 111/133/12
f 118/127/3 114/131/3 112/24/3 116/25/3
f 119/124/35 120/77/35 122/125/35 121/126/35
f 121/126/1 122/125/1 126/127/1 125/128/1
f 125/128/36 126/127/36 124/25/36 123/129/36
f 123/129/24 124/25/24 120/118/24 119/130/24
f 121/132/12 125/128/12 123/129/12 119/133/12
f 126/127/3 122/131/3 120/24/3 124/25/3
f 127/124/35 128/77/35 130/125/35 129/126/35
f 129/126/1 130/125/1 134/127/1 133/128/1
f 133/128/36 134/127/36 132/25/36 131/129/36
f 131/129/24 132/25/24 128/118/24 127/130/24
f 129/132/12 133/128/12 131/129/12 127/133/12
f 134/127/3 130/131/3 128/24/3 132/25/3
f 135/124/35 136/77/35 138/125/35 137/126/35
f 137/126/38 138/125/38 142/127/38 141/128/38
f 141/128/36 142/127/36 140/25/36 139/129/36
f 139/129/24 140/25/24 136/118/24 135/130/24
f 137/132/12 141/128/12 139/129/12 135/133/12
f 142/127/3 138/131/3 136/24/3 140/25/3
f 59/132/39 61/128/40 62/129/41 60/133/42
usemtl M4A1.004
f 143/124/43 144/77/43 146/125/43 145/126/43
f 145/126/1 146/125/1 150/127/1 149/128/1
f 149/128/44 150/127/44 148/25/44 147/129/44
f 147/129/24 148/25/24 144/118/24 143/130/24
f 147/129/24 143/130/24 152/130/45 154/129/46
f 150/127/47 146/131/47 144/24/47 148/25/47
f 145/126/1 149/128/1 153/128/48 151/126/49
f 143/124/50 145/126/50 151/126/51 152/124/52
f 149/128/53 147/129/53 154/129/54 153/128/55
f 155/124/56 156/77/56 158/125/56 157/126/56
f 157/126/1 158/125/1 162/127/1 161/128/1
f 161/128/57 162/127/57 160/25/57 159/129/57
f 159/129/58 160/25/58 156/118/58 155/130/58
f 157/132/47 161/128/47 159/129/47 155/133/47
f 162/127/59 158/131/59 156/24/59 160/25/59
f 163/124/56 164/77/56 166/125/56 165/126/56
f 165/126/1 166/125/1 170/127/1 169/128/1
f 169/128/57 170/127/57 168/25/57 167/129/57
f 167/129/24 168/25/24 164/118/24 163/130/24
f 165/132/47 169/128/47 167/129/47 163/133/47
f 170/127/59 166/131/59 164/24/59 168/25/59
f 171/124/56 172/77/56 174/125/56 173/126/56
f 173/126/1 174/125/1 178/127/1 177/128/1
f 177/128/57 178/127/57 176/25/57 175/129/57
f 175/129/24 176/25/24 172/118/24 171/130/24
f 173/132/47 177/128/47 175/129/47 171/133/47
f 178/127/59 174/131/59 172/24/59 176/25/59
f 179/124/56 180/77/56 182/125/56 181/126/56
f 181/126/1 182/125/1 186/127/1 185/128/1
f 185/128/57 186/127/57 184/25/57 183/129/57
f 183/129/24 184/25/24 180/118/24 179/130/24
f 181/132/47 185/128/47 183/129/47 179/133/47
f 186/127/59 182/131/59 180/24/59 184/25/59
f 187/124/56 188/77/56 190/125/56 189/126/56
f 189/126/1 190/125/1 194/127/1 193/128/1
f 193/128/57 194/127/57 192/25/57 191/129/57
f 191/129/24 192/25/24 188/118/24 187/130/24
f 189/132/47 193/128/47 191/129/47 187/133/47
f 194/127/59 190/131/59 188/24/59 192/25/59
f 195/124/56 196/77/56 198/125/56 197/126/56
f 197/126/60 198/125/60 202/127/60 201/128/60
f 201/128/57 202/127/57 200/25/57 199/129/57
f 199/129/24 200/25/24 196/118/24 195/130/24
f 197/132/47 201/128/47 199/129/47 195/133/47
f 202/127/59 198/131/59 196/24/59 200/25/59
f 151/132/61 153/128/62 154/129/63 152/133/64
usemtl M4A1.005
f 203/124/56 204/77/56 206/125/56 205/126/56
f 205/126/1 206/125/1 210/127/1 209/128/1
f 209/128/57 210/127/57 208/25/57 207/129/57
f 207/129/24 208/25/24 204/118/24 203/130/24
f 207/129/24 203/130/24 212/130/65 214/129/66
f 210/127/59 206/131/59 204/24/59 208/25/59
f 205/126/1 209/128/1 213/128/67 211/126/68
f 203/124/53 205/126/53 211/126/69 212/124/70
f 209/128/50 207/129/50 214/129/71 213/128/72
f 215/124/43 216/77/43 218/125/43 217/126/43
f 217/126/1 218/125/1 222/127/1 221/128/1
f 221/128/44 222/127/44 220/25/44 219/129/44
f 219/129/73 220/25/73 216/118/73 215/130/73
f 217/132/59 221/128/59 219/129/59 215/133/59
f 222/127/47 218/131/47 216/24/47 220/25/47
f 223/124/43 224/77/43 226/125/43 225/126/43
f 225/126/1 226/125/1 230/127/1 229/128/1
f 229/128/44 230/127/44 228/25/44 227/129/44
f 227/129/24 228/25/24 224/118/24 223/130/24
f 225/132/59 229/128/59 227/129/59 223/133/59
f 230/127/47 226/131/47 224/24/47 228/25/47
f 231/124/43 232/77/43 234/125/43 233/126/43
f 233/126/1 234/125/1 238/127/1 237/128/1
f 237/128/44 238/127/44 236/25/44 235/129/44
f 235/129/24 236/25/24 232/118/24 231/130/24
f 233/132/59 237/128/59 235/129/59 231/133/59
f 238/127/47 234/131/47 232/24/47 236/25/47
f 239/124/43 240/77/43 242/125/43 241/126/43
f 241/126/1 242/125/1 246/127/1 245/128/1
f 245/128/44 246/127/44 244/25/44 243/129/44
f 243/129/24 244/25/24 240/118/24 239/130/24
f 241/132/59 245/128/59 243/129/59 239/133/59
f 246/127/47 242/131/47 240/24/47 244/25/47
f 247/124/43 248/77/43 250/125/43 249/126/43
f 249/126/1 250/125/1 254/127/1 253/128/1
f 253/128/44 254/127/44 252/25/44 251/129/44
f 251/129/24 252/25/24 248/118/24 247/130/24
f 249/132/59 253/128/59 251/129/59 247/133/59
f 254/127/47 250/131/47 248/24/47 252/25/47
f 255/124/43 256/77/43 258/125/43 257/126/43
f 257/126/74 258/125/74 262/127/74 261/128/74
f 261/128/44 262/127/44 260/25/44 259/129/44
f 259/129/24 260/25/24 256/118/24 255/130/24
f 257/132/59 261/128/59 259/129/59 255/133/59
f 262/127/47 258/131/47 256/24/47 260/25/47
f 211/132/75 213/128/76 214/129/77 212/133/78
