# Blender 4.4.3
# www.blender.org
mtllib Grip.mtl
o Cube.001
v -0.098479 0.424795 0.585060
v 0.098479 0.424795 0.585060
v -0.098479 0.210366 0.585060
v 0.098479 0.210366 0.585060
v -0.078814 0.107048 -0.398732
v -0.078814 0.170612 -0.462296
v -0.074045 0.224283 -0.403549
v -0.074045 0.193350 -0.420922
v -0.078814 0.151995 -0.417349
v -0.074045 0.294381 -0.421456
v 0.078814 0.170612 -0.462296
v 0.078814 0.107048 -0.398732
v -0.074045 0.269286 -0.402270
v 0.078814 0.151995 -0.417349
v -0.074045 0.314987 -0.452699
v -0.074045 0.297879 -0.442864
v 0.074045 0.224283 -0.403549
v 0.074045 0.193350 -0.420922
v 0.074045 0.294381 -0.421456
v 0.074045 0.269286 -0.402270
v 0.074045 0.314987 -0.452699
v 0.074045 0.297879 -0.442864
v 0.074045 0.424795 -0.525533
v -0.074045 0.424795 -0.525533
v 0.098479 0.269286 -0.402270
v 0.098479 0.224283 -0.403549
v 0.098479 0.193350 -0.420922
v 0.098479 0.297879 -0.442864
v 0.098479 0.294381 -0.421456
v 0.098479 0.314987 -0.452699
v 0.098479 0.153371 -0.497226
v 0.098479 0.053982 -0.478665
v 0.098479 0.085644 -0.512829
v 0.098479 0.124153 -0.516763
v 0.098479 0.424795 -0.422705
v -0.098479 0.424795 -0.422705
v -0.074045 0.424795 -0.422705
v 0.074045 0.424795 -0.422705
v -0.098479 0.053982 -0.478665
v -0.098479 0.269286 -0.402270
v -0.098479 0.224283 -0.403549
v -0.098479 0.193350 -0.420922
v -0.098479 0.297879 -0.442864
v -0.098479 0.294381 -0.421456
v -0.098479 0.314987 -0.452699
v -0.098479 0.153371 -0.497226
v -0.098479 0.085644 -0.512829
v -0.098479 0.124153 -0.516763
v -0.098479 0.053982 0.397422
v -0.098479 0.079584 0.443276
v 0.098479 0.079584 0.443276
v 0.098479 0.053982 0.397422
v -0.098479 0.147318 0.466784
v -0.098479 0.185225 0.512507
v 0.098479 0.185225 0.512507
v 0.098479 0.147318 0.466784
v 0.074045 0.170612 -0.532601
v -0.074045 0.170612 -0.532601
v -0.078814 0.053982 -0.398732
v -0.078814 0.053982 -0.478665
v 0.078814 0.053982 -0.398732
v 0.078814 0.053982 -0.478665
v -0.074045 0.170612 -0.464319
v -0.078814 0.153371 -0.497226
v -0.078814 0.124153 -0.516763
v -0.078814 0.085644 -0.512829
v -0.078814 0.170612 -0.464319
v 0.074045 0.170612 -0.464319
v 0.078814 0.124153 -0.516763
v 0.078814 0.153371 -0.497226
v 0.078814 0.085644 -0.512829
v 0.078814 0.170612 -0.464319
v -0.034834 0.059665 0.120443
v -0.082560 0.075335 0.165938
v 0.082560 0.075335 0.165938
v 0.034834 0.059665 0.120443
v -0.082560 -0.231063 0.651933
v -0.034834 -0.204006 0.691726
v 0.082560 -0.231062 0.651933
v 0.034834 -0.204006 0.691726
v -0.082560 0.191335 0.502712
v -0.034834 0.218992 0.579100
v 0.034834 0.218992 0.579100
v 0.082560 0.191335 0.502712
v -0.082560 -0.031671 0.475267
v -0.034834 -0.011647 0.521290
v -0.082560 0.133458 0.459412
v -0.034834 0.119647 0.508684
v 0.082560 0.133458 0.459412
v 0.034834 0.119647 0.508684
v 0.082560 -0.031671 0.475267
v 0.034834 -0.011647 0.521290
v -0.034834 -0.450587 0.777744
v -0.082560 -0.484665 0.716563
v -0.082560 -0.407663 0.741466
v -0.034834 -0.403630 0.792931
v 0.082560 -0.407663 0.741466
v 0.034834 -0.403630 0.792931
v 0.082560 -0.484665 0.716563
v 0.034834 -0.450587 0.777744
v -0.082560 -0.609003 0.493336
v -0.034834 -0.633584 0.449207
v 0.034834 -0.633584 0.449207
v 0.082560 -0.609003 0.493336
v -0.082560 -0.548581 0.474586
v -0.034834 -0.554556 0.424295
v -0.082560 -0.584911 0.466353
v -0.034834 -0.601785 0.413592
v 0.082560 -0.584911 0.466353
v 0.034834 -0.601785 0.413592
v 0.082560 -0.548581 0.474586
v 0.034834 -0.554556 0.424295
v 0.031317 0.054636 -0.401243
v 0.031317 0.010451 -0.344216
v 0.031317 0.054636 -0.285610
v 0.031317 0.016485 -0.309269
v -0.031317 0.054636 -0.401243
v -0.031317 0.010451 -0.344216
v -0.031317 0.054636 -0.285610
v -0.031317 0.016485 -0.309269
v 0.031317 -0.196435 -0.263075
v 0.031317 -0.171262 -0.239170
v -0.031317 -0.171262 -0.239170
v -0.031317 -0.196435 -0.263075
v 0.031317 -0.235812 -0.206002
v 0.031317 -0.195918 -0.202707
v -0.031317 -0.195918 -0.202707
v -0.031317 -0.235812 -0.206002
v 0.031317 -0.234169 0.055389
v 0.031317 -0.195011 0.033657
v -0.031317 -0.195011 0.033657
v -0.031317 -0.234169 0.055389
v 0.031317 -0.159272 0.190344
v 0.031317 -0.120113 0.168612
v -0.031317 -0.120113 0.168612
v -0.031317 -0.159272 0.190344
v 0.031317 -0.167393 0.238611
v 0.031317 -0.069348 0.188908
v -0.031317 -0.069348 0.188908
v -0.031317 -0.167393 0.238611
vn -0.0000 -0.0000 1.0000
vn -0.0000 0.0278 -0.9996
vn -0.0000 1.0000 -0.0000
vn 1.0000 -0.0000 -0.0000
vn -0.0000 -1.0000 -0.0000
vn -0.0000 -0.3279 0.9447
vn -1.0000 -0.0000 -0.0000
vn -0.0000 0.5559 -0.8313
vn -0.0000 -0.9869 -0.1612
vn -0.0000 -0.7334 -0.6798
vn -0.0000 -0.1016 -0.9948
vn -0.0000 0.8858 -0.4641
vn -0.0000 0.4897 -0.8719
vn -0.0000 -0.6074 -0.7944
vn -0.0000 0.0284 -0.9996
vn -0.0000 -0.4984 -0.8669
vn -0.0000 0.2635 -0.9647
vn -0.0000 -0.8731 0.4875
vn -0.0000 -0.7698 0.6383
vn -0.0000 -0.9449 0.3274
vn -0.0000 -0.9239 -0.3827
vn -0.0000 -0.3827 -0.9239
vn -0.0000 -0.0000 -1.0000
vn -0.0000 -0.7459 -0.6660
vn -0.0000 -0.5783 0.8158
vn -0.0000 0.4522 0.8919
vn -0.0000 -0.3077 0.9515
vn -0.0000 0.0956 0.9954
vn -0.0000 -0.8736 0.4866
vn -0.0000 0.6632 0.7485
vn -0.0000 0.9448 -0.3276
vn -0.0000 0.2210 -0.9753
vn -0.7071 0.0676 0.7039
vn 0.7071 0.0676 0.7039
vn 0.7005 -0.4182 0.5782
vn -0.7005 -0.4182 0.5782
vn 0.7071 0.4689 0.5293
vn -0.7071 0.4689 0.5293
vn -0.7071 -0.2176 0.6728
vn 0.7071 -0.2176 0.6728
vn -0.7071 0.3197 0.6307
vn 0.7071 0.3197 0.6307
vn -0.7071 0.1563 -0.6896
vn 0.7071 0.1563 -0.6896
vn -0.7071 -0.3135 -0.6338
vn -0.7071 -0.5275 -0.4709
vn 0.7071 -0.5275 -0.4709
vn 0.7071 -0.3135 -0.6338
vn -0.0000 -0.4434 -0.8963
vn -0.0000 -0.5270 0.8498
vn -0.0000 -0.7905 -0.6125
vn -0.0000 0.8284 0.5601
vn -0.0000 -0.3651 -0.9310
vn -0.0000 0.3498 0.9368
vn -0.0000 -0.8231 -0.5679
vn -0.0000 -0.8744 0.4853
vn -0.0000 -1.0000 0.0063
vn -0.0000 1.0000 -0.0038
vn -0.0000 0.8744 -0.4853
vn -0.0000 -0.9861 -0.1659
vn -0.0000 0.3712 -0.9285
vt 0.480296 0.750000
vt 0.625000 0.750000
vt 0.625000 1.000000
vt 0.480296 1.000000
vt 0.625000 0.266037
vt 0.625000 0.483963
vt 0.453632 0.483963
vt 0.453632 0.266037
vt 0.641037 0.523147
vt 0.641037 0.500000
vt 0.858963 0.500000
vt 0.858963 0.523147
vt 0.875000 0.523147
vt 0.875000 0.750000
vt 0.625000 0.523147
vt 0.396340 0.502689
vt 0.422303 0.501872
vt 0.441990 0.506038
vt 0.468905 0.522289
vt 0.489750 0.526133
vt 0.520089 0.526635
vt 0.537017 0.522585
vt 0.539384 0.517936
vt 0.550924 0.515839
vt 0.444899 0.738781
vt 0.418693 0.724837
vt 0.388778 0.701946
vt 0.375000 0.684814
vt 0.375000 0.509478
vt 0.125000 0.684814
vt 0.125000 0.509478
vt 0.137907 0.509478
vt 0.149894 0.525557
vt 0.350106 0.525557
vt 0.362093 0.509478
vt 0.125000 0.701946
vt 0.375000 0.701946
vt 0.375000 0.724837
vt 0.125000 0.724837
vt 0.430306 0.710614
vt 0.441334 0.721450
vt 0.454513 0.731229
vt 0.481624 0.741643
vt 0.500450 0.746556
vt 0.523926 0.750000
vt 0.607201 0.750000
vt 0.608775 0.629967
vt 0.450304 0.563975
vt 0.419971 0.696236
vt 0.369575 0.657255
vt 0.347202 0.657255
vt 0.347202 0.685333
vt 0.369575 0.685333
vt 0.347202 0.746556
vt 0.375000 0.746556
vt 0.375000 0.741643
vt 0.347202 0.741643
vt 0.369575 0.552114
vt 0.347202 0.552114
vt 0.347202 0.621778
vt 0.369575 0.621778
vt 0.347202 0.710614
vt 0.375000 0.710614
vt 0.375000 0.696236
vt 0.369575 0.696236
vt 0.347202 0.721450
vt 0.375000 0.721450
vt 0.375000 0.731229
vt 0.347202 0.731229
vt 0.347202 0.750000
vt 0.375000 0.750000
vt 0.607201 0.777798
vt 0.523926 0.777798
vt 0.450304 0.563975
vt 0.608775 0.629967
vt 0.607201 0.750000
vt 0.347202 0.746556
vt 0.369575 0.552114
vt 0.375000 0.696236
vt 0.347202 0.721450
vt 0.347202 0.731229
vt 0.607201 0.777798
vt 0.550924 0.234161
vt 0.539384 0.232064
vt 0.537017 0.227415
vt 0.520089 0.223365
vt 0.489750 0.223867
vt 0.468905 0.227711
vt 0.441990 0.243962
vt 0.422303 0.248128
vt 0.396340 0.247311
vt 0.375000 0.240522
vt 0.375000 0.065186
vt 0.388778 0.048054
vt 0.418693 0.025163
vt 0.444899 0.011219
vt 0.480296 0.000000
vt 0.625000 0.000000
vt 0.625000 0.226853
vt 0.375000 0.738781
vt 0.125000 0.738781
vt 0.125000 0.750000
vt 0.625000 0.679060
vt 0.875000 0.679060
vt 0.875000 0.676802
vt 0.867437 0.676802
vt 0.867437 0.600596
vt 0.632563 0.600596
vt 0.632563 0.676802
vt 0.625000 0.676802
vt 0.625000 0.073198
vt 0.625000 0.070940
vt 0.604222 0.020778
vt 0.554060 0.000000
vt 0.494836 0.000000
vt 0.494836 0.089209
vt 0.530173 0.127336
vt 0.573150 0.131728
vt 0.605758 0.109923
vt 0.605758 0.640077
vt 0.573150 0.618272
vt 0.530173 0.622664
vt 0.494836 0.660791
vt 0.494836 0.750000
vt 0.554060 0.750000
vt 0.604222 0.729222
vt 0.554060 1.000000
vt 0.494836 1.000000
vt 0.302740 0.529529
vt 0.197260 0.529529
vt 0.197260 0.529529
vt 0.302740 0.529529
vt 0.375000 0.058476
vt 0.402941 0.029295
vt 0.507264 0.034954
vt 0.579331 0.132540
vt 0.615460 0.181472
vt 0.625000 0.190480
vt 0.625000 0.242916
vt 0.397124 0.200923
vt 0.385295 0.205665
vt 0.375000 0.193732
vt 0.625000 0.822260
vt 0.625000 0.927740
vt 0.614164 0.927740
vt 0.614164 0.822260
vt 0.395242 0.822260
vt 0.524128 0.822260
vt 0.524128 0.927740
vt 0.395242 0.927740
vt 0.197260 0.728594
vt 0.302740 0.728594
vt 0.302740 0.750000
vt 0.197260 0.750000
vt 0.592921 0.927740
vt 0.592921 0.822260
vt 0.125000 0.556268
vt 0.375000 0.556268
vt 0.375000 0.691524
vt 0.302740 0.728594
vt 0.125000 0.691524
vt 0.592921 0.822260
vt 0.625000 0.507084
vt 0.697260 0.500000
vt 0.802740 0.500000
vt 0.875000 0.507084
vt 0.875000 0.559520
vt 0.802740 0.572022
vt 0.697260 0.572022
vt 0.625000 0.559520
vt 0.197260 0.500000
vt 0.302740 0.500000
vt 0.385295 0.544335
vt 0.397124 0.549077
vt 0.625000 0.559520
vt 0.615459 0.568528
vt 0.579330 0.617460
vt 0.507264 0.715046
vt 0.402941 0.720706
vt 0.375000 0.691524
vt 0.592921 0.096418
vt 0.614164 0.135353
vt 0.614164 0.614647
vt 0.592921 0.653582
vt 0.625000 0.572022
vt 0.625000 0.177978
vt 0.524128 0.750000
vt 0.524128 0.000000
vt 0.125000 0.741467
vt 0.125000 0.728594
vt 0.375000 0.728594
vt 0.375000 0.741467
vt 0.520594 1.000000
vt 0.406572 1.000000
vt 0.125000 0.512384
vt 0.125000 0.500000
vt 0.375000 0.500000
vt 0.375000 0.512384
vt 0.625000 0.322260
vt 0.406556 0.322260
vt 0.125000 0.529529
vt 0.406556 0.427740
vt 0.625000 0.427740
vt 0.375000 0.000000
vt 0.375000 0.250000
vt 0.625000 0.250000
vt 0.625000 0.500000
vt 0.375000 1.000000
vt 0.875000 0.500000
s 0
f 4/1/1 2/2/1 1/3/1 3/4/1
f 24/5/2 23/6/2 57/7/2 58/8/2
f 38/9/3 23/10/3 24/11/3 37/12/3 36/13/3 1/14/3 2/2/3 35/15/3
f 33/16/4 34/17/4 31/18/4 27/19/4 26/20/4 25/21/4 29/22/4 28/23/4 30/24/4 35/15/4 2/2/4 4/1/4 55/25/4 56/26/4 51/27/4 52/28/4 32/29/4
f 32/29/5 52/28/5 49/30/5 39/31/5 60/32/5 59/33/5 61/34/5 62/35/5
f 50/36/6 51/37/6 56/38/6 53/39/6
f 8/40/7 7/41/7 13/42/7 10/43/7 16/44/7 15/45/7 37/46/7 24/47/7 58/48/7 63/49/7
f 65/50/8 48/51/8 46/52/8 64/53/8
f 43/54/9 16/55/9 10/56/9 44/57/9
f 60/58/10 39/59/10 47/60/10 66/61/10
f 66/61/11 47/60/11 48/51/11 65/50/11
f 64/53/12 46/52/12 42/62/12 8/63/12 63/64/12 67/65/12
f 41/66/13 7/67/13 8/63/13 42/62/13
f 44/57/14 10/56/14 13/68/14 40/69/14
f 40/69/15 13/68/15 7/67/15 41/66/15
f 45/70/16 15/71/16 16/55/16 43/54/16
f 36/72/17 37/46/17 15/45/17 45/73/17
f 22/44/4 19/43/4 20/42/4 17/41/4 18/40/4 68/49/4 57/74/4 23/75/4 38/76/4 21/45/4
f 31/52/8 34/51/8 69/50/8 70/53/8
f 29/57/9 19/56/9 22/55/9 28/77/9
f 33/60/10 32/59/10 62/78/10 71/61/10
f 34/51/11 33/60/11 71/61/11 69/50/11
f 68/79/12 18/63/12 27/62/12 31/52/12 70/53/12 72/65/12
f 27/62/13 18/63/13 17/67/13 26/80/13
f 25/81/14 20/68/14 19/56/14 29/57/14
f 26/80/15 17/67/15 20/68/15 25/81/15
f 28/77/16 22/55/16 21/71/16 30/70/16
f 21/45/17 38/76/17 35/82/17 30/73/17
f 49/30/18 52/28/18 51/37/18 50/36/18
f 45/83/7 43/84/7 44/85/7 40/86/7 41/87/7 42/88/7 46/89/7 48/90/7 47/91/7 39/92/7 49/93/7 50/94/7 53/95/7 54/96/7 3/97/7 1/98/7 36/99/7
f 53/39/19 56/38/19 55/100/19 54/101/19
f 54/101/20 55/100/20 4/71/20 3/102/20
f 11/103/5 6/104/5 67/105/5 63/106/5 58/107/5 57/108/5 68/109/5 72/110/5
f 67/111/4 6/112/4 9/113/4 5/114/4 59/115/4 60/116/4 66/117/4 65/118/4 64/119/4
f 70/120/7 69/121/7 71/122/7 62/123/7 61/124/7 12/125/7 14/126/7 11/103/7 72/110/7
f 9/14/21 6/104/21 11/103/21 14/2/21
f 14/2/22 12/125/22 5/127/22 9/3/22
f 5/127/23 12/125/23 61/124/23 59/128/23
f 103/129/24 102/130/24 108/131/24 110/132/24
f 94/133/7 95/134/7 77/135/7 85/136/7 87/137/7 81/138/7 74/139/7 105/140/7 107/141/7 101/142/7
f 83/143/25 82/144/25 88/145/25 90/146/25
f 98/147/26 80/148/26 78/149/26 96/150/26
f 93/151/27 100/152/27 98/153/27 96/154/27
f 86/155/28 92/156/28 90/146/28 88/145/28
f 101/157/29 102/131/29 103/132/29 104/158/29 99/159/29 100/160/29 93/151/29 94/161/29
f 92/162/30 86/155/30 78/149/30 80/148/30
f 75/163/31 76/164/31 73/165/31 74/166/31 81/167/31 82/168/31 83/169/31 84/170/31
f 106/171/32 112/172/32 110/129/32 108/130/32
f 104/158/4 109/173/4 111/174/4 75/163/4 84/175/4 89/176/4 91/177/4 79/178/4 97/179/4 99/180/4
f 87/137/33 85/136/33 86/181/33 88/182/33
f 91/177/34 89/176/34 90/183/34 92/184/34
f 89/176/35 84/175/35 83/185/35 90/183/35
f 81/138/36 87/137/36 88/182/36 82/186/36
f 79/178/37 91/177/37 92/184/37 80/187/37
f 85/136/38 77/135/38 78/188/38 86/181/38
f 95/189/39 94/190/39 93/151/39 96/154/39
f 99/191/40 97/192/40 98/153/40 100/152/40
f 96/150/41 78/149/41 77/193/41 95/194/41
f 97/179/42 79/178/42 80/148/42 98/147/42
f 107/195/43 105/196/43 106/171/43 108/130/43
f 111/197/44 109/198/44 110/129/44 112/172/44
f 73/199/45 106/200/45 105/140/45 74/139/45
f 108/131/46 102/130/46 101/201/46 107/201/46
f 109/173/47 104/158/47 103/129/47 110/132/47
f 75/163/48 111/174/48 112/202/48 76/203/48
f 106/200/49 73/199/49 76/203/49 112/202/49
f 113/204/4 115/205/4 116/206/4 114/98/4
f 115/205/50 119/197/50 120/207/50 116/206/50
f 119/197/7 117/71/7 118/2/7 120/207/7
f 117/71/51 113/208/51 114/3/51 118/2/51
f 115/196/3 113/102/3 117/71/3 119/197/3
f 118/2/7 124/2/7 123/207/7 120/207/7
f 123/207/52 127/207/52 126/206/52 122/206/52
f 116/206/4 122/206/4 121/98/4 114/98/4
f 114/3/53 121/3/53 124/2/53 118/2/53
f 120/207/54 123/207/54 122/206/54 116/206/54
f 128/2/7 132/2/7 131/207/7 127/207/7
f 124/2/7 128/2/7 127/207/7 123/207/7
f 122/206/4 126/206/4 125/98/4 121/98/4
f 121/3/55 125/3/55 128/2/55 124/2/55
f 129/3/56 133/3/56 136/2/56 132/2/56
f 126/206/4 130/206/4 129/98/4 125/98/4
f 125/3/57 129/3/57 132/2/57 128/2/57
f 127/207/58 131/207/58 130/206/58 126/206/58
f 136/2/7 140/2/7 139/207/7 135/207/7
f 131/207/59 135/207/59 134/206/59 130/206/59
f 132/2/7 136/2/7 135/207/7 131/207/7
f 130/206/4 134/206/4 133/98/4 129/98/4
f 139/207/26 140/2/26 137/14/26 138/209/26
f 134/206/4 138/206/4 137/98/4 133/98/4
f 133/3/60 137/3/60 140/2/60 136/2/60
f 135/207/61 139/207/61 138/206/61 134/206/61
