# Blender 4.4.3
# www.blender.org
mtllib Screws.mtl
o Cylinder.010
v -0.118370 0.241162 0.034632
v 0.118370 0.241163 0.034632
v -0.118370 0.208449 0.048183
v 0.118370 0.208449 0.048183
v -0.118370 0.194899 0.080896
v 0.118370 0.194899 0.080896
v -0.118370 0.208449 0.113610
v 0.118370 0.208449 0.113610
v -0.118370 0.241162 0.127160
v 0.118370 0.241163 0.127160
v -0.118370 0.273876 0.113610
v 0.118370 0.273876 0.113610
v -0.118370 0.287426 0.080896
v 0.118370 0.287426 0.080896
v -0.118370 0.273876 0.048183
v 0.118370 0.273876 0.048183
v -0.096848 0.241163 0.034632
v -0.096848 0.208449 0.048183
v -0.096848 0.194899 0.080896
v -0.096848 0.208449 0.113610
v -0.096848 0.241163 0.127160
v -0.096848 0.273876 0.113610
v -0.096848 0.287426 0.080896
v -0.096848 0.273876 0.048183
v -0.096848 0.285033 0.161480
v -0.118370 0.285033 0.161480
v -0.118370 0.308603 0.160290
v -0.096848 0.308603 0.160290
v -0.118370 0.322716 0.144913
v -0.096848 0.322716 0.144913
v -0.096848 0.300363 0.194100
v -0.118370 0.300363 0.194100
v -0.118370 0.323934 0.192911
v -0.096848 0.323934 0.192911
v -0.118370 0.338047 0.177534
v -0.096848 0.338047 0.177534
v -0.109650 0.154229 -0.706999
v -0.109650 0.159837 -0.695249
v -0.109650 0.201056 -0.680665
v -0.109650 0.212806 -0.686273
v -0.109650 0.171986 -0.729585
v -0.109650 0.160237 -0.723977
v -0.109650 0.218813 -0.703251
v -0.109650 0.213205 -0.715001
v 0.109650 0.159837 -0.695249
v 0.109650 0.154229 -0.706999
v 0.109650 0.212806 -0.686273
v 0.109650 0.201056 -0.680665
v 0.109650 0.160237 -0.723977
v 0.109650 0.171986 -0.729585
v 0.109650 0.213205 -0.715001
v 0.109650 0.218813 -0.703251
v -0.091045 0.201056 -0.680665
v 0.091045 0.201056 -0.680665
v 0.091045 0.159837 -0.695249
v -0.091045 0.159837 -0.695249
v 0.091045 0.218813 -0.703251
v -0.091045 0.218813 -0.703251
v -0.091045 0.212806 -0.686273
v 0.091045 0.212806 -0.686273
v 0.091045 0.213205 -0.715001
v -0.091045 0.213205 -0.715001
v -0.091045 0.171986 -0.729585
v 0.091045 0.171986 -0.729585
v 0.091045 0.160237 -0.723977
v -0.091045 0.160237 -0.723977
v -0.091045 0.154229 -0.706999
v 0.091045 0.154229 -0.706999
v 0.110338 0.112174 -0.491548
v -0.110338 0.112174 -0.491548
v 0.110338 0.136428 -0.481502
v -0.110338 0.136428 -0.481502
v 0.110338 0.146474 -0.457248
v -0.110338 0.146474 -0.457248
v 0.110338 0.136428 -0.432995
v -0.110338 0.136428 -0.432995
v 0.110338 0.112174 -0.422949
v -0.110338 0.112174 -0.422949
v 0.110338 0.087921 -0.432995
v -0.110338 0.087921 -0.432995
v 0.110338 0.077875 -0.457248
v -0.110338 0.077875 -0.457248
v 0.110338 0.087921 -0.481502
v -0.110338 0.087921 -0.481502
v 0.100579 0.227947 -0.494698
v -0.100579 0.227947 -0.494698
v 0.100579 0.254465 -0.481607
v -0.100579 0.254465 -0.481607
v 0.100579 0.263466 -0.455201
v -0.100579 0.263466 -0.455201
v 0.100579 0.249679 -0.430948
v -0.100579 0.249679 -0.430948
v 0.100579 0.221179 -0.423054
v -0.100579 0.221179 -0.423054
v 0.100579 0.194661 -0.436145
v -0.100579 0.194661 -0.436145
v 0.100579 0.185660 -0.462551
v -0.100579 0.185660 -0.462551
v 0.100579 0.199447 -0.486805
v -0.100579 0.199447 -0.486805
v -0.082475 0.265894 -0.423916
v -0.092089 0.267554 -0.433691
v -0.092089 0.283784 -0.430935
v -0.082475 0.282124 -0.421160
v -0.092089 0.274143 -0.472497
v -0.082475 0.275803 -0.482272
v -0.082475 0.292033 -0.479516
v -0.092089 0.290373 -0.469741
v 0.092089 0.267554 -0.433691
v 0.082475 0.265894 -0.423916
v 0.082475 0.282124 -0.421160
v 0.092089 0.283784 -0.430935
v 0.082475 0.275803 -0.482272
v 0.092089 0.274143 -0.472497
v 0.092089 0.290373 -0.469741
v 0.082475 0.292033 -0.479516
v -0.128768 0.247667 -0.785731
v -0.128768 0.347095 -0.785731
v -0.100992 0.247667 -0.785731
v -0.100992 0.347095 -0.785731
v -0.128768 0.247667 -0.737277
v -0.128768 0.290807 -0.671062
v -0.128768 0.260302 -0.690456
v -0.128768 0.303955 -0.671062
v -0.128768 0.347095 -0.737277
v -0.128768 0.334460 -0.690456
v -0.100992 0.290807 -0.671062
v -0.100992 0.247667 -0.737277
v -0.100992 0.260302 -0.690456
v -0.100992 0.347095 -0.737277
v -0.100992 0.303955 -0.671062
v -0.100992 0.334460 -0.690456
v -0.027604 0.002422 0.030254
v -0.027604 0.057631 0.023188
v -0.027604 0.002422 -0.044387
v -0.027604 0.057631 -0.084135
v 0.027604 0.002422 0.030254
v 0.027604 0.057631 0.023188
v 0.027604 0.002422 -0.044387
v 0.027604 0.057631 -0.084135
v -0.027604 -0.069125 -0.034670
v -0.027604 -0.091207 0.019654
v 0.027604 -0.069125 -0.034670
v 0.027604 -0.091207 0.019654
v -0.027604 -0.123797 -0.049720
v -0.027604 -0.153829 -0.018361
v 0.027604 -0.123797 -0.049720
v 0.027604 -0.153829 -0.018361
v -0.027604 -0.156919 -0.079824
v -0.027604 -0.186068 -0.074081
v 0.027604 -0.156919 -0.079824
v 0.027604 -0.186068 -0.074081
v 0.075109 0.122208 -0.508283
v -0.075109 0.122208 -0.508283
v 0.075109 0.155356 -0.486240
v -0.075109 0.155356 -0.486240
v 0.075109 0.163209 -0.447214
v -0.075109 0.163209 -0.447214
v 0.075109 0.141166 -0.414067
v -0.075109 0.141166 -0.414067
v 0.075109 0.102140 -0.406214
v -0.075109 0.102140 -0.406214
v 0.075109 0.068992 -0.428257
v -0.075109 0.068993 -0.428257
v 0.075109 0.061140 -0.467283
v -0.075109 0.061140 -0.467283
v 0.075109 0.083183 -0.500430
v -0.075109 0.083183 -0.500430
v -0.040025 0.069570 -0.442237
v -0.040025 0.065793 -0.478195
v 0.040025 0.069570 -0.442237
v 0.040025 0.065793 -0.478195
v -0.055339 0.001584 -0.435095
v -0.055339 -0.002194 -0.471053
v 0.055339 -0.002194 -0.471053
v 0.055339 0.001584 -0.435095
v -0.040025 0.030279 -0.438109
v -0.040025 0.026502 -0.474067
v 0.040025 0.026502 -0.474067
v 0.040025 0.030279 -0.438109
v -0.055339 -0.060970 -0.428524
v -0.037117 -0.086698 -0.425821
v -0.037117 -0.090475 -0.461779
v -0.055339 -0.064747 -0.464482
v 0.037117 -0.086698 -0.425821
v 0.055339 -0.060970 -0.428524
v 0.055339 -0.064747 -0.464482
v 0.037117 -0.090475 -0.461779
v -0.040025 0.104230 -0.445878
v -0.040025 0.100453 -0.481836
v 0.040025 0.100453 -0.481836
v 0.040025 0.104230 -0.445878
vn -0.0000 -0.3827 -0.9239
vn -0.0000 -0.9239 -0.3827
vn -0.0000 -0.9239 0.3827
vn -0.0000 -0.3827 0.9239
vn -0.0000 0.3827 0.9239
vn -0.0000 0.9239 0.3827
vn 1.0000 -0.0000 -0.0000
vn -0.0000 0.9239 -0.3827
vn -0.0000 0.3827 -0.9239
vn -1.0000 -0.0000 -0.0000
vn -0.0000 -0.6162 0.7876
vn -0.0000 0.8757 -0.4828
vn -0.0000 0.7367 0.6762
vn -0.0000 0.0504 0.9987
vn -0.0000 0.9050 -0.4253
vn -0.0000 -0.9050 0.4253
vn -0.0000 -0.3336 0.9427
vn -0.0000 0.9427 0.3336
vn -0.0000 0.3336 -0.9427
vn -0.0000 -0.4308 -0.9025
vn -0.0000 0.9025 -0.4307
vn -0.0000 -0.9025 0.4308
vn -0.0000 -0.9025 0.4307
vn -0.0000 0.4308 0.9025
vn -0.0000 -0.9427 -0.3336
vn -0.0000 0.4427 -0.8967
vn -0.0000 0.9465 -0.3227
vn -0.0000 0.8693 0.4942
vn -0.0000 0.2669 0.9637
vn -0.0000 -0.4427 0.8967
vn -0.0000 -0.9465 0.3227
vn -0.0000 -0.8693 -0.4942
vn -0.0000 -0.2669 -0.9637
vn -0.0000 -0.1674 0.9859
vn -0.0000 0.9859 0.1674
vn -0.0000 0.1674 -0.9859
vn -0.7179 -0.1165 0.6863
vn -0.7179 0.1165 -0.6863
vn 0.7179 0.1165 -0.6863
vn 0.7179 -0.1165 0.6863
vn -0.0000 -0.9859 -0.1674
vn -0.0000 -0.0000 1.0000
vn -0.0000 -0.0000 -1.0000
vn -0.0000 1.0000 -0.0000
vn -0.0000 -0.9655 0.2605
vn -0.0000 -0.5365 0.8439
vn -0.0000 0.9655 0.2605
vn -0.0000 0.5365 0.8439
vn -0.0000 -1.0000 -0.0000
vn -0.0000 -0.5843 -0.8115
vn -0.0000 0.1270 0.9919
vn -0.0000 -0.1125 0.9937
vn -0.0000 -0.5189 0.8548
vn -0.0000 -0.1346 -0.9909
vn -0.0000 0.6726 -0.7400
vn -0.0000 0.2654 -0.9641
vn -0.0000 -0.1933 -0.9811
vn -0.0000 -0.8656 0.5008
vn -0.0000 0.5537 -0.8327
vn -0.0000 0.9804 -0.1973
vn -0.0000 0.8327 0.5537
vn -0.0000 0.1973 0.9804
vn -0.0000 -0.5537 0.8327
vn -0.0000 -0.9804 0.1973
vn -0.0000 -0.8327 -0.5537
vn -0.0000 -0.1973 -0.9804
vn -0.0000 -0.1045 -0.9945
vn -0.0000 0.1045 0.9945
vn -0.0000 -0.9945 0.1045
vn 0.8833 0.4662 -0.0490
vn -0.8833 0.4662 -0.0490
vn -0.8175 -0.5727 0.0602
vn 0.8175 -0.5727 0.0602
vn -0.0000 0.9945 -0.1045
vt 1.000000 0.545455
vt 1.000000 1.000000
vt 0.875000 1.000000
vt 0.875000 0.545455
vt 0.750000 1.000000
vt 0.750000 0.545455
vt 0.625000 1.000000
vt 0.625000 0.545455
vt 0.500000 1.000000
vt 0.500000 0.545455
vt 0.375000 1.000000
vt 0.375000 0.545455
vt 0.250000 1.000000
vt 0.250000 0.545455
vt 0.419706 0.419706
vt 0.250000 0.490000
vt 0.080294 0.419706
vt 0.010000 0.250000
vt 0.080294 0.080294
vt 0.250000 0.010000
vt 0.419706 0.080294
vt 0.490000 0.250000
vt 0.125000 1.000000
vt 0.125000 0.545455
vt 0.000000 1.000000
vt 0.000000 0.545455
vt 0.750000 0.490000
vt 0.919706 0.419706
vt 0.990000 0.250000
vt 0.919706 0.080294
vt 0.750000 0.010000
vt 0.580294 0.080294
vt 0.510000 0.250000
vt 0.580294 0.419706
vt 0.125000 0.500000
vt 0.000000 0.500000
vt 0.250000 0.500000
vt 0.625000 0.500000
vt 0.500000 0.500000
vt 0.750000 0.500000
vt 0.875000 0.500000
vt 1.000000 0.500000
vt 0.375000 0.500000
vt 0.587960 0.978791
vt 0.587960 1.000000
vt 0.412040 1.000000
vt 0.412040 0.978791
vt 0.412040 0.750000
vt 0.587960 0.750000
vt 0.587960 0.771209
vt 0.412040 0.771209
vt 0.625000 0.563190
vt 0.625000 0.686810
vt 0.375000 0.686810
vt 0.375000 0.563190
vt 0.412040 0.500000
vt 0.587960 0.500000
vt 0.875000 0.563190
vt 0.875000 0.686810
vt 0.853791 0.686810
vt 0.853791 0.563190
vt 0.646209 0.686810
vt 0.646209 0.563190
vt 0.375000 0.186810
vt 0.375000 0.063190
vt 0.412040 0.000000
vt 0.587960 0.000000
vt 0.625000 0.063190
vt 0.625000 0.186810
vt 0.587960 0.250000
vt 0.412040 0.250000
vt 0.412040 0.478791
vt 0.587960 0.478791
vt 0.412040 0.271209
vt 0.587960 0.271209
vt 0.125000 0.563190
vt 0.146209 0.500000
vt 0.146209 0.563190
vt 0.353791 0.500000
vt 0.353791 0.563190
vt 0.625000 0.478791
vt 0.625000 0.250000
vt 0.625000 0.271209
vt 0.353791 0.686810
vt 0.375000 0.750000
vt 0.353791 0.750000
vt 0.125000 0.750000
vt 0.125000 0.686810
vt 0.146209 0.686810
vt 0.146209 0.750000
vt 0.625000 0.978791
vt 0.625000 0.750000
vt 0.625000 0.771209
vt 0.473971 0.152826
vt 0.444054 0.159633
vt 0.438888 0.169772
vt 0.441298 0.186764
vt 0.449159 0.193949
vt 0.480145 0.186926
vt 0.484956 0.176858
vt 0.481791 0.160020
vt 0.444054 0.590367
vt 0.473971 0.597174
vt 0.481791 0.589980
vt 0.484956 0.573142
vt 0.480145 0.563075
vt 0.449159 0.556051
vt 0.441298 0.563236
vt 0.438888 0.580228
vt 0.375000 0.795478
vt 0.625000 0.795478
vt 0.625000 0.954522
vt 0.375000 0.954522
vt 0.375000 0.541877
vt 0.625000 0.541877
vt 0.625000 0.708123
vt 0.375000 0.708123
vt 0.670477 0.500000
vt 0.829523 0.500000
vt 0.875000 0.541877
vt 0.875000 0.708123
vt 0.829523 0.750000
vt 0.670477 0.750000
vt 0.375000 0.041877
vt 0.625000 0.041877
vt 0.625000 0.208123
vt 0.375000 0.208123
vt 0.375000 0.295477
vt 0.625000 0.295477
vt 0.625000 0.454523
vt 0.375000 0.454523
vt 0.375000 0.000000
vt 0.625000 0.000000
vt 0.125000 0.541877
vt 0.170477 0.500000
vt 0.329523 0.500000
vt 0.329523 0.750000
vt 0.170477 0.750000
vt 0.125000 0.708123
vt 0.483471 0.750000
vt 0.516529 0.750000
vt 0.516529 1.000000
vt 0.483471 1.000000
vt 0.375000 0.250000
vt 0.875000 0.668087
vt 0.625000 0.668087
vt 0.375000 0.081913
vt 0.406770 0.023992
vt 0.483471 0.000000
vt 0.516529 0.000000
vt 0.593230 0.023992
vt 0.625000 0.081913
vt 0.593230 0.726008
vt 0.483471 0.750000
vt 0.406770 0.726008
vt 0.375000 0.668087
vt 0.125000 0.668087
vt 0.375000 0.668087
vt 0.875000 0.750000
vt 0.562142 0.000000
vt 0.562142 0.250000
vt 0.562142 0.500000
vt 0.562142 0.750000
vt 0.562142 1.000000
vt 0.375000 0.791160
vt 0.416160 0.750000
vt 0.516234 0.750000
vt 0.516234 1.000000
vt 0.416160 1.000000
vt 0.375000 0.958840
vt 0.375000 0.291160
vt 0.416160 0.250000
vt 0.516234 0.250000
vt 0.516234 0.500000
vt 0.416160 0.500000
vt 0.375000 0.458840
vt 0.166160 0.500000
vt 0.333840 0.500000
vt 0.333840 0.750000
vt 0.166160 0.750000
vt 0.516234 0.000000
vt 0.416160 0.000000
s 0
f 17/1/1 2/2/1 4/3/1 18/4/1
f 18/4/2 4/3/2 6/5/2 19/6/2
f 19/6/3 6/5/3 8/7/3 20/8/3
f 20/8/4 8/7/4 10/9/4 21/10/4
f 21/10/5 10/9/5 12/11/5 22/12/5
f 22/12/6 12/11/6 14/13/6 23/14/6
f 4/15/7 2/16/7 16/17/7 14/18/7 12/19/7 10/20/7 8/21/7 6/22/7
f 23/14/8 14/13/8 16/23/8 24/24/8
f 24/24/9 16/23/9 2/25/9 17/26/9
f 1/27/10 3/28/10 5/29/10 7/30/10 9/31/10 11/32/10 13/33/10 15/34/10
f 15/35/9 24/24/9 17/26/9 1/36/9
f 13/37/8 23/14/8 24/24/8 15/35/8
f 22/12/7 23/14/7 30/14/7 28/12/7
f 13/33/10 11/32/10 27/32/10 29/33/10
f 7/38/4 20/8/4 21/10/4 9/39/4
f 5/40/3 19/6/3 20/8/3 7/38/3
f 3/41/2 18/4/2 19/6/2 5/40/2
f 1/42/1 17/1/1 18/4/1 3/41/1
f 29/33/10 27/32/10 33/32/10 35/33/10
f 28/12/7 30/14/7 36/14/7 34/12/7
f 9/39/11 21/10/11 25/10/11 26/39/11
f 21/10/7 22/12/7 28/12/7 25/10/7
f 11/32/10 9/31/10 26/31/10 27/32/10
f 23/14/12 13/37/12 29/37/12 30/14/12
f 33/43/13 34/12/13 36/14/13 35/37/13
f 32/39/14 31/10/14 34/12/14 33/43/14
f 27/32/10 26/31/10 32/31/10 33/32/10
f 25/10/7 28/12/7 34/12/7 31/10/7
f 30/14/15 29/37/15 35/37/15 36/14/15
f 26/39/16 25/10/16 31/10/16 32/39/16
f 53/44/17 39/45/17 38/46/17 56/47/17
f 45/48/17 48/49/17 54/50/17 55/51/17
f 52/52/7 47/53/7 48/49/7 45/48/7 46/54/7 49/55/7 50/56/7 51/57/7
f 43/58/18 40/59/18 59/60/18 58/61/18
f 60/62/18 47/53/18 52/52/18 57/63/18
f 42/64/10 37/65/10 38/66/10 39/67/10 40/68/10 43/69/10 44/70/10 41/71/10
f 51/57/19 50/56/19 64/72/19 61/73/19
f 63/74/19 41/71/19 44/70/19 62/75/19
f 42/76/20 41/35/20 63/77/20 66/78/20
f 64/79/20 50/43/20 49/55/20 65/80/20
f 57/81/21 52/38/21 51/57/21 61/73/21
f 44/70/21 43/82/21 58/83/21 62/75/21
f 68/84/22 46/54/22 45/85/22 55/86/22
f 38/87/23 37/88/23 67/89/23 56/90/23
f 40/7/24 39/45/24 53/44/24 59/91/24
f 54/50/24 48/49/24 47/92/24 60/93/24
f 65/80/25 49/55/25 46/54/25 68/84/25
f 37/88/25 42/76/25 66/78/25 67/89/25
f 53/94/7 56/95/7 67/96/7 66/97/7 63/98/7 62/99/7 58/100/7 59/101/7
f 55/102/10 54/103/10 60/104/10 57/105/10 61/106/10 64/107/10 65/108/10 68/109/10
f 69/42/9 70/2/9 72/3/9 71/41/9
f 71/41/8 72/3/8 74/5/8 73/40/8
f 73/40/6 74/5/6 76/7/6 75/38/6
f 75/38/5 76/7/5 78/9/5 77/39/5
f 77/39/4 78/9/4 80/11/4 79/43/4
f 79/43/3 80/11/3 82/13/3 81/37/3
f 72/15/10 70/16/10 84/17/10 82/18/10 80/19/10 78/20/10 76/21/10 74/22/10
f 81/37/2 82/13/2 84/23/2 83/35/2
f 83/35/1 84/23/1 70/25/1 69/36/1
f 69/27/7 71/28/7 73/29/7 75/30/7 77/31/7 79/32/7 81/33/7 83/34/7
f 85/42/26 86/2/26 88/3/26 87/41/26
f 87/41/27 88/3/27 90/5/27 89/40/27
f 89/40/28 90/5/28 92/7/28 91/38/28
f 91/38/29 92/7/29 94/9/29 93/39/29
f 93/39/30 94/9/30 96/11/30 95/43/30
f 95/43/31 96/11/31 98/13/31 97/37/31
f 88/15/10 86/16/10 100/17/10 98/18/10 96/19/10 94/20/10 92/21/10 90/22/10
f 97/37/32 98/13/32 100/23/32 99/35/32
f 99/35/33 100/23/33 86/25/33 85/36/33
f 85/27/7 87/28/7 89/29/7 91/30/7 93/31/7 95/32/7 97/33/7 99/34/7
f 110/110/34 111/111/34 104/112/34 101/113/34
f 114/114/7 115/115/7 112/116/7 109/117/7
f 115/115/35 116/118/35 107/119/35 108/120/35 103/121/35 104/122/35 111/123/35 112/116/35
f 102/124/10 103/125/10 108/126/10 105/127/10
f 106/128/36 107/129/36 116/130/36 113/131/36
f 101/132/37 104/133/37 103/125/37 102/124/37
f 107/129/38 106/128/38 105/127/38 108/126/38
f 115/115/39 114/114/39 113/131/39 116/130/39
f 111/111/40 110/110/40 109/117/40 112/116/40
f 105/134/41 106/135/41 113/136/41 114/114/41 109/117/41 110/137/41 101/138/41 102/139/41
f 127/140/42 131/141/42 124/142/42 122/143/42
f 117/144/43 118/82/43 120/38/43 119/43/43
f 120/38/44 118/41/44 125/145/44 130/146/44
f 121/147/10 123/148/10 122/149/10 124/150/10 126/151/10 125/152/10 118/82/10 117/144/10
f 119/43/7 120/38/7 130/146/7 132/153/7 131/141/7 127/154/7 129/155/7 128/156/7
f 121/157/45 128/158/45 129/85/45 123/87/45
f 123/11/46 129/85/46 127/140/46 122/143/46
f 130/146/47 125/145/47 126/159/47 132/92/47
f 132/92/48 126/7/48 124/142/48 131/141/48
f 117/35/49 119/43/49 128/158/49 121/157/49
f 133/132/10 134/133/10 136/82/10 135/144/10
f 135/144/50 136/82/50 140/38/50 139/43/50
f 139/43/7 140/38/7 138/92/7 137/85/7
f 137/85/51 138/92/51 134/7/51 133/11/51
f 137/85/52 133/11/52 142/11/52 144/85/52
f 140/38/44 136/41/44 134/159/44 138/92/44
f 144/85/53 142/11/53 146/11/53 148/85/53
f 135/144/54 139/43/54 143/43/54 141/144/54
f 133/132/10 135/144/10 141/144/10 142/132/10
f 139/43/7 137/85/7 144/85/7 143/43/7
f 145/144/55 147/43/55 151/43/55 149/144/55
f 141/144/56 143/43/56 147/43/56 145/144/56
f 143/43/7 144/85/7 148/85/7 147/43/7
f 142/132/10 141/144/10 145/144/10 146/132/10
f 149/35/57 151/43/57 152/85/57 150/87/57
f 147/43/7 148/85/7 152/85/7 151/43/7
f 146/132/10 145/144/10 149/144/10 150/132/10
f 148/85/58 146/11/58 150/11/58 152/85/58
f 153/42/59 154/2/59 156/3/59 155/41/59
f 155/41/60 156/3/60 158/5/60 157/40/60
f 157/40/61 158/5/61 160/7/61 159/38/61
f 159/38/62 160/7/62 162/9/62 161/39/62
f 161/39/63 162/9/63 164/11/63 163/43/63
f 163/43/64 164/11/64 166/13/64 165/37/64
f 156/15/10 154/16/10 168/17/10 166/18/10 164/19/10 162/20/10 160/21/10 158/22/10
f 165/37/65 166/13/65 168/23/65 167/35/65
f 167/35/66 168/23/66 154/25/66 153/36/66
f 153/27/7 155/28/7 157/29/7 159/30/7 161/31/7 163/32/7 165/33/7 167/34/7
f 177/160/10 169/133/10 170/82/10 178/161/10
f 178/161/67 170/82/67 172/38/67 179/162/67
f 179/162/7 172/38/7 171/92/7 180/163/7
f 180/163/68 171/92/68 169/7/68 177/164/68
f 185/165/68 186/166/68 176/167/68 173/168/68 181/169/68 182/170/68
f 171/92/7 172/38/7 191/38/7 192/92/7
f 183/171/67 184/172/67 174/173/67 175/174/67 187/175/67 188/176/67
f 187/175/7 175/174/7 176/167/7 186/166/7
f 183/177/69 188/178/69 185/179/69 182/180/69
f 176/167/68 180/163/68 177/164/68 173/168/68
f 175/174/70 179/162/70 180/163/70 176/167/70
f 174/173/67 178/161/67 179/162/67 175/174/67
f 173/181/71 177/160/71 178/161/71 174/173/71
f 183/177/72 182/180/72 181/87/72 184/35/72
f 185/179/73 188/178/73 187/175/73 186/166/73
f 181/182/10 173/181/10 174/173/10 184/172/10
f 191/38/74 190/41/74 189/159/74 192/92/74
f 170/82/10 169/133/10 189/133/10 190/82/10
f 169/7/68 171/92/68 192/92/68 189/7/68
f 172/38/67 170/82/67 190/82/67 191/38/67
