# Blender 4.4.3
# www.blender.org
mtllib Slide.mtl
o Cylinder.011
v 0.060662 0.713033 -0.624920
v 0.060662 0.713033 -0.326317
v 0.042895 0.670138 -0.624920
v 0.042895 0.670138 -0.326317
v 0.000000 0.652371 -0.624920
v 0.000000 0.652371 -0.326317
v -0.042895 0.670138 -0.624920
v -0.042895 0.670138 -0.326317
v -0.060662 0.713033 -0.624920
v -0.060662 0.713033 -0.326317
v 0.053413 0.730534 -0.326317
v 0.053413 0.730534 -0.624920
v -0.053413 0.730534 -0.326317
v -0.053413 0.730534 -0.624920
v 0.019219 0.660332 -0.624920
v 0.019219 0.660332 -0.326317
v 0.032592 0.613523 -0.624920
v 0.013373 0.605563 -0.624920
v 0.032592 0.613523 -0.326317
v 0.013373 0.605563 -0.326317
v 0.000000 0.658743 -0.628571
v 0.000000 0.658743 -0.322667
v 0.094528 0.619588 -0.628571
v 0.094528 0.619588 -0.322667
v -0.094528 0.619588 -0.628571
v -0.094528 0.619588 -0.322667
v 0.115896 0.568001 -0.322667
v 0.115896 0.568001 -0.628571
v -0.115896 0.568001 -0.322667
v -0.115896 0.568001 -0.628571
vn 0.9239 0.3827 -0.0000
vn 0.9239 -0.3827 -0.0000
vn 0.9615 0.2747 -0.0000
vn -0.3827 -0.9239 -0.0000
vn -0.9239 -0.3827 -0.0000
vn -0.0000 -0.0000 1.0000
vn -0.9239 0.3827 -0.0000
vn -0.0000 -0.0000 -1.0000
vn -0.0000 1.0000 -0.0000
vn 0.3827 -0.9239 -0.0000
vn -0.9615 -0.2747 -0.0000
vn 0.3827 0.9239 -0.0000
vn -0.3827 0.9239 -0.0000
vn -0.0000 -1.0000 -0.0000
vt 0.750000 1.000000
vt 0.750000 0.500000
vt 0.801001 0.500000
vt 0.801001 1.000000
vt 0.625000 1.000000
vt 0.625000 0.500000
vt 0.556006 0.500000
vt 0.556007 1.000000
vt 0.500000 0.500000
vt 0.500000 1.000000
vt 0.375000 1.000000
vt 0.375000 0.500000
vt 0.250000 1.000000
vt 0.250000 0.500000
vt 0.038681 0.319241
vt 0.010000 0.250000
vt 0.080294 0.080294
vt 0.250000 0.010000
vt 0.326037 0.041496
vt 0.419706 0.080294
vt 0.490000 0.250000
vt 0.461319 0.319241
vt 0.198999 1.000000
vt 0.198999 0.500000
vt 0.990000 0.250000
vt 0.919706 0.080294
vt 0.826037 0.041496
vt 0.750000 0.010000
vt 0.580294 0.080294
vt 0.510000 0.250000
vt 0.538681 0.319241
vt 0.961319 0.319241
vt 0.221938 0.500000
vt 0.278062 0.500000
vt 1.000000 0.500000
vt 1.000000 1.000000
vt 0.875000 1.000000
vt 0.875000 0.500000
vt 0.806783 0.500000
vt 0.806783 1.000000
vt 0.458068 0.327091
vt 0.419706 0.419706
vt 0.250000 0.490000
vt 0.080294 0.419706
vt 0.041932 0.327091
vt 0.193217 1.000000
vt 0.125000 1.000000
vt 0.125000 0.500000
vt 0.193217 0.500000
vt 0.000000 1.000000
vt 0.000000 0.500000
vt 0.541932 0.327091
vt 0.580294 0.419706
vt 0.750000 0.490000
vt 0.919706 0.419706
vt 0.958068 0.327091
vt 0.689110 0.500000
vt 0.810890 0.500000
s 0
f 2/1/1 1/2/1 12/3/1 11/4/1
f 1/2/2 2/1/2 4/5/2 3/6/2
f 15/7/3 16/8/3 19/8/3 17/7/3
f 5/9/4 6/10/4 8/11/4 7/12/4
f 7/12/5 8/11/5 10/13/5 9/14/5
f 13/15/6 10/16/6 8/17/6 6/18/6 16/19/6 4/20/6 2/21/6 11/22/6
f 9/14/7 10/13/7 13/23/7 14/24/7
f 1/25/8 3/26/8 15/27/8 5/28/8 7/29/8 9/30/8 14/31/8 12/32/8
f 14/33/9 13/33/9 11/34/9 12/34/9
f 3/6/10 4/5/10 16/8/10 15/7/10
f 17/7/10 19/8/10 20/10/10 18/9/10
f 16/19/6 6/18/6 20/18/6 19/19/6
f 6/10/11 5/9/11 18/9/11 20/10/11
f 5/28/8 15/27/8 17/27/8 18/28/8
f 21/35/12 22/36/12 24/37/12 23/38/12
f 28/39/1 23/38/1 24/37/1 27/40/1
f 27/41/6 24/42/6 22/43/6 26/44/6 29/45/6
f 29/46/7 26/47/7 25/48/7 30/49/7
f 25/48/13 26/47/13 22/50/13 21/51/13
f 30/52/8 25/53/8 21/54/8 23/55/8 28/56/8
f 28/57/14 27/57/14 29/58/14 30/58/14
