# Blender 4.4.3
# www.blender.org
mtllib Stock32.mtl
o Cylinder.026
v -0.118576 0.325821 0.631437
v 0.118576 0.325821 0.631437
v -0.118576 0.286769 0.647613
v 0.118576 0.286769 0.647613
v -0.118576 0.270593 0.686664
v 0.118576 0.270593 0.686664
v -0.118576 0.286769 0.725716
v 0.118576 0.286769 0.725716
v -0.118576 0.325821 0.741892
v 0.118576 0.325821 0.741892
v -0.118576 0.364872 0.725716
v 0.118576 0.364872 0.725716
v -0.118576 0.381048 0.686664
v 0.118576 0.381048 0.686664
v -0.118576 0.364872 0.647613
v 0.118576 0.364872 0.647613
v 0.118576 0.355513 0.686664
v 0.118576 0.346816 0.665669
v 0.118576 0.304825 0.665669
v 0.118576 0.296129 0.686664
v 0.118576 0.325821 0.656972
v 0.118576 0.346816 0.707660
v 0.118576 0.304825 0.707660
v 0.118576 0.325821 0.716357
v -0.118576 0.346816 0.665669
v -0.118576 0.304825 0.707660
v -0.118576 0.325821 0.656972
v -0.118576 0.296129 0.686664
v -0.118576 0.304825 0.665669
v -0.118576 0.355513 0.686664
v -0.118576 0.346816 0.707660
v -0.118576 0.325821 0.716357
vn -0.0000 -0.3827 -0.9239
vn -0.0000 -0.9239 -0.3827
vn -0.0000 -0.9239 0.3827
vn -0.0000 -0.3827 0.9239
vn -0.0000 0.3827 0.9239
vn -0.0000 0.9239 0.3827
vn 1.0000 -0.0000 -0.0000
vn -0.0000 0.9239 -0.3827
vn -0.0000 0.3827 -0.9239
vn -1.0000 -0.0000 -0.0000
vt 1.000000 0.500000
vt 1.000000 1.000000
vt 0.875000 1.000000
vt 0.875000 0.500000
vt 0.750000 1.000000
vt 0.750000 0.500000
vt 0.625000 1.000000
vt 0.625000 0.500000
vt 0.500000 1.000000
vt 0.500000 0.500000
vt 0.375000 1.000000
vt 0.375000 0.500000
vt 0.250000 1.000000
vt 0.250000 0.500000
vt 0.250000 0.379033
vt 0.250000 0.490000
vt 0.080294 0.419706
vt 0.010000 0.250000
vt 0.080294 0.080294
vt 0.250000 0.010000
vt 0.250000 0.120967
vt 0.158760 0.158760
vt 0.120967 0.250000
vt 0.158760 0.341240
vt 0.419706 0.080294
vt 0.490000 0.250000
vt 0.419706 0.419706
vt 0.341240 0.341240
vt 0.379033 0.250000
vt 0.341240 0.158760
vt 0.125000 1.000000
vt 0.125000 0.500000
vt 0.000000 1.000000
vt 0.000000 0.500000
vt 0.658760 0.158760
vt 0.580294 0.080294
vt 0.510000 0.250000
vt 0.580294 0.419706
vt 0.750000 0.490000
vt 0.919706 0.419706
vt 0.990000 0.250000
vt 0.919706 0.080294
vt 0.841240 0.158760
vt 0.879033 0.250000
vt 0.841240 0.341240
vt 0.750000 0.379033
vt 0.658760 0.341240
vt 0.620967 0.250000
vt 0.750000 0.010000
vt 0.750000 0.120967
vt 0.875000 0.589251
vt 0.875000 0.910749
vt 1.000000 0.910749
vt 1.000000 0.589251
vt 0.750000 0.910749
vt 0.750000 0.589251
vt 0.625000 0.910749
vt 0.625000 0.589251
vt 0.500000 0.910749
vt 0.500000 0.589251
vt 0.375000 0.910749
vt 0.375000 0.589251
vt 0.250000 0.589251
vt 0.250000 0.910749
vt 0.125000 0.589251
vt 0.125000 0.910749
vt 0.000000 0.589251
vt 0.000000 0.910749
s 0
f 1/1/1 2/2/1 4/3/1 3/4/1
f 3/4/2 4/3/2 6/5/2 5/6/2
f 5/6/3 6/5/3 8/7/3 7/8/3
f 7/8/4 8/7/4 10/9/4 9/10/4
f 9/10/5 10/9/5 12/11/5 11/12/5
f 11/12/6 12/11/6 14/13/6 13/14/6
f 21/15/7 2/16/7 16/17/7 14/18/7 12/19/7 10/20/7 24/21/7 22/22/7 17/23/7 18/24/7
f 24/21/7 10/20/7 8/25/7 6/26/7 4/27/7 2/16/7 21/15/7 19/28/7 20/29/7 23/30/7
f 13/14/8 14/13/8 16/31/8 15/32/8
f 15/32/9 16/31/9 2/33/9 1/34/9
f 31/35/10 11/36/10 13/37/10 15/38/10 1/39/10 3/40/10 5/41/10 7/42/10 26/43/10 28/44/10 29/45/10 27/46/10 25/47/10 30/48/10
f 26/43/10 7/42/10 9/49/10 11/36/10 31/35/10 32/50/10
f 29/51/5 19/52/5 21/53/5 27/54/5
f 20/55/6 19/52/6 29/51/6 28/56/6
f 23/57/8 20/55/8 28/56/8 26/58/8
f 24/59/9 23/57/9 26/58/9 32/60/9
f 22/61/1 24/59/1 32/60/1 31/62/1
f 30/63/2 17/64/2 22/61/2 31/62/2
f 25/65/3 18/66/3 17/64/3 30/63/3
f 27/67/4 21/68/4 18/66/4 25/65/4
