# Blender 4.4.3
# www.blender.org
mtllib Stock22.mtl
o Cube.011
v -0.151334 0.471846 0.928644
v -0.151334 0.471846 0.579209
v 0.151334 0.471792 0.928644
v 0.151334 0.471846 0.579209
v -0.151334 0.544870 0.928644
v -0.112724 0.624894 0.781954
v -0.151334 0.544870 0.579209
v -0.082968 0.726389 0.781954
v 0.151334 0.544870 0.579209
v 0.151334 0.544870 0.928644
v -0.103919 0.385990 0.579209
v -0.103919 0.385990 0.928644
v 0.103919 0.385990 0.579209
v 0.103919 0.385990 0.928644
v -0.056807 0.659122 0.735680
v -0.103919 0.249800 0.579209
v 0.103919 0.249800 0.579209
v -0.105821 0.646522 0.928644
v 0.112724 0.624894 0.781954
v 0.082968 0.726389 0.781954
v 0.105821 0.646522 0.928644
v -0.072370 0.763426 0.579209
v -0.018550 0.800330 0.579209
v 0.018550 0.800330 0.579209
v 0.072370 0.763426 0.579209
v -0.018550 0.800330 0.845806
v 0.018550 0.800330 0.845806
v 0.056807 0.659122 0.735680
v 0.072370 0.763426 0.867112
v 0.102866 0.656850 0.928644
v -0.072370 0.763426 0.867112
v -0.102866 0.656850 0.928644
v -0.103919 0.384926 0.928644
v 0.103919 0.384926 0.928644
v 0.103919 0.249800 0.834028
v -0.103919 0.249800 0.834028
v 0.105821 0.646522 0.781954
v 0.098784 0.671113 0.781954
v 0.082968 0.726389 0.579209
v -0.105821 0.646522 0.781954
v -0.098784 0.671113 0.781954
v -0.082968 0.726389 0.579209
v -0.056807 0.659122 0.579209
v 0.056807 0.659122 0.579209
v 0.112724 0.624894 0.579209
v -0.112724 0.624894 0.579209
v -0.000000 0.428960 0.910173
v 0.064703 0.455761 0.910173
v 0.091504 0.520464 0.910173
v 0.064703 0.585167 0.910173
v -0.000000 0.611967 0.910173
v -0.064703 0.585167 0.910173
v -0.091504 0.520464 0.910173
v -0.064703 0.455761 0.910173
v -0.000000 0.487714 1.119115
v -0.000000 0.428960 1.010800
v 0.023157 0.497306 1.119115
v 0.064703 0.455761 1.010800
v 0.032750 0.520464 1.119115
v 0.091504 0.520464 1.010800
v 0.023157 0.543621 1.119115
v 0.064703 0.585167 1.010800
v 0.000000 0.553213 1.119115
v -0.000000 0.611967 1.010800
v -0.023157 0.543621 1.119115
v -0.064703 0.585167 1.010800
v -0.032750 0.520464 1.119115
v -0.091504 0.520464 1.010800
v -0.023157 0.497306 1.119115
v -0.064703 0.455761 1.010800
v 0.040682 0.479781 1.119115
v -0.000000 0.462930 1.119115
v 0.057533 0.520464 1.119115
v 0.040682 0.561146 1.119115
v 0.000000 0.577997 1.119115
v -0.040682 0.561146 1.119115
v -0.057533 0.520464 1.119115
v -0.040682 0.479781 1.119115
v 0.023157 0.497306 1.095577
v -0.000000 0.487714 1.095577
v 0.032750 0.520464 1.095577
v 0.023157 0.543621 1.095577
v 0.000000 0.553213 1.095577
v -0.023157 0.543621 1.095577
v -0.032750 0.520464 1.095577
v -0.023157 0.497306 1.095577
v 0.023512 0.467025 0.984590
v 0.023512 0.467025 0.894775
v -0.023512 0.390832 0.977753
v -0.023512 0.467025 0.984590
v 0.023512 0.390832 0.977753
v -0.023512 0.467025 0.894775
v 0.023512 0.237522 0.948165
v 0.023512 0.284022 0.970917
v 0.023512 0.285227 0.849771
v 0.023512 0.239354 0.858607
v -0.023512 0.284022 0.970917
v -0.023512 0.237522 0.948165
v -0.023512 0.239354 0.858607
v -0.023512 0.285227 0.849771
v -0.023512 0.470658 1.067498
v 0.023512 0.470658 1.067498
v 0.023512 0.393835 1.029286
v 0.023512 0.431009 1.063940
v -0.023512 0.431009 1.063940
v -0.023512 0.393835 1.029286
v -0.120005 0.337734 1.270459
v -0.163439 0.429685 0.932576
v -0.163439 0.572662 0.932576
v -0.071489 0.643612 0.932576
v -0.024589 0.554145 1.081451
v 0.120005 0.337734 1.270459
v -0.077698 0.501035 1.081451
v 0.163439 0.429685 0.932576
v 0.071489 0.643612 0.932576
v 0.077698 0.501035 1.081451
v 0.163439 0.572662 0.932576
v 0.024589 0.554145 1.081451
v -0.080544 0.630034 1.270459
v -0.071489 0.673234 1.201210
v 0.071489 0.673234 1.201210
v 0.080544 0.630034 1.270459
v -0.163439 0.429685 1.242942
v -0.163439 0.572662 1.242942
v 0.163439 0.429685 1.242942
v 0.163439 0.572662 1.242942
v -0.077698 0.501035 0.932576
v -0.024589 0.554145 0.932576
v 0.024589 0.554145 0.932576
v 0.077698 0.501035 0.932576
v 0.077698 0.337734 1.081451
v -0.077698 0.337734 1.081451
v -0.102174 0.337463 1.088810
v -0.102174 0.267537 1.146306
v 0.102174 0.267537 1.146306
v 0.102174 0.337463 1.088810
v -0.119358 -0.068494 1.319047
v -0.035082 -0.181590 1.323124
v -0.096426 -0.157047 1.321930
v -0.029854 -0.188025 1.232991
v -0.102174 -0.077726 1.219954
v -0.082216 -0.164301 1.229172
v 0.035082 -0.181590 1.323124
v 0.119358 -0.068494 1.319047
v 0.096426 -0.157047 1.321930
v 0.102174 -0.077726 1.219954
v 0.029854 -0.188025 1.232991
v 0.082216 -0.164301 1.229172
v -0.094071 0.620651 1.181157
v 0.094071 0.620651 1.181157
v -0.084621 0.616942 1.291037
v -0.114220 0.569901 1.296702
v -0.100031 0.615983 1.264423
v 0.100031 0.615983 1.264423
v 0.114220 0.569901 1.296702
v 0.084621 0.616942 1.291037
v 0.016952 -0.028748 1.129464
v -0.016952 -0.028748 1.129464
v 0.016952 0.028356 1.143069
v -0.016952 0.028356 1.143069
v 0.016952 0.059115 1.193067
v -0.016952 0.059115 1.193067
v 0.016952 0.045510 1.250171
v -0.016952 0.045510 1.250171
v 0.016952 -0.004489 1.280930
v -0.016952 -0.004489 1.280930
v 0.016952 -0.061593 1.267325
v -0.016952 -0.061593 1.267325
v 0.016952 -0.092351 1.217326
v -0.016952 -0.092351 1.217326
v 0.016952 -0.078746 1.160222
v -0.016952 -0.078746 1.160222
v -0.016952 -0.042969 1.180090
v -0.016952 -0.040003 1.184911
v -0.016952 -0.019719 1.196921
v -0.016952 -0.034830 1.193321
v -0.016952 -0.039369 1.164979
v -0.016952 -0.026138 1.156839
v -0.016952 -0.002888 1.173670
v -0.016952 -0.011027 1.160439
v -0.016952 -0.006488 1.188781
v 0.016952 -0.042969 1.180090
v 0.016952 -0.039369 1.164979
v 0.016952 -0.002888 1.173670
v 0.016952 -0.008061 1.165261
v 0.016952 -0.006488 1.188781
v 0.016952 -0.011027 1.160439
v 0.016952 -0.026138 1.156839
v 0.016952 -0.019719 1.196921
v 0.016952 -0.034830 1.193321
v -0.148604 0.391716 0.932576
v -0.126312 0.337734 0.986557
v 0.126312 0.337734 0.986557
v 0.148604 0.391716 0.932576
v -0.077698 0.337734 0.986557
v -0.077698 0.391716 0.932576
v 0.077698 0.391716 0.932576
v 0.077698 0.337734 0.986557
v -0.060208 0.665183 1.255193
v -0.086664 0.646497 1.258698
v -0.080325 0.650678 1.265971
v 0.086664 0.646497 1.258698
v 0.060208 0.665183 1.255193
v 0.080325 0.650678 1.265971
v -0.085868 0.666936 1.213130
v -0.088139 0.656810 1.187222
v -0.073564 0.676557 1.186285
v -0.059796 0.682654 1.223829
v 0.073564 0.676557 1.186285
v 0.059796 0.682654 1.223829
v 0.088139 0.656810 1.187222
v 0.085868 0.666936 1.213130
vn -0.0000 1.0000 -0.0000
vn 0.9614 0.2751 -0.0000
vn -0.9614 0.2751 -0.0000
vn -0.0000 -0.0000 1.0000
vn -0.0000 -0.0000 -1.0000
vn 1.0000 -0.0000 -0.0000
vn -1.0000 -0.0000 -0.0000
vn -0.8754 -0.4834 -0.0000
vn 0.8753 -0.4836 -0.0000
vn -0.0000 -1.0000 -0.0000
vn 0.9065 0.4223 -0.0041
vn -0.9065 0.4223 -0.0041
vn -0.5655 0.8247 -0.0000
vn 0.5655 0.8247 -0.0000
vn -0.0000 0.5000 0.8660
vn -0.0000 -0.5736 0.8192
vn -0.9320 -0.3625 -0.0000
vn -0.6993 0.2001 -0.6862
vn -0.6992 0.2109 -0.6831
vn -0.5221 0.8529 -0.0000
vn 0.9320 -0.3625 -0.0000
vn 0.6993 0.2001 -0.6862
vn 0.6992 0.2109 -0.6831
vn 0.5221 0.8529 -0.0000
vn -0.3827 -0.9239 -0.0000
vn 0.9239 0.3827 -0.0000
vn 0.3827 0.9239 -0.0000
vn -0.3827 0.9239 -0.0000
vn -0.9239 0.3827 -0.0000
vn -0.9239 -0.3827 -0.0000
vn 0.9239 -0.3827 -0.0000
vn 0.3827 -0.9239 -0.0000
vn 0.3676 -0.8874 0.2783
vn 0.8874 -0.3676 0.2783
vn 0.8874 0.3676 0.2783
vn 0.3676 0.8874 0.2783
vn -0.3676 0.8874 0.2783
vn -0.8874 0.3676 0.2783
vn -0.8874 -0.3676 0.2783
vn -0.3676 -0.8874 0.2783
vn -0.0000 -0.0639 0.9980
vn -0.0000 0.2403 -0.9707
vn -0.0000 -0.1891 -0.9819
vn -0.0000 -0.4395 0.8982
vn -0.0000 -0.9998 -0.0204
vn -0.0000 0.9990 -0.0438
vn -0.0000 -0.0894 0.9960
vn -0.0000 -0.6819 0.7315
vn -0.0000 -0.9983 0.0582
vn 0.6833 0.7301 0.0042
vn -0.6833 0.7301 0.0042
vn -0.9180 -0.3964 0.0101
vn -0.0000 0.9940 -0.1096
vn -0.0000 0.8484 0.5293
vn -0.3910 0.0354 0.9197
vn 0.3910 0.0354 0.9197
vn 0.9180 -0.3964 0.0101
vn 0.7071 -0.7071 -0.0000
vn -0.7071 -0.7071 -0.0000
vn 0.7676 0.4777 0.4273
vn -0.9946 0.0112 -0.1036
vn -0.0000 -0.6351 -0.7724
vn -0.0000 0.0394 0.9992
vn -0.0000 -0.9975 0.0712
vn -0.3916 -0.9197 0.0272
vn -0.9600 -0.2445 -0.1361
vn 0.3916 -0.9197 0.0272
vn 0.9600 -0.2445 -0.1361
vn 0.9946 0.0112 -0.1036
vn -0.0000 0.5964 0.8027
vn -0.0000 0.8736 0.4866
vn -0.7676 0.4777 0.4273
vn -0.0000 0.2802 -0.9599
vn -0.0000 0.2318 -0.9728
vn -0.0000 0.8517 -0.5240
vn -0.0000 0.9728 0.2318
vn -0.0000 0.5240 0.8517
vn -0.0000 -0.2318 0.9728
vn -0.0000 -0.8517 0.5240
vn -0.0000 -0.9728 -0.2318
vn -0.0000 -0.5240 -0.8517
vn -0.0000 -0.7071 -0.7071
vn -0.5740 0.8183 0.0299
vn 0.5740 0.8183 0.0299
vn -0.9671 0.2544 0.0052
vn 0.9671 0.2544 0.0052
vn 0.5447 0.7556 0.3638
vn -0.6533 0.7565 -0.0283
vn 0.6533 0.7566 -0.0283
vn -0.0000 0.9871 -0.1603
vn -0.5447 0.7556 0.3638
vt 0.674385 0.690734
vt 0.674385 0.500000
vt 0.825615 0.500000
vt 0.825615 0.690734
vt 0.593038 0.500000
vt 0.607129 0.500000
vt 0.607129 0.705977
vt 0.566582 0.750000
vt 0.562653 0.750000
vt 0.562653 0.615786
vt 0.572009 0.615786
vt 0.593038 0.615786
vt 0.562653 0.134214
vt 0.562653 0.000000
vt 0.566582 0.000000
vt 0.607129 0.044023
vt 0.607129 0.250000
vt 0.593038 0.250000
vt 0.593038 0.134214
vt 0.572009 0.134214
vt 0.375000 0.750000
vt 0.375000 1.000000
vt 0.625000 0.299385
vt 0.625000 0.450615
vt 0.593084 0.495026
vt 0.562653 0.463755
vt 0.567560 0.304923
vt 0.500000 0.750000
vt 0.500000 1.000000
vt 0.375000 0.500000
vt 0.500000 0.500000
vt 0.375000 0.250000
vt 0.500000 0.250000
vt 0.375000 0.000000
vt 0.500000 0.000000
vt 0.375000 1.000000
vt 0.125000 0.682308
vt 0.125000 0.500000
vt 0.375000 0.682308
vt 0.375000 0.067692
vt 0.562653 1.000000
vt 0.549858 0.500000
vt 0.549858 0.615786
vt 0.549881 0.256054
vt 0.562653 0.286245
vt 0.549858 0.134214
vt 0.549858 0.250000
vt 0.625000 0.059266
vt 0.625000 0.250000
vt 0.566582 1.000000
vt 0.503240 0.409967
vt 0.545074 0.399601
vt 0.559560 0.381306
vt 0.559560 0.368694
vt 0.545074 0.350399
vt 0.503240 0.340033
vt 0.471563 0.339675
vt 0.415488 0.339675
vt 0.415488 0.410325
vt 0.471563 0.410325
vt 0.500000 0.750000
vt 0.625000 0.750000
vt 0.625000 0.573500
vt 0.500000 0.573500
vt 0.500000 0.931532
vt 0.375000 0.941400
vt 0.432658 0.894343
vt 0.375000 0.573500
vt 0.453931 0.573500
vt 0.500000 0.931532
vt 0.625000 0.777055
vt 0.432658 0.894343
vt 0.125000 0.575246
vt 0.125000 1.000000
vt 0.000000 1.000000
vt 0.000000 0.575246
vt 0.750000 0.575246
vt 0.750000 1.000000
vt 0.625000 1.000000
vt 0.625000 0.575246
vt 0.500000 1.000000
vt 0.500000 0.575246
vt 0.375000 0.575246
vt 0.250000 1.000000
vt 0.250000 0.575246
vt 0.419706 0.419706
vt 0.250000 0.490000
vt 0.080294 0.419706
vt 0.010000 0.250000
vt 0.080294 0.080294
vt 0.250000 0.010000
vt 0.419706 0.080294
vt 0.490000 0.250000
vt 0.875000 0.575246
vt 0.875000 1.000000
vt 1.000000 0.575246
vt 1.000000 1.000000
vt 0.750000 0.490000
vt 0.919706 0.419706
vt 0.856703 0.356703
vt 0.750000 0.400901
vt 0.990000 0.250000
vt 0.900901 0.250000
vt 0.919706 0.080294
vt 0.856703 0.143297
vt 0.750000 0.010000
vt 0.750000 0.099099
vt 0.580294 0.080294
vt 0.643297 0.143297
vt 0.510000 0.250000
vt 0.599099 0.250000
vt 0.580294 0.419706
vt 0.643297 0.356703
vt 0.750000 0.164103
vt 0.689262 0.189262
vt 0.810738 0.310738
vt 0.750000 0.335897
vt 0.835897 0.250000
vt 0.810738 0.189262
vt 0.664103 0.250000
vt 0.689262 0.310738
vt 0.375000 0.531286
vt 0.375000 0.718714
vt 0.424635 0.750000
vt 0.524817 0.750000
vt 0.625000 0.500000
vt 0.422395 0.500000
vt 0.424635 1.000000
vt 0.524817 1.000000
vt 0.422395 0.250000
vt 0.375000 0.031286
vt 0.375000 0.218714
vt 0.625000 0.000000
vt 0.524817 0.000000
vt 0.424635 0.000000
vt 0.875000 0.750000
vt 0.875000 0.500000
vt 0.375000 0.531286
vt 0.125000 0.531286
vt 0.125000 0.718714
vt 0.125000 0.750000
vt 0.572867 0.000000
vt 0.524817 0.750000
vt 0.572867 0.750000
vt 0.572867 1.000000
vt 0.695325 0.698763
vt 0.596765 0.750000
vt 0.554675 0.729640
vt 0.554675 0.500000
vt 0.695325 0.500000
vt 0.554675 0.020360
vt 0.579722 0.000000
vt 0.625000 0.051237
vt 0.554675 0.250000
vt 0.424280 0.771045
vt 0.579722 0.775047
vt 0.575720 0.978955
vt 0.375000 0.929675
vt 0.154039 0.500000
vt 0.187452 0.539941
vt 0.146045 0.750000
vt 0.125000 0.729640
vt 0.445325 0.020360
vt 0.445325 0.250000
vt 0.804675 0.500000
vt 0.804675 0.698763
vt 0.445325 0.500000
vt 0.445325 0.729640
vt 0.417405 0.333815
vt 0.416286 0.279039
vt 0.625000 0.320325
vt 0.625000 0.429675
vt 0.416286 0.470961
vt 0.417405 0.416185
vt 0.503279 0.432120
vt 0.548225 0.393462
vt 0.548225 0.356538
vt 0.503279 0.317880
vt 0.625000 0.820325
vt 0.625000 0.929675
vt 0.579722 0.974953
vt 0.582362 0.140014
vt 0.582362 0.000000
vt 0.438341 0.000000
vt 0.438341 0.089245
vt 0.485950 0.140014
vt 0.424280 0.978955
vt 0.554675 1.000000
vt 0.445325 1.000000
vt 0.575720 0.771045
vt 0.304675 0.750000
vt 0.304675 0.539941
vt 0.387246 0.500000
vt 0.710442 0.750000
vt 0.789558 0.750000
vt 0.789558 0.609986
vt 0.710442 0.609986
vt 0.582362 0.750000
vt 0.582362 0.609986
vt 0.485950 0.609986
vt 0.438341 0.660755
vt 0.438341 0.750000
vt 0.625000 0.140014
vt 0.438341 1.000000
vt 0.582362 1.000000
vt 0.625000 0.914558
vt 0.625000 0.835442
vt 0.551557 0.750000
vt 0.605356 0.713178
vt 0.604283 0.729422
vt 0.602598 0.740066
vt 0.600206 0.741685
vt 0.408099 0.000000
vt 0.551557 0.000000
vt 0.605356 0.036822
vt 0.625000 0.055820
vt 0.625000 0.122721
vt 0.597199 0.250000
vt 0.430749 0.250000
vt 0.597199 0.500000
vt 0.375000 0.296590
vt 0.391328 0.263646
vt 0.430749 0.250000
vt 0.430749 0.500000
vt 0.391328 0.486354
vt 0.375000 0.453410
vt 0.375000 0.796590
vt 0.384695 0.763734
vt 0.408099 0.750000
vt 0.587925 0.781324
vt 0.587925 0.968676
vt 0.551557 1.000000
vt 0.408099 1.000000
vt 0.384695 0.986266
vt 0.375000 0.953410
vt 0.171590 0.500000
vt 0.328410 0.500000
vt 0.328410 0.750000
vt 0.171590 0.750000
vt 0.125000 0.513553
vt 0.375000 0.236447
vt 0.375000 0.513553
vt 0.430749 0.500000
vt 0.597199 0.500000
vt 0.625000 0.627279
vt 0.625000 0.694180
vt 0.587925 0.968676
vt 0.598905 0.782615
vt 0.603626 0.804548
vt 0.603626 0.945452
vt 0.598905 0.967385
vt 0.620393 0.809041
vt 0.620393 0.940959
vt 0.603626 0.945452
vt 0.600207 0.008315
vt 0.602598 0.009934
vt 0.604283 0.020578
vt 0.625000 0.627279
vt 0.875000 0.627279
vt 0.875000 0.694180
vt 0.854862 0.703757
vt 0.812113 0.709666
vt 0.687887 0.709666
vt 0.645138 0.703757
vt 1.000000 0.500000
vt 0.750000 0.500000
vt 0.250000 0.500000
vt 0.187785 0.324250
vt 0.244516 0.404125
vt 0.289424 0.385523
vt 0.308025 0.340615
vt 0.289424 0.295707
vt 0.244516 0.277106
vt 0.199608 0.295707
vt 0.181007 0.340615
vt 0.199608 0.385523
vt 0.000000 0.500000
vt 0.699608 0.385523
vt 0.796202 0.369158
vt 0.789424 0.385523
vt 0.744516 0.404125
vt 0.808025 0.340615
vt 0.681007 0.340615
vt 0.699608 0.295707
vt 0.744516 0.277106
vt 0.789424 0.295707
vt 0.875000 0.682204
vt 0.875000 0.817796
vt 1.000000 0.817796
vt 1.000000 0.682204
vt 0.750000 0.817796
vt 0.829449 0.682204
vt 0.750000 0.682204
vt 0.625000 0.817796
vt 0.625000 0.682204
vt 0.500000 0.817796
vt 0.500000 0.682204
vt 0.375000 0.817796
vt 0.375000 0.682204
vt 0.250000 0.682204
vt 0.250000 0.817796
vt 0.295551 0.817796
vt 0.125000 0.682204
vt 0.125000 0.817796
vt 0.000000 0.682204
vt 0.000000 0.817796
vt 0.195325 0.500000
vt 0.216684 0.500000
vt 0.216368 0.539941
vt 0.195325 0.539941
vt 0.283632 0.539941
vt 0.283316 0.500000
vt 0.304675 0.500000
vt 0.195325 0.750000
vt 0.215812 0.610153
vt 0.284188 0.610153
vt 0.603626 0.010630
vt 0.603626 0.739370
vt 0.612354 0.030699
vt 0.622727 0.040212
vt 0.625000 0.046243
vt 0.625000 0.703757
vt 0.622727 0.709788
vt 0.612354 0.719301
vt 0.623266 0.714741
vt 0.616956 0.722654
vt 0.622727 0.709788
vt 0.846548 0.707705
vt 0.814802 0.712555
vt 0.685198 0.712555
vt 0.653452 0.707705
vt 0.814725 0.712567
vt 0.685275 0.712567
vt 0.616956 0.027346
vt 0.623266 0.035259
vt 0.622727 0.040212
s 0
f 27/1/1 24/2/1 23/3/1 26/4/1
f 39/5/2 25/6/2 29/7/2 30/8/2 21/9/2 37/10/2 38/11/2 20/12/2
f 40/13/3 18/14/3 32/15/3 31/16/3 22/17/3 42/18/3 8/19/3 41/20/3
f 3/21/4 1/22/4 12/22/4 14/21/4
f 42/18/5 22/17/5 23/23/5 24/24/5 25/6/5 39/25/5 44/26/5 43/27/5
f 3/21/4 10/28/4 5/29/4 1/22/4
f 4/30/6 9/31/6 10/28/6 3/21/6
f 2/32/5 7/33/5 9/31/5 4/30/5
f 1/34/7 5/35/7 7/33/7 2/32/7
f 34/21/4 14/21/4 12/22/4 33/36/4
f 2/32/5 4/30/5 13/30/5 11/32/5
f 1/34/8 2/32/8 11/32/8 12/34/8
f 4/30/9 3/21/9 14/21/9 13/30/9
f 36/37/10 16/38/10 17/30/10 35/39/10
f 11/32/5 13/30/5 17/30/5 16/32/5
f 34/21/6 35/39/6 17/30/6 13/30/6 14/21/6
f 33/34/7 12/34/7 11/32/7 16/32/7 36/40/7
f 10/28/4 21/9/4 18/41/4 5/29/4
f 21/9/11 10/28/11 9/31/11 45/42/11 19/43/11 37/10/11
f 9/31/5 7/33/5 46/44/5 43/45/5 44/26/5 45/42/5
f 7/33/12 5/35/12 18/14/12 40/13/12 6/46/12 46/47/12
f 26/48/13 23/49/13 22/17/13 31/16/13
f 29/7/14 25/6/14 24/2/14 27/1/14
f 32/50/4 18/41/4 21/9/4 30/8/4
f 30/51/15 29/52/15 27/53/15 26/54/15 31/55/15 32/56/15
f 33/57/16 36/58/16 35/59/16 34/60/16
f 15/61/17 8/62/17 42/63/17 43/64/17
f 8/62/18 15/61/18 41/65/18
f 15/61/19 6/66/19 40/67/19 41/65/19
f 46/68/20 6/21/20 15/61/20 43/69/20
f 20/62/21 28/61/21 44/64/21 39/63/21
f 38/70/22 28/61/22 20/71/22
f 19/21/23 28/61/23 38/70/23 37/72/23
f 44/64/24 28/61/24 19/21/24 45/68/24
f 70/73/25 54/74/25 47/75/25 56/76/25
f 60/77/26 49/78/26 50/79/26 62/80/26
f 62/80/27 50/79/27 51/81/27 64/82/27
f 64/82/28 51/81/28 52/22/28 66/83/28
f 66/83/29 52/22/29 53/84/29 68/85/29
f 68/85/30 53/84/30 54/74/30 70/73/30
f 48/86/5 47/87/5 54/88/5 53/89/5 52/90/5 51/91/5 50/92/5 49/93/5
f 58/94/31 48/95/31 49/78/31 60/77/31
f 56/96/32 47/97/32 48/95/32 58/94/32
f 56/98/33 58/99/33 71/100/33 72/101/33
f 58/99/34 60/102/34 73/103/34 71/100/34
f 60/102/35 62/104/35 74/105/35 73/103/35
f 62/104/36 64/106/36 75/107/36 74/105/36
f 64/106/37 66/108/37 76/109/37 75/107/37
f 66/108/38 68/110/38 77/111/38 76/109/38
f 68/110/39 70/112/39 78/113/39 77/111/39
f 70/112/40 56/98/40 72/101/40 78/113/40
f 63/114/32 65/115/32 84/115/32 83/114/32
f 57/116/4 55/117/4 72/101/4 71/100/4
f 59/118/4 57/116/4 71/100/4 73/103/4
f 61/119/4 59/118/4 73/103/4 74/105/4
f 63/114/4 61/119/4 74/105/4 75/107/4
f 65/115/4 63/114/4 75/107/4 76/109/4
f 67/120/4 65/115/4 76/109/4 77/111/4
f 69/121/4 67/120/4 77/111/4 78/113/4
f 55/117/4 69/121/4 78/113/4 72/101/4
f 80/117/4 79/116/4 81/118/4 82/119/4 83/114/4 84/115/4 85/120/4 86/121/4
f 59/118/30 61/119/30 82/119/30 81/118/30
f 55/117/28 57/116/28 79/116/28 80/117/28
f 69/121/27 55/117/27 80/117/27 86/121/27
f 65/115/31 67/120/31 85/120/31 84/115/31
f 61/119/25 63/114/25 83/114/25 82/119/25
f 57/116/29 59/118/29 81/118/29 79/116/29
f 67/120/26 69/121/26 86/121/26 85/120/26
f 99/122/7 98/123/7 97/124/7 89/125/7 90/62/7 92/126/7 100/127/7
f 97/124/41 94/128/41 91/129/41 89/125/41
f 95/130/42 100/127/42 92/126/42 88/49/42
f 93/131/6 96/132/6 95/130/6 88/49/6 87/133/6 91/134/6 94/135/6
f 92/126/1 90/62/1 87/136/1 88/137/1
f 99/138/43 100/30/43 95/38/43 96/139/43
f 93/140/44 94/141/44 97/21/44 98/123/44
f 96/139/45 93/140/45 98/123/45 99/138/45
f 87/133/6 102/133/6 104/142/6 103/134/6 91/134/6
f 90/62/46 101/62/46 102/136/46 87/136/46
f 89/125/7 106/143/7 105/144/7 101/62/7 90/62/7
f 105/144/47 104/145/47 102/79/47 101/62/47
f 105/144/48 106/125/48 103/129/48 104/145/48
f 91/129/49 103/129/49 106/125/49 89/125/49
f 121/146/50 122/147/50 126/148/50 117/149/50 115/150/50
f 124/151/51 119/152/51 120/153/51 110/49/51 109/154/51
f 112/155/4 122/156/4 119/157/4 107/158/4
f 191/159/52 192/160/52 107/161/52 123/162/52 108/38/52
f 123/163/7 124/151/7 109/154/7 108/164/7
f 115/150/53 110/165/53 120/166/53 121/146/53
f 114/167/6 117/149/6 126/148/6 125/168/6
f 196/169/5 191/170/5 108/164/5 109/154/5 110/171/5 115/172/5 117/149/5 114/167/5 194/173/5 197/174/5 130/175/5 129/176/5 128/177/5 127/178/5
f 121/179/54 120/180/54 119/181/54 122/156/54
f 127/182/6 113/183/6 132/184/6 195/185/6 196/186/6
f 107/187/55 119/157/55 124/188/55 123/189/55
f 125/168/56 126/148/56 122/190/56 112/155/56
f 112/191/57 193/192/57 194/193/57 114/167/57 125/168/57
f 118/194/10 111/195/10 128/196/10 129/197/10
f 116/198/7 130/199/7 197/200/7 198/201/7 131/202/7
f 111/133/58 113/183/58 127/182/58 128/203/58
f 130/199/59 116/198/59 118/194/59 129/197/59
f 132/204/5 113/205/5 111/206/5 118/207/5 116/198/5 131/202/5
f 155/208/60 154/209/60 202/210/60 204/211/60 156/212/60
f 137/213/61 152/214/61 153/215/61 149/216/61 133/217/61 134/218/61 141/219/61
f 133/49/62 136/126/62 135/220/62 134/218/62
f 140/221/43 142/222/43 141/223/43 134/218/43 135/220/43 146/224/43 148/225/43 147/226/43
f 143/227/63 145/228/63 144/229/63 155/208/63 156/230/63 151/231/63 152/232/63 137/233/63 139/234/63 138/235/63
f 140/236/64 147/237/64 143/238/64 138/239/64
f 140/236/65 138/239/65 139/141/65 142/240/65
f 142/241/66 139/34/66 137/213/66 141/219/66
f 143/238/67 147/237/67 148/242/67 145/21/67
f 145/21/68 148/242/68 146/243/68 144/229/68
f 146/243/69 135/244/69 136/245/69 150/246/69 154/209/69 155/208/69 144/229/69
f 151/247/70 156/230/70 204/248/70 203/249/70 199/250/70 201/251/70
f 210/252/71 208/253/71 199/254/71 203/249/71
f 153/215/72 152/214/72 151/255/72 201/256/72 200/257/72
f 136/258/73 133/259/73 149/260/73 206/261/73 207/262/73 209/263/73 211/264/73 150/246/73
f 157/265/74 158/97/74 160/95/74 159/137/74
f 159/137/75 160/95/75 162/78/75 161/266/75
f 161/266/76 162/78/76 164/79/76 163/126/76
f 163/126/77 164/79/77 166/81/77 165/31/77
f 165/31/78 166/81/78 168/22/78 167/30/78
f 167/30/79 168/22/79 170/84/79 169/267/79
f 174/268/7 170/89/7 168/90/7 166/91/7 164/92/7 162/93/7 160/86/7 158/87/7 178/269/7 180/270/7 179/271/7 181/272/7 175/273/7 176/274/7
f 178/269/7 158/87/7 172/88/7 170/89/7 174/268/7 173/275/7 177/276/7
f 169/267/80 170/84/80 172/74/80 171/38/80
f 171/38/81 172/74/81 158/75/81 157/277/81
f 183/278/6 171/112/6 157/98/6 159/99/6 185/279/6 187/280/6 188/281/6
f 184/282/6 185/279/6 159/99/6 161/102/6 163/104/6 165/106/6 167/108/6 169/110/6 171/112/6 183/278/6 182/283/6 190/284/6 189/285/6 186/286/6
f 187/287/78 180/288/78 178/289/78 188/290/78
f 179/291/79 180/288/79 187/287/79 185/292/79 184/293/79
f 181/294/80 179/291/80 184/293/80 186/295/80
f 175/296/81 181/294/81 186/295/81 189/297/81
f 176/298/74 175/296/74 189/297/74 190/299/74
f 182/300/75 173/301/75 174/302/75 176/298/75 190/299/75
f 183/303/76 177/304/76 173/301/76 182/300/76
f 188/305/77 178/306/77 177/304/77 183/303/77
f 191/307/82 196/308/82 195/309/82 192/310/82
f 193/192/82 198/311/82 197/312/82 194/313/82
f 193/192/10 112/191/10 107/314/10 192/310/10 195/309/10 132/315/10 131/316/10 198/311/10
f 199/317/83 200/257/83 201/256/83
f 202/210/84 203/318/84 204/211/84
f 200/319/85 205/320/85 206/321/85 149/216/85 153/215/85
f 154/209/86 150/246/86 211/322/86 212/323/86 202/324/86
f 210/325/87 203/326/87 202/324/87 212/327/87
f 207/262/88 206/261/88 205/328/88 208/329/88
f 211/264/89 209/263/89 210/330/89 212/331/89
f 209/263/90 207/262/90 208/332/90 210/333/90
f 199/334/91 208/335/91 205/336/91 200/319/91
