# Blender 4.4.3
# www.blender.org
mtllib IS1.mtl
o Cube.008
v -0.084702 0.819814 -0.277108
v -0.084702 0.819814 -0.446513
v 0.084702 0.819814 -0.277108
v 0.084702 0.819814 -0.446513
v -0.067595 0.894556 -0.277108
v -0.084702 0.870727 -0.277108
v 0.084702 0.870727 -0.277108
v 0.067595 0.894556 -0.277108
v -0.067595 0.894556 -0.403048
v 0.067595 0.894556 -0.403048
v 0.084702 0.870727 -0.441505
v 0.084702 0.867625 -0.446513
v -0.084702 0.870727 -0.441505
v -0.084702 0.867625 -0.446513
v -0.050615 0.894556 -0.277108
v 0.050615 0.894556 -0.277108
v -0.050615 0.894556 -0.403048
v 0.050615 0.894556 -0.403048
v -0.050615 0.867625 -0.446513
v -0.050615 0.860643 -0.446513
v 0.050615 0.860643 -0.446513
v 0.050615 0.867625 -0.446513
v -0.050615 0.860643 -0.277108
v 0.050615 0.860643 -0.277108
v 0.044987 0.860643 -0.323138
v 0.044987 0.860643 -0.287188
v -0.044987 0.860643 -0.323138
v -0.044987 0.860643 -0.287188
v 0.044987 0.860643 -0.308888
v 0.044987 0.860643 -0.297886
v -0.044987 0.860643 -0.308888
v -0.044987 0.860643 -0.297886
v 0.044987 0.979702 -0.308888
v 0.044987 0.979702 -0.297886
v 0.034574 0.995992 -0.297886
v 0.034574 0.995992 -0.308888
v -0.034574 0.995992 -0.308888
v -0.034574 0.995992 -0.297886
v -0.044987 0.979702 -0.297886
v -0.044987 0.979702 -0.308888
v 0.010465 0.954662 -0.297886
v 0.010465 0.954662 -0.308888
v 0.018905 0.963665 -0.308888
v 0.018905 0.963665 -0.297886
v -0.018905 0.963665 -0.297886
v -0.018905 0.963665 -0.308888
v -0.010465 0.954662 -0.308888
v -0.010465 0.954662 -0.297886
v -0.025824 0.995992 -0.297886
v -0.025824 0.995992 -0.308888
v -0.018905 0.988629 -0.308888
v -0.018905 0.988629 -0.297886
v 0.018905 0.988629 -0.297886
v 0.018905 0.988629 -0.308888
v 0.025824 0.995992 -0.308888
v 0.025824 0.995992 -0.297886
v 0.008476 0.958270 -0.297886
v 0.008476 0.958270 -0.308888
v 0.014548 0.965000 -0.308888
v 0.014548 0.965000 -0.297886
v -0.014548 0.965000 -0.297886
v -0.014548 0.965000 -0.308888
v -0.008476 0.958270 -0.308888
v -0.008476 0.958270 -0.297886
v -0.020573 0.995962 -0.297886
v -0.020573 0.995962 -0.308888
v -0.014548 0.989964 -0.308888
v -0.014548 0.989964 -0.297886
v 0.014548 0.989964 -0.297886
v 0.014548 0.989964 -0.308888
v 0.020573 0.995962 -0.308888
v 0.020573 0.995962 -0.297886
v -0.044987 0.952861 -0.323138
v 0.044987 0.952861 -0.323138
v -0.010465 0.954662 -0.322834
v 0.010465 0.954662 -0.322834
v 0.018905 0.963665 -0.321312
v 0.018905 0.988629 -0.317093
v -0.044987 0.979702 -0.318602
v 0.044987 0.952862 -0.287188
v 0.044987 0.979702 -0.291724
v -0.034574 0.995992 -0.315848
v -0.025824 0.995992 -0.315848
v -0.018905 0.963665 -0.289014
v -0.018905 0.988629 -0.293233
v 0.034574 0.995992 -0.294478
v -0.034574 0.995992 -0.294478
v -0.044987 0.979702 -0.291724
v -0.018905 0.963665 -0.321312
v -0.044987 0.952862 -0.287188
v -0.018905 0.988629 -0.317093
v 0.025824 0.995992 -0.315848
v 0.025824 0.995992 -0.294478
v 0.034574 0.995992 -0.315848
v 0.018905 0.988629 -0.293233
v -0.025824 0.995992 -0.294478
v -0.010465 0.954662 -0.287492
v 0.010465 0.954662 -0.287492
v 0.018905 0.963665 -0.289014
v 0.044987 0.979702 -0.318602
vn -0.0000 1.0000 -0.0000
vn 1.0000 -0.0000 -0.0000
vn -1.0000 -0.0000 -0.0000
vn -0.0000 -1.0000 -0.0000
vn -0.0000 -0.0000 -1.0000
vn -0.8123 0.5832 -0.0000
vn 0.8123 0.5832 -0.0000
vn -0.0000 -0.0000 1.0000
vn -0.0000 0.8501 -0.5267
vn 0.8426 0.5386 -0.0000
vn -0.8426 0.5386 -0.0000
vn -0.7296 0.6839 -0.0000
vn 0.7296 0.6839 -0.0000
vn 0.7287 0.6848 -0.0000
vn -0.7287 0.6848 -0.0000
vn -0.7055 0.7087 -0.0000
vn 0.7055 0.7087 -0.0000
vn 0.7425 0.6698 -0.0000
vn -0.7425 0.6698 -0.0000
vn -0.0057 1.0000 -0.0000
vn 0.0057 1.0000 -0.0000
vn -0.0000 0.1667 0.9860
vn -0.0000 0.1667 -0.9860
vt 0.666839 0.750000
vt 0.666839 0.564143
vt 0.679229 0.564143
vt 0.679229 0.750000
vt 0.833161 0.564143
vt 0.833161 0.750000
vt 0.820771 0.750000
vt 0.820771 0.564143
vt 0.583162 0.507389
vt 0.583161 0.750000
vt 0.375000 0.750000
vt 0.375000 0.500000
vt 0.570477 0.500000
vt 0.570477 0.250000
vt 0.375000 0.250000
vt 0.375000 0.000000
vt 0.583161 0.000000
vt 0.583161 0.242611
vt 0.125000 0.500000
vt 0.125000 0.750000
vt 0.570477 0.459890
vt 0.570477 0.290110
vt 0.541929 0.290110
vt 0.541929 0.459890
vt 0.625000 0.000000
vt 0.625000 0.185857
vt 0.625000 0.958161
vt 0.583161 1.000000
vt 0.375000 1.000000
vt 0.625000 0.791839
vt 0.625000 0.804229
vt 0.532032 0.791284
vt 0.532033 0.958716
vt 0.625000 0.945771
vt 0.280620 0.667979
vt 0.285981 0.667979
vt 0.304084 0.639092
vt 0.304084 0.635331
vt 0.286729 0.635331
vt 0.195916 0.635331
vt 0.195916 0.639092
vt 0.214019 0.667979
vt 0.219380 0.667979
vt 0.213271 0.635331
vt 0.516025 0.147288
vt 0.516025 0.064095
vt 0.602564 0.035383
vt 0.625000 0.035383
vt 0.625000 0.147288
vt 0.516025 0.685905
vt 0.516025 0.602712
vt 0.625000 0.602712
vt 0.625000 0.714617
vt 0.602564 0.714617
vt 0.875000 0.602712
vt 0.875000 0.714617
vt 0.437763 0.750000
vt 0.437763 1.000000
vt 0.625000 1.000000
vt 0.625000 0.750000
vt 0.819196 0.666005
vt 0.680804 0.666005
vt 0.680804 0.638866
vt 0.819196 0.638866
vt 0.520887 0.095168
vt 0.597403 0.086956
vt 0.597403 0.111134
vt 0.520887 0.111134
vt 0.390140 0.723469
vt 0.625000 0.666667
vt 0.390140 0.666667
vt 0.390140 0.166667
vt 0.390140 0.214661
vt 0.437763 0.250000
vt 0.625000 0.250000
vt 0.625000 0.166667
vt 0.875000 0.750000
vt 0.875000 0.666667
vt 0.338524 0.707368
vt 0.346069 0.707368
vt 0.346069 0.666667
vt 0.338524 0.666667
vt 0.520887 0.611134
vt 0.520887 0.599074
vt 0.597403 0.588136
vt 0.597403 0.611134
vt 0.375000 0.193214
vt 0.375000 0.166667
vt 0.390140 0.535339
vt 0.346069 0.556786
vt 0.346069 0.583333
vt 0.390140 0.583333
vt 0.625000 0.083995
vt 0.625000 0.111134
vt 0.597403 0.663044
vt 0.597403 0.638866
vt 0.437763 0.500000
vt 0.625000 0.500000
vt 0.314807 0.714646
vt 0.314807 0.666667
vt 0.498264 0.111134
vt 0.498264 0.097589
vt 0.161476 0.583333
vt 0.161476 0.556786
vt 0.153931 0.556786
vt 0.153931 0.583333
vt 0.153931 0.707368
vt 0.161476 0.707368
vt 0.161476 0.666667
vt 0.153931 0.666667
vt 0.520887 0.150926
vt 0.498264 0.147700
vt 0.498264 0.138866
vt 0.520887 0.138866
vt 0.680804 0.611134
vt 0.314807 0.583333
vt 0.338524 0.583333
vt 0.338524 0.556786
vt 0.314807 0.547092
vt 0.680804 0.584191
vt 0.625000 0.165809
vt 0.597403 0.161864
vt 0.597403 0.138866
vt 0.625000 0.138866
vt 0.390140 0.026531
vt 0.375000 0.042632
vt 0.375000 0.083333
vt 0.390140 0.083333
vt 0.520887 0.654832
vt 0.520887 0.638866
vt 0.819196 0.611134
vt 0.625000 0.583333
vt 0.875000 0.583333
vt 0.875000 0.500000
vt 0.437763 0.000000
vt 0.625000 0.083333
vt 0.819196 0.584191
vt 0.286168 0.666846
vt 0.276478 0.679493
vt 0.276478 0.722374
vt 0.264657 0.737839
vt 0.235343 0.737839
vt 0.223522 0.722374
vt 0.223522 0.679493
vt 0.213832 0.666846
vt 0.201576 0.666846
vt 0.186993 0.694827
vt 0.186993 0.740931
vt 0.313007 0.740931
vt 0.313007 0.694827
vt 0.298424 0.666846
vt 0.213832 0.583154
vt 0.223522 0.570507
vt 0.223522 0.527626
vt 0.235343 0.512161
vt 0.264657 0.512161
vt 0.276478 0.527626
vt 0.276478 0.570507
vt 0.286168 0.583154
vt 0.298424 0.583154
vt 0.313007 0.555173
vt 0.313007 0.509068
vt 0.186993 0.509068
vt 0.186993 0.555173
vt 0.201576 0.583154
s 0
f 8/1/1 10/2/1 18/3/1 16/4/1
f 9/5/1 5/6/1 15/7/1 17/8/1
f 11/9/2 7/10/2 3/11/2 4/12/2 12/13/2
f 14/14/3 2/15/3 1/16/3 6/17/3 13/18/3
f 2/19/4 4/12/4 3/11/4 1/20/4
f 22/21/5 12/13/5 4/12/5 2/15/5 14/14/5 19/22/5 20/23/5 21/24/5
f 13/18/6 6/17/6 5/25/6 9/26/6
f 8/1/7 7/10/7 11/9/7 10/2/7
f 5/27/8 6/28/8 1/29/8 3/11/8 7/10/8 8/30/8 16/31/8 24/32/8 23/33/8 15/34/8
f 18/35/9 10/36/9 11/37/9 12/38/9 22/39/9
f 14/40/9 13/41/9 9/42/9 17/43/9 19/44/9
f 16/45/3 18/46/3 22/47/3 21/48/3 24/49/3
f 17/50/2 15/51/2 23/52/2 20/53/2 19/54/2
f 24/55/1 21/56/1 20/53/1 23/52/1
f 73/57/5 74/58/5 25/59/5 27/60/5
f 76/61/1 75/62/1 47/63/1 42/64/1
f 78/65/3 77/66/3 43/67/3 54/68/3
f 79/69/3 73/57/3 27/60/3 31/70/3 40/71/3
f 34/72/2 81/73/2 80/74/2 26/75/2 30/76/2
f 31/70/4 27/60/4 25/77/4 29/78/4
f 83/79/1 82/80/1 37/81/1 50/82/1
f 52/83/2 85/84/2 84/85/2 45/86/2
f 86/87/10 81/73/10 34/72/10 35/88/10
f 88/89/11 87/90/11 38/91/11 39/92/11
f 77/66/12 76/93/12 42/94/12 43/67/12
f 75/62/13 89/95/13 46/96/13 47/63/13
f 80/74/8 90/97/8 28/98/8 26/75/8
f 91/99/14 83/79/14 50/82/14 51/100/14
f 54/68/15 55/101/15 92/102/15 78/65/15
f 56/103/1 93/104/1 86/105/1 35/106/1
f 94/107/1 92/108/1 55/109/1 36/110/1
f 55/109/1 56/103/1 35/106/1 36/110/1
f 95/111/15 93/112/15 56/113/15 53/114/15
f 48/115/8 64/115/8 61/86/8 45/86/8
f 52/116/14 49/117/14 96/118/14 85/119/14
f 50/82/5 66/82/5 67/100/5 51/100/5
f 84/85/13 97/120/13 48/115/13 45/86/13
f 47/63/5 63/63/5 58/64/5 42/64/5
f 98/121/12 99/122/12 44/123/12 41/124/12
f 52/116/8 68/116/8 65/117/8 49/117/8
f 82/80/11 79/69/11 40/71/11 37/81/11
f 37/81/11 40/71/11 39/92/11 38/91/11
f 100/125/10 94/126/10 36/127/10 33/128/10
f 33/128/10 36/127/10 35/88/10 34/72/10
f 89/95/2 91/129/2 51/130/2 46/96/2
f 41/131/8 57/131/8 64/115/8 48/115/8
f 38/91/1 87/90/1 96/118/1 49/117/1
f 49/117/1 50/82/1 37/81/1 38/91/1
f 28/98/4 32/132/4 30/133/4 26/134/4
f 32/132/4 31/70/4 29/78/4 30/133/4
f 25/25/2 74/135/2 100/125/2 33/128/2 29/136/2
f 33/128/2 34/72/2 30/76/2 29/136/2
f 90/97/3 88/89/3 39/92/3 32/132/3 28/98/3
f 39/92/3 40/71/3 31/70/3 32/132/3
f 44/123/3 99/122/3 95/111/3 53/114/3
f 54/68/5 70/68/5 71/101/5 55/101/5
f 48/115/1 97/120/1 98/137/1 41/131/1
f 43/67/5 59/67/5 70/68/5 54/68/5
f 69/114/16 72/113/16 71/101/16 70/68/16
f 65/117/17 68/116/17 67/100/17 66/82/17
f 61/86/18 64/115/18 63/63/18 62/96/18
f 57/124/19 60/123/19 59/67/19 58/94/19
f 67/130/2 68/83/2 61/86/2 62/96/2
f 69/114/3 70/68/3 59/67/3 60/123/3
f 57/131/1 58/64/1 63/63/1 64/115/1
f 55/109/20 71/109/20 72/103/20 56/103/20
f 51/130/5 67/130/5 62/96/5 46/96/5
f 46/96/5 62/96/5 63/63/5 47/63/5
f 45/86/8 61/86/8 68/83/8 52/83/8
f 49/117/21 65/117/21 66/82/21 50/82/21
f 44/123/8 60/123/8 57/124/8 41/124/8
f 42/94/5 58/94/5 59/67/5 43/67/5
f 53/114/8 69/114/8 60/123/8 44/123/8
f 56/113/8 72/113/8 69/114/8 53/114/8
f 93/138/22 95/139/22 99/140/22 98/141/22 97/142/22 84/143/22 85/144/22 96/145/22 87/146/22 88/147/22 90/148/22 80/149/22 81/150/22 86/151/22
f 83/152/23 91/153/23 89/154/23 75/155/23 76/156/23 77/157/23 78/158/23 92/159/23 94/160/23 100/161/23 74/162/23 73/163/23 79/164/23 82/165/23
