# Blender 4.4.3
# www.blender.org
mtllib Mag3.mtl
o Cube.026
v -0.095168 -0.379587 0.369585
v -0.053454 -0.374841 0.440720
v 0.053454 -0.374841 0.440720
v 0.095168 -0.379587 0.369585
v -0.095168 -0.574635 0.393854
v -0.053173 -0.564056 0.465109
v 0.053173 -0.564056 0.465109
v 0.095168 -0.574635 0.393854
v -0.118910 -0.590777 0.428662
v -0.076405 -0.579942 0.501642
v 0.076405 -0.579942 0.501642
v 0.118910 -0.590777 0.428662
v -0.076527 -0.625680 0.512488
v -0.118910 -0.638268 0.440064
v 0.118910 -0.638268 0.440064
v 0.076527 -0.625680 0.512488
v -0.065254 0.380177 0.150658
v 0.065254 0.380177 0.150658
v -0.078066 -0.354684 0.369376
v -0.046130 -0.349347 0.424190
v -0.039641 0.376972 0.400325
v -0.063100 0.376587 0.357811
v 0.063100 0.376587 0.357811
v 0.039641 0.376972 0.400325
v 0.046130 -0.349347 0.424190
v 0.078066 -0.354684 0.369376
v -0.084585 0.380618 0.129071
v 0.084585 0.380618 0.129071
v -0.047878 0.376531 0.425075
v -0.081961 0.376410 0.366866
v 0.081961 0.376410 0.366866
v 0.047878 0.376531 0.425075
v -0.065253 -0.299847 0.141405
v 0.065254 -0.299847 0.141405
v -0.039640 -0.303052 0.391073
v -0.063099 -0.303436 0.348558
v 0.063100 -0.303436 0.348558
v 0.039641 -0.303052 0.391073
v -0.063282 0.453437 0.334522
v -0.065308 0.457644 0.153918
v 0.063282 0.453437 0.334522
v 0.065308 0.457644 0.153918
v -0.048719 0.442731 0.334457
v -0.050382 0.446320 0.153945
v 0.048719 0.442731 0.334457
v 0.050382 0.446320 0.153945
v -0.040668 0.472798 0.285585
v -0.042022 0.477006 0.180265
v 0.040668 0.472798 0.285585
v 0.042022 0.477006 0.180265
v -0.030936 0.458077 0.285520
v -0.032047 0.461666 0.180291
v 0.030936 0.458077 0.285520
v 0.032047 0.461666 0.180291
v -0.095168 -0.394706 0.142981
v -0.073711 -0.397072 0.107508
v 0.095168 -0.394706 0.142981
v 0.073711 -0.397072 0.107508
v -0.095168 -0.607964 0.169367
v -0.073632 -0.613099 0.134777
v 0.095168 -0.607964 0.169367
v 0.073632 -0.613099 0.134777
v -0.097254 -0.635869 0.124946
v -0.118910 -0.630740 0.159491
v 0.118910 -0.630740 0.159491
v 0.097254 -0.635869 0.124946
v -0.118910 -0.684914 0.171663
v -0.097329 -0.690888 0.137288
v 0.097329 -0.690888 0.137288
v 0.118910 -0.684914 0.171663
v -0.060735 -0.375239 0.139165
v -0.081570 -0.371858 0.177032
v -0.082482 -0.302808 0.138198
v 0.081570 -0.371858 0.177032
v 0.060735 -0.375239 0.139165
v 0.082482 -0.302808 0.138198
vn 1.0000 -0.0000 -0.0000
vn 0.6639 0.7397 -0.1098
vn -0.0000 -0.2189 -0.9758
vn 0.8288 0.5584 -0.0361
vn -0.8288 0.5584 -0.0361
vn -0.7625 0.5042 0.4055
vn -0.6639 0.7397 -0.1098
vn -0.0000 0.9171 0.3988
vn -0.0000 0.2307 0.9730
vn -0.0000 -0.9852 0.1712
vn -1.0000 -0.0000 -0.0000
vn -0.9999 -0.0041 0.0147
vn -0.0000 0.5440 0.8391
vn 0.7625 0.5042 0.4055
vn -0.8633 0.0628 0.5008
vn -0.4297 0.8951 0.1189
vn 0.4297 0.8951 0.1189
vn -0.8658 0.1172 0.4865
vn 0.8658 0.1172 0.4866
vn -0.0000 -0.0012 1.0000
vn 0.9999 -0.0041 0.0147
vn -0.0000 -0.0134 -0.9999
vn -0.0000 -0.0136 0.9999
vn -0.8634 -0.0028 0.5045
vn 0.8634 -0.0028 0.5045
vn -0.0000 0.9998 0.0204
vn -0.0170 0.9998 0.0047
vn 0.0170 0.9998 0.0047
vn 0.9707 0.2399 0.0156
vn -0.0000 0.9998 0.0178
vn 0.3326 0.2742 0.9023
vn -0.0000 0.9999 0.0136
vn -0.9999 0.0001 -0.0104
vn 0.9999 0.0001 -0.0104
vn 0.8755 0.0066 -0.4832
vn -0.0000 0.0136 -0.9999
vn -0.8755 0.0066 -0.4832
vn -0.5106 0.4754 -0.7164
vn -0.6365 0.6057 0.4775
vn -0.5420 0.0357 -0.8396
vn -0.9759 -0.2179 -0.0136
vn 0.9759 -0.2179 -0.0136
vn -0.3326 0.2742 0.9023
vn 0.5420 0.0357 -0.8396
vn -0.9707 0.2399 0.0156
vn 0.8363 0.5482 0.0105
vn -0.8363 0.5482 0.0105
vn -0.6380 -0.7696 -0.0255
vn 0.6358 0.7713 0.0302
vn 0.6365 0.6057 0.4775
vn 0.5106 0.4754 -0.7164
vn 0.6380 -0.7696 -0.0255
vn -0.6358 0.7713 0.0302
vn -0.0000 0.8232 -0.5677
vn 0.8633 0.0628 0.5008
vn -0.0000 0.3964 -0.9181
vn -0.0000 0.1278 0.9918
vn -0.8551 -0.2627 -0.4470
vn 0.8551 -0.2627 -0.4470
vn -0.8536 -0.0648 -0.5169
vn 0.5231 0.7325 -0.4356
vn -0.5231 0.7325 -0.4356
vn 0.4906 0.8000 -0.3456
vn -0.4906 0.8000 -0.3456
vn 0.8497 -0.1149 -0.5146
vn -0.8497 -0.1149 -0.5146
vn 0.8536 -0.0648 -0.5169
vn -0.0000 -0.1252 -0.9921
vt 0.375000 0.526615
vt 0.375000 0.696630
vt 0.375000 0.696352
vt 0.375000 0.526331
vt 0.375000 0.526178
vt 0.375000 0.696073
vt 0.375000 0.699348
vt 0.375000 0.522674
vt 0.375000 0.272766
vt 0.375000 0.477234
vt 0.375000 0.477313
vt 0.375000 0.272687
vt 0.375000 0.532343
vt 0.375000 0.223385
vt 0.375000 0.053370
vt 0.375000 0.217657
vt 0.375000 0.000000
vt 0.375000 0.522926
vt 0.375000 0.701566
vt 0.375000 0.701743
vt 0.375000 0.522905
vt 0.375000 0.053927
vt 0.375000 0.223822
vt 0.375000 0.227326
vt 0.375000 0.050652
vt 0.375000 0.805159
vt 0.375000 0.944841
vt 0.375000 0.949014
vt 0.375000 0.800986
vt 0.375000 0.794682
vt 0.375000 0.955318
vt 0.375000 0.955446
vt 0.375000 0.794554
vt 0.125000 0.522905
vt 0.147687 0.500000
vt 0.352313 0.500000
vt 0.375000 0.522905
vt 0.330446 0.750000
vt 0.169554 0.750000
vt 0.125000 0.701743
vt 0.375000 0.048434
vt 0.375000 0.227074
vt 0.375000 0.227095
vt 0.375000 0.048257
vt 0.375000 0.053370
vt 0.625000 0.052974
vt 0.625000 0.250000
vt 0.398957 0.250000
vt 0.375000 0.945210
vt 0.375000 0.804790
vt 0.375000 0.000000
vt 0.375000 0.053648
vt 0.375000 0.804790
vt 0.625000 0.804671
vt 0.625000 0.945329
vt 0.375000 0.945210
vt 0.398957 0.500000
vt 0.625000 0.500000
vt 0.625000 0.697026
vt 0.375000 0.282708
vt 0.375000 0.467292
vt 0.653297 0.525257
vt 0.846703 0.525257
vt 0.625000 0.000000
vt 0.875000 0.500000
vt 0.808981 0.723521
vt 0.845638 0.687919
vt 0.875000 0.697026
vt 0.820329 0.750000
vt 0.654362 0.687919
vt 0.691019 0.723521
vt 0.679671 0.750000
vt 0.625000 0.697026
vt 0.375000 0.471817
vt 0.375000 0.278183
vt 0.375000 0.282709
vt 0.375000 0.804975
vt 0.375000 0.278286
vt 0.375000 0.471714
vt 0.375000 0.272766
vt 0.375000 0.223385
vt 0.375000 0.223669
vt 0.375000 0.945025
vt 0.375000 0.239376
vt 0.375000 0.472477
vt 0.375000 0.278144
vt 0.375000 0.471856
s 0
f 57/1/1 4/2/1 8/3/1 61/4/1
f 61/5/2 8/6/2 12/7/2 65/8/2
f 63/9/3 66/10/3 69/11/3 68/12/3
f 4/2/4 57/1/4 74/13/4 26/2/4
f 55/14/5 1/15/5 19/15/5 72/16/5
f 1/15/6 2/17/6 20/17/6 19/15/6
f 65/18/1 12/19/1 15/20/1 70/21/1
f 5/22/7 59/23/7 64/24/7 9/25/7
f 7/26/8 6/27/8 10/28/8 11/29/8
f 11/30/9 10/31/9 13/32/9 16/33/9
f 67/34/10 68/35/10 69/36/10 70/37/10 15/20/10 16/38/10 13/39/10 14/40/10
f 9/41/11 64/42/11 67/43/11 14/44/11
f 19/45/12 30/46/12 27/47/12 73/48/12 72/16/12
f 2/49/13 3/50/13 25/50/13 20/49/13
f 3/50/14 4/2/14 26/2/14 25/50/14
f 6/51/15 2/17/15 1/15/15 5/52/15
f 5/22/16 9/25/16 10/17/16 6/17/16
f 12/7/17 8/6/17 7/26/17 11/29/17
f 13/17/18 10/17/18 9/41/18 14/44/18
f 15/20/19 12/19/19 11/30/19 16/33/19
f 25/53/20 32/54/20 29/55/20 20/56/20
f 74/13/21 76/57/21 28/58/21 31/59/21 26/2/21
f 71/60/22 73/48/22 27/47/22 28/58/22 76/57/22 75/61/22
f 18/62/23 17/63/23 33/63/23 34/62/23
f 20/17/24 29/64/24 30/46/24 19/45/24
f 32/54/25 25/53/25 26/2/25 31/59/25
f 17/63/26 18/62/26 28/58/26 27/65/26
f 21/66/27 22/67/27 30/68/27 29/69/27
f 23/70/28 24/71/28 32/72/28 31/73/28
f 31/59/29 28/58/29 42/58/29 41/59/29
f 24/71/30 21/66/30 29/69/30 32/72/30
f 30/68/31 22/67/31 43/67/31 39/68/31
f 34/62/32 33/63/32 36/67/32 35/66/32 38/71/32 37/70/32
f 23/70/33 18/62/33 34/62/33 37/70/33
f 17/63/34 22/67/34 36/67/34 33/63/34
f 22/67/35 21/66/35 35/66/35 36/67/35
f 21/66/36 24/71/36 38/71/36 35/66/36
f 24/71/37 23/70/37 37/70/37 38/71/37
f 42/58/38 46/62/38 54/62/38 50/58/38
f 45/70/39 41/73/39 49/73/39 53/70/39
f 28/58/40 18/62/40 46/62/40 42/58/40
f 18/62/41 23/70/41 45/70/41 46/62/41
f 22/67/42 17/63/42 44/63/42 43/67/42
f 23/70/43 31/73/43 41/73/43 45/70/43
f 17/63/44 27/65/44 40/65/44 44/63/44
f 27/47/45 30/46/45 39/46/45 40/47/45
f 51/67/46 52/63/46 48/65/46 47/68/46
f 54/62/47 53/70/47 49/73/47 50/58/47
f 46/62/48 45/70/48 53/70/48 54/62/48
f 41/59/49 42/58/49 50/58/49 49/59/49
f 39/68/50 43/67/50 51/67/50 47/68/50
f 44/63/51 40/65/51 48/65/51 52/63/51
f 43/67/52 44/63/52 52/63/52 51/67/52
f 40/47/53 39/46/53 47/46/53 48/47/53
f 58/74/54 56/75/54 71/76/54 75/61/54
f 3/50/55 7/77/55 8/3/55 4/2/55
f 60/78/56 62/79/56 66/10/56 63/80/56
f 1/15/11 55/81/11 59/82/11 5/52/11
f 3/50/57 2/49/57 6/83/57 7/77/57
f 71/76/58 72/84/58 73/48/58
f 74/13/59 75/85/59 76/57/59
f 59/82/60 55/81/60 56/75/60 60/86/60
f 61/5/61 65/8/61 66/10/61 62/79/61
f 64/24/62 59/23/62 60/78/62 63/80/62
f 74/13/63 57/1/63 58/74/63 75/61/63
f 55/14/64 72/16/64 71/76/64 56/75/64
f 65/18/65 70/21/65 69/11/65 66/10/65
f 63/9/66 68/12/66 67/43/66 64/42/66
f 57/1/67 61/4/67 62/87/67 58/74/67
f 56/75/68 58/74/68 62/87/68 60/86/68
