# Blender 4.4.3
# www.blender.org
mtllib Stock11.mtl
o Cube.015
v 0.051891 0.561603 -0.297082
v 0.060656 0.553445 -0.297082
v 0.063233 0.619525 -0.297082
v 0.053896 0.613016 -0.297082
v 0.060656 0.553445 -1.804873
v 0.051891 0.561603 -1.804873
v 0.053896 0.613016 -1.804873
v 0.063233 0.619525 -1.804873
v 0.072148 0.552398 -0.297082
v 0.081485 0.558908 -0.297082
v 0.083490 0.610321 -0.297082
v 0.074725 0.618478 -0.297082
v 0.081485 0.558908 -1.804873
v 0.072148 0.552398 -1.804873
v 0.074725 0.618478 -1.804873
v 0.083490 0.610321 -1.804873
v -0.051891 0.561603 -0.297082
v -0.060656 0.553445 -0.297082
v -0.063233 0.619525 -0.297082
v -0.053896 0.613016 -0.297082
v -0.060656 0.553445 -1.804874
v -0.051891 0.561603 -1.804874
v -0.053896 0.613016 -1.804874
v -0.063233 0.619525 -1.804874
v -0.072148 0.552398 -0.297082
v -0.081485 0.558908 -0.297082
v -0.083490 0.610321 -0.297082
v -0.074725 0.618478 -0.297082
v -0.081485 0.558908 -1.804874
v -0.072148 0.552398 -1.804874
v -0.074725 0.618478 -1.804874
v -0.083490 0.610321 -1.804874
vn -0.0000 -0.0000 1.0000
vn 0.9992 -0.0390 -0.0000
vn 0.0907 0.9959 -0.0000
vn -0.9992 0.0390 -0.0000
vn -0.0000 -0.0000 -1.0000
vn -0.6813 -0.7320 -0.0000
vn -0.5719 0.8203 -0.0000
vn 0.5719 -0.8203 -0.0000
vn 0.6813 0.7320 -0.0000
vn -0.0907 -0.9959 -0.0000
vn -0.9992 -0.0390 -0.0000
vn -0.0907 0.9959 -0.0000
vn 0.9992 0.0390 -0.0000
vn 0.6813 -0.7320 -0.0000
vn 0.5719 0.8203 -0.0000
vn -0.5719 -0.8203 -0.0000
vn -0.6813 0.7320 -0.0000
vn 0.0907 -0.9959 -0.0000
vt 0.375000 0.826458
vt 0.402745 0.750000
vt 0.597255 0.750000
vt 0.625000 0.826458
vt 0.625000 0.923542
vt 0.597255 1.000000
vt 0.402745 1.000000
vt 0.375000 0.923542
vt 0.402745 0.500000
vt 0.597255 0.500000
vt 0.597255 0.750000
vt 0.402745 0.750000
vt 0.701458 0.500000
vt 0.798542 0.500000
vt 0.798542 0.750000
vt 0.701458 0.750000
vt 0.402745 0.000000
vt 0.597255 0.000000
vt 0.597255 0.250000
vt 0.402745 0.250000
vt 0.375000 0.326458
vt 0.402745 0.250000
vt 0.597255 0.250000
vt 0.625000 0.326458
vt 0.625000 0.423542
vt 0.402745 0.500000
vt 0.375000 0.423542
vt 0.201458 0.500000
vt 0.201458 0.750000
vt 0.125000 0.750000
vt 0.125000 0.500000
vt 0.625000 0.000000
vt 0.625000 0.250000
vt 0.298542 0.750000
vt 0.298542 0.500000
s 0
f 9/1/1 10/2/1 11/3/1 12/4/1 3/5/1 4/6/1 1/7/1 2/8/1
f 13/9/2 16/10/2 11/11/2 10/12/2
f 15/13/3 8/14/3 3/15/3 12/16/3
f 1/17/4 4/18/4 7/19/4 6/20/4
f 5/21/5 6/22/5 7/23/5 8/24/5 15/25/5 16/10/5 13/26/5 14/27/5
f 5/28/6 2/29/6 1/30/6 6/31/6
f 3/32/7 8/33/7 7/19/7 4/18/7
f 9/34/8 14/35/8 13/9/8 10/12/8
f 15/13/9 12/16/9 11/11/9 16/10/9
f 5/28/10 14/35/10 9/34/10 2/29/10
f 25/1/1 18/8/1 17/7/1 20/6/1 19/5/1 28/4/1 27/3/1 26/2/1
f 29/9/11 26/12/11 27/11/11 32/10/11
f 31/13/12 28/16/12 19/15/12 24/14/12
f 17/17/13 22/20/13 23/19/13 20/18/13
f 21/21/5 30/27/5 29/26/5 32/10/5 31/25/5 24/24/5 23/23/5 22/22/5
f 21/28/14 22/31/14 17/30/14 18/29/14
f 19/32/15 20/18/15 23/19/15 24/33/15
f 25/34/16 26/12/16 29/9/16 30/35/16
f 31/13/17 32/10/17 27/11/17 28/16/17
f 21/28/18 18/29/18 25/34/18 30/35/18
