# Blender 4.4.3
# www.blender.org
mtllib Stock32.mtl
o Cube.004
v -0.085895 0.406757 -1.413972
v -0.101442 0.377841 -1.557055
v 0.093306 0.379471 -1.557055
v 0.085895 0.406757 -1.413972
v -0.044379 0.677933 -1.413972
v -0.085895 0.628187 -1.413972
v -0.093306 0.635959 -1.557055
v -0.045895 0.696046 -1.557055
v 0.085895 0.628187 -1.413972
v 0.044379 0.677933 -1.413972
v 0.045895 0.696046 -1.557055
v 0.093306 0.635959 -1.557055
v -0.070683 -0.012950 -1.474073
v -0.037599 -0.087311 -1.502318
v -0.034855 -0.076509 -1.557055
v -0.064643 -0.005694 -1.557055
v 0.037599 -0.087311 -1.502318
v 0.070683 -0.012950 -1.474073
v 0.064643 -0.005694 -1.557055
v 0.034855 -0.076509 -1.557055
v -0.048953 0.706849 -1.557055
v -0.101442 0.643955 -1.557055
v 0.101442 0.643955 -1.557055
v 0.048953 0.706849 -1.557055
v -0.093306 0.379471 -1.557055
v 0.101442 0.377841 -1.557055
v -0.070683 -0.012950 -1.557055
v -0.037599 -0.087311 -1.557055
v 0.037599 -0.087311 -1.557055
v 0.070683 -0.012950 -1.557055
v -0.069810 0.390338 -1.686781
v -0.093306 0.379471 -1.656268
v 0.093306 0.379471 -1.656268
v 0.069810 0.390338 -1.686781
v -0.045895 0.696046 -1.656268
v -0.042266 0.661594 -1.686781
v -0.069827 0.619708 -1.686781
v -0.093306 0.635959 -1.656268
v 0.093306 0.635959 -1.656268
v 0.069827 0.619708 -1.686781
v 0.042266 0.661594 -1.686781
v 0.045895 0.696046 -1.656268
v -0.064643 -0.005694 -1.656268
v -0.045627 0.000965 -1.686781
v -0.028420 -0.048085 -1.686781
v -0.034855 -0.076509 -1.656268
v 0.034855 -0.076509 -1.656268
v 0.028420 -0.048085 -1.686781
v 0.045627 0.000965 -1.686781
v 0.064643 -0.005694 -1.656268
v 0.101442 0.377841 -1.413972
v 0.101442 0.643955 -1.413972
v -0.048953 0.706849 -1.413972
v -0.101442 0.643955 -1.413972
v 0.048953 0.706849 -1.413972
v -0.101442 0.377841 -1.413972
v 0.085895 0.406757 -1.487330
v 0.085895 0.628187 -1.487330
v -0.044379 0.677933 -1.487330
v -0.085895 0.628187 -1.487330
v 0.044379 0.677933 -1.487330
v -0.085895 0.406757 -1.487330
v 0.068918 0.399937 -0.736362
v 0.068918 0.470997 -0.736362
v 0.100019 0.399937 -0.723479
v 0.100019 0.470997 -0.723479
v 0.112901 0.399937 -0.692379
v 0.112901 0.470997 -0.692379
v 0.100019 0.399937 -0.661278
v 0.100019 0.470997 -0.661278
v 0.068918 0.399937 -0.648396
v 0.068918 0.470997 -0.648396
v 0.037817 0.399937 -0.661278
v 0.037817 0.470997 -0.661278
v 0.024935 0.399937 -0.692379
v 0.024935 0.470997 -0.692379
v 0.037817 0.399937 -0.723479
v 0.037817 0.470997 -0.723479
v 0.068918 0.646294 -0.736362
v 0.068918 0.717354 -0.736362
v 0.100019 0.646294 -0.723479
v 0.100019 0.717354 -0.723479
v 0.112901 0.646294 -0.692379
v 0.112901 0.717354 -0.692379
v 0.100019 0.646294 -0.661278
v 0.100019 0.717354 -0.661278
v 0.068918 0.646294 -0.648396
v 0.068918 0.717354 -0.648396
v 0.037817 0.646294 -0.661278
v 0.037817 0.717354 -0.661278
v 0.024935 0.646294 -0.692379
v 0.024935 0.717354 -0.692379
v 0.037817 0.646294 -0.723479
v 0.037817 0.717354 -0.723479
vn -0.0000 1.0000 -0.0000
vn 1.0000 -0.0000 -0.0000
vn -1.0000 -0.0000 -0.0000
vn -0.0000 -0.1752 0.9845
vn -0.9218 -0.3877 -0.0000
vn -0.7850 0.6194 -0.0000
vn 0.9969 -0.0785 -0.0000
vn -0.0000 -1.0000 -0.0000
vn -0.7678 0.6407 -0.0000
vn 0.7678 0.6407 -0.0000
vn -0.7678 -0.6407 -0.0000
vn -0.9137 -0.4065 -0.0000
vn 0.9137 -0.4065 -0.0000
vn -0.9969 -0.0785 -0.0000
vn -0.0000 -0.0000 -1.0000
vn -0.9972 -0.0742 -0.0000
vn 0.9218 -0.3877 -0.0000
vn 0.9972 -0.0742 -0.0000
vn 0.7850 0.6194 -0.0000
vn -0.6139 0.4513 -0.6477
vn 0.6139 0.4513 -0.6477
vn -0.7924 -0.0000 -0.6100
vn -0.0000 0.6630 -0.7486
vn 0.7924 -0.0000 -0.6100
vn -0.7990 -0.3133 -0.5133
vn 0.7990 -0.3133 -0.5133
vn -0.8117 -0.0554 -0.5814
vn -0.0000 -0.7317 -0.6816
vn 0.8117 -0.0554 -0.5814
vn -0.0000 -0.0000 1.0000
vn 0.7678 -0.6407 -0.0000
vn 0.3827 -0.0000 -0.9239
vn 0.9239 -0.0000 -0.3827
vn 0.9239 -0.0000 0.3827
vn 0.3827 -0.0000 0.9239
vn -0.3827 -0.0000 0.9239
vn -0.9239 -0.0000 0.3827
vn -0.9239 -0.0000 -0.3827
vn -0.3827 -0.0000 -0.9239
vt 0.656203 0.500000
vt 0.843797 0.500000
vt 0.843797 0.750000
vt 0.656203 0.750000
vt 0.521104 0.500000
vt 0.593797 0.500000
vt 0.593797 0.750000
vt 0.521104 0.750000
vt 0.521104 0.000000
vt 0.593797 0.000000
vt 0.593797 0.250000
vt 0.521104 0.250000
vt 0.398357 0.750000
vt 0.521104 1.000000
vt 0.398357 1.000000
vt 0.375000 0.961750
vt 0.375000 0.788250
vt 0.378393 0.291738
vt 0.400636 0.254170
vt 0.378393 0.291738
vt 0.592071 0.252364
vt 0.621207 0.284662
vt 0.398357 0.500000
vt 0.163250 0.500000
vt 0.336750 0.500000
vt 0.336750 0.750000
vt 0.163250 0.750000
vt 0.625000 0.000000
vt 0.625000 0.250000
vt 0.591539 0.765212
vt 0.614108 0.798836
vt 0.125000 0.750000
vt 0.125000 0.500000
vt 0.398357 0.000000
vt 0.398357 0.250000
vt 0.593797 0.250000
vt 0.625000 0.281203
vt 0.592071 0.497636
vt 0.621207 0.465338
vt 0.625000 0.468797
vt 0.593797 0.500000
vt 0.521616 0.253486
vt 0.521616 0.496514
vt 0.375000 0.288250
vt 0.378393 0.458262
vt 0.400636 0.495830
vt 0.398357 0.500000
vt 0.375000 0.461750
vt 0.590854 0.442737
vt 0.577004 0.472036
vt 0.521616 0.465915
vt 0.521616 0.284085
vt 0.577004 0.277964
vt 0.590854 0.307263
vt 0.378393 0.458262
vt 0.521616 0.496514
vt 0.419626 0.291638
vt 0.406777 0.317488
vt 0.406777 0.432512
vt 0.419626 0.458362
vt 0.529267 0.769055
vt 0.593797 0.750000
vt 0.591539 0.984788
vt 0.614108 0.951164
vt 0.625000 0.968797
vt 0.593797 1.000000
vt 0.625000 0.781203
vt 0.529267 0.980945
vt 1.000000 0.500000
vt 1.000000 1.000000
vt 0.875000 1.000000
vt 0.875000 0.500000
vt 0.750000 1.000000
vt 0.750000 0.500000
vt 0.625000 1.000000
vt 0.625000 0.500000
vt 0.500000 1.000000
vt 0.500000 0.500000
vt 0.375000 1.000000
vt 0.375000 0.500000
vt 0.250000 1.000000
vt 0.250000 0.500000
vt 0.419706 0.419706
vt 0.250000 0.490000
vt 0.080294 0.419706
vt 0.010000 0.250000
vt 0.080294 0.080294
vt 0.250000 0.010000
vt 0.419706 0.080294
vt 0.490000 0.250000
vt 0.125000 1.000000
vt 0.000000 1.000000
vt 0.000000 0.500000
vt 0.750000 0.490000
vt 0.919706 0.419706
vt 0.990000 0.250000
vt 0.919706 0.080294
vt 0.750000 0.010000
vt 0.580294 0.080294
vt 0.510000 0.250000
vt 0.580294 0.419706
s 0
f 24/1/1 21/2/1 53/3/1 55/4/1
f 26/5/2 23/6/2 52/7/2 51/8/2
f 56/9/3 54/10/3 22/11/3 2/12/3
f 18/13/4 51/8/4 56/14/4 13/15/4 14/16/4 17/17/4
f 15/18/5 16/19/5 43/19/5 46/20/5
f 7/21/6 8/22/6 35/22/6 38/21/6
f 30/23/7 26/5/7 51/8/7 18/13/7
f 28/24/8 29/25/8 17/26/8 14/27/8
f 53/28/9 21/29/9 22/11/9 54/10/9
f 24/1/10 55/4/10 52/7/10 23/6/10
f 9/30/11 10/31/11 61/31/11 58/30/11
f 28/24/12 14/27/12 13/32/12 27/33/12
f 17/26/13 29/25/13 30/23/13 18/13/13
f 13/34/14 56/9/14 2/12/14 27/35/14
f 8/22/15 7/21/15 22/36/15 21/37/15
f 12/38/15 11/39/15 24/40/15 23/41/15
f 7/21/15 25/42/15 2/12/15 22/36/15
f 11/39/15 8/22/15 21/37/15 24/40/15
f 3/43/15 12/38/15 23/41/15 26/5/15
f 16/19/15 15/18/15 28/44/15 27/35/15
f 20/45/15 19/46/15 30/47/15 29/48/15
f 25/42/15 16/19/15 27/35/15 2/12/15
f 15/18/15 20/45/15 29/48/15 28/44/15
f 19/46/15 3/43/15 26/5/15 30/47/15
f 16/19/16 25/42/16 32/42/16 43/19/16
f 41/49/15 40/50/15 34/51/15 31/52/15 37/53/15 36/54/15
f 19/46/17 20/45/17 47/45/17 50/46/17
f 20/45/8 15/18/8 46/18/8 47/55/8
f 3/43/18 19/46/18 50/46/18 33/56/18
f 12/38/2 3/43/2 33/43/2 39/38/2
f 11/39/19 12/38/19 39/38/19 42/39/19
f 8/22/1 11/39/1 42/39/1 35/22/1
f 25/42/3 7/21/3 38/21/3 32/42/3
f 36/54/20 37/53/20 38/21/20 35/22/20
f 40/50/21 41/49/21 42/39/21 39/38/21
f 37/53/22 31/52/22 32/42/22 38/21/22
f 41/49/23 36/54/23 35/22/23 42/39/23
f 39/38/24 33/43/24 34/51/24 40/50/24
f 44/57/25 45/58/25 46/20/25 43/19/25
f 48/59/26 49/60/26 50/46/26 47/45/26
f 31/52/27 44/57/27 43/19/27 32/42/27
f 45/58/28 48/59/28 47/55/28 46/18/28
f 33/56/29 50/46/29 49/60/29 34/51/29
f 48/59/15 45/58/15 44/57/15 31/52/15 34/51/15 49/60/15
f 9/30/30 4/61/30 51/8/30 52/62/30
f 6/63/30 5/64/30 53/65/30 54/66/30
f 5/64/30 10/31/30 55/67/30 53/65/30
f 4/61/30 1/68/30 56/14/30 51/8/30
f 1/68/30 6/63/30 54/66/30 56/14/30
f 10/31/30 9/30/30 52/62/30 55/67/30
f 58/30/30 61/31/30 59/64/30 60/63/30 62/68/30 57/61/30
f 1/68/1 4/61/1 57/61/1 62/68/1
f 5/64/31 6/63/31 60/63/31 59/64/31
f 6/63/2 1/68/2 62/68/2 60/63/2
f 10/31/8 5/64/8 59/64/8 61/31/8
f 4/61/3 9/30/3 58/30/3 57/61/3
f 63/69/32 64/70/32 66/71/32 65/72/32
f 65/72/33 66/71/33 68/73/33 67/74/33
f 67/74/34 68/73/34 70/75/34 69/76/34
f 69/76/35 70/75/35 72/77/35 71/78/35
f 71/78/36 72/77/36 74/79/36 73/80/36
f 73/80/37 74/79/37 76/81/37 75/82/37
f 66/83/1 64/84/1 78/85/1 76/86/1 74/87/1 72/88/1 70/89/1 68/90/1
f 75/82/38 76/81/38 78/91/38 77/33/38
f 77/33/39 78/91/39 64/92/39 63/93/39
f 63/94/8 65/95/8 67/96/8 69/97/8 71/98/8 73/99/8 75/100/8 77/101/8
f 79/69/32 80/70/32 82/71/32 81/72/32
f 81/72/33 82/71/33 84/73/33 83/74/33
f 83/74/34 84/73/34 86/75/34 85/76/34
f 85/76/35 86/75/35 88/77/35 87/78/35
f 87/78/36 88/77/36 90/79/36 89/80/36
f 89/80/37 90/79/37 92/81/37 91/82/37
f 82/83/1 80/84/1 94/85/1 92/86/1 90/87/1 88/88/1 86/89/1 84/90/1
f 91/82/38 92/81/38 94/91/38 93/33/38
f 93/33/39 94/91/39 80/92/39 79/93/39
f 79/94/8 81/95/8 83/96/8 85/97/8 87/98/8 89/99/8 91/100/8 93/101/8
