# Blender 4.4.3
# www.blender.org
mtllib Stock31.mtl
o Cube
v -0.050156 0.382301 -0.679257
v -0.050156 0.382301 -0.841956
v 0.050156 0.382301 -0.679257
v 0.050156 0.382301 -0.841956
v -0.050156 0.543667 -0.679257
v -0.050156 0.543667 -0.841956
v 0.050156 0.543667 -0.841956
v 0.050156 0.543667 -0.679257
v -0.070802 0.580706 -0.679257
v -0.070802 0.580706 -0.841956
v 0.070802 0.580706 -0.841956
v 0.070802 0.580706 -0.679257
v -0.049718 0.705033 -0.679257
v -0.070802 0.656981 -0.679257
v -0.070802 0.656981 -0.841956
v -0.049718 0.705033 -0.841956
v 0.070802 0.656981 -0.679257
v 0.049718 0.705033 -0.679257
v 0.049718 0.705033 -0.841956
v 0.070802 0.656981 -0.841956
v -0.050156 0.543667 -0.973969
v -0.050156 0.474401 -0.973969
v 0.050156 0.474401 -0.973969
v 0.050156 0.543667 -0.973969
v -0.070802 0.580706 -0.973969
v 0.070802 0.580706 -0.973969
v -0.049718 0.683144 -0.973969
v -0.070802 0.656981 -0.973969
v 0.070802 0.656981 -0.973969
v 0.049718 0.683144 -0.973969
v -0.050156 0.543667 -1.509051
v -0.050156 0.474401 -1.509051
v 0.050156 0.474401 -1.509051
v 0.050156 0.543667 -1.509051
v -0.070802 0.580706 -1.509051
v 0.070802 0.580706 -1.509051
v -0.049718 0.683144 -1.509051
v -0.070802 0.656981 -1.509051
v 0.070802 0.656981 -1.509051
v 0.049718 0.683144 -1.509051
v 0.068918 0.434584 -0.726112
v 0.068918 0.663673 -0.726112
v 0.092772 0.434584 -0.716232
v 0.092772 0.663673 -0.716232
v 0.102652 0.434584 -0.692379
v 0.102652 0.663673 -0.692379
v 0.092772 0.434584 -0.668525
v 0.092772 0.663673 -0.668525
v 0.068918 0.434584 -0.658645
v 0.068918 0.663673 -0.658645
v 0.045065 0.434584 -0.668525
v 0.045065 0.663673 -0.668525
v 0.035184 0.434584 -0.692379
v 0.035184 0.663673 -0.692379
v 0.045065 0.434584 -0.716232
v 0.045065 0.663673 -0.716232
v -0.059387 0.380517 -0.629815
v -0.059387 0.380517 -0.691080
v 0.085510 0.380517 -0.629815
v 0.085510 0.380517 -0.691080
v -0.059387 0.544012 -0.629815
v -0.059387 0.544012 -0.691080
v 0.085510 0.544012 -0.691080
v 0.085510 0.544012 -0.629815
v -0.052980 0.707508 -0.629815
v -0.052980 0.707508 -0.691080
v 0.076456 0.707508 -0.629815
v 0.076456 0.707508 -0.691080
v -0.086847 0.659620 -0.629815
v -0.086615 0.590928 -0.629815
v -0.086615 0.590928 -0.691080
v -0.086847 0.659620 -0.691080
v 0.123985 0.590928 -0.629815
v 0.124313 0.659621 -0.629815
v 0.124313 0.659621 -0.691080
v 0.123985 0.590928 -0.691080
vn -0.0000 1.0000 -0.0000
vn 1.0000 -0.0000 -0.0000
vn -1.0000 -0.0000 -0.0000
vn -0.0000 -1.0000 -0.0000
vn 0.8735 -0.4869 -0.0000
vn -0.0000 -0.0000 1.0000
vn -0.0000 -0.8201 -0.5722
vn -0.8687 0.4936 -0.0409
vn -0.8735 -0.4869 -0.0000
vn -0.9157 0.4018 -0.0000
vn 0.9157 0.4018 -0.0000
vn 0.8687 0.4936 -0.0409
vn -0.0000 0.9865 -0.1636
vn -0.0000 -0.0000 -1.0000
vn -0.7786 0.6275 -0.0000
vn 0.7786 0.6275 -0.0000
vn 0.3827 -0.0000 -0.9239
vn 0.9239 -0.0000 -0.3827
vn 0.9239 -0.0000 0.3827
vn 0.3827 -0.0000 0.9239
vn -0.3827 -0.0000 0.9239
vn -0.9239 -0.0000 0.3827
vn -0.9239 -0.0000 -0.3827
vn -0.3827 -0.0000 -0.9239
vn 0.7073 0.7069 -0.0000
vn -0.8649 -0.5019 -0.0000
vn 0.7732 -0.6341 -0.0000
vn -0.8164 0.5774 -0.0000
vn -1.0000 -0.0034 -0.0000
vn 1.0000 -0.0048 -0.0000
vt 0.662223 0.500000
vt 0.837777 0.500000
vt 0.837777 0.750000
vt 0.662223 0.750000
vt 0.562500 0.500000
vt 0.600844 0.500000
vt 0.600844 0.750000
vt 0.562500 0.750000
vt 0.562500 0.000000
vt 0.600844 0.000000
vt 0.600844 0.250000
vt 0.562500 0.250000
vt 0.125000 0.500000
vt 0.375000 0.500000
vt 0.375000 0.750000
vt 0.125000 0.750000
vt 0.500000 0.500000
vt 0.500000 0.750000
vt 0.500000 1.000000
vt 0.375000 1.000000
vt 0.375000 0.000000
vt 0.500000 0.000000
vt 0.500000 0.250000
vt 0.375000 0.250000
vt 0.562500 1.000000
vt 0.625000 0.250000
vt 0.625000 0.000000
vt 0.625000 0.787223
vt 0.625000 0.962777
vt 0.600844 1.000000
vt 0.625000 0.287223
vt 0.625000 0.462777
vt 1.000000 0.500000
vt 1.000000 1.000000
vt 0.875000 1.000000
vt 0.875000 0.500000
vt 0.750000 1.000000
vt 0.750000 0.500000
vt 0.625000 1.000000
vt 0.625000 0.500000
vt 0.250000 1.000000
vt 0.250000 0.500000
vt 0.419706 0.419706
vt 0.250000 0.490000
vt 0.080294 0.419706
vt 0.010000 0.250000
vt 0.080294 0.080294
vt 0.250000 0.010000
vt 0.419706 0.080294
vt 0.490000 0.250000
vt 0.125000 1.000000
vt 0.000000 1.000000
vt 0.000000 0.500000
vt 0.750000 0.490000
vt 0.919706 0.419706
vt 0.990000 0.250000
vt 0.919706 0.080294
vt 0.750000 0.010000
vt 0.580294 0.080294
vt 0.510000 0.250000
vt 0.580294 0.419706
vt 0.684826 0.500000
vt 0.815174 0.500000
vt 0.815174 0.750000
vt 0.684826 0.750000
vt 0.546399 0.250000
vt 0.598425 0.275938
vt 0.625000 0.309826
vt 0.625000 0.440174
vt 0.598425 0.474062
vt 0.546399 0.500000
vt 0.624364 0.750000
vt 0.624364 0.500000
vt 0.546399 0.000000
vt 0.546399 0.500000
vt 0.546399 0.750000
vt 0.598425 0.250000
vt 0.598425 0.000000
vt 0.546399 0.750000
vt 0.598425 0.775938
vt 0.625000 0.809826
vt 0.625000 0.940174
vt 0.598425 0.974062
vt 0.546399 1.000000
s 0
f 19/1/1 16/2/1 13/3/1 18/4/1
f 11/5/2 20/6/2 17/7/2 12/8/2
f 9/9/3 14/10/3 15/11/3 10/12/3
f 2/13/4 4/14/4 3/15/4 1/16/4
f 11/5/5 7/17/5 24/17/5 26/5/5
f 3/15/6 8/18/6 5/19/6 1/20/6
f 4/14/2 7/17/2 8/18/2 3/15/2
f 4/14/7 2/13/7 22/13/7 23/14/7
f 1/21/3 5/22/3 6/23/3 2/24/3
f 8/18/6 12/8/6 9/25/6 5/19/6
f 7/17/5 11/5/5 12/8/5 8/18/5
f 15/11/8 16/26/8 27/26/8 28/11/8
f 5/22/9 9/9/9 10/12/9 6/23/9
f 13/27/10 16/26/10 15/11/10 14/10/10
f 19/1/11 18/4/11 17/7/11 20/6/11
f 12/8/6 17/7/6 18/28/6 13/29/6 14/30/6 9/25/6
f 21/23/9 25/12/9 35/12/9 31/23/9
f 25/12/3 28/11/3 38/11/3 35/12/3
f 24/17/2 23/14/2 33/14/2 34/17/2
f 20/6/2 11/5/2 26/5/2 29/6/2
f 7/17/2 4/14/2 23/14/2 24/17/2
f 19/1/12 20/6/12 29/6/12 30/1/12
f 10/12/3 15/11/3 28/11/3 25/12/3
f 2/24/3 6/23/3 21/23/3 22/24/3
f 6/23/9 10/12/9 25/12/9 21/23/9
f 16/2/13 19/1/13 30/1/13 27/2/13
f 35/12/14 38/11/14 37/31/14 40/32/14 39/6/14 36/5/14
f 32/24/14 31/23/14 34/17/14 33/14/14
f 31/23/14 35/12/14 36/5/14 34/17/14
f 27/2/1 30/1/1 40/1/1 37/2/1
f 22/24/3 21/23/3 31/23/3 32/24/3
f 28/11/15 27/26/15 37/26/15 38/11/15
f 26/5/5 24/17/5 34/17/5 36/5/5
f 29/6/2 26/5/2 36/5/2 39/6/2
f 23/14/4 22/13/4 32/13/4 33/14/4
f 30/1/16 29/6/16 39/6/16 40/1/16
f 41/33/17 42/34/17 44/35/17 43/36/17
f 43/36/18 44/35/18 46/37/18 45/38/18
f 45/38/19 46/37/19 48/39/19 47/40/19
f 47/40/20 48/39/20 50/19/20 49/17/20
f 49/17/21 50/19/21 52/20/21 51/14/21
f 51/14/22 52/20/22 54/41/22 53/42/22
f 44/43/1 42/44/1 56/45/1 54/46/1 52/47/1 50/48/1 48/49/1 46/50/1
f 53/42/23 54/41/23 56/51/23 55/13/23
f 55/13/24 56/51/24 42/52/24 41/53/24
f 41/54/4 43/55/4 45/56/4 47/57/4 49/58/4 51/59/4 53/60/4 55/61/4
f 68/62/1 66/63/1 65/64/1 67/65/1
f 62/23/14 71/66/14 72/67/14 66/68/14 68/69/14 75/70/14 76/71/14 63/17/14
f 58/13/4 60/14/4 59/15/4 57/16/4
f 68/62/25 67/65/25 74/72/25 75/73/25
f 59/15/6 64/18/6 61/19/6 57/20/6
f 60/14/2 63/17/2 64/18/2 59/15/2
f 58/24/14 62/23/14 63/17/14 60/14/14
f 57/21/3 61/22/3 62/23/3 58/24/3
f 61/22/26 70/74/26 71/66/26 62/23/26
f 63/17/27 76/75/27 73/76/27 64/18/27
f 65/27/28 66/26/28 72/77/28 69/78/28
f 71/66/29 70/74/29 69/78/29 72/77/29
f 73/76/30 76/75/30 75/73/30 74/72/30
f 64/18/6 73/79/6 74/80/6 67/81/6 65/82/6 69/83/6 70/84/6 61/19/6
