# Blender 4.4.3
# www.blender.org
mtllib Grey.mtl
o Cylinder.025
v -1.276235 0.143960 0.794848
v -1.276235 0.137006 0.788690
v -1.276235 0.143960 0.729364
v -1.276235 0.137006 0.735522
v -1.256998 0.151928 0.794848
v -1.252081 0.147011 0.788690
v -1.256998 0.151928 0.729364
v -1.252081 0.147011 0.735522
v -1.249030 0.171165 0.794848
v -1.242076 0.171165 0.788690
v -1.249030 0.171165 0.729364
v -1.242076 0.171165 0.735522
v -1.256998 0.190403 0.794848
v -1.252081 0.195320 0.788690
v -1.256998 0.190403 0.729364
v -1.252081 0.195320 0.735522
v -1.276235 0.198371 0.794848
v -1.276235 0.205325 0.788690
v -1.276235 0.198371 0.729364
v -1.276235 0.205325 0.735522
v -1.295472 0.190403 0.794848
v -1.300389 0.195320 0.788690
v -1.295472 0.190403 0.729364
v -1.300389 0.195320 0.735522
v -1.303441 0.171165 0.794848
v -1.310395 0.171165 0.788690
v -1.303441 0.171165 0.729364
v -1.310395 0.171165 0.735522
v -1.295472 0.151928 0.794848
v -1.300389 0.147011 0.788690
v -1.295472 0.151928 0.729364
v -1.300389 0.147011 0.735522
v -1.257591 0.152521 0.729364
v -1.294879 0.152521 0.729364
v -1.294879 0.189810 0.729364
v -1.257591 0.189810 0.729364
v -1.276235 0.144799 0.729364
v -1.302602 0.171166 0.729364
v -1.249868 0.171166 0.729364
v -1.276235 0.197533 0.729364
v -1.276235 0.144799 0.794848
v -1.249868 0.171166 0.794848
v -1.276235 0.197533 0.794848
v -1.302602 0.171166 0.794848
v -1.257591 0.152521 0.794848
v -1.294879 0.189810 0.794848
v -1.294879 0.152521 0.794848
v -1.257591 0.189810 0.794848
v -1.249777 0.144707 0.829752
v -1.249777 0.144707 0.692938
v -1.249777 0.197624 0.829752
v -1.249777 0.197624 0.692938
v -1.302693 0.197624 0.829752
v -1.302693 0.197624 0.692938
v -1.302693 0.144707 0.829752
v -1.302693 0.144707 0.692938
v -1.292464 0.137016 0.829752
v -1.260006 0.137016 0.829752
v -1.260006 0.137016 0.692938
v -1.292464 0.137016 0.692938
v -1.242086 0.163275 0.829752
v -1.242086 0.179057 0.829752
v -1.242086 0.179057 0.692938
v -1.242086 0.163275 0.692938
v -1.268344 0.205315 0.829752
v -1.284126 0.205315 0.829752
v -1.284126 0.205315 0.692938
v -1.268344 0.205315 0.692938
v -1.310384 0.179057 0.829752
v -1.310384 0.163275 0.829752
v -1.310384 0.163275 0.692938
v -1.310384 0.179057 0.692938
v -1.257562 0.117028 0.692938
v -1.262429 0.112798 0.692938
v -1.290041 0.112798 0.692938
v -1.294908 0.117028 0.692938
v -1.294908 0.117028 0.829752
v -1.290041 0.112798 0.829752
v -1.262429 0.112798 0.829752
v -1.257562 0.117028 0.829752
v -1.302693 0.144707 0.802479
v -1.302693 0.144707 0.720567
v -1.292464 0.137016 0.802479
v -1.292464 0.137016 0.720567
v -1.242086 0.179057 0.802479
v -1.242086 0.179057 0.720567
v -1.249777 0.197624 0.802479
v -1.249777 0.197624 0.720567
v -1.268344 0.205315 0.802479
v -1.268344 0.205315 0.720567
v -1.284126 0.205315 0.802479
v -1.284126 0.205315 0.720567
v -1.302693 0.197624 0.802479
v -1.302693 0.197624 0.720567
v -1.310384 0.179057 0.802479
v -1.310384 0.179057 0.720567
v -1.310384 0.163275 0.802479
v -1.310384 0.163275 0.720567
v -1.249777 0.144707 0.802479
v -1.249777 0.144707 0.720567
v -1.242086 0.163275 0.802479
v -1.242086 0.163275 0.720567
v -1.292464 0.133359 0.802479
v -1.292464 0.133359 0.720567
v -1.260006 0.137016 0.802479
v -1.260006 0.137016 0.720567
v -1.260006 0.133359 0.802479
v -1.260006 0.133359 0.720567
v -1.276235 0.144799 0.692938
v -1.249868 0.171166 0.692938
v -1.257591 0.152521 0.692938
v -1.302602 0.171166 0.692938
v -1.302092 0.169933 0.692938
v -1.257591 0.189810 0.692938
v -1.276235 0.197533 0.692938
v -1.294879 0.152521 0.692938
v -1.294879 0.189810 0.692938
v -1.250379 0.172398 0.692938
v -1.302602 0.171166 0.829752
v -1.276235 0.144799 0.829752
v -1.249868 0.171166 0.829752
v -1.250298 0.172204 0.829752
v -1.257591 0.152521 0.829752
v -1.276235 0.197533 0.829752
v -1.271594 0.195610 0.829752
v -1.257591 0.189810 0.829752
v -1.294879 0.189810 0.829752
v -1.294879 0.152521 0.829752
v -1.294879 0.152521 0.720567
v -1.276235 0.144799 0.720567
v -1.302602 0.171166 0.720567
v -1.276235 0.197533 0.720567
v -1.294879 0.189810 0.720567
v -1.249868 0.171166 0.720567
v -1.251447 0.174977 0.720567
v -1.257591 0.189810 0.720567
v -1.257591 0.152521 0.720567
v -1.301023 0.167354 0.720567
v -1.249868 0.171166 0.802479
v -1.252845 0.163979 0.802479
v -1.294879 0.189810 0.802479
v -1.276235 0.197533 0.802479
v -1.276235 0.144799 0.802479
v -1.257591 0.152521 0.802479
v -1.302602 0.171166 0.802479
v -1.299625 0.178353 0.802479
v -1.257591 0.189810 0.802479
v -1.294879 0.152521 0.802479
vn -0.3827 -0.9239 -0.0000
vn 0.9239 0.3827 -0.0000
vn 0.3827 0.9239 -0.0000
vn -0.3827 0.9239 -0.0000
vn -0.9239 0.3827 -0.0000
vn -0.9239 -0.3827 -0.0000
vn 0.9239 -0.3827 -0.0000
vn -0.0000 -0.0000 -1.0000
vn 0.3827 -0.9239 -0.0000
vn 0.2648 -0.6393 0.7219
vn 0.2648 -0.6393 -0.7219
vn 0.6393 -0.2648 0.7219
vn 0.6393 -0.2648 -0.7219
vn 0.6393 0.2648 0.7219
vn 0.6393 0.2648 -0.7219
vn 0.2648 0.6393 0.7219
vn 0.2648 0.6393 -0.7219
vn -0.2648 0.6393 0.7219
vn -0.2648 0.6393 -0.7219
vn -0.6393 0.2648 0.7219
vn -0.6393 0.2648 -0.7219
vn -0.6393 -0.2648 0.7219
vn -0.6393 -0.2648 -0.7219
vn -0.2648 -0.6393 0.7219
vn -0.2648 -0.6393 -0.7219
vn -0.0000 -0.0000 1.0000
vn -0.6009 -0.7993 -0.0000
vn -0.9907 0.1360 -0.0000
vn 0.6009 -0.7993 -0.0000
vn -0.0000 -1.0000 -0.0000
vn 1.0000 -0.0000 -0.0000
vn -0.0000 1.0000 -0.0000
vn -1.0000 -0.0000 -0.0000
vn 0.9907 0.1360 -0.0000
vn -0.6560 -0.7548 -0.0000
vn 0.6560 -0.7548 -0.0000
vt 0.125000 0.547019
vt 0.125000 0.952981
vt 0.000000 0.952981
vt 0.000000 0.547019
vt 0.750000 0.547019
vt 0.750000 0.952981
vt 0.625000 0.952981
vt 0.625000 0.547019
vt 0.500000 0.952981
vt 0.500000 0.547019
vt 0.375000 0.952981
vt 0.375000 0.547019
vt 0.250000 0.952981
vt 0.250000 0.547019
vt 0.875000 0.547019
vt 0.875000 0.952981
vt 0.385158 0.114842
vt 0.441142 0.250000
vt 0.385158 0.385158
vt 0.250000 0.441142
vt 0.114842 0.385158
vt 0.058858 0.250000
vt 0.114842 0.114842
vt 0.250000 0.058858
vt 0.250000 0.064747
vt 0.119007 0.119006
vt 0.064748 0.249999
vt 0.119007 0.380992
vt 0.250000 0.435251
vt 0.380993 0.380992
vt 0.435252 0.249999
vt 0.380993 0.119006
vt 1.000000 0.547019
vt 1.000000 0.952981
vt 0.750000 0.490000
vt 0.919706 0.419706
vt 0.885158 0.385158
vt 0.750000 0.441142
vt 0.419706 0.419706
vt 0.250000 0.490000
vt 0.990000 0.250000
vt 0.941142 0.250000
vt 0.490000 0.250000
vt 0.919706 0.080294
vt 0.885158 0.114842
vt 0.419706 0.080294
vt 0.750000 0.010000
vt 0.750000 0.058858
vt 0.250000 0.010000
vt 0.580294 0.080294
vt 0.614842 0.114842
vt 0.080294 0.080294
vt 0.510000 0.250000
vt 0.558858 0.250000
vt 0.010000 0.250000
vt 0.580294 0.419706
vt 0.614842 0.385158
vt 0.080294 0.419706
vt 0.750000 0.064747
vt 0.880993 0.119006
vt 0.935252 0.249999
vt 0.880993 0.380992
vt 0.750000 0.435251
vt 0.619007 0.380992
vt 0.564748 0.249999
vt 0.619007 0.119006
vt 0.500000 0.500000
vt 0.625000 0.500000
vt 0.750000 0.500000
vt 0.875000 0.500000
vt 0.875000 0.500000
vt 0.125000 0.500000
vt 0.250000 0.500000
vt 0.375000 0.500000
vt 1.000000 0.500000
vt 0.000000 0.500000
vt 0.125000 0.899025
vt 0.125000 1.000000
vt 0.037280 1.000000
vt 0.037280 0.899025
vt 0.037280 0.500000
vt 0.125000 0.599672
vt 0.037280 0.599672
vt 0.712720 0.899025
vt 0.712720 1.000000
vt 0.625000 1.000000
vt 0.625000 0.899025
vt 0.625000 0.599672
vt 0.712720 0.500000
vt 0.712720 0.599672
vt 0.537280 1.000000
vt 0.537280 0.899025
vt 0.537280 0.599672
vt 0.537280 0.500000
vt 0.462720 0.899025
vt 0.462720 1.000000
vt 0.375000 1.000000
vt 0.375000 0.899025
vt 0.375000 0.599672
vt 0.462720 0.500000
vt 0.462720 0.599672
vt 0.287280 1.000000
vt 0.287280 0.899025
vt 0.287280 0.500000
vt 0.287280 0.599672
vt 0.212720 0.899025
vt 0.212720 1.000000
vt 0.212720 0.500000
vt 0.212720 0.599672
vt 0.875000 0.899025
vt 0.875000 1.000000
vt 0.787280 1.000000
vt 0.787280 0.899025
vt 0.787280 0.599672
vt 0.787280 0.500000
vt 0.875000 0.599672
vt 0.037280 0.599672
vt 0.037280 0.899025
vt 0.030965 0.300613
vt 0.030965 0.199387
vt 0.199387 0.030965
vt 0.300613 0.030965
vt 0.469035 0.199387
vt 0.415093 0.242095
vt 0.369373 0.130414
vt 0.250000 0.080880
vt 0.130628 0.130414
vt 0.081658 0.250000
vt 0.085067 0.257905
vt 0.469035 0.300613
vt 0.300613 0.469035
vt 0.199387 0.469035
vt 0.138774 0.369586
vt 0.250000 0.419120
vt 0.361226 0.369586
vt 0.418342 0.250000
vt 0.962720 0.899025
vt 0.962720 1.000000
vt 0.962720 0.500000
vt 0.962720 0.599672
vt 0.032422 0.500000
vt 0.032422 1.000000
vt 0.004858 1.000000
vt 0.004858 0.500000
vt 0.779722 0.093211
vt 0.800613 0.030965
vt 0.699387 0.030965
vt 0.530965 0.199387
vt 0.530965 0.300613
vt 0.699387 0.469035
vt 0.800613 0.469035
vt 0.969035 0.300613
vt 0.969035 0.199387
vt 0.915606 0.243342
vt 0.918342 0.250000
vt 0.861226 0.369586
vt 0.750000 0.419120
vt 0.638774 0.369586
vt 0.581658 0.250000
vt 0.630628 0.130414
vt 0.750000 0.080880
vt 0.869373 0.130414
vt 0.787422 0.469035
vt 0.800613 0.469035
vt 0.712578 0.469035
vt 0.962720 0.599672
vt 0.962720 0.899025
vt 0.000000 1.000000
vt 0.212578 0.469035
vt 0.199387 0.469035
vt 0.300613 0.469035
vt 0.287422 0.469035
vt 0.375000 0.486542
vt 0.375000 0.461421
vt 0.375000 0.400774
vt 0.375000 0.349226
vt 0.375000 0.288579
vt 0.375000 0.263458
vt 0.375000 0.294034
vt 0.375000 0.288877
vt 0.375000 0.314102
vt 0.375000 0.375000
vt 0.375000 0.435898
vt 0.375000 0.455966
vt 0.375000 0.321992
vt 0.375000 0.428008
vt 0.375000 0.461123
vt 0.375000 0.435898
vt 0.375000 0.375000
vt 0.375000 0.314102
vt 0.375000 0.798600
vt 0.375000 0.763458
vt 0.375000 0.788579
vt 0.375000 0.821992
vt 0.375000 0.928008
vt 0.375000 0.961421
vt 0.375000 0.986542
vt 0.375000 0.951399
vt 0.375000 0.961123
vt 0.375000 0.935898
vt 0.375000 0.875000
vt 0.375000 0.814102
vt 0.375000 0.900774
vt 0.375000 0.849226
vt 0.375000 0.788877
vt 0.375000 0.814102
vt 0.375000 0.875000
vt 0.375000 0.935898
vt 0.196992 0.500000
vt 0.303008 0.500000
vt 0.531116 0.500000
vt 0.875000 0.500000
vt 0.798184 0.500000
vt 0.241737 0.500000
vt 0.224446 0.500000
vt 0.741737 0.500000
vt 0.724446 0.500000
vt 0.743041 0.500000
vt 0.298184 0.500000
s 0
f 30/1/1 32/2/1 4/3/1 2/4/1
f 10/5/2 12/6/2 16/7/2 14/8/2
f 14/8/3 16/7/3 20/9/3 18/10/3
f 18/10/4 20/9/4 24/11/4 22/12/4
f 22/12/5 24/11/5 28/13/5 26/14/5
f 26/14/6 28/13/6 32/2/6 30/1/6
f 6/15/7 8/16/7 12/6/7 10/5/7
f 15/17/8 11/18/8 7/19/8 3/20/8 31/21/8 27/22/8 23/23/8 19/24/8 40/25/8 35/26/8 38/27/8 34/28/8 37/29/8 33/30/8 39/31/8 36/32/8
f 40/25/8 19/24/8 15/17/8 36/32/8
f 2/33/9 4/34/9 8/16/9 6/15/9
f 2/35/10 6/36/10 5/37/10 1/38/10
f 8/39/11 4/40/11 3/20/11 7/19/11
f 6/36/12 10/41/12 9/42/12 5/37/12
f 12/43/13 8/39/13 7/19/13 11/18/13
f 10/41/14 14/44/14 13/45/14 9/42/14
f 16/46/15 12/43/15 11/18/15 15/17/15
f 14/44/16 18/47/16 17/48/16 13/45/16
f 20/49/17 16/46/17 15/17/17 19/24/17
f 18/47/18 22/50/18 21/51/18 17/48/18
f 24/52/19 20/49/19 19/24/19 23/23/19
f 22/50/20 26/53/20 25/54/20 21/51/20
f 28/55/21 24/52/21 23/23/21 27/22/21
f 26/53/22 30/56/22 29/57/22 25/54/22
f 32/58/23 28/55/23 27/22/23 31/21/23
f 30/56/24 2/35/24 1/38/24 29/57/24
f 4/40/25 32/58/25 31/21/25 3/20/25
f 43/59/26 17/48/26 21/51/26 25/54/26 29/57/26 1/38/26 5/37/26 9/42/26 13/45/26 48/60/26 42/61/26 45/62/26 41/63/26 47/64/26 44/65/26 46/66/26
f 13/45/26 17/48/26 43/59/26 48/60/26
f 40/67/1 36/68/1 48/68/1 43/67/1
f 39/69/5 33/70/5 45/71/5 42/69/5
f 47/72/2 34/72/2 38/73/2 44/73/2
f 35/74/9 40/67/9 43/67/9 46/74/9
f 36/68/6 39/69/6 42/69/6 48/68/6
f 45/71/4 33/70/4 37/75/4 41/75/4
f 41/76/3 37/76/3 34/72/3 47/72/3
f 44/73/7 38/73/7 35/74/7 46/74/7
f 82/77/27 56/78/27 60/79/27 84/80/27
f 57/81/27 55/72/27 81/82/27 83/83/27
f 86/84/2 63/85/2 52/86/2 88/87/2
f 87/88/2 51/68/2 62/89/2 85/90/2
f 88/87/3 52/86/3 68/91/3 90/92/3
f 89/93/3 65/94/3 51/68/3 87/88/3
f 92/95/4 67/96/4 54/97/4 94/98/4
f 93/99/4 53/74/4 66/100/4 91/101/4
f 94/98/5 54/97/5 72/102/5 96/103/5
f 69/104/5 53/74/5 93/99/5 95/105/5
f 98/106/6 71/107/6 56/78/6 82/77/6
f 55/72/6 70/108/6 97/109/6 81/82/6
f 100/110/7 50/111/7 64/112/7 102/113/7
f 101/114/7 61/115/7 49/71/7 99/116/7
f 84/80/28 60/79/28 76/79/28 77/81/28 57/81/28 83/83/28 103/117/28 104/118/28
f 71/119/8 72/120/8 54/52/8 67/121/8 68/122/8 52/46/8 63/123/8 118/124/8 114/125/8 115/126/8 117/127/8 112/128/8 113/129/8
f 63/123/8 64/130/8 50/39/8 59/131/8 60/132/8 56/58/8 71/119/8 113/129/8 116/133/8 109/134/8 111/135/8 110/136/8 118/124/8
f 106/137/29 59/138/29 50/111/29 100/110/29
f 49/71/29 58/139/29 105/140/29 99/116/29
f 78/141/30 75/142/30 74/143/30 79/144/30
f 85/90/31 62/89/31 61/115/31 101/114/31
f 102/113/31 64/112/31 63/85/31 86/84/31
f 66/100/32 65/94/32 89/93/32 91/101/32
f 90/92/32 68/91/32 67/96/32 92/95/32
f 70/108/33 69/104/33 95/105/33 97/109/33
f 96/103/33 72/102/33 71/107/33 98/106/33
f 125/145/26 65/146/26 66/147/26 53/50/26 69/148/26 70/149/26 55/56/26 57/150/26 58/151/26 49/36/26 61/152/26 62/153/26 122/154/26 121/155/26 123/156/26 120/157/26 128/158/26 119/159/26 127/160/26 124/161/26
f 62/153/26 51/44/26 65/146/26 125/145/26 126/162/26 122/154/26
f 79/163/26 80/164/26 58/151/26 57/150/26 77/150/26 78/165/26
f 107/166/34 105/140/34 58/139/34 80/139/34 73/138/34 59/138/34 106/137/34 108/167/34
f 77/81/35 76/79/35 75/142/35 78/141/35
f 73/168/36 80/76/36 79/144/36 74/143/36
f 75/169/8 76/170/8 60/132/8 59/131/8 73/171/8 74/172/8
f 86/173/26 88/174/26 90/175/26 92/176/26 94/177/26 96/178/26 98/178/26 138/179/26 131/180/26 133/181/26 132/182/26 136/183/26 135/184/26
f 138/179/26 98/178/26 82/177/26 84/185/26 104/185/26 108/186/26 106/186/26 100/174/26 102/173/26 86/173/26 135/184/26 134/187/26 137/188/26 130/189/26 129/190/26
f 140/191/8 101/192/8 99/193/8 105/194/8 107/194/8 103/195/8 83/195/8 81/196/8 97/197/8 95/197/8 146/198/8 145/199/8 148/200/8 143/201/8 144/202/8
f 146/198/8 95/197/8 93/196/8 91/203/8 89/204/8 87/193/8 85/192/8 101/192/8 140/191/8 139/205/8 147/206/8 142/207/8 141/208/8
f 104/209/32 103/209/32 107/210/32 108/210/32
f 115/67/1 114/68/1 136/68/1 132/67/1
f 126/68/1 125/211/1 124/67/1 142/67/1 147/68/1
f 110/69/5 111/212/5 137/71/5 134/69/5
f 123/71/5 121/69/5 139/69/5 140/213/5 144/71/5
f 129/72/2 116/72/2 113/214/2 112/73/2 131/73/2 138/215/2
f 145/73/2 119/73/2 128/72/2 148/72/2
f 117/74/9 115/67/9 132/67/9 133/74/9
f 124/67/9 127/74/9 141/74/9 142/67/9
f 114/68/6 118/216/6 110/69/6 134/69/6 135/217/6 136/68/6
f 122/218/6 126/68/6 147/68/6 139/69/6 121/69/6
f 137/71/4 111/212/4 109/75/4 130/75/4
f 143/75/4 120/75/4 123/71/4 144/71/4
f 130/76/3 109/76/3 116/72/3 129/72/3
f 148/72/3 128/72/3 120/76/3 143/76/3
f 131/73/7 112/73/7 117/74/7 133/74/7
f 141/74/7 127/74/7 119/73/7 145/73/7 146/219/7
