# Blender v3.0.0 OBJ File: 'Glock.blend'
# www.blender.org
mtllib Barrel.mtl
o Cylinder.001
v -0.000000 0.606773 0.572677
v -0.033359 0.597835 0.572677
v -0.057780 0.573414 0.572677
v -0.066718 0.540055 0.572677
v -0.057780 0.506696 0.572677
v -0.033359 0.482275 0.572677
v 0.000000 0.473336 0.572677
v 0.033359 0.482275 0.572677
v 0.057780 0.506696 0.572677
v 0.066718 0.540055 0.572677
v 0.057780 0.573414 0.572677
v 0.033359 0.597835 0.572677
v -0.000000 0.590187 -0.995592
v -0.000000 0.606773 -0.987182
v -0.025066 0.583471 -0.995592
v -0.033359 0.597835 -0.987182
v -0.043416 0.565121 -0.995592
v -0.057780 0.573414 -0.987182
v -0.050133 0.540055 -0.995592
v -0.066718 0.540055 -0.987182
v -0.043416 0.514989 -0.995592
v -0.057780 0.506696 -0.987182
v -0.025066 0.496639 -0.995592
v -0.033359 0.482275 -0.987182
v 0.000000 0.489922 -0.995592
v 0.000000 0.473336 -0.987182
v 0.025066 0.496639 -0.995592
v 0.033359 0.482275 -0.987182
v 0.043416 0.514989 -0.995592
v 0.057780 0.506696 -0.987182
v 0.050133 0.540055 -0.995592
v 0.066718 0.540055 -0.987182
v 0.043416 0.565121 -0.995592
v 0.057780 0.573414 -0.987182
v 0.025066 0.583471 -0.995592
v 0.033359 0.597835 -0.987182
v -0.029006 0.590294 -0.995592
v -0.000000 0.598066 -0.995592
v -0.050239 0.569061 -0.995592
v -0.058011 0.540055 -0.995592
v -0.050239 0.511049 -0.995592
v -0.029006 0.489816 -0.995592
v 0.000000 0.482044 -0.995592
v 0.029006 0.489816 -0.995592
v 0.050239 0.511049 -0.995592
v 0.058011 0.540055 -0.995592
v 0.050239 0.569061 -0.995592
v 0.029006 0.590294 -0.995592
v -0.025066 0.583471 0.558312
v -0.000000 0.590187 0.558312
v -0.043416 0.565121 0.558312
v -0.050133 0.540055 0.558312
v -0.043416 0.514989 0.558312
v -0.025066 0.496639 0.558312
v -0.000000 0.489922 0.558312
v 0.025066 0.496639 0.558312
v 0.043416 0.514989 0.558312
v 0.050132 0.540055 0.558312
v 0.043416 0.565121 0.558312
v 0.025066 0.583471 0.558312
v 0.033359 0.597835 0.057258
v 0.033359 0.597835 0.292008
v -0.000000 0.606773 0.057258
v -0.000000 0.606773 0.292008
v -0.057780 0.573414 0.057258
v -0.057780 0.573414 0.292008
v -0.066718 0.540055 0.057258
v -0.066718 0.540055 0.292008
v -0.063127 0.526650 0.057258
v -0.063127 0.526650 0.292008
v 0.063127 0.526650 0.057258
v 0.063127 0.526650 0.292008
v 0.066718 0.540055 0.057258
v 0.066718 0.540055 0.292008
v 0.057780 0.573414 0.057258
v 0.057780 0.573414 0.292008
v -0.033359 0.597835 0.057258
v -0.033359 0.597835 0.292008
v 0.050133 0.540055 0.057258
v 0.050132 0.540055 0.292008
v 0.046541 0.526650 0.057258
v 0.046541 0.526650 0.292008
v -0.050133 0.540055 0.057258
v -0.050133 0.540055 0.292008
v -0.043416 0.565121 0.057258
v -0.043416 0.565121 0.292008
v 0.043416 0.565121 0.057258
v 0.043416 0.565121 0.292008
v -0.046541 0.526650 0.057258
v -0.046541 0.526650 0.292008
v 0.025066 0.583471 0.057258
v 0.025066 0.583471 0.292008
v -0.025066 0.583471 0.057258
v -0.025066 0.583471 0.292008
v -0.000000 0.590187 0.057258
v -0.000000 0.590187 0.292008
v -0.082467 0.521687 0.129215
v -0.082467 0.638188 0.129215
v -0.082467 0.521687 -0.167296
v -0.082467 0.638188 -0.167296
v 0.093102 0.521687 0.129215
v 0.093102 0.521687 -0.167296
v 0.093102 0.623974 0.129215
v 0.078888 0.638188 0.129215
v 0.078888 0.638188 -0.167296
v 0.093102 0.623974 -0.167296
v -0.063840 0.521687 0.129215
v 0.068762 0.540055 0.129215
v 0.063840 0.521687 0.129215
v 0.059550 0.574436 0.129215
v -0.068762 0.540055 0.129215
v -0.059550 0.574436 0.129215
v -0.034381 0.599605 0.129215
v 0.034381 0.599605 0.129215
v -0.000000 0.608817 0.129215
v -0.063840 0.521687 -0.167296
v -0.068762 0.540055 -0.167296
v 0.063840 0.521687 -0.167296
v -0.034381 0.599605 -0.167296
v -0.059550 0.574436 -0.167296
v -0.000000 0.608817 -0.167296
v 0.059550 0.574436 -0.167296
v 0.068762 0.540055 -0.167296
v 0.034381 0.599605 -0.167296
v -0.093899 0.324196 0.027853
v 0.093899 0.324196 0.027853
v -0.091394 0.316143 0.030010
v 0.091394 0.316143 0.030010
v -0.089954 0.310248 0.035906
v 0.089954 0.310248 0.035906
v -0.088877 0.308090 0.043959
v 0.088877 0.308090 0.043959
v -0.089954 0.310248 0.052012
v 0.089954 0.310248 0.052012
v -0.091394 0.316143 0.057907
v 0.091394 0.316143 0.057907
v -0.093899 0.324196 0.060065
v 0.093899 0.324196 0.060065
v -0.096923 0.332249 0.057907
v 0.096923 0.332249 0.057907
v -0.098880 0.338145 0.052012
v 0.098880 0.338145 0.052012
v -0.099880 0.340303 0.043959
v 0.099880 0.340303 0.043959
v -0.098880 0.338145 0.035906
v 0.098880 0.338145 0.035906
v -0.096923 0.332249 0.030010
v 0.096923 0.332249 0.030010
v -0.038027 0.162072 0.143972
v -0.038027 0.263647 0.170604
v 0.002762 0.173683 0.074823
v -0.038027 0.282816 0.036423
v 0.038027 0.162072 0.143972
v 0.038027 0.263647 0.170604
v 0.034936 0.173683 0.074823
v 0.038027 0.282816 0.036423
v -0.038027 0.123429 0.077202
v -0.038027 0.102593 0.127001
v 0.038027 0.123429 0.077202
v 0.038027 0.102593 0.127001
v -0.038027 0.086931 0.072447
v -0.038027 0.066096 0.101216
v 0.038027 0.086931 0.072447
v 0.038027 0.066096 0.101216
v 0.002762 0.059590 0.058522
v -0.038027 0.041183 0.069853
v 0.034936 0.059590 0.058522
v 0.038027 0.041183 0.069853
v -0.038027 0.172490 0.109179
v -0.038027 0.264499 0.130137
v 0.038027 0.172490 0.109179
v 0.038027 0.264499 0.130137
v -0.038027 0.113011 0.102102
v 0.038027 0.113011 0.102102
v -0.038027 0.076513 0.086831
v 0.038027 0.076513 0.086831
v -0.038027 0.046272 0.062092
v 0.038027 0.046272 0.062092
v 0.038027 0.182907 0.074387
v -0.038027 0.182907 0.074387
v 0.034936 0.123429 0.077202
v 0.002762 0.123429 0.077202
v 0.034936 0.086931 0.072447
v 0.002762 0.086931 0.072447
v 0.038027 0.051361 0.054332
v -0.038027 0.051361 0.054332
v 0.034936 0.128479 0.050040
v 0.002762 0.128479 0.050040
v 0.034936 0.095531 0.043805
v 0.002762 0.095531 0.043805
v 0.034936 0.173704 0.073693
v 0.002762 0.173704 0.073693
v 0.034936 0.062037 0.045359
v 0.034936 0.077327 0.037822
v 0.002762 0.077327 0.037822
v 0.002762 0.062037 0.045359
vt 0.083333 0.975264
vt 0.000000 0.975264
vt 0.000000 1.000000
vt 0.083333 1.000000
vt 0.000000 0.503796
vt 0.000000 0.887837
vt 0.083333 0.887837
vt 0.083333 0.503796
vt 0.833333 0.975264
vt 0.750000 0.975264
vt 0.750000 1.000000
vt 0.833333 1.000000
vt 0.750000 0.887837
vt 0.833333 0.887837
vt 0.833333 0.503796
vt 0.750000 0.503796
vt 0.716515 0.975264
vt 0.716515 0.887837
vt 0.666667 0.503796
vt 0.666667 1.000000
vt 0.583333 0.503796
vt 0.583333 1.000000
vt 0.500000 0.503796
vt 0.500000 1.000000
vt 0.416667 0.503796
vt 0.416667 1.000000
vt 0.333333 0.503796
vt 0.333333 1.000000
vt 0.250000 0.503796
vt 0.250000 0.887837
vt 0.283485 0.887837
vt 0.283485 0.975264
vt 0.250000 0.975264
vt 0.250000 1.000000
vt 0.166667 0.975264
vt 0.166667 1.000000
vt 0.166667 0.503796
vt 0.166667 0.887837
vt 0.042154 0.370000
vt 0.130000 0.457846
vt 0.250000 0.490000
vt 0.370000 0.457846
vt 0.457846 0.370000
vt 0.490000 0.250000
vt 0.457846 0.130000
vt 0.370000 0.042154
vt 0.250000 0.010000
vt 0.130000 0.042154
vt 0.042154 0.130000
vt 0.010000 0.250000
vt 0.916667 0.975264
vt 0.916667 1.000000
vt 0.916667 0.887837
vt 0.916667 0.503796
vt 1.000000 0.975264
vt 1.000000 1.000000
vt 1.000000 0.887837
vt 1.000000 0.503796
vt 0.994562 0.500000
vt 0.922104 0.500000
vt 0.911229 0.500000
vt 0.838771 0.500000
vt 0.827896 0.500000
vt 0.755438 0.500000
vt 0.744562 0.500000
vt 0.672104 0.500000
vt 0.661229 0.500000
vt 0.588771 0.500000
vt 0.577896 0.500000
vt 0.505438 0.500000
vt 0.494562 0.500000
vt 0.422104 0.500000
vt 0.411229 0.500000
vt 0.338771 0.500000
vt 0.327896 0.500000
vt 0.255438 0.500000
vt 0.244562 0.500000
vt 0.172104 0.500000
vt 0.161229 0.500000
vt 0.088771 0.500000
vt 0.077896 0.500000
vt 0.005438 0.500000
vt 0.569663 0.250000
vt 0.582583 0.201781
vt 0.582583 0.201781
vt 0.569663 0.250000
vt 0.569663 0.250000
vt 0.593824 0.159832
vt 0.593824 0.159832
vt 0.569663 0.250000
vt 0.840169 0.406176
vt 0.854340 0.430721
vt 0.750000 0.458679
vt 0.750000 0.430337
vt 0.906176 0.340169
vt 0.930721 0.354339
vt 0.930337 0.250000
vt 0.958679 0.250000
vt 0.906176 0.159832
vt 0.930721 0.145661
vt 0.840169 0.093824
vt 0.854339 0.069279
vt 0.750000 0.069663
vt 0.750000 0.041321
vt 0.659832 0.093824
vt 0.645661 0.069279
vt 0.569279 0.145661
vt 0.541321 0.250000
vt 0.593824 0.340168
vt 0.569279 0.354339
vt 0.659832 0.406176
vt 0.645661 0.430721
vt 0.659832 0.406176
vt 0.593824 0.340168
vt 0.659832 0.093824
vt 0.750000 0.069663
vt 0.840169 0.093824
vt 0.906176 0.159832
vt 0.930337 0.250000
vt 0.906176 0.340169
vt 0.840169 0.406176
vt 0.750000 0.430337
vt 0.930337 0.250000
vt 0.906177 0.340169
vt 0.906176 0.340169
vt 0.930337 0.250000
vt 0.593824 0.340168
vt 0.593824 0.340168
vt 0.917417 0.201781
vt 0.917417 0.201781
vt 0.659832 0.406176
vt 0.659832 0.406176
vt 0.840169 0.406176
vt 0.750000 0.430337
vt 0.750000 0.430337
vt 0.840169 0.406176
vt 0.375000 0.343831
vt 0.375000 0.352020
vt 0.375000 0.350247
vt 0.375000 0.353563
vt 0.375000 0.362623
vt 0.375000 0.375000
vt 0.375000 0.387377
vt 0.375000 0.396437
vt 0.375000 0.399753
vt 0.375000 0.397980
vt 0.375000 0.406169
vt 0.375000 0.407942
vt 0.375000 0.403529
vt 0.375000 0.391471
vt 0.375000 0.375000
vt 0.375000 0.358529
vt 0.375000 0.346471
vt 0.375000 0.342058
vt 0.375000 0.852020
vt 0.375000 0.850247
vt 0.375000 0.853563
vt 0.375000 0.862623
vt 0.375000 0.875000
vt 0.375000 0.887377
vt 0.375000 0.896437
vt 0.375000 0.899753
vt 0.375000 0.897980
vt 0.375000 0.906169
vt 0.375000 0.907942
vt 0.375000 0.903529
vt 0.375000 0.891471
vt 0.375000 0.875000
vt 0.375000 0.858529
vt 0.375000 0.846471
vt 0.375000 0.842058
vt 0.375000 0.843831
vt 0.218831 0.500000
vt 0.218831 0.500000
vt 0.227020 0.500000
vt 0.227020 0.500000
vt 0.272980 0.500000
vt 0.272980 0.500000
vt 0.281169 0.500000
vt 0.281169 0.500000
vt 0.375000 0.000000
vt 0.625000 0.000000
vt 0.625000 0.250000
vt 0.375000 0.250000
vt 0.375000 0.750000
vt 0.594498 0.750000
vt 0.625000 0.770748
vt 0.625000 1.000000
vt 0.375000 1.000000
vt 0.375000 0.973477
vt 0.414417 0.980493
vt 0.488195 0.967392
vt 0.542204 0.931609
vt 0.561973 0.882736
vt 0.542204 0.833789
vt 0.488195 0.797850
vt 0.414417 0.784679
vt 0.375000 0.791667
vt 0.375000 0.276523
vt 0.625000 0.479252
vt 0.594498 0.500000
vt 0.375000 0.500000
vt 0.375000 0.458333
vt 0.414417 0.465321
vt 0.488195 0.452150
vt 0.542204 0.416211
vt 0.561973 0.367264
vt 0.542205 0.318391
vt 0.488195 0.282608
vt 0.414417 0.269507
vt 0.333333 0.500000
vt 0.333333 0.750000
vt 0.125000 0.750000
vt 0.125000 0.500000
vt 0.151523 0.500000
vt 0.151523 0.750000
vt 0.645748 0.500000
vt 0.645748 0.750000
vt 0.875000 0.500000
vt 0.875000 0.750000
vt 0.750000 0.596628
vt 0.750000 0.684141
vt 0.794521 0.684141
vt 0.794521 0.596628
vt 0.666667 0.596628
vt 0.666667 0.684141
vt 0.583333 0.596628
vt 0.583333 0.684141
vt 0.500000 0.596628
vt 0.500000 0.684141
vt 0.416667 0.596628
vt 0.416667 0.684141
vt 0.333333 0.596628
vt 0.333333 0.684141
vt 0.250000 0.596628
vt 0.250000 0.684141
vt 0.205479 0.684141
vt 0.205479 0.596628
vt 1.000000 0.500000
vt 1.000000 1.000000
vt 0.916667 1.000000
vt 0.916667 0.500000
vt 0.833333 1.000000
vt 0.833333 0.500000
vt 0.750000 1.000000
vt 0.750000 0.500000
vt 0.666667 1.000000
vt 0.666667 0.500000
vt 0.583333 1.000000
vt 0.583333 0.500000
vt 0.500000 1.000000
vt 0.500000 0.500000
vt 0.416667 1.000000
vt 0.416667 0.500000
vt 0.333333 1.000000
vt 0.333333 0.500000
vt 0.250000 1.000000
vt 0.250000 0.500000
vt 0.166667 1.000000
vt 0.166667 0.500000
vt 0.370000 0.457846
vt 0.250000 0.490000
vt 0.130000 0.457846
vt 0.042154 0.370000
vt 0.010000 0.250000
vt 0.042154 0.130000
vt 0.130000 0.042154
vt 0.250000 0.010000
vt 0.370000 0.042154
vt 0.457846 0.130000
vt 0.490000 0.250000
vt 0.457846 0.370000
vt 0.083333 1.000000
vt 0.083333 0.500000
vt 0.000000 1.000000
vt 0.000000 0.500000
vt 0.750000 0.490000
vt 0.870000 0.457846
vt 0.957846 0.370000
vt 0.990000 0.250000
vt 0.957846 0.130000
vt 0.870000 0.042154
vt 0.750000 0.010000
vt 0.630000 0.042154
vt 0.542154 0.130000
vt 0.510000 0.250000
vt 0.542154 0.370000
vt 0.630000 0.457846
vt 0.375000 0.125000
vt 0.625000 0.125000
vt 0.625000 0.250000
vt 0.375000 0.250000
vt 0.625000 0.500000
vt 0.375000 0.500000
vt 0.375000 0.625000
vt 0.625000 0.625000
vt 0.625000 0.750000
vt 0.375000 0.750000
vt 0.625000 1.000000
vt 0.375000 1.000000
vt 0.375000 1.000000
vt 0.375000 0.750000
vt 0.875000 0.625000
vt 0.875000 0.750000
vt 0.375000 1.000000
vt 0.375000 0.750000
vt 0.375000 0.270314
vt 0.375000 0.479686
vt 0.375000 0.479686
vt 0.375000 0.270314
vt 0.375000 0.250000
vt 0.375000 0.125000
vt 0.375000 0.625000
vt 0.375000 0.270314
vt 0.375000 0.270314
vt 0.375000 0.270314
vt 0.375000 0.270314
vt 0.375000 0.625000
vt 0.375000 0.250000
vt 0.375000 0.125000
vt 0.125000 0.625000
vt 0.375000 0.625000
vt 0.375000 0.750000
vt 0.125000 0.750000
vt 0.375000 0.250000
vt 0.375000 0.125000
vt 0.375000 1.000000
vt 0.375000 0.000000
vt 0.375000 0.000000
vt 0.375000 0.500000
vt 0.375000 0.500000
vt 0.125000 0.500000
vt 0.375000 0.000000
vt 0.375000 0.500000
vt 0.375000 0.000000
vt 0.875000 0.500000
vt 0.625000 0.000000
vt 0.375000 0.479686
vt 0.375000 0.479686
vt 0.375000 0.270314
vt 0.375000 0.479686
vt 0.375000 0.479686
vt 0.375000 0.479686
vt 0.375000 0.479686
vt 0.375000 0.479686
vt 0.375000 0.270314
vt 0.375000 0.270314
vn 0.5000 0.8660 0.0000
vn 0.2588 0.9659 0.0000
vn -0.8660 0.5000 0.0000
vn -0.9659 0.2588 0.0000
vn -0.9659 -0.2588 0.0000
vn -0.8660 -0.5000 0.0000
vn -0.7071 -0.7071 0.0000
vn -0.2588 -0.9659 0.0000
vn 0.0000 -1.0000 0.0000
vn 0.2588 -0.9659 0.0000
vn 0.7071 -0.7071 0.0000
vn 0.8660 -0.5000 0.0000
vn 0.9659 -0.2588 0.0000
vn 0.9659 0.2588 0.0000
vn 0.8660 0.5000 0.0000
vn 0.0000 0.0000 1.0000
vn -0.5000 0.8660 0.0000
vn -0.2588 0.9659 0.0000
vn 0.0000 0.6947 -0.7193
vn -0.3474 0.6017 -0.7193
vn -0.6017 0.3474 -0.7193
vn -0.6947 0.0000 -0.7193
vn -0.6017 -0.3474 -0.7193
vn -0.3474 -0.6017 -0.7193
vn 0.0000 -0.6947 -0.7193
vn 0.3474 -0.6017 -0.7193
vn 0.6017 -0.3474 -0.7193
vn 0.6947 0.0000 -0.7193
vn 0.6017 0.3474 -0.7193
vn 0.3474 0.6017 -0.7193
vn -1.0000 -0.0000 -0.0000
vn -0.0000 0.0000 -1.0000
vn 1.0000 -0.0000 0.0000
vn -0.5000 -0.8660 0.0000
vn 0.5000 -0.8660 0.0000
vn -0.7071 0.7071 0.0000
vn 0.7071 0.7071 0.0000
vn 0.0000 1.0000 -0.0000
vn 0.0000 0.0535 -0.9986
vn 0.0000 -0.2588 -0.9659
vn 0.0000 -0.7071 -0.7071
vn 0.0000 -0.8532 -0.5217
vn 0.0000 -0.9659 -0.2588
vn 0.0000 -0.9659 0.2588
vn 0.0000 -0.8532 0.5217
vn 0.0000 -0.7071 0.7071
vn 0.0000 -0.2588 0.9659
vn 0.0000 0.0535 0.9986
vn -0.0000 0.5437 0.8393
vn -0.0000 0.7071 0.7071
vn -0.0000 0.9659 0.2588
vn -0.0000 0.9659 -0.2588
vn -0.0000 0.8811 -0.4730
vn 0.9493 -0.3143 -0.0000
vn -0.0000 0.7071 -0.7071
vn 0.0000 0.2588 -0.9659
vn -0.9493 -0.3143 0.0000
vn -0.0000 -0.2038 -0.9790
vn 0.0000 -0.3552 -0.9348
vn 0.0000 -0.2640 0.9645
vn 0.0000 -0.2536 0.9673
vn 0.0000 -0.4318 0.9020
vn 0.0000 0.9943 0.1068
vn 0.0000 0.9998 0.0210
vn 0.0000 -0.6870 0.7267
vn 0.0000 0.9998 0.0185
vn 0.0000 -0.8362 -0.5484
vn 0.0000 -0.7830 0.6220
vn 0.0000 0.9814 0.1918
vn 0.0000 -0.0473 -0.9989
vn 0.0000 0.0411 -0.9992
vn -0.0000 0.2958 -0.9552
vn 0.0000 0.4538 -0.8911
vn 0.0000 0.4634 -0.8861
vn 0.0000 0.3282 -0.9446
vn 0.0000 0.2496 -0.9683
vn 0.0000 0.3123 -0.9500
vn 0.0000 -0.4421 -0.8970
vn 0.0000 -0.9832 -0.1828
usemtl None
s 1
f 62/1/1 64/2/2 1/3/2 12/4/1
f 14/5/2 63/6/2 61/7/1 36/8/1
f 66/9/3 68/10/4 4/11/4 3/12/3
f 67/13/4 65/14/3 18/15/3 20/16/4
f 68/10/5 70/17/5 69/18/5 67/13/5 20/16/5 22/19/6 5/20/6 4/11/5
f 22/19/6 24/21/7 6/22/7 5/20/6
f 24/21/8 26/23/9 7/24/9 6/22/8
f 26/23/9 28/25/10 8/26/10 7/24/9
f 28/25/11 30/27/12 9/28/12 8/26/11
f 32/29/13 73/30/13 71/31/13 72/32/13 74/33/13 10/34/13 9/28/12 30/27/12
f 74/33/14 76/35/15 11/36/15 10/34/14
f 34/37/15 75/38/15 73/30/14 32/29/14
f 76/35/15 62/1/1 12/4/1 11/36/15
f 36/8/1 61/7/1 75/38/15 34/37/15
f 11/39/16 12/40/16 1/41/16 2/42/16 3/43/16 4/44/16 5/45/16 6/46/16 7/47/16 8/48/16 9/49/16 10/50/16
f 78/51/17 66/9/3 3/12/3 2/52/17
f 18/15/3 65/14/3 77/53/17 16/54/17
f 64/55/18 78/51/17 2/52/17 1/56/18
f 16/54/17 77/53/17 63/57/18 14/58/18
f 14/58/19 38/59/19 37/60/20 16/54/20
f 16/54/20 37/61/20 39/62/21 18/15/21
f 18/15/21 39/63/21 40/64/22 20/16/22
f 20/16/22 40/65/22 41/66/23 22/19/23
f 22/19/23 41/67/23 42/68/24 24/21/24
f 24/21/24 42/69/24 43/70/25 26/23/25
f 26/23/25 43/71/25 44/72/26 28/25/26
f 28/25/26 44/73/26 45/74/27 30/27/27
f 30/27/27 45/75/27 46/76/28 32/29/28
f 32/29/28 46/77/28 47/78/29 34/37/29
f 34/37/29 47/79/29 48/80/30 36/8/30
f 36/8/30 48/81/30 38/82/19 14/5/19
f 80/83/31 82/84/4 81/85/4 79/86/31 31/87/31 29/88/4 57/89/4 58/90/31
f 15/91/32 37/92/32 38/93/32 13/94/32
f 17/95/32 39/96/32 37/92/32 15/91/32
f 19/97/32 40/98/32 39/96/32 17/95/32
f 21/99/32 41/100/32 40/98/32 19/97/32
f 23/101/32 42/102/32 41/100/32 21/99/32
f 25/103/32 43/104/32 42/102/32 23/101/32
f 27/105/32 44/106/32 43/104/32 25/103/32
f 29/88/32 45/107/32 44/106/32 27/105/32
f 31/87/32 46/108/32 45/107/32 29/88/32
f 33/109/32 47/110/32 46/108/32 31/87/32
f 35/111/32 48/112/32 47/110/32 33/109/32
f 13/94/32 38/93/32 48/112/32 35/111/32
f 60/113/32 59/114/32 58/90/32 57/89/32 56/115/32 55/116/32 54/117/32 53/118/32 52/119/32 51/120/32 49/121/32 50/122/32
f 23/101/1 54/117/1 55/116/2 25/103/2
f 84/123/13 86/124/13 51/120/13 52/119/13
f 17/95/13 85/125/13 83/126/33 19/97/33
f 88/127/6 80/83/31 58/90/31 59/114/6
f 79/86/31 87/128/5 33/109/5 31/87/31
f 25/103/18 55/116/18 56/115/17 27/105/17
f 19/97/33 83/126/33 89/129/14 90/130/14 84/123/14 52/119/14 53/118/14 21/99/14
f 92/131/34 88/127/6 59/114/6 60/113/34
f 87/128/7 91/132/34 35/111/34 33/109/7
f 94/133/35 96/134/10 50/122/10 49/121/35
f 95/135/10 93/136/35 15/91/35 13/94/10
f 27/105/17 56/115/17 57/89/36 29/88/36
f 21/99/37 53/118/37 54/117/1 23/101/1
f 96/134/8 92/131/34 60/113/34 50/122/8
f 91/132/34 95/135/8 13/94/8 35/111/34
f 86/124/11 94/133/35 49/121/35 51/120/11
f 93/136/35 85/125/11 17/95/11 15/91/35
f 69/137/16 89/138/16 83/139/16 85/140/16 93/141/16 95/142/16 91/143/16 87/144/16 79/145/16 81/146/16 71/147/16 73/148/16 75/149/16 61/150/16 63/151/16 77/152/16 65/153/16 67/154/16
f 82/155/32 80/156/32 88/157/32 92/158/32 96/159/32 94/160/32 86/161/32 84/162/32 90/163/32 70/164/32 68/165/32 66/166/32 78/167/32 64/168/32 62/169/32 76/170/32 74/171/32 72/172/32
f 69/173/38 70/174/38 90/175/38 89/176/38
f 81/177/38 82/178/38 72/179/38 71/180/38
f 97/181/31 98/182/31 100/183/31 99/184/31
f 101/185/16 103/186/16 104/187/16 98/188/16 97/189/16 107/190/16 111/191/16 112/192/16 113/193/16 115/194/16 114/195/16 110/196/16 108/197/16 109/198/16
f 116/199/32 99/184/32 100/183/32 105/200/32 106/201/32 102/202/32 118/203/32 123/204/32 122/205/32 124/206/32 121/207/32 119/208/32 120/209/32 117/210/32
f 118/211/9 102/202/9 101/185/9 109/212/9
f 97/213/9 99/214/9 116/215/9 107/216/9
f 102/202/33 106/201/33 103/186/33 101/185/33
f 105/217/37 104/218/37 103/186/37 106/201/37
f 105/217/38 100/219/38 98/220/38 104/218/38
f 108/221/31 123/222/31 118/223/4 109/224/4
f 110/225/5 122/226/5 123/222/31 108/221/31
f 110/225/7 114/227/34 124/228/34 122/226/7
f 114/227/34 115/229/9 121/230/9 124/228/34
f 115/229/9 113/231/10 119/232/10 121/230/9
f 113/231/11 112/233/12 120/234/12 119/232/11
f 112/233/12 111/235/13 117/236/13 120/234/12
f 116/237/14 117/236/14 111/235/14 107/238/14
f 125/239/39 126/240/39 128/241/40 127/242/40
f 127/242/41 128/241/41 130/243/42 129/244/42
f 129/244/42 130/243/42 132/245/43 131/246/43
f 131/246/44 132/245/44 134/247/45 133/248/45
f 133/248/45 134/247/45 136/249/46 135/250/46
f 135/250/47 136/249/47 138/251/48 137/252/48
f 137/252/48 138/251/48 140/253/49 139/254/49
f 139/254/49 140/253/49 142/255/50 141/256/50
f 141/256/51 142/255/51 144/257/51 143/258/51
f 143/258/52 144/257/52 146/259/53 145/260/53
f 128/261/54 126/262/54 148/263/54 146/264/54 144/265/54 142/266/54 140/267/54 138/268/54 136/269/54 134/270/54 132/271/54 130/272/54
f 145/260/53 146/259/53 148/273/55 147/274/55
f 147/274/56 148/273/56 126/275/39 125/276/39
f 125/277/57 127/278/57 129/279/57 131/280/57 133/281/57 135/282/57 137/283/57 139/284/57 141/285/57 143/286/57 145/287/57 147/288/57
f 169/289/31 170/290/31 152/291/31 180/292/31
f 180/292/58 152/291/59 156/293/59 179/294/58
f 171/295/33 172/296/33 154/297/33 153/298/33
f 153/298/60 154/297/61 150/299/61 149/300/60
f 153/298/60 149/300/60 158/301/62 160/302/62
f 172/296/63 170/303/63 150/304/64 154/297/64
f 160/302/62 158/301/62 162/305/65 164/306/65
f 151/307/66 155/308/66 191/309/66 192/310/66
f 169/289/31 180/292/31 157/311/31 173/312/31
f 171/295/33 153/298/33 160/302/33 174/313/33
f 182/314/31 151/307/31 192/310/31 188/315/31
f 184/316/31 182/314/31 188/315/31 190/317/31
f 174/313/33 160/302/33 164/306/33 176/318/33
f 173/312/31 157/311/31 161/319/31 175/320/31
f 177/321/67 178/322/67 168/323/67 166/324/67
f 176/318/33 164/306/33 168/323/33 178/322/33
f 175/320/31 161/319/31 186/325/31 177/326/31
f 164/306/65 162/305/65 166/327/68 168/323/68
f 162/328/31 175/320/31 177/326/31 166/329/31
f 163/330/33 176/318/33 178/322/33 185/331/33
f 186/332/67 185/331/67 178/322/67 177/321/67
f 158/333/31 173/312/31 175/320/31 162/328/31
f 159/334/33 174/313/33 176/318/33 163/330/33
f 179/294/33 171/295/33 174/313/33 159/334/33
f 149/335/31 169/289/31 173/312/31 158/333/31
f 156/293/69 152/336/69 170/303/63 172/296/63
f 179/294/33 156/293/33 172/296/33 171/295/33
f 149/335/31 150/337/31 170/290/31 169/289/31
f 155/308/70 151/307/70 180/292/58 179/294/58
f 181/338/71 155/308/70 179/294/58 159/334/71
f 151/307/70 182/314/71 157/311/71 180/292/58
f 183/339/72 181/338/71 159/334/71 163/330/72
f 182/314/71 184/316/72 161/319/72 157/311/71
f 165/340/73 167/341/73 185/331/73 186/325/73
f 167/341/73 183/339/72 163/330/72 185/331/73
f 184/316/72 165/340/73 186/325/73 161/319/72
f 192/310/74 191/309/74 187/342/75 188/315/75
f 183/339/33 167/341/33 193/343/33 194/344/33 189/345/33
f 188/315/75 187/342/75 189/345/76 190/317/76
f 190/317/76 189/345/76 194/344/77 195/346/77
f 181/338/33 183/339/33 189/345/33 187/342/33
f 155/308/33 181/338/33 187/342/33 191/309/33
f 165/340/31 184/316/31 190/317/31 195/346/31 196/347/31
f 193/343/78 196/347/78 195/346/78 194/344/78
f 167/341/79 165/340/79 196/347/79 193/343/79
