# Blender v3.0.0 OBJ File: 'Glock.blend'
# www.blender.org
mtllib Slide2.mtl
o Cube.002_Cube.009
v -0.033777 0.642714 0.804347
v -0.033777 0.651424 0.802035
v -0.033777 0.642714 0.796856
v -0.033777 0.651424 0.796856
v 0.033777 0.642714 0.804347
v 0.033777 0.651424 0.802035
v 0.033777 0.642714 0.796856
v 0.033777 0.651424 0.796856
v 0.024423 0.642714 0.796856
v -0.024423 0.642714 0.796856
v -0.024423 0.651424 0.796856
v 0.024423 0.651424 0.796856
v -0.024423 0.642714 0.804347
v 0.024423 0.642714 0.804347
v 0.024423 0.651424 0.802035
v -0.024423 0.651424 0.802035
v -0.033777 0.673540 0.796098
v -0.033777 0.673540 0.790486
v 0.024423 0.673540 0.790486
v 0.033777 0.673540 0.790486
v 0.033777 0.673540 0.796098
v -0.024423 0.673540 0.796098
v -0.024423 0.673540 0.790486
v 0.024423 0.673540 0.796098
v -0.000000 0.665824 -0.891995
v -0.000000 0.674584 -0.868139
v 0.002479 0.665594 -0.891911
v 0.002479 0.674355 -0.868055
v 0.004863 0.664916 -0.891662
v 0.004863 0.673676 -0.867806
v 0.007060 0.663813 -0.891257
v 0.007060 0.672574 -0.867401
v 0.008985 0.662330 -0.890712
v 0.008985 0.671091 -0.866856
v 0.010565 0.660522 -0.890049
v 0.010565 0.669283 -0.866192
v 0.011740 0.658460 -0.889291
v 0.011740 0.667221 -0.865435
v 0.012463 0.656223 -0.888469
v 0.012463 0.664983 -0.864613
v 0.012707 0.653895 -0.887615
v 0.012707 0.662656 -0.863759
v 0.012463 0.651568 -0.886760
v 0.012463 0.660329 -0.862904
v 0.011740 0.649331 -0.885938
v 0.011740 0.658092 -0.862083
v 0.010565 0.647269 -0.885181
v 0.010565 0.656029 -0.861325
v 0.008985 0.645461 -0.884517
v 0.008985 0.654222 -0.860661
v 0.007060 0.643978 -0.883973
v 0.007060 0.652739 -0.860117
v 0.004863 0.642875 -0.883568
v 0.004863 0.651636 -0.859712
v 0.002479 0.642197 -0.883319
v 0.002479 0.650957 -0.859462
v -0.000000 0.641967 -0.883234
v -0.000000 0.650728 -0.859378
v -0.002479 0.642197 -0.883319
v -0.002479 0.650957 -0.859462
v -0.004863 0.642875 -0.883568
v -0.004863 0.651636 -0.859712
v -0.007060 0.643978 -0.883973
v -0.007060 0.652739 -0.860117
v -0.008985 0.645461 -0.884517
v -0.008985 0.654222 -0.860661
v -0.010565 0.647269 -0.885181
v -0.010565 0.656029 -0.861325
v -0.011740 0.649331 -0.885938
v -0.011740 0.658092 -0.862083
v -0.012463 0.651568 -0.886760
v -0.012463 0.660329 -0.862904
v -0.012707 0.653895 -0.887615
v -0.012707 0.662656 -0.863759
v -0.012463 0.656223 -0.888469
v -0.012463 0.664983 -0.864613
v -0.011740 0.658460 -0.889291
v -0.011740 0.667221 -0.865435
v -0.010565 0.660522 -0.890049
v -0.010565 0.669283 -0.866192
v -0.008985 0.662330 -0.890712
v -0.008985 0.671091 -0.866856
v -0.007060 0.663813 -0.891257
v -0.007060 0.672574 -0.867401
v -0.004863 0.664916 -0.891662
v -0.004863 0.673676 -0.867806
v -0.002479 0.665594 -0.891911
v -0.002479 0.674355 -0.868055
vt 0.375000 0.000000
vt 0.625000 0.000000
vt 0.625000 0.250000
vt 0.375000 0.250000
vt 0.375000 0.416667
vt 0.625000 0.416667
vt 0.625000 0.500000
vt 0.375000 0.500000
vt 0.625000 0.750000
vt 0.375000 0.750000
vt 0.375000 0.916667
vt 0.625000 0.916667
vt 0.625000 1.000000
vt 0.375000 1.000000
vt 0.291667 0.500000
vt 0.291667 0.750000
vt 0.625000 0.916667
vt 0.625000 1.000000
vt 0.625000 0.000000
vt 0.625000 0.250000
vt 0.708333 0.500000
vt 0.791667 0.500000
vt 0.791667 0.750000
vt 0.708333 0.750000
vt 0.125000 0.500000
vt 0.208333 0.500000
vt 0.208333 0.750000
vt 0.125000 0.750000
vt 0.625000 0.833333
vt 0.375000 0.833333
vt 0.625000 0.333333
vt 0.375000 0.333333
vt 0.791667 0.500000
vt 0.875000 0.500000
vt 0.875000 0.750000
vt 0.791667 0.750000
vt 0.625000 0.500000
vt 0.708333 0.500000
vt 0.708333 0.750000
vt 0.625000 0.750000
vt 0.625000 0.833333
vt 0.625000 0.416667
vt 0.625000 0.333333
vt 1.000000 0.500000
vt 1.000000 1.000000
vt 0.968750 1.000000
vt 0.968750 0.500000
vt 0.937500 1.000000
vt 0.937500 0.500000
vt 0.906250 1.000000
vt 0.906250 0.500000
vt 0.875000 1.000000
vt 0.875000 0.500000
vt 0.843750 1.000000
vt 0.843750 0.500000
vt 0.812500 1.000000
vt 0.812500 0.500000
vt 0.781250 1.000000
vt 0.781250 0.500000
vt 0.750000 1.000000
vt 0.750000 0.500000
vt 0.718750 1.000000
vt 0.718750 0.500000
vt 0.687500 1.000000
vt 0.687500 0.500000
vt 0.656250 1.000000
vt 0.656250 0.500000
vt 0.625000 1.000000
vt 0.625000 0.500000
vt 0.593750 1.000000
vt 0.593750 0.500000
vt 0.562500 1.000000
vt 0.562500 0.500000
vt 0.531250 1.000000
vt 0.531250 0.500000
vt 0.500000 1.000000
vt 0.500000 0.500000
vt 0.468750 1.000000
vt 0.468750 0.500000
vt 0.437500 1.000000
vt 0.437500 0.500000
vt 0.406250 1.000000
vt 0.406250 0.500000
vt 0.375000 1.000000
vt 0.375000 0.500000
vt 0.343750 1.000000
vt 0.343750 0.500000
vt 0.312500 1.000000
vt 0.312500 0.500000
vt 0.281250 1.000000
vt 0.281250 0.500000
vt 0.250000 1.000000
vt 0.250000 0.500000
vt 0.218750 1.000000
vt 0.218750 0.500000
vt 0.187500 1.000000
vt 0.187500 0.500000
vt 0.156250 1.000000
vt 0.156250 0.500000
vt 0.125000 1.000000
vt 0.125000 0.500000
vt 0.093750 1.000000
vt 0.093750 0.500000
vt 0.062500 1.000000
vt 0.062500 0.500000
vt 0.296822 0.485388
vt 0.250000 0.490000
vt 0.203178 0.485388
vt 0.158156 0.471731
vt 0.116663 0.449553
vt 0.080294 0.419706
vt 0.050447 0.383337
vt 0.028269 0.341844
vt 0.014612 0.296822
vt 0.010000 0.250000
vt 0.014612 0.203178
vt 0.028269 0.158156
vt 0.050447 0.116663
vt 0.080294 0.080294
vt 0.116663 0.050447
vt 0.158156 0.028269
vt 0.203178 0.014612
vt 0.250000 0.010000
vt 0.296822 0.014612
vt 0.341844 0.028269
vt 0.383337 0.050447
vt 0.419706 0.080294
vt 0.449553 0.116663
vt 0.471731 0.158156
vt 0.485388 0.203178
vt 0.490000 0.250000
vt 0.485388 0.296822
vt 0.471731 0.341844
vt 0.449553 0.383337
vt 0.419706 0.419706
vt 0.383337 0.449553
vt 0.341844 0.471731
vt 0.031250 1.000000
vt 0.031250 0.500000
vt 0.000000 1.000000
vt 0.000000 0.500000
vt 0.750000 0.490000
vt 0.796822 0.485388
vt 0.841844 0.471731
vt 0.883337 0.449553
vt 0.919706 0.419706
vt 0.949553 0.383337
vt 0.971731 0.341844
vt 0.985388 0.296822
vt 0.990000 0.250000
vt 0.985388 0.203178
vt 0.971731 0.158156
vt 0.949553 0.116663
vt 0.919706 0.080294
vt 0.883337 0.050447
vt 0.841844 0.028269
vt 0.796822 0.014612
vt 0.750000 0.010000
vt 0.703178 0.014612
vt 0.658156 0.028269
vt 0.616663 0.050447
vt 0.580294 0.080294
vt 0.550447 0.116663
vt 0.528269 0.158156
vt 0.514612 0.203178
vt 0.510000 0.250000
vt 0.514612 0.296822
vt 0.528269 0.341844
vt 0.550447 0.383337
vt 0.580294 0.419706
vt 0.616663 0.449553
vt 0.658156 0.471731
vt 0.703178 0.485388
vn -1.0000 -0.0000 0.0000
vn 0.0000 0.0000 -1.0000
vn 1.0000 -0.0000 0.0000
vn 0.0000 0.2566 0.9665
vn 0.0000 -1.0000 0.0000
vn 0.0000 0.2593 0.9658
vn 0.0000 1.0000 0.0000
vn 0.0000 -0.2768 -0.9609
vn 0.0980 0.9342 -0.3431
vn 0.2903 0.8983 -0.3299
vn 0.4714 0.8279 -0.3040
vn 0.6344 0.7256 -0.2665
vn 0.7730 0.5955 -0.2187
vn 0.8819 0.4425 -0.1625
vn 0.9569 0.2725 -0.1001
vn 0.9952 0.0920 -0.0338
vn 0.9952 -0.0920 0.0338
vn 0.9569 -0.2725 0.1001
vn 0.8819 -0.4425 0.1625
vn 0.7730 -0.5955 0.2187
vn 0.6344 -0.7256 0.2665
vn 0.4714 -0.8279 0.3040
vn 0.2903 -0.8983 0.3299
vn 0.0980 -0.9342 0.3431
vn -0.0980 -0.9342 0.3431
vn -0.2903 -0.8983 0.3299
vn -0.4714 -0.8279 0.3040
vn -0.6344 -0.7256 0.2665
vn -0.7730 -0.5955 0.2187
vn -0.8819 -0.4425 0.1625
vn -0.9569 -0.2725 0.1001
vn -0.9952 -0.0920 0.0338
vn -0.9952 0.0920 -0.0338
vn -0.9569 0.2725 -0.1001
vn -0.8819 0.4425 -0.1625
vn -0.7730 0.5955 -0.2187
vn -0.6344 0.7256 -0.2665
vn -0.4714 0.8279 -0.3040
vn 0.0000 0.3447 0.9387
vn -0.2903 0.8983 -0.3299
vn -0.0980 0.9342 -0.3431
vn -0.0000 -0.3447 -0.9387
usemtl None
s off
f 1/1/1 2/2/1 4/3/1 3/4/1
f 9/5/2 12/6/2 8/7/2 7/8/2
f 7/8/3 8/7/3 6/9/3 5/10/3
f 13/11/4 16/12/4 2/13/4 1/14/4
f 9/15/5 7/8/5 5/10/5 14/16/5
f 2/13/6 16/12/6 22/17/6 17/18/6
f 4/3/1 2/2/1 17/19/1 18/20/1
f 12/21/7 11/22/7 16/23/7 15/24/7
f 3/25/5 10/26/5 13/27/5 1/28/5
f 10/26/5 9/15/5 14/16/5 13/27/5
f 5/10/4 6/9/4 15/29/4 14/30/4
f 14/30/4 15/29/4 16/12/4 13/11/4
f 3/4/2 4/3/2 11/31/2 10/32/2
f 10/32/2 11/31/2 12/6/2 9/5/2
f 23/33/7 18/34/7 17/35/7 22/36/7
f 20/37/7 19/38/7 24/39/7 21/40/7
f 12/21/1 15/24/1 24/39/1 19/38/1
f 15/29/6 6/9/6 21/40/6 24/41/6
f 8/7/8 12/6/8 19/42/8 20/37/8
f 11/31/8 4/3/8 18/20/8 23/43/8
f 16/23/3 11/22/3 23/33/3 22/36/3
f 6/9/3 8/7/3 20/37/3 21/40/3
f 25/44/9 26/45/9 28/46/9 27/47/9
f 27/47/10 28/46/10 30/48/10 29/49/10
f 29/49/11 30/48/11 32/50/11 31/51/11
f 31/51/12 32/50/12 34/52/12 33/53/12
f 33/53/13 34/52/13 36/54/13 35/55/13
f 35/55/14 36/54/14 38/56/14 37/57/14
f 37/57/15 38/56/15 40/58/15 39/59/15
f 39/59/16 40/58/16 42/60/16 41/61/16
f 41/61/17 42/60/17 44/62/17 43/63/17
f 43/63/18 44/62/18 46/64/18 45/65/18
f 45/65/19 46/64/19 48/66/19 47/67/19
f 47/67/20 48/66/20 50/68/20 49/69/20
f 49/69/21 50/68/21 52/70/21 51/71/21
f 51/71/22 52/70/22 54/72/22 53/73/22
f 53/73/23 54/72/23 56/74/23 55/75/23
f 55/75/24 56/74/24 58/76/24 57/77/24
f 57/77/25 58/76/25 60/78/25 59/79/25
f 59/79/26 60/78/26 62/80/26 61/81/26
f 61/81/27 62/80/27 64/82/27 63/83/27
f 63/83/28 64/82/28 66/84/28 65/85/28
f 65/85/29 66/84/29 68/86/29 67/87/29
f 67/87/30 68/86/30 70/88/30 69/89/30
f 69/89/31 70/88/31 72/90/31 71/91/31
f 71/91/32 72/90/32 74/92/32 73/93/32
f 73/93/33 74/92/33 76/94/33 75/95/33
f 75/95/34 76/94/34 78/96/34 77/97/34
f 77/97/35 78/96/35 80/98/35 79/99/35
f 79/99/36 80/98/36 82/100/36 81/101/36
f 81/101/37 82/100/37 84/102/37 83/103/37
f 83/103/38 84/102/38 86/104/38 85/105/38
f 28/106/39 26/107/39 88/108/39 86/109/39 84/110/39 82/111/39 80/112/39 78/113/39 76/114/39 74/115/39 72/116/39 70/117/39 68/118/39 66/119/39 64/120/39 62/121/39 60/122/39 58/123/39 56/124/39 54/125/39 52/126/39 50/127/39 48/128/39 46/129/39 44/130/39 42/131/39 40/132/39 38/133/39 36/134/39 34/135/39 32/136/39 30/137/39
f 85/105/40 86/104/40 88/138/40 87/139/40
f 87/139/41 88/138/41 26/140/41 25/141/41
f 25/142/42 27/143/42 29/144/42 31/145/42 33/146/42 35/147/42 37/148/42 39/149/42 41/150/42 43/151/42 45/152/42 47/153/42 49/154/42 51/155/42 53/156/42 55/157/42 57/158/42 59/159/42 61/160/42 63/161/42 65/162/42 67/163/42 69/164/42 71/165/42 73/166/42 75/167/42 77/168/42 79/169/42 81/170/42 83/171/42 85/172/42 87/173/42
