# Blender 4.4.3
# www.blender.org
mtllib Barrel3.mtl
o Cylinder.050
v 0.000000 0.143117 -0.918798
v 0.000000 0.143117 0.608496
v 0.021891 0.137251 -0.918798
v 0.021891 0.137251 0.608496
v 0.037917 0.121226 -0.918798
v 0.037917 0.121226 0.608496
v 0.043782 0.099335 -0.918798
v 0.043782 0.099335 0.608496
v 0.037917 0.077444 -0.918798
v 0.037917 0.077444 0.608496
v 0.021891 0.061418 -0.918798
v 0.021891 0.061418 0.608496
v 0.000000 0.055552 -0.918798
v 0.000000 0.055553 0.608496
v -0.021891 0.061418 -0.918798
v -0.021891 0.061418 0.608496
v -0.037917 0.077444 -0.918798
v -0.037917 0.077444 0.608496
v -0.043782 0.099335 -0.918798
v -0.043782 0.099335 0.608496
v -0.037917 0.121226 -0.918798
v -0.037917 0.121226 0.608496
v -0.021891 0.137251 -0.918798
v -0.021891 0.137251 0.608496
v -0.015860 0.126805 0.608496
v 0.000000 0.131055 0.608496
v 0.015860 0.126805 0.608496
v -0.031720 0.099335 0.608496
v -0.015860 0.071865 0.608496
v -0.027470 0.083475 0.608496
v 0.015860 0.071865 0.608496
v 0.031720 0.099335 0.608496
v 0.027470 0.083475 0.608496
v -0.027470 0.115195 0.608496
v 0.027470 0.115195 0.608496
v 0.000000 0.067615 0.608496
v 0.000000 0.131055 -0.918798
v 0.027470 0.115195 -0.918798
v 0.015860 0.126805 -0.918798
v 0.000000 0.067615 -0.918798
v 0.015860 0.071865 -0.918798
v 0.027470 0.083475 -0.918798
v -0.027470 0.083475 -0.918798
v -0.031720 0.099335 -0.918798
v -0.027470 0.115195 -0.918798
v -0.015860 0.071865 -0.918798
v -0.015860 0.126805 -0.918798
v 0.031720 0.099335 -0.918798
vn 0.2588 0.9659 -0.0000
vn 0.7071 0.7071 -0.0000
vn 0.9659 0.2588 -0.0000
vn 0.9659 -0.2588 -0.0000
vn 0.7071 -0.7071 -0.0000
vn 0.2588 -0.9659 -0.0000
vn -0.2588 -0.9659 -0.0000
vn -0.7071 -0.7071 -0.0000
vn -0.9659 -0.2588 -0.0000
vn -0.9659 0.2588 -0.0000
vn -0.0000 -0.0000 1.0000
vn -0.7071 0.7071 -0.0000
vn -0.2588 0.9659 -0.0000
vn -0.0000 -0.0000 -1.0000
vt 1.000000 0.500000
vt 1.000000 1.000000
vt 0.916667 1.000000
vt 0.916667 0.500000
vt 0.833333 1.000000
vt 0.833333 0.500000
vt 0.750000 1.000000
vt 0.750000 0.500000
vt 0.666667 1.000000
vt 0.666667 0.500000
vt 0.583333 1.000000
vt 0.583333 0.500000
vt 0.500000 1.000000
vt 0.500000 0.500000
vt 0.416667 1.000000
vt 0.416667 0.500000
vt 0.333333 1.000000
vt 0.333333 0.500000
vt 0.250000 1.000000
vt 0.250000 0.500000
vt 0.166667 1.000000
vt 0.166667 0.500000
vt 0.250000 0.423879
vt 0.250000 0.490000
vt 0.130000 0.457846
vt 0.042154 0.370000
vt 0.010000 0.250000
vt 0.042154 0.130000
vt 0.130000 0.042154
vt 0.250000 0.010000
vt 0.370000 0.042154
vt 0.457846 0.130000
vt 0.490000 0.250000
vt 0.457846 0.370000
vt 0.400582 0.336940
vt 0.423877 0.250001
vt 0.400582 0.163063
vt 0.336939 0.099419
vt 0.250000 0.076124
vt 0.163061 0.099419
vt 0.099418 0.163063
vt 0.076123 0.250001
vt 0.099418 0.336940
vt 0.163061 0.400583
vt 0.370000 0.457846
vt 0.336939 0.400583
vt 0.083333 1.000000
vt 0.083333 0.500000
vt 0.000000 1.000000
vt 0.000000 0.500000
vt 0.836938 0.400583
vt 0.870000 0.457846
vt 0.957846 0.370000
vt 0.990000 0.250000
vt 0.957846 0.130000
vt 0.870000 0.042154
vt 0.750000 0.010000
vt 0.630000 0.042154
vt 0.542154 0.130000
vt 0.510000 0.250000
vt 0.542154 0.370000
vt 0.630000 0.457846
vt 0.663061 0.400583
vt 0.599418 0.336939
vt 0.576123 0.250001
vt 0.599418 0.163062
vt 0.663061 0.099419
vt 0.750000 0.076124
vt 0.836939 0.099419
vt 0.900582 0.163062
vt 0.923877 0.250001
vt 0.900582 0.336940
vt 0.750000 0.490000
vt 0.750000 0.423878
vt 1.000000 0.576391
vt 0.916667 0.576391
vt 0.916667 0.919878
vt 1.000000 0.919878
vt 0.833333 0.576391
vt 0.750000 0.576391
vt 0.750000 0.919878
vt 0.833333 0.919878
vt 0.666667 0.576391
vt 0.666667 0.919878
vt 0.583333 0.919878
vt 0.583333 0.576391
vt 0.500000 0.576391
vt 0.500000 0.919878
vt 0.416667 0.576391
vt 0.416667 0.919878
vt 0.416667 0.919878
vt 0.333333 0.919878
vt 0.333333 0.576391
vt 0.250000 0.576391
vt 0.250000 0.919878
vt 0.166667 0.576391
vt 0.166667 0.919878
vt 0.083333 0.576391
vt 0.000000 0.576391
vt 0.000000 0.919878
vt 0.083333 0.919878
s 1
f 1/1/1 2/2/1 4/3/1 3/4/1
f 3/4/2 4/3/2 6/5/2 5/6/2
f 5/6/3 6/5/3 8/7/3 7/8/3
f 7/8/4 8/7/4 10/9/4 9/10/4
f 9/10/5 10/9/5 12/11/5 11/12/5
f 11/12/6 12/11/6 14/13/6 13/14/6
f 13/14/7 14/13/7 16/15/7 15/16/7
f 15/16/8 16/15/8 18/17/8 17/18/8
f 17/18/9 18/17/9 20/19/9 19/20/9
f 19/20/10 20/19/10 22/21/10 21/22/10
f 26/23/11 2/24/11 24/25/11 22/26/11 20/27/11 18/28/11 16/29/11 14/30/11 12/31/11 10/32/11 8/33/11 6/34/11 35/35/11 32/36/11 33/37/11 31/38/11 36/39/11 29/40/11 30/41/11 28/42/11 34/43/11 25/44/11
f 35/35/11 6/34/11 4/45/11 2/24/11 26/23/11 27/46/11
f 21/22/12 22/21/12 24/47/12 23/48/12
f 23/48/13 24/47/13 2/49/13 1/50/13
f 39/51/14 3/52/14 5/53/14 7/54/14 9/55/14 11/56/14 13/57/14 15/58/14 17/59/14 19/60/14 21/61/14 23/62/14 47/63/14 45/64/14 44/65/14 43/66/14 46/67/14 40/68/14 41/69/14 42/70/14 48/71/14 38/72/14
f 23/62/14 1/73/14 3/52/14 39/51/14 37/74/14 47/63/14
f 36/75/13 31/76/13 41/77/13 40/78/13
f 31/76/12 33/76/12 42/77/12 41/77/12
f 33/79/10 32/80/10 48/81/10 42/82/10
f 32/80/9 35/83/9 38/84/9 48/81/9
f 38/84/8 35/83/8 27/83/8 39/84/8
f 39/85/7 27/86/7 26/87/7 37/88/7
f 37/88/6 26/87/6 25/89/6 47/90/6
f 47/90/5 25/89/5 34/89/5 45/91/5
f 45/92/4 34/93/4 28/94/4 44/95/4
f 44/95/3 28/94/3 30/96/3 43/97/3
f 30/96/2 29/96/2 46/97/2 43/97/2
f 29/98/1 36/99/1 40/100/1 46/101/1
