# Blender 4.4.3
# www.blender.org
mtllib Bipod3.mtl
o Cylinder.022
v 0.173124 -0.400447 -0.768857
v 0.050343 -0.137142 -0.768857
v 0.162613 -0.405348 -0.765750
v 0.039832 -0.142044 -0.765750
v 0.154919 -0.408936 -0.757260
v 0.032138 -0.145632 -0.757260
v 0.152102 -0.410249 -0.745663
v 0.029322 -0.146945 -0.745663
v 0.154919 -0.408936 -0.734066
v 0.032138 -0.145632 -0.734066
v 0.162613 -0.405348 -0.725576
v 0.039832 -0.142044 -0.725576
v 0.173124 -0.400447 -0.722468
v 0.050343 -0.137142 -0.722468
v 0.183635 -0.395545 -0.725576
v 0.060854 -0.132241 -0.725576
v 0.191329 -0.391957 -0.734066
v 0.068548 -0.128653 -0.734066
v 0.194145 -0.390644 -0.745663
v 0.071365 -0.127340 -0.745663
v 0.191329 -0.391957 -0.757260
v 0.068548 -0.128653 -0.757260
v 0.183635 -0.395545 -0.765750
v 0.060854 -0.132241 -0.765750
v 0.203850 -0.466339 -0.786170
v 0.169881 -0.393491 -0.786170
v 0.185494 -0.474898 -0.780743
v 0.151525 -0.402051 -0.780743
v 0.172056 -0.481165 -0.765916
v 0.138087 -0.408317 -0.765916
v 0.167138 -0.483458 -0.745663
v 0.133169 -0.410610 -0.745663
v 0.172056 -0.481165 -0.725409
v 0.138087 -0.408317 -0.725409
v 0.185494 -0.474898 -0.710583
v 0.151525 -0.402051 -0.710583
v 0.203850 -0.466339 -0.705156
v 0.169881 -0.393491 -0.705156
v 0.222206 -0.457779 -0.710583
v 0.188237 -0.384932 -0.710583
v 0.235643 -0.451513 -0.725409
v 0.201674 -0.378666 -0.725409
v 0.240562 -0.449220 -0.745663
v 0.206593 -0.376372 -0.745663
v 0.235643 -0.451513 -0.765916
v 0.201674 -0.378666 -0.765916
v 0.222206 -0.457779 -0.780743
v 0.188237 -0.384932 -0.780743
v 0.209066 -0.477526 -0.794292
v 0.187030 -0.487801 -0.787777
v 0.170898 -0.495324 -0.769977
v 0.164994 -0.498077 -0.745663
v 0.170898 -0.495324 -0.721348
v 0.187030 -0.487801 -0.703549
v 0.209066 -0.477526 -0.697034
v 0.231103 -0.467250 -0.703549
v 0.247235 -0.459727 -0.721348
v 0.253139 -0.456974 -0.745663
v 0.247235 -0.459727 -0.769977
v 0.231103 -0.467250 -0.787777
v 0.215795 -0.491955 -0.794292
v 0.193759 -0.502231 -0.787777
v 0.177627 -0.509754 -0.769977
v 0.171722 -0.512507 -0.745663
v 0.177627 -0.509754 -0.721348
v 0.193759 -0.502231 -0.703549
v 0.215795 -0.491955 -0.697034
v 0.237832 -0.481680 -0.703549
v 0.253963 -0.474157 -0.721348
v 0.259868 -0.471404 -0.745663
v 0.253963 -0.474157 -0.769977
v 0.237832 -0.481680 -0.787777
v 0.220088 -0.501161 -0.784603
v 0.202442 -0.509389 -0.779386
v 0.189524 -0.515413 -0.765133
v 0.184796 -0.517618 -0.745663
v 0.189524 -0.515413 -0.726193
v 0.202442 -0.509389 -0.711940
v 0.220088 -0.501161 -0.706723
v 0.237734 -0.492932 -0.711940
v 0.250651 -0.486909 -0.726193
v 0.255379 -0.484704 -0.745663
v 0.250651 -0.486909 -0.765133
v 0.237734 -0.492932 -0.779386
v 0.224696 -0.511043 -0.784603
v 0.207050 -0.519272 -0.779386
v 0.194132 -0.525295 -0.765133
v 0.189404 -0.527500 -0.745663
v 0.194132 -0.525295 -0.726193
v 0.207050 -0.519272 -0.711940
v 0.224696 -0.511043 -0.706723
v 0.242342 -0.502815 -0.711940
v 0.255260 -0.496791 -0.726193
v 0.259988 -0.494586 -0.745663
v 0.255260 -0.496791 -0.765133
v 0.242342 -0.502815 -0.779386
v 0.229277 -0.520867 -0.763955
v 0.220988 -0.524733 -0.761504
v 0.214920 -0.527562 -0.754809
v 0.212699 -0.528598 -0.745663
v 0.214920 -0.527562 -0.736517
v 0.220988 -0.524733 -0.729821
v 0.229277 -0.520867 -0.727371
v 0.237566 -0.517002 -0.729821
v 0.243634 -0.514172 -0.736517
v 0.245855 -0.513137 -0.745663
v 0.243634 -0.514172 -0.754809
v 0.237566 -0.517002 -0.761504
v 0.232475 -0.527725 -0.763955
v 0.224185 -0.531590 -0.761504
v 0.218117 -0.534420 -0.754809
v 0.215896 -0.535455 -0.745663
v 0.218117 -0.534420 -0.736517
v 0.224185 -0.531590 -0.729821
v 0.232475 -0.527725 -0.727371
v 0.240764 -0.523859 -0.729821
v 0.246832 -0.521030 -0.736517
v 0.249053 -0.519994 -0.745663
v 0.246832 -0.521030 -0.754809
v 0.240764 -0.523859 -0.761504
v 0.163728 -0.380297 -0.775376
v 0.149420 -0.349614 -0.775376
v 0.150263 -0.386576 -0.771395
v 0.135956 -0.355893 -0.771395
v 0.140406 -0.391172 -0.760520
v 0.126099 -0.360489 -0.760520
v 0.136798 -0.392854 -0.745663
v 0.122491 -0.362172 -0.745663
v 0.140406 -0.391172 -0.730806
v 0.126099 -0.360489 -0.730806
v 0.150263 -0.386576 -0.719930
v 0.135956 -0.355893 -0.719930
v 0.163728 -0.380297 -0.715950
v 0.149420 -0.349614 -0.715949
v 0.177193 -0.374018 -0.719930
v 0.162885 -0.343336 -0.719930
v 0.187049 -0.369422 -0.730806
v 0.172742 -0.338739 -0.730806
v 0.190657 -0.367739 -0.745663
v 0.176350 -0.337057 -0.745663
v 0.187049 -0.369422 -0.760520
v 0.172742 -0.338739 -0.760520
v 0.177193 -0.374018 -0.771395
v 0.162885 -0.343336 -0.771395
v 0.076571 -0.193388 -0.775376
v 0.027424 -0.087993 -0.775376
v 0.063106 -0.199667 -0.771395
v 0.013960 -0.094272 -0.771395
v 0.053249 -0.204263 -0.760520
v 0.004103 -0.098868 -0.760520
v 0.049641 -0.205945 -0.745663
v 0.000495 -0.100550 -0.745663
v 0.053249 -0.204263 -0.730806
v 0.004103 -0.098868 -0.730806
v 0.063106 -0.199667 -0.719930
v 0.013960 -0.094272 -0.719930
v 0.076571 -0.193388 -0.715950
v 0.027424 -0.087993 -0.715949
v 0.090035 -0.187109 -0.719930
v 0.040889 -0.081714 -0.719930
v 0.099892 -0.182513 -0.730806
v 0.050746 -0.077118 -0.730806
v 0.103500 -0.180831 -0.745663
v 0.054354 -0.075435 -0.745663
v 0.099892 -0.182513 -0.760520
v 0.050746 -0.077118 -0.760520
v 0.090035 -0.187109 -0.771395
v 0.040889 -0.081714 -0.771395
vn -0.2346 -0.1094 -0.9659
vn -0.5509 -0.2569 -0.7941
vn -0.2331 -0.2306 -0.9447
vn -0.8107 -0.3780 -0.4470
vn -0.5926 -0.5709 -0.5682
vn -0.9063 -0.4226 -0.0000
vn -0.7182 -0.6958 -0.0000
vn -0.8107 -0.3780 0.4470
vn -0.5926 -0.5709 0.5682
vn -0.5509 -0.2569 0.7941
vn -0.2331 -0.2306 0.9447
vn -0.2346 -0.1094 0.9659
vn 0.2346 0.1094 0.9659
vn 0.2331 0.2306 0.9447
vn 0.5509 0.2569 0.7941
vn 0.5926 0.5709 0.5682
vn 0.8107 0.3780 0.4470
vn 0.7182 0.6958 -0.0000
vn 0.9063 0.4226 -0.0000
vn 0.5926 0.5709 -0.5682
vn 0.8107 0.3780 -0.4470
vn -0.4226 0.9063 -0.0000
vn 0.2331 0.2306 -0.9447
vn 0.5509 0.2569 -0.7941
vn 0.2346 0.1094 -0.9659
vn 0.4226 -0.9063 -0.0000
vn -0.2815 -0.1313 -0.9505
vn -0.7320 -0.3414 -0.5896
vn -0.7320 -0.3414 0.5896
vn -0.2815 -0.1313 0.9505
vn 0.0933 0.2074 0.9738
vn 0.4021 0.4172 0.8150
vn 0.6794 0.5674 0.4652
vn 0.7840 0.6207 -0.0000
vn 0.6794 0.5674 -0.4652
vn 0.4021 0.4172 -0.8150
vn 0.0933 0.2074 -0.9738
vn 0.2733 0.2066 0.9395
vn -0.0340 0.3954 0.9179
vn 0.6815 0.4664 -0.5639
vn 0.2733 0.2066 -0.9395
vn -0.7102 0.2699 0.6502
vn -0.5380 0.3532 0.7654
vn -0.9405 0.1625 0.2985
vn -0.8417 0.2114 0.4969
vn -0.9894 0.1451 -0.0000
vn -0.0340 0.3954 -0.9179
vn -0.7102 0.2699 -0.6502
vn -0.5380 0.3532 -0.7654
vn -0.9405 0.1625 -0.2985
vn -0.8417 0.2114 -0.4969
vn 0.8309 0.5564 -0.0000
vn 0.6815 0.4664 0.5639
vn -0.8132 -0.5820 -0.0000
vn -0.6654 -0.4863 0.5664
vn -0.6529 -0.6078 0.4521
vn -0.7496 -0.6618 -0.0000
vn -0.2633 -0.2120 -0.9411
vn 0.0666 -0.4644 -0.8831
vn -0.2633 -0.2120 0.9411
vn -0.6654 -0.4863 -0.5664
vn 0.0666 -0.4644 0.8831
vn -0.6385 -0.5186 0.5687
vn -0.7811 -0.6245 -0.0000
vn 0.8356 -0.3710 -0.4051
vn 0.5745 -0.4925 -0.6538
vn 0.6821 -0.4410 -0.5834
vn 0.8894 -0.3450 -0.3000
vn -0.3978 -0.4519 -0.7985
vn -0.1177 -0.2241 -0.9674
vn 0.5745 -0.4925 0.6538
vn 0.8356 -0.3710 0.4051
vn 0.8894 -0.3450 0.3000
vn 0.6821 -0.4410 0.5834
vn -0.3978 -0.4519 0.7985
vn -0.6529 -0.6078 -0.4521
vn 0.9475 -0.3198 -0.0000
vn -0.1177 -0.2241 0.9674
vn 0.1084 -0.5766 0.8098
vn 0.5682 -0.7118 0.4129
vn 0.6065 -0.6938 0.3884
vn -0.1407 -0.2434 0.9597
vn 0.7320 0.3414 -0.5896
vn 0.2815 0.1313 -0.9505
vn -0.2497 -0.2198 -0.9430
vn 0.1084 -0.5766 -0.8098
vn 0.2815 0.1313 0.9505
vn 0.7320 0.3414 0.5896
vn -0.2497 -0.2198 0.9430
vn -0.6385 -0.5186 -0.5687
vn -0.6826 -0.7308 -0.0000
vn -0.6011 -0.6740 0.4295
vn 0.7310 -0.6359 -0.2474
vn 0.5682 -0.7118 -0.4129
vn 0.6065 -0.6938 -0.3884
vn 0.7485 -0.6277 -0.2139
vn -0.3845 -0.5040 -0.7734
vn -0.1407 -0.2434 -0.9597
vn 0.7310 -0.6359 0.2474
vn 0.7485 -0.6277 0.2139
vn -0.3845 -0.5040 0.7734
vn -0.6011 -0.6740 -0.4295
vn 0.7955 -0.6060 -0.0000
vt 1.000000 0.500000
vt 1.000000 1.000000
vt 0.916667 1.000000
vt 0.916667 0.500000
vt 0.833333 1.000000
vt 0.833333 0.500000
vt 0.750000 1.000000
vt 0.750000 0.500000
vt 0.666667 1.000000
vt 0.666667 0.500000
vt 0.583333 1.000000
vt 0.583333 0.500000
vt 0.500000 1.000000
vt 0.500000 0.500000
vt 0.416667 1.000000
vt 0.416667 0.500000
vt 0.333333 1.000000
vt 0.333333 0.500000
vt 0.250000 1.000000
vt 0.250000 0.500000
vt 0.166667 1.000000
vt 0.166667 0.500000
vt 0.370000 0.457846
vt 0.250000 0.490000
vt 0.130000 0.457846
vt 0.042154 0.370000
vt 0.010000 0.250000
vt 0.042154 0.130000
vt 0.130000 0.042154
vt 0.250000 0.010000
vt 0.370000 0.042154
vt 0.457846 0.130000
vt 0.490000 0.250000
vt 0.457846 0.370000
vt 0.083333 1.000000
vt 0.083333 0.500000
vt 0.000000 1.000000
vt 0.000000 0.500000
vt 0.750000 0.490000
vt 0.870000 0.457846
vt 0.957846 0.370000
vt 0.990000 0.250000
vt 0.957846 0.130000
vt 0.870000 0.042154
vt 0.750000 0.010000
vt 0.630000 0.042154
vt 0.542154 0.130000
vt 0.510000 0.250000
vt 0.542154 0.370000
vt 0.630000 0.457846
s 1
f 1/1/1 3/4/3 4/3/2 2/2/1
f 3/4/3 5/6/5 6/5/4 4/3/2
f 5/6/5 7/8/7 8/7/6 6/5/4
f 7/8/7 9/10/9 10/9/8 8/7/6
f 9/10/9 11/12/11 12/11/10 10/9/8
f 11/12/11 13/14/12 14/13/12 12/11/10
f 13/14/13 15/16/15 16/15/14 14/13/13
f 15/16/15 17/18/17 18/17/16 16/15/14
f 17/18/17 19/20/19 20/19/18 18/17/16
f 19/20/19 21/22/21 22/21/20 20/19/18
f 4/23/22 6/34/22 8/33/22 10/32/22 12/31/22 14/30/22 16/29/14 18/28/16 20/27/18 22/26/20 24/25/23 2/24/22
f 21/22/21 23/36/24 24/35/23 22/21/20
f 23/36/24 1/38/25 2/37/25 24/35/23
f 1/39/26 23/50/26 21/49/26 19/48/26 17/47/26 15/46/26 13/45/26 11/44/11 9/43/9 7/42/7 5/41/5 3/40/3
f 25/1/1 27/4/27 28/3/2 26/2/1
f 27/4/27 29/6/28 30/5/4 28/3/2
f 29/6/28 31/8/6 32/7/6 30/5/4
f 31/8/6 33/10/29 34/9/8 32/7/6
f 33/10/29 35/12/30 36/11/10 34/9/8
f 35/12/30 37/14/12 38/13/12 36/11/10
f 37/14/31 39/16/32 40/15/14 38/13/13
f 39/16/32 41/18/33 42/17/16 40/15/14
f 41/18/33 43/20/34 44/19/18 42/17/16
f 43/20/34 45/22/35 46/21/20 44/19/18
f 28/23/22 30/34/22 32/33/22 34/32/22 36/31/22 38/30/22 40/29/14 42/28/16 44/27/18 46/26/20 48/25/23 26/24/22
f 45/22/35 47/36/36 48/35/23 46/21/20
f 47/36/36 25/38/37 26/37/25 48/35/23
f 37/14/31 55/14/39 56/16/38 39/16/32
f 59/22/40 71/22/21 72/36/24 60/36/41
f 35/12/42 54/12/43 55/14/39 37/14/31
f 33/10/44 53/10/45 54/12/43 35/12/42
f 31/8/46 52/8/46 53/10/45 33/10/44
f 47/36/36 60/36/41 49/38/47 25/38/37
f 25/1/37 49/1/47 50/4/49 27/4/48
f 29/6/50 51/6/51 52/8/46 31/8/46
f 45/22/35 59/22/40 60/36/41 47/36/36
f 27/4/48 50/4/49 51/6/51 29/6/50
f 43/20/34 58/20/52 59/22/40 45/22/35
f 41/18/33 57/18/53 58/20/52 43/20/34
f 39/16/32 56/16/38 57/18/53 41/18/33
f 64/8/54 76/8/57 77/10/56 65/10/55
f 49/1/1 61/1/59 62/4/58 50/4/2
f 56/16/38 68/16/15 69/18/17 57/18/53
f 53/10/8 65/10/55 66/12/60 54/12/10
f 60/36/41 72/36/24 61/38/25 49/38/47
f 50/4/2 62/4/58 63/6/61 51/6/4
f 57/18/53 69/18/17 70/20/19 58/20/52
f 54/12/10 66/12/60 67/14/62 55/14/12
f 51/6/4 63/6/61 64/8/54 52/8/6
f 58/20/52 70/20/19 71/22/21 59/22/40
f 55/14/39 67/14/13 68/16/15 56/16/38
f 52/8/6 64/8/54 65/10/55 53/10/8
f 76/8/57 88/8/64 89/10/63 77/10/56
f 71/22/65 83/22/68 84/36/67 72/36/66
f 61/1/59 73/1/70 74/4/69 62/4/58
f 68/16/71 80/16/74 81/18/73 69/18/72
f 65/10/55 77/10/56 78/12/75 66/12/60
f 72/36/66 84/36/67 73/38/70 61/38/59
f 62/4/58 74/4/69 75/6/76 63/6/61
f 69/18/72 81/18/73 82/20/77 70/20/77
f 66/12/60 78/12/75 79/14/78 67/14/62
f 63/6/61 75/6/76 76/8/57 64/8/54
f 70/20/77 82/20/77 83/22/68 71/22/65
f 67/14/62 79/14/78 80/16/74 68/16/71
f 91/14/79 103/14/82 104/16/81 92/16/80
f 83/22/83 95/22/21 96/36/24 84/36/84
f 73/1/70 85/1/86 86/4/85 74/4/69
f 80/16/87 92/16/15 93/18/17 81/18/88
f 77/10/56 89/10/63 90/12/89 78/12/75
f 84/36/84 96/36/24 85/38/25 73/38/25
f 74/4/69 86/4/85 87/6/90 75/6/76
f 81/18/88 93/18/17 94/20/19 82/20/19
f 78/12/75 90/12/89 91/14/79 79/14/78
f 75/6/76 87/6/90 88/8/64 76/8/57
f 82/20/19 94/20/19 95/22/21 83/22/83
f 79/14/13 91/14/13 92/16/15 80/16/87
f 100/8/91 112/8/7 113/10/9 101/10/92
f 88/8/64 100/8/91 101/10/92 89/10/63
f 95/22/93 107/22/96 108/36/95 96/36/94
f 85/1/86 97/1/98 98/4/97 86/4/85
f 92/16/80 104/16/81 105/18/100 93/18/99
f 89/10/63 101/10/92 102/12/101 90/12/89
f 96/36/94 108/36/95 97/38/98 85/38/86
f 86/4/85 98/4/97 99/6/102 87/6/90
f 93/18/99 105/18/100 106/20/103 94/20/103
f 90/12/89 102/12/101 103/14/82 91/14/79
f 87/6/90 99/6/102 100/8/91 88/8/64
f 94/20/103 106/20/103 107/22/96 95/22/93
f 109/39/26 120/50/26 119/49/26 118/48/26 117/47/26 116/46/26 115/45/26 114/44/11 113/43/9 112/42/7 111/41/5 110/40/3
f 107/22/83 119/22/21 120/36/24 108/36/84
f 97/1/98 109/1/1 110/4/3 98/4/97
f 104/16/87 116/16/15 117/18/17 105/18/88
f 101/10/92 113/10/9 114/12/11 102/12/101
f 108/36/84 120/36/24 109/38/25 97/38/25
f 98/4/97 110/4/3 111/6/5 99/6/102
f 105/18/88 117/18/17 118/20/19 106/20/19
f 102/12/101 114/12/11 115/14/12 103/14/82
f 99/6/102 111/6/5 112/8/7 100/8/91
f 106/20/19 118/20/19 119/22/21 107/22/83
f 103/14/13 115/14/13 116/16/15 104/16/87
f 121/1/1 123/4/3 124/3/2 122/2/1
f 123/4/3 125/6/5 126/5/4 124/3/2
f 125/6/5 127/8/7 128/7/6 126/5/4
f 127/8/7 129/10/9 130/9/8 128/7/6
f 129/10/9 131/12/11 132/11/10 130/9/8
f 131/12/11 133/14/12 134/13/12 132/11/10
f 133/14/13 135/16/15 136/15/14 134/13/13
f 135/16/15 137/18/17 138/17/16 136/15/14
f 137/18/17 139/20/19 140/19/18 138/17/16
f 139/20/19 141/22/21 142/21/20 140/19/18
f 124/23/22 126/34/22 128/33/22 130/32/22 132/31/22 134/30/22 136/29/14 138/28/16 140/27/18 142/26/20 144/25/23 122/24/22
f 141/22/21 143/36/24 144/35/23 142/21/20
f 143/36/24 121/38/25 122/37/25 144/35/23
f 121/39/26 143/50/26 141/49/26 139/48/26 137/47/26 135/46/26 133/45/26 131/44/11 129/43/9 127/42/7 125/41/5 123/40/3
f 145/1/1 147/4/3 148/3/2 146/2/1
f 147/4/3 149/6/5 150/5/4 148/3/2
f 149/6/5 151/8/7 152/7/6 150/5/4
f 151/8/7 153/10/9 154/9/8 152/7/6
f 153/10/9 155/12/11 156/11/10 154/9/8
f 155/12/11 157/14/12 158/13/12 156/11/10
f 157/14/13 159/16/15 160/15/14 158/13/13
f 159/16/15 161/18/17 162/17/16 160/15/14
f 161/18/17 163/20/19 164/19/18 162/17/16
f 163/20/19 165/22/21 166/21/20 164/19/18
f 148/23/22 150/34/22 152/33/22 154/32/22 156/31/22 158/30/22 160/29/14 162/28/16 164/27/18 166/26/20 168/25/23 146/24/22
f 165/22/21 167/36/24 168/35/23 166/21/20
f 167/36/24 145/38/25 146/37/25 168/35/23
f 145/39/26 167/50/26 165/49/26 163/48/26 161/47/26 159/46/26 157/45/26 155/44/11 153/43/9 151/42/7 149/41/5 147/40/3
