# Blender 4.4.3
# www.blender.org
mtllib Bipod1.mtl
o Cube.017
v 0.039562 -0.019587 -0.688171
v 0.091570 -0.104770 -0.688171
v -0.039562 -0.019587 -0.688171
v -0.091570 -0.104770 -0.688171
v 0.042041 -0.104770 -0.656229
v -0.040565 -0.104770 -0.656229
v 0.031958 -0.019587 -0.688171
v -0.031926 -0.019587 -0.688171
v -0.080646 -0.104770 -0.688171
v 0.082236 -0.104770 -0.688171
v 0.039562 -0.019587 -0.782905
v -0.039562 -0.019587 -0.782905
v -0.031926 -0.019587 -0.782905
v 0.031958 -0.019587 -0.782905
v 0.072524 -0.073576 -0.782905
v 0.091570 -0.104770 -0.757516
v 0.085992 -0.095634 -0.779028
v -0.091570 -0.104770 -0.757516
v -0.072524 -0.073576 -0.782905
v -0.085992 -0.095634 -0.779028
v 0.082236 -0.104770 -0.757516
v 0.063824 -0.073576 -0.782905
v 0.076843 -0.095634 -0.779028
v -0.062804 -0.073576 -0.782905
v -0.080646 -0.104770 -0.757516
v -0.075420 -0.095634 -0.779028
v 0.039562 -0.019587 -0.681933
v -0.033283 -0.079667 -0.656229
v -0.039562 -0.019587 -0.681933
v -0.031926 -0.019587 -0.681933
v 0.031958 -0.019587 -0.681933
v 0.034527 -0.079667 -0.656229
v 0.076243 -0.079667 -0.674216
v 0.065141 -0.061483 -0.681933
v 0.072992 -0.074341 -0.679673
v -0.065141 -0.061483 -0.681933
v -0.076243 -0.079667 -0.674216
v -0.072992 -0.074341 -0.679673
v -0.037810 -0.020225 -0.658199
v -0.037810 -0.020225 -0.824148
v 0.037810 -0.020225 -0.658199
v 0.037810 -0.020225 -0.824148
v -0.029481 0.004410 -0.658199
v -0.037810 -0.001984 -0.658199
v -0.037810 -0.001984 -0.824148
v -0.029481 0.004410 -0.824148
v 0.037810 -0.001984 -0.658199
v 0.029481 0.004410 -0.658199
v 0.029481 0.004410 -0.824148
v 0.037810 -0.001984 -0.824148
v 0.000000 -0.101617 -0.690476
v 0.000000 -0.101617 -0.800885
v 0.022442 -0.095603 -0.690476
v 0.022442 -0.095603 -0.800885
v 0.038870 -0.079175 -0.690476
v 0.038870 -0.079175 -0.800885
v 0.044884 -0.056733 -0.690476
v 0.044884 -0.056733 -0.800885
v 0.038870 -0.034291 -0.690476
v 0.038870 -0.034291 -0.800885
v 0.022442 -0.017863 -0.690476
v 0.022442 -0.017863 -0.800885
v -0.022442 -0.017863 -0.690476
v -0.022442 -0.017863 -0.800885
v -0.038870 -0.034291 -0.690476
v -0.038870 -0.034291 -0.800885
v -0.044884 -0.056733 -0.690476
v -0.044884 -0.056733 -0.800885
v -0.038870 -0.079175 -0.690476
v -0.038870 -0.079175 -0.800885
v -0.022442 -0.095603 -0.690476
v -0.022442 -0.095603 -0.800885
v -0.031489 -0.056733 -0.800885
v -0.027270 -0.072477 -0.800885
v -0.015744 -0.084003 -0.800885
v 0.000000 -0.025244 -0.800885
v -0.015744 -0.029463 -0.800885
v 0.015744 -0.029463 -0.800885
v 0.027270 -0.040989 -0.800885
v -0.027270 -0.040989 -0.800885
v 0.000000 -0.088222 -0.800885
v 0.015744 -0.084003 -0.800885
v 0.031489 -0.056733 -0.800885
v 0.027270 -0.072477 -0.800885
v 0.031489 -0.056733 -0.690476
v 0.027270 -0.040989 -0.690476
v 0.027270 -0.072477 -0.690476
v -0.031489 -0.056733 -0.690476
v -0.027270 -0.040989 -0.690476
v -0.015744 -0.029463 -0.690476
v 0.000000 -0.025244 -0.690476
v -0.027270 -0.072477 -0.690476
v 0.000000 -0.088222 -0.690476
v -0.015744 -0.084003 -0.690476
v 0.015744 -0.029463 -0.690476
v 0.015744 -0.084003 -0.690476
v 0.000000 -0.084255 -0.657521
v 0.000000 -0.084255 -0.771116
v 0.013761 -0.080568 -0.657521
v 0.013761 -0.080568 -0.771116
v 0.023835 -0.070494 -0.657521
v 0.023835 -0.070494 -0.771116
v 0.027522 -0.056733 -0.657521
v 0.027522 -0.056733 -0.771116
v 0.023835 -0.042972 -0.657521
v 0.023835 -0.042972 -0.771116
v 0.013761 -0.032898 -0.657521
v 0.013761 -0.032898 -0.771116
v 0.000000 -0.029211 -0.657521
v 0.000000 -0.029211 -0.771116
v -0.013761 -0.032898 -0.657521
v -0.013761 -0.032898 -0.771116
v -0.023835 -0.042972 -0.657521
v -0.023835 -0.042972 -0.771116
v -0.027522 -0.056733 -0.657521
v -0.027522 -0.056733 -0.771116
v -0.023835 -0.070494 -0.657521
v -0.023835 -0.070494 -0.771116
v -0.013761 -0.080568 -0.657521
v -0.013761 -0.080568 -0.771116
v 0.000000 -0.095069 -0.641267
v 0.000000 -0.095069 -0.658826
v 0.019168 -0.089933 -0.641267
v 0.019168 -0.089933 -0.658826
v 0.033200 -0.075901 -0.641267
v 0.033200 -0.075901 -0.658826
v 0.038336 -0.056733 -0.641267
v 0.038336 -0.056733 -0.658826
v 0.033200 -0.037565 -0.641267
v 0.033200 -0.037565 -0.658826
v 0.019168 -0.023533 -0.641267
v 0.019168 -0.023533 -0.658826
v 0.000000 -0.018397 -0.641267
v 0.000000 -0.018397 -0.658826
v -0.019168 -0.023533 -0.641267
v -0.019168 -0.023533 -0.658826
v -0.033200 -0.037565 -0.641267
v -0.033200 -0.037565 -0.658826
v -0.038336 -0.056733 -0.641267
v -0.038336 -0.056733 -0.658826
v -0.033200 -0.075901 -0.641267
v -0.033200 -0.075901 -0.658826
v -0.019168 -0.089933 -0.641267
v -0.019168 -0.089933 -0.658826
v -0.000000 -0.072113 -0.630807
v 0.007690 -0.070052 -0.630807
v 0.013319 -0.064423 -0.630807
v 0.015380 -0.056733 -0.630807
v 0.013319 -0.049043 -0.630807
v 0.007690 -0.043414 -0.630807
v -0.000000 -0.041354 -0.630807
v -0.007690 -0.043414 -0.630807
v -0.013319 -0.049043 -0.630807
v -0.015380 -0.056733 -0.630807
v -0.013319 -0.064423 -0.630807
v -0.007690 -0.070052 -0.630807
v -0.000000 -0.082694 -0.630807
v 0.012981 -0.079216 -0.630807
v 0.022483 -0.069714 -0.630807
v 0.025961 -0.056733 -0.630807
v 0.022483 -0.043752 -0.630807
v 0.012981 -0.034250 -0.630807
v -0.000000 -0.030772 -0.630807
v -0.012981 -0.034250 -0.630807
v -0.022483 -0.043752 -0.630807
v -0.025961 -0.056733 -0.630807
v -0.022483 -0.069714 -0.630807
v -0.012981 -0.079216 -0.630807
v -0.000000 -0.068219 -0.625108
v 0.005743 -0.066680 -0.625108
v 0.009947 -0.062476 -0.625108
v 0.011486 -0.056733 -0.625108
v 0.009947 -0.050990 -0.625108
v 0.005743 -0.046786 -0.625108
v -0.000000 -0.045247 -0.625108
v -0.005743 -0.046786 -0.625108
v -0.009947 -0.050990 -0.625108
v -0.011486 -0.056733 -0.625108
v -0.009947 -0.062476 -0.625108
v -0.005743 -0.066680 -0.625108
v 0.014602 -0.082025 -0.668695
v -0.000000 -0.085937 -0.668695
v 0.025292 -0.071335 -0.668695
v 0.029204 -0.056733 -0.668695
v 0.025292 -0.042131 -0.668695
v 0.014602 -0.031441 -0.668695
v -0.000000 -0.027529 -0.668695
v -0.014602 -0.031441 -0.668695
v -0.025292 -0.042131 -0.668695
v -0.029204 -0.056733 -0.668695
v -0.025292 -0.071335 -0.668695
v -0.014602 -0.082025 -0.668695
v 0.077743 -0.104770 -0.656229
v 0.091570 -0.104770 -0.668592
v -0.091570 -0.104770 -0.668592
v -0.077743 -0.104770 -0.656229
v 0.076243 -0.079667 -0.668592
v 0.061730 -0.079667 -0.656229
v -0.061730 -0.079667 -0.656229
v -0.076243 -0.079667 -0.668592
vn -0.0000 0.1098 0.9940
vn -0.0000 -0.0000 1.0000
vn -0.7618 0.4704 0.4454
vn -0.7779 0.4798 0.4058
vn -0.8535 0.5211 -0.0000
vn -0.0000 1.0000 -0.0000
vn -0.0000 -1.0000 -0.0000
vn -0.0000 -0.0000 -1.0000
vn -0.0000 -0.9797 -0.2002
vn -0.0000 -0.9774 -0.2115
vn -0.0000 -0.9774 -0.2114
vn -0.0000 -0.1098 -0.9940
vn -0.0000 -0.0607 -0.9982
vn -0.8612 -0.5083 -0.0000
vn 0.8680 -0.4965 -0.0000
vn -0.0000 -0.0600 -0.9982
vn -0.0000 -0.9204 -0.3909
vn -0.0000 -0.1731 -0.9849
vn 0.8535 0.5211 -0.0000
vn -0.0000 0.9164 0.4004
vn -0.0000 0.7156 0.6985
vn -0.0000 0.1731 0.9849
vn 1.0000 -0.0000 -0.0000
vn -1.0000 -0.0000 -0.0000
vn -0.6089 0.7932 -0.0000
vn 0.6089 0.7932 -0.0000
vn 0.2588 -0.9659 -0.0000
vn 0.7071 -0.7071 -0.0000
vn 0.8612 -0.5082 -0.0000
vn 0.8612 0.5082 -0.0000
vn 0.7071 0.7071 -0.0000
vn -0.7071 0.7071 -0.0000
vn -0.8612 0.5082 -0.0000
vn -0.8612 -0.5082 -0.0000
vn -0.7071 -0.7071 -0.0000
vn -0.2588 -0.9659 -0.0000
vn -0.2588 0.9659 -0.0000
vn 0.2588 0.9659 -0.0000
vn 0.2300 -0.8584 0.4586
vn 0.4284 -0.7686 0.4752
vn 0.2382 -0.8889 -0.3912
vn 0.2390 -0.8919 -0.3840
vn 0.7532 -0.4486 0.4811
vn 0.7870 -0.4680 -0.4021
vn 0.6536 -0.6536 -0.3815
vn 0.8754 -0.0000 0.4833
vn 0.9150 -0.0000 -0.4035
vn 0.7532 0.4486 0.4811
vn 0.7870 0.4680 -0.4021
vn 0.4284 0.7686 0.4752
vn 0.6536 0.6536 -0.3815
vn 0.2300 0.8584 0.4586
vn 0.2390 0.8919 -0.3840
vn 0.2382 0.8889 -0.3912
vn -0.2300 0.8584 0.4586
vn -0.4284 0.7686 0.4752
vn -0.2382 0.8889 -0.3912
vn -0.2390 0.8919 -0.3840
vn -0.7532 0.4486 0.4811
vn -0.7870 0.4680 -0.4021
vn -0.6536 0.6536 -0.3815
vn -0.8754 -0.0000 0.4833
vn -0.9150 -0.0000 -0.4035
vn -0.7532 -0.4486 0.4811
vn -0.7870 -0.4680 -0.4021
vn 0.6353 -0.3677 -0.6792
vn 0.5272 -0.5272 -0.6664
vn -0.4284 -0.7686 0.4752
vn -0.6536 -0.6536 -0.3815
vn -0.2300 -0.8584 0.4586
vn -0.2390 -0.8919 -0.3840
vn -0.2382 -0.8889 -0.3912
vn 0.3229 0.5590 0.7637
vn 0.1704 0.6361 0.7525
vn 0.8257 -0.0000 0.5641
vn 0.7137 0.4152 0.5641
vn 0.7088 0.4236 0.5641
vn 0.5594 0.3221 0.7637
vn 0.6456 -0.0000 0.7637
vn -0.3229 -0.5590 0.7637
vn -0.1704 -0.6361 0.7525
vn 0.1704 -0.6361 0.7525
vn 0.3229 -0.5590 0.7637
vn 0.5594 -0.3221 0.7637
vn -0.5594 -0.3221 0.7637
vn -0.6456 -0.0000 0.7637
vn -0.5594 0.3221 0.7637
vn -0.3229 0.5590 0.7637
vn -0.1704 0.6361 0.7525
vn -0.7088 -0.4236 0.5641
vn -0.7137 -0.4152 0.5641
vn -0.5902 -0.5902 0.5508
vn 0.2160 -0.8062 0.5508
vn -0.5902 0.5902 0.5508
vn -0.7137 0.4152 0.5641
vn -0.7088 0.4236 0.5641
vn 0.5902 0.5902 0.5508
vn -0.2160 -0.8062 0.5508
vn 0.5902 -0.5902 0.5508
vn 0.7137 -0.4152 0.5641
vn 0.7088 -0.4236 0.5641
vn -0.8257 -0.0000 0.5641
vn 0.2160 0.8062 0.5508
vn -0.2160 0.8062 0.5508
vn -0.6353 -0.3677 -0.6792
vn -0.7340 -0.0000 -0.6792
vn -0.6353 0.3677 -0.6792
vn -0.5272 0.5272 -0.6664
vn -0.1930 0.7202 -0.6664
vn 0.1930 0.7202 -0.6664
vn 0.5272 0.5272 -0.6664
vn 0.6353 0.3677 -0.6792
vn 0.7340 -0.0000 -0.6792
vn -0.1930 -0.7202 -0.6664
vn 0.1930 -0.7202 -0.6664
vn -0.5272 -0.5272 -0.6664
vn 0.6082 0.3796 0.6971
vn 0.7618 0.4704 0.4454
vn 0.7779 0.4798 0.4058
vn -0.6082 0.3796 0.6971
vt 0.424215 0.422305
vt 0.424215 0.327695
vt 0.537605 0.346270
vt 0.537605 0.351816
vt 0.537605 0.398207
vt 0.537605 0.403730
vt 0.551326 0.542494
vt 0.625000 0.542494
vt 0.625000 0.750000
vt 0.375000 0.750000
vt 0.375000 0.701178
vt 0.497958 0.701178
vt 0.535695 0.683489
vt 0.551326 0.640783
vt 0.290894 0.750000
vt 0.290894 0.701178
vt 0.653294 0.500000
vt 0.709106 0.500000
vt 0.709106 0.750000
vt 0.551326 0.415894
vt 0.625000 0.415894
vt 0.625000 0.471706
vt 0.551326 0.466408
vt 0.792440 0.500000
vt 0.792440 0.750000
vt 0.207560 0.750000
vt 0.125000 0.750000
vt 0.125000 0.701178
vt 0.207560 0.701178
vt 0.375000 0.834106
vt 0.625000 0.834106
vt 0.625000 0.917440
vt 0.375000 0.917440
vt 0.846398 0.500000
vt 0.875000 0.542494
vt 0.875000 0.750000
vt 0.625000 0.332560
vt 0.551326 0.332560
vt 0.598185 0.750000
vt 0.533449 0.750000
vt 0.533449 0.834106
vt 0.598185 0.917440
vt 0.533449 0.917440
vt 0.598185 0.834106
vt 0.533449 1.000000
vt 0.375000 1.000000
vt 0.825659 0.750000
vt 0.625000 0.950659
vt 0.667949 0.750000
vt 0.625000 0.792949
vt 0.625000 0.000000
vt 0.375000 0.000000
vt 0.533449 0.000000
vt 0.598185 0.000000
vt 0.194633 0.520884
vt 0.305367 0.520884
vt 0.305367 0.554872
vt 0.302731 0.569567
vt 0.298959 0.569567
vt 0.201862 0.569567
vt 0.197520 0.569567
vt 0.194633 0.554872
vt 0.551326 0.283958
vt 0.625000 0.278602
vt 0.196994 0.500000
vt 0.303006 0.500000
vt 0.375000 0.428006
vt 0.375000 0.321994
vt 0.652535 0.500000
vt 0.652535 0.750000
vt 0.847465 0.750000
vt 0.847465 0.500000
vt 0.375000 0.500000
vt 0.571268 0.750000
vt 0.571268 0.500000
vt 0.375000 0.250000
vt 0.571268 0.250000
vt 0.571268 0.000000
vt 0.125000 0.500000
vt 0.625000 0.472465
vt 0.625000 0.277535
vt 0.625000 0.250000
vt 0.571268 1.000000
vt 0.625000 0.972465
vt 0.625000 0.777535
vt 1.000000 0.500000
vt 0.916667 0.500000
vt 0.916667 1.000000
vt 1.000000 1.000000
vt 0.833333 0.500000
vt 0.833333 1.000000
vt 0.750000 0.500000
vt 0.750000 1.000000
vt 0.666667 0.500000
vt 0.666667 1.000000
vt 0.583333 0.500000
vt 0.583333 1.000000
vt 0.500000 0.500000
vt 0.500000 1.000000
vt 0.416667 0.500000
vt 0.333333 0.500000
vt 0.333333 1.000000
vt 0.416667 1.000000
vt 0.250000 0.500000
vt 0.250000 1.000000
vt 0.166667 0.500000
vt 0.166667 1.000000
vt 0.350104 0.099918
vt 0.401556 0.164275
vt 0.422178 0.248981
vt 0.398980 0.333340
vt 0.337160 0.395020
vt 0.253073 0.417551
vt 0.169322 0.394877
vt 0.108776 0.332957
vt 0.089396 0.247918
vt 0.128529 0.159289
vt 0.042154 0.130000
vt 0.010000 0.250000
vt 0.042154 0.370000
vt 0.130000 0.457846
vt 0.250000 0.490000
vt 0.370000 0.457846
vt 0.457846 0.370000
vt 0.490000 0.250000
vt 0.457846 0.130000
vt 0.370000 0.042154
vt 0.230524 0.086844
vt 0.299524 0.068356
vt 0.250000 0.010000
vt 0.083333 0.500000
vt 0.083333 1.000000
vt 0.000000 0.500000
vt 0.000000 1.000000
vt 0.834187 0.104183
vt 0.750000 0.081625
vt 0.665813 0.104183
vt 0.604183 0.165813
vt 0.581625 0.250000
vt 0.604183 0.334187
vt 0.665813 0.395817
vt 0.750000 0.418375
vt 0.834187 0.395817
vt 0.870000 0.457846
vt 0.750000 0.490000
vt 0.630000 0.457846
vt 0.542154 0.370000
vt 0.510000 0.250000
vt 0.542154 0.130000
vt 0.630000 0.042154
vt 0.870000 0.042154
vt 0.895817 0.334187
vt 0.918375 0.250000
vt 0.895817 0.165813
vt 0.957846 0.130000
vt 0.990000 0.250000
vt 0.957846 0.370000
vt 0.916667 0.676988
vt 1.000000 0.676988
vt 1.000000 0.845771
vt 0.916667 0.845771
vt 0.833333 0.676988
vt 0.833333 0.845771
vt 0.750000 0.845771
vt 0.750000 0.676988
vt 0.666667 0.845771
vt 0.666667 0.676988
vt 0.583333 0.845771
vt 0.583333 0.676988
vt 0.500000 0.845771
vt 0.500000 0.676988
vt 0.416667 0.845771
vt 0.416667 0.676988
vt 0.333333 0.845771
vt 0.333333 0.676988
vt 0.250000 0.676988
vt 0.250000 0.845771
vt 0.166667 0.676988
vt 0.166667 0.845771
vt 0.083333 0.676988
vt 0.083333 0.845771
vt 0.000000 0.676988
vt 0.000000 0.845771
vt 0.130000 0.042154
vt 0.750000 0.010000
vt 0.892177 0.250000
vt 0.873129 0.178912
vt 0.821088 0.373128
vt 0.750000 0.392177
vt 0.873128 0.321088
vt 0.821088 0.126872
vt 0.750000 0.107823
vt 0.678912 0.126872
vt 0.626872 0.178912
vt 0.607823 0.250000
vt 0.626871 0.321088
vt 0.678912 0.373129
vt 0.551326 0.207506
vt 0.625000 0.207506
vt 0.551326 0.109217
vt 0.535695 0.066511
vt 0.497958 0.048822
vt 0.375000 0.048822
s 1
f 34/1/1 27/6/2 31/5/2 30/4/2 29/3/2 36/2/1
f 200/7/3 37/14/5 38/13/5 36/12/5 29/11/5 3/10/5 4/9/5 195/8/4
f 3/10/6 29/11/6 30/16/6 8/15/6
f 195/8/7 4/9/7 9/19/7 6/18/7 196/17/7
f 28/20/2 199/23/2 196/22/2 6/21/2
f 6/18/7 9/19/7 10/25/7 5/24/7
f 7/26/6 31/29/6 27/28/6 1/27/6
f 8/15/6 30/16/6 31/29/6 7/26/6
f 8/15/6 13/15/6 12/10/6 3/10/6
f 8/30/8 7/33/8 10/32/8 9/31/8
f 5/24/7 10/25/7 2/36/7 194/35/7 193/34/7
f 5/37/2 32/38/2 28/20/2 6/21/2
f 10/25/7 21/25/10 16/36/9 2/36/7
f 4/9/7 18/9/9 25/19/11 9/19/7
f 20/39/5 18/9/5 4/9/5 3/10/5 12/10/5 19/40/5
f 12/10/8 13/30/8 24/41/13 19/40/12
f 23/42/14 21/32/14 10/32/14 7/33/14 14/33/14 22/43/14
f 1/27/6 11/27/6 14/26/6 7/26/6
f 25/31/15 26/44/15 24/41/15 13/30/15 8/30/15 9/31/15
f 14/33/8 11/46/8 15/45/12 22/43/16
f 21/25/10 23/25/17 17/47/17 16/36/9
f 23/32/18 22/43/16 15/45/12 17/48/18
f 18/9/9 20/49/17 26/19/17 25/19/11
f 20/50/18 19/40/12 24/41/13 26/31/18
f 16/51/19 17/54/19 15/53/19 11/52/19 1/52/19 2/51/19
f 37/55/20 200/62/6 199/61/6 28/60/6 32/59/6 198/58/6 197/57/6 33/56/20
f 5/37/2 193/64/2 198/63/2 32/38/2
f 33/56/20 35/66/21 38/65/21 37/55/20
f 35/67/22 34/1/1 36/2/1 38/68/22
f 49/69/6 46/72/6 43/71/6 48/70/6
f 42/73/23 50/75/23 47/74/23 41/10/23
f 39/52/24 44/78/24 45/77/24 40/76/24
f 40/79/7 42/73/7 41/10/7 39/27/7
f 40/76/8 45/77/8 46/81/8 49/80/8 50/75/8 42/73/8
f 43/51/25 46/82/25 45/77/25 44/78/25
f 49/69/26 48/70/26 47/74/26 50/75/26
f 41/10/2 47/74/2 48/85/2 43/84/2 44/83/2 39/46/2
f 51/86/27 52/89/27 54/88/27 53/87/27
f 53/87/28 54/88/28 56/91/29 55/90/29
f 55/90/29 56/91/29 58/93/23 57/92/23
f 57/92/23 58/93/23 60/95/30 59/94/30
f 59/94/30 60/95/30 62/97/31 61/96/31
f 61/96/6 62/97/6 64/99/6 63/98/6
f 63/100/32 64/103/32 66/102/33 65/101/33
f 65/101/33 66/102/33 68/105/24 67/104/24
f 67/104/24 68/105/24 70/107/34 69/106/34
f 78/108/8 62/127/8 60/126/8 58/125/8 56/124/8 54/123/8 52/122/8 72/121/8 70/120/8 68/119/8 66/118/8 80/117/8 73/116/8 74/115/8 75/114/8 81/113/8 82/112/8 84/111/8 83/110/8 79/109/8
f 80/117/8 66/118/8 64/130/8 62/127/8 78/108/8 76/129/8 77/128/8
f 69/106/34 70/107/34 72/132/35 71/131/35
f 71/131/36 72/132/36 52/134/36 51/133/36
f 95/135/2 61/151/2 63/150/2 65/149/2 67/148/2 69/147/2 71/146/2 51/145/2 53/144/2 96/143/2 93/142/2 94/141/2 92/140/2 88/139/2 89/138/2 90/137/2 91/136/2
f 96/143/2 53/144/2 55/157/2 57/156/2 59/155/2 61/151/2 95/135/2 86/154/2 85/153/2 87/152/2
f 96/158/37 82/161/37 81/160/37 93/159/37
f 87/162/33 84/163/33 82/161/32 96/158/32
f 83/164/24 84/163/33 87/162/33 85/165/24
f 79/166/34 83/164/24 85/165/24 86/167/34
f 78/168/35 79/166/34 86/167/34 95/169/35
f 76/170/36 78/168/36 95/169/36 91/171/36
f 77/172/27 76/170/27 91/171/27 90/173/27
f 80/174/29 77/172/28 90/173/28 89/175/29
f 88/176/23 73/177/23 80/174/29 89/175/29
f 92/178/30 74/179/30 73/177/23 88/176/23
f 94/180/31 75/181/31 74/179/30 92/178/30
f 93/182/38 81/183/38 75/181/38 94/180/38
f 97/86/27 98/89/27 100/88/27 99/87/27
f 99/87/28 100/88/28 102/91/29 101/90/29
f 101/90/29 102/91/29 104/93/23 103/92/23
f 103/92/23 104/93/23 106/95/30 105/94/30
f 105/94/30 106/95/30 108/97/31 107/96/31
f 107/96/38 108/97/38 110/99/38 109/98/38
f 109/98/37 110/99/37 112/103/37 111/100/37
f 111/100/32 112/103/32 114/102/33 113/101/33
f 113/101/33 114/102/33 116/105/24 115/104/24
f 115/104/24 116/105/24 118/107/34 117/106/34
f 100/123/8 98/122/8 120/121/8 118/120/8 116/119/8 114/118/8 112/184/8 110/130/8 108/127/8 106/126/8 104/125/8 102/124/8
f 117/106/34 118/107/34 120/132/35 119/131/35
f 119/131/36 120/132/36 98/134/36 97/133/36
f 97/145/2 99/144/2 101/157/2 103/156/2 105/155/2 107/151/2 109/185/2 111/150/2 113/149/2 115/148/2 117/147/2 119/146/2
f 121/86/39 122/89/42 124/88/41 123/87/40
f 123/87/40 124/88/45 126/91/44 125/90/43
f 125/90/43 126/91/44 128/93/47 127/92/46
f 127/92/46 128/93/47 130/95/49 129/94/48
f 129/94/48 130/95/49 132/97/51 131/96/50
f 131/96/50 132/97/54 134/99/53 133/98/52
f 133/98/55 134/99/58 136/103/57 135/100/56
f 135/100/56 136/103/61 138/102/60 137/101/59
f 137/101/59 138/102/60 140/105/63 139/104/62
f 139/104/62 140/105/63 142/107/65 141/106/64
f 126/91/44 124/88/45 181/88/67 183/91/66
f 141/106/64 142/107/65 144/132/69 143/131/68
f 143/131/68 144/132/72 122/134/71 121/133/70
f 131/96/50 133/98/52 163/98/74 162/96/73
f 148/186/75 149/187/77 173/187/76 172/186/75
f 129/94/48 131/96/50 162/96/73 161/94/78
f 127/92/46 129/94/48 161/94/78 160/92/79
f 143/131/68 121/133/70 157/133/81 168/131/80
f 121/86/39 123/87/40 158/87/83 157/86/82
f 125/90/43 127/92/46 160/92/79 159/90/84
f 141/106/64 143/131/68 168/131/80 167/106/85
f 123/87/40 125/90/43 159/90/84 158/87/83
f 139/104/62 141/106/64 167/106/85 166/104/86
f 137/101/59 139/104/62 166/104/86 165/101/87
f 135/100/56 137/101/59 165/101/87 164/100/88
f 133/98/55 135/100/56 164/100/88 163/98/89
f 146/188/2 145/189/2 157/145/2 158/144/2
f 147/190/2 146/188/2 158/144/2 159/157/2
f 148/186/2 147/190/2 159/157/2 160/156/2
f 149/187/2 148/186/2 160/156/2 161/155/2
f 150/191/2 149/187/2 161/155/2 162/151/2
f 151/192/2 150/191/2 162/151/2 163/185/2
f 152/193/2 151/192/2 163/185/2 164/150/2
f 153/194/2 152/193/2 164/150/2 165/149/2
f 154/195/2 153/194/2 165/149/2 166/148/2
f 155/196/2 154/195/2 166/148/2 167/147/2
f 156/197/2 155/196/2 167/147/2 168/146/2
f 145/189/2 156/197/2 168/146/2 157/145/2
f 169/189/2 170/188/2 171/190/2 172/186/2 173/187/2 174/191/2 175/192/2 176/193/2 177/194/2 178/195/2 179/196/2 180/197/2
f 155/196/90 156/197/92 180/197/92 179/196/91
f 145/189/93 146/188/93 170/188/93 169/189/93
f 152/193/94 153/194/96 177/194/95 176/193/94
f 149/187/77 150/191/97 174/191/97 173/187/76
f 156/197/98 145/189/98 169/189/98 180/197/98
f 146/188/99 147/190/101 171/190/100 170/188/99
f 153/194/96 154/195/102 178/195/102 177/194/95
f 150/191/103 151/192/103 175/192/103 174/191/103
f 147/190/101 148/186/75 172/186/75 171/190/100
f 154/195/102 155/196/90 179/196/91 178/195/102
f 151/192/104 152/193/104 176/193/104 175/192/104
f 181/123/8 182/122/8 192/121/8 191/120/8 190/119/8 189/118/8 188/184/8 187/130/8 186/127/8 185/126/8 184/125/8 183/124/8
f 142/107/65 140/105/63 190/105/106 191/107/105
f 140/105/63 138/102/60 189/102/107 190/105/106
f 138/102/60 136/103/61 188/103/108 189/102/107
f 136/103/57 134/99/58 187/99/109 188/103/109
f 134/99/53 132/97/54 186/97/110 187/99/110
f 132/97/51 130/95/49 185/95/112 186/97/111
f 130/95/49 128/93/47 184/93/113 185/95/112
f 122/134/71 144/132/72 192/132/114 182/134/114
f 124/88/41 122/89/42 182/89/115 181/88/115
f 128/93/47 126/91/44 183/91/66 184/93/113
f 144/132/69 142/107/65 191/107/105 192/132/116
f 193/64/117 194/199/119 197/198/118 198/63/117
f 195/8/4 196/22/120 199/23/120 200/7/3
f 1/52/19 27/203/19 34/202/19 35/201/19 33/200/19 197/198/118 194/199/119 2/51/19
