# Blender 4.4.3
# www.blender.org
mtllib Mag3.mtl
o Cube.048
v 0.035455 0.055025 0.615313
v 0.042932 -0.270972 0.600653
v 0.035455 0.055025 0.910645
v 0.042932 -0.290405 0.925304
v 0.033245 -0.241402 0.678978
v -0.035455 0.055025 0.615313
v -0.042932 -0.270972 0.600653
v 0.033245 -0.216731 0.683793
v -0.035455 0.055025 0.910645
v 0.033245 -0.216731 0.660401
v -0.042932 -0.290405 0.925304
v 0.033245 -0.241402 0.665216
v -0.033245 -0.241402 0.678978
v -0.033245 -0.216731 0.683793
v -0.033245 -0.216731 0.660401
v -0.033245 -0.241402 0.665216
v 0.042932 -0.220358 0.655138
v 0.042932 -0.220358 0.689056
v 0.042932 -0.248567 0.683173
v 0.042932 -0.248567 0.661020
v 0.035455 0.055025 0.700206
v 0.035455 0.055025 0.643988
v -0.042932 -0.220358 0.655138
v -0.042932 -0.248567 0.661020
v -0.042932 -0.220358 0.689056
v -0.042932 -0.248567 0.683173
v -0.035455 0.055025 0.700206
v -0.035455 0.055025 0.643988
v -0.025768 0.055025 0.649251
v -0.025768 0.055025 0.694943
v 0.025768 0.055025 0.694943
v 0.025768 0.055025 0.649251
v 0.042932 0.055025 0.600653
v 0.042932 0.055025 0.655138
v 0.042932 0.055025 0.925304
v 0.042932 0.055025 0.689056
v -0.042932 0.055025 0.925304
v -0.042932 0.055025 0.689056
v -0.042932 0.055025 0.600653
v -0.042932 0.055025 0.655138
v -0.033245 0.055025 0.660401
v 0.033245 0.055025 0.660401
v 0.033245 0.055025 0.683793
v -0.033245 0.055025 0.683793
v 0.035455 -0.114362 0.615313
v 0.035455 -0.114362 0.643988
v 0.035455 -0.114362 0.910645
v 0.035455 -0.114362 0.700206
v -0.035455 -0.114362 0.910645
v -0.035455 -0.114362 0.700206
v -0.035455 -0.114362 0.615313
v -0.035455 -0.114362 0.643988
v -0.025768 -0.114362 0.649251
v 0.025768 -0.114362 0.649251
v 0.025768 -0.114362 0.694943
v -0.025768 -0.114362 0.694943
v 0.034120 0.083684 0.915365
v 0.034120 0.083684 0.700960
v -0.034119 0.083684 0.915365
v -0.034119 0.083684 0.700960
v 0.028178 0.077405 0.910645
v 0.028178 0.077405 0.700206
v -0.028177 0.077405 0.910645
v -0.028177 0.077405 0.700206
v 0.021567 0.096575 0.915365
v 0.021567 0.096575 0.700960
v -0.021566 0.096575 0.915365
v -0.021566 0.096575 0.700960
v 0.017375 0.088075 0.910645
v 0.017375 0.088075 0.700206
v -0.017375 0.088075 0.910645
v -0.017375 0.088075 0.700206
v 0.047277 -0.275194 0.595658
v 0.047277 -0.295192 0.929761
v -0.047276 -0.295192 0.929761
v -0.047276 -0.275194 0.595658
v 0.047277 -0.364208 0.595246
v 0.040918 -0.377428 0.607625
v 0.040918 -0.395937 0.916840
v 0.047277 -0.384206 0.929349
v -0.040918 -0.395937 0.916840
v -0.047276 -0.384206 0.929349
v -0.040918 -0.377428 0.607625
v -0.047276 -0.364208 0.595246
vn 1.0000 -0.0000 -0.0000
vn -0.0000 -0.0000 1.0000
vn -1.0000 -0.0000 -0.0000
vn -0.0000 -0.0000 -1.0000
vn -0.0000 0.7638 -0.6454
vn 0.4774 -0.0000 -0.8787
vn 0.4774 -0.0000 0.8787
vn 0.5075 0.1708 0.8446
vn 0.5075 0.1708 -0.8446
vn 0.5947 0.8040 -0.0000
vn -0.4774 -0.0000 -0.8787
vn -0.4774 -0.0000 0.8787
vn -0.5075 0.1708 0.8446
vn -0.5075 0.1708 -0.8446
vn -0.5947 0.8040 -0.0000
vn -0.0000 1.0000 -0.0000
vn 0.9510 -0.3093 -0.0000
vn -0.7937 -0.1347 0.5932
vn -0.3357 -0.3327 0.8812
vn 0.3357 -0.3328 0.8812
vn -0.9510 -0.3093 -0.0000
vn 0.6102 -0.0076 -0.7922
vn -0.6102 -0.0076 -0.7922
vn -0.9558 0.2939 -0.0000
vn 0.9558 0.2939 -0.0000
vn 0.7937 -0.1347 0.5932
vn -0.8969 0.4422 -0.0000
vn 0.8969 0.4422 -0.0000
vn -0.7028 -0.7114 -0.0000
vn 0.7164 0.6976 -0.0000
vn -0.0606 0.0601 -0.9963
vn 0.0606 0.0601 -0.9963
vn 0.7028 -0.7114 -0.0000
vn -0.7164 0.6977 -0.0000
vn -0.0000 -0.0046 1.0000
vn 0.7204 0.6923 0.0414
vn -0.0000 0.6814 0.7319
vn -0.7204 0.6923 0.0414
vn -0.0000 0.0046 -1.0000
vn -0.0000 -0.9982 -0.0597
vn 0.8907 -0.4538 -0.0272
vn -0.0000 -0.7294 0.6841
vn -0.8907 -0.4538 -0.0272
vn -0.0000 -0.6835 -0.7299
vt 0.375000 0.000000
vt 0.625000 0.000000
vt 0.625000 0.250000
vt 0.375000 0.250000
vt 0.375000 0.068075
vt 0.579941 0.068075
vt 0.603089 0.062699
vt 0.604126 0.047333
vt 0.581531 0.041957
vt 0.375000 0.041957
vt 0.625000 0.500000
vt 0.375000 0.500000
vt 0.596554 0.686249
vt 0.579941 0.681925
vt 0.375000 0.681925
vt 0.625000 0.750000
vt 0.375000 0.750000
vt 0.375000 0.708043
vt 0.587992 0.706991
vt 0.604126 0.702667
vt 0.625000 1.000000
vt 0.375000 1.000000
vt 0.353230 0.511289
vt 0.353230 0.673339
vt 0.620028 1.000000
vt 0.399471 1.000000
vt 0.399471 0.820944
vt 0.620097 0.820944
vt 0.620097 0.429055
vt 0.399471 0.429055
vt 0.399471 0.250000
vt 0.620028 0.250000
vt 0.375000 0.051462
vt 0.399471 0.000000
vt 0.620028 0.000000
vt 0.375000 0.198538
vt 0.304055 0.551462
vt 0.125000 0.551462
vt 0.125000 0.500000
vt 0.308571 0.513927
vt 0.297572 0.712170
vt 0.304055 0.750000
vt 0.125000 0.750000
vt 0.125000 0.698538
vt 0.304055 0.698538
vt 0.620028 1.000000
vt 0.620097 0.820946
vt 0.399471 0.820946
vt 0.399471 0.429054
vt 0.620097 0.429054
vt 0.620028 0.250000
vt 0.304054 0.500000
vt 0.304054 0.551462
vt 0.304054 0.698538
vt 0.304054 0.750000
vt 0.146770 0.716630
vt 0.146770 0.738711
vt 0.125000 0.708043
vt 0.146770 0.511289
vt 0.353230 0.738711
vt 0.353230 0.716630
vt 0.325025 0.712577
vt 0.346795 0.703991
vt 0.174975 0.712577
vt 0.153205 0.703991
vt 0.174975 0.677392
vt 0.153205 0.685978
vt 0.146770 0.673339
vt 0.125000 0.681925
vt 0.325025 0.677391
vt 0.346795 0.685978
vt 0.641812 0.509312
vt 0.858188 0.509312
vt 0.858188 0.740688
vt 0.641812 0.740688
vt 0.875000 0.500508
vt 0.875000 0.750000
vt 0.875000 0.500000
s 0
f 33/1/1 34/10/1 17/9/1 20/8/1 19/7/1 18/6/1 36/5/1 35/4/1 4/3/1 2/2/1
f 35/4/2 37/12/2 11/11/2 4/3/2
f 26/13/3 24/20/3 23/19/3 40/18/3 39/17/3 7/16/3 11/11/3 37/12/3 38/15/3 25/14/3
f 39/17/4 33/22/4 2/21/4 7/16/4
f 9/23/1 49/23/1 50/24/1 27/24/1
f 2/21/5 73/21/5 76/16/5 7/16/5
f 43/25/6 36/28/6 18/27/6 8/26/6
f 34/29/7 42/32/7 10/31/7 17/30/7
f 5/33/1 12/36/1 10/31/1 42/32/1 43/35/1 8/34/1
f 20/37/8 17/40/8 10/39/8 12/38/8
f 19/41/9 5/44/9 8/43/9 18/42/9
f 19/45/10 20/37/10 12/38/10 5/44/10
f 14/26/11 25/48/11 38/47/11 44/46/11
f 15/31/12 41/51/12 40/50/12 23/49/12
f 44/35/3 41/51/3 15/31/3 16/36/3 13/33/3 14/34/3
f 23/52/13 24/53/13 16/38/13 15/39/13
f 26/54/14 25/55/14 14/43/14 13/44/14
f 24/53/15 26/54/15 13/44/15 16/38/15
f 22/56/16 34/58/16 33/43/16 1/57/16
f 27/24/17 64/24/17 63/23/17 9/23/17
f 9/23/16 37/12/16 35/39/16 3/59/16
f 35/39/18 57/39/18 61/59/18 3/59/18
f 6/60/16 39/17/16 40/18/16 28/61/16
f 1/57/16 33/43/16 39/17/16 6/60/16
f 28/61/16 40/18/16 41/63/16 29/62/16
f 32/64/16 42/65/16 34/58/16 22/56/16
f 31/66/16 43/67/16 42/65/16 32/64/16
f 21/68/16 36/69/16 43/67/16 31/66/16
f 30/70/16 44/71/16 38/15/16 27/24/16
f 29/62/16 41/63/16 44/71/16 30/70/16
f 52/61/16 53/62/16 56/70/16 50/24/16 49/23/16 47/59/16 48/68/16 55/66/16 54/64/16 46/56/16 45/57/16 51/60/16
f 27/24/7 50/24/7 56/70/7 30/70/7
f 1/57/3 45/57/3 46/56/3 22/56/3
f 22/56/11 46/56/11 54/64/11 32/64/11
f 28/61/1 52/61/1 51/60/1 6/60/1
f 30/70/1 56/70/1 53/62/1 29/62/1
f 21/68/3 48/68/3 47/59/3 3/59/3
f 32/64/3 54/64/3 55/66/3 31/66/3
f 6/60/2 51/60/2 45/57/2 1/57/2
f 3/59/4 47/59/4 49/23/4 9/23/4
f 31/66/12 55/66/12 48/68/12 21/68/12
f 29/62/6 53/62/6 52/61/6 28/61/6
f 57/39/19 65/39/19 69/59/19 61/59/19
f 63/23/20 71/23/20 67/12/20 59/12/20
f 3/59/21 61/59/21 62/68/21 21/68/21
f 38/15/22 60/15/22 64/24/22 27/24/22
f 21/68/23 62/68/23 58/69/23 36/69/23
f 37/12/24 59/12/24 60/15/24 38/15/24
f 36/5/25 58/5/25 57/4/25 35/4/25
f 9/23/26 63/23/26 59/12/26 37/12/26
f 69/59/27 65/39/27 66/69/27 70/68/27
f 72/24/28 68/15/28 67/12/28 71/23/28
f 61/59/29 69/59/29 70/68/29 62/68/29
f 58/5/30 66/5/30 65/4/30 57/4/30
f 60/15/31 68/15/31 72/24/31 64/24/31
f 62/68/32 70/68/32 66/69/32 58/69/32
f 64/24/33 72/24/33 71/23/33 63/23/33
f 59/12/34 67/12/34 68/15/34 60/15/34
f 75/11/35 82/11/35 80/3/35 74/3/35
f 4/3/36 74/3/36 73/2/36 2/2/36
f 11/11/37 75/11/37 74/3/37 4/3/37
f 7/16/38 76/16/38 75/11/38 11/11/38
f 73/21/39 77/21/39 84/16/39 76/16/39
f 76/16/3 84/16/3 82/11/3 75/11/3
f 81/72/40 83/75/40 78/74/40 79/73/40
f 78/74/41 77/77/41 80/76/41 79/73/41
f 79/73/42 80/78/42 82/11/42 81/72/42
f 84/16/43 83/75/43 81/72/43 82/11/43
f 77/77/44 78/74/44 83/75/44 84/16/44
f 74/3/1 80/3/1 77/2/1 73/2/1
