# Blender 4.4.3
# www.blender.org
mtllib Scope2.mtl
o Cylinder.015
v 0.000000 0.280547 1.300106
v 0.000000 0.255156 1.285731
v 0.011761 0.283699 1.300106
v 0.024457 0.261710 1.285731
v 0.020372 0.292309 1.300106
v 0.042361 0.279613 1.285731
v 0.023523 0.304070 1.300106
v 0.048914 0.304070 1.285731
v 0.020372 0.315832 1.300106
v 0.042361 0.328527 1.285731
v 0.011761 0.324442 1.300106
v 0.024457 0.346431 1.285731
v 0.000000 0.327593 1.300106
v 0.000000 0.352984 1.285731
v -0.011761 0.324442 1.300106
v -0.024457 0.346431 1.285731
v -0.020372 0.315832 1.300106
v -0.042361 0.328527 1.285731
v -0.023523 0.304070 1.300106
v -0.048914 0.304070 1.285731
v -0.020372 0.292309 1.300106
v -0.042361 0.279613 1.285731
v -0.011761 0.283699 1.300106
v -0.024457 0.261710 1.285731
v 0.000000 0.255156 1.297182
v 0.024457 0.261710 1.297182
v 0.042361 0.279613 1.297182
v 0.048914 0.304070 1.297182
v 0.042361 0.328527 1.297182
v 0.024457 0.346431 1.297182
v 0.000000 0.352984 1.297182
v -0.024457 0.346431 1.297182
v -0.042361 0.328527 1.297182
v -0.048914 0.304070 1.297182
v -0.042361 0.279613 1.297182
v -0.024457 0.261710 1.297182
vn 0.2588 -0.9659 -0.0000
vn 0.7071 -0.7071 -0.0000
vn 0.9659 -0.2588 -0.0000
vn 0.9659 0.2588 -0.0000
vn 0.7071 0.7071 -0.0000
vn 0.2588 0.9659 -0.0000
vn -0.2588 0.9659 -0.0000
vn -0.7071 0.7071 -0.0000
vn -0.9659 0.2588 -0.0000
vn -0.9659 -0.2588 -0.0000
vn -0.0000 -0.0000 -1.0000
vn -0.7071 -0.7071 -0.0000
vn -0.2588 -0.9659 -0.0000
vn -0.0000 -0.0000 1.0000
vn 0.0306 -0.1144 0.9930
vn 0.0837 -0.0837 0.9930
vn 0.1144 -0.0306 0.9930
vn 0.1144 0.0306 0.9930
vn 0.0837 0.0837 0.9930
vn 0.0306 0.1144 0.9930
vn -0.0306 0.1144 0.9930
vn -0.0837 0.0837 0.9930
vn -0.1144 0.0306 0.9930
vn -0.1144 -0.0306 0.9930
vn -0.0837 -0.0837 0.9930
vn -0.0306 -0.1144 0.9930
vt 1.000000 0.500000
vt 1.000000 1.000000
vt 0.916667 1.000000
vt 0.916667 0.500000
vt 0.833333 1.000000
vt 0.833333 0.500000
vt 0.750000 1.000000
vt 0.750000 0.500000
vt 0.666667 1.000000
vt 0.666667 0.500000
vt 0.583333 1.000000
vt 0.583333 0.500000
vt 0.500000 1.000000
vt 0.500000 0.500000
vt 0.416667 1.000000
vt 0.416667 0.500000
vt 0.333333 1.000000
vt 0.333333 0.500000
vt 0.250000 1.000000
vt 0.250000 0.500000
vt 0.166667 1.000000
vt 0.166667 0.500000
vt 0.370000 0.457846
vt 0.250000 0.490000
vt 0.130000 0.457846
vt 0.042154 0.370000
vt 0.010000 0.250000
vt 0.042154 0.130000
vt 0.130000 0.042154
vt 0.250000 0.010000
vt 0.370000 0.042154
vt 0.457846 0.130000
vt 0.490000 0.250000
vt 0.457846 0.370000
vt 0.083333 1.000000
vt 0.083333 0.500000
vt 0.000000 1.000000
vt 0.000000 0.500000
vt 0.750000 0.365418
vt 0.807709 0.349955
vt 0.849955 0.307709
vt 0.865418 0.250000
vt 0.849955 0.192291
vt 0.807709 0.150045
vt 0.750000 0.134582
vt 0.692291 0.150045
vt 0.650045 0.192291
vt 0.634582 0.250000
vt 0.650045 0.307709
vt 0.692291 0.349955
vt 0.750000 0.490000
vt 0.870000 0.457846
vt 0.957846 0.370000
vt 0.990000 0.250000
vt 0.957846 0.130000
vt 0.870000 0.042154
vt 0.750000 0.010000
vt 0.630000 0.042154
vt 0.542154 0.130000
vt 0.510000 0.250000
vt 0.542154 0.370000
vt 0.630000 0.457846
s 0
f 25/1/1 2/2/1 4/3/1 26/4/1
f 26/4/2 4/3/2 6/5/2 27/6/2
f 27/6/3 6/5/3 8/7/3 28/8/3
f 28/8/4 8/7/4 10/9/4 29/10/4
f 29/10/5 10/9/5 12/11/5 30/12/5
f 30/12/6 12/11/6 14/13/6 31/14/6
f 31/14/7 14/13/7 16/15/7 32/16/7
f 32/16/8 16/15/8 18/17/8 33/18/8
f 33/18/9 18/17/9 20/19/9 34/20/9
f 34/20/10 20/19/10 22/21/10 35/22/10
f 4/23/11 2/24/11 24/25/11 22/26/11 20/27/11 18/28/11 16/29/11 14/30/11 12/31/11 10/32/11 8/33/11 6/34/11
f 35/22/12 22/21/12 24/35/12 36/36/12
f 36/36/13 24/35/13 2/37/13 25/38/13
f 1/39/14 3/40/14 5/41/14 7/42/14 9/43/14 11/44/14 13/45/14 15/46/14 17/47/14 19/48/14 21/49/14 23/50/14
f 3/40/15 1/39/15 25/51/15 26/52/15
f 5/41/16 3/40/16 26/52/16 27/53/16
f 7/42/17 5/41/17 27/53/17 28/54/17
f 9/43/18 7/42/18 28/54/18 29/55/18
f 11/44/19 9/43/19 29/55/19 30/56/19
f 13/45/20 11/44/20 30/56/20 31/57/20
f 15/46/21 13/45/21 31/57/21 32/58/21
f 17/47/22 15/46/22 32/58/22 33/59/22
f 19/48/23 17/47/23 33/59/23 34/60/23
f 21/49/24 19/48/24 34/60/24 35/61/24
f 23/50/25 21/49/25 35/61/25 36/62/25
f 1/39/26 23/50/26 36/62/26 25/51/26
