# Blender 4.4.3
# www.blender.org
mtllib Screws.mtl
o Cube.006
v -0.010809 -0.094004 1.076545
v -0.010809 -0.075710 1.072220
v -0.010809 -0.104140 1.060016
v -0.010809 -0.080591 1.053455
v 0.010809 -0.094004 1.076545
v 0.010809 -0.075710 1.072220
v 0.010809 -0.104140 1.060016
v 0.010809 -0.080591 1.053455
v -0.010809 -0.117173 1.072265
v -0.010809 -0.115468 1.085449
v 0.010809 -0.117173 1.072265
v 0.010809 -0.115468 1.085449
v -0.010809 -0.134089 1.076152
v -0.010809 -0.136014 1.086405
v 0.010809 -0.134089 1.076152
v 0.010809 -0.136014 1.086405
v -0.010809 -0.151678 1.074194
v -0.010809 -0.155863 1.081335
v 0.010809 -0.151678 1.074194
v 0.010809 -0.155863 1.081335
v -0.010809 -0.164128 1.066898
v -0.010809 -0.168313 1.074039
v 0.010809 -0.164128 1.066898
v 0.010809 -0.168313 1.074039
v 0.067789 0.087001 0.333590
v -0.067789 0.087001 0.333590
v 0.067789 0.092565 0.335081
v -0.067789 0.092565 0.335081
v 0.067789 0.096639 0.339154
v -0.067789 0.096639 0.339154
v 0.067789 0.098130 0.344719
v -0.067789 0.098130 0.344719
v 0.067789 0.096639 0.350283
v -0.067789 0.096639 0.350283
v 0.067789 0.092565 0.354356
v -0.067789 0.092565 0.354356
v 0.067789 0.087001 0.355847
v -0.067789 0.087001 0.355847
v 0.067789 0.081437 0.354356
v -0.067789 0.081437 0.354356
v 0.067789 0.077363 0.350283
v -0.067789 0.077363 0.350283
v 0.067789 0.075872 0.344719
v -0.067789 0.075872 0.344719
v 0.067789 0.077363 0.339154
v -0.067789 0.077363 0.339154
v 0.067789 0.081437 0.335081
v -0.067789 0.081437 0.335081
v 0.067789 0.087001 0.325640
v 0.067789 0.096540 0.328196
v -0.067789 0.096540 0.328196
v -0.067789 0.087001 0.325640
v 0.067789 0.103523 0.335179
v -0.067789 0.103523 0.335179
v 0.067789 0.106079 0.344719
v -0.067789 0.106079 0.344719
v 0.067789 0.103523 0.354258
v -0.067789 0.103523 0.354258
v 0.067789 0.096540 0.361241
v -0.067789 0.096540 0.361241
v 0.067789 0.087001 0.363797
v -0.067789 0.087001 0.363797
v 0.067789 0.077462 0.361241
v -0.067789 0.077462 0.361241
v 0.067789 0.070479 0.354258
v -0.067789 0.070479 0.354258
v 0.067789 0.067923 0.344719
v -0.067789 0.067923 0.344719
v 0.067789 0.070479 0.335179
v -0.067789 0.070479 0.335179
v 0.067789 0.077462 0.328196
v -0.067789 0.077462 0.328196
v 0.056088 0.087001 0.333590
v 0.056088 0.092565 0.335081
v -0.056088 0.092565 0.335081
v -0.056088 0.087001 0.333590
v 0.056088 0.096639 0.339154
v -0.056088 0.096639 0.339154
v 0.056088 0.098130 0.344719
v -0.056088 0.098130 0.344719
v 0.056088 0.096639 0.350283
v -0.056088 0.096639 0.350283
v 0.056088 0.092565 0.354356
v -0.056088 0.092565 0.354356
v 0.056088 0.087001 0.355847
v -0.056088 0.087001 0.355847
v 0.056088 0.081437 0.354356
v -0.056088 0.081437 0.354356
v 0.056088 0.077363 0.350283
v -0.056088 0.077363 0.350283
v 0.056088 0.075872 0.344719
v -0.056088 0.075872 0.344719
v 0.056088 0.077363 0.339154
v -0.056088 0.077363 0.339154
v 0.056088 0.081437 0.335081
v -0.056088 0.081437 0.335081
v -0.029748 -0.166671 0.948415
v -0.029748 -0.170055 0.935138
v 0.029748 -0.166671 0.948415
v 0.029748 -0.170055 0.935138
v -0.029748 -0.212903 0.960198
v -0.014314 -0.229097 0.964325
v -0.014314 -0.232481 0.951048
v -0.029748 -0.216287 0.946921
v 0.014314 -0.229097 0.964325
v 0.029748 -0.212903 0.960198
v 0.029748 -0.216287 0.946921
v 0.014314 -0.232481 0.951048
v 0.009545 -0.086773 1.396920
v 0.009545 0.001588 1.396920
v 0.009545 -0.086773 1.321013
v 0.009545 0.001588 1.321013
v 0.074031 -0.086773 1.373396
v 0.039629 -0.086773 1.396920
v 0.039629 0.001588 1.396920
v 0.074031 0.001588 1.373396
v 0.018320 -0.086773 1.321013
v 0.074031 -0.086773 1.338733
v 0.074031 0.001588 1.338733
v 0.018320 0.001588 1.321013
vn -1.0000 -0.0000 -0.0000
vn -0.0000 -0.2684 -0.9633
vn 1.0000 -0.0000 -0.0000
vn -0.0000 0.2300 0.9732
vn -0.0000 0.3832 0.9237
vn -0.0000 0.9678 -0.2517
vn -0.0000 -0.6849 -0.7287
vn -0.0000 -0.2475 0.9689
vn -0.0000 0.0465 0.9989
vn -0.0000 -0.2239 -0.9746
vn -0.0000 0.1106 -0.9939
vn -0.0000 -0.8628 -0.5056
vn -0.0000 -0.5056 0.8628
vn -0.0000 0.5056 -0.8628
vn -0.0000 0.2588 -0.9659
vn -0.0000 0.7071 -0.7071
vn -0.0000 0.9659 -0.2588
vn -0.0000 0.9659 0.2588
vn -0.0000 0.7071 0.7071
vn -0.0000 0.2588 0.9659
vn -0.0000 -0.2588 0.9659
vn -0.0000 -0.7071 0.7071
vn -0.0000 -0.9659 0.2588
vn -0.0000 -0.9659 -0.2588
vn -0.0000 -0.7071 -0.7071
vn -0.0000 -0.2588 -0.9659
vn -0.0000 0.2470 0.9690
vn -0.0000 -0.2470 -0.9690
vn -0.0000 0.9690 -0.2470
vn -0.7346 -0.6574 0.1676
vn 0.7346 -0.6574 0.1676
vn -0.0000 -0.9690 0.2470
vn -0.0000 -0.0000 1.0000
vn -0.0000 1.0000 -0.0000
vn -0.0000 -0.0000 -1.0000
vn 0.3031 -0.0000 -0.9530
vn 0.5645 -0.0000 0.8255
vn -0.0000 -1.0000 -0.0000
vt 0.375000 0.000000
vt 0.625000 0.000000
vt 0.625000 0.250000
vt 0.375000 0.250000
vt 0.625000 0.500000
vt 0.375000 0.500000
vt 0.625000 0.750000
vt 0.375000 0.750000
vt 0.625000 1.000000
vt 0.375000 1.000000
vt 0.875000 0.500000
vt 0.875000 0.750000
vt 0.125000 0.500000
vt 0.125000 0.750000
vt 1.000000 0.500000
vt 1.000000 1.000000
vt 0.916667 1.000000
vt 0.916667 0.500000
vt 0.833333 1.000000
vt 0.833333 0.500000
vt 0.750000 1.000000
vt 0.750000 0.500000
vt 0.666667 1.000000
vt 0.666667 0.500000
vt 0.583333 1.000000
vt 0.583333 0.500000
vt 0.500000 1.000000
vt 0.500000 0.500000
vt 0.416667 1.000000
vt 0.416667 0.500000
vt 0.333333 1.000000
vt 0.333333 0.500000
vt 0.250000 1.000000
vt 0.250000 0.500000
vt 0.166667 1.000000
vt 0.166667 0.500000
vt 0.389994 0.250000
vt 0.371239 0.319997
vt 0.083333 1.000000
vt 0.083333 0.500000
vt 0.000000 1.000000
vt 0.000000 0.500000
vt 0.750000 0.110006
vt 0.680003 0.128762
vt 0.819997 0.371238
vt 0.750000 0.389994
vt 0.750000 0.490000
vt 0.870000 0.457846
vt 0.250000 0.389994
vt 0.319997 0.371238
vt 0.370000 0.457846
vt 0.250000 0.490000
vt 0.871238 0.319997
vt 0.957846 0.370000
vt 0.457846 0.370000
vt 0.889994 0.250000
vt 0.990000 0.250000
vt 0.490000 0.250000
vt 0.871239 0.180003
vt 0.957846 0.130000
vt 0.371238 0.180003
vt 0.457846 0.130000
vt 0.819997 0.128762
vt 0.870000 0.042154
vt 0.319997 0.128762
vt 0.370000 0.042154
vt 0.750000 0.010000
vt 0.250000 0.110006
vt 0.250000 0.010000
vt 0.630000 0.042154
vt 0.180003 0.128762
vt 0.130000 0.042154
vt 0.628762 0.180003
vt 0.542154 0.130000
vt 0.128762 0.180003
vt 0.042154 0.130000
vt 0.610006 0.250000
vt 0.510000 0.250000
vt 0.110006 0.250000
vt 0.010000 0.250000
vt 0.628762 0.319997
vt 0.542154 0.370000
vt 0.128762 0.319997
vt 0.042154 0.370000
vt 0.680003 0.371238
vt 0.630000 0.457846
vt 0.180003 0.371238
vt 0.130000 0.457846
vt 0.375000 0.814853
vt 0.439853 0.750000
vt 0.439853 1.000000
vt 0.375000 0.935147
vt 0.439853 0.500000
vt 0.375000 0.314853
vt 0.439853 0.250000
vt 0.375000 0.435147
vt 0.439853 0.000000
vt 0.189853 0.500000
vt 0.189853 0.750000
vt 0.310147 0.750000
vt 0.310147 0.500000
vt 0.375000 0.796475
vt 0.625000 0.796475
vt 0.625000 0.571974
vt 0.671475 0.500000
vt 0.671475 0.750000
vt 0.625000 0.678026
vt 0.375000 0.571974
vt 0.375000 0.678026
vt 0.625000 0.453525
vt 0.375000 0.453525
vt 0.328525 0.500000
vt 0.328525 0.750000
s 0
f 1/1/1 2/2/1 4/3/1 3/4/1
f 3/4/2 4/3/2 8/5/2 7/6/2
f 7/6/3 8/5/3 6/7/3 5/8/3
f 5/8/4 6/7/4 2/9/4 1/10/4
f 5/8/5 1/10/5 10/10/5 12/8/5
f 8/5/6 4/11/6 2/12/6 6/7/6
f 10/1/1 9/4/1 13/4/1 14/1/1
f 3/4/7 7/6/7 11/6/7 9/4/7
f 1/1/1 3/4/1 9/4/1 10/1/1
f 7/6/3 5/8/3 12/8/3 11/6/3
f 16/8/8 14/10/8 18/10/8 20/8/8
f 12/8/9 10/10/9 14/10/9 16/8/9
f 9/4/10 11/6/10 15/6/10 13/4/10
f 11/6/3 12/8/3 16/8/3 15/6/3
f 19/6/3 20/8/3 24/8/3 23/6/3
f 13/4/11 15/6/11 19/6/11 17/4/11
f 15/6/3 16/8/3 20/8/3 19/6/3
f 14/1/1 13/4/1 17/4/1 18/1/1
f 21/13/12 23/6/12 24/8/12 22/14/12
f 18/1/1 17/4/1 21/4/1 22/1/1
f 20/8/13 18/10/13 22/10/13 24/8/13
f 17/4/14 19/6/14 23/6/14 21/4/14
f 49/15/15 52/16/15 51/17/15 50/18/15
f 50/18/16 51/17/16 54/19/16 53/20/16
f 53/20/17 54/19/17 56/21/17 55/22/17
f 55/22/18 56/21/18 58/23/18 57/24/18
f 57/24/19 58/23/19 60/25/19 59/26/19
f 59/26/20 60/25/20 62/27/20 61/28/20
f 61/28/21 62/27/21 64/29/21 63/30/21
f 63/30/22 64/29/22 66/31/22 65/32/22
f 65/32/23 66/31/23 68/33/23 67/34/23
f 67/34/24 68/33/24 70/35/24 69/36/24
f 32/37/23 30/38/23 78/38/23 80/37/23
f 69/36/25 70/35/25 72/39/25 71/40/25
f 71/40/26 72/39/26 52/41/26 49/42/26
f 37/43/15 39/44/15 87/44/15 85/43/15
f 27/45/3 25/46/3 49/47/3 50/48/3
f 26/49/1 28/50/1 51/51/1 52/52/1
f 29/53/3 27/45/3 50/48/3 53/54/3
f 28/50/1 30/38/1 54/55/1 51/51/1
f 31/56/3 29/53/3 53/54/3 55/57/3
f 30/38/1 32/37/1 56/58/1 54/55/1
f 33/59/3 31/56/3 55/57/3 57/60/3
f 32/37/1 34/61/1 58/62/1 56/58/1
f 35/63/3 33/59/3 57/60/3 59/64/3
f 34/61/1 36/65/1 60/66/1 58/62/1
f 37/43/3 35/63/3 59/64/3 61/67/3
f 36/65/1 38/68/1 62/69/1 60/66/1
f 39/44/3 37/43/3 61/67/3 63/70/3
f 38/68/1 40/71/1 64/72/1 62/69/1
f 41/73/3 39/44/3 63/70/3 65/74/3
f 40/71/1 42/75/1 66/76/1 64/72/1
f 43/77/3 41/73/3 65/74/3 67/78/3
f 42/75/1 44/79/1 68/80/1 66/76/1
f 45/81/3 43/77/3 67/78/3 69/82/3
f 44/79/1 46/83/1 70/84/1 68/80/1
f 47/85/3 45/81/3 69/82/3 71/86/3
f 46/83/1 48/87/1 72/88/1 70/84/1
f 25/46/3 47/85/3 71/86/3 49/47/3
f 48/87/1 26/49/1 52/52/1 72/88/1
f 75/50/1 76/49/1 96/87/1 94/83/1 92/79/1 90/75/1 88/71/1 86/68/1 84/65/1 82/61/1 80/37/1 78/38/1
f 73/46/3 74/45/3 77/53/3 79/56/3 81/59/3 83/63/3 85/43/3 87/44/3 89/73/3 91/77/3 93/81/3 95/85/3
f 45/81/19 47/85/19 95/85/19 93/81/19
f 40/71/15 38/68/15 86/68/15 88/71/15
f 31/56/24 33/59/24 81/59/24 79/56/24
f 48/87/19 46/83/19 94/83/19 96/87/19
f 39/44/16 41/73/16 89/73/16 87/44/16
f 34/61/24 32/37/24 80/37/24 82/61/24
f 47/85/20 25/46/20 73/46/20 95/85/20
f 25/46/21 27/45/21 74/45/21 73/46/21
f 42/75/16 40/71/16 88/71/16 90/75/16
f 33/59/25 35/63/25 83/63/25 81/59/25
f 26/49/20 48/87/20 96/87/20 76/49/20
f 28/50/21 26/49/21 76/49/21 75/50/21
f 41/73/17 43/77/17 91/77/17 89/73/17
f 36/65/25 34/61/25 82/61/25 84/65/25
f 27/45/22 29/53/22 77/53/22 74/45/22
f 44/79/17 42/75/17 90/75/17 92/79/17
f 35/63/26 37/43/26 85/43/26 83/63/26
f 30/38/22 28/50/22 75/50/22 78/38/22
f 43/77/18 45/81/18 93/81/18 91/77/18
f 38/68/26 36/65/26 84/65/26 86/68/26
f 29/53/23 31/56/23 79/56/23 77/53/23
f 46/83/18 44/79/18 92/79/18 94/83/18
f 105/89/27 106/90/27 99/7/27 97/9/27 101/91/27 102/92/27
f 107/93/3 100/5/3 99/7/3 106/90/3
f 103/94/28 104/95/28 98/3/28 100/5/28 107/93/28 108/96/28
f 101/97/1 97/2/1 98/3/1 104/95/1
f 100/5/29 98/11/29 97/12/29 99/7/29
f 103/98/30 102/99/30 101/14/30 104/13/30
f 105/100/31 108/101/31 107/93/31 106/90/31
f 103/98/32 108/101/32 105/100/32 102/99/32
f 109/1/1 110/2/1 112/3/1 111/4/1
f 114/102/33 115/103/33 110/9/33 109/10/33
f 119/104/34 120/105/34 112/11/34 110/12/34 115/106/34 116/107/34
f 118/108/3 119/104/3 116/107/3 113/109/3
f 111/4/35 112/3/35 120/110/35 117/111/35
f 119/104/36 118/108/36 117/111/36 120/110/36
f 115/103/37 114/102/37 113/109/37 116/107/37
f 111/13/38 117/112/38 118/108/38 113/109/38 114/113/38 109/14/38
