# Blender 4.4.3
# www.blender.org
mtllib Stock32.mtl
o Cube.052
v -0.005808 0.103902 1.940828
v -0.043505 0.063310 1.940828
v -0.032464 0.092013 1.940828
v -0.043505 0.063310 1.662874
v -0.005808 0.103902 1.662874
v -0.032464 0.092013 1.662874
v 0.043505 0.063310 1.940828
v 0.005808 0.103902 1.940828
v 0.032464 0.092013 1.940828
v 0.005808 0.103902 1.662874
v 0.043505 0.063310 1.662874
v 0.032464 0.092013 1.662874
v -0.043505 0.026187 1.915644
v -0.043505 0.038769 1.940828
v -0.043505 0.028448 1.932092
v -0.043505 0.038769 1.662874
v -0.043505 0.026187 1.688058
v -0.043505 0.028448 1.671609
v 0.043505 0.038769 1.940828
v 0.043505 0.026187 1.915644
v 0.043505 0.028448 1.932092
v 0.043505 0.026187 1.688058
v 0.043505 0.038769 1.662874
v 0.043505 0.028448 1.671609
v -0.034057 0.038769 1.662874
v 0.034057 0.038769 1.662874
v -0.025414 0.084422 1.662874
v -0.034057 0.061952 1.662874
v -0.004547 0.093729 1.662874
v 0.004547 0.093729 1.662874
v 0.025414 0.084422 1.662874
v 0.034057 0.061952 1.662874
v 0.034057 0.038769 1.940828
v -0.034057 0.038769 1.940828
v 0.025414 0.084422 1.940828
v 0.004547 0.093729 1.940828
v 0.034057 0.061952 1.940828
v -0.034057 0.061952 1.940828
v -0.004547 0.093729 1.940828
v -0.025414 0.084422 1.940828
v 0.034057 0.026187 1.688058
v -0.034057 0.026187 1.688058
v -0.034057 0.028448 1.671609
v 0.034057 0.028448 1.671609
v -0.034057 0.026187 1.915644
v 0.034057 0.026187 1.915644
v 0.034057 0.028448 1.932092
v -0.034057 0.028448 1.932092
v -0.017345 0.014049 2.134516
v -0.051421 -0.046267 2.134516
v -0.046080 -0.003617 2.134516
v -0.039309 -0.047498 1.995897
v -0.014189 0.002363 1.995897
v -0.035908 -0.014071 1.995897
v 0.051422 -0.046267 2.134516
v 0.017346 0.014049 2.134516
v 0.046080 -0.003617 2.134516
v 0.014190 0.002363 1.995897
v 0.039310 -0.047498 1.995897
v 0.035909 -0.014071 1.995897
v -0.020631 -0.317648 1.995897
v -0.039309 -0.145327 1.995897
v 0.039310 -0.145327 1.995897
v 0.020632 -0.317648 1.995897
v 0.051422 -0.100593 2.134516
v -0.051421 -0.100593 2.134516
v 0.051422 -0.147227 2.130684
v -0.051421 -0.147227 2.130684
v -0.027562 -0.326074 2.115987
v 0.027563 -0.326074 2.115987
v -0.017345 0.014049 1.995897
v 0.017346 0.014049 1.995897
v -0.027562 -0.326074 1.995897
v -0.051421 -0.147227 1.995897
v -0.051421 -0.046267 1.995897
v -0.046080 -0.003617 1.995897
v 0.046080 -0.003617 1.995897
v 0.051422 -0.046267 1.995897
v 0.051422 -0.147227 1.995897
v 0.027563 -0.326074 1.995897
v -0.014189 0.002363 2.045392
v 0.014190 0.002363 2.045392
v -0.020631 -0.317648 2.045392
v -0.039309 -0.145327 2.045392
v -0.039309 -0.047498 2.045392
v -0.035908 -0.014071 2.045392
v 0.035909 -0.014071 2.045392
v 0.039310 -0.047498 2.045392
v 0.039310 -0.145327 2.045392
v 0.020632 -0.317648 2.045392
v 0.051422 -0.070790 2.017600
v 0.051422 -0.107207 2.017600
v 0.051422 -0.122964 1.995897
v 0.051422 -0.055034 1.995897
v -0.051421 -0.070790 2.017600
v -0.051421 -0.107207 2.017600
v -0.051421 -0.122964 1.995897
v -0.051421 -0.055034 1.995897
v -0.048272 -0.170838 2.017600
v -0.043413 -0.207254 2.017600
v -0.041311 -0.223011 1.995897
v -0.050374 -0.155081 1.995897
v 0.043414 -0.207254 2.017600
v 0.041312 -0.223011 1.995897
v 0.050374 -0.155081 1.995897
v 0.048272 -0.170838 2.017600
v -0.038252 -0.155081 1.995897
v -0.030889 -0.223011 1.995897
v -0.039309 -0.122964 1.995897
v -0.039309 -0.055034 1.995897
v 0.039310 -0.122964 1.995897
v 0.039310 -0.055034 1.995897
v 0.030890 -0.223011 1.995897
v 0.038253 -0.155081 1.995897
v 0.039310 -0.107207 2.017600
v 0.039310 -0.070790 2.017600
v -0.036544 -0.170838 2.017600
v -0.032597 -0.207254 2.017600
v 0.032598 -0.207254 2.017600
v 0.036545 -0.170838 2.017600
v -0.039309 -0.070790 2.017600
v -0.039309 -0.107207 2.017600
vn -0.0000 1.0000 -0.0000
vn -0.0000 -0.0000 -1.0000
vn -0.0000 -0.0000 1.0000
vn 1.0000 -0.0000 -0.0000
vn -0.4073 0.9133 -0.0000
vn -0.9333 0.3590 -0.0000
vn 0.4073 0.9133 -0.0000
vn 0.9333 0.3590 -0.0000
vn -1.0000 -0.0000 -0.0000
vn -0.0000 -0.9907 -0.1361
vn -0.0000 -0.6460 -0.7633
vn -0.0000 -0.9907 0.1361
vn -0.0000 -0.6460 0.7633
vn -0.0000 -1.0000 -0.0000
vn 0.4073 -0.9133 -0.0000
vn 0.9333 -0.3590 -0.0000
vn -0.4073 -0.9133 -0.0000
vn -0.9333 -0.3590 -0.0000
vn 0.9949 -0.1012 -0.0000
vn -0.5237 0.8519 -0.0000
vn -0.9922 0.1243 -0.0000
vn 0.5237 0.8519 -0.0000
vn 0.9922 0.1243 -0.0000
vn -0.9912 -0.1322 -0.0000
vn 0.9912 -0.1322 -0.0000
vn -0.0000 -0.0819 0.9966
vn 0.6034 -0.7974 -0.0000
vn 0.9942 0.1078 -0.0000
vn -0.9942 0.1078 -0.0000
vn -0.6034 -0.7974 -0.0000
vn -0.9949 -0.1012 -0.0000
vn -0.0000 0.8092 -0.5875
vn -0.0000 -0.8092 -0.5875
vt 0.733313 0.500000
vt 0.766687 0.500000
vt 0.766687 0.750000
vt 0.733313 0.750000
vt 0.423022 0.277146
vt 0.423022 0.250000
vt 0.516687 0.250000
vt 0.593276 0.281724
vt 0.625000 0.358313
vt 0.625000 0.391687
vt 0.593276 0.468276
vt 0.516687 0.500000
vt 0.423022 0.500000
vt 0.423022 0.472854
vt 0.504993 0.472854
vt 0.570239 0.448020
vt 0.595293 0.388064
vt 0.595293 0.361937
vt 0.570239 0.301980
vt 0.504993 0.277146
vt 0.423022 0.750000
vt 0.516687 0.750000
vt 0.593276 0.781724
vt 0.625000 0.858313
vt 0.625000 0.891687
vt 0.593276 0.968276
vt 0.516687 1.000000
vt 0.423022 1.000000
vt 0.423022 0.972854
vt 0.504993 0.972854
vt 0.570239 0.948020
vt 0.595293 0.888063
vt 0.595293 0.861937
vt 0.570239 0.801980
vt 0.504993 0.777146
vt 0.423022 0.777146
vt 0.389065 0.509833
vt 0.389065 0.740167
vt 0.375000 0.716428
vt 0.375000 0.533572
vt 0.875000 0.500000
vt 0.875000 0.750000
vt 0.625000 0.000000
vt 0.625000 0.250000
vt 0.516687 0.000000
vt 0.625000 0.750000
vt 0.625000 0.500000
vt 0.389065 0.009833
vt 0.423022 0.000000
vt 0.389065 0.240167
vt 0.375000 0.216428
vt 0.375000 0.033572
vt 0.125000 0.533572
vt 0.125000 0.500000
vt 0.152146 0.500000
vt 0.152146 0.533572
vt 0.347854 0.500000
vt 0.375000 0.500000
vt 0.347854 0.533572
vt 0.375000 0.250000
vt 0.375000 0.277146
vt 0.375000 0.472854
vt 0.347854 0.716428
vt 0.375000 0.750000
vt 0.347854 0.750000
vt 0.125000 0.750000
vt 0.125000 0.716428
vt 0.152146 0.716428
vt 0.152146 0.750000
vt 0.375000 0.777146
vt 0.375000 1.000000
vt 0.375000 0.972854
vt 0.766688 0.545433
vt 0.733313 0.545433
vt 0.733313 0.704567
vt 0.766687 0.704567
vt 0.455094 0.550435
vt 0.450938 0.559852
vt 0.450938 0.690148
vt 0.455094 0.699565
vt 0.474069 0.704567
vt 0.516687 0.704567
vt 0.516687 0.545433
vt 0.474069 0.545433
vt 0.455094 0.050435
vt 0.450938 0.059852
vt 0.450938 0.190148
vt 0.455094 0.199565
vt 0.474069 0.204567
vt 0.516687 0.204567
vt 0.516687 0.045433
vt 0.474069 0.045433
vt 0.875000 0.545433
vt 0.875000 0.704567
vt 0.625000 0.204567
vt 0.625000 0.045433
vt 0.625000 0.545433
vt 0.625000 0.704567
vt 0.669334 0.500000
vt 0.830666 0.500000
vt 0.830666 0.750000
vt 0.669334 0.750000
vt 0.571897 0.260001
vt 0.600318 0.267928
vt 0.625000 0.794334
vt 0.625000 0.955666
vt 0.612015 0.987015
vt 0.580666 1.000000
vt 0.494325 1.000000
vt 0.494325 0.750000
vt 0.580666 0.750000
vt 0.612015 0.762985
vt 0.566733 0.500000
vt 0.580666 0.500000
vt 0.420209 0.743089
vt 0.420209 0.500000
vt 0.458771 0.500000
vt 0.483814 0.539140
vt 0.541691 0.539140
vt 0.580666 0.250000
vt 0.580666 0.000000
vt 0.458771 0.250000
vt 0.420209 0.250000
vt 0.420209 0.006911
vt 0.494325 0.000000
vt 0.566733 0.250000
vt 0.541691 0.210860
vt 0.483814 0.210860
vt 0.144157 0.500000
vt 0.170209 0.500000
vt 0.170209 0.716583
vt 0.125000 0.743089
vt 0.126985 0.500000
vt 0.130968 0.539141
vt 0.140174 0.539141
vt 0.416239 0.500000
vt 0.329791 0.716583
vt 0.329791 0.500000
vt 0.381896 0.500000
vt 0.389862 0.539141
vt 0.408273 0.539141
vt 0.388560 0.320510
vt 0.388560 0.429490
vt 0.509044 0.476657
vt 0.540460 0.476657
vt 0.540460 0.273343
vt 0.509044 0.273343
vt 0.611435 0.444273
vt 0.611435 0.305727
vt 0.625000 0.294334
vt 0.625000 0.455666
vt 0.375000 0.295209
vt 0.401052 0.269157
vt 0.411818 0.280275
vt 0.381553 0.304624
vt 0.436662 0.260287
vt 0.433543 0.262797
vt 0.418224 0.251985
vt 0.467576 0.260222
vt 0.561480 0.260023
vt 0.612015 0.262985
vt 0.600318 0.482072
vt 0.612015 0.487015
vt 0.571897 0.489999
vt 0.561480 0.489977
vt 0.436662 0.489713
vt 0.467576 0.489778
vt 0.418224 0.498015
vt 0.433543 0.487203
vt 0.401052 0.480843
vt 0.375000 0.454791
vt 0.381553 0.445376
vt 0.411818 0.469725
vt 0.539698 0.489931
vt 0.489357 0.489824
vt 0.416857 0.276221
vt 0.428504 0.266851
vt 0.428504 0.483149
vt 0.416857 0.473779
vt 0.489357 0.260176
vt 0.539698 0.260069
vt 0.560965 0.824646
vt 0.560965 0.809132
vt 0.439035 0.809132
vt 0.439035 0.824646
vt 0.439035 0.925353
vt 0.439035 0.940868
vt 0.560965 0.940868
vt 0.560965 0.925353
vt 0.184133 0.697244
vt 0.184133 0.750000
vt 0.199647 0.750000
vt 0.199647 0.697244
vt 0.315868 0.750000
vt 0.315868 0.697244
vt 0.300354 0.697244
vt 0.300354 0.750000
vt 0.613721 0.809132
vt 0.613721 0.824646
vt 0.613721 0.940867
vt 0.613721 0.925353
vt 0.560965 0.828188
vt 0.560965 0.813167
vt 0.439035 0.819390
vt 0.439035 0.833245
vt 0.439035 0.916755
vt 0.439035 0.930610
vt 0.560965 0.936833
vt 0.560965 0.921811
vt 0.197083 0.697243
vt 0.194390 0.750000
vt 0.208245 0.750000
vt 0.210433 0.697243
vt 0.291755 0.750000
vt 0.305610 0.750000
vt 0.302918 0.697243
vt 0.289568 0.697243
vt 0.613721 0.810474
vt 0.613721 0.826001
vt 0.613721 0.939525
vt 0.613721 0.923999
s 0
f 10/1/1 5/2/1 1/3/1 8/4/1
f 25/5/2 16/6/2 4/7/2 6/8/2 5/9/2 10/10/2 12/11/2 11/12/2 23/13/2 26/14/2 32/15/2 31/16/2 30/17/2 29/18/2 27/19/2 28/20/2
f 19/21/3 7/22/3 9/23/3 8/24/3 1/25/3 3/26/3 2/27/3 14/28/3 34/29/3 38/30/3 40/31/3 39/32/3 36/33/3 35/34/3 37/35/3 33/36/3
f 24/37/4 23/13/4 11/12/4 7/22/4 19/21/4 21/38/4 20/39/4 22/40/4
f 1/3/5 5/2/5 6/41/5 3/42/5
f 3/43/6 6/44/6 4/7/6 2/45/6
f 10/1/7 8/4/7 9/46/7 12/47/7
f 12/47/8 9/46/8 7/22/8 11/12/8
f 15/48/9 14/49/9 2/45/9 4/7/9 16/6/9 18/50/9 17/51/9 13/52/9
f 17/53/10 18/54/10 43/55/10 42/56/10
f 44/57/10 24/58/10 22/40/10 41/59/10
f 18/60/11 16/6/11 25/5/11 43/61/11
f 26/14/11 23/13/11 24/58/11 44/62/11
f 46/63/12 20/39/12 21/64/12 47/65/12
f 15/66/12 13/67/12 45/68/12 48/69/12
f 47/70/13 21/64/13 19/21/13 33/36/13
f 14/28/13 15/71/13 48/72/13 34/29/13
f 41/59/14 22/40/14 20/39/14 46/63/14
f 45/68/14 13/67/14 17/53/14 42/56/14
f 29/73/14 30/74/14 36/75/14 39/76/14
f 44/77/9 41/78/9 46/79/9 47/80/9 33/81/9 37/82/9 32/83/9 26/84/9
f 48/85/4 45/86/4 42/87/4 43/88/4 25/89/4 28/90/4 38/91/4 34/92/4
f 27/93/15 29/73/15 39/76/15 40/94/15
f 28/90/16 27/95/16 40/96/16 38/91/16
f 30/74/17 31/97/17 35/98/17 36/75/17
f 31/97/18 32/83/18 37/82/18 35/98/18
f 72/99/1 71/100/1 49/101/1 56/102/1
f 52/103/19 54/104/19 86/104/19 85/103/19
f 56/105/3 49/106/3 51/107/3 50/108/3 66/109/3 65/110/3 55/111/3 57/112/3
f 94/113/4 78/114/4 55/111/4 65/110/4 67/115/4 79/116/4 93/117/4 92/118/4 91/119/4
f 49/101/20 71/100/20 76/41/20 51/42/20
f 51/43/21 76/44/21 75/120/21 50/121/21
f 72/99/22 56/102/22 57/46/22 77/47/22
f 77/47/23 57/46/23 55/111/23 78/114/23
f 97/122/9 74/123/9 68/124/9 66/125/9 50/121/9 75/120/9 98/126/9 95/127/9 96/128/9
f 101/129/24 73/130/24 69/131/24 68/132/24 74/54/24 102/133/24 99/134/24 100/135/24
f 105/136/25 79/116/25 67/115/25 70/137/25 80/138/25 104/139/25 103/140/25 106/141/25
f 69/131/14 73/130/14 80/138/14 70/137/14
f 69/142/26 70/143/26 67/144/26 65/145/26 66/146/26 68/147/26
f 58/148/2 53/149/2 71/150/2 72/151/2
f 73/152/2 101/153/2 108/154/2 61/155/2
f 74/123/2 62/156/2 107/157/2 102/158/2
f 62/156/2 74/123/2 97/122/2 109/159/2
f 98/126/2 75/120/2 52/103/2 110/160/2
f 54/104/2 52/103/2 75/120/2 76/161/2
f 53/149/2 54/104/2 76/161/2 71/150/2
f 60/162/2 58/148/2 72/151/2 77/163/2
f 59/164/2 60/162/2 77/163/2 78/114/2
f 112/165/2 59/164/2 78/114/2 94/113/2
f 79/116/2 63/166/2 111/167/2 93/117/2
f 63/166/2 79/116/2 105/168/2 114/169/2
f 104/170/2 80/171/2 64/172/2 113/173/2
f 61/155/2 64/172/2 80/171/2 73/152/2
f 85/103/2 86/104/2 81/149/2 82/148/2 87/162/2 88/164/2 89/166/2 90/172/2 83/155/2 84/156/2
f 53/149/14 58/148/14 82/148/14 81/149/14
f 63/166/9 89/166/9 88/164/9 59/164/9 112/165/9 116/174/9 115/175/9 111/167/9
f 54/104/27 53/149/27 81/149/27 86/104/27
f 107/157/28 62/156/28 84/156/28 83/155/28 61/155/28 108/154/28 118/176/28 117/177/28
f 64/172/29 90/172/29 89/166/29 63/166/29 114/169/29 120/178/29 119/179/29 113/173/29
f 58/148/30 60/162/30 87/162/30 82/148/30
f 110/160/4 52/103/4 85/103/4 84/156/4 62/156/4 109/159/4 122/180/4 121/181/4
f 64/172/1 61/155/1 83/155/1 90/172/1
f 60/162/31 59/164/31 88/164/31 87/162/31
f 116/182/2 91/183/2 92/184/2 115/185/2
f 122/186/2 96/187/2 95/188/2 121/189/2
f 97/190/32 96/191/32 122/192/32 109/193/32
f 92/194/32 93/195/32 111/196/32 115/197/32
f 94/198/33 91/183/33 116/182/33 112/199/33
f 98/200/33 110/201/33 121/189/33 95/188/33
f 120/202/2 106/203/2 103/204/2 119/205/2
f 118/206/2 100/207/2 99/208/2 117/209/2
f 101/210/32 100/211/32 118/212/32 108/213/32
f 119/214/32 103/215/32 104/216/32 113/217/32
f 105/218/33 106/203/33 120/202/33 114/219/33
f 117/209/33 99/208/33 102/220/33 107/221/33
