# Blender 4.4.3
# www.blender.org
mtllib Stock11.mtl
o Cube.007
v 0.031258 0.033027 1.964290
v 0.031258 -0.117046 1.964290
v -0.031258 0.033027 1.964290
v -0.031258 -0.117046 1.964290
v -0.019493 0.013409 1.809975
v -0.019493 0.055150 1.809975
v 0.000000 0.013409 1.815198
v 0.031258 -0.299236 1.951908
v 0.000000 0.023193 1.851960
v -0.031258 -0.299236 1.951908
v -0.031258 0.071941 1.951908
v 0.000000 0.055150 1.815198
v 0.000000 0.045367 1.851960
v 0.031258 0.071941 1.951908
v 0.019493 0.013409 1.809975
v 0.019493 0.055150 1.809975
v 0.019493 0.013409 1.742450
v 0.019493 0.055150 1.742450
v 0.000000 0.013409 1.737226
v 0.000000 0.023193 1.700465
v 0.000000 0.055150 1.737226
v 0.000000 0.045367 1.700465
v -0.019493 0.013409 1.742450
v -0.019493 0.055150 1.742450
v 0.031258 0.033027 1.708840
v 0.031258 0.023193 1.708840
v 0.031258 0.013409 1.754214
v 0.031258 0.019671 1.722072
v 0.031258 0.023193 1.843584
v 0.031258 0.033027 1.843584
v 0.031258 0.019671 1.830353
v 0.031258 0.013409 1.798210
v 0.031258 0.045367 1.843584
v 0.031258 0.048888 1.830353
v 0.031258 0.045367 1.708840
v 0.031258 0.048888 1.722072
v 0.031258 0.055150 1.754214
v 0.031258 0.055150 1.798210
v -0.031258 0.019671 1.722072
v -0.031258 0.023193 1.708840
v -0.031258 0.033027 1.708840
v -0.031258 0.013409 1.754214
v -0.031258 0.013409 1.798210
v -0.031258 0.023193 1.843584
v -0.031258 0.033027 1.843584
v -0.031258 0.019671 1.830353
v -0.031258 0.045367 1.708840
v -0.031258 0.048888 1.722072
v -0.031258 0.045367 1.843584
v -0.031258 0.048888 1.830353
v -0.031258 0.055150 1.754214
v -0.031258 0.055150 1.798210
v -0.031258 -0.069475 1.458045
v -0.031258 -0.089783 1.487855
v -0.031258 -0.069475 1.604830
v -0.031258 -0.013205 1.604830
v -0.031258 -0.089783 1.575020
v -0.031258 -0.013205 1.458045
v -0.031258 0.009383 1.487855
v -0.031258 0.009383 1.575020
v 0.031258 -0.069475 1.458045
v 0.031258 -0.069475 1.604830
v 0.031258 -0.089783 1.575020
v 0.031258 -0.089783 1.487855
v 0.031258 -0.013205 1.458045
v 0.031258 0.009383 1.487855
v 0.031258 0.009383 1.575020
v 0.031258 -0.013205 1.604830
v 0.031258 0.011407 1.659706
v 0.009638 0.033027 1.641254
v 0.009638 -0.117046 1.723504
v 0.031258 -0.095427 1.745124
v -0.009638 0.033027 1.641254
v -0.031258 0.011407 1.659706
v -0.031258 -0.095427 1.745124
v -0.009638 -0.117046 1.723504
v -0.031258 0.071941 1.669336
v -0.009638 0.071941 1.647445
v 0.009638 0.071941 1.647445
v 0.031258 0.071941 1.669336
v 0.031258 -0.253986 1.745124
v 0.009638 -0.243796 1.723504
v -0.031258 -0.253986 1.745124
v -0.009638 -0.243796 1.723504
v 0.031258 -0.283483 1.709375
v 0.009638 -0.277523 1.682629
v 0.031258 -0.299236 1.716838
v 0.009638 -0.299236 1.692915
v -0.009638 -0.299236 1.692915
v -0.031258 -0.299236 1.716838
v -0.031258 -0.283483 1.709375
v -0.009638 -0.277523 1.682629
v 0.031258 0.011407 1.408170
v 0.031258 -0.095427 1.408170
v -0.031258 -0.095427 1.408170
v -0.031258 0.011407 1.408170
v 0.009638 -0.117046 1.408170
v -0.009638 -0.117046 1.408170
v -0.009638 0.033027 1.408170
v 0.009638 0.033027 1.408170
vn -0.0000 0.1571 -0.9876
vn -0.0000 0.1534 0.9882
vn -0.0000 -0.0339 0.9994
vn -1.0000 -0.0000 -0.0000
vn 1.0000 -0.0000 -0.0000
vn -0.0000 -0.0678 0.9977
vn -0.0000 -1.0000 -0.0000
vn -0.0000 1.0000 -0.0000
vn -0.0000 0.7713 -0.6364
vn -0.0000 0.3032 0.9529
vn -0.0000 -0.4281 -0.9037
vn -0.0000 -0.0000 -1.0000
vn 0.2588 -0.0000 -0.9659
vn -0.2588 -0.0000 -0.9659
vn -0.2588 -0.0000 0.9659
vn -0.0000 -0.0000 1.0000
vn 0.2588 -0.0000 0.9659
vn -0.0481 -0.9977 0.0481
vn -0.0754 -0.9886 0.1306
vn -0.0000 -0.9886 0.1508
vn 0.0754 -0.9886 0.1306
vn 0.0481 -0.9977 0.0481
vn 0.0481 -0.9977 -0.0481
vn 0.0754 -0.9886 -0.1306
vn -0.0000 -0.9886 -0.1508
vn -0.0754 -0.9886 -0.1306
vn -0.0481 -0.9977 -0.0481
vn 0.0754 0.9886 -0.1306
vn 0.0883 0.9653 -0.2457
vn 0.0481 0.9977 -0.0481
vn 0.0883 -0.9653 -0.2457
vn 0.0688 0.9641 -0.2566
vn -0.0000 0.9886 -0.1508
vn -0.0000 0.9664 -0.2572
vn 0.0688 -0.9641 -0.2566
vn -0.0000 -0.9664 -0.2572
vn -0.0883 0.9653 -0.2457
vn -0.0688 0.9641 -0.2566
vn -0.0754 0.9886 -0.1306
vn -0.0688 -0.9641 -0.2566
vn -0.0883 -0.9653 -0.2457
vn -0.0481 0.9977 -0.0481
vn -0.0481 0.9977 0.0481
vn -0.0754 0.9886 0.1306
vn -0.0883 0.9653 0.2457
vn -0.0883 -0.9653 0.2457
vn -0.0687 0.9641 0.2566
vn -0.0000 0.9886 0.1508
vn -0.0000 0.9664 0.2572
vn -0.0688 -0.9641 0.2566
vn -0.0000 -0.9664 0.2572
vn 0.0687 0.9641 0.2566
vn 0.0754 0.9886 0.1306
vn 0.0883 0.9653 0.2457
vn 0.0688 -0.9641 0.2566
vn 0.0883 -0.9653 0.2457
vn 0.0481 0.9977 0.0481
vn -0.0000 0.8265 0.5630
vn -0.0000 -0.7970 0.6039
vn -0.0000 0.8265 -0.5630
vn -0.0000 -0.7970 -0.6039
vn -0.7071 -0.7071 -0.0000
vn -0.7071 0.7071 -0.0000
vn 0.7071 0.7071 -0.0000
vn 0.7071 -0.7071 -0.0000
vn 0.7071 0.1111 -0.6983
vn 0.7071 -0.0000 -0.7071
vn -0.7071 -0.0000 -0.7071
vn -0.7071 0.5454 -0.4500
vn -0.7071 -0.3027 -0.6390
vn -0.7071 0.1111 -0.6983
vn 0.7071 0.5454 -0.4500
vn 0.7071 -0.3027 -0.6390
vt 0.288544 0.592532
vt 0.211456 0.592532
vt 0.375000 0.250000
vt 0.625000 0.250000
vt 0.625000 0.500000
vt 0.375000 0.500000
vt 0.411015 0.590535
vt 0.375000 0.573173
vt 0.391382 0.574444
vt 0.397248 0.571071
vt 0.407680 0.562467
vt 0.407680 0.549505
vt 0.397248 0.539485
vt 0.391382 0.535343
vt 0.375000 0.534576
vt 0.588985 0.580997
vt 0.375000 0.164121
vt 0.375000 0.163352
vt 0.375000 0.176827
vt 0.375000 0.176612
vt 0.375000 0.180429
vt 0.375000 0.189876
vt 0.375000 0.202916
vt 0.375000 0.212213
vt 0.375000 0.215946
vt 0.375000 0.215424
vt 0.588985 0.171289
vt 0.562039 0.120170
vt 0.599666 0.105258
vt 0.599666 0.072701
vt 0.562039 0.063675
vt 0.452015 0.069838
vt 0.414387 0.085166
vt 0.414387 0.123599
vt 0.452015 0.132372
vt 0.411015 0.160488
vt 0.411015 0.059378
vt 0.588985 0.052166
vt 0.411015 0.589512
vt 0.452015 0.617628
vt 0.414387 0.626401
vt 0.414387 0.664834
vt 0.452015 0.680163
vt 0.562039 0.686325
vt 0.599666 0.677299
vt 0.599666 0.644742
vt 0.562039 0.629830
vt 0.588985 0.578711
vt 0.588985 0.697834
vt 0.411015 0.690622
vt 0.411015 0.159465
vt 0.588985 0.169003
vt 0.391382 0.214657
vt 0.397248 0.210515
vt 0.407680 0.200495
vt 0.407680 0.187533
vt 0.397248 0.178929
vt 0.391382 0.175556
vt 0.375000 0.585879
vt 0.375000 0.534054
vt 0.375000 0.537787
vt 0.375000 0.547084
vt 0.375000 0.560124
vt 0.375000 0.569571
vt 0.375000 0.573388
vt 0.375000 0.586648
vt 0.625000 0.182882
vt 0.625000 0.192515
vt 0.625000 0.163622
vt 0.625000 0.181176
vt 0.711456 0.699796
vt 0.711456 0.592533
vt 0.788544 0.592532
vt 0.788543 0.699796
vt 0.411015 0.589921
vt 0.588985 0.579587
vt 0.125000 0.585879
vt 0.125000 0.500000
vt 0.711456 0.578780
vt 0.788544 0.578780
vt 0.588985 0.170413
vt 0.411015 0.160079
vt 0.625000 0.557485
vt 0.625000 0.567118
vt 0.625000 0.568824
vt 0.625000 0.586378
vt 0.711456 0.563336
vt 0.788544 0.563336
vt 0.875000 0.500000
vt 0.875000 0.557485
vt 0.818776 0.734990
vt 0.818776 0.617195
vt 0.750000 0.617195
vt 0.750000 0.882805
vt 0.818776 0.882805
vt 0.681224 0.734990
vt 0.681224 0.882805
vt 0.681224 0.617195
vt 0.318776 0.734990
vt 0.318776 0.617195
vt 0.250000 0.617195
vt 0.250000 0.882805
vt 0.318776 0.882805
vt 0.181224 0.734990
vt 0.181224 0.882805
vt 0.181224 0.617195
vt 0.180301 0.150962
vt 0.143025 0.188238
vt 0.126476 0.250000
vt 0.143025 0.311762
vt 0.180301 0.349038
vt 0.319699 0.349038
vt 0.356975 0.311762
vt 0.373524 0.250000
vt 0.356975 0.188238
vt 0.319699 0.150962
vt 0.856975 0.311762
vt 0.921539 0.349038
vt 0.819699 0.349038
vt 0.421539 0.349038
vt 0.963463 0.349038
vt 0.873524 0.250000
vt 0.990000 0.250000
vt 0.463463 0.349038
vt 0.490000 0.250000
vt 0.921539 0.150962
vt 0.963463 0.150962
vt 0.856975 0.188238
vt 0.463463 0.150962
vt 0.421539 0.150962
vt 0.819699 0.150962
vt 0.680301 0.150962
vt 0.643025 0.188238
vt 0.578461 0.150962
vt 0.078461 0.150962
vt 0.536537 0.150962
vt 0.626476 0.250000
vt 0.510000 0.250000
vt 0.078461 0.150962
vt 0.036537 0.150962
vt 0.010000 0.250000
vt 0.536537 0.349038
vt 0.643025 0.311762
vt 0.578461 0.349038
vt 0.036537 0.349038
vt 0.078461 0.349038
vt 0.680301 0.349038
vt 0.574228 0.843802
vt 0.574228 0.906198
vt 0.425772 0.906198
vt 0.425772 0.843802
vt 0.781198 0.550772
vt 0.781198 0.699228
vt 0.718802 0.699228
vt 0.718802 0.550772
vt 0.425772 0.406198
vt 0.425772 0.343802
vt 0.574228 0.343802
vt 0.574228 0.406198
vt 0.281198 0.550772
vt 0.218802 0.550772
vt 0.218802 0.500000
vt 0.281198 0.500000
vt 0.625000 0.343802
vt 0.625000 0.406198
vt 0.281198 0.750000
vt 0.218802 0.750000
vt 0.218802 0.699228
vt 0.281198 0.699228
vt 0.625000 0.906198
vt 0.625000 0.843802
vt 0.288544 0.688904
vt 0.211456 0.688904
vt 0.125000 0.691740
vt 0.125000 0.592532
vt 0.625000 0.050204
vt 0.625000 0.157468
vt 0.375000 0.157468
vt 0.875000 0.592532
vt 0.625000 0.171220
vt 0.625000 0.186664
vt 0.524039 0.357623
vt 0.508303 0.318644
vt 0.430542 0.318644
vt 0.414806 0.357623
vt 0.414806 0.392377
vt 0.430542 0.431356
vt 0.508303 0.431356
vt 0.524039 0.392377
s 1
f 73/1/1 78/1/1 79/2/1 70/2/1
f 1/3/2 3/6/2 4/5/3 2/4/3
f 74/7/4 75/16/4 4/5/4 3/6/4 45/15/4 44/14/4 46/13/4 43/12/4 42/11/4 39/10/4 40/9/4 41/8/4
f 80/17/5 14/3/5 1/3/5 30/26/5 33/25/5 34/24/5 38/23/5 37/22/5 36/21/5 35/20/5 25/19/5 69/18/5
f 72/27/5 94/38/5 93/37/5 69/36/5 68/35/5 67/34/5 66/33/5 65/32/5 61/31/5 64/30/5 63/29/5 62/28/5
f 74/39/4 96/50/4 95/49/4 75/48/4 55/47/4 57/46/4 54/45/4 53/44/4 58/43/4 59/42/4 60/41/4 56/40/4
f 4/5/3 10/5/6 8/4/6 2/4/3
f 69/51/5 25/19/5 26/58/5 28/57/5 27/56/5 32/55/5 31/54/5 29/53/5 30/26/5 1/3/5 2/4/5 72/52/5
f 77/59/4 74/66/4 41/8/4 47/65/4 48/64/4 51/63/4 52/62/4 50/61/4 49/60/4 45/15/4 3/6/4 11/6/4
f 85/67/5 81/70/5 72/69/5 2/4/5 8/4/5 87/68/5
f 98/71/7 97/74/7 71/73/7 76/72/7
f 74/75/4 56/40/4 55/47/4 75/76/4
f 80/77/8 79/2/8 78/1/8 77/59/8 11/6/8 14/78/8
f 82/73/9 86/80/9 92/79/9 84/72/9
f 72/81/5 62/28/5 68/35/5 69/82/5
f 1/3/2 14/3/10 11/6/10 3/6/2
f 90/83/4 10/5/4 4/5/4 75/86/4 83/85/4 91/84/4
f 89/87/11 92/79/11 86/80/11 88/88/11
f 90/83/7 89/87/7 88/88/7 87/90/7 8/89/7 10/5/7
f 71/73/12 82/73/12 84/72/12 76/72/12
f 45/91/13 49/95/13 13/94/13 9/93/13 44/92/13
f 30/96/14 29/98/14 9/93/14 13/94/14 33/97/14
f 25/99/15 35/103/15 22/102/16 20/101/16 26/100/15
f 41/104/17 40/106/17 20/101/16 22/102/16 47/105/17
f 37/107/18 38/116/27 16/115/26 12/114/25 6/113/24 52/112/23 51/111/22 24/110/21 21/109/20 18/108/19
f 5/117/28 43/119/30 46/118/29
f 6/113/24 50/120/31 52/112/23
f 44/121/32 9/123/34 7/122/33 5/117/28 46/118/29
f 50/120/31 6/113/24 12/114/25 13/125/36 49/124/35
f 31/126/37 15/128/39 7/122/33 9/123/34 29/127/38
f 33/129/40 13/125/36 12/114/25 16/115/26 34/130/41
f 31/126/37 32/131/42 15/128/39
f 16/115/26 38/116/27 34/130/41
f 27/132/43 28/134/45 17/133/44
f 37/107/18 18/108/19 36/135/46
f 26/136/47 20/138/49 19/137/48 17/133/44 28/134/45
f 36/139/46 18/108/19 21/109/20 22/141/51 35/140/50
f 40/142/52 39/144/54 23/143/53 19/137/48 20/138/49
f 47/145/55 22/141/51 21/109/20 24/110/21 48/146/56
f 23/143/53 39/144/54 42/147/57
f 24/110/21 51/111/22 48/146/56
f 42/147/57 43/119/30 5/117/28 7/122/33 15/128/39 32/131/42 27/132/43 17/133/44 19/137/48 23/143/53
f 68/148/12 62/151/12 55/150/12 56/149/12
f 59/152/7 66/155/7 67/154/7 60/153/7
f 61/156/16 65/159/16 58/158/16 53/157/16
f 64/160/58 61/163/58 53/162/58 54/161/58
f 58/158/59 65/159/59 66/165/59 59/164/59
f 62/166/60 63/169/60 57/168/60 55/167/60
f 60/170/61 67/171/61 68/148/61 56/149/61
f 63/169/8 64/160/8 54/161/8 57/168/8
f 95/49/62 98/71/62 76/72/62 75/48/62
f 73/1/63 99/172/63 96/50/63 74/39/63
f 70/2/64 69/175/64 93/174/64 100/173/64
f 97/176/65 94/38/65 72/27/65 71/177/65
f 69/18/66 70/178/66 79/178/66 80/17/66
f 71/73/67 72/179/67 81/179/67 82/73/67
f 75/86/68 76/72/68 84/72/68 83/85/68
f 83/85/69 84/72/69 92/79/69 91/84/69
f 89/87/70 90/83/70 91/84/70 92/79/70
f 73/1/71 74/66/71 77/59/71 78/1/71
f 82/177/72 81/70/72 85/67/72 86/180/72
f 86/180/73 85/67/73 87/68/73 88/181/73
f 100/173/8 99/172/8 73/1/8 70/2/8
f 99/182/12 100/189/12 93/188/12 94/187/12 97/186/12 98/185/12 95/184/12 96/183/12
