# Blender 4.0.2
# www.blender.org
mtllib Bold.mtl
o Cube.010
v 0.050063 0.327225 0.186442
v 0.050063 0.360290 0.186442
v 0.050063 0.360290 0.042595
v 0.075511 0.327225 0.186442
v 0.075511 0.360290 0.186442
v 0.075511 0.360290 0.042595
v 0.050063 0.327225 0.114518
v 0.050063 0.360290 0.114518
v 0.075511 0.327225 0.114518
v 0.075511 0.360290 0.114518
v 0.050063 0.369468 0.114518
v 0.050063 0.383722 0.100265
v 0.050063 0.379547 0.110344
v 0.075511 0.383722 0.100265
v 0.075511 0.369468 0.114518
v 0.075511 0.379547 0.110344
v 0.050063 0.348195 0.042595
v 0.050063 0.327225 0.063565
v 0.050063 0.333367 0.048737
v 0.075511 0.327225 0.063565
v 0.075511 0.348195 0.042595
v 0.075511 0.333367 0.048737
v 0.050063 0.383722 0.063565
v 0.050063 0.362752 0.042595
v 0.050063 0.377580 0.048737
v 0.075511 0.362752 0.042595
v 0.075511 0.383722 0.063565
v 0.075511 0.377580 0.048737
v 0.050063 0.327225 0.161689
v 0.050063 0.360290 0.161689
v 0.126704 0.360290 0.172828
v 0.126704 0.360290 0.186442
v 0.126704 0.327225 0.186442
v 0.126704 0.327225 0.172828
v 0.098875 0.360290 0.169295
v 0.075511 0.360290 0.145932
v 0.052148 0.360290 0.161689
v 0.075511 0.360290 0.185052
v 0.082354 0.360290 0.162452
v 0.075511 0.327225 0.145932
v 0.098875 0.327225 0.169295
v 0.075511 0.327225 0.185052
v 0.052148 0.327225 0.161689
v 0.082354 0.327225 0.162452
vn 1.0000 -0.0000 -0.0000
vn -0.0000 -1.0000 -0.0000
vn -0.0000 -0.0000 1.0000
vn -1.0000 -0.0000 -0.0000
vn -0.0000 -0.0000 -1.0000
vn -0.0000 0.3827 0.9239
vn -0.0000 0.9239 0.3827
vn -0.0000 1.0000 -0.0000
vn -0.0000 -0.9239 -0.3827
vn -0.0000 -0.3827 -0.9239
vn -0.0000 0.9239 -0.3827
vn -0.0000 0.3827 -0.9239
vn 0.1259 -0.0000 -0.9920
vn 0.3827 -0.0000 -0.9239
vn 0.9239 -0.0000 -0.3827
vt 0.375000 0.536444
vt 0.421438 0.510674
vt 0.533551 0.500000
vt 0.625000 0.500000
vt 0.625000 0.625000
vt 0.375000 0.625000
vt 0.125000 0.536444
vt 0.375000 0.536444
vt 0.125000 0.625000
vt 0.375000 0.666376
vt 0.145482 0.706981
vt 0.125000 0.706981
vt 0.375000 0.750000
vt 0.625000 0.750000
vt 0.625000 1.000000
vt 0.375000 1.000000
vt 0.625000 0.666376
vt 0.375000 0.125000
vt 0.625000 0.125000
vt 0.625000 0.250000
vt 0.533551 0.250000
vt 0.421438 0.239326
vt 0.375000 0.213556
vt 0.375000 0.043019
vt 0.625000 0.043019
vt 0.875000 0.625000
vt 0.625000 0.510689
vt 0.625000 0.536444
vt 0.625000 0.600228
vt 0.625000 0.622581
vt 0.625000 0.132256
vt 0.625000 0.149772
vt 0.625000 0.213556
vt 0.625000 0.239326
vt 0.875000 0.600228
vt 0.875000 0.536444
vt 0.125000 0.500000
vt 0.375000 0.500000
vt 0.375000 0.250000
vt 0.875000 0.500000
vt 0.375000 0.000000
vt 0.625000 0.000000
vt 0.625000 0.747585
vt 0.854518 0.706980
vt 0.875000 0.706980
vt 0.875000 0.750000
vt 0.375000 0.747585
vt 0.375000 0.706980
vt 0.625000 0.706981
vt 0.625000 0.706981
vt 0.145482 0.706981
vt 0.375000 0.747585
vt 0.125000 0.750000
vt 0.375000 0.695088
s 0
f 20/1/1 22/2/1 21/3/1 6/4/1 10/5/1 9/6/1
f 18/7/2 20/8/2 9/6/2 7/9/2
f 7/9/2 9/6/2 40/10/2 43/11/2 29/12/2
f 4/13/3 5/14/3 2/15/3 1/16/3
f 9/6/1 10/5/1 36/17/1 40/10/1
f 7/18/4 8/19/4 3/20/4 17/21/4 19/22/4 18/23/4
f 6/4/5 3/20/5 24/20/5 26/4/5
f 29/24/4 30/25/4 8/19/4 7/18/4
f 8/26/3 10/5/3 15/5/3 11/26/3
f 10/5/1 6/4/1 26/4/1 28/27/1 27/28/1 14/29/1 16/30/1 15/5/1
f 3/20/4 8/19/4 11/19/4 13/31/4 12/32/4 23/33/4 25/34/4 24/20/4
f 11/26/6 15/5/6 16/30/6 13/26/6
f 13/26/7 16/30/7 14/29/7 12/35/7
f 27/28/8 23/36/8 12/35/8 14/29/8
f 20/8/9 18/7/9 19/37/9 22/38/9
f 22/38/10 19/39/10 17/21/10 21/3/10
f 23/36/11 27/28/11 28/4/11 25/40/11
f 25/20/12 28/4/12 26/4/12 24/20/12
f 17/21/5 3/20/5 6/4/5 21/3/5
f 1/41/4 2/42/4 30/25/4 29/24/4
f 38/43/8 37/44/8 30/45/8 2/46/8 5/14/8
f 4/13/2 42/47/2 41/48/2 34/48/2 33/13/2
f 41/48/13 35/49/13 31/50/13 34/48/13
f 34/48/1 31/50/1 32/14/1 33/13/1
f 5/14/3 4/13/3 33/13/3 32/14/3
f 29/12/2 43/51/2 42/52/2 4/13/2 1/53/2
f 10/5/8 8/26/8 30/45/8 37/44/8 36/17/8
f 35/49/8 39/50/8 36/50/8 37/44/8 38/43/8
f 40/10/2 44/54/2 41/48/2 42/47/2 43/51/2
f 35/49/14 41/48/14 44/48/14 39/50/14
f 39/50/15 44/48/15 40/10/15 36/17/15
f 35/50/8 38/43/8 5/14/8 32/14/8 31/50/8
