# Blender 4.0.2
# www.blender.org
mtllib Grey.mtl
o Cube.005
v -0.010793 0.106057 0.786821
v -0.010793 0.106057 0.592663
v 0.010793 0.106057 0.786821
v 0.010793 0.106057 0.592663
v -0.010793 -0.014291 0.720569
v -0.010793 0.060136 0.786821
v -0.010793 0.012578 0.762925
v -0.010793 -0.014291 0.658916
v -0.010793 0.012578 0.616559
v 0.010793 0.060136 0.786821
v 0.010793 -0.014291 0.720569
v 0.010793 0.012578 0.762925
v 0.010793 -0.014291 0.658916
v 0.010793 0.012578 0.616559
v 0.010793 -0.002239 0.662382
v 0.010793 0.098427 0.769370
v 0.010793 0.020235 0.626952
v 0.010793 0.060016 0.606964
v 0.010793 0.060016 0.769370
v 0.010793 0.020235 0.749382
v 0.010793 -0.002239 0.713953
v 0.010793 0.098427 0.606964
v -0.010793 -0.002239 0.713953
v -0.010793 0.098427 0.606964
v -0.010793 0.020235 0.626952
v -0.010793 0.060016 0.769370
v -0.010793 0.020235 0.749382
v -0.010793 0.098427 0.769370
v -0.010793 -0.002239 0.662382
v -0.010793 0.060016 0.606964
v -0.010793 0.105220 0.568738
v -0.010793 0.059299 0.568738
v 0.010793 0.105220 0.568738
v 0.010793 0.059299 0.568738
v 0.010793 0.036748 0.576705
v -0.010793 0.036748 0.576705
v 0.010793 0.061641 0.600197
v 0.010793 0.056317 0.598633
v 0.010793 0.071278 0.592663
v 0.010793 0.070863 0.594361
v 0.010793 0.053783 0.595855
v 0.010793 0.066965 0.598633
v -0.010793 0.053783 0.595855
v -0.010793 0.052420 0.594361
v -0.010793 0.050994 0.588525
v -0.010793 0.052420 0.582689
v -0.010793 0.056317 0.578417
v -0.010793 0.059604 0.577452
v -0.010793 0.056317 0.598633
v -0.010793 0.061641 0.600197
v -0.010793 0.071278 0.592663
v -0.010793 0.070863 0.594361
v -0.010793 0.066965 0.598633
v 0.010793 0.052420 0.594361
v 0.010793 0.050994 0.588525
v 0.010793 0.052420 0.582689
v 0.010793 0.056317 0.578417
v 0.010793 0.059604 0.577452
v -0.010793 0.072289 0.588525
v -0.010793 0.070863 0.582689
v -0.010793 0.061641 0.576853
v -0.010793 0.066965 0.578417
v 0.010793 0.072289 0.588525
v 0.010793 0.061641 0.576853
v 0.010793 0.066965 0.578417
v 0.010793 0.070863 0.582689
v -0.021340 0.101746 0.431595
v -0.021340 0.101193 0.421083
v 0.021340 0.101746 0.431595
v 0.021340 0.101193 0.421083
v -0.021340 0.059212 0.433835
v -0.004049 0.030244 0.435361
v -0.016275 0.038728 0.434914
v -0.004049 0.029690 0.424849
v -0.021340 0.058658 0.423323
v -0.016275 0.038175 0.424402
v 0.004049 0.030244 0.435361
v 0.021340 0.059212 0.433835
v 0.016275 0.038728 0.434914
v 0.021340 0.058658 0.423323
v 0.004049 0.029690 0.424849
v 0.016275 0.038175 0.424402
v -0.008225 0.095419 0.706578
v -0.008225 0.104867 0.719193
v -0.008225 0.088802 0.689809
v -0.008225 0.104867 0.657471
v 0.008225 0.095419 0.706578
v 0.008225 0.104867 0.719193
v 0.008225 0.088802 0.689809
v 0.008225 0.104867 0.657471
v -0.008225 0.072077 0.706939
v -0.008225 0.076524 0.720447
v 0.008225 0.072077 0.706939
v 0.008225 0.076524 0.720447
v -0.008225 0.058767 0.714653
v -0.008225 0.061368 0.727099
v 0.008225 0.058767 0.714653
v 0.008225 0.061368 0.727099
v -0.008225 0.035317 0.716869
v -0.008225 0.031323 0.728939
v 0.008225 0.035317 0.716869
v 0.008225 0.031323 0.728939
v -0.008225 0.017902 0.709620
v -0.008225 0.013365 0.716331
v 0.008225 0.017902 0.709620
v 0.008225 0.013365 0.716331
vn -0.0000 -0.0000 1.0000
vn 1.0000 -0.0000 -0.0000
vn -1.0000 -0.0000 -0.0000
vn -0.0000 1.0000 -0.0000
vn -0.0000 -0.8444 -0.5357
vn -0.0000 -0.8444 0.5357
vn -0.0000 -0.4490 0.8936
vn -0.0000 -1.0000 -0.0000
vn -0.0000 -0.0000 -1.0000
vn -0.0000 0.8444 0.5357
vn -0.0000 0.4490 0.8936
vn -0.0000 0.8444 -0.5357
vn -0.0000 0.4490 -0.8936
vn -0.0000 -0.3331 -0.9429
vn -0.0000 -0.8550 -0.5186
vn -0.0000 0.9994 -0.0350
vn -0.0000 -0.2818 0.9595
vn -0.0000 -0.7388 0.6740
vn -0.0000 -0.9714 0.2374
vn -0.0000 -0.9714 -0.2374
vn -0.0000 -0.7388 -0.6740
vn -0.0000 -0.2818 -0.9595
vn -0.0000 0.2818 -0.9595
vn -0.0000 0.7388 -0.6740
vn -0.0000 0.9714 -0.2375
vn -0.0000 0.9714 0.2374
vn -0.0000 0.7388 0.6740
vn -0.0000 0.2818 0.9595
vn -0.0000 0.0526 0.9986
vn -0.0000 -0.0526 -0.9986
vn -0.0000 0.9986 -0.0526
vn -0.5707 -0.8201 0.0432
vn -0.9708 -0.2394 0.0126
vn 0.5707 -0.8201 0.0432
vn 0.9708 -0.2394 0.0126
vn -0.0000 -0.9986 0.0526
vn -0.0000 -0.8956 -0.4449
vn -0.0000 -0.8004 0.5995
vn -0.0000 -0.7155 -0.6986
vn -0.0000 0.4019 0.9157
vn -0.0000 0.5917 0.8061
vn -0.0000 -0.5014 -0.8652
vn -0.0000 -0.5746 0.8184
vn -0.0000 0.0611 0.9981
vn -0.0000 -0.0941 -0.9956
vn -0.0000 -0.8284 -0.5601
vn -0.0000 0.3843 -0.9232
vt 0.529608 0.750000
vt 0.529608 1.000000
vt 0.625000 1.000000
vt 0.625000 0.750000
vt 0.375000 0.605051
vt 0.398601 0.601633
vt 0.439394 0.546064
vt 0.420284 0.530769
vt 0.552752 0.500000
vt 0.551731 0.502191
vt 0.543149 0.507716
vt 0.531689 0.509757
vt 0.520300 0.507739
vt 0.515004 0.504110
vt 0.527950 0.518558
vt 0.608979 0.518444
vt 0.608959 0.727496
vt 0.527749 0.727340
vt 0.439903 0.699313
vt 0.398801 0.645210
vt 0.375000 0.644949
vt 0.420284 0.719231
vt 0.625000 0.500000
vt 0.529608 0.250000
vt 0.516409 0.246285
vt 0.501636 0.242127
vt 0.499807 0.241613
vt 0.509416 0.244317
vt 0.515004 0.245890
vt 0.420284 0.219231
vt 0.439394 0.203936
vt 0.398601 0.148367
vt 0.375000 0.144949
vt 0.398801 0.104790
vt 0.439903 0.050687
vt 0.527749 0.022660
vt 0.608959 0.022504
vt 0.608979 0.231556
vt 0.527950 0.231442
vt 0.520300 0.242261
vt 0.531689 0.240243
vt 0.543149 0.242284
vt 0.551731 0.247809
vt 0.552752 0.250000
vt 0.625000 0.250000
vt 0.625000 0.000000
vt 0.529608 0.000000
vt 0.420284 0.030769
vt 0.375000 0.105051
vt 0.875000 0.750000
vt 0.875000 0.500000
vt 0.375000 0.500000
vt 0.125000 0.500000
vt 0.125000 0.605051
vt 0.509416 0.505683
vt 0.499807 0.508387
vt 0.501636 0.507873
vt 0.516409 0.503715
vt 0.529608 0.500000
vt 0.125000 0.644949
vt 0.125000 0.750000
vt 0.375000 0.750000
vt 0.375000 1.000000
vt 0.625000 0.904563
vt 0.529608 0.904563
vt 0.529608 0.845437
vt 0.625000 0.845437
vt 0.529608 0.345437
vt 0.625000 0.345437
vt 0.625000 0.404563
vt 0.529608 0.404563
vt 0.720437 0.750000
vt 0.720437 0.500000
vt 0.779563 0.500000
vt 0.779563 0.750000
vt 0.279563 0.605051
vt 0.220437 0.605051
vt 0.220437 0.500000
vt 0.279563 0.500000
vt 0.375000 0.345437
vt 0.375000 0.404563
vt 0.279563 0.750000
vt 0.220437 0.750000
vt 0.220437 0.644949
vt 0.279563 0.644949
vt 0.375000 0.904563
vt 0.375000 0.845437
vt 0.375000 0.250000
vt 0.555154 0.250000
vt 0.552615 0.250000
vt 0.544829 0.250000
vt 0.533884 0.250000
vt 0.533884 0.500000
vt 0.544829 0.500000
vt 0.552615 0.500000
vt 0.555154 0.500000
vt 0.916667 0.795872
vt 0.916667 0.704128
vt 1.000000 0.704128
vt 1.000000 0.795872
vt 0.833333 0.795872
vt 0.833333 0.704128
vt 0.750000 0.795872
vt 0.750000 0.704128
vt 0.690908 0.704128
vt 0.690908 0.795872
vt 0.666667 0.795872
vt 0.666667 0.704128
vt 0.583333 0.795872
vt 0.583333 0.704128
vt 0.500000 0.795872
vt 0.500000 0.704128
vt 0.416667 0.795872
vt 0.416667 0.704128
vt 0.362483 0.795872
vt 0.333333 0.795872
vt 0.333333 0.704128
vt 0.362483 0.704128
vt 0.250000 0.795872
vt 0.250000 0.704128
vt 0.166667 0.795872
vt 0.166667 0.704128
vt 0.083333 0.795872
vt 0.083333 0.704128
vt 0.000000 0.795872
vt 0.000000 0.704128
vt 0.031888 0.704128
vt 0.031888 0.795872
vt 0.375000 0.851282
vt 0.375000 0.898718
vt 0.404665 0.970335
vt 0.476282 1.000000
vt 0.476282 0.750000
vt 0.404665 0.779665
vt 0.476282 0.500000
vt 0.375000 0.351282
vt 0.375000 0.398718
vt 0.404665 0.470335
vt 0.476282 0.250000
vt 0.404665 0.279665
vt 0.476282 0.000000
vt 0.226282 0.500000
vt 0.226282 0.750000
vt 0.375000 0.000000
vt 0.273718 0.750000
vt 0.273718 0.500000
s 0
usemtl None.008
f 10/1/1 3/4/1 1/3/1 6/2/1
f 13/5/2 14/8/2 17/7/2 15/6/2
f 39/9/2 4/23/2 3/4/2 10/1/2 12/22/2 11/21/2 13/5/2 15/6/2 21/20/2 20/19/2 19/18/2 16/17/2 22/16/2 18/15/2 17/7/2 14/8/2 41/14/2 38/13/2 37/12/2 42/11/2 40/10/2
f 32/24/3 36/30/3 9/30/3 43/29/3 44/28/3 45/27/3 46/26/3 47/25/3 48/24/3
f 25/31/3 9/30/3 8/33/3 29/32/3
f 29/32/3 8/33/3 5/49/3 7/48/3 6/47/3 1/46/3 2/45/3 51/44/3 52/43/3 53/42/3 50/41/3 49/40/3 43/29/3 9/30/3 25/31/3 30/39/3 24/38/3 28/37/3 26/36/3 27/35/3 23/34/3
f 4/23/4 2/51/4 1/50/4 3/4/4
f 13/5/5 8/54/5 9/53/5 14/52/5
f 41/14/2 14/8/2 35/8/2 34/59/2 58/59/2 57/58/2 56/57/2 55/56/2 54/55/2
f 5/60/6 11/21/6 12/62/6 7/61/6
f 7/63/7 12/62/7 10/1/7 6/2/7
f 8/54/8 13/5/8 11/21/8 5/60/8
f 28/64/9 16/67/9 19/66/9 26/65/9
f 30/68/1 18/71/1 22/70/1 24/69/1
f 16/72/8 28/75/8 24/74/8 22/73/8
f 15/76/10 17/79/10 25/78/10 29/77/10
f 25/80/11 17/81/11 18/71/11 30/68/11
f 20/82/12 21/85/12 23/84/12 27/83/12
f 26/65/13 19/66/13 20/87/13 27/86/13
f 21/85/4 15/76/4 29/77/4 23/84/4
f 32/24/9 31/45/9 33/23/9 34/59/9
f 35/52/14 36/88/14 32/24/14 34/59/14
f 2/45/3 31/45/3 32/24/3 48/24/3 61/92/3 62/91/3 60/90/3 59/89/3 51/44/3
f 14/52/15 9/53/15 36/53/15 35/52/15
f 34/59/2 33/23/2 4/23/2 39/9/2 63/96/2 66/95/2 65/94/2 64/93/2 58/59/2
f 2/51/16 4/23/16 33/23/16 31/51/16
f 62/97/17 61/100/17 64/99/17 65/98/17
f 62/97/18 65/98/18 66/102/18 60/101/18
f 60/101/19 66/102/19 63/104/19 59/103/19
f 39/105/20 40/108/20 52/107/20 51/106/20 59/103/20 63/104/20
f 52/107/21 40/108/21 42/110/21 53/109/21
f 53/109/22 42/110/22 37/112/22 50/111/22
f 50/111/23 37/112/23 38/114/23 49/113/23
f 38/114/24 41/118/24 54/117/24 44/116/24 43/115/24 49/113/24
f 45/119/25 44/116/25 54/117/25 55/120/25
f 46/121/26 45/119/26 55/120/26 56/122/26
f 47/123/27 46/121/27 56/122/27 57/124/27
f 61/125/28 48/128/28 47/123/28 57/124/28 58/127/28 64/126/28
f 77/129/29 79/134/29 78/133/29 69/4/29 67/3/29 71/132/29 73/131/29 72/130/29
f 80/135/2 70/23/2 69/4/2 78/133/2
f 74/136/30 76/140/30 75/139/30 68/45/30 70/23/30 80/135/30 82/138/30 81/137/30
f 71/141/3 67/46/3 68/45/3 75/139/3
f 70/23/31 68/51/31 67/50/31 69/4/31
f 74/142/32 72/143/32 73/61/32 76/53/32
f 76/88/33 73/144/33 71/141/33 75/139/33
f 77/145/34 81/146/34 82/52/34 79/62/34
f 79/62/35 82/52/35 80/135/35 78/133/35
f 74/142/36 81/146/36 77/145/36 72/143/36
f 83/144/3 84/46/3 86/45/3 85/88/3
f 85/88/37 86/45/37 90/23/37 89/52/37
f 89/52/2 90/23/2 88/4/2 87/62/2
f 87/62/38 88/4/38 84/3/38 83/63/38
f 85/88/39 89/52/39 93/52/39 91/88/39
f 90/23/4 86/51/4 84/50/4 88/4/4
f 94/62/40 92/63/40 96/63/40 98/62/40
f 83/144/3 85/88/3 91/88/3 92/144/3
f 89/52/2 87/62/2 94/62/2 93/52/2
f 87/62/41 83/63/41 92/63/41 94/62/41
f 97/52/2 98/62/2 102/62/2 101/52/2
f 91/88/42 93/52/42 97/52/42 95/88/42
f 93/52/2 94/62/2 98/62/2 97/52/2
f 92/144/3 91/88/3 95/88/3 96/144/3
f 102/62/43 100/63/43 104/63/43 106/62/43
f 96/144/3 95/88/3 99/88/3 100/144/3
f 98/62/44 96/63/44 100/63/44 102/62/44
f 95/88/45 97/52/45 101/52/45 99/88/45
f 103/53/46 105/52/46 106/62/46 104/61/46
f 99/88/47 101/52/47 105/52/47 103/88/47
f 101/52/2 102/62/2 106/62/2 105/52/2
f 100/144/3 99/88/3 103/88/3 104/144/3
