# Blender 4.0.2
# www.blender.org
mtllib Mag.mtl
o Cube.008
v -0.056240 -0.339224 0.380865
v -0.044005 0.215962 0.399558
v -0.053240 -0.314969 0.100961
v -0.041367 0.231335 0.150162
v 0.056240 -0.339224 0.380865
v 0.044005 0.215962 0.399558
v 0.053240 -0.314969 0.100961
v 0.041367 0.231335 0.150162
v -0.056240 -0.328228 0.202471
v -0.044005 0.225406 0.246352
v 0.056240 -0.328228 0.202471
v 0.044005 0.225406 0.246352
v -0.041367 0.228090 0.202798
v 0.053240 -0.319620 0.176423
v -0.053240 -0.319620 0.176423
v 0.041367 0.228090 0.202798
v -0.048888 -0.320164 0.185249
v -0.048888 -0.320708 0.194075
v 0.037538 0.227546 0.211624
v 0.037538 0.225950 0.237526
v -0.037538 0.225950 0.237526
v -0.037538 0.227546 0.211624
v 0.048888 -0.320708 0.194075
v 0.048888 -0.320164 0.185249
v -0.053240 0.227637 0.210155
v -0.053240 0.232288 0.134693
v 0.053240 0.232288 0.134693
v 0.056240 0.226005 0.236633
v 0.056240 0.215009 0.415027
v -0.056240 0.215009 0.415027
v -0.056240 0.226005 0.236633
v 0.048888 0.226549 0.227807
v -0.048888 0.227093 0.218981
v 0.053240 0.227637 0.210155
v 0.048888 0.227093 0.218981
v -0.048888 0.226549 0.227807
v -0.044005 -0.147530 0.223365
v 0.044005 -0.147530 0.223365
v -0.041367 -0.144846 0.179811
v 0.041367 -0.144846 0.179811
v -0.037538 -0.145390 0.188637
v 0.037538 -0.145390 0.188637
v -0.037538 -0.146986 0.214539
v 0.037538 -0.146986 0.214539
v -0.041367 -0.141601 0.127175
v 0.041367 -0.141601 0.127175
v 0.044005 -0.156974 0.376571
v -0.044005 -0.156974 0.376571
v 0.056240 0.239307 0.416525
v -0.056240 0.239307 0.416525
v 0.044005 0.240261 0.401056
v -0.044005 0.240261 0.401056
vn -1.0000 -0.0000 -0.0000
vn -0.0000 0.0615 -0.9981
vn 1.0000 -0.0000 -0.0000
vn -0.0000 -0.0615 0.9981
vn -0.0000 -0.9981 -0.0615
vn 0.8072 -0.0363 0.5892
vn -0.0000 -0.7449 -0.6672
vn 0.7689 0.0393 -0.6381
vn 0.9177 0.0244 -0.3965
vn -0.8972 -0.0272 0.4408
vn -0.7689 0.0393 -0.6381
vn 0.8972 -0.0272 0.4408
vn -0.0000 0.9981 0.0615
vn -0.9177 0.0244 -0.3965
vn -0.8072 -0.0363 0.5892
vn 0.7849 0.0381 -0.6185
vn -0.7849 0.0381 -0.6185
vt 0.375000 0.182704
vt 0.625000 0.182704
vt 0.625000 0.250000
vt 0.375000 0.250000
vt 0.625000 0.500000
vt 0.375000 0.500000
vt 0.375000 0.590909
vt 0.625000 0.590909
vt 0.625000 0.750000
vt 0.375000 0.750000
vt 0.625000 1.000000
vt 0.375000 1.000000
vt 0.125000 0.590909
vt 0.125000 0.750000
vt 0.859130 0.591706
vt 0.844678 0.599577
vt 0.861205 0.736205
vt 0.638795 0.736205
vt 0.125000 0.583038
vt 0.375000 0.583038
vt 0.625000 0.583038
vt 0.375000 0.000000
vt 0.625000 0.000000
vt 0.625000 0.159091
vt 0.375000 0.159091
vt 0.625000 0.567296
vt 0.375000 0.567296
vt 0.125000 0.500000
vt 0.125000 0.567296
vt 0.852755 0.560736
vt 0.859130 0.568607
vt 0.375000 0.174833
vt 0.625000 0.174833
vt 0.625000 0.166962
vt 0.375000 0.166962
vt 0.625000 0.575167
vt 0.375000 0.575167
vt 0.125000 0.575167
vt 0.640870 0.591706
vt 0.640870 0.568607
vt 0.655322 0.599577
vt 0.860428 0.513795
vt 0.875000 0.500000
vt 0.875000 0.567296
vt 0.639572 0.513795
vt 0.875000 0.590909
vt 0.875000 0.750000
vt 0.875000 0.575167
vt 0.647245 0.560736
vt 0.875000 0.583038
s 0
f 15/1/1 25/2/1 26/3/1 3/4/1
f 3/4/2 26/3/2 27/5/2 7/6/2
f 11/7/3 28/8/3 29/9/3 5/10/3
f 5/10/4 29/9/4 30/11/4 1/12/4
f 9/13/5 11/7/5 5/10/5 1/14/5
f 21/15/6 10/16/6 37/16/6 43/15/6
f 2/17/2 6/18/2 47/18/2 48/17/2
f 18/19/7 23/20/7 11/7/7 9/13/7
f 23/20/8 32/21/8 28/8/8 11/7/8
f 1/22/1 30/23/1 31/24/1 9/25/1
f 7/6/3 27/5/3 34/26/3 14/27/3
f 3/28/5 7/6/5 14/27/5 15/29/5
f 13/30/9 22/31/9 41/31/9 39/30/9
f 17/32/10 33/33/10 25/2/10 15/1/10
f 9/25/11 31/24/11 36/34/11 18/35/11
f 18/35/1 36/34/1 33/33/1 17/32/1
f 14/27/12 34/26/12 35/36/12 24/37/12
f 24/37/3 35/36/3 32/21/3 23/20/3
f 15/29/5 14/27/5 24/37/5 17/38/5
f 17/38/5 24/37/5 23/20/5 18/19/5
f 20/39/1 19/40/1 42/40/1 44/39/1
f 6/18/1 12/41/1 38/41/1 47/18/1
f 13/30/13 4/42/13 26/43/13 25/44/13
f 4/42/13 8/45/13 27/5/13 26/43/13
f 12/41/13 6/18/13 29/9/13 28/8/13
f 30/11/4 29/9/4 49/9/4 50/11/4
f 2/17/13 10/16/13 31/46/13 30/47/13
f 20/39/13 12/41/13 28/8/13 32/21/13
f 22/31/13 13/30/13 25/44/13 33/48/13
f 8/45/13 16/49/13 34/26/13 27/5/13
f 16/49/13 19/40/13 35/36/13 34/26/13
f 19/40/13 20/39/13 32/21/13 35/36/13
f 10/16/13 21/15/13 36/50/13 31/46/13
f 21/15/13 22/31/13 33/48/13 36/50/13
f 38/41/13 37/16/13 48/17/13 47/18/13
f 44/39/13 43/15/13 37/16/13 38/41/13
f 46/45/13 45/42/13 39/30/13 40/49/13
f 40/49/13 39/30/13 41/31/13 42/40/13
f 42/40/13 41/31/13 43/15/13 44/39/13
f 4/42/3 13/30/3 39/30/3 45/42/3
f 16/49/1 8/45/1 46/45/1 40/49/1
f 10/16/3 2/17/3 48/17/3 37/16/3
f 22/31/3 21/15/3 43/15/3 41/31/3
f 8/45/4 4/42/4 45/42/4 46/45/4
f 19/40/14 16/49/14 40/49/14 42/40/14
f 12/41/15 20/39/15 44/39/15 38/41/15
f 51/18/13 52/17/13 50/47/13 49/9/13
f 29/9/16 6/18/16 51/18/16 49/9/16
f 6/18/2 2/17/2 52/17/2 51/18/2
f 2/17/17 30/47/17 50/47/17 52/17/17
