# Blender 4.0.2
# www.blender.org
mtllib Rail.mtl
o Cube.002
v 0.025725 0.411898 0.435773
v 0.031055 0.418072 0.435773
v 0.031055 0.418073 0.056294
v 0.025725 0.411898 0.056294
v -0.031056 0.418073 0.056294
v -0.025725 0.411898 0.056294
v -0.031056 0.418072 0.435773
v -0.025725 0.411898 0.435773
v 0.025725 0.406104 0.435773
v -0.025725 0.406104 0.435773
v -0.025725 0.406105 0.054940
v 0.025725 0.406105 0.054940
v 0.025725 0.393312 0.048981
v -0.025725 0.393312 0.048981
v -0.025725 0.393312 0.435796
v 0.025725 0.393313 0.435796
v -0.025725 0.424240 0.141350
v -0.031056 0.418065 0.141350
v -0.031056 0.418065 0.123939
v -0.025725 0.424240 0.123939
v 0.031055 0.418065 0.123939
v 0.025725 0.424240 0.123939
v 0.031055 0.418065 0.141350
v 0.025725 0.424240 0.141350
v -0.025725 0.424240 0.106531
v -0.031056 0.418065 0.106531
v -0.031056 0.418065 0.056297
v -0.025725 0.424240 0.061907
v 0.031055 0.418065 0.056297
v 0.025725 0.424240 0.061907
v 0.031055 0.418065 0.106531
v 0.025725 0.424240 0.106531
v -0.025725 0.424240 0.429103
v -0.031056 0.418065 0.435997
v -0.031056 0.418065 0.402196
v -0.025725 0.424240 0.402196
v 0.031055 0.418065 0.402196
v 0.025725 0.424240 0.402196
v 0.031055 0.418065 0.435997
v 0.025725 0.424240 0.429103
v -0.025725 0.424240 0.315470
v -0.031056 0.418065 0.315470
v -0.031056 0.418065 0.298059
v -0.025725 0.424240 0.298059
v 0.031055 0.418065 0.298059
v 0.025725 0.424240 0.298059
v 0.031055 0.418065 0.315470
v 0.025725 0.424240 0.315470
v -0.025725 0.424240 0.350290
v -0.031056 0.418065 0.350290
v -0.031056 0.418065 0.332879
v -0.025725 0.424240 0.332879
v 0.031055 0.418065 0.332879
v 0.025725 0.424240 0.332879
v 0.031055 0.418065 0.350290
v 0.025725 0.424240 0.350290
v -0.025725 0.424240 0.385106
v -0.031056 0.418065 0.385106
v -0.031056 0.418065 0.367695
v -0.025725 0.424240 0.367695
v 0.031055 0.418065 0.367695
v 0.025725 0.424240 0.367695
v 0.031055 0.418065 0.385106
v 0.025725 0.424240 0.385106
v -0.025725 0.424240 0.211049
v -0.031056 0.418065 0.211049
v -0.031056 0.418065 0.193638
v -0.025725 0.424240 0.193638
v 0.031055 0.418065 0.193638
v 0.025725 0.424240 0.193638
v 0.031055 0.418065 0.211049
v 0.025725 0.424240 0.211049
v -0.025725 0.424240 0.176232
v -0.031056 0.418065 0.176232
v -0.031056 0.418065 0.158821
v -0.025725 0.424240 0.158821
v 0.031055 0.418065 0.158821
v 0.025725 0.424240 0.158821
v 0.031055 0.418065 0.176232
v 0.025725 0.424240 0.176232
v 0.025725 0.378624 0.032074
v -0.025725 0.378624 0.032074
v -0.025725 0.378624 0.065738
v 0.025725 0.378624 0.065738
v 0.025725 0.361334 0.032074
v -0.025725 0.361334 0.032074
v -0.025725 0.361334 0.065738
v 0.025725 0.361334 0.065738
v 0.025725 0.385968 0.040527
v -0.025725 0.385968 0.040527
v -0.025725 0.385881 0.297452
v 0.025725 0.385881 0.297452
v 0.025725 0.384247 0.038546
v -0.025725 0.384247 0.038546
v -0.025725 0.384334 0.207401
v 0.025725 0.384334 0.207401
v -0.059399 0.364902 0.207735
v -0.059399 0.366449 0.297786
v -0.031467 0.364902 0.207735
v -0.031467 0.366449 0.297786
v -0.073730 0.327986 0.208222
v -0.073730 0.329532 0.298274
v -0.056302 0.327986 0.208222
v -0.056302 0.329532 0.298274
v -0.025725 0.424240 0.280653
v -0.031056 0.418065 0.280653
v -0.031056 0.418065 0.263242
v -0.025725 0.424240 0.263242
v 0.031055 0.418065 0.263242
v 0.025725 0.424240 0.263242
v 0.031055 0.418065 0.280653
v 0.025725 0.424240 0.280653
v -0.025725 0.424240 0.246221
v -0.031056 0.418065 0.246221
v -0.031056 0.418065 0.228810
v -0.025725 0.424240 0.228810
v 0.031055 0.418065 0.228810
v 0.025725 0.424240 0.228810
v 0.031055 0.418065 0.246221
v 0.025725 0.424240 0.246221
vn 0.7570 -0.6534 -0.0000
vn -0.0000 -0.0000 -1.0000
vn -0.7569 -0.6535 -0.0000
vn -0.0000 -0.0000 1.0000
vn -0.0000 1.0000 -0.0000
vn -0.0000 0.2275 -0.9738
vn -0.0003 0.2275 -0.9738
vn 0.0003 0.2275 -0.9738
vn 1.0000 -0.0000 -0.0000
vn -1.0000 -0.0000 -0.0000
vn -0.0000 0.7549 -0.6558
vn -0.0000 0.4220 -0.9066
vn -0.0000 0.4223 -0.9065
vn -0.0000 0.0018 1.0000
vn -0.7569 0.6535 -0.0000
vn 0.7570 0.6534 -0.0000
vn -0.0000 -1.0000 -0.0000
vn -0.0000 0.6724 -0.7402
vn -0.0000 0.7449 0.6672
vn -0.0000 -0.9992 0.0403
vn -0.0000 -0.9986 0.0536
vn -0.0000 0.0172 0.9999
vn -0.0000 0.0132 0.9999
vn 0.3217 -0.9467 0.0163
vn -0.4999 0.8660 -0.0149
vn -0.0000 -0.0172 -0.9999
vn -0.0000 -0.9999 0.0172
vn -0.9322 0.3618 -0.0062
vn -0.0000 -0.0132 -0.9999
vn 0.8297 -0.5581 0.0096
vt 0.375000 0.000000
vt 0.375000 0.250000
vt 0.625000 0.250000
vt 0.625000 0.000000
vt 0.375000 0.500000
vt 0.625000 0.500000
vt 0.375000 0.750000
vt 0.625000 0.750000
vt 0.375000 1.000000
vt 0.625000 1.000000
vt 0.875000 0.750000
vt 0.875000 0.500000
vt 0.375000 0.490932
vt 0.375000 0.259068
vt 0.125000 0.500000
vt 0.125000 0.750000
vt 0.375000 0.750607
vt 0.375000 -0.000911
vt 0.375000 0.250000
vt 0.375000 0.750000
s 0
usemtl M4A1.058
f 1/1/1 4/2/1 3/3/1 2/4/1
f 4/2/2 6/5/2 5/6/2 3/3/2
f 6/5/3 8/7/3 7/8/3 5/6/3
f 8/7/4 1/9/4 2/10/4 7/8/4
f 8/7/4 10/7/4 9/9/4 1/9/4
f 5/6/5 7/8/5 2/11/5 3/12/5
f 4/2/6 12/2/7 11/5/8 6/5/6
f 1/1/9 9/1/9 12/2/9 4/2/9
f 6/5/10 11/5/10 10/7/10 8/7/10
f 94/13/11 93/14/11 81/2/11 82/5/11
f 9/1/9 16/1/9 13/2/9 12/2/9
f 12/2/12 13/2/13 14/5/13 11/5/12
f 11/5/10 14/5/10 15/7/10 10/7/10
f 10/7/14 15/7/14 16/9/14 9/9/14
f 82/5/2 81/2/2 85/2/2 86/5/2
f 95/17/10 94/13/10 82/5/10 83/7/10
f 96/9/20 95/17/20 83/7/20 84/9/20
f 93/14/9 96/18/9 84/1/9 81/2/9
f 85/15/17 88/16/17 87/7/17 86/5/17
f 84/9/4 83/7/4 87/7/4 88/9/4
f 83/7/10 82/5/10 86/5/10 87/7/10
f 81/2/9 84/1/9 88/1/9 85/2/9
f 13/2/9 16/1/9 92/1/9 89/19/9
f 16/9/21 15/7/21 91/20/21 92/9/21
f 15/7/10 14/5/10 90/5/10 91/20/10
f 14/5/11 13/2/11 89/19/11 90/5/11
f 89/19/9 92/1/9 96/18/9 93/14/9
f 92/9/22 91/20/22 98/20/22 100/9/22
f 91/20/10 90/5/10 94/13/10 95/17/10
f 90/5/11 89/19/11 93/14/11 94/13/11
f 100/9/23 98/20/23 102/20/23 104/9/23
f 96/18/24 92/1/24 100/1/24 99/18/24
f 91/20/25 95/17/25 97/17/25 98/20/25
f 95/17/26 96/9/26 99/9/26 97/17/26
f 104/9/27 102/20/27 101/17/27 103/9/27
f 98/20/28 97/17/28 101/17/28 102/20/28
f 97/17/29 99/9/29 103/9/29 101/17/29
f 99/18/30 100/1/30 104/1/30 103/18/30
usemtl M4A1.059
f 17/1/15 20/2/15 19/3/15 18/4/15
f 20/2/2 22/5/2 21/6/2 19/3/2
f 22/5/16 24/7/16 23/8/16 21/6/16
f 24/7/4 17/9/4 18/10/4 23/8/4
f 20/15/5 17/16/5 24/7/5 22/5/5
f 21/6/17 23/8/17 18/11/17 19/12/17
f 65/1/15 68/2/15 67/3/15 66/4/15
f 68/2/2 70/5/2 69/6/2 67/3/2
f 70/5/16 72/7/16 71/8/16 69/6/16
f 72/7/4 65/9/4 66/10/4 71/8/4
f 68/15/5 65/16/5 72/7/5 70/5/5
f 69/6/17 71/8/17 66/11/17 67/12/17
f 73/1/15 76/2/15 75/3/15 74/4/15
f 76/2/2 78/5/2 77/6/2 75/3/2
f 78/5/16 80/7/16 79/8/16 77/6/16
f 80/7/4 73/9/4 74/10/4 79/8/4
f 76/15/5 73/16/5 80/7/5 78/5/5
f 77/6/17 79/8/17 74/11/17 75/12/17
usemtl M4A1.060
f 25/1/15 28/2/15 27/3/15 26/4/15
f 28/2/18 30/5/18 29/6/18 27/3/18
f 30/5/16 32/7/16 31/8/16 29/6/16
f 32/7/4 25/9/4 26/10/4 31/8/4
f 28/15/5 25/16/5 32/7/5 30/5/5
f 29/6/17 31/8/17 26/11/17 27/12/17
usemtl M4A1.062
f 33/1/15 36/2/15 35/3/15 34/4/15
f 36/2/2 38/5/2 37/6/2 35/3/2
f 38/5/16 40/7/16 39/8/16 37/6/16
f 40/7/19 33/9/19 34/10/19 39/8/19
f 36/15/5 33/16/5 40/7/5 38/5/5
f 37/6/17 39/8/17 34/11/17 35/12/17
usemtl M4A1.065
f 41/1/15 44/2/15 43/3/15 42/4/15
f 44/2/2 46/5/2 45/6/2 43/3/2
f 46/5/16 48/7/16 47/8/16 45/6/16
f 48/7/4 41/9/4 42/10/4 47/8/4
f 44/15/5 41/16/5 48/7/5 46/5/5
f 45/6/17 47/8/17 42/11/17 43/12/17
f 49/1/15 52/2/15 51/3/15 50/4/15
f 52/2/2 54/5/2 53/6/2 51/3/2
f 54/5/16 56/7/16 55/8/16 53/6/16
f 56/7/4 49/9/4 50/10/4 55/8/4
f 52/15/5 49/16/5 56/7/5 54/5/5
f 53/6/17 55/8/17 50/11/17 51/12/17
f 57/1/15 60/2/15 59/3/15 58/4/15
f 60/2/2 62/5/2 61/6/2 59/3/2
f 62/5/16 64/7/16 63/8/16 61/6/16
f 64/7/4 57/9/4 58/10/4 63/8/4
f 60/15/5 57/16/5 64/7/5 62/5/5
f 61/6/17 63/8/17 58/11/17 59/12/17
f 105/1/15 108/2/15 107/3/15 106/4/15
f 108/2/2 110/5/2 109/6/2 107/3/2
f 110/5/16 112/7/16 111/8/16 109/6/16
f 112/7/4 105/9/4 106/10/4 111/8/4
f 108/15/5 105/16/5 112/7/5 110/5/5
f 109/6/17 111/8/17 106/11/17 107/12/17
usemtl M4A1.110
f 113/1/15 116/2/15 115/3/15 114/4/15
f 116/2/2 118/5/2 117/6/2 115/3/2
f 118/5/16 120/7/16 119/8/16 117/6/16
f 120/7/4 113/9/4 114/10/4 119/8/4
f 116/15/5 113/16/5 120/7/5 118/5/5
f 117/6/17 119/8/17 114/11/17 115/12/17
