# Blender 4.0.2
# www.blender.org
mtllib Rail2.mtl
o Cube.006
v 0.025725 0.161483 -0.800265
v 0.031055 0.155309 -0.800265
v 0.031055 0.155308 -0.420786
v 0.025725 0.161483 -0.420786
v -0.031056 0.155308 -0.420786
v -0.025725 0.161483 -0.420786
v -0.031056 0.155309 -0.800265
v -0.025725 0.161483 -0.800265
v 0.025725 0.179073 -0.800265
v -0.025725 0.179073 -0.800265
v -0.025725 0.179072 -0.420786
v 0.025725 0.179072 -0.420786
v 0.025725 0.180339 -0.420993
v -0.025725 0.180339 -0.420993
v -0.025725 0.180339 -0.645445
v 0.025725 0.180339 -0.645445
v -0.025725 0.149141 -0.505842
v -0.031056 0.155316 -0.505842
v -0.031056 0.155316 -0.488431
v -0.025725 0.149141 -0.488431
v 0.031055 0.155316 -0.488431
v 0.025725 0.149141 -0.488431
v 0.031055 0.155316 -0.505842
v 0.025725 0.149141 -0.505842
v -0.025725 0.149141 -0.471023
v -0.031056 0.155316 -0.471023
v -0.031056 0.155316 -0.420789
v -0.025725 0.149141 -0.426399
v 0.031055 0.155316 -0.420789
v 0.025725 0.149141 -0.426399
v 0.031055 0.155316 -0.471023
v 0.025725 0.149141 -0.471023
v -0.025725 0.149141 -0.793595
v -0.031056 0.155316 -0.800489
v -0.031056 0.155316 -0.766688
v -0.025725 0.149141 -0.766688
v 0.031055 0.155316 -0.766688
v 0.025725 0.149141 -0.766688
v 0.031055 0.155316 -0.800489
v 0.025725 0.149141 -0.793595
v -0.025725 0.149141 -0.679962
v -0.031056 0.155316 -0.679962
v -0.031056 0.155316 -0.662551
v -0.025725 0.149141 -0.662551
v 0.031055 0.155316 -0.662551
v 0.025725 0.149141 -0.662551
v 0.031055 0.155316 -0.679962
v 0.025725 0.149141 -0.679962
v -0.025725 0.149141 -0.645145
v -0.031056 0.155316 -0.645145
v -0.031056 0.155316 -0.627734
v -0.025725 0.149141 -0.627734
v 0.031055 0.155316 -0.627734
v 0.025725 0.149141 -0.627734
v 0.031055 0.155316 -0.645145
v 0.025725 0.149141 -0.645145
v -0.025725 0.149141 -0.714782
v -0.031056 0.155316 -0.714782
v -0.031056 0.155316 -0.697371
v -0.025725 0.149141 -0.697371
v 0.031055 0.155316 -0.697371
v 0.025725 0.149141 -0.697371
v 0.031055 0.155316 -0.714782
v 0.025725 0.149141 -0.714782
v -0.025725 0.149141 -0.749598
v -0.031056 0.155316 -0.749598
v -0.031056 0.155316 -0.732187
v -0.025725 0.149141 -0.732187
v 0.031055 0.155316 -0.732187
v 0.025725 0.149141 -0.732187
v 0.031055 0.155316 -0.749598
v 0.025725 0.149141 -0.749598
v -0.025725 0.149141 -0.540724
v -0.031056 0.155316 -0.540724
v -0.031056 0.155316 -0.523313
v -0.025725 0.149141 -0.523313
v 0.031055 0.155316 -0.523313
v 0.025725 0.149141 -0.523313
v 0.031055 0.155316 -0.540724
v 0.025725 0.149141 -0.540724
v 0.087771 0.306454 -0.800265
v 0.093945 0.311784 -0.800265
v 0.093946 0.311784 -0.420786
v 0.087771 0.306454 -0.420786
v 0.093946 0.249673 -0.420786
v 0.087771 0.255004 -0.420786
v 0.093945 0.249673 -0.800265
v 0.087771 0.255004 -0.800265
v 0.070181 0.306454 -0.800265
v 0.070181 0.255004 -0.800265
v 0.070182 0.255004 -0.420786
v 0.070182 0.306454 -0.420786
v 0.068915 0.306454 -0.420993
v 0.068915 0.255004 -0.420993
v 0.068915 0.255004 -0.645445
v 0.068915 0.306454 -0.645445
v 0.100113 0.255004 -0.505842
v 0.093938 0.249673 -0.505842
v 0.093938 0.249673 -0.488431
v 0.100113 0.255004 -0.488431
v 0.093938 0.311784 -0.488431
v 0.100113 0.306454 -0.488431
v 0.093938 0.311784 -0.505842
v 0.100113 0.306454 -0.505842
v 0.100113 0.255004 -0.471023
v 0.093938 0.249673 -0.471023
v 0.093938 0.249673 -0.420789
v 0.100113 0.255004 -0.426399
v 0.093938 0.311784 -0.420789
v 0.100113 0.306454 -0.426399
v 0.093938 0.311784 -0.471023
v 0.100113 0.306454 -0.471023
v 0.100113 0.255004 -0.793595
v 0.093938 0.249673 -0.800489
v 0.093938 0.249673 -0.766688
v 0.100113 0.255004 -0.766688
v 0.093938 0.311784 -0.766688
v 0.100113 0.306454 -0.766688
v 0.093938 0.311784 -0.800489
v 0.100113 0.306454 -0.793595
v 0.100113 0.255004 -0.679962
v 0.093938 0.249673 -0.679962
v 0.093938 0.249673 -0.662551
v 0.100113 0.255004 -0.662551
v 0.093938 0.311784 -0.662551
v 0.100113 0.306454 -0.662551
v 0.093938 0.311784 -0.679962
v 0.100113 0.306454 -0.679962
v 0.100113 0.255004 -0.645145
v 0.093938 0.249673 -0.645145
v 0.093938 0.249673 -0.627734
v 0.100113 0.255004 -0.627734
v 0.093938 0.311784 -0.627734
v 0.100113 0.306454 -0.627734
v 0.093938 0.311784 -0.645145
v 0.100113 0.306454 -0.645145
v 0.100113 0.255004 -0.714782
v 0.093938 0.249673 -0.714782
v 0.093938 0.249673 -0.697371
v 0.100113 0.255004 -0.697371
v 0.093938 0.311784 -0.697371
v 0.100113 0.306454 -0.697371
v 0.093938 0.311784 -0.714782
v 0.100113 0.306454 -0.714782
v 0.100113 0.255004 -0.749598
v 0.093938 0.249673 -0.749598
v 0.093938 0.249673 -0.732187
v 0.100113 0.255004 -0.732187
v 0.093938 0.311784 -0.732187
v 0.100113 0.306454 -0.732187
v 0.093938 0.311784 -0.749598
v 0.100113 0.306454 -0.749598
v 0.100113 0.255004 -0.540724
v 0.093938 0.249673 -0.540724
v 0.093938 0.249673 -0.523313
v 0.100113 0.255004 -0.523313
v 0.093938 0.311784 -0.523313
v 0.100113 0.306454 -0.523313
v 0.093938 0.311784 -0.540724
v 0.100113 0.306454 -0.540724
v -0.087771 0.306454 -0.800265
v -0.093945 0.311784 -0.800265
v -0.093946 0.311784 -0.420786
v -0.087771 0.306454 -0.420786
v -0.093946 0.249673 -0.420786
v -0.087771 0.255004 -0.420786
v -0.093945 0.249673 -0.800265
v -0.087771 0.255004 -0.800265
v -0.070181 0.306454 -0.800265
v -0.070181 0.255004 -0.800265
v -0.070182 0.255004 -0.420786
v -0.070182 0.306454 -0.420786
v -0.068915 0.306454 -0.420993
v -0.068915 0.255004 -0.420993
v -0.068915 0.255004 -0.645445
v -0.068915 0.306454 -0.645445
v -0.100113 0.255004 -0.505842
v -0.093938 0.249673 -0.505842
v -0.093938 0.249673 -0.488431
v -0.100113 0.255004 -0.488431
v -0.093938 0.311784 -0.488431
v -0.100113 0.306454 -0.488431
v -0.093938 0.311784 -0.505842
v -0.100113 0.306454 -0.505842
v -0.100113 0.255004 -0.471023
v -0.093938 0.249673 -0.471023
v -0.093938 0.249673 -0.420789
v -0.100113 0.255004 -0.426399
v -0.093938 0.311784 -0.420789
v -0.100113 0.306454 -0.426399
v -0.093938 0.311784 -0.471023
v -0.100113 0.306454 -0.471023
v -0.100113 0.255004 -0.793595
v -0.093938 0.249673 -0.800489
v -0.093938 0.249673 -0.766688
v -0.100113 0.255004 -0.766688
v -0.093938 0.311784 -0.766688
v -0.100113 0.306454 -0.766688
v -0.093938 0.311784 -0.800489
v -0.100113 0.306454 -0.793595
v -0.100113 0.255004 -0.679962
v -0.093938 0.249673 -0.679962
v -0.093938 0.249673 -0.662551
v -0.100113 0.255004 -0.662551
v -0.093938 0.311784 -0.662551
v -0.100113 0.306454 -0.662551
v -0.093938 0.311784 -0.679962
v -0.100113 0.306454 -0.679962
v -0.100113 0.255004 -0.645145
v -0.093938 0.249673 -0.645145
v -0.093938 0.249673 -0.627734
v -0.100113 0.255004 -0.627734
v -0.093938 0.311784 -0.627734
v -0.100113 0.306454 -0.627734
v -0.093938 0.311784 -0.645145
v -0.100113 0.306454 -0.645145
v -0.100113 0.255004 -0.714782
v -0.093938 0.249673 -0.714782
v -0.093938 0.249673 -0.697371
v -0.100113 0.255004 -0.697371
v -0.093938 0.311784 -0.697371
v -0.100113 0.306454 -0.697371
v -0.093938 0.311784 -0.714782
v -0.100113 0.306454 -0.714782
v -0.100113 0.255004 -0.749598
v -0.093938 0.249673 -0.749598
v -0.093938 0.249673 -0.732187
v -0.100113 0.255004 -0.732187
v -0.093938 0.311784 -0.732187
v -0.100113 0.306454 -0.732187
v -0.093938 0.311784 -0.749598
v -0.100113 0.306454 -0.749598
v -0.100113 0.255004 -0.540724
v -0.093938 0.249673 -0.540724
v -0.093938 0.249673 -0.523313
v -0.100113 0.255004 -0.523313
v -0.093938 0.311784 -0.523313
v -0.100113 0.306454 -0.523313
v -0.093938 0.311784 -0.540724
v -0.100113 0.306454 -0.540724
v -0.025725 0.149141 -0.575541
v -0.031056 0.155316 -0.575541
v -0.031056 0.155316 -0.558130
v -0.025725 0.149141 -0.558130
v 0.031055 0.155316 -0.558130
v 0.025725 0.149141 -0.558130
v 0.031055 0.155316 -0.575541
v 0.025725 0.149141 -0.575541
v 0.100113 0.255004 -0.575541
v 0.093938 0.249673 -0.575541
v 0.093938 0.249673 -0.558130
v 0.100113 0.255004 -0.558130
v 0.093938 0.311784 -0.558130
v 0.100113 0.306454 -0.558130
v 0.093938 0.311784 -0.575541
v 0.100113 0.306454 -0.575541
v -0.100113 0.255004 -0.575541
v -0.093938 0.249673 -0.575541
v -0.093938 0.249673 -0.558130
v -0.100113 0.255004 -0.558130
v -0.093938 0.311784 -0.558130
v -0.100113 0.306454 -0.558130
v -0.093938 0.311784 -0.575541
v -0.100113 0.306454 -0.575541
v -0.025725 0.149141 -0.609734
v -0.031056 0.155316 -0.609734
v -0.031056 0.155316 -0.592323
v -0.025725 0.149141 -0.592323
v 0.031055 0.155316 -0.592323
v 0.025725 0.149141 -0.592323
v 0.031055 0.155316 -0.609734
v 0.025725 0.149141 -0.609734
v 0.100113 0.255004 -0.609734
v 0.093938 0.249673 -0.609734
v 0.093938 0.249673 -0.592323
v 0.100113 0.255004 -0.592323
v 0.093938 0.311784 -0.592323
v 0.100113 0.306454 -0.592323
v 0.093938 0.311784 -0.609734
v 0.100113 0.306454 -0.609734
v -0.100113 0.255004 -0.609734
v -0.093938 0.249673 -0.609734
v -0.093938 0.249673 -0.592323
v -0.100113 0.255004 -0.592323
v -0.093938 0.311784 -0.592323
v -0.100113 0.306454 -0.592323
v -0.093938 0.311784 -0.609734
v -0.100113 0.306454 -0.609734
vn 0.7570 0.6534 -0.0000
vn -0.0000 -0.0000 1.0000
vn -0.7569 0.6535 -0.0000
vn -0.0000 -0.0000 -1.0000
vn -0.0000 0.7042 -0.7100
vn -0.0000 -1.0000 -0.0000
vn -0.0000 0.0814 0.9967
vn -0.0000 0.0809 0.9967
vn 1.0000 -0.0000 -0.0000
vn -1.0000 -0.0000 -0.0000
vn -0.0000 0.7620 0.6476
vn -0.0000 1.0000 -0.0000
vn -0.0000 1.0000 -0.0082
vn -0.7569 -0.6535 -0.0000
vn 0.7570 -0.6534 -0.0000
vn -0.0000 -0.6724 0.7402
vn -0.0000 -0.7449 -0.6672
vn -0.6534 0.7570 -0.0000
vn -0.6535 -0.7569 -0.0000
vn -0.7042 -0.0000 -0.7100
vn -0.0809 -0.0000 0.9967
vn -0.7620 -0.0000 0.6476
vn -1.0000 -0.0000 -0.0082
vn 0.6535 -0.7569 -0.0000
vn 0.6534 0.7570 -0.0000
vn 0.6724 -0.0000 0.7402
vn 0.7449 -0.0000 -0.6672
vn 0.7042 -0.0000 -0.7100
vn 0.0809 -0.0000 0.9967
vn 0.7620 -0.0000 0.6476
vn 1.0000 -0.0000 -0.0082
vn -0.6724 -0.0000 0.7402
vn -0.7449 -0.0000 -0.6672
vt 0.375000 0.000000
vt 0.375000 0.250000
vt 0.625000 0.250000
vt 0.625000 0.000000
vt 0.375000 0.500000
vt 0.625000 0.500000
vt 0.375000 0.750000
vt 0.625000 0.750000
vt 0.375000 1.000000
vt 0.625000 1.000000
vt 0.875000 0.750000
vt 0.875000 0.500000
vt 0.125000 0.500000
vt 0.125000 0.750000
s 1
usemtl M4A1.031
f 1/1/1 4/2/1 3/3/1 2/4/1
f 4/2/2 6/5/2 5/6/2 3/3/2
f 6/5/3 8/7/3 7/8/3 5/6/3
f 8/7/4 1/9/4 2/10/4 7/8/4
f 8/7/4 10/7/5 9/9/5 1/9/4
f 5/6/6 7/8/6 2/11/6 3/12/6
f 4/2/2 12/2/7 11/5/8 6/5/2
f 1/1/9 9/1/9 12/2/9 4/2/9
f 6/5/10 11/5/10 10/7/10 8/7/10
f 13/13/11 16/14/12 15/7/12 14/5/11
f 9/1/9 16/1/9 13/2/9 12/2/9
f 12/2/7 13/2/11 14/5/11 11/5/8
f 11/5/10 14/5/10 15/7/10 10/7/10
f 10/7/5 15/7/13 16/9/13 9/9/5
usemtl M4A1.032
f 17/1/14 20/2/14 19/3/14 18/4/14
f 20/2/2 22/5/2 21/6/2 19/3/2
f 22/5/15 24/7/15 23/8/15 21/6/15
f 24/7/4 17/9/4 18/10/4 23/8/4
f 20/13/6 17/14/6 24/7/6 22/5/6
f 21/6/12 23/8/12 18/11/12 19/12/12
f 73/1/14 76/2/14 75/3/14 74/4/14
f 76/2/2 78/5/2 77/6/2 75/3/2
f 78/5/15 80/7/15 79/8/15 77/6/15
f 80/7/4 73/9/4 74/10/4 79/8/4
f 76/13/6 73/14/6 80/7/6 78/5/6
f 77/6/12 79/8/12 74/11/12 75/12/12
f 241/1/14 244/2/14 243/3/14 242/4/14
f 244/2/2 246/5/2 245/6/2 243/3/2
f 246/5/15 248/7/15 247/8/15 245/6/15
f 248/7/4 241/9/4 242/10/4 247/8/4
f 244/13/6 241/14/6 248/7/6 246/5/6
f 245/6/12 247/8/12 242/11/12 243/12/12
usemtl M4A1.033
f 25/1/14 28/2/14 27/3/14 26/4/14
f 28/2/16 30/5/16 29/6/16 27/3/16
f 30/5/15 32/7/15 31/8/15 29/6/15
f 32/7/4 25/9/4 26/10/4 31/8/4
f 28/13/6 25/14/6 32/7/6 30/5/6
f 29/6/12 31/8/12 26/11/12 27/12/12
usemtl M4A1.038
f 33/1/14 36/2/14 35/3/14 34/4/14
f 36/2/2 38/5/2 37/6/2 35/3/2
f 38/5/15 40/7/15 39/8/15 37/6/15
f 40/7/17 33/9/17 34/10/17 39/8/17
f 36/13/6 33/14/6 40/7/6 38/5/6
f 37/6/12 39/8/12 34/11/12 35/12/12
usemtl M4A1.035
f 41/1/14 44/2/14 43/3/14 42/4/14
f 44/2/2 46/5/2 45/6/2 43/3/2
f 46/5/15 48/7/15 47/8/15 45/6/15
f 48/7/4 41/9/4 42/10/4 47/8/4
f 44/13/6 41/14/6 48/7/6 46/5/6
f 45/6/12 47/8/12 42/11/12 43/12/12
f 49/1/14 52/2/14 51/3/14 50/4/14
f 52/2/2 54/5/2 53/6/2 51/3/2
f 54/5/15 56/7/15 55/8/15 53/6/15
f 56/7/4 49/9/4 50/10/4 55/8/4
f 52/13/6 49/14/6 56/7/6 54/5/6
f 53/6/12 55/8/12 50/11/12 51/12/12
f 57/1/14 60/2/14 59/3/14 58/4/14
f 60/2/2 62/5/2 61/6/2 59/3/2
f 62/5/15 64/7/15 63/8/15 61/6/15
f 64/7/4 57/9/4 58/10/4 63/8/4
f 60/13/6 57/14/6 64/7/6 62/5/6
f 61/6/12 63/8/12 58/11/12 59/12/12
f 65/1/14 68/2/14 67/3/14 66/4/14
f 68/2/2 70/5/2 69/6/2 67/3/2
f 70/5/15 72/7/15 71/8/15 69/6/15
f 72/7/4 65/9/4 66/10/4 71/8/4
f 68/13/6 65/14/6 72/7/6 70/5/6
f 69/6/12 71/8/12 66/11/12 67/12/12
usemtl M4A1.040
f 81/1/18 84/2/18 83/3/18 82/4/18
f 84/2/2 86/5/2 85/6/2 83/3/2
f 86/5/19 88/7/19 87/8/19 85/6/19
f 88/7/4 81/9/4 82/10/4 87/8/4
f 88/7/4 90/7/20 89/9/20 81/9/4
f 85/6/9 87/8/9 82/11/9 83/12/9
f 84/2/2 92/2/21 91/5/21 86/5/2
f 81/1/12 89/1/12 92/2/12 84/2/12
f 86/5/6 91/5/6 90/7/6 88/7/6
f 93/13/22 96/14/10 95/7/10 94/5/22
f 89/1/12 96/1/12 93/2/12 92/2/12
f 92/2/21 93/2/22 94/5/22 91/5/21
f 91/5/6 94/5/6 95/7/6 90/7/6
f 90/7/20 95/7/23 96/9/23 89/9/20
usemtl M4A1.041
f 97/1/24 100/2/24 99/3/24 98/4/24
f 100/2/2 102/5/2 101/6/2 99/3/2
f 102/5/25 104/7/25 103/8/25 101/6/25
f 104/7/4 97/9/4 98/10/4 103/8/4
f 100/13/9 97/14/9 104/7/9 102/5/9
f 101/6/10 103/8/10 98/11/10 99/12/10
f 153/1/24 156/2/24 155/3/24 154/4/24
f 156/2/2 158/5/2 157/6/2 155/3/2
f 158/5/25 160/7/25 159/8/25 157/6/25
f 160/7/4 153/9/4 154/10/4 159/8/4
f 156/13/9 153/14/9 160/7/9 158/5/9
f 157/6/10 159/8/10 154/11/10 155/12/10
f 249/1/24 252/2/24 251/3/24 250/4/24
f 252/2/2 254/5/2 253/6/2 251/3/2
f 254/5/25 256/7/25 255/8/25 253/6/25
f 256/7/4 249/9/4 250/10/4 255/8/4
f 252/13/9 249/14/9 256/7/9 254/5/9
f 253/6/10 255/8/10 250/11/10 251/12/10
usemtl M4A1.042
f 105/1/24 108/2/24 107/3/24 106/4/24
f 108/2/26 110/5/26 109/6/26 107/3/26
f 110/5/25 112/7/25 111/8/25 109/6/25
f 112/7/4 105/9/4 106/10/4 111/8/4
f 108/13/9 105/14/9 112/7/9 110/5/9
f 109/6/10 111/8/10 106/11/10 107/12/10
usemtl M4A1.044
f 113/1/24 116/2/24 115/3/24 114/4/24
f 116/2/2 118/5/2 117/6/2 115/3/2
f 118/5/25 120/7/25 119/8/25 117/6/25
f 120/7/27 113/9/27 114/10/27 119/8/27
f 116/13/9 113/14/9 120/7/9 118/5/9
f 117/6/10 119/8/10 114/11/10 115/12/10
usemtl M4A1.047
f 121/1/24 124/2/24 123/3/24 122/4/24
f 124/2/2 126/5/2 125/6/2 123/3/2
f 126/5/25 128/7/25 127/8/25 125/6/25
f 128/7/4 121/9/4 122/10/4 127/8/4
f 124/13/9 121/14/9 128/7/9 126/5/9
f 125/6/10 127/8/10 122/11/10 123/12/10
f 129/1/24 132/2/24 131/3/24 130/4/24
f 132/2/2 134/5/2 133/6/2 131/3/2
f 134/5/25 136/7/25 135/8/25 133/6/25
f 136/7/4 129/9/4 130/10/4 135/8/4
f 132/13/9 129/14/9 136/7/9 134/5/9
f 133/6/10 135/8/10 130/11/10 131/12/10
f 137/1/24 140/2/24 139/3/24 138/4/24
f 140/2/2 142/5/2 141/6/2 139/3/2
f 142/5/25 144/7/25 143/8/25 141/6/25
f 144/7/4 137/9/4 138/10/4 143/8/4
f 140/13/9 137/14/9 144/7/9 142/5/9
f 141/6/10 143/8/10 138/11/10 139/12/10
f 145/1/24 148/2/24 147/3/24 146/4/24
f 148/2/2 150/5/2 149/6/2 147/3/2
f 150/5/25 152/7/25 151/8/25 149/6/25
f 152/7/4 145/9/4 146/10/4 151/8/4
f 148/13/9 145/14/9 152/7/9 150/5/9
f 149/6/10 151/8/10 146/11/10 147/12/10
usemtl M4A1.049
f 161/1/25 162/4/25 163/3/25 164/2/25
f 164/2/2 163/3/2 165/6/2 166/5/2
f 166/5/24 165/6/24 167/8/24 168/7/24
f 168/7/4 167/8/4 162/10/4 161/9/4
f 168/7/4 161/9/4 169/9/28 170/7/28
f 165/6/10 163/12/10 162/11/10 167/8/10
f 164/2/2 166/5/2 171/5/29 172/2/29
f 161/1/12 164/2/12 172/2/12 169/1/12
f 166/5/6 168/7/6 170/7/6 171/5/6
f 173/13/30 174/5/30 175/7/9 176/14/9
f 169/1/12 172/2/12 173/2/12 176/1/12
f 172/2/29 171/5/29 174/5/30 173/2/30
f 171/5/6 170/7/6 175/7/6 174/5/6
f 170/7/28 169/9/28 176/9/31 175/7/31
usemtl M4A1.050
f 177/1/19 178/4/19 179/3/19 180/2/19
f 180/2/2 179/3/2 181/6/2 182/5/2
f 182/5/18 181/6/18 183/8/18 184/7/18
f 184/7/4 183/8/4 178/10/4 177/9/4
f 180/13/10 182/5/10 184/7/10 177/14/10
f 181/6/9 179/12/9 178/11/9 183/8/9
f 233/1/19 234/4/19 235/3/19 236/2/19
f 236/2/2 235/3/2 237/6/2 238/5/2
f 238/5/18 237/6/18 239/8/18 240/7/18
f 240/7/4 239/8/4 234/10/4 233/9/4
f 236/13/10 238/5/10 240/7/10 233/14/10
f 237/6/9 235/12/9 234/11/9 239/8/9
f 257/1/19 258/4/19 259/3/19 260/2/19
f 260/2/2 259/3/2 261/6/2 262/5/2
f 262/5/18 261/6/18 263/8/18 264/7/18
f 264/7/4 263/8/4 258/10/4 257/9/4
f 260/13/10 262/5/10 264/7/10 257/14/10
f 261/6/9 259/12/9 258/11/9 263/8/9
usemtl M4A1.051
f 185/1/19 186/4/19 187/3/19 188/2/19
f 188/2/32 187/3/32 189/6/32 190/5/32
f 190/5/18 189/6/18 191/8/18 192/7/18
f 192/7/4 191/8/4 186/10/4 185/9/4
f 188/13/10 190/5/10 192/7/10 185/14/10
f 189/6/9 187/12/9 186/11/9 191/8/9
usemtl M4A1.053
f 193/1/19 194/4/19 195/3/19 196/2/19
f 196/2/2 195/3/2 197/6/2 198/5/2
f 198/5/18 197/6/18 199/8/18 200/7/18
f 200/7/33 199/8/33 194/10/33 193/9/33
f 196/13/10 198/5/10 200/7/10 193/14/10
f 197/6/9 195/12/9 194/11/9 199/8/9
usemtl M4A1.056
f 201/1/19 202/4/19 203/3/19 204/2/19
f 204/2/2 203/3/2 205/6/2 206/5/2
f 206/5/18 205/6/18 207/8/18 208/7/18
f 208/7/4 207/8/4 202/10/4 201/9/4
f 204/13/10 206/5/10 208/7/10 201/14/10
f 205/6/9 203/12/9 202/11/9 207/8/9
f 209/1/19 210/4/19 211/3/19 212/2/19
f 212/2/2 211/3/2 213/6/2 214/5/2
f 214/5/18 213/6/18 215/8/18 216/7/18
f 216/7/4 215/8/4 210/10/4 209/9/4
f 212/13/10 214/5/10 216/7/10 209/14/10
f 213/6/9 211/12/9 210/11/9 215/8/9
f 217/1/19 218/4/19 219/3/19 220/2/19
f 220/2/2 219/3/2 221/6/2 222/5/2
f 222/5/18 221/6/18 223/8/18 224/7/18
f 224/7/4 223/8/4 218/10/4 217/9/4
f 220/13/10 222/5/10 224/7/10 217/14/10
f 221/6/9 219/12/9 218/11/9 223/8/9
f 225/1/19 226/4/19 227/3/19 228/2/19
f 228/2/2 227/3/2 229/6/2 230/5/2
f 230/5/18 229/6/18 231/8/18 232/7/18
f 232/7/4 231/8/4 226/10/4 225/9/4
f 228/13/10 230/5/10 232/7/10 225/14/10
f 229/6/9 227/12/9 226/11/9 231/8/9
usemtl M4A1.077
f 265/1/14 268/2/14 267/3/14 266/4/14
f 268/2/2 270/5/2 269/6/2 267/3/2
f 270/5/15 272/7/15 271/8/15 269/6/15
f 272/7/4 265/9/4 266/10/4 271/8/4
f 268/13/6 265/14/6 272/7/6 270/5/6
f 269/6/12 271/8/12 266/11/12 267/12/12
usemtl M4A1.086
f 273/1/24 276/2/24 275/3/24 274/4/24
f 276/2/2 278/5/2 277/6/2 275/3/2
f 278/5/25 280/7/25 279/8/25 277/6/25
f 280/7/4 273/9/4 274/10/4 279/8/4
f 276/13/9 273/14/9 280/7/9 278/5/9
f 277/6/10 279/8/10 274/11/10 275/12/10
usemtl M4A1.095
f 281/1/19 282/4/19 283/3/19 284/2/19
f 284/2/2 283/3/2 285/6/2 286/5/2
f 286/5/18 285/6/18 287/8/18 288/7/18
f 288/7/4 287/8/4 282/10/4 281/9/4
f 284/13/10 286/5/10 288/7/10 281/14/10
f 285/6/9 283/12/9 282/11/9 287/8/9
