# Blender 4.4.3
# www.blender.org
mtllib Bolt.mtl
o Cube.005
v -0.090226 0.209075 0.160318
v -0.090226 0.160651 0.160318
v -0.132451 0.209075 0.133876
v -0.132451 0.160651 0.133876
v -0.115653 0.209075 0.160318
v -0.115653 0.160651 0.160318
v -0.090226 0.160651 0.133876
v -0.104907 0.179590 0.389643
v -0.090226 0.209075 0.133876
v -0.090226 0.193263 0.394727
v -0.104907 0.167391 0.375774
v -0.090226 0.209075 0.377085
v -0.104907 0.202335 0.375774
v -0.104907 0.190136 0.389643
v -0.090226 0.160651 0.377085
v -0.090226 0.176463 0.394727
v -0.104907 0.167391 0.152415
v -0.104907 0.184863 0.139549
v -0.115653 0.209075 0.377085
v -0.104907 0.202335 0.152415
v -0.115653 0.193263 0.394727
v -0.115653 0.176463 0.394727
v -0.115653 0.160651 0.377085
v -0.132451 0.160651 0.102665
v -0.090226 0.160651 0.102665
v -0.090226 0.209075 0.102665
v -0.132451 0.209075 0.102665
v -0.132451 0.160651 0.050353
v -0.090226 0.160651 0.050353
v -0.090226 0.209075 0.050353
v -0.132451 0.209075 0.050353
v -0.151328 0.160651 0.090849
v -0.151328 0.209075 0.090849
v -0.151328 0.160651 0.062168
v -0.151328 0.209075 0.062168
v -0.115653 0.202335 0.375774
v -0.115653 0.179590 0.389643
v -0.115653 0.202335 0.160318
v -0.115653 0.167391 0.160318
v -0.115653 0.167391 0.375774
v -0.115653 0.190136 0.389643
v -0.120674 0.167391 0.152415
v -0.120674 0.202335 0.152415
v -0.128847 0.184863 0.139549
v -0.090226 0.209075 -0.050197
v -0.132451 0.209075 -0.050197
v -0.132451 0.160651 -0.050197
v -0.090226 0.160651 -0.050197
v -0.146280 0.137778 0.064797
v -0.146280 0.232770 0.064797
v -0.130900 0.137778 0.072799
v -0.130900 0.232770 0.072799
v -0.130900 0.137778 0.088803
v -0.130900 0.232770 0.088803
v -0.146280 0.137778 0.096805
v -0.146280 0.232770 0.096805
v -0.161660 0.137778 0.088803
v -0.161660 0.232770 0.088803
v -0.161660 0.137778 0.072799
v -0.161660 0.232770 0.072799
v -0.146280 0.123965 0.064797
v -0.130900 0.123965 0.072799
v -0.130900 0.246582 0.072799
v -0.146280 0.246582 0.064797
v -0.130900 0.123965 0.088803
v -0.130900 0.246582 0.088803
v -0.146280 0.123965 0.096805
v -0.146280 0.246582 0.096805
v -0.161660 0.123965 0.088803
v -0.161660 0.246582 0.088803
v -0.161660 0.123965 0.072799
v -0.161660 0.246582 0.072799
v -0.146280 0.137778 0.056300
v -0.122734 0.137778 0.068550
v -0.122734 0.232770 0.068550
v -0.146280 0.232770 0.056300
v -0.122734 0.137778 0.093051
v -0.122734 0.232770 0.093051
v -0.146280 0.137778 0.105302
v -0.146280 0.232770 0.105302
v -0.169826 0.137778 0.093051
v -0.169826 0.232770 0.093051
v -0.169826 0.137778 0.068550
v -0.169826 0.232770 0.068550
v -0.146280 0.123965 0.056300
v -0.122734 0.123965 0.068550
v -0.122734 0.246582 0.068550
v -0.146280 0.246582 0.056300
v -0.122734 0.123965 0.093051
v -0.122734 0.246582 0.093051
v -0.146280 0.123965 0.105302
v -0.146280 0.246582 0.105302
v -0.169826 0.123965 0.093051
v -0.169826 0.246582 0.093051
v -0.169826 0.123965 0.068550
v -0.169826 0.246582 0.068550
vn -0.0000 -0.0000 1.0000
vn -0.0000 -1.0000 -0.0000
vn 1.0000 -0.0000 -0.0000
vn -1.0000 -0.0000 -0.0000
vn -0.0000 0.7447 0.6674
vn -0.0000 -0.7447 0.6674
vn -0.0000 1.0000 -0.0000
vn -0.8441 -0.0000 0.5362
vn -0.5305 -0.0000 0.8477
vn -0.5305 -0.0000 -0.8477
vn -0.0000 -0.0000 -1.0000
vn -0.0000 0.5930 0.8052
vn -0.0000 -0.5930 0.8052
vn -0.0000 0.7509 -0.6605
vn -0.0000 -0.7509 -0.6605
vn 0.4615 -0.0000 -0.8871
vn 0.4615 -0.0000 0.8871
vn -0.4615 -0.0000 0.8871
vn -0.4615 -0.0000 -0.8871
vt 0.401655 0.250000
vt 0.598345 0.250000
vt 0.598345 0.500000
vt 0.401655 0.500000
vt 0.625000 0.526655
vt 0.875000 0.526655
vt 0.875000 0.750000
vt 0.625000 0.750000
vt 0.625000 0.000000
vt 0.375000 0.000000
vt 0.375000 0.223345
vt 0.625000 0.223345
vt 0.409796 0.750000
vt 0.375000 0.750000
vt 0.375000 0.526655
vt 0.590204 0.750000
vt 0.609558 0.524938
vt 0.559863 0.505632
vt 0.440137 0.505632
vt 0.390442 0.524938
vt 0.125000 0.526655
vt 0.125000 0.500000
vt 0.375000 0.500000
vt 0.625000 0.250000
vt 0.625000 0.500000
vt 0.125000 0.750000
vt 0.409796 0.750000
vt 0.500000 0.750000
vt 0.590204 0.750000
vt 0.462277 0.773564
vt 0.462277 0.750000
vt 0.537723 0.750000
vt 0.537723 0.773564
vt 0.625000 0.708863
vt 0.375000 0.708863
vt 0.375000 0.541137
vt 0.537723 0.500000
vt 0.625000 0.541137
vt 0.659573 0.541137
vt 0.648564 0.547072
vt 0.648564 0.708863
vt 0.322506 0.500000
vt 0.340427 0.541137
vt 0.537723 0.447506
vt 0.625000 0.465427
vt 0.351436 0.750000
vt 0.351436 0.708863
vt 0.625000 0.773564
vt 0.351436 0.547072
vt 0.625000 1.000000
vt 0.375000 1.000000
vt 1.000000 0.500000
vt 0.833333 0.500000
vt 0.833333 1.000000
vt 1.000000 1.000000
vt 0.666667 0.500000
vt 0.666667 1.000000
vt 0.500000 0.500000
vt 0.500000 1.000000
vt 0.333333 0.500000
vt 0.333333 1.000000
vt 0.166667 0.500000
vt 0.166667 1.000000
vt -0.000000 0.500000
vt -0.000000 1.000000
vt 0.457846 0.370000
vt 0.457846 0.130000
vt 0.250000 0.010000
vt 0.042154 0.130000
vt 0.042154 0.370000
vt 0.250000 0.490000
vt 0.750000 0.490000
vt 0.542154 0.370000
vt 0.542154 0.130000
vt 0.750000 0.010000
vt 0.957846 0.130000
vt 0.957846 0.370000
s 0
f 10/1/1 21/4/1 22/3/1 16/2/1
f 23/5/2 6/8/2 2/7/2 15/6/2
f 7/9/3 25/9/3 26/10/3 9/10/3
f 6/8/2 4/8/2 7/7/2 2/7/2
f 16/2/3 15/12/3 2/9/3 1/10/3 12/11/3 10/1/3
f 38/13/4 36/20/4 41/19/4 37/18/4 40/17/4 39/16/4 6/8/4 23/5/4 22/3/4 21/4/4 19/15/4 5/14/4
f 19/15/5 21/23/5 10/22/5 12/21/5
f 15/24/6 16/2/6 22/3/6 23/25/6
f 12/21/7 1/26/7 5/14/7 19/15/7
f 6/8/8 39/16/8 42/29/8 44/28/8 43/27/8 38/13/8 5/14/8 3/14/8 4/8/8
f 2/9/3 7/9/3 9/10/3 1/10/3
f 1/26/7 9/26/7 3/14/7 5/14/7
f 27/14/9 33/14/9 32/8/9 24/8/9
f 9/26/7 26/26/7 27/14/7 3/14/7
f 3/14/4 27/14/4 24/8/4 4/8/4
f 4/8/2 24/8/2 25/7/2 7/7/2
f 31/14/4 46/14/4 47/8/4 28/8/4
f 24/8/2 28/8/2 29/7/2 25/7/2
f 25/9/3 29/9/3 30/10/3 26/10/3
f 26/26/7 30/26/7 31/14/7 27/14/7
f 33/14/4 35/14/4 34/8/4 32/8/4
f 31/14/7 35/14/7 33/14/7 27/14/7
f 24/8/2 32/8/2 34/8/2 28/8/2
f 28/8/10 34/8/10 35/14/10 31/14/10
f 37/30/11 41/33/11 14/32/11 8/31/11
f 13/34/4 20/38/4 18/37/4 17/36/4 11/35/4 8/31/4 14/32/4
f 13/34/2 36/41/2 38/40/2 43/39/2 20/38/2
f 44/42/12 42/43/12 17/36/12 18/23/12
f 20/25/13 43/45/13 44/44/13 18/37/13
f 11/35/14 40/47/14 37/46/14 8/14/14
f 14/32/15 41/33/15 36/48/15 13/8/15
f 39/49/7 40/47/7 11/35/7 17/36/7 42/43/7
f 46/14/11 45/51/11 48/50/11 47/8/11
f 28/8/2 47/8/2 48/7/2 29/7/2
f 30/26/7 45/26/7 46/14/7 31/14/7
f 29/9/3 48/9/3 45/10/3 30/10/3
f 49/52/16 50/55/16 52/54/16 51/53/16
f 51/53/3 52/54/3 54/57/3 53/56/3
f 53/56/17 54/57/17 56/59/17 55/58/17
f 55/58/18 56/59/18 58/61/18 57/60/18
f 55/58/7 57/60/7 81/60/7 79/58/7
f 57/60/4 58/61/4 60/63/4 59/62/4
f 59/62/19 60/63/19 50/65/19 49/64/19
f 50/65/2 60/63/2 84/63/2 76/65/2
f 63/66/7 64/71/7 72/70/7 70/69/7 68/68/7 66/67/7
f 61/72/2 62/77/2 65/76/2 67/75/2 69/74/2 71/73/2
f 69/74/2 67/75/2 91/75/2 93/74/2
f 59/62/7 49/64/7 73/64/7 83/62/7
f 52/54/2 50/55/2 76/55/2 75/54/2
f 66/67/7 68/68/7 92/68/7 90/67/7
f 56/59/2 54/57/2 78/57/2 80/59/2
f 49/52/7 51/53/7 74/53/7 73/52/7
f 67/75/2 65/76/2 89/76/2 91/75/2
f 53/56/7 55/58/7 79/58/7 77/56/7
f 72/70/7 64/71/7 88/71/7 96/70/7
f 60/63/2 58/61/2 82/61/2 84/63/2
f 78/57/3 75/54/3 87/54/3 90/57/3
f 80/59/17 78/57/17 90/57/17 92/59/17
f 83/62/19 73/64/19 85/64/19 95/62/19
f 81/60/4 83/62/4 95/62/4 93/60/4
f 79/58/18 81/60/18 93/60/18 91/58/18
f 76/65/19 84/63/19 96/63/19 88/65/19
f 73/52/16 74/53/16 86/53/16 85/52/16
f 77/56/17 79/58/17 91/58/17 89/56/17
f 84/63/4 82/61/4 94/61/4 96/63/4
f 74/53/3 77/56/3 89/56/3 86/53/3
f 82/61/18 80/59/18 92/59/18 94/61/18
f 75/54/16 76/55/16 88/55/16 87/54/16
f 68/68/7 70/69/7 94/69/7 92/68/7
f 62/77/2 61/72/2 85/72/2 86/77/2
f 58/61/2 56/59/2 80/59/2 82/61/2
f 71/73/2 69/74/2 93/74/2 95/73/2
f 51/53/7 53/56/7 77/56/7 74/53/7
f 64/71/7 63/66/7 87/66/7 88/71/7
f 70/69/7 72/70/7 96/70/7 94/69/7
f 54/57/2 52/54/2 75/54/2 78/57/2
f 65/76/2 62/77/2 86/77/2 89/76/2
f 57/60/7 59/62/7 83/62/7 81/60/7
f 61/72/2 71/73/2 95/73/2 85/72/2
f 63/66/7 66/67/7 90/67/7 87/66/7
