# Blender 4.4.3
# www.blender.org
mtllib Lid.mtl
o Cylinder.013
v 0.108203 0.084715 0.589882
v 0.108203 0.084715 0.381956
v 0.084260 0.092754 0.589882
v 0.084260 0.092754 0.381956
v 0.079251 0.117508 0.589882
v 0.079251 0.117508 0.381956
v 0.098184 0.134223 0.589882
v 0.098184 0.134223 0.381956
v 0.122127 0.126184 0.589882
v 0.122127 0.126184 0.381956
v 0.127136 0.101430 0.589882
v 0.127136 0.101430 0.381956
v 0.108203 0.084715 0.065636
v 0.108203 0.084715 0.273562
v 0.084260 0.092754 0.065636
v 0.084260 0.092754 0.273562
v 0.079251 0.117508 0.065636
v 0.079251 0.117508 0.273562
v 0.098184 0.134223 0.065636
v 0.098184 0.134223 0.273562
v 0.122127 0.126184 0.065636
v 0.122127 0.126184 0.273562
v 0.127136 0.101430 0.065636
v 0.127136 0.101430 0.273562
v 0.120391 0.084943 0.283769
v 0.103483 0.096017 0.588160
v 0.120391 0.084943 0.085204
v 0.103483 0.096017 0.067358
v 0.124039 0.100177 0.588160
v 0.124039 0.100177 0.067358
v 0.136563 0.005027 0.085204
v 0.131080 -0.040452 0.562865
v 0.124878 -0.009808 0.588160
v 0.140984 -0.016823 0.101072
v 0.124878 -0.009808 0.067358
v 0.131080 -0.040452 0.092653
v 0.145435 -0.005648 0.588160
v 0.120391 0.084943 0.371749
v 0.151636 -0.036293 0.562865
v 0.120391 0.084943 0.570314
v 0.151636 -0.036293 0.092653
v 0.145435 -0.005648 0.067358
v 0.136563 0.005027 0.570314
v 0.140984 -0.016823 0.554446
v 0.140984 -0.016823 0.250908
v 0.134525 0.015096 0.283769
v 0.134525 0.015096 0.371749
v 0.140984 -0.016823 0.404610
v 0.147450 -0.015515 0.250908
v 0.147450 -0.015515 0.101072
v 0.126857 0.086251 0.371749
v 0.126857 0.086251 0.085204
v 0.143028 0.006336 0.085204
v 0.126857 0.086251 0.283769
v 0.143028 0.006336 0.570314
v 0.126857 0.086251 0.570314
v 0.147450 -0.015515 0.554446
v 0.147450 -0.015515 0.404610
v 0.140991 0.016405 0.371749
v 0.140991 0.016405 0.283769
v 0.152193 -0.025726 0.302748
v 0.131899 0.074561 0.302748
v 0.173232 -0.021469 0.315253
v 0.152939 0.078819 0.315253
v 0.173232 -0.021469 0.340265
v 0.152939 0.078819 0.340265
v 0.152193 -0.025726 0.352770
v 0.131899 0.074561 0.352770
v 0.131153 -0.029983 0.340265
v 0.110860 0.070304 0.340265
v 0.131153 -0.029983 0.315253
v 0.110860 0.070304 0.315253
vn -0.3183 -0.9480 -0.0000
vn -0.9801 -0.1983 -0.0000
vn -0.6618 0.7497 -0.0000
vn 0.3183 0.9480 -0.0000
vn -0.0000 -0.0000 -1.0000
vn 0.9801 0.1983 -0.0000
vn 0.6618 -0.7497 -0.0000
vn -0.0000 -0.0000 1.0000
vn 0.9802 0.1978 -0.0007
vn 0.9802 0.1981 -0.0000
vn 0.9802 0.1978 0.0007
vn -0.9802 -0.1982 -0.0000
vn -0.1983 0.9801 -0.0000
vn 0.1247 -0.6165 -0.7774
vn 0.1247 -0.6165 0.7774
vn 0.1983 -0.9801 -0.0000
vn -0.1150 0.5684 0.8147
vn -0.1150 0.5684 -0.8147
vn -0.1409 0.6962 -0.7039
vn -0.1409 0.6962 0.7039
vn 0.4934 0.0998 -0.8641
vn 0.4934 0.0998 0.8641
vn -0.4934 -0.0998 0.8641
vn -0.4934 -0.0998 -0.8641
vt 1.000000 0.500000
vt 1.000000 1.000000
vt 0.833333 1.000000
vt 0.833333 0.500000
vt 0.666667 1.000000
vt 0.666667 0.500000
vt 0.500000 1.000000
vt 0.500000 0.500000
vt 0.333333 1.000000
vt 0.333333 0.500000
vt 0.457846 0.370000
vt 0.250000 0.490000
vt 0.042154 0.370000
vt 0.042154 0.130000
vt 0.250000 0.010000
vt 0.457846 0.130000
vt 0.166667 1.000000
vt 0.166667 0.500000
vt -0.000000 1.000000
vt -0.000000 0.500000
vt 0.750000 0.490000
vt 0.957846 0.370000
vt 0.957846 0.130000
vt 0.750000 0.010000
vt 0.542154 0.130000
vt 0.542154 0.370000
vt 0.417112 0.750000
vt 0.417112 1.000000
vt 0.625000 1.000000
vt 0.625000 0.750000
vt 0.401119 0.522813
vt 0.434587 0.508567
vt 0.417112 0.500000
vt 0.375000 0.519017
vt 0.596864 0.508567
vt 0.598011 0.603884
vt 0.464303 0.603884
vt 0.404418 0.588109
vt 0.375000 0.730983
vt 0.401119 0.727187
vt 0.404418 0.661891
vt 0.464303 0.646117
vt 0.598011 0.646117
vt 0.596864 0.741434
vt 0.434587 0.741433
vt 0.625000 0.500000
vt 0.417112 0.250000
vt 0.625000 0.250000
vt 0.375000 0.230983
vt 0.625000 0.000000
vt 0.417112 0.000000
vt 0.375000 0.019017
vt 0.875000 0.750000
vt 0.875000 0.500000
vt 0.375000 0.500000
vt 0.125000 0.500000
vt 0.125000 0.519017
vt 0.125000 0.730983
vt 0.125000 0.750000
vt 0.375000 0.750000
vt 0.625000 0.363301
vt 0.445819 0.363301
vt 0.445819 0.250000
vt 0.453414 0.000000
vt 0.375000 0.041373
vt 0.375000 0.212634
vt 0.445819 0.250000
vt 0.125000 0.537366
vt 0.238301 0.537366
vt 0.238301 0.708627
vt 0.125000 0.708627
vt 0.453414 1.000000
vt 0.453414 0.886699
vt 0.625000 0.886699
vt 0.761699 0.750000
vt 0.761699 0.500000
vt 0.238301 0.500000
vt 0.445819 0.363300
vt 0.625000 0.363300
vt 0.238300 0.708627
vt 0.238300 0.537366
vt 0.625000 0.886700
vt 0.453414 0.886700
vt 0.761700 0.500000
vt 0.761700 0.750000
vt 0.238300 0.500000
vt 0.238301 0.750000
vt 0.238300 0.750000
vt 0.375000 0.041373
s 0
f 1/1/1 3/4/1 4/3/1 2/2/1
f 3/4/2 5/6/2 6/5/2 4/3/2
f 5/6/3 7/8/3 8/7/3 6/5/3
f 7/8/4 9/10/4 10/9/4 8/7/4
f 4/11/5 6/16/5 8/15/5 10/14/5 12/13/5 2/12/5
f 9/10/6 11/18/6 12/17/6 10/9/6
f 11/18/7 1/20/7 2/19/7 12/17/7
f 1/21/8 11/26/8 9/25/8 7/24/8 5/23/8 3/22/8
f 13/1/1 14/2/1 16/3/1 15/4/1
f 15/4/2 16/3/2 18/5/2 17/6/2
f 17/6/3 18/5/3 20/7/3 19/8/3
f 19/8/4 20/7/4 22/9/4 21/10/4
f 16/11/8 14/12/8 24/13/8 22/14/8 20/15/8 18/16/8
f 21/10/6 22/9/6 24/17/6 23/18/6
f 23/18/7 24/17/7 14/19/7 13/20/7
f 13/21/5 15/22/5 17/23/5 19/24/5 21/25/5 23/26/5
f 37/27/8 29/30/8 26/29/8 33/28/8
f 50/31/9 41/34/9 42/33/9 53/32/9
f 42/33/10 30/46/10 29/30/10 37/27/10 55/45/10 56/44/10 51/43/10 59/42/10 58/41/10 57/40/10 39/39/10 41/34/10 50/31/10 49/38/10 60/37/10 54/36/10 52/35/10 53/32/10
f 55/45/11 37/27/11 39/39/11 57/40/11
f 35/47/5 28/48/5 30/46/5 42/33/5
f 36/49/12 32/52/12 33/51/12 26/50/12 28/48/12 35/47/12
f 30/46/13 28/54/13 26/53/13 29/30/13
f 41/34/14 36/57/14 35/56/14 42/55/14
f 32/58/15 39/39/15 37/60/15 33/59/15
f 36/57/16 41/34/16 39/39/16 32/58/16
f 52/61/8 27/48/8 31/63/8 53/62/8
f 38/50/6 40/48/6 43/67/6 44/66/6 48/65/6 47/64/6
f 34/68/13 45/71/13 49/70/13 50/69/13
f 46/72/5 25/29/5 54/74/5 60/73/5
f 25/53/16 27/54/16 52/76/16 54/75/16
f 53/77/17 31/56/17 34/68/17 50/69/17
f 43/67/5 40/48/5 56/79/5 55/78/5
f 58/80/13 48/71/13 44/68/13 57/81/13
f 38/29/8 47/72/8 59/83/8 51/82/8
f 40/54/16 38/53/16 51/85/16 56/84/16
f 57/81/18 44/68/18 43/56/18 55/86/18
f 45/71/19 46/59/19 60/87/19 49/70/19
f 47/59/20 48/71/20 58/80/20 59/88/20
f 34/66/6 31/63/6 27/48/6 25/50/6 46/64/6 45/89/6
f 61/1/21 62/2/21 64/3/21 63/4/21
f 63/4/6 64/3/6 66/5/6 65/6/6
f 65/6/22 66/5/22 68/7/22 67/8/22
f 67/8/23 68/7/23 70/9/23 69/10/23
f 64/11/13 62/12/13 72/13/13 70/14/13 68/15/13 66/16/13
f 69/10/2 70/9/2 72/17/2 71/18/2
f 71/18/24 72/17/24 62/19/24 61/20/24
f 61/21/16 63/22/16 65/23/16 67/24/16 69/25/16 71/26/16
