# Blender 4.0.2
# www.blender.org
mtllib IS1.mtl
o Cube.001
v 0.018551 0.104540 0.004683
v -0.012753 0.118260 0.004683
v 0.018551 0.104540 0.058223
v -0.012753 0.118260 0.058223
v -0.018551 0.104540 0.004683
v 0.012753 0.118260 0.004683
v -0.018551 0.104540 0.058223
v 0.012753 0.118260 0.058223
v 0.015766 0.086596 0.004683
v 0.018551 0.089177 0.004683
v 0.018551 0.089177 0.058223
v 0.015766 0.086596 0.058223
v -0.018551 0.089177 0.004683
v -0.015766 0.086596 0.004683
v -0.015766 0.086596 0.058223
v -0.018551 0.089177 0.058223
v -0.000000 0.097750 0.015684
v -0.000000 0.124969 0.005777
v 0.007241 0.098414 0.017508
v 0.007241 0.125633 0.007601
v 0.012543 0.100227 0.022489
v 0.012543 0.127446 0.012582
v 0.014483 0.102704 0.029294
v 0.014483 0.129923 0.019387
v 0.012543 0.105180 0.036099
v 0.012543 0.132399 0.026192
v 0.007241 0.106993 0.041080
v 0.007241 0.134212 0.031173
v -0.000000 0.107657 0.042903
v -0.000000 0.134876 0.032996
v -0.007241 0.106993 0.041080
v -0.007241 0.134212 0.031173
v -0.012543 0.105180 0.036099
v -0.012543 0.132399 0.026192
v -0.014483 0.102704 0.029294
v -0.014483 0.129923 0.019387
v -0.012543 0.100227 0.022489
v -0.012543 0.127446 0.012582
v -0.007241 0.098414 0.017508
v -0.007241 0.125633 0.007601
v 0.008091 0.126841 0.005594
v 0.000000 0.126099 0.003557
v 0.014015 0.128867 0.011161
v 0.016183 0.131634 0.018764
v 0.014015 0.134402 0.026367
v 0.008091 0.136428 0.031933
v -0.008091 0.136428 0.031933
v -0.014015 0.134402 0.026367
v -0.016183 0.131634 0.018764
v -0.014015 0.128867 0.011161
v -0.008091 0.126841 0.005594
v 0.008091 0.134386 0.002848
v 0.000000 0.133644 0.000811
v 0.014015 0.136411 0.008415
v 0.016183 0.139179 0.016018
v 0.014015 0.141946 0.023621
v 0.008091 0.143972 0.029187
v -0.008091 0.143972 0.029187
v -0.014015 0.141946 0.023621
v -0.016183 0.139179 0.016018
v -0.014015 0.136411 0.008415
v -0.008091 0.134386 0.002848
v -0.000000 0.098201 0.016922
v 0.011531 0.100478 0.023178
v 0.011531 0.105032 0.035690
v -0.000000 0.107309 0.041946
v -0.011531 0.105032 0.035690
v -0.011531 0.100478 0.023178
v 0.006657 0.098811 0.018599
v 0.006657 0.106699 0.040270
v -0.013315 0.102755 0.029434
v -0.006657 0.106699 0.040270
v -0.006657 0.098811 0.018599
v 0.013315 0.102755 0.029434
v -0.006657 0.135286 0.005323
v -0.000000 0.134676 0.003646
v 0.006657 0.135286 0.005323
v -0.013315 0.139230 0.016158
v -0.006657 0.143174 0.026994
v -0.011531 0.141507 0.022414
v 0.006657 0.143174 0.026994
v 0.013315 0.139230 0.016158
v 0.011531 0.141507 0.022414
v -0.011531 0.136953 0.009902
v 0.011531 0.136953 0.009902
v -0.001217 0.134775 0.032694
v 0.000000 0.134880 0.032998
v -0.003520 0.136846 0.033084
v 0.001217 0.134775 0.032694
v 0.003520 0.136846 0.033084
v -0.003833 0.144362 0.030260
v -0.003833 0.143433 0.027705
v 0.003833 0.144362 0.030260
v 0.003833 0.143433 0.027705
v 0.003833 0.137052 0.032920
v -0.003833 0.137052 0.032920
v 0.001217 0.134438 0.031725
v -0.000000 0.134545 0.032033
v 0.003833 0.136161 0.030352
v -0.003833 0.136161 0.030352
v -0.001217 0.134438 0.031725
v -0.015992 0.101193 0.058052
v -0.015992 0.101193 0.015234
v 0.015992 0.101193 0.058052
v 0.015992 0.108729 0.015234
v -0.015992 0.126862 0.058052
v -0.015992 0.138051 0.038572
v -0.015992 0.134774 0.052347
v 0.015992 0.138051 0.038572
v 0.015992 0.126862 0.058052
v 0.015992 0.134774 0.052347
v -0.015992 0.138051 0.035114
v -0.015992 0.123480 0.015234
v -0.015992 0.126632 0.035114
v 0.015992 0.123480 0.015234
v 0.015992 0.138051 0.035114
v 0.015992 0.126632 0.035114
v 0.012063 0.138051 0.035114
v -0.012063 0.138051 0.035114
v -0.012063 0.138051 0.038572
v 0.012063 0.138051 0.038572
v -0.005377 0.115131 0.015234
v -0.012063 0.123480 0.015234
v 0.012063 0.123480 0.015234
v 0.005377 0.115131 0.015234
v -0.012063 0.134774 0.052347
v 0.012063 0.134774 0.052347
v -0.012063 0.126862 0.058052
v 0.012063 0.126862 0.058052
v 0.005377 0.115131 0.058052
v -0.005377 0.115131 0.058052
v 0.012063 0.126632 0.035114
v -0.012063 0.126632 0.035114
v 0.020171 0.104602 0.031117
v -0.020171 0.104602 0.031117
v 0.020171 0.108234 0.032622
v -0.020171 0.108234 0.032622
v 0.020171 0.109738 0.036254
v -0.020171 0.109738 0.036254
v 0.020171 0.108234 0.039886
v -0.020171 0.108234 0.039886
v 0.020171 0.104602 0.041391
v -0.020171 0.104602 0.041391
v 0.020171 0.100969 0.039886
v -0.020171 0.100969 0.039886
v 0.020171 0.099465 0.036254
v -0.020171 0.099465 0.036254
v 0.020171 0.100969 0.032622
v -0.020171 0.100969 0.032622
v 0.016863 0.115941 0.046587
v -0.016863 0.115941 0.046587
v 0.016863 0.118977 0.047845
v -0.016863 0.118977 0.047845
v 0.016863 0.120235 0.050882
v -0.016863 0.120235 0.050882
v 0.016863 0.118977 0.053918
v -0.016863 0.118977 0.053918
v 0.016863 0.115941 0.055176
v -0.016863 0.115941 0.055176
v 0.016863 0.112904 0.053918
v -0.016863 0.112904 0.053918
v 0.016863 0.111647 0.050882
v -0.016863 0.111647 0.050882
v 0.016863 0.112904 0.047845
v -0.016863 0.112904 0.047845
vn -0.0000 -1.0000 -0.0000
vn -0.9801 0.1986 -0.0000
vn -1.0000 -0.0000 -0.0000
vn -0.0000 1.0000 -0.0000
vn 0.9801 0.1986 -0.0000
vn 1.0000 -0.0000 -0.0000
vn -0.0000 -0.0000 1.0000
vn 0.6797 -0.7335 -0.0000
vn -0.6797 -0.7335 -0.0000
vn -0.0000 -0.0000 -1.0000
vn 0.9211 0.3893 -0.0000
vn -0.9211 0.3893 -0.0000
vn 0.2588 -0.3304 -0.9077
vn 0.5000 -0.2962 -0.8138
vn 0.7071 -0.2418 -0.6645
vn 0.9659 -0.0885 -0.2432
vn 0.9659 0.0885 0.2432
vn 0.8660 0.1710 0.4698
vn 0.5000 0.2962 0.8138
vn 0.2588 0.3304 0.9077
vn -0.2588 0.3304 0.9077
vn -0.5000 0.2962 0.8138
vn -0.8660 0.1710 0.4698
vn -0.9659 0.0885 0.2432
vn -0.9659 -0.0885 -0.2432
vn -0.7311 -0.6411 0.2333
vn -0.6332 -0.5161 0.5769
vn -0.7071 -0.2418 -0.6645
vn -0.5000 -0.2962 -0.8138
vn -0.2588 -0.3304 -0.9077
vn -0.0000 -0.9397 0.3420
vn -0.0000 -0.3420 -0.9397
vn -0.3656 -0.4246 0.8283
vn -0.1922 -0.3838 0.9032
vn -0.0000 -0.3911 0.9204
vn 0.1922 -0.3838 0.9032
vn 0.3656 -0.4246 0.8283
vn 0.6332 -0.5161 0.5769
vn 0.7311 -0.6411 0.2333
vn -0.0000 -0.8912 -0.4537
vn -0.3656 -0.8577 -0.3616
vn 0.3656 -0.8577 -0.3616
vn 0.6332 -0.7661 -0.1102
vn -0.6332 -0.7661 -0.1102
vn -0.0000 0.9397 -0.3420
vn -0.7071 0.2418 0.6645
vn 0.8660 -0.1710 -0.4698
vn -0.8660 -0.1710 -0.4698
vn 0.7071 0.2418 0.6645
vn -0.6220 0.7397 -0.2567
vn 0.6220 0.7397 -0.2567
vn -0.0000 0.9447 -0.3278
vn -0.0000 0.9932 0.1165
vn 0.1166 -0.9894 -0.0871
vn -0.0000 0.9728 0.2315
vn -0.0000 0.5849 0.8111
vn -0.0000 0.9877 -0.1566
vn -0.9171 0.3983 -0.0157
vn 0.9171 0.3983 -0.0157
vn -0.0000 0.3827 -0.9239
vn -0.0000 0.9239 -0.3827
vn -0.0000 0.9239 0.3827
vn -0.0000 0.3827 0.9239
vn -0.0000 -0.3827 0.9239
vn -0.0000 -0.9239 0.3827
vn -0.0000 -0.9239 -0.3827
vn -0.0000 -0.3827 -0.9239
vt 0.643765 0.500000
vt 0.856235 0.500000
vt 0.856235 0.750000
vt 0.643765 0.750000
vt 0.375000 0.500000
vt 0.607994 0.500000
vt 0.607994 0.750000
vt 0.375000 0.750000
vt 0.125000 0.500000
vt 0.125000 0.750000
vt 0.375000 0.000000
vt 0.607994 0.000000
vt 0.607994 0.250000
vt 0.375000 0.250000
vt 0.607994 0.250000
vt 0.625000 0.268765
vt 0.625000 0.481235
vt 0.607994 0.500000
vt 0.625000 0.000000
vt 0.625000 0.250000
vt 0.607994 0.750000
vt 0.625000 0.768765
vt 0.625000 0.981235
vt 0.607994 1.000000
vt 0.375000 1.000000
vt 1.000000 0.500000
vt 0.916667 0.500000
vt 0.916667 1.000000
vt 1.000000 1.000000
vt 0.833333 0.500000
vt 0.833333 1.000000
vt 0.750000 0.500000
vt 0.750000 1.000000
vt 0.666667 0.500000
vt 0.666667 1.000000
vt 0.583333 0.500000
vt 0.583333 1.000000
vt 0.500000 0.500000
vt 0.500000 1.000000
vt 0.416667 0.500000
vt 0.416667 1.000000
vt 0.333333 0.500000
vt 0.333333 1.000000
vt 0.250000 0.500000
vt 0.250000 1.000000
vt 0.166667 0.500000
vt 0.166667 1.000000
vt 0.083333 0.500000
vt 0.083333 1.000000
vt 0.000000 0.500000
vt 0.000000 1.000000
vt 0.750000 0.010000
vt 0.750000 0.026876
vt 0.639677 0.056437
vt 0.630000 0.042154
vt 0.558915 0.137199
vt 0.529354 0.247522
vt 0.558915 0.357845
vt 0.639677 0.438607
vt 0.750000 0.468168
vt 0.860323 0.438607
vt 0.941085 0.357845
vt 0.970646 0.247522
vt 0.941085 0.137199
vt 0.860323 0.056437
vt 0.870000 0.042154
vt 0.957846 0.130000
vt 0.990000 0.250000
vt 0.957846 0.370000
vt 0.870000 0.457846
vt 0.750000 0.490000
vt 0.630000 0.457846
vt 0.542154 0.370000
vt 0.510000 0.250000
vt 0.542154 0.130000
vt 0.463745 1.000000
vt 0.486003 1.000000
vt 0.513997 1.000000
vt 0.536255 1.000000
vt 0.421014 0.149048
vt 0.447470 0.247783
vt 0.421014 0.346518
vt 0.348735 0.418797
vt 0.250000 0.445253
vt 0.151265 0.418797
vt 0.078986 0.346518
vt 0.052530 0.247783
vt 0.078986 0.149048
vt 0.151265 0.076769
vt 0.193160 0.065543
vt 0.193160 0.025230
vt 0.130000 0.042154
vt 0.042154 0.130000
vt 0.010000 0.250000
vt 0.042154 0.370000
vt 0.130000 0.457846
vt 0.250000 0.490000
vt 0.370000 0.457846
vt 0.457846 0.370000
vt 0.490000 0.250000
vt 0.457846 0.130000
vt 0.306840 0.025230
vt 0.306840 0.065543
vt 0.348735 0.076769
vt 0.370000 0.042154
vt 0.539472 1.000000
vt 0.539472 1.000000
vt 0.460528 1.000000
vt 0.460528 1.000000
vt 1.000000 0.960650
vt 0.916667 0.960650
vt 0.916667 0.618853
vt 1.000000 0.618853
vt 0.833333 0.960650
vt 0.833333 0.618853
vt 0.750000 0.960650
vt 0.750000 0.618853
vt 0.666667 0.960650
vt 0.666667 0.618853
vt 0.583333 0.960650
vt 0.583333 0.618853
vt 0.547974 0.960650
vt 0.547974 0.892509
vt 0.515237 0.874119
vt 0.500000 0.874076
vt 0.500000 0.618853
vt 0.484763 0.874119
vt 0.452026 0.892509
vt 0.452026 0.960650
vt 0.416667 0.960650
vt 0.416667 0.618853
vt 0.333333 0.960650
vt 0.333333 0.618853
vt 0.250000 0.960650
vt 0.250000 0.618853
vt 0.166667 0.960650
vt 0.166667 0.618853
vt 0.083333 0.960650
vt 0.083333 0.618853
vt 0.000000 0.960650
vt 0.000000 0.618853
vt 0.375000 0.145141
vt 0.625000 0.155968
vt 0.625000 0.115770
vt 0.595142 0.114477
vt 0.375000 0.129971
vt 0.595142 0.635523
vt 0.625000 0.634230
vt 0.625000 0.594032
vt 0.375000 0.604859
vt 0.375000 0.620029
vt 0.250000 0.609682
vt 0.125000 0.604859
vt 0.125000 0.620029
vt 0.250000 0.624786
vt 0.625000 0.592308
vt 0.625000 0.632497
vt 0.625000 0.117503
vt 0.625000 0.157692
vt 0.527640 0.616074
vt 0.527640 0.500000
vt 0.529602 0.750000
vt 0.597059 0.716688
vt 0.625000 0.636265
vt 0.625000 0.616074
vt 0.875000 0.616074
vt 0.844289 0.616074
vt 0.844289 0.636265
vt 0.875000 0.636265
vt 0.655711 0.636265
vt 0.655711 0.616074
vt 0.527640 0.469289
vt 0.445443 0.469289
vt 0.467218 0.280711
vt 0.527640 0.280711
vt 0.527640 0.250000
vt 0.844289 0.750000
vt 0.875000 0.750000
vt 0.625000 0.750000
vt 0.655711 0.750000
vt 0.625000 1.000000
vt 0.625000 0.969289
vt 0.529602 0.969289
vt 0.529602 1.000000
vt 0.529602 0.780711
vt 0.625000 0.780711
vt 0.458947 0.969289
vt 0.458947 0.780711
vt 0.655711 0.500000
vt 0.625000 0.500000
vt 0.875000 0.500000
vt 0.844289 0.500000
vt 0.625000 0.469289
vt 0.625000 0.280711
vt 0.527640 0.133926
vt 0.625000 0.133926
vt 0.625000 0.113735
vt 0.597059 0.033312
vt 0.529602 0.000000
vt 0.396263 0.179788
vt 0.428968 0.199352
vt 0.507926 0.207456
vt 0.625000 0.207456
vt 0.625000 0.146638
vt 0.541676 0.146638
vt 0.510223 0.174876
vt 0.396263 0.174876
vt 0.396263 0.575124
vt 0.510223 0.575124
vt 0.541675 0.603362
vt 0.625000 0.603362
vt 0.625000 0.542544
vt 0.507926 0.542544
vt 0.428968 0.550648
vt 0.396263 0.570212
vt 0.875000 0.542544
vt 0.875000 0.603362
vt 0.875000 1.000000
vt 0.750000 0.500000
vt 0.750000 1.000000
vt 0.500000 0.500000
vt 0.500000 1.000000
vt 0.250000 0.500000
vt 0.250000 1.000000
vt 0.419706 0.419706
vt 0.419706 0.080294
vt 0.250000 0.010000
vt 0.080294 0.080294
vt 0.080294 0.419706
vt 0.125000 1.000000
vt 0.000000 0.500000
vt 0.000000 1.000000
vt 0.580294 0.419706
vt 0.580294 0.080294
vt 0.919706 0.080294
vt 0.919706 0.419706
s 1
f 15/1/1 14/4/1 9/3/1 12/2/1
f 7/5/2 5/8/2 13/7/3 16/6/3
f 8/9/4 6/10/4 2/8/4 4/5/4
f 1/11/5 3/14/5 11/13/6 10/12/6
f 3/14/7 8/14/7 4/5/7 7/5/7
f 3/14/7 7/5/7 16/18/7 15/17/7 12/16/7 11/15/7
f 9/19/8 10/12/8 11/13/8 12/20/8
f 15/1/9 16/6/9 13/7/9 14/4/9
f 5/8/10 1/25/10 10/24/10 9/23/10 14/22/10 13/21/10
f 1/11/5 6/11/11 8/14/11 3/14/5
f 7/5/2 4/5/12 2/8/12 5/8/2
f 5/8/10 2/8/10 6/25/10 1/25/10
f 17/26/13 18/29/13 20/28/14 19/27/14
f 19/27/14 20/28/14 22/31/15 21/30/15
f 21/30/16 22/31/16 24/33/16 23/32/16
f 23/32/17 24/33/17 26/35/18 25/34/18
f 25/34/18 26/35/18 28/37/19 27/36/19
f 27/36/19 28/37/19 30/39/20 29/38/20
f 29/38/21 30/39/21 32/41/22 31/40/22
f 31/40/22 32/41/22 34/43/23 33/42/23
f 33/42/23 34/43/23 36/45/24 35/44/24
f 35/44/25 36/45/25 38/47/25 37/46/25
f 36/45/26 34/43/27 48/43/27 49/45/26
f 37/46/28 38/47/28 40/49/29 39/48/29
f 39/48/29 40/49/29 18/51/30 17/50/30
f 29/52/31 31/55/31 72/54/31 66/53/31
f 67/56/31 72/54/31 31/55/31 33/75/31 35/74/31 37/73/31 39/72/31 17/71/31 19/70/31 21/69/31 23/68/31 25/67/31 27/66/31 29/52/31 66/53/31 70/65/31 65/64/31 74/63/31 64/62/31 69/61/31 63/60/31 73/59/31 68/58/31 71/57/31
f 41/28/13 42/29/32 53/29/32 52/28/13
f 34/43/27 32/41/33 47/41/33 48/43/27
f 47/41/33 32/41/33 30/39/35 87/39/35 86/77/34 88/76/34
f 87/39/35 30/39/35 28/37/37 46/37/37 90/79/36 89/78/36
f 28/37/37 26/35/38 45/35/38 46/37/37
f 26/35/38 24/33/39 44/33/39 45/35/38
f 18/51/40 40/49/41 51/49/41 42/51/40
f 20/28/42 18/29/40 42/29/40 41/28/42
f 24/33/39 22/31/43 43/31/43 44/33/39
f 40/49/41 38/47/44 50/47/44 51/49/41
f 22/31/43 20/28/42 41/28/42 43/31/43
f 38/47/44 36/45/26 49/45/26 50/47/44
f 83/80/45 56/101/45 55/100/45 54/99/45 52/98/45 53/97/45 62/96/45 61/95/45 60/94/45 59/93/45 58/92/45 91/91/45 92/90/45 79/89/45 80/88/45 78/87/45 84/86/45 75/85/45 76/84/45 77/83/45 85/82/45 82/81/45
f 93/102/45 57/105/45 56/101/45 83/80/45 81/104/45 94/103/45
f 48/43/46 47/41/46 58/41/46 59/43/46
f 46/37/19 45/35/18 56/35/18 57/37/19
f 42/51/32 51/49/30 62/49/30 53/51/32
f 43/31/47 41/28/15 52/28/15 54/31/47
f 49/45/3 48/43/24 59/43/24 60/45/3
f 95/106/20 90/79/20 46/37/19 57/37/19 93/107/20
f 44/33/6 43/31/47 54/31/47 55/33/6
f 50/47/48 49/45/3 60/45/3 61/47/48
f 91/108/21 58/41/21 47/41/21 88/76/21 96/109/21
f 45/35/18 44/33/6 55/33/6 56/35/18
f 51/49/28 50/47/48 61/47/48 62/49/28
f 76/110/21 63/113/21 69/112/22 77/111/22
f 77/111/22 69/112/22 64/115/46 85/114/46
f 64/115/24 74/117/3 82/116/3 85/114/24
f 74/117/3 65/119/25 83/118/25 82/116/3
f 65/119/28 70/121/29 81/120/29 83/118/28
f 94/122/30 81/120/29 70/121/29 66/126/30 98/125/30 97/124/30 99/123/30
f 66/126/13 72/131/14 79/130/14 92/129/13 100/128/13 101/127/13 98/125/13
f 72/131/14 67/133/15 80/132/15 79/130/14
f 80/132/16 67/133/16 71/135/6 78/134/6
f 78/134/6 71/135/6 68/137/17 84/136/17
f 84/136/49 68/137/49 73/139/19 75/138/19
f 75/138/19 73/139/19 63/141/20 76/140/20
f 97/142/50 89/146/50 90/145/50 95/144/50 99/143/50
f 88/147/51 86/151/51 101/150/51 100/149/51 96/148/51
f 101/150/52 86/151/52 87/155/52 89/154/52 97/153/52 98/152/52
f 92/156/6 91/157/6 96/148/6 100/149/6
f 93/158/3 94/159/3 99/143/3 95/144/3
f 117/160/6 116/165/6 109/164/6 111/163/6 110/162/6 104/8/6 105/5/6 115/161/6
f 112/166/4 107/169/53 120/168/53 119/167/4
f 121/170/53 109/164/53 116/165/4 118/171/4
f 124/172/10 115/161/10 105/5/10 103/14/10 113/176/10 123/175/10 122/174/10 125/173/10
f 103/9/54 105/5/54 104/8/54 102/10/54
f 107/169/53 108/178/55 126/177/55 120/168/53
f 111/179/55 109/164/53 121/170/53 127/180/55
f 108/181/56 106/184/56 128/183/56 126/182/56
f 129/185/56 110/162/56 111/179/56 127/186/56
f 106/184/7 102/25/7 104/8/7 110/162/7 129/185/7 130/188/7 131/187/7 128/183/7
f 118/171/10 116/165/10 117/190/10 132/189/10
f 114/191/10 112/166/10 119/167/10 133/192/10
f 132/193/57 117/190/57 115/161/57 124/172/57
f 113/176/57 114/20/57 133/194/57 123/175/57
f 114/195/3 113/176/3 103/14/3 102/11/3 106/199/3 108/198/3 107/197/3 112/196/3
f 121/200/58 118/207/58 132/206/58 124/205/58 125/204/58 130/203/58 129/202/58 127/201/58
f 119/208/59 120/215/59 126/214/59 128/213/59 131/212/59 122/211/59 123/210/59 133/209/59
f 130/216/4 125/217/4 122/211/4 131/212/4
f 134/26/60 135/29/60 137/218/60 136/191/60
f 136/191/61 137/218/61 139/220/61 138/219/61
f 138/219/62 139/220/62 141/181/62 140/190/62
f 140/190/63 141/181/63 143/222/63 142/221/63
f 142/221/64 143/222/64 145/25/64 144/5/64
f 144/5/65 145/25/65 147/224/65 146/223/65
f 137/225/3 135/97/3 149/229/3 147/94/3 145/228/3 143/227/3 141/226/3 139/100/3
f 146/223/66 147/224/66 149/230/66 148/9/66
f 148/9/67 149/230/67 135/232/67 134/231/67
f 134/71/6 136/236/6 138/68/6 140/235/6 142/52/6 144/234/6 146/74/6 148/233/6
f 150/26/60 151/29/60 153/218/60 152/191/60
f 152/191/61 153/218/61 155/220/61 154/219/61
f 154/219/62 155/220/62 157/181/62 156/190/62
f 156/190/63 157/181/63 159/222/63 158/221/63
f 158/221/64 159/222/64 161/25/64 160/5/64
f 160/5/65 161/25/65 163/224/65 162/223/65
f 153/225/3 151/97/3 165/229/3 163/94/3 161/228/3 159/227/3 157/226/3 155/100/3
f 162/223/66 163/224/66 165/230/66 164/9/66
f 164/9/67 165/230/67 151/232/67 150/231/67
f 150/71/6 152/236/6 154/68/6 156/235/6 158/52/6 160/234/6 162/74/6 164/233/6
