# Blender 4.0.2
# www.blender.org
mtllib Slide.mtl
o Handle.009_Cube.011
v 0.000000 0.076334 -0.013946
v 0.000000 0.076334 -0.163235
v -0.005167 0.075825 -0.013946
v -0.005167 0.075825 -0.163235
v -0.010136 0.074318 -0.013946
v -0.010136 0.074318 -0.163235
v -0.014715 0.071870 -0.013946
v -0.014715 0.071870 -0.163235
v -0.018728 0.068576 -0.013946
v -0.018728 0.068576 -0.163235
v -0.022022 0.064563 -0.013946
v -0.022022 0.064563 -0.163235
v -0.024469 0.059984 -0.013946
v -0.024469 0.059984 -0.163235
v -0.025977 0.055015 -0.013946
v -0.025977 0.055015 -0.163235
v -0.026486 0.049848 -0.013946
v -0.026486 0.049848 -0.163235
v -0.025977 0.044681 -0.013946
v -0.025977 0.044681 -0.163235
v -0.024469 0.039713 -0.013946
v -0.024469 0.039713 -0.163235
v -0.022022 0.035134 -0.013946
v -0.022022 0.035134 -0.163235
v -0.018728 0.031120 -0.013946
v -0.018728 0.031120 -0.163235
v -0.014715 0.027826 -0.013946
v -0.014715 0.027826 -0.163235
v -0.010136 0.025379 -0.013946
v -0.010136 0.025379 -0.163235
v -0.005167 0.023871 -0.013946
v -0.005167 0.023872 -0.163235
v 0.000000 0.023363 -0.013946
v 0.000000 0.023363 -0.163235
v 0.005167 0.023871 -0.013946
v 0.005167 0.023872 -0.163235
v 0.010136 0.025379 -0.013946
v 0.010136 0.025379 -0.163235
v 0.014715 0.027826 -0.013946
v 0.014715 0.027826 -0.163235
v 0.018728 0.031120 -0.013946
v 0.018728 0.031120 -0.163235
v 0.022022 0.035134 -0.013946
v 0.022022 0.035134 -0.163235
v 0.024469 0.039713 -0.013946
v 0.024469 0.039713 -0.163235
v 0.025977 0.044681 -0.013946
v 0.025977 0.044681 -0.163235
v 0.018728 0.068576 -0.013946
v 0.018728 0.068576 -0.163235
v 0.014715 0.071870 -0.013946
v 0.014715 0.071870 -0.163235
v 0.010136 0.074318 -0.013946
v 0.010136 0.074318 -0.163235
v 0.005167 0.075825 -0.013946
v 0.005167 0.075825 -0.163235
v 0.000000 0.076334 -0.085369
v -0.005167 0.075825 -0.085369
v -0.010136 0.074318 -0.085369
v -0.014715 0.071870 -0.085369
v -0.018728 0.068576 -0.085369
v -0.022022 0.064563 -0.085369
v -0.024469 0.059984 -0.085369
v -0.025977 0.055015 -0.085369
v -0.026486 0.049848 -0.085369
v -0.025977 0.044681 -0.085369
v -0.024469 0.039713 -0.085369
v -0.022022 0.035134 -0.085369
v -0.018728 0.031120 -0.085369
v -0.014715 0.027826 -0.085369
v -0.010136 0.025379 -0.085369
v -0.005167 0.023872 -0.085369
v 0.000000 0.023363 -0.085369
v 0.005167 0.023872 -0.085369
v 0.010136 0.025379 -0.085369
v 0.014715 0.027826 -0.085369
v 0.018728 0.031120 -0.085369
v 0.022022 0.035134 -0.085369
v 0.024469 0.039713 -0.085369
v 0.025977 0.044681 -0.085369
v 0.018728 0.068576 -0.085369
v 0.014715 0.071870 -0.085369
v 0.010136 0.074318 -0.085369
v 0.005167 0.075825 -0.085369
v 0.000000 0.076334 -0.121080
v -0.005167 0.075825 -0.121080
v -0.010136 0.074318 -0.121080
v -0.014715 0.071870 -0.121080
v -0.018728 0.068576 -0.121080
v -0.022022 0.064563 -0.121080
v -0.024469 0.059984 -0.121080
v -0.025977 0.055015 -0.121080
v -0.026486 0.049848 -0.121080
v -0.025977 0.044681 -0.121080
v -0.024469 0.039713 -0.121080
v -0.022022 0.035134 -0.121080
v -0.018728 0.031120 -0.121080
v -0.014715 0.027826 -0.121080
v -0.010136 0.025379 -0.121080
v -0.005167 0.023872 -0.121080
v 0.000000 0.023363 -0.121080
v 0.005167 0.023872 -0.121080
v 0.010136 0.025379 -0.121080
v 0.014715 0.027826 -0.121080
v 0.018728 0.031120 -0.121080
v 0.022022 0.035134 -0.121080
v 0.024469 0.039713 -0.121080
v 0.025977 0.044681 -0.121080
v 0.018728 0.068576 -0.121080
v 0.014715 0.071870 -0.121080
v 0.010136 0.074318 -0.121080
v 0.005167 0.075825 -0.121080
v -0.004436 0.072150 -0.115825
v -0.004436 0.072150 -0.090624
v -0.008702 0.070856 -0.115825
v -0.008702 0.070856 -0.090624
v -0.012633 0.068755 -0.115825
v -0.012633 0.068755 -0.090624
v -0.016079 0.065927 -0.115825
v -0.016079 0.065927 -0.090624
v -0.018907 0.062481 -0.115825
v -0.018907 0.062481 -0.090624
v -0.021008 0.058550 -0.115825
v -0.021008 0.058550 -0.090624
v -0.022302 0.054284 -0.115825
v -0.022302 0.054284 -0.090624
v -0.022739 0.049848 -0.115825
v -0.022739 0.049848 -0.090624
v -0.022302 0.045412 -0.115825
v -0.022302 0.045412 -0.090624
v -0.021008 0.041146 -0.115825
v -0.021008 0.041146 -0.090624
v -0.018907 0.037215 -0.115825
v -0.018907 0.037215 -0.090624
v -0.016079 0.033769 -0.115825
v -0.016079 0.033769 -0.090624
v -0.012633 0.030941 -0.115825
v -0.012633 0.030941 -0.090624
v -0.008702 0.028840 -0.115825
v -0.008702 0.028840 -0.090624
v -0.004436 0.027546 -0.115825
v -0.004436 0.027546 -0.090624
v 0.000000 0.027109 -0.115825
v 0.000000 0.027109 -0.090624
v 0.004436 0.027546 -0.115825
v 0.004436 0.027546 -0.090624
v 0.008702 0.028840 -0.115825
v 0.008702 0.028840 -0.090624
v 0.012633 0.030941 -0.115825
v 0.012633 0.030941 -0.090624
v 0.016079 0.033769 -0.115825
v 0.016079 0.033769 -0.090624
v 0.018907 0.037215 -0.115825
v 0.018907 0.037215 -0.090624
v 0.021008 0.041146 -0.115825
v 0.021008 0.041146 -0.090624
v 0.022302 0.045412 -0.115825
v 0.022302 0.045412 -0.090624
v 0.012633 0.068755 -0.115825
v 0.012633 0.068755 -0.090624
v 0.008702 0.070856 -0.115825
v 0.008702 0.070856 -0.090624
v 0.004436 0.072150 -0.115825
v 0.004436 0.072150 -0.090624
v 0.000000 0.072587 -0.090624
v 0.000000 0.072587 -0.115825
v 0.023825 0.059402 -0.013946
v 0.023825 0.059402 -0.163235
v 0.023825 0.059402 -0.085369
v 0.023825 0.059402 -0.121080
v 0.020774 0.056731 -0.090624
v 0.020774 0.056731 -0.115825
vn -0.0000 1.0000 -0.0000
vn -0.1951 0.9808 -0.0000
vn -0.3827 0.9239 -0.0000
vn -0.5556 0.8314 -0.0000
vn -0.7071 0.7071 -0.0000
vn -0.8315 0.5556 -0.0000
vn -0.9239 0.3827 -0.0000
vn -0.9808 0.1952 -0.0000
vn -1.0000 -0.0000 -0.0000
vn -0.9808 -0.1952 -0.0000
vn -0.9239 -0.3827 -0.0000
vn -0.8315 -0.5555 -0.0000
vn -0.7072 -0.7071 -0.0000
vn -0.5556 -0.8315 -0.0000
vn -0.3826 -0.9239 -0.0000
vn -0.1951 -0.9808 -0.0000
vn -0.0000 -1.0000 -0.0000
vn 0.1951 -0.9808 -0.0000
vn 0.3826 -0.9239 -0.0000
vn 0.5556 -0.8315 -0.0000
vn 0.7071 -0.7071 -0.0000
vn 0.8315 -0.5555 -0.0000
vn 0.9239 -0.3827 -0.0000
vn 0.9972 -0.0747 -0.0000
vn 0.9473 0.3204 -0.0000
vn 0.7679 0.6406 -0.0000
vn 0.5556 0.8314 -0.0000
vn 0.3827 0.9239 -0.0000
vn 0.1951 0.9808 -0.0000
vn -0.0000 -0.0000 1.0000
vn 0.3827 -0.9239 -0.0000
vn -0.3827 -0.9239 -0.0000
vn -0.7071 -0.7071 -0.0000
vn 0.1588 0.7986 0.5806
vn -0.0000 0.8142 0.5806
vn 0.3116 0.7522 0.5806
vn 0.5033 0.6086 0.6134
vn 0.4524 0.6770 0.5805
vn 0.6069 0.4783 0.6347
vn 0.7574 0.2452 0.6052
vn 0.7308 0.2859 0.6199
vn 0.7523 -0.3116 0.5805
vn 0.8155 -0.0696 0.5745
vn 0.8176 -0.0539 0.5733
vn 0.6771 -0.4524 0.5805
vn 0.5758 -0.5758 0.5805
vn 0.4524 -0.6770 0.5805
vn 0.3116 -0.7523 0.5805
vn 0.1588 -0.7986 0.5805
vn 0.1589 -0.7986 0.5805
vn -0.0000 -0.8143 0.5805
vn -0.1588 -0.7986 0.5805
vn -0.1589 -0.7986 0.5805
vn -0.3116 -0.7523 0.5805
vn -0.4524 -0.6770 0.5805
vn -0.5758 -0.5758 0.5805
vn -0.6771 -0.4524 0.5805
vn -0.7523 -0.3116 0.5805
vn -0.7986 -0.1589 0.5805
vn -0.8142 -0.0000 0.5806
vn -0.7986 0.1589 0.5805
vn -0.7523 0.3116 0.5805
vn -0.6770 0.4524 0.5805
vn -0.5758 0.5758 0.5805
vn -0.4524 0.6770 0.5805
vn -0.3116 0.7522 0.5806
vn -0.1588 0.7986 0.5806
vn -0.0000 0.8142 -0.5806
vn -0.1588 0.7986 -0.5806
vn -0.3116 0.7522 -0.5806
vn -0.4524 0.6770 -0.5805
vn -0.5556 0.8315 -0.0000
vn -0.5758 0.5758 -0.5805
vn -0.6770 0.4524 -0.5805
vn -0.7523 0.3116 -0.5805
vn -0.7986 0.1589 -0.5805
vn -0.9808 0.1951 -0.0000
vn -0.8142 -0.0000 -0.5806
vn -0.7986 -0.1589 -0.5805
vn -0.9808 -0.1951 -0.0000
vn -0.7523 -0.3116 -0.5805
vn -0.6771 -0.4524 -0.5805
vn -0.8315 -0.5556 -0.0000
vn -0.5758 -0.5758 -0.5805
vn -0.4524 -0.6770 -0.5805
vn -0.3116 -0.7523 -0.5805
vn -0.1588 -0.7986 -0.5805
vn -0.1589 -0.7986 -0.5805
vn -0.0000 -0.8143 -0.5805
vn 0.1588 -0.7986 -0.5805
vn 0.1589 -0.7986 -0.5805
vn 0.3116 -0.7523 -0.5805
vn 0.4524 -0.6770 -0.5805
vn 0.5758 -0.5758 -0.5805
vn 0.6771 -0.4524 -0.5805
vn 0.8315 -0.5556 -0.0000
vn 0.7523 -0.3116 -0.5805
vn 0.8176 -0.0539 -0.5733
vn 0.8155 -0.0696 -0.5745
vn 0.9968 -0.0801 -0.0000
vn 0.7308 0.2859 -0.6199
vn 0.7574 0.2452 -0.6052
vn 0.5033 0.6086 -0.6134
vn 0.6069 0.4783 -0.6347
vn 0.9342 0.3566 -0.0000
vn 0.6693 0.7430 -0.0000
vn 0.4524 0.6770 -0.5805
vn 0.3116 0.7522 -0.5806
vn 0.1588 0.7986 -0.5806
vn -0.0000 -0.0000 -1.0000
vt 1.000000 0.875000
vt 1.000000 1.000000
vt 0.968750 1.000000
vt 0.968750 0.875000
vt 0.937500 1.000000
vt 0.937500 0.875000
vt 0.906250 1.000000
vt 0.906250 0.875000
vt 0.875000 1.000000
vt 0.875000 0.875000
vt 0.843750 1.000000
vt 0.843750 0.875000
vt 0.812500 1.000000
vt 0.812500 0.875000
vt 0.781250 1.000000
vt 0.781250 0.875000
vt 0.750000 1.000000
vt 0.750000 0.875000
vt 0.718750 1.000000
vt 0.718750 0.875000
vt 0.687500 1.000000
vt 0.687500 0.875000
vt 0.656250 1.000000
vt 0.656250 0.875000
vt 0.625000 1.000000
vt 0.625000 0.875000
vt 0.593750 1.000000
vt 0.593750 0.875000
vt 0.562500 1.000000
vt 0.562500 0.875000
vt 0.531250 1.000000
vt 0.531250 0.875000
vt 0.500000 1.000000
vt 0.500000 0.875000
vt 0.468750 1.000000
vt 0.468750 0.875000
vt 0.437500 1.000000
vt 0.437500 0.875000
vt 0.406250 1.000000
vt 0.406250 0.875000
vt 0.375000 1.000000
vt 0.375000 0.875000
vt 0.343750 1.000000
vt 0.343750 0.875000
vt 0.312500 1.000000
vt 0.312500 0.875000
vt 0.281250 1.000000
vt 0.281250 0.875000
vt 0.265625 0.875000
vt 0.265625 1.000000
vt 0.250000 1.000000
vt 0.250000 0.875000
vt 0.125000 0.875000
vt 0.125000 1.000000
vt 0.093750 1.000000
vt 0.093750 0.875000
vt 0.062500 1.000000
vt 0.062500 0.875000
vt 0.031250 1.000000
vt 0.031250 0.875000
vt 0.000000 1.000000
vt 0.000000 0.875000
vt 0.750000 0.490000
vt 0.796822 0.485388
vt 0.841844 0.471731
vt 0.883337 0.449553
vt 0.919706 0.419706
vt 0.949553 0.383337
vt 0.971731 0.341844
vt 0.985388 0.296822
vt 0.990000 0.250000
vt 0.985388 0.203178
vt 0.971731 0.158156
vt 0.949553 0.116663
vt 0.919706 0.080294
vt 0.883337 0.050447
vt 0.841844 0.028269
vt 0.796822 0.014612
vt 0.750000 0.010000
vt 0.703178 0.014612
vt 0.658156 0.028269
vt 0.616663 0.050447
vt 0.580294 0.080294
vt 0.550447 0.116663
vt 0.528269 0.158156
vt 0.514612 0.203178
vt 0.547453 0.311442
vt 0.580294 0.419706
vt 0.616663 0.449553
vt 0.658156 0.471731
vt 0.703178 0.485388
vt 0.031250 0.500000
vt 0.031250 0.750000
vt 0.000000 0.750000
vt 0.000000 0.500000
vt 0.062500 0.500000
vt 0.062500 0.750000
vt 0.093750 0.500000
vt 0.093750 0.750000
vt 0.125000 0.500000
vt 0.125000 0.750000
vt 0.265625 0.500000
vt 0.265625 0.750000
vt 0.250000 0.750000
vt 0.250000 0.500000
vt 0.312500 0.500000
vt 0.312500 0.750000
vt 0.281250 0.750000
vt 0.281250 0.500000
vt 0.343750 0.500000
vt 0.343750 0.750000
vt 0.375000 0.500000
vt 0.375000 0.750000
vt 0.406250 0.500000
vt 0.406250 0.750000
vt 0.437500 0.500000
vt 0.437500 0.750000
vt 0.468750 0.500000
vt 0.468750 0.750000
vt 0.500000 0.500000
vt 0.500000 0.750000
vt 0.531250 0.500000
vt 0.531250 0.750000
vt 0.562500 0.500000
vt 0.562500 0.750000
vt 0.593750 0.500000
vt 0.593750 0.750000
vt 0.625000 0.500000
vt 0.625000 0.750000
vt 0.656250 0.500000
vt 0.656250 0.750000
vt 0.687500 0.500000
vt 0.687500 0.750000
vt 0.718750 0.500000
vt 0.718750 0.750000
vt 0.750000 0.500000
vt 0.750000 0.750000
vt 0.781250 0.500000
vt 0.781250 0.750000
vt 0.812500 0.500000
vt 0.812500 0.750000
vt 0.843750 0.500000
vt 0.843750 0.750000
vt 0.875000 0.500000
vt 0.875000 0.750000
vt 0.906250 0.500000
vt 0.906250 0.750000
vt 0.937500 0.500000
vt 0.937500 0.750000
vt 0.968750 0.500000
vt 0.968750 0.750000
vt 1.000000 0.500000
vt 1.000000 0.750000
vt 0.031250 0.833333
vt 0.000000 0.833333
vt 0.062500 0.833333
vt 0.093750 0.833333
vt 0.125000 0.833333
vt 0.265625 0.833333
vt 0.250000 0.833333
vt 0.312500 0.833333
vt 0.281250 0.833333
vt 0.343750 0.833333
vt 0.375000 0.833333
vt 0.406250 0.833333
vt 0.437500 0.833333
vt 0.468750 0.833333
vt 0.500000 0.833333
vt 0.531250 0.833333
vt 0.562500 0.833333
vt 0.593750 0.833333
vt 0.625000 0.833333
vt 0.656250 0.833333
vt 0.687500 0.833333
vt 0.718750 0.833333
vt 0.750000 0.833333
vt 0.781250 0.833333
vt 0.812500 0.833333
vt 0.843750 0.833333
vt 0.875000 0.833333
vt 0.906250 0.833333
vt 0.937500 0.833333
vt 0.968750 0.833333
vt 1.000000 0.833333
vt 1.000000 0.791667
vt 0.968750 0.791667
vt 0.937500 0.791667
vt 0.906250 0.791667
vt 0.875000 0.791667
vt 0.843750 0.791667
vt 0.812500 0.791667
vt 0.781250 0.791667
vt 0.750000 0.791667
vt 0.718750 0.791667
vt 0.687500 0.791667
vt 0.656250 0.791667
vt 0.625000 0.791667
vt 0.593750 0.791667
vt 0.562500 0.791667
vt 0.531250 0.791667
vt 0.500000 0.791667
vt 0.468750 0.791667
vt 0.437500 0.791667
vt 0.406250 0.791667
vt 0.375000 0.791667
vt 0.343750 0.791667
vt 0.312500 0.791667
vt 0.281250 0.791667
vt 0.265625 0.791667
vt 0.250000 0.791667
vt 0.093750 0.791667
vt 0.062500 0.791667
vt 0.031250 0.791667
vt 0.000000 0.791667
vt 0.296822 0.485388
vt 0.250000 0.490000
vt 0.203178 0.485388
vt 0.158156 0.471731
vt 0.116663 0.449553
vt 0.010000 0.250000
vt 0.012306 0.226589
vt 0.014612 0.203178
vt 0.028269 0.158156
vt 0.050447 0.116663
vt 0.080294 0.080294
vt 0.116663 0.050447
vt 0.158156 0.028269
vt 0.203178 0.014612
vt 0.250000 0.010000
vt 0.296822 0.014612
vt 0.341844 0.028269
vt 0.383337 0.050447
vt 0.419706 0.080294
vt 0.449553 0.116663
vt 0.471731 0.158156
vt 0.485388 0.203178
vt 0.490000 0.250000
vt 0.485388 0.296822
vt 0.471731 0.341844
vt 0.449553 0.383337
vt 0.419706 0.419706
vt 0.383337 0.449553
vt 0.341844 0.471731
s 1
usemtl M4A1.008
f 85/1/1 2/2/1 4/3/2 86/4/2
f 86/4/2 4/3/2 6/5/3 87/6/3
f 87/6/3 6/5/3 8/7/4 88/8/4
f 88/8/4 8/7/4 10/9/5 89/10/5
f 89/10/5 10/9/5 12/11/6 90/12/6
f 90/12/6 12/11/6 14/13/7 91/14/7
f 91/14/7 14/13/7 16/15/8 92/16/8
f 92/16/8 16/15/8 18/17/9 93/18/9
f 93/18/9 18/17/9 20/19/10 94/20/10
f 94/20/10 20/19/10 22/21/11 95/22/11
f 95/22/11 22/21/11 24/23/12 96/24/12
f 96/24/12 24/23/12 26/25/13 97/26/13
f 97/26/13 26/25/13 28/27/14 98/28/14
f 98/28/14 28/27/14 30/29/15 99/30/15
f 99/30/15 30/29/15 32/31/16 100/32/16
f 100/32/16 32/31/16 34/33/17 101/34/17
f 101/34/17 34/33/17 36/35/18 102/36/18
f 102/36/18 36/35/18 38/37/19 103/38/19
f 103/38/19 38/37/19 40/39/20 104/40/20
f 104/40/20 40/39/20 42/41/21 105/42/21
f 105/42/21 42/41/21 44/43/22 106/44/22
f 106/44/22 44/43/22 46/45/23 107/46/23
f 107/46/23 46/45/23 48/47/24 108/48/24
f 170/49/25 168/50/25 50/51/26 109/52/26
f 109/53/26 50/54/26 52/55/27 110/56/27
f 110/56/27 52/55/27 54/57/28 111/58/28
f 111/58/28 54/57/28 56/59/29 112/60/29
f 112/60/29 56/59/29 2/61/1 85/62/1
f 1/63/30 3/64/30 5/65/30 7/66/30 9/67/30 11/68/30 13/69/30 15/70/30 17/71/30 19/72/30 21/73/30 23/74/30 25/75/30 27/76/30 29/77/30 31/78/30 33/79/30 35/80/30 37/81/30 39/82/30 41/83/30 43/84/30 45/85/30 47/86/30 167/87/30 49/88/30 51/89/30 53/90/30 55/91/30
f 55/92/29 84/93/29 57/94/1 1/95/1
f 53/96/28 83/97/28 84/93/29 55/92/29
f 51/98/27 82/99/27 83/97/28 53/96/28
f 49/100/26 81/101/26 82/99/27 51/98/27
f 167/102/25 169/103/25 81/104/26 49/105/26
f 45/106/23 79/107/23 80/108/24 47/109/24
f 43/110/22 78/111/22 79/107/23 45/106/23
f 41/112/21 77/113/21 78/111/22 43/110/22
f 39/114/20 76/115/20 77/113/21 41/112/21
f 37/116/31 75/117/31 76/115/20 39/114/20
f 35/118/18 74/119/18 75/117/31 37/116/31
f 33/120/17 73/121/17 74/119/18 35/118/18
f 31/122/16 72/123/16 73/121/17 33/120/17
f 29/124/32 71/125/32 72/123/16 31/122/16
f 27/126/14 70/127/14 71/125/32 29/124/32
f 25/128/33 69/129/33 70/127/14 27/126/14
f 23/130/12 68/131/12 69/129/33 25/128/33
f 21/132/11 67/133/11 68/131/12 23/130/12
f 19/134/10 66/135/10 67/133/11 21/132/11
f 17/136/9 65/137/9 66/135/10 19/134/10
f 15/138/8 64/139/8 65/137/9 17/136/9
f 13/140/7 63/141/7 64/139/8 15/138/8
f 11/142/6 62/143/6 63/141/7 13/140/7
f 9/144/5 61/145/5 62/143/6 11/142/6
f 7/146/4 60/147/4 61/145/5 9/144/5
f 5/148/3 59/149/3 60/147/4 7/146/4
f 3/150/2 58/151/2 59/149/3 5/148/3
f 1/152/1 57/153/1 58/151/2 3/150/2
f 163/154/34 112/60/34 85/62/35 166/155/35
f 161/156/36 111/58/36 112/60/34 163/154/34
f 159/157/37 110/56/38 111/58/36 161/156/36
f 159/158/37 109/53/39 110/56/38
f 172/159/40 170/49/41 109/52/39 159/160/37
f 155/161/42 107/46/42 108/48/43 157/162/44
f 153/163/45 106/44/45 107/46/42 155/161/42
f 151/164/46 105/42/46 106/44/45 153/163/45
f 149/165/47 104/40/47 105/42/46 151/164/46
f 147/166/48 103/38/48 104/40/47 149/165/47
f 145/167/49 102/36/50 103/38/48 147/166/48
f 143/168/51 101/34/51 102/36/50 145/167/49
f 141/169/52 100/32/53 101/34/51 143/168/51
f 139/170/54 99/30/54 100/32/53 141/169/52
f 137/171/55 98/28/55 99/30/54 139/170/54
f 135/172/56 97/26/56 98/28/55 137/171/55
f 133/173/57 96/24/57 97/26/56 135/172/56
f 131/174/58 95/22/58 96/24/57 133/173/57
f 129/175/59 94/20/59 95/22/58 131/174/58
f 127/176/60 93/18/60 94/20/59 129/175/59
f 125/177/61 92/16/61 93/18/60 127/176/60
f 123/178/62 91/14/62 92/16/61 125/177/61
f 121/179/63 90/12/63 91/14/62 123/178/62
f 119/180/64 89/10/64 90/12/63 121/179/63
f 117/181/65 88/8/65 89/10/64 119/180/64
f 115/182/66 87/6/66 88/8/65 117/181/65
f 113/183/67 86/4/67 87/6/66 115/182/66
f 166/184/35 85/1/35 86/4/67 113/183/67
f 57/153/68 165/185/68 114/186/69 58/151/69
f 165/185/1 166/184/1 113/183/2 114/186/2
f 58/151/69 114/186/69 116/187/70 59/149/70
f 114/186/2 113/183/2 115/182/3 116/187/3
f 59/149/70 116/187/70 118/188/71 60/147/71
f 116/187/3 115/182/3 117/181/72 118/188/72
f 60/147/71 118/188/71 120/189/73 61/145/73
f 118/188/72 117/181/72 119/180/5 120/189/5
f 61/145/73 120/189/73 122/190/74 62/143/74
f 120/189/5 119/180/5 121/179/6 122/190/6
f 62/143/74 122/190/74 124/191/75 63/141/75
f 122/190/6 121/179/6 123/178/7 124/191/7
f 63/141/75 124/191/75 126/192/76 64/139/76
f 124/191/7 123/178/7 125/177/77 126/192/77
f 64/139/76 126/192/76 128/193/78 65/137/78
f 126/192/77 125/177/77 127/176/9 128/193/9
f 65/137/78 128/193/78 130/194/79 66/135/79
f 128/193/9 127/176/9 129/175/80 130/194/80
f 66/135/79 130/194/79 132/195/81 67/133/81
f 130/194/80 129/175/80 131/174/11 132/195/11
f 67/133/81 132/195/81 134/196/82 68/131/82
f 132/195/11 131/174/11 133/173/83 134/196/83
f 68/131/82 134/196/82 136/197/84 69/129/84
f 134/196/83 133/173/83 135/172/33 136/197/33
f 69/129/84 136/197/84 138/198/85 70/127/85
f 136/197/33 135/172/33 137/171/14 138/198/14
f 70/127/85 138/198/85 140/199/86 71/125/86
f 138/198/14 137/171/14 139/170/32 140/199/32
f 71/125/86 140/199/86 142/200/87 72/123/88
f 140/199/32 139/170/32 141/169/16 142/200/16
f 72/123/88 142/200/87 144/201/89 73/121/89
f 142/200/16 141/169/16 143/168/17 144/201/17
f 73/121/89 144/201/89 146/202/90 74/119/91
f 144/201/17 143/168/17 145/167/18 146/202/18
f 74/119/91 146/202/90 148/203/92 75/117/92
f 146/202/18 145/167/18 147/166/31 148/203/31
f 75/117/92 148/203/92 150/204/93 76/115/93
f 148/203/31 147/166/31 149/165/20 150/204/20
f 76/115/93 150/204/93 152/205/94 77/113/94
f 150/204/20 149/165/20 151/164/21 152/205/21
f 77/113/94 152/205/94 154/206/95 78/111/95
f 152/205/21 151/164/21 153/163/96 154/206/96
f 78/111/95 154/206/95 156/207/97 79/107/97
f 154/206/96 153/163/96 155/161/23 156/207/23
f 79/107/97 156/207/97 158/208/98 80/108/99
f 156/207/23 155/161/23 157/162/100 158/208/100
f 169/103/101 171/209/102 160/210/103 81/104/104
f 171/209/105 172/159/105 159/160/106 160/210/106
f 81/101/104 160/211/103 82/99/107
f 82/99/107 160/211/103 162/212/108 83/97/108
f 160/211/106 159/157/106 161/156/28 162/212/28
f 83/97/108 162/212/108 164/213/109 84/93/109
f 162/212/28 161/156/28 163/154/29 164/213/29
f 84/93/109 164/213/109 165/214/68 57/94/68
f 164/213/29 163/154/29 166/155/1 165/214/1
f 4/215/110 2/216/110 56/217/110 54/218/110 52/219/110 50/220/110 168/221/110 48/222/110 46/223/110 44/224/110 42/225/110 40/226/110 38/227/110 36/228/110 34/229/110 32/230/110 30/231/110 28/232/110 26/233/110 24/234/110 22/235/110 20/236/110 18/237/110 16/238/110 14/239/110 12/240/110 10/241/110 8/242/110 6/243/110
f 158/208/100 157/162/100 172/159/105 171/209/105
f 80/108/99 158/208/98 171/209/102 169/103/101
f 157/162/44 108/48/43 170/49/41 172/159/40
f 47/109/24 80/108/24 169/103/25 167/102/25
f 108/48/24 48/47/24 168/50/25 170/49/25
