# Blender 4.4.3
# www.blender.org
mtllib Base7.mtl
o Cube.009
v -2.473459 -16.094687 -2.222054
v -2.473459 -15.757701 -2.222054
v 3.258967 -16.094687 -2.222054
v 3.258967 -15.757701 -2.222054
v -2.138452 -16.094687 -2.858604
v -2.473459 -16.094687 -2.523598
v -2.473459 -15.757701 -2.523598
v -2.138452 -15.757701 -2.858604
v 3.258967 -16.094687 -2.523598
v 2.923960 -16.094687 -2.858604
v 2.923960 -15.757701 -2.858604
v 3.258967 -15.757701 -2.523598
v -2.473459 -16.094687 1.976336
v -2.473459 -15.757701 1.976336
v 3.258967 -16.094687 1.976336
v 3.258967 -15.757701 1.976336
v -2.138452 -16.094687 2.612886
v -2.473459 -16.094687 2.277880
v -2.473459 -15.757701 2.277880
v -2.138452 -15.757701 2.612886
v 3.258967 -16.094687 2.277880
v 2.923960 -16.094687 2.612886
v 2.923960 -15.757701 2.612886
v 3.258967 -15.757701 2.277880
vn -0.0000 -0.0000 -1.0000
vn -0.0000 -0.0000 1.0000
vn -0.0000 1.0000 -0.0000
vn -1.0000 -0.0000 -0.0000
vn 1.0000 -0.0000 -0.0000
vn -0.7071 -0.0000 -0.7071
vn 0.7071 -0.0000 -0.7071
vn -0.0000 -1.0000 -0.0000
vn -0.7071 -0.0000 0.7071
vn 0.7071 -0.0000 0.7071
vt 0.375000 0.764610
vt 0.625000 0.764610
vt 0.625000 0.985390
vt 0.375000 0.985390
vt 0.375000 0.250000
vt 0.625000 0.250000
vt 0.625000 0.500000
vt 0.375000 0.500000
vt 0.875000 0.500000
vt 0.875000 0.618429
vt 0.860390 0.750000
vt 0.639610 0.750000
vt 0.625000 0.618429
vt 0.375000 0.131571
vt 0.625000 0.131571
vt 0.375000 0.618429
vt 0.375000 0.000000
vt 0.625000 0.000000
vt 0.125000 0.500000
vt 0.360390 0.750000
vt 0.139610 0.750000
vt 0.125000 0.618429
s 0
f 10/1/1 5/4/1 8/3/1 11/2/1
f 1/5/2 3/8/2 4/7/2 2/6/2
f 4/7/3 12/13/3 11/12/3 8/11/3 7/10/3 2/9/3
f 6/14/4 1/5/4 2/6/4 7/15/4
f 3/8/5 9/16/5 12/13/5 4/7/5
f 5/17/6 6/14/6 7/15/6 8/18/6
f 11/2/7 12/13/7 9/16/7 10/1/7
f 1/19/8 6/22/8 5/21/8 10/20/8 9/16/8 3/8/8
f 22/1/2 23/2/2 20/3/2 17/4/2
f 13/5/1 14/6/1 16/7/1 15/8/1
f 16/7/3 14/9/3 19/10/3 20/11/3 23/12/3 24/13/3
f 18/14/4 19/15/4 14/6/4 13/5/4
f 15/8/5 16/7/5 24/13/5 21/16/5
f 17/17/9 20/18/9 19/15/9 18/14/9
f 23/2/10 22/1/10 21/16/10 24/13/10
f 13/19/8 15/8/8 21/16/8 22/20/8 17/21/8 18/22/8
