# Blender 4.4.3
# www.blender.org
mtllib Base5.mtl
o Cube.007
v -1.894599 -16.127258 -2.667159
v -0.481928 -12.666935 -1.254488
v -2.151546 -16.127258 -2.410212
v -0.738875 -12.666935 -0.997541
v -2.082065 -15.974194 -2.854625
v -0.669394 -12.513870 -1.441954
v -2.339012 -15.974194 -2.597677
v -0.926341 -12.513870 -1.185007
v -2.065897 -16.127258 -2.495861
v -1.980248 -16.127258 -2.581510
v -0.567577 -12.666935 -1.168839
v -0.653226 -12.666935 -1.083190
v -2.167714 -15.974194 -2.768976
v -2.253363 -15.974194 -2.683327
v -0.840692 -12.513870 -1.270656
v -0.755043 -12.513870 -1.356305
v -0.485992 -12.424397 -1.087254
v -0.571641 -12.424397 -1.001605
v -0.573196 -11.858641 -1.003159
v -0.487547 -11.858641 -1.088809
vn 0.6124 -0.5000 0.6124
vn -0.7071 -0.0000 0.7071
vn -0.6124 0.5000 -0.6124
vn 0.7071 -0.0000 -0.7071
vn -0.3536 -0.8660 -0.3536
vn 0.3536 0.8660 0.3536
vn 0.7071 0.0039 0.7071
vn 0.6385 -0.4296 0.6385
vt 0.375000 0.166667
vt 0.625000 0.166667
vt 0.625000 0.250000
vt 0.375000 0.250000
vt 0.625000 0.500000
vt 0.375000 0.500000
vt 0.375000 0.666667
vt 0.625000 0.666667
vt 0.625000 0.750000
vt 0.375000 0.750000
vt 0.625000 1.000000
vt 0.375000 1.000000
vt 0.125000 0.666667
vt 0.125000 0.750000
vt 0.875000 0.666667
vt 0.875000 0.750000
vt 0.875000 0.500000
vt 0.875000 0.583333
vt 0.625000 0.583333
vt 0.125000 0.500000
vt 0.375000 0.583333
vt 0.125000 0.583333
vt 0.375000 0.000000
vt 0.625000 0.000000
vt 0.625000 0.083333
vt 0.375000 0.083333
s 0
f 9/1/1 12/2/1 4/3/1 3/4/1
f 3/4/2 4/3/2 8/5/2 7/6/2
f 13/7/3 16/8/3 6/9/3 5/10/3
f 5/10/4 6/9/4 2/11/4 1/12/4
f 10/13/5 13/7/5 5/10/5 1/14/5
f 16/8/6 11/15/6 2/16/6 6/9/6
f 8/5/6 4/17/6 12/18/6 15/19/6
f 11/15/4 16/8/4 20/8/4 17/15/4
f 3/20/5 7/6/5 14/21/5 9/22/5
f 9/22/5 14/21/5 13/7/5 10/13/5
f 7/6/3 8/5/3 15/19/3 14/21/3
f 14/21/3 15/19/3 16/8/3 13/7/3
f 1/23/1 2/24/1 11/25/1 10/26/1
f 10/26/1 11/25/1 12/2/1 9/1/1
f 19/19/7 18/18/7 17/15/7 20/8/7
f 16/8/3 15/19/3 19/19/3 20/8/3
f 12/2/8 11/25/8 17/25/8 18/2/8
f 15/19/2 12/18/2 18/18/2 19/19/2
