# Blender 4.4.3
# www.blender.org
mtllib Fence2.mtl
o Cube.026
v 1.699321 9.150092 2.757153
v 1.699321 9.150092 0.957084
v 1.597011 9.150092 2.757153
v 1.597011 9.150092 0.957084
v 1.699321 10.259857 2.757153
v 1.699321 10.360958 2.636848
v 1.699321 10.360958 1.077388
v 1.699321 10.259857 0.957084
v 1.597011 10.360958 2.636848
v 1.597011 10.259857 2.757153
v 1.597011 10.259857 0.957084
v 1.597011 10.360958 1.077388
v 1.597011 9.150092 2.688171
v 1.597011 9.488678 1.026069
v 1.597011 9.150092 1.026069
v 1.597011 9.430027 1.026069
v 1.597011 9.919238 1.026069
v 1.597011 10.002236 1.026069
v 1.597011 10.197045 1.026069
v 1.597011 10.209486 1.038788
v 1.597011 10.288833 1.119911
v 1.597011 9.919238 2.688171
v 1.597011 10.002236 2.688171
v 1.597011 10.235004 2.649363
v 1.597011 10.197045 2.688171
v 1.597011 9.430027 2.688171
v 1.597011 9.488678 2.688171
v 1.597011 10.288833 2.594329
v 1.699321 9.150092 2.688171
v 1.699321 9.430027 2.688171
v 1.699321 9.488678 2.688171
v 1.699321 9.919238 2.688171
v 1.699321 10.002236 2.688171
v 1.699321 10.197045 2.688171
v 1.699321 9.150092 1.026069
v 1.699321 10.209487 2.675451
v 1.699321 10.288833 2.594329
v 1.699321 10.002236 1.026069
v 1.699321 9.919238 1.026069
v 1.699321 10.197045 1.026069
v 1.699321 10.235001 1.064873
v 1.699321 10.288833 1.119911
v 1.699321 9.430027 1.026069
v 1.699321 9.488678 1.026069
v 1.699321 9.150092 6.382663
v 1.699321 9.150092 4.582594
v 1.597011 9.150092 6.382663
v 1.597011 9.150092 4.582594
v 1.699321 10.259857 6.382663
v 1.699321 10.360958 6.262359
v 1.699321 10.360958 4.702898
v 1.699321 10.259857 4.582594
v 1.597011 10.360958 6.262359
v 1.597011 10.259857 6.382663
v 1.597011 10.259857 4.582594
v 1.597011 10.360958 4.702898
v 1.597011 9.150092 6.313682
v 1.597011 9.488678 4.651580
v 1.597011 9.150092 4.651580
v 1.597011 9.430027 4.651580
v 1.597011 9.919238 4.651580
v 1.597011 10.002236 4.651580
v 1.597011 10.197045 4.651580
v 1.597011 10.209486 4.664298
v 1.597011 10.288833 4.745421
v 1.597011 9.919238 6.313682
v 1.597011 10.002236 6.313682
v 1.597011 10.235004 6.274873
v 1.597011 10.197045 6.313682
v 1.597011 9.430027 6.313682
v 1.597011 9.488678 6.313682
v 1.597011 10.288833 6.219839
v 1.699321 9.150092 6.313682
v 1.699321 9.430027 6.313682
v 1.699321 9.488678 6.313682
v 1.699321 9.919238 6.313682
v 1.699321 10.002236 6.313682
v 1.699321 10.197045 6.313682
v 1.699321 9.150092 4.651580
v 1.699321 10.209487 6.300961
v 1.699321 10.288833 6.219839
v 1.699321 10.002236 4.651580
v 1.699321 9.919238 4.651580
v 1.699321 10.197045 4.651580
v 1.699321 10.235001 4.690384
v 1.699321 10.288833 4.745421
v 1.699321 9.430027 4.651580
v 1.699321 9.488678 4.651580
v 1.699321 9.150092 4.563754
v 1.699321 9.150092 2.763685
v 1.597011 9.150092 4.563754
v 1.597011 9.150092 2.763685
v 1.699321 10.259857 4.563754
v 1.699321 10.360958 4.443450
v 1.699321 10.360958 2.883989
v 1.699321 10.259857 2.763685
v 1.597011 10.360958 4.443450
v 1.597011 10.259857 4.563754
v 1.597011 10.259857 2.763685
v 1.597011 10.360958 2.883989
v 1.597011 9.150092 4.494772
v 1.597011 9.488678 2.832670
v 1.597011 9.150092 2.832670
v 1.597011 9.430027 2.832670
v 1.597011 9.919238 2.832670
v 1.597011 10.002236 2.832670
v 1.597011 10.197045 2.832670
v 1.597011 10.209486 2.845389
v 1.597011 10.288833 2.926512
v 1.597011 9.919238 4.494772
v 1.597011 10.002236 4.494772
v 1.597011 10.235004 4.455964
v 1.597011 10.197045 4.494772
v 1.597011 9.430027 4.494772
v 1.597011 9.488678 4.494772
v 1.597011 10.288833 4.400930
v 1.699321 9.150092 4.494772
v 1.699321 9.430027 4.494772
v 1.699321 9.488678 4.494772
v 1.699321 9.919238 4.494772
v 1.699321 10.002236 4.494772
v 1.699321 10.197045 4.494772
v 1.699321 9.150092 2.832670
v 1.699321 10.209487 4.482052
v 1.699321 10.288833 4.400930
v 1.699321 10.002236 2.832670
v 1.699321 9.919238 2.832670
v 1.699321 10.197045 2.832670
v 1.699321 10.235001 2.871475
v 1.699321 10.288833 2.926512
v 1.699321 9.430027 2.832670
v 1.699321 9.488678 2.832670
vn -0.0000 1.0000 -0.0000
vn -1.0000 -0.0000 -0.0000
vn 1.0000 -0.0000 -0.0000
vn -0.0000 -1.0000 -0.0000
vn -0.0000 -0.0000 -1.0000
vn -0.0000 0.7656 -0.6434
vn -0.0000 0.7656 0.6434
vn -0.0000 -0.0000 1.0000
vn -0.0000 -0.7149 0.6992
vn -0.0000 -0.7149 -0.6992
vt 0.625000 0.533906
vt 0.875000 0.533906
vt 0.875000 0.716094
vt 0.625000 0.716094
vt 0.375000 0.509581
vt 0.375000 0.500000
vt 0.594483 0.500000
vt 0.586380 0.513865
vt 0.583451 0.511411
vt 0.544112 0.510090
vt 0.544112 0.739910
vt 0.583451 0.738590
vt 0.592705 0.730575
vt 0.594483 0.750000
vt 0.375000 0.750000
vt 0.375000 0.740420
vt 0.430535 0.740366
vt 0.442154 0.740354
vt 0.527577 0.740077
vt 0.527576 0.509924
vt 0.442154 0.509647
vt 0.430535 0.509635
vt 0.606975 0.717370
vt 0.606975 0.532630
vt 0.375000 0.009580
vt 0.375000 0.000000
vt 0.594483 0.000000
vt 0.586381 0.013864
vt 0.583451 0.011410
vt 0.544112 0.010090
vt 0.544112 0.239910
vt 0.583451 0.238589
vt 0.592704 0.230576
vt 0.594483 0.250000
vt 0.375000 0.250000
vt 0.375000 0.240419
vt 0.430535 0.240365
vt 0.442154 0.240353
vt 0.527577 0.240076
vt 0.527576 0.009923
vt 0.442154 0.009646
vt 0.430535 0.009634
vt 0.625000 0.033906
vt 0.625000 0.216094
vt 0.606975 0.217370
vt 0.606975 0.032630
vt 0.125000 0.750000
vt 0.125000 0.740420
vt 0.125000 0.509581
vt 0.125000 0.500000
vt 0.625000 0.250000
vt 0.625000 0.500000
vt 0.625000 0.750000
vt 0.625000 1.000000
vt 0.594483 1.000000
vt 0.375000 1.000000
vt 0.480235 0.367305
vt 0.480235 0.382694
vt 0.625000 0.382694
vt 0.625000 0.367305
vt 0.625000 0.882695
vt 0.625000 0.867306
vt 0.480235 0.867306
vt 0.480235 0.882695
vt 0.742306 0.500000
vt 0.742306 0.750000
vt 0.757695 0.750000
vt 0.757695 0.500000
vt 0.742306 0.730850
vt 0.757695 0.730850
vt 0.757695 0.519150
vt 0.742306 0.519150
vt 0.257694 0.750000
vt 0.257694 0.500000
vt 0.242305 0.500000
vt 0.242305 0.750000
vt 0.375000 0.367305
vt 0.375000 0.382694
vt 0.605850 0.382694
vt 0.605850 0.367305
vt 0.608445 0.382694
vt 0.613769 0.367305
vt 0.613770 0.867306
vt 0.605850 0.867306
vt 0.605850 0.882695
vt 0.608446 0.882695
vt 0.625000 0.882695
vt 0.375000 0.867306
vt 0.375000 0.882695
vt 0.757695 0.750000
s 0
f 12/1/1 9/4/1 6/3/1 7/2/1
f 15/5/2 16/22/2 14/21/2 17/20/2 22/19/2 27/18/2 26/17/2 13/16/2 3/15/2 10/14/2 24/13/2 25/12/2 23/11/2 18/10/2 19/9/2 20/8/2 11/7/2 4/6/2
f 20/8/2 21/24/2 28/23/2 24/13/2 10/14/2 9/4/2 12/1/2 11/7/2
f 27/18/2 14/21/2 16/22/2 26/17/2
f 29/25/3 30/42/3 31/41/3 32/40/3 39/39/3 44/38/3 43/37/3 35/36/3 2/35/3 8/34/3 41/33/3 40/32/3 38/31/3 33/30/3 34/29/3 36/28/3 5/27/3 1/26/3
f 5/27/3 36/28/3 37/46/3 42/45/3 41/33/3 8/34/3 7/44/3 6/43/3
f 43/37/3 44/38/3 31/41/3 30/42/3
f 3/15/4 13/16/4 29/48/4 1/47/4
f 35/49/4 15/5/4 4/6/4 2/50/4
f 2/35/5 4/6/5 11/7/5 8/34/5
f 7/51/6 8/34/6 11/7/6 12/52/6
f 9/53/7 10/14/7 5/55/7 6/54/7
f 3/15/8 1/56/8 5/55/8 10/14/8
f 35/57/8 43/60/8 16/59/8 15/58/8
f 30/61/5 29/64/5 13/63/5 26/62/5
f 16/65/4 43/68/4 30/67/4 26/66/4
f 28/69/4 21/72/4 42/71/4 37/70/4
f 23/73/1 33/76/1 38/75/1 18/74/1
f 38/77/8 40/80/8 19/79/8 18/78/8
f 19/79/9 40/80/9 41/82/9 42/60/9 21/59/9 20/81/9
f 28/62/10 37/87/10 36/86/10 34/85/10 25/84/10 24/83/10
f 34/85/5 33/89/5 23/88/5 25/84/5
f 44/77/8 39/60/8 17/59/8 14/78/8
f 27/88/5 22/62/5 32/87/5 31/89/5
f 27/73/1 31/76/1 44/75/1 14/74/1
f 17/65/4 39/68/4 32/90/4 22/66/4
f 56/1/1 53/4/1 50/3/1 51/2/1
f 59/5/2 60/22/2 58/21/2 61/20/2 66/19/2 71/18/2 70/17/2 57/16/2 47/15/2 54/14/2 68/13/2 69/12/2 67/11/2 62/10/2 63/9/2 64/8/2 55/7/2 48/6/2
f 64/8/2 65/24/2 72/23/2 68/13/2 54/14/2 53/4/2 56/1/2 55/7/2
f 71/18/2 58/21/2 60/22/2 70/17/2
f 73/25/3 74/42/3 75/41/3 76/40/3 83/39/3 88/38/3 87/37/3 79/36/3 46/35/3 52/34/3 85/33/3 84/32/3 82/31/3 77/30/3 78/29/3 80/28/3 49/27/3 45/26/3
f 49/27/3 80/28/3 81/46/3 86/45/3 85/33/3 52/34/3 51/44/3 50/43/3
f 87/37/3 88/38/3 75/41/3 74/42/3
f 47/15/4 57/16/4 73/48/4 45/47/4
f 79/49/4 59/5/4 48/6/4 46/50/4
f 46/35/5 48/6/5 55/7/5 52/34/5
f 51/51/6 52/34/6 55/7/6 56/52/6
f 53/53/7 54/14/7 49/55/7 50/54/7
f 47/15/8 45/56/8 49/55/8 54/14/8
f 79/57/8 87/60/8 60/59/8 59/58/8
f 74/61/5 73/64/5 57/63/5 70/62/5
f 60/65/4 87/68/4 74/67/4 70/66/4
f 72/69/4 65/72/4 86/71/4 81/70/4
f 67/73/1 77/76/1 82/75/1 62/74/1
f 82/77/8 84/80/8 63/79/8 62/78/8
f 63/79/9 84/80/9 85/82/9 86/60/9 65/59/9 64/81/9
f 72/62/10 81/87/10 80/86/10 78/85/10 69/84/10 68/83/10
f 78/85/5 77/89/5 67/88/5 69/84/5
f 88/77/8 83/60/8 61/59/8 58/78/8
f 71/88/5 66/62/5 76/87/5 75/89/5
f 71/73/1 75/76/1 88/75/1 58/74/1
f 61/65/4 83/68/4 76/90/4 66/66/4
f 100/1/1 97/4/1 94/3/1 95/2/1
f 103/5/2 104/22/2 102/21/2 105/20/2 110/19/2 115/18/2 114/17/2 101/16/2 91/15/2 98/14/2 112/13/2 113/12/2 111/11/2 106/10/2 107/9/2 108/8/2 99/7/2 92/6/2
f 108/8/2 109/24/2 116/23/2 112/13/2 98/14/2 97/4/2 100/1/2 99/7/2
f 115/18/2 102/21/2 104/22/2 114/17/2
f 117/25/3 118/42/3 119/41/3 120/40/3 127/39/3 132/38/3 131/37/3 123/36/3 90/35/3 96/34/3 129/33/3 128/32/3 126/31/3 121/30/3 122/29/3 124/28/3 93/27/3 89/26/3
f 93/27/3 124/28/3 125/46/3 130/45/3 129/33/3 96/34/3 95/44/3 94/43/3
f 131/37/3 132/38/3 119/41/3 118/42/3
f 91/15/4 101/16/4 117/48/4 89/47/4
f 123/49/4 103/5/4 92/6/4 90/50/4
f 90/35/5 92/6/5 99/7/5 96/34/5
f 95/51/6 96/34/6 99/7/6 100/52/6
f 97/53/7 98/14/7 93/55/7 94/54/7
f 91/15/8 89/56/8 93/55/8 98/14/8
f 123/57/8 131/60/8 104/59/8 103/58/8
f 118/61/5 117/64/5 101/63/5 114/62/5
f 104/65/4 131/68/4 118/67/4 114/66/4
f 116/69/4 109/72/4 130/71/4 125/70/4
f 111/73/1 121/76/1 126/75/1 106/74/1
f 126/77/8 128/80/8 107/79/8 106/78/8
f 107/79/9 128/80/9 129/82/9 130/60/9 109/59/9 108/81/9
f 116/62/10 125/87/10 124/86/10 122/85/10 113/84/10 112/83/10
f 122/85/5 121/89/5 111/88/5 113/84/5
f 132/77/8 127/60/8 105/59/8 102/78/8
f 115/88/5 110/62/5 120/87/5 119/89/5
f 115/73/1 119/76/1 132/75/1 102/74/1
f 105/65/4 127/68/4 120/90/4 110/66/4
