# Blender 4.4.3
# www.blender.org
mtllib Fence1.mtl
o Cube.021
v -0.913813 9.150092 8.189264
v -0.913813 9.150092 6.389195
v -0.811503 9.150092 8.189264
v -0.811503 9.150092 6.389195
v -0.913813 10.259857 8.189264
v -0.913813 10.360958 8.068960
v -0.913813 10.360958 6.509500
v -0.913813 10.259857 6.389195
v -0.811503 10.360958 8.068960
v -0.811503 10.259857 8.189264
v -0.811503 10.259857 6.389195
v -0.811503 10.360958 6.509500
v -0.811503 9.150092 8.120282
v -0.811503 9.488678 6.458181
v -0.811503 9.150092 6.458180
v -0.811503 9.430027 6.458180
v -0.811503 9.919238 6.458181
v -0.811503 10.002236 6.458181
v -0.811503 10.197045 6.458181
v -0.811503 10.209486 6.470899
v -0.811503 10.288833 6.552022
v -0.811503 9.919238 8.120282
v -0.811503 10.002236 8.120282
v -0.811503 10.235004 8.081474
v -0.811503 10.197045 8.120282
v -0.811503 9.430027 8.120282
v -0.811503 9.488678 8.120282
v -0.811503 10.288833 8.026441
v -0.913813 9.150092 8.120282
v -0.913813 9.430027 8.120282
v -0.913813 9.488678 8.120282
v -0.913813 9.919238 8.120282
v -0.913813 10.002236 8.120282
v -0.913813 10.197045 8.120282
v -0.913813 9.150092 6.458180
v -0.913813 10.209487 8.107562
v -0.913813 10.288833 8.026441
v -0.913813 10.002236 6.458181
v -0.913813 9.919238 6.458181
v -0.913813 10.197045 6.458181
v -0.913813 10.235001 6.496985
v -0.913813 10.288833 6.552022
v -0.913813 9.430027 6.458180
v -0.913813 9.488678 6.458181
v -0.913813 9.150092 2.757153
v -0.913813 9.150092 0.957084
v -0.811503 9.150092 2.757153
v -0.811503 9.150092 0.957084
v -0.913813 10.259857 2.757153
v -0.913813 10.360958 2.636848
v -0.913813 10.360958 1.077388
v -0.913813 10.259857 0.957084
v -0.811503 10.360958 2.636848
v -0.811503 10.259857 2.757153
v -0.811503 10.259857 0.957084
v -0.811503 10.360958 1.077388
v -0.811503 9.150092 2.688170
v -0.811503 9.488678 1.026069
v -0.811503 9.150092 1.026069
v -0.811503 9.430027 1.026069
v -0.811503 9.919238 1.026069
v -0.811503 10.002236 1.026069
v -0.811503 10.197045 1.026069
v -0.811503 10.209486 1.038787
v -0.811503 10.288833 1.119911
v -0.811503 9.919238 2.688170
v -0.811503 10.002236 2.688170
v -0.811503 10.235004 2.649362
v -0.811503 10.197045 2.688170
v -0.811503 9.430027 2.688170
v -0.811503 9.488678 2.688170
v -0.811503 10.288833 2.594329
v -0.913813 9.150092 2.688170
v -0.913813 9.430027 2.688170
v -0.913813 9.488678 2.688170
v -0.913813 9.919238 2.688170
v -0.913813 10.002236 2.688170
v -0.913813 10.197045 2.688170
v -0.913813 9.150092 1.026069
v -0.913813 10.209487 2.675450
v -0.913813 10.288833 2.594329
v -0.913813 10.002236 1.026069
v -0.913813 9.919238 1.026069
v -0.913813 10.197045 1.026069
v -0.913813 10.235001 1.064873
v -0.913813 10.288833 1.119911
v -0.913813 9.430027 1.026069
v -0.913813 9.488678 1.026069
v -0.913813 9.150092 4.563753
v -0.913813 9.150092 2.763684
v -0.811503 9.150092 4.563753
v -0.811503 9.150092 2.763684
v -0.913813 10.259857 4.563753
v -0.913813 10.360958 4.443449
v -0.913813 10.360958 2.883989
v -0.913813 10.259857 2.763684
v -0.811503 10.360958 4.443449
v -0.811503 10.259857 4.563753
v -0.811503 10.259857 2.763684
v -0.811503 10.360958 2.883989
v -0.811503 9.150092 4.494772
v -0.811503 9.488678 2.832670
v -0.811503 9.150092 2.832670
v -0.811503 9.430027 2.832670
v -0.811503 9.919238 2.832670
v -0.811503 10.002236 2.832670
v -0.811503 10.197045 2.832670
v -0.811503 10.209486 2.845388
v -0.811503 10.288833 2.926512
v -0.811503 9.919238 4.494772
v -0.811503 10.002236 4.494772
v -0.811503 10.235004 4.455963
v -0.811503 10.197045 4.494772
v -0.811503 9.430027 4.494772
v -0.811503 9.488678 4.494772
v -0.811503 10.288833 4.400930
v -0.913813 9.150092 4.494772
v -0.913813 9.430027 4.494772
v -0.913813 9.488678 4.494772
v -0.913813 9.919238 4.494772
v -0.913813 10.002236 4.494772
v -0.913813 10.197045 4.494772
v -0.913813 9.150092 2.832670
v -0.913813 10.209487 4.482052
v -0.913813 10.288833 4.400930
v -0.913813 10.002236 2.832670
v -0.913813 9.919238 2.832670
v -0.913813 10.197045 2.832670
v -0.913813 10.235001 2.871474
v -0.913813 10.288833 2.926512
v -0.913813 9.430027 2.832670
v -0.913813 9.488678 2.832670
v -0.913813 9.150092 6.382663
v -0.913813 9.150092 4.582594
v -0.811503 9.150092 6.382663
v -0.811503 9.150092 4.582594
v -0.913813 10.259857 6.382663
v -0.913813 10.360958 6.262359
v -0.913813 10.360958 4.702898
v -0.913813 10.259857 4.582594
v -0.811503 10.360958 6.262359
v -0.811503 10.259857 6.382663
v -0.811503 10.259857 4.582594
v -0.811503 10.360958 4.702898
v -0.811503 9.150092 6.313681
v -0.811503 9.488678 4.651579
v -0.811503 9.150092 4.651579
v -0.811503 9.430027 4.651579
v -0.811503 9.919238 4.651579
v -0.811503 10.002236 4.651579
v -0.811503 10.197045 4.651579
v -0.811503 10.209486 4.664298
v -0.811503 10.288833 4.745421
v -0.811503 9.919238 6.313681
v -0.811503 10.002236 6.313681
v -0.811503 10.235004 6.274872
v -0.811503 10.197045 6.313681
v -0.811503 9.430027 6.313681
v -0.811503 9.488678 6.313681
v -0.811503 10.288833 6.219839
v -0.913813 9.150092 6.313681
v -0.913813 9.430027 6.313681
v -0.913813 9.488678 6.313681
v -0.913813 9.919238 6.313681
v -0.913813 10.002236 6.313681
v -0.913813 10.197045 6.313681
v -0.913813 9.150092 4.651579
v -0.913813 10.209487 6.300961
v -0.913813 10.288833 6.219839
v -0.913813 10.002236 4.651579
v -0.913813 9.919238 4.651579
v -0.913813 10.197045 4.651579
v -0.913813 10.235001 4.690383
v -0.913813 10.288833 4.745421
v -0.913813 9.430027 4.651579
v -0.913813 9.488678 4.651579
v -0.913813 9.150092 10.419929
v -0.913813 9.150092 8.619860
v -0.811503 9.150092 10.419929
v -0.811503 9.150092 8.619860
v -0.913813 10.259857 10.419929
v -0.913813 10.360958 10.299624
v -0.913813 10.360958 8.740164
v -0.913813 10.259857 8.619860
v -0.811503 10.360958 10.299624
v -0.811503 10.259857 10.419929
v -0.811503 10.259857 8.619860
v -0.811503 10.360958 8.740164
v -0.811503 9.150092 10.350947
v -0.811503 9.488678 8.688846
v -0.811503 9.150092 8.688846
v -0.811503 9.430027 8.688846
v -0.811503 9.919238 8.688846
v -0.811503 10.002236 8.688846
v -0.811503 10.197045 8.688846
v -0.811503 10.209486 8.701564
v -0.811503 10.288833 8.782687
v -0.811503 9.919238 10.350947
v -0.811503 10.002236 10.350947
v -0.811503 10.235004 10.312139
v -0.811503 10.197045 10.350947
v -0.811503 9.430027 10.350947
v -0.811503 9.488678 10.350947
v -0.811503 10.288833 10.257105
v -0.913813 9.150092 10.350947
v -0.913813 9.430027 10.350947
v -0.913813 9.488678 10.350947
v -0.913813 9.919238 10.350947
v -0.913813 10.002236 10.350947
v -0.913813 10.197045 10.350947
v -0.913813 9.150092 8.688846
v -0.913813 10.209487 10.338227
v -0.913813 10.288833 10.257105
v -0.913813 10.002236 8.688846
v -0.913813 9.919238 8.688846
v -0.913813 10.197045 8.688846
v -0.913813 10.235001 8.727650
v -0.913813 10.288833 8.782687
v -0.913813 9.430027 8.688846
v -0.913813 9.488678 8.688846
vn -0.0000 1.0000 -0.0000
vn 1.0000 -0.0000 -0.0000
vn -1.0000 -0.0000 -0.0000
vn -0.0000 -1.0000 -0.0000
vn -0.0000 -0.0000 -1.0000
vn -0.0000 0.7656 -0.6434
vn -0.0000 0.7656 0.6434
vn -0.0000 -0.0000 1.0000
vn -0.0000 -0.7149 0.6992
vn -0.0000 -0.7149 -0.6992
vt 0.625000 0.533906
vt 0.875000 0.533906
vt 0.875000 0.716094
vt 0.625000 0.716094
vt 0.375000 0.509581
vt 0.375000 0.500000
vt 0.594483 0.500000
vt 0.586380 0.513865
vt 0.583451 0.511411
vt 0.544112 0.510090
vt 0.544112 0.739910
vt 0.583451 0.738590
vt 0.592705 0.730575
vt 0.594483 0.750000
vt 0.375000 0.750000
vt 0.375000 0.740420
vt 0.430535 0.740366
vt 0.442154 0.740354
vt 0.527577 0.740077
vt 0.527576 0.509924
vt 0.442154 0.509647
vt 0.430535 0.509635
vt 0.606975 0.717370
vt 0.606975 0.532630
vt 0.375000 0.009580
vt 0.375000 0.000000
vt 0.594483 0.000000
vt 0.586381 0.013864
vt 0.583451 0.011410
vt 0.544112 0.010090
vt 0.544112 0.239910
vt 0.583451 0.238589
vt 0.592704 0.230576
vt 0.594483 0.250000
vt 0.375000 0.250000
vt 0.375000 0.240419
vt 0.430535 0.240365
vt 0.442154 0.240353
vt 0.527577 0.240076
vt 0.527576 0.009923
vt 0.442154 0.009646
vt 0.430535 0.009634
vt 0.625000 0.033906
vt 0.625000 0.216094
vt 0.606975 0.217370
vt 0.606975 0.032630
vt 0.125000 0.750000
vt 0.125000 0.740420
vt 0.125000 0.509581
vt 0.125000 0.500000
vt 0.625000 0.250000
vt 0.625000 0.500000
vt 0.625000 0.750000
vt 0.625000 1.000000
vt 0.594483 1.000000
vt 0.375000 1.000000
vt 0.480235 0.367305
vt 0.480235 0.382694
vt 0.625000 0.382694
vt 0.625000 0.367305
vt 0.625000 0.882695
vt 0.625000 0.867306
vt 0.480235 0.867306
vt 0.480235 0.882695
vt 0.742306 0.500000
vt 0.742306 0.750000
vt 0.757695 0.750000
vt 0.757695 0.500000
vt 0.742306 0.730850
vt 0.757695 0.730850
vt 0.757695 0.519150
vt 0.742306 0.519150
vt 0.257694 0.750000
vt 0.257694 0.500000
vt 0.242305 0.500000
vt 0.242305 0.750000
vt 0.375000 0.367305
vt 0.375000 0.382694
vt 0.605850 0.382694
vt 0.605850 0.367305
vt 0.608445 0.382694
vt 0.613769 0.367305
vt 0.613770 0.867306
vt 0.605850 0.867306
vt 0.605850 0.882695
vt 0.608446 0.882695
vt 0.625000 0.882695
vt 0.375000 0.867306
vt 0.375000 0.882695
vt 0.757695 0.750000
s 0
f 12/1/1 7/2/1 6/3/1 9/4/1
f 15/5/2 4/6/2 11/7/2 20/8/2 19/9/2 18/10/2 23/11/2 25/12/2 24/13/2 10/14/2 3/15/2 13/16/2 26/17/2 27/18/2 22/19/2 17/20/2 14/21/2 16/22/2
f 20/8/2 11/7/2 12/1/2 9/4/2 10/14/2 24/13/2 28/23/2 21/24/2
f 27/18/2 26/17/2 16/22/2 14/21/2
f 29/25/3 1/26/3 5/27/3 36/28/3 34/29/3 33/30/3 38/31/3 40/32/3 41/33/3 8/34/3 2/35/3 35/36/3 43/37/3 44/38/3 39/39/3 32/40/3 31/41/3 30/42/3
f 5/27/3 6/43/3 7/44/3 8/34/3 41/33/3 42/45/3 37/46/3 36/28/3
f 43/37/3 30/42/3 31/41/3 44/38/3
f 3/15/4 1/47/4 29/48/4 13/16/4
f 35/49/4 2/50/4 4/6/4 15/5/4
f 2/35/5 8/34/5 11/7/5 4/6/5
f 7/51/6 12/52/6 11/7/6 8/34/6
f 9/53/7 6/54/7 5/55/7 10/14/7
f 3/15/8 10/14/8 5/55/8 1/56/8
f 35/57/8 15/58/8 16/59/8 43/60/8
f 30/61/5 26/62/5 13/63/5 29/64/5
f 16/65/4 26/66/4 30/67/4 43/68/4
f 28/69/4 37/70/4 42/71/4 21/72/4
f 23/73/1 18/74/1 38/75/1 33/76/1
f 38/77/8 18/78/8 19/79/8 40/80/8
f 19/79/9 20/81/9 21/59/9 42/60/9 41/82/9 40/80/9
f 28/62/10 24/83/10 25/84/10 34/85/10 36/86/10 37/87/10
f 34/85/5 25/84/5 23/88/5 33/89/5
f 44/77/8 14/78/8 17/59/8 39/60/8
f 27/88/5 31/89/5 32/87/5 22/62/5
f 27/73/1 14/74/1 44/75/1 31/76/1
f 17/65/4 22/66/4 32/90/4 39/68/4
f 56/1/1 51/2/1 50/3/1 53/4/1
f 59/5/2 48/6/2 55/7/2 64/8/2 63/9/2 62/10/2 67/11/2 69/12/2 68/13/2 54/14/2 47/15/2 57/16/2 70/17/2 71/18/2 66/19/2 61/20/2 58/21/2 60/22/2
f 64/8/2 55/7/2 56/1/2 53/4/2 54/14/2 68/13/2 72/23/2 65/24/2
f 71/18/2 70/17/2 60/22/2 58/21/2
f 73/25/3 45/26/3 49/27/3 80/28/3 78/29/3 77/30/3 82/31/3 84/32/3 85/33/3 52/34/3 46/35/3 79/36/3 87/37/3 88/38/3 83/39/3 76/40/3 75/41/3 74/42/3
f 49/27/3 50/43/3 51/44/3 52/34/3 85/33/3 86/45/3 81/46/3 80/28/3
f 87/37/3 74/42/3 75/41/3 88/38/3
f 47/15/4 45/47/4 73/48/4 57/16/4
f 79/49/4 46/50/4 48/6/4 59/5/4
f 46/35/5 52/34/5 55/7/5 48/6/5
f 51/51/6 56/52/6 55/7/6 52/34/6
f 53/53/7 50/54/7 49/55/7 54/14/7
f 47/15/8 54/14/8 49/55/8 45/56/8
f 79/57/8 59/58/8 60/59/8 87/60/8
f 74/61/5 70/62/5 57/63/5 73/64/5
f 60/65/4 70/66/4 74/67/4 87/68/4
f 72/69/4 81/70/4 86/71/4 65/72/4
f 67/73/1 62/74/1 82/75/1 77/76/1
f 82/77/8 62/78/8 63/79/8 84/80/8
f 63/79/9 64/81/9 65/59/9 86/60/9 85/82/9 84/80/9
f 72/62/10 68/83/10 69/84/10 78/85/10 80/86/10 81/87/10
f 78/85/5 69/84/5 67/88/5 77/89/5
f 88/77/8 58/78/8 61/59/8 83/60/8
f 71/88/5 75/89/5 76/87/5 66/62/5
f 71/73/1 58/74/1 88/75/1 75/76/1
f 61/65/4 66/66/4 76/90/4 83/68/4
f 100/1/1 95/2/1 94/3/1 97/4/1
f 103/5/2 92/6/2 99/7/2 108/8/2 107/9/2 106/10/2 111/11/2 113/12/2 112/13/2 98/14/2 91/15/2 101/16/2 114/17/2 115/18/2 110/19/2 105/20/2 102/21/2 104/22/2
f 108/8/2 99/7/2 100/1/2 97/4/2 98/14/2 112/13/2 116/23/2 109/24/2
f 115/18/2 114/17/2 104/22/2 102/21/2
f 117/25/3 89/26/3 93/27/3 124/28/3 122/29/3 121/30/3 126/31/3 128/32/3 129/33/3 96/34/3 90/35/3 123/36/3 131/37/3 132/38/3 127/39/3 120/40/3 119/41/3 118/42/3
f 93/27/3 94/43/3 95/44/3 96/34/3 129/33/3 130/45/3 125/46/3 124/28/3
f 131/37/3 118/42/3 119/41/3 132/38/3
f 91/15/4 89/47/4 117/48/4 101/16/4
f 123/49/4 90/50/4 92/6/4 103/5/4
f 90/35/5 96/34/5 99/7/5 92/6/5
f 95/51/6 100/52/6 99/7/6 96/34/6
f 97/53/7 94/54/7 93/55/7 98/14/7
f 91/15/8 98/14/8 93/55/8 89/56/8
f 123/57/8 103/58/8 104/59/8 131/60/8
f 118/61/5 114/62/5 101/63/5 117/64/5
f 104/65/4 114/66/4 118/67/4 131/68/4
f 116/69/4 125/70/4 130/71/4 109/72/4
f 111/73/1 106/74/1 126/75/1 121/76/1
f 126/77/8 106/78/8 107/79/8 128/80/8
f 107/79/9 108/81/9 109/59/9 130/60/9 129/82/9 128/80/9
f 116/62/10 112/83/10 113/84/10 122/85/10 124/86/10 125/87/10
f 122/85/5 113/84/5 111/88/5 121/89/5
f 132/77/8 102/78/8 105/59/8 127/60/8
f 115/88/5 119/89/5 120/87/5 110/62/5
f 115/73/1 102/74/1 132/75/1 119/76/1
f 105/65/4 110/66/4 120/90/4 127/68/4
f 144/1/1 139/2/1 138/3/1 141/4/1
f 147/5/2 136/6/2 143/7/2 152/8/2 151/9/2 150/10/2 155/11/2 157/12/2 156/13/2 142/14/2 135/15/2 145/16/2 158/17/2 159/18/2 154/19/2 149/20/2 146/21/2 148/22/2
f 152/8/2 143/7/2 144/1/2 141/4/2 142/14/2 156/13/2 160/23/2 153/24/2
f 159/18/2 158/17/2 148/22/2 146/21/2
f 161/25/3 133/26/3 137/27/3 168/28/3 166/29/3 165/30/3 170/31/3 172/32/3 173/33/3 140/34/3 134/35/3 167/36/3 175/37/3 176/38/3 171/39/3 164/40/3 163/41/3 162/42/3
f 137/27/3 138/43/3 139/44/3 140/34/3 173/33/3 174/45/3 169/46/3 168/28/3
f 175/37/3 162/42/3 163/41/3 176/38/3
f 135/15/4 133/47/4 161/48/4 145/16/4
f 167/49/4 134/50/4 136/6/4 147/5/4
f 134/35/5 140/34/5 143/7/5 136/6/5
f 139/51/6 144/52/6 143/7/6 140/34/6
f 141/53/7 138/54/7 137/55/7 142/14/7
f 135/15/8 142/14/8 137/55/8 133/56/8
f 167/57/8 147/58/8 148/59/8 175/60/8
f 162/61/5 158/62/5 145/63/5 161/64/5
f 148/65/4 158/66/4 162/67/4 175/68/4
f 160/69/4 169/70/4 174/71/4 153/72/4
f 155/73/1 150/74/1 170/75/1 165/76/1
f 170/77/8 150/78/8 151/79/8 172/80/8
f 151/79/9 152/81/9 153/59/9 174/60/9 173/82/9 172/80/9
f 160/62/10 156/83/10 157/84/10 166/85/10 168/86/10 169/87/10
f 166/85/5 157/84/5 155/88/5 165/89/5
f 176/77/8 146/78/8 149/59/8 171/60/8
f 159/88/5 163/89/5 164/87/5 154/62/5
f 159/73/1 146/74/1 176/75/1 163/76/1
f 149/65/4 154/66/4 164/90/4 171/68/4
f 188/1/1 183/2/1 182/3/1 185/4/1
f 191/5/2 180/6/2 187/7/2 196/8/2 195/9/2 194/10/2 199/11/2 201/12/2 200/13/2 186/14/2 179/15/2 189/16/2 202/17/2 203/18/2 198/19/2 193/20/2 190/21/2 192/22/2
f 196/8/2 187/7/2 188/1/2 185/4/2 186/14/2 200/13/2 204/23/2 197/24/2
f 203/18/2 202/17/2 192/22/2 190/21/2
f 205/25/3 177/26/3 181/27/3 212/28/3 210/29/3 209/30/3 214/31/3 216/32/3 217/33/3 184/34/3 178/35/3 211/36/3 219/37/3 220/38/3 215/39/3 208/40/3 207/41/3 206/42/3
f 181/27/3 182/43/3 183/44/3 184/34/3 217/33/3 218/45/3 213/46/3 212/28/3
f 219/37/3 206/42/3 207/41/3 220/38/3
f 179/15/4 177/47/4 205/48/4 189/16/4
f 211/49/4 178/50/4 180/6/4 191/5/4
f 178/35/5 184/34/5 187/7/5 180/6/5
f 183/51/6 188/52/6 187/7/6 184/34/6
f 185/53/7 182/54/7 181/55/7 186/14/7
f 179/15/8 186/14/8 181/55/8 177/56/8
f 211/57/8 191/58/8 192/59/8 219/60/8
f 206/61/5 202/62/5 189/63/5 205/64/5
f 192/65/4 202/66/4 206/67/4 219/68/4
f 204/69/4 213/70/4 218/71/4 197/72/4
f 199/73/1 194/74/1 214/75/1 209/76/1
f 214/77/8 194/78/8 195/79/8 216/80/8
f 195/79/9 196/81/9 197/59/9 218/60/9 217/82/9 216/80/9
f 204/62/10 200/83/10 201/84/10 210/85/10 212/86/10 213/87/10
f 210/85/5 201/84/5 199/88/5 209/89/5
f 220/77/8 190/78/8 193/59/8 215/60/8
f 203/88/5 207/89/5 208/87/5 198/62/5
f 203/73/1 190/74/1 220/75/1 207/76/1
f 193/65/4 198/66/4 208/90/4 215/68/4
