# Blender 4.4.3
# www.blender.org
mtllib Hook.mtl
o Cube.038
v -0.554242 -10.739655 -14.407114
v -0.554242 -10.661851 -14.407114
v -0.554242 -10.739655 -16.898685
v -0.554242 -10.661851 -16.898685
v 1.339750 -10.739655 -14.407114
v 1.339750 -10.661851 -14.407114
v 1.339750 -10.739655 -16.898685
v 1.339750 -10.661851 -16.898685
v 0.283944 -6.884835 -14.370807
v 0.283944 -6.220082 -14.902033
v 0.283944 -6.220082 -16.403765
v 0.283944 -6.884835 -16.934992
v 0.501564 -6.220082 -14.902033
v 0.501564 -6.884835 -14.370807
v 0.501564 -6.884835 -16.934992
v 0.501564 -6.220082 -16.403765
v 0.283944 -7.722647 -15.211506
v 0.283944 -7.081695 -14.370807
v 0.283944 -7.081695 -16.934992
v 0.283944 -7.722647 -16.094292
v 0.501564 -7.081695 -14.370807
v 0.501564 -7.722647 -15.211506
v 0.501564 -7.722647 -16.094292
v 0.501564 -7.081695 -16.934992
v 0.145981 -6.904843 -16.693521
v 0.145981 -6.383912 -16.262346
v 0.639527 -6.383912 -16.262346
v 0.639527 -6.904843 -16.693521
v 0.639527 -6.904843 -14.612277
v 0.639527 -6.383912 -15.043452
v 0.145981 -6.383912 -15.043452
v 0.145981 -6.904843 -14.612278
v 0.639527 -7.059112 -16.693521
v 0.639527 -7.561392 -16.011160
v 0.145981 -7.561392 -16.011160
v 0.145981 -7.059112 -16.693521
v 0.145981 -7.059112 -14.612278
v 0.145981 -7.561392 -15.294639
v 0.639527 -7.561392 -15.294639
v 0.639527 -7.059112 -14.612277
v 0.327437 -7.998230 -15.833847
v 0.458071 -7.998230 -15.833847
v 0.327437 -8.154939 -15.743371
v 0.458071 -8.154939 -15.743371
v 0.327437 -8.154939 -15.562421
v 0.458071 -8.154939 -15.562421
v 0.327437 -7.998230 -15.471946
v 0.458071 -7.998230 -15.471946
v 0.327437 -7.841523 -15.562421
v 0.458071 -7.841523 -15.562421
v 0.327437 -7.841523 -15.743371
v 0.458071 -7.841523 -15.743371
v 0.458071 -8.085596 -15.703337
v 0.458071 -7.910865 -15.703337
v 0.458071 -7.998230 -15.552014
v 0.458071 -7.910865 -15.602455
v 0.458071 -8.085596 -15.602455
v 0.458071 -7.998230 -15.753778
v 0.327437 -7.998230 -15.753778
v 0.327437 -8.085596 -15.602455
v 0.327437 -7.910865 -15.602455
v 0.327437 -7.910865 -15.703337
v 0.327437 -8.085596 -15.703337
v 0.327437 -7.998230 -15.552014
v 0.690242 -7.777199 -15.760283
v 0.690242 -7.777199 -15.545514
v 0.541496 -8.034835 -15.760283
v 0.541496 -8.034835 -15.545514
v 0.244003 -8.034835 -15.760283
v 0.244003 -8.034835 -15.545514
v 0.095257 -7.777199 -15.760283
v 0.095257 -7.777199 -15.545514
v 0.244003 -7.519563 -15.760283
v 0.244003 -7.519563 -15.545514
v 0.541496 -7.519563 -15.760283
v 0.541496 -7.519563 -15.545514
v 0.475676 -7.920833 -15.545514
v 0.475676 -7.633565 -15.545514
v 0.226895 -7.777199 -15.545514
v 0.309822 -7.633565 -15.545514
v 0.309822 -7.920833 -15.545514
v 0.558604 -7.777199 -15.545514
v 0.558603 -7.777199 -15.760283
v 0.309822 -7.920833 -15.760283
v 0.309822 -7.633565 -15.760283
v 0.475676 -7.633565 -15.760283
v 0.475676 -7.920833 -15.760283
v 0.226895 -7.777199 -15.760283
vn -1.0000 -0.0000 -0.0000
vn -0.0000 -0.0000 -1.0000
vn 1.0000 -0.0000 -0.0000
vn -0.0000 -0.0000 1.0000
vn -0.0000 -1.0000 -0.0000
vn -0.0000 1.0000 -0.0000
vn 0.7782 -0.5023 -0.3770
vn -0.0000 0.6243 -0.7812
vn -0.0000 0.6243 0.7812
vn 0.8316 0.3500 -0.4312
vn -0.0000 -0.7952 -0.6063
vn -0.0000 -0.7952 0.6063
vn -0.7599 -0.6501 -0.0000
vn 0.8316 0.3500 0.4312
vn 0.7599 -0.6501 -0.0000
vn -0.7782 -0.5023 -0.3770
vn 0.8683 -0.0000 0.4961
vn -0.8316 0.3500 0.4312
vn -0.8683 -0.0000 0.4961
vn -0.7782 -0.5023 0.3770
vn -0.8683 -0.0000 -0.4961
vn -0.8316 0.3500 -0.4312
vn -0.7649 0.6441 -0.0000
vn 0.8683 -0.0000 -0.4961
vn 0.7782 -0.5023 0.3770
vn 0.7649 0.6441 -0.0000
vn -0.0000 -0.5000 -0.8660
vn -0.0000 -0.5000 0.8660
vn -0.0000 0.5000 0.8660
vn -0.0000 0.5000 -0.8660
vn 0.8660 -0.5000 -0.0000
vn -0.8660 -0.5000 -0.0000
vn -0.8660 0.5000 -0.0000
vn 0.8660 0.5000 -0.0000
vt 0.375000 0.000000
vt 0.625000 0.000000
vt 0.625000 0.250000
vt 0.375000 0.250000
vt 0.625000 0.500000
vt 0.375000 0.500000
vt 0.625000 0.750000
vt 0.375000 0.750000
vt 0.625000 1.000000
vt 0.375000 1.000000
vt 0.125000 0.500000
vt 0.125000 0.750000
vt 0.875000 0.500000
vt 0.875000 0.750000
vt 0.625000 0.551793
vt 0.875000 0.551793
vt 0.875000 0.698207
vt 0.625000 0.698207
vt 0.451139 0.250000
vt 0.576889 0.250000
vt 0.576889 0.500000
vt 0.451139 0.500000
vt 0.451139 0.750000
vt 0.576889 0.750000
vt 0.576889 1.000000
vt 0.451139 1.000000
vt 0.375000 0.581966
vt 0.125000 0.581966
vt 0.125000 0.668034
vt 0.375000 0.668034
vt 0.375000 0.081966
vt 0.451139 0.000000
vt 0.576889 0.000000
vt 0.625000 0.051793
vt 0.625000 0.198207
vt 0.375000 0.168034
vt 1.000000 0.500000
vt 1.000000 1.000000
vt 0.833333 1.000000
vt 0.833333 0.500000
vt 0.666667 1.000000
vt 0.666667 0.500000
vt 0.500000 1.000000
vt 0.500000 0.500000
vt 0.333333 1.000000
vt 0.333333 0.500000
vt 0.134124 0.183099
vt 0.042154 0.130000
vt 0.250000 0.010000
vt 0.457846 0.130000
vt 0.365876 0.183099
vt 0.250000 0.116198
vt 0.457846 0.370000
vt 0.250000 0.490000
vt 0.042154 0.370000
vt 0.134124 0.316901
vt 0.250000 0.383802
vt 0.365876 0.316901
vt 0.166667 1.000000
vt 0.166667 0.500000
vt -0.000000 1.000000
vt -0.000000 0.500000
vt 0.542154 0.370000
vt 0.750000 0.490000
vt 0.957846 0.370000
vt 0.865876 0.316901
vt 0.750000 0.383802
vt 0.634124 0.316901
vt 0.957846 0.130000
vt 0.750000 0.010000
vt 0.542154 0.130000
vt 0.634124 0.183099
vt 0.750000 0.116198
vt 0.865876 0.183099
vt 0.833333 0.706151
vt 0.833333 0.793849
vt 1.000000 0.793849
vt 1.000000 0.706151
vt 0.666667 0.793849
vt 0.666667 0.706151
vt 0.500000 0.793849
vt 0.500000 0.706151
vt 0.333333 0.793849
vt 0.333333 0.706151
vt 0.166667 0.706151
vt 0.166667 0.793849
vt -0.000000 0.706151
vt -0.000000 0.793849
s 0
f 1/1/1 2/2/1 4/3/1 3/4/1
f 3/4/2 4/3/2 8/5/2 7/6/2
f 7/6/3 8/5/3 6/7/3 5/8/3
f 5/8/4 6/7/4 2/9/4 1/10/4
f 3/11/5 7/6/5 5/8/5 1/12/5
f 8/5/6 4/13/6 2/14/6 6/7/6
f 16/15/6 11/16/6 10/17/6 13/18/6
f 19/19/2 12/20/2 15/21/2 24/22/2
f 21/23/4 14/24/4 9/25/4 18/26/4
f 23/27/7 24/6/7 33/6/7 34/27/7
f 11/3/8 16/5/8 15/21/8 12/20/8
f 13/7/9 10/9/9 9/25/9 14/24/9
f 15/21/10 16/5/10 27/5/10 28/21/10
f 23/27/11 20/28/11 19/11/11 24/6/11
f 17/29/12 22/30/12 21/8/12 18/12/12
f 20/28/5 23/27/5 22/30/5 17/29/5
f 34/27/3 33/22/3 28/21/3 27/15/3 30/18/3 29/24/3 40/23/3 39/30/3
f 38/31/1 37/32/1 32/33/1 31/34/1 26/35/1 25/20/1 36/19/1 35/36/1
f 20/28/13 17/29/13 38/29/13 35/28/13
f 13/7/14 14/24/14 29/24/14 30/7/14
f 22/30/15 23/27/15 34/27/15 39/30/15
f 19/11/16 20/28/16 35/28/16 36/11/16
f 14/24/17 21/23/17 40/23/17 29/24/17
f 9/25/18 10/9/18 31/9/18 32/25/18
f 18/26/19 9/25/19 32/25/19 37/26/19
f 17/29/20 18/12/20 37/12/20 38/29/20
f 12/20/21 19/19/21 36/19/21 25/20/21
f 11/3/22 12/20/22 25/20/22 26/3/22
f 10/17/23 11/16/23 26/16/23 31/17/23
f 24/22/24 15/21/24 28/21/24 33/22/24
f 21/8/25 22/30/25 39/30/25 40/8/25
f 16/15/26 13/18/26 30/18/26 27/15/26
f 41/37/27 42/38/27 44/39/27 43/40/27
f 43/40/5 44/39/5 46/41/5 45/42/5
f 45/42/28 46/41/28 48/43/28 47/44/28
f 47/44/29 48/43/29 50/45/29 49/46/29
f 56/47/3 50/48/3 48/49/3 46/50/3 57/51/3 55/52/3
f 46/50/3 44/53/3 42/54/3 52/55/3 50/48/3 56/47/3 54/56/3 58/57/3 53/58/3 57/51/3
f 49/46/6 50/45/6 52/59/6 51/60/6
f 51/60/30 52/59/30 42/61/30 41/62/30
f 51/63/1 41/64/1 43/65/1 63/66/1 59/67/1 62/68/1
f 63/66/1 43/65/1 45/69/1 47/70/1 49/71/1 51/63/1 62/68/1 61/72/1 64/73/1 60/74/1
f 63/75/29 53/76/29 58/77/29 59/78/29
f 57/79/6 53/76/6 63/75/6 60/80/6
f 55/81/30 57/79/30 60/80/30 64/82/30
f 56/83/27 55/81/27 64/82/27 61/84/27
f 62/85/5 54/86/5 56/83/5 61/84/5
f 59/87/28 58/88/28 54/86/28 62/85/28
f 65/37/31 66/38/31 68/39/31 67/40/31
f 67/40/5 68/39/5 70/41/5 69/42/5
f 69/42/32 70/41/32 72/43/32 71/44/32
f 71/44/33 72/43/33 74/45/33 73/46/33
f 80/47/4 74/48/4 72/49/4 70/50/4 81/51/4 79/52/4
f 70/50/4 68/53/4 66/54/4 76/55/4 74/48/4 80/47/4 78/56/4 82/57/4 77/58/4 81/51/4
f 73/46/6 74/45/6 76/59/6 75/60/6
f 75/60/34 76/59/34 66/61/34 65/62/34
f 75/63/2 65/64/2 67/65/2 87/66/2 83/67/2 86/68/2
f 87/66/2 67/65/2 69/69/2 71/70/2 73/71/2 75/63/2 86/68/2 85/72/2 88/73/2 84/74/2
f 87/75/33 77/76/33 82/77/33 83/78/33
f 81/79/6 77/76/6 87/75/6 84/80/6
f 79/81/34 81/79/34 84/80/34 88/82/34
f 80/83/31 79/81/31 88/82/31 85/84/31
f 86/85/5 78/86/5 80/83/5 85/84/5
f 83/87/32 82/88/32 78/86/32 86/85/32
