# Blender 4.4.3
# www.blender.org
mtllib Tower1.mtl
o Cube.106
v -0.324084 -16.199959 0.800250
v -0.530355 -16.199959 0.593979
v -0.582180 -15.746488 0.582721
v -0.312826 -15.746488 0.852075
v -0.530355 -16.199959 -0.839697
v -0.324084 -16.199959 -1.045968
v -0.312826 -15.746488 -1.097793
v -0.582180 -15.746488 -0.828439
v 1.315863 -16.199959 0.593979
v 1.109592 -16.199959 0.800250
v 1.098334 -15.746488 0.852075
v 1.367688 -15.746488 0.582721
v 1.109592 -16.199959 -1.045968
v 1.315863 -16.199959 -0.839697
v 1.367688 -15.746488 -0.828439
v 1.098334 -15.746488 -1.097793
v -0.012404 -15.746488 -0.824614
v 0.392754 -15.746488 -0.933175
v 1.203070 -15.746488 -0.122859
v 1.094509 -15.746488 0.282299
v 1.094509 -15.746488 -0.528017
v 0.797912 -15.746488 -0.824614
v -0.417562 -15.746488 -0.122859
v -0.309001 -15.746488 0.282299
v -0.309001 -15.746488 -0.528017
v -0.012404 -15.746488 0.578896
v 0.797912 -15.746488 0.578896
v 0.392754 -15.746488 0.687457
v -0.417562 -16.199957 -0.122859
v -0.309001 -16.199957 0.282299
v -0.309001 -16.199957 -0.528017
v 0.797912 -16.199957 -0.824614
v 0.392754 -16.199957 -0.933175
v -0.012404 -16.199957 -0.824614
v -0.012404 -16.199957 0.578896
v 0.392754 -16.199957 0.687457
v 1.203070 -16.199957 -0.122859
v 1.094509 -16.199957 0.282299
v 1.094509 -16.199957 -0.528017
v 0.797912 -16.199957 0.578896
v 1.313284 -12.069704 -1.066373
v 1.313284 -12.011553 -1.066373
v 1.313284 -13.389151 0.820655
v 1.313284 -13.330999 0.820655
v 1.244151 -12.069704 -1.066373
v 1.244151 -12.011553 -1.066373
v 1.244151 -13.389151 0.820655
v 1.244151 -13.330999 0.820655
v 1.244151 -10.750114 0.820655
v 1.244151 -10.691963 0.820655
v 1.244151 -12.069561 -1.066373
v 1.244151 -12.011410 -1.066373
v 1.313284 -10.750114 0.820655
v 1.313284 -10.691963 0.820655
v 1.313284 -12.069561 -1.066373
v 1.313284 -12.011410 -1.066373
v -0.458643 -10.750114 -1.066373
v -0.458643 -10.691963 -1.066373
v -0.458643 -12.069561 0.820655
v -0.458643 -12.011410 0.820655
v -0.527775 -10.750114 -1.066373
v -0.527775 -10.691963 -1.066373
v -0.527775 -12.069561 0.820655
v -0.527775 -12.011410 0.820655
v -0.527775 -12.069704 0.820655
v -0.527775 -12.011553 0.820655
v -0.527776 -13.389151 -1.066373
v -0.527776 -13.330999 -1.066373
v -0.458643 -12.069704 0.820655
v -0.458643 -12.011553 0.820655
v -0.458643 -13.389151 -1.066373
v -0.458643 -13.330999 -1.066373
v 1.336268 -13.366934 -0.974256
v 1.336268 -13.308783 -0.974256
v -0.550760 -14.686381 -0.974255
v -0.550760 -14.628230 -0.974255
v 1.336268 -13.366934 -1.043388
v 1.336268 -13.308783 -1.043388
v -0.550760 -14.686381 -1.043388
v -0.550760 -14.628230 -1.043388
v -0.550760 -14.686523 -1.043388
v -0.550760 -14.628372 -1.043388
v 1.336268 -16.005970 -1.043389
v 1.336268 -15.947820 -1.043389
v -0.550760 -14.686523 -0.974255
v -0.550760 -14.628372 -0.974255
v 1.336268 -16.005970 -0.974256
v 1.336268 -15.947820 -0.974256
v -0.550760 -12.069704 -1.043388
v -0.550760 -12.011553 -1.043388
v 1.336268 -13.389151 -1.043389
v 1.336268 -13.330999 -1.043389
v -0.550760 -12.069704 -0.974255
v -0.550760 -12.011553 -0.974255
v 1.336268 -13.389151 -0.974256
v 1.336268 -13.330999 -0.974256
v 1.336268 -10.750114 -0.974256
v 1.336268 -10.691963 -0.974256
v -0.550760 -12.069561 -0.974255
v -0.550760 -12.011410 -0.974255
v 1.336268 -10.750114 -1.043388
v 1.336268 -10.691963 -1.043388
v -0.550760 -12.069561 -1.043388
v -0.550760 -12.011410 -1.043388
v -0.550760 -10.750114 0.728538
v -0.550760 -10.691963 0.728538
v 1.336268 -12.069561 0.728538
v 1.336268 -12.011410 0.728538
v -0.550760 -10.750114 0.797671
v -0.550760 -10.691963 0.797671
v 1.336268 -12.069561 0.797671
v 1.336268 -12.011410 0.797671
v 1.336268 -12.069704 0.797671
v 1.336268 -12.011553 0.797671
v -0.550760 -13.389151 0.797671
v -0.550760 -13.330999 0.797671
v 1.336268 -12.069704 0.728538
v 1.336268 -12.011553 0.728538
v -0.550760 -13.389151 0.728538
v -0.550760 -13.330999 0.728538
v 1.336268 -14.686523 0.797671
v 1.336268 -14.628372 0.797671
v -0.550760 -16.005970 0.797671
v -0.550760 -15.947820 0.797671
v 1.336268 -14.686523 0.728538
v 1.336268 -14.628372 0.728538
v -0.550760 -16.005970 0.728538
v -0.550760 -15.947820 0.728538
v -0.550760 -13.366934 0.728538
v -0.550760 -13.308783 0.728538
v 1.336268 -14.686381 0.728538
v 1.336268 -14.628230 0.728538
v -0.550760 -13.366934 0.797671
v -0.550760 -13.308783 0.797671
v 1.336268 -14.686381 0.797671
v 1.336268 -14.628230 0.797671
v -0.607246 -10.703125 -1.122859
v -0.607246 -16.115465 -1.122860
v -0.607246 -10.703125 0.877141
v -0.607246 -16.115465 0.877140
v 1.392754 -10.703125 -1.122859
v 1.392754 -16.115465 -1.122860
v 1.392754 -10.703125 0.877141
v 1.392754 -16.115465 0.877140
v 1.152737 -16.115465 0.877140
v -0.367229 -16.115465 0.877140
v 1.152737 -10.703125 0.877141
v -0.367229 -10.703125 0.877141
v -0.367229 -16.115465 -1.122860
v 1.152737 -16.115465 -1.122860
v 1.152737 -10.703125 -1.122859
v -0.367229 -10.703125 -1.122859
v -0.607246 -16.115465 0.637123
v -0.607246 -16.115465 -0.882843
v -0.607246 -10.703125 0.637124
v -0.607246 -10.703125 -0.882842
v 1.392754 -16.115465 -0.882843
v 1.392754 -16.115465 0.637123
v 1.392754 -10.703125 0.637124
v 1.392754 -10.703125 -0.882842
v 1.152737 -10.703125 -0.882842
v 1.152737 -10.703125 0.637124
v -0.367229 -10.703125 -0.882842
v -0.367229 -10.703125 0.637124
v -0.367229 -16.115465 -0.882843
v -0.367229 -16.115465 0.637123
v 1.152737 -16.115465 -0.882843
v 1.152737 -16.115465 0.637123
vn -0.0000 -0.1135 0.9935
vn 0.9935 -0.1135 -0.0000
vn -0.0000 1.0000 -0.0000
vn -0.9935 -0.1135 -0.0000
vn -0.0000 -0.1135 -0.9935
vn -0.7057 -0.0631 0.7057
vn -0.7057 -0.0631 -0.7057
vn 0.7057 -0.0631 -0.7057
vn 0.7057 -0.0631 0.7057
vn -0.0000 -1.0000 -0.0000
vn -0.2588 -0.0000 0.9659
vn -0.7071 -0.0000 0.7071
vn -0.9659 -0.0000 0.2588
vn -0.9659 -0.0000 -0.2588
vn -0.7071 -0.0000 -0.7071
vn -0.2588 -0.0000 -0.9659
vn 0.2588 -0.0000 -0.9659
vn 0.7071 -0.0000 -0.7071
vn 0.9659 -0.0000 -0.2588
vn 0.9659 -0.0000 0.2588
vn 0.7071 -0.0000 0.7071
vn 0.2588 -0.0000 0.9659
vn 1.0000 -0.0000 -0.0000
vn -0.0000 -0.0000 1.0000
vn -1.0000 -0.0000 -0.0000
vn -0.0000 -0.0000 -1.0000
vn -0.0000 -0.8195 -0.5730
vn -0.0000 0.8195 0.5730
vn -0.0000 -0.8195 0.5730
vn -0.0000 0.8195 -0.5730
vn 0.5730 -0.8195 -0.0000
vn -0.5730 0.8195 -0.0000
vn -0.5730 -0.8195 -0.0000
vn 0.5730 0.8195 -0.0000
vt 0.375000 0.777932
vt 0.625000 0.784535
vt 0.625000 0.965465
vt 0.375000 0.972068
vt 0.375000 0.527932
vt 0.625000 0.534535
vt 0.625000 0.715465
vt 0.375000 0.722068
vt 0.698053 0.535025
vt 0.659535 0.500000
vt 0.840465 0.500000
vt 0.875000 0.534535
vt 0.875000 0.715465
vt 0.840465 0.750000
vt 0.801947 0.714975
vt 0.839975 0.676947
vt 0.853894 0.625000
vt 0.839975 0.573053
vt 0.801947 0.535025
vt 0.750000 0.521106
vt 0.659535 0.750000
vt 0.660025 0.573053
vt 0.646106 0.625000
vt 0.660025 0.676947
vt 0.698053 0.714975
vt 0.750000 0.728894
vt 0.375000 0.027932
vt 0.625000 0.034535
vt 0.625000 0.215465
vt 0.375000 0.222068
vt 0.375000 0.277932
vt 0.625000 0.284535
vt 0.625000 0.465465
vt 0.375000 0.472068
vt 0.424764 0.000000
vt 0.625000 0.000000
vt 0.207986 0.552229
vt 0.152932 0.500000
vt 0.347068 0.500000
vt 0.347068 0.750000
vt 0.292014 0.697771
vt 0.322771 0.667014
vt 0.334029 0.625000
vt 0.322771 0.582986
vt 0.292014 0.552229
vt 0.250000 0.540971
vt 0.152932 0.750000
vt 0.125000 0.722068
vt 0.125000 0.527932
vt 0.177229 0.582986
vt 0.165972 0.625000
vt 0.177229 0.667014
vt 0.207986 0.697771
vt 0.250000 0.709028
vt 0.916667 0.613515
vt 0.916667 0.742123
vt 1.000000 0.742123
vt 1.000000 0.613515
vt 0.833333 0.613515
vt 0.833333 0.742123
vt 0.750000 0.742123
vt 0.750000 0.613515
vt 0.666667 0.742123
vt 0.666667 0.613515
vt 0.583333 0.742123
vt 0.583333 0.613515
vt 0.500000 0.742123
vt 0.500000 0.613515
vt 0.416667 0.742123
vt 0.416667 0.613515
vt 0.333333 0.742123
vt 0.333333 0.613515
vt 0.250000 0.613515
vt 0.250000 0.742123
vt 0.166667 0.613515
vt 0.166667 0.742123
vt 0.083333 0.613515
vt 0.083333 0.742123
vt 0.000000 0.613515
vt 0.000000 0.742123
vt 0.375000 0.000000
vt 0.625000 0.250000
vt 0.375000 0.250000
vt 0.625000 0.500000
vt 0.375000 0.500000
vt 0.625000 0.750000
vt 0.375000 0.750000
vt 0.625000 1.000000
vt 0.375000 1.000000
vt 0.125000 0.500000
vt 0.125000 0.750000
vt 0.875000 0.500000
vt 0.875000 0.750000
vt 0.375000 0.219998
vt 0.625000 0.219998
vt 0.625000 0.030002
vt 0.375000 0.030002
vt 0.375000 0.469998
vt 0.625000 0.469998
vt 0.625000 0.280002
vt 0.375000 0.280002
vt 0.375000 0.719998
vt 0.625000 0.719998
vt 0.625000 0.530002
vt 0.375000 0.530002
vt 0.375000 0.969998
vt 0.625000 0.969998
vt 0.625000 0.780002
vt 0.375000 0.780002
vt 0.344998 0.750000
vt 0.344998 0.719998
vt 0.344998 0.500000
vt 0.344998 0.530002
vt 0.125000 0.530002
vt 0.155002 0.500000
vt 0.155002 0.530002
vt 0.155002 0.750000
vt 0.125000 0.719998
vt 0.155002 0.719998
vt 0.875000 0.719998
vt 0.844998 0.750000
vt 0.844998 0.719998
vt 0.844998 0.530002
vt 0.844998 0.500000
vt 0.875000 0.530002
vt 0.655002 0.500000
vt 0.655002 0.530002
vt 0.655002 0.750000
vt 0.655002 0.719998
vt 0.618460 0.349779
vt 0.618460 0.341814
vt 0.394355 0.341814
vt 0.394355 0.349779
vt 0.394355 0.408186
vt 0.618460 0.408186
vt 0.618460 0.400221
vt 0.394355 0.400221
vt 0.618460 0.841814
vt 0.394355 0.841814
vt 0.394355 0.849779
vt 0.618460 0.849779
vt 0.394355 0.908186
vt 0.618460 0.908186
vt 0.618460 0.900221
vt 0.394355 0.900221
vt 0.394355 0.341814
vt 0.618460 0.349779
vt 0.394355 0.408186
vt 0.618460 0.400221
vt 0.394355 0.400221
vt 0.618460 0.849779
vt 0.394355 0.841814
vt 0.394355 0.849779
vt 0.618460 0.900221
vt 0.394355 0.900221
s 0
f 10/1/1 11/2/1 4/3/1 1/4/1
f 14/5/2 15/6/2 12/7/2 9/8/2
f 22/9/3 16/10/3 7/11/3 8/12/3 3/13/3 4/14/3 26/15/3 24/16/3 23/17/3 25/18/3 17/19/3 18/20/3
f 26/15/3 4/14/3 11/21/3 12/7/3 15/6/3 16/10/3 22/9/3 21/22/3 19/23/3 20/24/3 27/25/3 28/26/3
f 2/27/4 3/28/4 8/29/4 5/30/4
f 6/31/5 7/32/5 16/33/5 13/34/5
f 1/35/6 4/36/6 3/28/6 2/27/6
f 7/32/7 6/31/7 5/30/7 8/29/7
f 15/6/8 14/5/8 13/34/8 16/33/8
f 11/2/9 10/1/9 9/8/9 12/7/9
f 34/37/10 6/38/10 13/39/10 14/5/10 9/8/10 10/40/10 40/41/10 38/42/10 37/43/10 39/44/10 32/45/10 33/46/10
f 40/41/10 10/40/10 1/47/10 2/48/10 5/49/10 6/38/10 34/37/10 31/50/10 29/51/10 30/52/10 35/53/10 36/54/10
f 32/55/11 22/56/11 18/57/11 33/58/11
f 39/59/12 21/60/12 22/56/12 32/55/12
f 19/61/13 21/60/13 39/59/13 37/62/13
f 20/63/14 19/61/14 37/62/14 38/64/14
f 27/65/15 20/63/15 38/64/15 40/66/15
f 28/67/16 27/65/16 40/66/16 36/68/16
f 26/69/17 28/67/17 36/68/17 35/70/17
f 24/71/18 26/69/18 35/70/18 30/72/18
f 29/73/19 23/74/19 24/71/19 30/72/19
f 31/75/20 25/76/20 23/74/20 29/73/20
f 34/77/21 17/78/21 25/76/21 31/75/21
f 33/79/22 18/80/22 17/78/22 34/77/22
f 41/81/23 42/36/23 44/82/23 43/83/23
f 43/83/24 44/82/24 48/84/24 47/85/24
f 47/85/25 48/84/25 46/86/25 45/87/25
f 45/87/26 46/86/26 42/88/26 41/89/26
f 43/90/27 47/85/27 45/87/27 41/91/27
f 48/84/28 44/92/28 42/93/28 46/86/28
f 49/81/25 50/36/25 52/82/25 51/83/25
f 51/83/26 52/82/26 56/84/26 55/85/26
f 55/85/23 56/84/23 54/86/23 53/87/23
f 53/87/24 54/86/24 50/88/24 49/89/24
f 51/90/29 55/85/29 53/87/29 49/91/29
f 56/84/30 52/92/30 50/93/30 54/86/30
f 57/81/23 58/36/23 60/82/23 59/83/23
f 59/83/24 60/82/24 64/84/24 63/85/24
f 63/85/25 64/84/25 62/86/25 61/87/25
f 61/87/26 62/86/26 58/88/26 57/89/26
f 59/90/27 63/85/27 61/87/27 57/91/27
f 64/84/28 60/92/28 58/93/28 62/86/28
f 65/81/25 66/36/25 68/82/25 67/83/25
f 67/83/26 68/82/26 72/84/26 71/85/26
f 71/85/23 72/84/23 70/86/23 69/87/23
f 69/87/24 70/86/24 66/88/24 65/89/24
f 67/90/29 71/85/29 69/87/29 65/91/29
f 72/84/30 68/92/30 66/93/30 70/86/30
f 73/81/24 74/36/24 76/82/24 75/83/24
f 75/83/25 76/82/25 80/84/25 79/85/25
f 79/85/26 80/84/26 78/86/26 77/87/26
f 77/87/23 78/86/23 74/88/23 73/89/23
f 75/90/31 79/85/31 77/87/31 73/91/31
f 80/84/32 76/92/32 74/93/32 78/86/32
f 81/81/26 82/36/26 84/82/26 83/83/26
f 83/83/23 84/82/23 88/84/23 87/85/23
f 87/85/24 88/84/24 86/86/24 85/87/24
f 85/87/25 86/86/25 82/88/25 81/89/25
f 83/90/33 87/85/33 85/87/33 81/91/33
f 88/84/34 84/92/34 82/93/34 86/86/34
f 89/81/26 90/36/26 92/82/26 91/83/26
f 91/83/23 92/82/23 96/84/23 95/85/23
f 95/85/24 96/84/24 94/86/24 93/87/24
f 93/87/25 94/86/25 90/88/25 89/89/25
f 91/90/33 95/85/33 93/87/33 89/91/33
f 96/84/34 92/92/34 90/93/34 94/86/34
f 97/81/24 98/36/24 100/82/24 99/83/24
f 99/83/25 100/82/25 104/84/25 103/85/25
f 103/85/26 104/84/26 102/86/26 101/87/26
f 101/87/23 102/86/23 98/88/23 97/89/23
f 99/90/31 103/85/31 101/87/31 97/91/31
f 104/84/32 100/92/32 98/93/32 102/86/32
f 105/81/26 106/36/26 108/82/26 107/83/26
f 107/83/23 108/82/23 112/84/23 111/85/23
f 111/85/24 112/84/24 110/86/24 109/87/24
f 109/87/25 110/86/25 106/88/25 105/89/25
f 107/90/33 111/85/33 109/87/33 105/91/33
f 112/84/34 108/92/34 106/93/34 110/86/34
f 113/81/24 114/36/24 116/82/24 115/83/24
f 115/83/25 116/82/25 120/84/25 119/85/25
f 119/85/26 120/84/26 118/86/26 117/87/26
f 117/87/23 118/86/23 114/88/23 113/89/23
f 115/90/31 119/85/31 117/87/31 113/91/31
f 120/84/32 116/92/32 114/93/32 118/86/32
f 121/81/24 122/36/24 124/82/24 123/83/24
f 123/83/25 124/82/25 128/84/25 127/85/25
f 127/85/26 128/84/26 126/86/26 125/87/26
f 125/87/23 126/86/23 122/88/23 121/89/23
f 123/90/31 127/85/31 125/87/31 121/91/31
f 128/84/32 124/92/32 122/93/32 126/86/32
f 129/81/26 130/36/26 132/82/26 131/83/26
f 131/83/23 132/82/23 136/84/23 135/85/23
f 135/85/24 136/84/24 134/86/24 133/87/24
f 133/87/25 134/86/25 130/88/25 129/89/25
f 131/90/33 135/85/33 133/87/33 129/91/33
f 136/84/34 132/92/34 130/93/34 134/86/34
f 140/82/25 139/83/25 155/94/25 153/95/25
f 137/81/25 138/36/25 154/96/25 156/97/25
f 144/84/24 143/85/24 147/98/24 145/99/24
f 139/83/24 140/82/24 146/100/24 148/101/24
f 142/86/23 141/87/23 160/102/23 157/103/23
f 143/85/23 144/84/23 158/104/23 159/105/23
f 138/88/26 137/89/26 152/106/26 149/107/26
f 141/87/26 142/86/26 150/108/26 151/109/26
f 141/87/3 151/110/3 161/111/3 160/102/3
f 147/112/3 143/85/3 159/105/3 162/113/3
f 155/114/3 139/90/3 148/115/3 164/116/3
f 152/117/3 137/91/3 156/118/3 163/119/3
f 154/120/10 138/93/10 149/121/10 165/122/10
f 166/123/10 146/124/10 140/92/10 153/125/10
f 158/104/10 144/84/10 145/126/10 168/127/10
f 150/128/10 142/86/10 157/103/10 167/129/10
f 168/130/25 145/131/25 147/132/25 162/133/25
f 151/134/25 150/135/25 167/136/25 161/137/25
f 149/138/23 152/139/23 163/140/23 165/141/23
f 148/142/23 146/143/23 166/144/23 164/145/23
f 153/131/26 155/146/26 164/133/26 166/147/26
f 159/148/26 158/135/26 168/149/26 162/150/26
f 167/151/24 157/138/24 160/152/24 161/153/24
f 156/142/24 154/143/24 165/154/24 163/155/24
