# Blender 4.4.3
# www.blender.org
mtllib Cover.mtl
o Cylinder
v -0.000000 0.139781 -1.545353
v 0.106564 0.111227 -1.545353
v 0.184575 0.033216 -1.545353
v 0.213129 -0.073348 -1.545353
v 0.184575 -0.179913 -1.545353
v 0.106564 -0.257923 -1.545353
v -0.000000 -0.286477 -1.545353
v -0.106564 -0.257923 -1.545353
v -0.184575 -0.179913 -1.545353
v -0.213129 -0.073348 -1.545353
v -0.184575 0.033216 -1.545353
v -0.106564 0.111227 -1.545353
v -0.000000 0.139781 -1.576124
v 0.106564 0.111227 -1.576124
v 0.184575 0.033216 -1.576124
v 0.213129 -0.073348 -1.576124
v 0.184575 -0.179913 -1.576124
v 0.106564 -0.257923 -1.576124
v -0.000000 -0.286477 -1.576124
v -0.106564 -0.257923 -1.576124
v -0.184575 -0.179913 -1.576124
v -0.213129 -0.073348 -1.576124
v -0.184575 0.033216 -1.576124
v -0.106564 0.111227 -1.576124
v -0.000000 0.106546 -1.545353
v 0.089947 0.082445 -1.545353
v 0.155793 0.016599 -1.545353
v 0.179894 -0.073348 -1.545353
v 0.155793 -0.163295 -1.545353
v 0.089947 -0.229141 -1.545353
v -0.000000 -0.253242 -1.545353
v -0.089947 -0.229141 -1.545353
v -0.155793 -0.163295 -1.545353
v -0.179894 -0.073348 -1.545353
v -0.155793 0.016599 -1.545353
v -0.089947 0.082445 -1.545353
v -0.000000 0.106546 -1.576124
v 0.089947 0.082445 -1.576124
v 0.155793 0.016599 -1.576124
v 0.179894 -0.073348 -1.576124
v 0.155793 -0.163295 -1.576124
v 0.089947 -0.229141 -1.576124
v -0.000000 -0.253242 -1.576124
v -0.089947 -0.229141 -1.576124
v -0.155793 -0.163295 -1.576124
v -0.179894 -0.073348 -1.576124
v -0.155793 0.016599 -1.576124
v -0.089947 0.082445 -1.576124
v -0.000000 0.139781 -1.636071
v 0.106564 0.111227 -1.636071
v 0.184575 0.033216 -1.636071
v 0.213129 -0.073348 -1.636071
v 0.184575 -0.179913 -1.636071
v 0.106564 -0.257923 -1.636071
v -0.000000 -0.286477 -1.636071
v -0.106564 -0.257923 -1.636071
v -0.184575 -0.179913 -1.636071
v -0.213129 -0.073348 -1.636071
v -0.184575 0.033216 -1.636071
v -0.106564 0.111227 -1.636071
v 0.093095 0.087898 -1.662091
v -0.000000 0.112843 -1.662091
v 0.161246 0.019747 -1.662091
v 0.186191 -0.073348 -1.662091
v 0.161246 -0.166443 -1.662091
v 0.093095 -0.234594 -1.662091
v -0.000000 -0.259539 -1.662091
v -0.093095 -0.234594 -1.662091
v -0.161246 -0.166443 -1.662091
v -0.186191 -0.073348 -1.662091
v -0.161246 0.019747 -1.662091
v -0.093095 0.087898 -1.662091
v -0.000000 0.139781 0.098653
v 0.106564 0.111227 0.098653
v 0.184575 0.033217 0.098653
v 0.213129 -0.073348 0.098653
v 0.184575 -0.179912 0.098653
v 0.106564 -0.257923 0.098653
v -0.000000 -0.286477 0.098653
v -0.106564 -0.257923 0.098653
v -0.184575 -0.179912 0.098653
v -0.213129 -0.073348 0.098653
v -0.184575 0.033217 0.098653
v -0.106564 0.111227 0.098653
v -0.084099 0.072316 0.417259
v -0.000000 0.094851 0.417259
v 0.084099 0.072316 0.417259
v -0.145664 -0.157447 0.417259
v -0.084099 -0.219012 0.417259
v 0.084099 -0.219012 0.417259
v 0.168199 -0.073348 0.417259
v 0.145664 -0.157447 0.417259
v -0.168199 -0.073348 0.417259
v -0.145664 0.010751 0.417259
v -0.000000 -0.241546 0.417259
v 0.145664 0.010751 0.417259
v -0.000000 0.094851 -1.662091
v 0.084099 0.072316 -1.662091
v 0.084099 0.072316 -1.662091
v 0.145664 0.010751 -1.662091
v 0.145664 0.010751 -1.662091
v 0.168199 -0.073348 -1.662091
v 0.168199 -0.073348 -1.662091
v 0.145664 -0.157447 -1.662091
v 0.145664 -0.157447 -1.662091
v 0.084099 -0.219012 -1.662091
v 0.084099 -0.219012 -1.662091
v -0.000000 -0.241547 -1.662091
v -0.084099 -0.219012 -1.662091
v -0.084099 -0.219012 -1.662091
v -0.145664 -0.157447 -1.662091
v -0.145664 -0.157447 -1.662091
v -0.168199 -0.073348 -1.662091
v -0.168199 -0.073348 -1.662091
v -0.145664 0.010751 -1.662091
v -0.145664 0.010751 -1.662091
v -0.084099 0.072316 -1.662091
v -0.084099 0.072316 -1.662091
v -0.106564 0.111227 -0.093503
v -0.000000 0.139781 -0.093503
v -0.184575 0.033217 -0.093503
v -0.213129 -0.073348 -0.093503
v -0.184575 -0.179912 -0.093503
v -0.106564 -0.257923 -0.093503
v -0.000000 -0.286477 -0.093503
v 0.106564 -0.257923 -0.093503
v 0.184575 -0.179912 -0.093503
v 0.213129 -0.073348 -0.093503
v 0.184575 0.033217 -0.093503
v 0.106564 0.111227 -0.093503
v -0.106564 0.111227 -0.338621
v -0.000000 0.139781 -0.338621
v -0.184575 0.033216 -0.338621
v -0.213129 -0.073348 -0.338621
v -0.184575 -0.179912 -0.338621
v -0.106564 -0.257923 -0.338621
v -0.000000 -0.286477 -0.338621
v 0.106564 -0.257923 -0.338621
v 0.184575 -0.179912 -0.338621
v 0.213129 -0.073348 -0.338621
v 0.184575 0.033216 -0.338621
v 0.106564 0.111227 -0.338621
v -0.098780 0.097744 -0.314455
v -0.098780 0.097744 -0.117669
v -0.000000 0.124212 -0.314455
v -0.000000 0.124212 -0.117669
v -0.171092 0.025432 -0.314455
v -0.171092 0.025432 -0.117669
v -0.197560 -0.073348 -0.314455
v -0.197560 -0.073348 -0.117669
v -0.171092 -0.172128 -0.314455
v -0.171092 -0.172128 -0.117669
v -0.098780 -0.244440 -0.314455
v -0.098780 -0.244440 -0.117669
v -0.000000 -0.270908 -0.314455
v -0.000000 -0.270908 -0.117669
v 0.098780 -0.244440 -0.314455
v 0.098780 -0.244440 -0.117669
v 0.171092 -0.172128 -0.314455
v 0.171092 -0.172128 -0.117669
v 0.197560 -0.073348 -0.314455
v 0.197560 -0.073348 -0.117669
v 0.171092 0.025432 -0.314455
v 0.171092 0.025432 -0.117669
v 0.098780 0.097744 -0.314455
v 0.098780 0.097744 -0.117669
v -0.000000 0.139781 0.387183
v -0.000000 0.108788 0.417259
v 0.090391 0.084553 0.417259
v 0.106564 0.111227 0.387148
v 0.157411 0.017533 0.417259
v 0.184575 0.033217 0.387128
v 0.181763 -0.073348 0.417259
v 0.213129 -0.073348 0.387122
v 0.157411 -0.164229 0.417259
v 0.184575 -0.179912 0.387128
v 0.090881 -0.230759 0.417259
v 0.106564 -0.257923 0.387148
v -0.001743 -0.255578 0.417259
v -0.000000 -0.286477 0.387183
v -0.175733 -0.229444 0.417259
v -0.182235 -0.257923 0.387258
v -0.240948 -0.164229 0.417259
v -0.260260 -0.179912 0.387311
v -0.265299 -0.073348 0.417259
v -0.288820 -0.073348 0.387333
v -0.240948 0.017533 0.417259
v -0.260260 0.033217 0.387311
v -0.182235 0.111227 0.387258
v -0.176136 0.082345 0.417259
vn -0.0000 -0.0000 1.0000
vn 0.8660 0.5000 -0.0000
vn 0.9659 0.2588 -0.0000
vn 0.9659 -0.2588 -0.0000
vn 0.8660 -0.5000 -0.0000
vn 0.5000 -0.8660 -0.0000
vn 0.0333 -0.9994 -0.0131
vn 0.0167 -0.9998 -0.0066
vn -0.1939 -0.9807 -0.0254
vn -0.4660 -0.8834 -0.0492
vn -0.6953 -0.6953 -0.1823
vn -0.8536 -0.4704 -0.2238
vn -0.8550 -0.5064 -0.1121
vn -0.9673 -0.0000 -0.2536
vn -0.9914 -0.0000 -0.1306
vn -0.8536 0.4704 -0.2238
vn -0.8550 0.5064 -0.1121
vn -0.6953 0.6953 -0.1823
vn -0.4660 0.8834 -0.0492
vn 0.5000 0.8660 -0.0000
vn 0.0167 0.9998 -0.0066
vn 0.0333 0.9994 -0.0131
vn -0.7071 0.7071 -0.0000
vn -0.0000 -0.0000 -1.0000
vn -0.2588 0.9659 -0.0000
vn -0.7071 -0.7071 -0.0000
vn 0.7071 -0.7071 -0.0000
vn -0.9659 -0.2588 -0.0000
vn 0.2588 -0.9659 -0.0000
vn 0.7071 0.7071 -0.0000
vn -0.9659 0.2588 -0.0000
vn -0.2588 -0.9659 -0.0000
vn -1.0000 -0.0000 -0.0000
vn -0.8660 0.5000 -0.0000
vn -0.8660 -0.5000 -0.0000
vn -0.5000 -0.8660 -0.0000
vn -0.0000 -1.0000 -0.0000
vn 1.0000 -0.0000 -0.0000
vn -0.5000 0.8660 -0.0000
vn -0.0000 1.0000 -0.0000
vn -0.0000 0.6947 -0.7193
vn 0.3474 0.6017 -0.7193
vn 0.6017 0.3474 -0.7193
vn 0.6947 -0.0000 -0.7193
vn 0.6017 -0.3474 -0.7193
vn 0.3474 -0.6017 -0.7193
vn -0.0000 -0.6947 -0.7193
vn -0.3474 -0.6017 -0.7193
vn -0.6017 -0.3474 -0.7193
vn -0.6947 -0.0000 -0.7193
vn -0.6017 0.3474 -0.7193
vn -0.3474 0.6017 -0.7193
vn 0.2588 0.9659 -0.0000
vn -0.7280 0.4203 -0.5416
vn -0.4203 0.7280 -0.5416
vn 0.7280 -0.4203 0.5416
vn 0.8406 -0.0000 0.5416
vn 0.7280 0.4203 -0.5416
vn 0.8406 -0.0000 -0.5416
vn -0.0000 0.8406 0.5416
vn -0.4203 0.7280 0.5416
vn -0.8406 -0.0000 -0.5416
vn 0.4203 -0.7280 0.5416
vn 0.4203 0.7280 -0.5416
vn -0.7280 -0.4203 -0.5416
vn -0.0000 -0.8406 0.5416
vn -0.0000 0.8406 -0.5416
vn -0.4203 -0.7280 -0.5416
vn -0.4203 -0.7280 0.5416
vn -0.7280 0.4203 0.5416
vn 0.7280 -0.4203 -0.5416
vn 0.7280 0.4203 0.5416
vn -0.8406 -0.0000 0.5416
vn 0.4203 -0.7280 -0.5416
vn 0.4203 0.7280 0.5416
vn -0.7280 -0.4203 0.5416
vn -0.0000 -0.8406 -0.5416
vn 0.0421 0.6990 0.7139
vn 0.3456 0.6025 0.7194
vn 0.3487 0.6007 0.7194
vn 0.0348 0.6993 0.7139
vn 0.5999 0.3463 0.7212
vn 0.6000 0.3463 0.7212
vn 0.6928 -0.0000 0.7211
vn 0.5999 -0.3463 0.7212
vn 0.6000 -0.3463 0.7212
vn 0.3464 -0.5996 0.7214
vn 0.0378 -0.6992 0.7139
vn 0.0380 -0.6992 0.7139
vn -0.3564 -0.6345 0.6858
vn -0.3081 -0.6517 0.6930
vn -0.6779 -0.3740 0.6329
vn -0.6633 -0.3961 0.6349
vn -0.7864 -0.0000 0.6178
vn -0.6779 0.3740 0.6329
vn -0.6633 0.3961 0.6349
vn -0.3057 0.6500 0.6957
vn -0.3576 0.6321 0.6875
vn -0.1939 0.9807 -0.0254
vt 0.418714 0.344703
vt 0.430528 0.352340
vt 0.355463 0.427809
vt 0.259255 0.455099
vt 0.263416 0.439405
vt 0.350525 0.414030
vt 0.833333 0.918831
vt 0.833333 0.992324
vt 0.750000 0.992322
vt 0.750000 0.918831
vt 0.750000 0.992322
vt 0.666667 0.992324
vt 0.666667 0.918831
vt 0.583333 0.992329
vt 0.583333 0.918831
vt 0.583333 0.992329
vt 0.500000 0.992338
vt 0.500000 0.918831
vt 0.500000 0.992338
vt 0.416667 0.992357
vt 0.416667 0.918831
vt 0.416667 0.992357
vt 0.333333 0.992370
vt 0.333333 0.918831
vt 0.250000 0.992376
vt 0.250000 0.918831
vt 0.250000 0.992376
vt 0.166667 0.992370
vt 0.166667 0.918831
vt 0.083333 0.992357
vt 0.083333 0.918831
vt 0.916667 0.918831
vt 0.916667 0.992329
vt 0.259255 0.455099
vt 0.133180 0.425323
vt 0.067482 0.352339
vt 0.041003 0.250000
vt 0.067561 0.147661
vt 0.133801 0.074224
vt 0.260221 0.044795
vt 0.356280 0.072743
vt 0.430126 0.147661
vt 0.457379 0.250000
vt 0.443830 0.250000
vt 0.418714 0.155298
vt 0.350525 0.085971
vt 0.263416 0.060595
vt 0.201294 0.085971
vt 0.152829 0.155298
vt 0.131009 0.250000
vt 0.152829 0.344703
vt 0.201294 0.414030
vt 1.000000 0.918831
vt 1.000000 0.992338
vt 0.916667 0.992329
vt 0.000000 0.500000
vt 0.083333 0.500000
vt 0.166667 0.500000
vt 0.666667 0.500000
vt 0.750000 0.500000
vt 0.583333 0.500000
vt 0.500000 0.500000
vt 0.833333 0.500000
vt 0.250000 0.500000
vt 1.000000 0.500000
vt 0.916667 0.500000
vt 0.416667 0.500000
vt 0.333333 0.500000
vt 0.416667 0.500000
vt 0.916667 0.500000
vt 0.750000 0.490000
vt 0.870000 0.457846
vt 0.854833 0.431576
vt 0.750000 0.459666
vt 0.957846 0.370000
vt 0.931576 0.354833
vt 0.990000 0.250000
vt 0.959666 0.250000
vt 0.957846 0.130000
vt 0.931576 0.145167
vt 0.870000 0.042154
vt 0.854833 0.068424
vt 0.750000 0.010000
vt 0.750000 0.040334
vt 0.630000 0.042154
vt 0.645167 0.068424
vt 0.542154 0.130000
vt 0.568424 0.145167
vt 0.510000 0.250000
vt 0.540334 0.250000
vt 0.542154 0.370000
vt 0.568424 0.354833
vt 0.630000 0.457846
vt 0.645167 0.431576
vt 0.844702 0.414029
vt 0.750000 0.439405
vt 0.914029 0.344702
vt 0.914029 0.344702
vt 0.939405 0.250000
vt 0.914029 0.155298
vt 0.844702 0.085971
vt 0.844702 0.085971
vt 0.750000 0.060595
vt 0.655298 0.085971
vt 0.585971 0.155298
vt 0.585971 0.155298
vt 0.655298 0.085971
vt 0.560595 0.250000
vt 0.560595 0.250000
vt 0.585970 0.344702
vt 0.655298 0.414029
vt 0.655297 0.414029
vt 0.083333 0.869877
vt 0.000000 0.918831
vt 0.000000 0.869877
vt 0.166667 0.869877
vt 0.250000 0.869877
vt 0.333333 0.869877
vt 0.416667 0.869877
vt 0.500000 0.869877
vt 0.583333 0.869877
vt 0.666667 0.869877
vt 0.750000 0.869877
vt 0.833333 0.869877
vt 0.916667 0.869877
vt 1.000000 0.869877
vt 1.000000 0.538797
vt 0.916667 0.538797
vt 0.916667 0.947146
vt 0.916667 0.947146
vt 1.000000 0.947146
vt 0.833333 0.538797
vt 0.750000 0.538797
vt 0.750000 0.947146
vt 0.750000 0.947146
vt 0.833333 0.947146
vt 0.666667 0.538797
vt 0.666667 0.947146
vt 0.666667 0.538797
vt 0.583333 0.947146
vt 0.583333 0.538797
vt 0.500000 0.538797
vt 0.500000 0.947146
vt 0.416667 0.538797
vt 0.416667 0.947146
vt 0.416667 0.947146
vt 0.333333 0.947146
vt 0.333333 0.538797
vt 0.250000 0.538797
vt 0.250000 0.947146
vt 0.166667 0.538797
vt 0.166667 0.947146
vt 0.083333 0.538797
vt 0.000000 0.538797
vt 0.000000 0.947146
vt 0.083333 0.947146
vt 0.666667 0.807430
vt 0.750000 0.807430
vt 0.000000 0.807430
vt 0.083333 0.807430
vt 0.583333 0.807430
vt 0.500000 0.807430
vt 0.416667 0.807430
vt 0.166667 0.807430
vt 0.250000 0.807430
vt 0.333333 0.807430
vt 0.833333 0.807430
vt 0.916667 0.807430
vt 1.000000 0.807430
vt 0.370000 0.457846
vt 0.250000 0.490000
vt 0.457846 0.370000
vt 0.490000 0.250000
vt 0.457846 0.130000
vt 0.370000 0.042154
vt 0.250000 0.010000
vt 0.134856 0.040853
vt 0.046575 0.125579
vt 0.130000 0.042154
vt 0.010592 0.247791
vt 0.042154 0.130000
vt 0.042154 0.370000
vt 0.010592 0.252209
vt 0.134856 0.459147
vt 0.130000 0.457846
vt 0.046575 0.374421
vt 0.000000 0.992338
s 1
f 96/1/1 171/2/1 169/3/1 168/4/1 86/5/1 87/6/1
f 75/7/2 172/8/2 174/9/3 76/10/3
f 76/10/4 174/11/4 176/12/5 77/13/5
f 77/13/5 176/12/5 178/14/6 78/15/6
f 78/15/6 178/16/6 180/17/7 79/18/8
f 79/18/8 180/19/7 182/20/9 80/21/10
f 80/21/10 182/22/11 184/23/12 81/24/13
f 81/24/13 184/23/12 186/25/14 82/26/15
f 82/26/15 186/27/14 188/28/16 83/29/17
f 83/29/17 188/28/16 189/30/18 84/31/19
f 74/32/20 170/33/20 172/8/2 75/7/2
f 86/5/1 168/34/1 190/35/1 187/36/1 185/37/1 183/38/1 181/39/1 179/40/1 177/41/1 175/42/1 173/43/1 171/2/1 96/1/1 91/44/1 92/45/1 90/46/1 95/47/1 89/48/1 88/49/1 93/50/1 94/51/1 85/52/1
f 73/53/21 167/54/22 170/55/20 74/32/20
f 13/56/1 24/57/1 48/57/1 37/56/1
f 23/58/23 24/57/23 60/57/23 59/58/23
f 17/59/1 16/60/1 40/60/1 41/59/1
f 24/57/1 23/58/1 47/58/1 48/57/1
f 11/58/24 12/57/24 36/57/24 35/58/24
f 6/61/24 7/62/24 31/62/24 30/61/24
f 16/60/1 15/63/1 39/63/1 40/60/1
f 23/58/1 22/64/1 46/64/1 47/58/1
f 1/65/24 2/66/24 26/66/24 25/65/24
f 15/63/1 14/66/1 38/66/1 39/63/1
f 8/67/24 9/68/24 33/68/24 32/67/24
f 3/63/24 4/60/24 28/60/24 27/63/24
f 22/64/1 21/68/1 45/68/1 46/64/1
f 24/57/25 13/56/25 49/56/25 60/57/25
f 20/67/26 21/68/26 57/68/26 56/69/26
f 17/59/27 18/61/27 54/61/27 53/59/27
f 21/68/28 22/64/28 58/64/28 57/68/28
f 18/61/29 19/62/29 55/62/29 54/61/29
f 14/66/30 15/63/30 51/63/30 50/70/30
f 15/63/3 16/60/3 52/60/3 51/63/3
f 22/64/31 23/58/31 59/58/31 58/64/31
f 19/62/32 20/67/32 56/69/32 55/62/32
f 16/60/4 17/59/4 53/59/4 52/60/4
f 34/64/33 35/58/34 47/58/34 46/64/33
f 33/68/35 34/64/33 46/64/33 45/68/35
f 32/67/36 33/68/35 45/68/35 44/67/36
f 31/62/37 32/67/36 44/67/36 43/62/37
f 30/61/6 31/62/37 43/62/37 42/61/6
f 29/59/5 30/61/6 42/61/6 41/59/5
f 28/60/38 29/59/5 41/59/5 40/60/38
f 36/57/39 25/56/40 37/56/40 48/57/39
f 25/65/40 26/66/20 38/66/20 37/65/40
f 27/63/2 28/60/38 40/60/38 39/63/2
f 35/58/34 36/57/39 48/57/39 47/58/34
f 26/66/20 27/63/2 39/63/2 38/66/20
f 4/60/24 5/59/24 29/59/24 28/60/24
f 9/68/24 10/64/24 34/64/24 33/68/24
f 18/61/1 17/59/1 41/59/1 42/61/1
f 19/62/1 18/61/1 42/61/1 43/62/1
f 2/66/24 3/63/24 27/63/24 26/66/24
f 7/62/24 8/67/24 32/67/24 31/62/24
f 12/57/24 1/56/24 25/56/24 36/57/24
f 20/67/1 19/62/1 43/62/1 44/67/1
f 5/59/24 6/61/24 30/61/24 29/59/24
f 10/64/24 11/58/24 35/58/24 34/64/24
f 21/68/1 20/67/1 44/67/1 45/68/1
f 14/66/1 13/65/1 37/65/1 38/66/1
f 49/71/41 50/72/42 61/73/42 62/74/41
f 50/72/42 51/75/43 63/76/43 61/73/42
f 51/75/43 52/77/44 64/78/44 63/76/43
f 52/77/44 53/79/45 65/80/45 64/78/44
f 53/79/45 54/81/46 66/82/46 65/80/45
f 54/81/46 55/83/47 67/84/47 66/82/46
f 55/83/47 56/85/48 68/86/48 67/84/47
f 56/85/48 57/87/49 69/88/49 68/86/48
f 57/87/49 58/89/50 70/90/50 69/88/49
f 58/89/50 59/91/51 71/92/51 70/90/50
f 59/91/51 60/93/52 72/94/52 71/92/51
f 60/93/52 49/71/41 62/74/41 72/94/52
f 13/65/53 14/66/53 50/70/53 49/65/53
f 62/74/24 61/73/24 98/95/24 97/96/24
f 98/95/24 61/73/24 63/76/24 101/97/24 100/98/24 99/95/24
f 101/97/24 63/76/24 64/78/24 103/99/24 102/99/24
f 103/99/24 64/78/24 65/80/24 104/100/24
f 65/80/24 66/82/24 106/101/24 107/102/24 105/100/24 104/100/24
f 66/82/24 67/84/24 108/103/24 106/101/24
f 67/84/24 68/86/24 109/104/24 108/103/24
f 109/104/24 68/86/24 69/88/24 111/105/24 112/106/24 110/107/24
f 111/105/24 69/88/24 70/90/24 113/108/24
f 114/109/24 113/108/24 70/90/24 71/92/24 115/110/24
f 71/92/24 72/94/24 117/111/24 118/112/24 116/110/24 115/110/24
f 72/94/24 62/74/24 97/96/24 117/111/24
f 119/113/39 84/31/19 73/114/21 120/115/25
f 121/116/34 83/29/17 84/31/19 119/113/39
f 122/117/31 82/26/15 83/29/17 121/116/34
f 123/118/35 81/24/13 82/26/15 122/117/28
f 124/119/36 80/21/10 81/24/13 123/118/35
f 125/120/32 79/18/8 80/21/10 124/119/36
f 126/121/6 78/15/6 79/18/8 125/120/29
f 127/122/5 77/13/5 78/15/6 126/121/6
f 128/123/4 76/10/4 77/13/5 127/122/5
f 129/124/2 75/7/2 76/10/3 128/123/3
f 130/125/20 74/32/20 75/7/2 129/124/2
f 120/126/53 73/53/21 74/32/20 130/125/20
f 95/127/40 90/128/25 107/129/25 106/130/25 108/131/40
f 90/128/23 92/128/34 105/129/34 107/129/23
f 92/132/34 91/133/31 102/134/31 103/135/31 104/136/31 105/136/34
f 91/133/28 96/137/35 100/138/35 101/138/28 102/134/28
f 100/138/35 96/137/35 87/139/26 99/138/26
f 99/140/32 87/141/32 86/142/37 97/143/37 98/140/32
f 97/143/37 86/142/37 85/144/29 118/145/29 117/146/29
f 118/145/27 85/144/27 94/144/5 116/145/5
f 116/147/5 94/148/5 93/149/4 114/150/4 115/147/4
f 114/150/3 93/149/3 88/151/2 112/152/2 111/152/3 113/150/3
f 88/151/2 89/151/30 110/152/30 112/152/2
f 89/153/53 95/154/40 108/155/40 109/156/53 110/156/53
f 121/116/54 119/113/55 144/113/55 148/116/54
f 139/157/56 140/158/57 161/158/57 159/157/56
f 129/124/58 128/123/59 162/123/59 164/124/58
f 132/159/60 131/160/61 143/160/61 145/159/60
f 122/117/62 121/116/54 148/116/54 150/117/62
f 138/161/63 139/157/56 159/157/56 157/161/63
f 130/125/64 129/124/58 164/124/58 166/125/64
f 123/118/65 122/117/62 150/117/62 152/118/65
f 137/162/66 138/161/63 157/161/63 155/162/66
f 120/126/67 130/125/64 166/125/64 146/126/67
f 124/119/68 123/118/65 152/118/65 154/119/68
f 136/163/69 137/162/66 155/162/66 153/163/69
f 12/57/39 131/160/39 132/159/25 1/56/25
f 11/58/23 133/164/23 131/160/39 12/57/39
f 10/64/31 134/165/31 133/164/31 11/58/31
f 9/68/35 135/166/35 134/165/28 10/64/28
f 8/67/36 136/163/36 135/166/35 9/68/35
f 7/62/32 137/162/32 136/163/36 8/67/36
f 6/61/6 138/161/6 137/162/29 7/62/29
f 5/59/5 139/157/5 138/161/6 6/61/6
f 4/60/4 140/158/4 139/157/5 5/59/5
f 3/63/3 141/167/3 140/158/3 4/60/3
f 2/66/20 142/168/20 141/167/30 3/63/30
f 1/65/53 132/169/53 142/168/20 2/66/20
f 145/169/53 146/126/53 166/125/20 165/168/20
f 165/168/20 166/125/20 164/124/2 163/167/2
f 163/167/2 164/124/2 162/123/38 161/158/38
f 161/158/38 162/123/38 160/122/5 159/157/5
f 159/157/5 160/122/5 158/121/27 157/161/27
f 157/161/29 158/121/29 156/120/37 155/162/37
f 155/162/37 156/120/37 154/119/32 153/163/32
f 153/163/26 154/119/26 152/118/35 151/166/35
f 151/166/35 152/118/35 150/117/33 149/165/33
f 149/165/33 150/117/33 148/116/34 147/164/34
f 147/164/34 148/116/34 144/113/39 143/160/39
f 143/160/39 144/113/39 146/115/25 145/159/25
f 131/160/61 133/164/70 147/164/70 143/160/61
f 128/123/59 127/122/71 160/122/71 162/123/59
f 140/158/57 141/167/72 163/167/72 161/158/57
f 119/113/55 120/115/67 146/115/67 144/113/55
f 133/164/70 134/165/73 149/165/73 147/164/70
f 127/122/71 126/121/74 158/121/74 160/122/71
f 141/167/72 142/168/75 165/168/75 163/167/72
f 134/165/73 135/166/76 151/166/76 149/165/73
f 126/121/74 125/120/77 156/120/77 158/121/74
f 142/168/75 132/169/60 145/169/60 165/168/75
f 135/166/76 136/163/69 153/163/69 151/166/76
f 125/120/77 124/119/68 154/119/68 156/120/77
f 168/4/78 169/3/79 170/170/80 167/171/81
f 169/3/79 171/2/82 172/172/83 170/170/80
f 171/2/82 173/43/84 174/173/84 172/172/83
f 173/43/84 175/42/85 176/174/86 174/173/84
f 175/42/85 177/41/87 178/175/87 176/174/86
f 177/41/87 179/40/88 180/176/89 178/175/87
f 179/40/88 181/39/90 182/177/91 180/176/89
f 181/39/90 183/38/92 184/178/93 182/179/91
f 183/38/92 185/37/94 186/180/94 184/181/93
f 185/37/94 187/36/95 188/182/96 186/183/94
f 167/171/81 189/184/97 190/35/98 168/34/78
f 187/36/95 190/35/98 189/185/97 188/186/96
f 84/31/19 189/30/99 167/187/22 73/114/21
