# Blender 4.0.2
# www.blender.org
mtllib IS2.mtl
o Cube.084
v -0.076068 0.518202 1.221575
v -0.058433 0.464128 1.128248
v 0.076068 0.518202 1.221575
v -0.058433 0.515122 1.128248
v -0.076068 0.450741 1.221575
v -0.058433 0.464128 1.046328
v -0.061122 0.435795 1.221575
v -0.061122 0.435795 1.041465
v 0.058433 0.464128 1.128248
v -0.076068 0.450741 1.041465
v 0.058433 0.515122 1.128248
v 0.061122 0.435795 1.221575
v 0.058433 0.464128 1.046328
v 0.076068 0.450741 1.221575
v 0.076068 0.450741 1.041465
v 0.061122 0.435795 1.041465
v -0.076068 0.518202 1.104590
v -0.076068 0.488142 1.041465
v 0.076068 0.488142 1.041465
v 0.076068 0.518202 1.104590
v -0.058433 0.515122 1.098123
v 0.058433 0.515122 1.098123
v 0.058433 0.490458 1.046328
v -0.058433 0.490458 1.046328
v -0.056302 0.464494 1.126755
v -0.056302 0.513628 1.126755
v -0.056302 0.464494 1.047822
v -0.056302 0.513628 1.047822
v 0.056302 0.464494 1.126755
v 0.056302 0.513628 1.126755
v 0.056302 0.464494 1.047822
v 0.056302 0.513628 1.047822
v 0.080216 0.495165 1.080342
v -0.080216 0.495166 1.080342
v 0.080216 0.500598 1.081797
v -0.080216 0.500598 1.081797
v 0.080216 0.504575 1.085774
v -0.080216 0.504575 1.085774
v 0.080216 0.506031 1.091207
v -0.080216 0.506031 1.091207
v 0.080216 0.504575 1.096640
v -0.080216 0.504575 1.096640
v 0.080216 0.500598 1.100617
v -0.080216 0.500598 1.100617
v 0.080216 0.495165 1.102072
v -0.080216 0.495166 1.102072
v 0.080216 0.489733 1.100617
v -0.080216 0.489733 1.100617
v 0.080216 0.485756 1.096640
v -0.080216 0.485756 1.096640
v 0.080216 0.484300 1.091207
v -0.080216 0.484300 1.091207
v 0.080216 0.485756 1.085774
v -0.080216 0.485756 1.085774
v 0.080216 0.489733 1.081797
v -0.080216 0.489733 1.081797
v 0.000000 0.557064 1.154179
v -0.000000 0.516072 1.150420
v -0.014946 0.557064 1.158183
v -0.016825 0.516072 1.154928
v -0.025887 0.557064 1.169124
v -0.029142 0.516072 1.167245
v -0.029891 0.557064 1.184070
v -0.033650 0.516072 1.184070
v -0.025887 0.557064 1.199016
v -0.029142 0.516072 1.200895
v -0.014946 0.557064 1.209957
v -0.016825 0.516072 1.213212
v 0.000000 0.557064 1.213961
v -0.000000 0.516072 1.217720
v 0.014946 0.557064 1.209957
v 0.016825 0.516072 1.213212
v 0.025887 0.557064 1.199016
v 0.029142 0.516072 1.200895
v 0.029891 0.557064 1.184070
v 0.033650 0.516072 1.184070
v 0.025887 0.557064 1.169124
v 0.029142 0.516072 1.167245
v 0.014946 0.557064 1.158183
v 0.016825 0.516072 1.154928
v 0.000000 0.557064 1.150420
v -0.016825 0.557064 1.154928
v -0.029142 0.557064 1.167245
v -0.033650 0.557064 1.184070
v -0.029142 0.557064 1.200895
v -0.016825 0.557064 1.213212
v 0.000000 0.557064 1.217720
v 0.016825 0.557064 1.213212
v 0.029142 0.557064 1.200895
v 0.033650 0.557064 1.184070
v 0.029142 0.557064 1.167245
v 0.016825 0.557064 1.154928
v 0.000000 0.586114 1.157560
v -0.013255 0.586114 1.161111
v -0.022959 0.586114 1.170815
v -0.026510 0.586114 1.184070
v -0.022959 0.586114 1.197325
v -0.013255 0.586114 1.207029
v 0.000000 0.586114 1.210580
v 0.013255 0.586114 1.207029
v 0.022959 0.586114 1.197325
v 0.026510 0.586114 1.184070
v 0.022959 0.586114 1.170815
v 0.013255 0.586114 1.161111
v 0.000000 0.586114 1.154179
v -0.014946 0.586114 1.158183
v -0.025887 0.586114 1.169124
v -0.029891 0.586114 1.184070
v -0.025887 0.586114 1.199016
v -0.014946 0.586114 1.209957
v 0.000000 0.586114 1.213961
v 0.014946 0.586114 1.209957
v 0.025887 0.586114 1.199016
v 0.029891 0.586114 1.184070
v 0.025887 0.586114 1.169124
v 0.014946 0.586114 1.158183
v 0.000000 0.607396 1.170844
v -0.006613 0.607396 1.172616
v -0.011454 0.607396 1.177457
v -0.013226 0.607396 1.184070
v -0.011454 0.607396 1.190683
v -0.006613 0.607396 1.195524
v 0.000000 0.607396 1.197296
v 0.006613 0.607396 1.195524
v 0.011454 0.607396 1.190683
v 0.013226 0.607396 1.184070
v 0.011454 0.607396 1.177457
v 0.006613 0.607396 1.172616
v 0.000000 0.607396 1.157560
v -0.013255 0.607396 1.161111
v -0.022959 0.607396 1.170815
v -0.026510 0.607396 1.184070
v -0.022959 0.607396 1.197325
v -0.013255 0.607396 1.207029
v 0.000000 0.607396 1.210580
v 0.013255 0.607396 1.207029
v 0.022959 0.607396 1.197325
v 0.026510 0.607396 1.184070
v 0.022959 0.607396 1.170815
v 0.013255 0.607396 1.161111
v 0.000000 0.609621 1.170844
v -0.006613 0.609621 1.172616
v -0.011454 0.609621 1.177457
v -0.013226 0.609621 1.184070
v -0.011454 0.609621 1.190683
v -0.006613 0.609621 1.195524
v 0.000000 0.609621 1.197296
v 0.006613 0.609621 1.195524
v 0.011454 0.609621 1.190683
v 0.013226 0.609621 1.184070
v 0.011454 0.609621 1.177457
v 0.006613 0.609621 1.172616
v 0.000000 0.611832 1.157945
v -0.013062 0.611832 1.161445
v -0.022625 0.611832 1.171008
v -0.026125 0.611832 1.184070
v -0.022625 0.611832 1.197132
v -0.013062 0.611832 1.206695
v 0.000000 0.611832 1.210195
v 0.013062 0.611832 1.206695
v 0.022625 0.611832 1.197132
v 0.026125 0.611832 1.184070
v 0.022625 0.611832 1.171008
v 0.013062 0.611832 1.161445
v 0.000000 0.621739 1.157945
v -0.013062 0.621739 1.161445
v -0.022625 0.621739 1.171008
v -0.026125 0.621739 1.184070
v -0.022625 0.621739 1.197132
v -0.013062 0.621739 1.206695
v 0.000000 0.621739 1.210195
v 0.013062 0.621739 1.206695
v 0.022625 0.621739 1.197132
v 0.026125 0.621739 1.184070
v 0.022625 0.621739 1.171008
v 0.013062 0.621739 1.161445
v 0.000000 0.631298 1.164775
v -0.009648 0.631298 1.167360
v -0.016710 0.631298 1.174422
v -0.019295 0.631298 1.184070
v -0.016710 0.631298 1.193717
v -0.009648 0.631298 1.200780
v 0.000000 0.631298 1.203365
v 0.009648 0.631298 1.200780
v 0.016710 0.631298 1.193717
v 0.019295 0.631298 1.184070
v 0.016710 0.631298 1.174422
v 0.009648 0.631298 1.167360
v 0.012857 0.631399 1.170569
v 0.009648 0.631399 1.167360
v -0.009648 0.631399 1.167360
v 0.000000 0.631399 1.164775
v -0.012857 0.631399 1.170569
v 0.000000 0.631399 1.203365
v -0.009648 0.631399 1.200780
v 0.009648 0.631399 1.200780
v 0.012857 0.631399 1.197571
v -0.012857 0.631399 1.197571
v -0.011840 0.676216 1.175288
v -0.016710 0.668711 1.174422
v -0.019295 0.668711 1.184070
v -0.013671 0.676216 1.184070
v -0.011840 0.676216 1.192852
v -0.016710 0.668711 1.193717
v 0.011840 0.676216 1.192852
v 0.016710 0.668711 1.193717
v 0.013671 0.676216 1.184070
v 0.019295 0.668711 1.184070
v 0.016710 0.668711 1.174422
v 0.011840 0.676216 1.175288
v -0.010915 0.676216 1.174100
v -0.012857 0.668711 1.170569
v 0.012857 0.668711 1.170569
v 0.010915 0.676216 1.174100
v -0.010915 0.676216 1.194040
v -0.012857 0.668711 1.197571
v 0.010915 0.676216 1.194040
v 0.012857 0.668711 1.197571
v -0.015946 0.653582 1.173658
v -0.013810 0.661555 1.171522
v -0.013810 0.645609 1.171522
v -0.012857 0.662508 1.170569
v -0.012857 0.644655 1.170569
v 0.013810 0.661555 1.171522
v 0.012857 0.644655 1.170569
v 0.013810 0.645609 1.171522
v 0.012857 0.662508 1.170569
v 0.015946 0.653582 1.173658
v -0.013810 0.661555 1.196618
v -0.015946 0.653582 1.194481
v -0.013810 0.645609 1.196618
v -0.012857 0.662508 1.197571
v -0.012857 0.644655 1.197571
v 0.007973 0.639772 1.170569
v 0.003047 0.668711 1.170569
v -0.003047 0.668711 1.170569
v -0.007973 0.667391 1.170569
v 0.007973 0.667391 1.170569
v 0.000000 0.637635 1.170569
v -0.007973 0.639772 1.170569
v 0.015946 0.653582 1.194481
v 0.013810 0.661555 1.196618
v 0.013810 0.645609 1.196618
v 0.012857 0.662508 1.197571
v 0.012857 0.644655 1.197571
v 0.007973 0.667391 1.197571
v -0.003047 0.668711 1.197571
v 0.003047 0.668711 1.197571
v -0.007973 0.667391 1.197571
v -0.007973 0.639772 1.197571
v 0.000000 0.637635 1.197571
v 0.007973 0.639772 1.197571
v 0.000000 0.669528 1.197187
v 0.000000 0.669528 1.170953
vn -0.0000 -0.0000 1.0000
vn -1.0000 -0.0000 -0.0000
vn 1.0000 -0.0000 -0.0000
vn -0.0000 -0.0000 -1.0000
vn -0.7071 -0.7071 -0.0000
vn 0.7071 -0.7071 -0.0000
vn -0.0000 -1.0000 -0.0000
vn -0.0000 0.9029 -0.4299
vn -0.0000 1.0000 -0.0000
vn -0.0000 0.2588 -0.9659
vn -0.0000 0.7071 -0.7071
vn -0.0000 0.9659 -0.2588
vn -0.0000 0.9659 0.2588
vn -0.0000 0.7071 0.7071
vn -0.0000 0.2588 0.9659
vn -0.0000 -0.2588 0.9659
vn -0.0000 -0.7071 0.7071
vn -0.0000 -0.9659 0.2588
vn -0.0000 -0.9659 -0.2588
vn -0.0000 -0.7071 -0.7071
vn -0.0000 -0.2588 -0.9659
vn -0.2588 -0.0000 -0.9659
vn -0.7071 -0.0000 -0.7071
vn -0.9659 -0.0000 -0.2588
vn -0.9659 -0.0000 0.2588
vn -0.7071 -0.0000 0.7071
vn -0.2588 -0.0000 0.9659
vn 0.2588 -0.0000 0.9659
vn 0.7071 -0.0000 0.7071
vn 0.9659 -0.0000 0.2588
vn 0.9659 -0.0000 -0.2588
vn 0.7071 -0.0000 -0.7071
vn 0.2588 -0.0000 -0.9659
vn -0.1688 -0.9846 -0.0452
vn 0.1688 -0.9846 -0.0452
vn 0.0452 -0.9846 0.1688
vn -0.1688 -0.9846 0.0452
vn 0.1236 -0.9846 -0.1236
vn -0.0452 -0.9846 -0.1688
vn 0.1236 -0.9846 0.1236
vn -0.1236 -0.9846 0.1236
vn 0.0452 -0.9846 -0.1688
vn -0.1236 -0.9846 -0.1236
vn 0.1688 -0.9846 0.0452
vn -0.0452 -0.9846 0.1688
vn -0.2130 0.5680 0.7950
vn -0.7950 0.5680 -0.2130
vn 0.7950 0.5680 -0.2130
vn 0.2130 0.5680 0.7950
vn -0.7950 0.5680 0.2130
vn 0.5820 0.5680 -0.5820
vn -0.2130 0.5680 -0.7950
vn 0.5820 0.5680 0.5820
vn -0.5820 0.5680 0.5820
vn 0.2130 0.5680 -0.7950
vn -0.5820 0.5680 -0.5820
vn 0.7950 0.5680 0.2130
vn -0.7992 0.5698 -0.1915
vn 0.7992 0.5698 -0.1915
vn -0.6411 0.4689 -0.6076
vn -0.7992 0.5698 0.1915
vn 0.6411 0.4689 -0.6076
vn -0.0000 0.4257 0.9048
vn -0.0000 0.4257 -0.9048
vn -0.6411 0.4689 0.6076
vn 0.7992 0.5698 0.1915
vn 0.6411 0.4689 0.6076
vn -0.2588 -0.9659 -0.0000
vn -0.9659 -0.2588 -0.0000
vn -0.9659 0.2588 -0.0000
vn -0.7071 0.7071 -0.0000
vn -0.2588 0.9659 -0.0000
vn 0.2588 0.9659 -0.0000
vn 0.7071 0.7071 -0.0000
vn 0.9659 0.2588 -0.0000
vn 0.9659 -0.2588 -0.0000
vn 0.2588 -0.9659 -0.0000
vt 0.420343 0.750000
vt 0.625000 0.750000
vt 0.625000 1.000000
vt 0.420343 1.000000
vt 0.375000 0.975439
vt 0.375000 0.774561
vt 0.420343 0.250000
vt 0.420343 0.000000
vt 0.625000 0.000000
vt 0.625000 0.187968
vt 0.505926 0.250000
vt 0.505926 0.500000
vt 0.625000 0.562032
vt 0.420343 0.500000
vt 0.375000 0.475439
vt 0.375000 0.274561
vt 0.505926 0.250000
vt 0.149561 0.500000
vt 0.149561 0.750000
vt 0.125000 0.750000
vt 0.125000 0.500000
vt 0.350439 0.750000
vt 0.350439 0.500000
vt 0.515100 0.471021
vt 0.515100 0.278979
vt 0.625000 0.250000
vt 0.625000 0.500000
vt 0.612801 0.471021
vt 0.612801 0.278979
vt 0.875000 0.562032
vt 0.875000 0.750000
vt 0.375000 0.000000
vt 0.375000 0.250000
vt 0.504081 0.250000
vt 0.625000 0.091937
vt 0.375000 0.500000
vt 0.504081 0.500000
vt 0.375000 0.750000
vt 0.625000 0.658063
vt 0.504081 0.500000
vt 0.375000 1.000000
vt 0.875000 0.658063
vt 0.875000 0.500000
vt 1.000000 0.500000
vt 1.000000 1.000000
vt 0.916667 1.000000
vt 0.916667 0.500000
vt 0.833333 1.000000
vt 0.833333 0.500000
vt 0.750000 1.000000
vt 0.750000 0.500000
vt 0.666667 1.000000
vt 0.666667 0.500000
vt 0.583333 1.000000
vt 0.583333 0.500000
vt 0.500000 1.000000
vt 0.500000 0.500000
vt 0.416667 1.000000
vt 0.416667 0.500000
vt 0.333333 1.000000
vt 0.333333 0.500000
vt 0.250000 1.000000
vt 0.250000 0.500000
vt 0.166667 1.000000
vt 0.166667 0.500000
vt 0.370000 0.457846
vt 0.250000 0.490000
vt 0.130000 0.457846
vt 0.042154 0.370000
vt 0.010000 0.250000
vt 0.042154 0.130000
vt 0.130000 0.042154
vt 0.250000 0.010000
vt 0.370000 0.042154
vt 0.457846 0.130000
vt 0.490000 0.250000
vt 0.457846 0.370000
vt 0.083333 1.000000
vt 0.083333 0.500000
vt 0.000000 1.000000
vt 0.000000 0.500000
vt 0.750000 0.490000
vt 0.870000 0.457846
vt 0.957846 0.370000
vt 0.990000 0.250000
vt 0.957846 0.130000
vt 0.870000 0.042154
vt 0.750000 0.010000
vt 0.630000 0.042154
vt 0.542154 0.130000
vt 0.510000 0.250000
vt 0.542154 0.370000
vt 0.630000 0.457846
vt 0.934627 0.356595
vt 0.963189 0.250000
vt 0.856595 0.434627
vt 0.750000 0.463189
vt 0.934627 0.143405
vt 0.856595 0.065373
vt 0.750000 0.036811
vt 0.643405 0.065373
vt 0.565372 0.143405
vt 0.536811 0.250000
vt 0.565372 0.356595
vt 0.643405 0.434627
vt 0.750000 0.439077
vt 0.844538 0.413745
vt 0.913745 0.344539
vt 0.939077 0.250000
vt 0.913745 0.155461
vt 0.844538 0.086255
vt 0.750000 0.060923
vt 0.655462 0.086255
vt 0.586255 0.155462
vt 0.560923 0.250000
vt 0.586255 0.344538
vt 0.655461 0.413745
vt 0.831690 0.297164
vt 0.844328 0.250000
vt 0.797164 0.331690
vt 0.750000 0.344328
vt 0.831690 0.202836
vt 0.797164 0.168310
vt 0.750000 0.155672
vt 0.702836 0.168310
vt 0.668310 0.202836
vt 0.655672 0.250000
vt 0.668310 0.297164
vt 0.702836 0.331690
vt 0.812852 0.316002
vt 0.812852 0.316002
vt 0.817512 0.311342
vt 0.827956 0.300898
vt 0.817512 0.311342
vt 0.812852 0.316002
vt 0.800337 0.285787
vt 0.804600 0.281524
vt 0.813047 0.250000
vt 0.804600 0.218476
vt 0.800337 0.214213
vt 0.699663 0.214213
vt 0.695399 0.218476
vt 0.686953 0.250000
vt 0.695399 0.281524
vt 0.699663 0.285787
vt 0.687148 0.316002
vt 0.702836 0.331690
vt 0.687148 0.316002
vt 0.682488 0.311342
vt 0.672044 0.300898
vt 0.682488 0.311342
vt 0.702836 0.168310
vt 0.812852 0.183998
vt 0.797164 0.168310
vt 0.812852 0.183998
vt 0.812852 0.183998
vt 0.817512 0.188658
vt 0.827956 0.199102
vt 0.375000 0.803803
vt 0.375000 0.946197
vt 0.428089 0.946197
vt 0.408532 0.919153
vt 0.399976 0.875000
vt 0.408532 0.830847
vt 0.428089 0.803803
vt 0.524428 0.858126
vt 0.524428 0.803803
vt 0.499584 0.803803
vt 0.519142 0.830847
vt 0.524428 0.946197
vt 0.524428 0.891874
vt 0.519142 0.919153
vt 0.499584 0.946197
vt 0.797164 0.331690
vt 0.687148 0.183998
vt 0.682488 0.188658
vt 0.672044 0.199102
vt 0.682488 0.188658
vt 0.687148 0.183998
vt 0.844328 0.250000
vt 0.428090 0.946197
vt 0.375000 0.803803
vt 0.428090 0.803803
vt 0.408532 0.830847
vt 0.399977 0.875000
vt 0.408532 0.919153
vt 0.524428 0.891874
vt 0.524428 0.946197
vt 0.499584 0.946197
vt 0.519142 0.919153
vt 0.524428 0.803803
vt 0.524428 0.858126
vt 0.519142 0.830847
vt 0.499584 0.803803
vt 0.178803 0.750000
vt 0.321197 0.750000
vt 0.303426 0.661560
vt 0.250000 0.590318
vt 0.196574 0.661560
vt 0.303426 0.661560
vt 0.321197 0.750000
vt 0.178803 0.750000
vt 0.196574 0.661560
vt 0.250000 0.590318
vt 0.764896 0.183998
vt 0.750000 0.187285
vt 0.735104 0.183998
vt 0.735104 0.316002
vt 0.750000 0.312715
vt 0.764896 0.316002
vt 0.812852 0.316002
vt 0.968152 0.638465
vt 0.916667 0.638465
vt 0.916667 0.780090
vt 0.968153 0.780090
vt 1.000000 0.778075
vt 1.000000 0.640480
vt 0.846942 0.638465
vt 0.833333 0.643465
vt 0.833333 0.775091
vt 0.846942 0.780090
vt 0.750000 0.654670
vt 0.750000 0.763885
vt 0.833333 0.775091
vt 0.750000 0.763885
vt 0.666667 0.643465
vt 0.666667 0.775091
vt 0.653058 0.780090
vt 0.653058 0.638465
vt 0.583333 0.638465
vt 0.583333 0.780090
vt 0.583333 0.638465
vt 0.500000 0.638465
vt 0.500000 0.780090
vt 0.583333 0.780090
vt 0.416667 0.638465
vt 0.416667 0.780090
vt 0.500000 0.780090
vt 0.346942 0.638465
vt 0.333333 0.643465
vt 0.333333 0.775091
vt 0.346942 0.780090
vt 0.416667 0.780090
vt 0.250000 0.654670
vt 0.250000 0.763885
vt 0.250000 0.654670
vt 0.166667 0.643465
vt 0.166667 0.775091
vt 0.153058 0.780090
vt 0.166667 0.775091
vt 0.153058 0.638465
vt 0.083333 0.638465
vt 0.083333 0.780090
vt 0.000000 0.640480
vt 0.000000 0.778075
vt 0.031848 0.780090
vt 0.083333 0.638465
vt 0.031848 0.638465
s 0
f 14/1/1 3/2/1 1/3/1 5/4/1 7/5/1 12/6/1
f 10/7/2 5/8/2 1/9/2 17/10/2 18/11/2
f 19/12/3 20/13/3 3/2/3 14/1/3 15/14/3
f 19/12/4 15/14/4 16/15/4 8/16/4 10/7/4 18/17/4
f 8/18/5 7/19/5 5/20/5 10/21/5
f 12/22/6 16/23/6 15/14/6 14/1/6
f 8/18/7 16/23/7 12/22/7 7/19/7
f 23/24/8 19/12/8 18/17/8 24/25/8
f 18/17/8 17/26/8 20/27/8 19/12/8 23/24/8 22/28/8 21/29/8 24/25/8
f 20/13/9 17/30/9 1/31/9 3/2/9
f 4/9/3 2/32/3 6/33/3 24/34/3 21/35/3
f 24/34/1 6/33/1 13/36/1 23/37/1
f 13/36/2 9/38/2 11/2/2 22/39/2 23/40/2
f 9/38/4 2/41/4 4/3/4 11/2/4
f 6/21/9 2/20/9 9/38/9 13/36/9
f 11/2/7 4/31/7 21/42/7 22/39/7
f 25/32/2 26/9/2 28/26/2 27/33/2
f 27/33/4 28/26/4 32/27/4 31/36/4
f 31/36/3 32/27/3 30/2/3 29/38/3
f 29/38/1 30/2/1 26/3/1 25/41/1
f 27/21/7 31/36/7 29/38/7 25/20/7
f 32/27/9 28/43/9 26/31/9 30/2/9
f 33/44/10 34/45/10 36/46/10 35/47/10
f 35/47/11 36/46/11 38/48/11 37/49/11
f 37/49/12 38/48/12 40/50/12 39/51/12
f 39/51/13 40/50/13 42/52/13 41/53/13
f 41/53/14 42/52/14 44/54/14 43/55/14
f 43/55/15 44/54/15 46/56/15 45/57/15
f 45/57/16 46/56/16 48/58/16 47/59/16
f 47/59/17 48/58/17 50/60/17 49/61/17
f 49/61/18 50/60/18 52/62/18 51/63/18
f 51/63/19 52/62/19 54/64/19 53/65/19
f 36/66/2 34/67/2 56/68/2 54/69/2 52/70/2 50/71/2 48/72/2 46/73/2 44/74/2 42/75/2 40/76/2 38/77/2
f 53/65/20 54/64/20 56/78/20 55/79/20
f 55/79/21 56/78/21 34/80/21 33/81/21
f 33/82/3 35/83/3 37/84/3 39/85/3 41/86/3 43/87/3 45/88/3 47/89/3 49/90/3 51/91/3 53/92/3 55/93/3
f 81/44/22 58/45/22 60/46/22 82/47/22
f 82/47/23 60/46/23 62/48/23 83/49/23
f 83/49/24 62/48/24 64/50/24 84/51/24
f 84/51/25 64/50/25 66/52/25 85/53/25
f 85/53/26 66/52/26 68/54/26 86/55/26
f 86/55/27 68/54/27 70/56/27 87/57/27
f 87/57/28 70/56/28 72/58/28 88/59/28
f 88/59/29 72/58/29 74/60/29 89/61/29
f 89/61/30 74/60/30 76/62/30 90/63/30
f 90/63/31 76/62/31 78/64/31 91/65/31
f 78/69/7 76/70/7 74/71/7 72/72/7 70/73/7 68/74/7 66/75/7 64/76/7 62/77/7 60/66/7 58/67/7 80/68/7
f 91/65/32 78/64/32 80/78/32 92/79/32
f 92/79/33 80/78/33 58/80/33 81/81/33
f 61/94/24 63/95/24 108/95/24 107/94/24
f 59/96/9 57/97/9 81/82/9 82/83/9
f 61/94/9 59/96/9 82/83/9 83/84/9
f 63/95/9 61/94/9 83/84/9 84/85/9
f 65/98/9 63/95/9 84/85/9 85/86/9
f 67/99/9 65/98/9 85/86/9 86/87/9
f 69/100/9 67/99/9 86/87/9 87/88/9
f 71/101/9 69/100/9 87/88/9 88/89/9
f 73/102/9 71/101/9 88/89/9 89/90/9
f 75/103/9 73/102/9 89/90/9 90/91/9
f 77/104/9 75/103/9 90/91/9 91/92/9
f 79/105/9 77/104/9 91/92/9 92/93/9
f 57/97/9 79/105/9 92/93/9 81/82/9
f 93/106/22 94/107/22 130/107/22 129/106/22
f 75/103/31 77/104/31 115/104/31 114/103/31
f 69/100/28 71/101/28 112/101/28 111/100/28
f 63/95/25 65/98/25 109/98/25 108/95/25
f 77/104/32 79/105/32 116/105/32 115/104/32
f 57/97/22 59/96/22 106/96/22 105/97/22
f 71/101/29 73/102/29 113/102/29 112/101/29
f 65/98/26 67/99/26 110/99/26 109/98/26
f 79/105/33 57/97/33 105/97/33 116/105/33
f 59/96/23 61/94/23 107/94/23 106/96/23
f 73/102/30 75/103/30 114/103/30 113/102/30
f 67/99/27 69/100/27 111/100/27 110/99/27
f 94/107/9 93/106/9 105/97/9 106/96/9
f 95/108/9 94/107/9 106/96/9 107/94/9
f 96/109/9 95/108/9 107/94/9 108/95/9
f 97/110/9 96/109/9 108/95/9 109/98/9
f 98/111/9 97/110/9 109/98/9 110/99/9
f 99/112/9 98/111/9 110/99/9 111/100/9
f 100/113/9 99/112/9 111/100/9 112/101/9
f 101/114/9 100/113/9 112/101/9 113/102/9
f 102/115/9 101/114/9 113/102/9 114/103/9
f 103/116/9 102/115/9 114/103/9 115/104/9
f 104/117/9 103/116/9 115/104/9 116/105/9
f 93/106/9 104/117/9 116/105/9 105/97/9
f 119/118/24 120/119/24 144/119/24 143/118/24
f 100/113/29 101/114/29 137/114/29 136/113/29
f 97/110/26 98/111/26 134/111/26 133/110/26
f 104/117/33 93/106/33 129/106/33 140/117/33
f 94/107/23 95/108/23 131/108/23 130/107/23
f 101/114/30 102/115/30 138/115/30 137/114/30
f 98/111/27 99/112/27 135/112/27 134/111/27
f 95/108/24 96/109/24 132/109/24 131/108/24
f 102/115/31 103/116/31 139/116/31 138/115/31
f 99/112/28 100/113/28 136/113/28 135/112/28
f 96/109/25 97/110/25 133/110/25 132/109/25
f 103/116/32 104/117/32 140/117/32 139/116/32
f 118/120/9 117/121/9 129/106/9 130/107/9
f 119/118/9 118/120/9 130/107/9 131/108/9
f 120/119/9 119/118/9 131/108/9 132/109/9
f 121/122/9 120/119/9 132/109/9 133/110/9
f 122/123/9 121/122/9 133/110/9 134/111/9
f 123/124/9 122/123/9 134/111/9 135/112/9
f 124/125/9 123/124/9 135/112/9 136/113/9
f 125/126/9 124/125/9 136/113/9 137/114/9
f 126/127/9 125/126/9 137/114/9 138/115/9
f 127/128/9 126/127/9 138/115/9 139/116/9
f 128/129/9 127/128/9 139/116/9 140/117/9
f 117/121/9 128/129/9 140/117/9 129/106/9
f 143/118/34 144/119/34 156/119/34 155/118/34
f 126/127/31 127/128/31 151/128/31 150/127/31
f 123/124/28 124/125/28 148/125/28 147/124/28
f 120/119/25 121/122/25 145/122/25 144/119/25
f 127/128/32 128/129/32 152/129/32 151/128/32
f 117/121/22 118/120/22 142/120/22 141/121/22
f 124/125/29 125/126/29 149/126/29 148/125/29
f 121/122/26 122/123/26 146/123/26 145/122/26
f 128/129/33 117/121/33 141/121/33 152/129/33
f 118/120/23 119/118/23 143/118/23 142/120/23
f 125/126/30 126/127/30 150/127/30 149/126/30
f 122/123/27 123/124/27 147/124/27 146/123/27
f 158/123/27 159/124/27 171/124/27 170/123/27
f 150/127/35 151/128/35 163/128/35 162/127/35
f 147/124/36 148/125/36 160/125/36 159/124/36
f 144/119/37 145/122/37 157/122/37 156/119/37
f 151/128/38 152/129/38 164/129/38 163/128/38
f 141/121/39 142/120/39 154/120/39 153/121/39
f 148/125/40 149/126/40 161/126/40 160/125/40
f 145/122/41 146/123/41 158/123/41 157/122/41
f 152/129/42 141/121/42 153/121/42 164/129/42
f 142/120/43 143/118/43 155/118/43 154/120/43
f 149/126/44 150/127/44 162/127/44 161/126/44
f 146/123/45 147/124/45 159/124/45 158/123/45
f 170/123/46 171/124/46 183/124/46 182/123/46
f 155/118/24 156/119/24 168/119/24 167/118/24
f 162/127/31 163/128/31 175/128/31 174/127/31
f 159/124/28 160/125/28 172/125/28 171/124/28
f 156/119/25 157/122/25 169/122/25 168/119/25
f 163/128/32 164/129/32 176/129/32 175/128/32
f 153/121/22 154/120/22 166/120/22 165/121/22
f 160/125/29 161/126/29 173/126/29 172/125/29
f 157/122/26 158/123/26 170/123/26 169/122/26
f 164/129/33 153/121/33 165/121/33 176/129/33
f 154/120/23 155/118/23 167/118/23 166/120/23
f 161/126/30 162/127/30 174/127/30 173/126/30
f 186/127/31 187/128/31 209/128/31 208/127/31
f 167/118/47 168/119/47 180/119/47 179/118/47
f 174/127/48 175/128/48 187/128/48 186/127/48
f 171/124/49 172/125/49 184/125/49 183/124/49
f 168/119/50 169/122/50 181/122/50 180/119/50
f 175/128/51 176/129/51 188/129/51 187/128/51
f 165/121/52 166/120/52 178/120/52 177/121/52
f 172/125/53 173/126/53 185/126/53 184/125/53
f 169/122/54 170/123/54 182/123/54 181/122/54
f 176/129/55 165/121/55 177/121/55 188/129/55
f 166/120/56 167/118/56 179/118/56 178/120/56
f 173/126/57 174/127/57 186/127/57 185/126/57
f 193/130/23 191/120/23 178/120/23 179/118/23 200/118/23 212/131/23 222/131/23 220/132/23 219/133/23 221/134/23 223/135/23
f 195/123/27 182/123/27 183/124/27 194/124/27
f 211/136/9 199/137/9 202/138/9 203/139/9 215/140/9 217/141/9 205/142/9 207/143/9 210/144/9 214/145/9
f 213/146/32 209/128/32 187/128/32 188/129/32 190/147/32 189/148/32 225/148/32 226/149/32 228/150/32 224/151/32 227/146/32
f 194/124/28 183/124/28 184/125/28 196/152/28
f 232/153/26 216/153/26 204/122/26 181/122/26 182/123/26 195/154/26 198/155/26 233/156/26 231/157/26 230/158/26 229/157/26
f 189/159/4 193/160/4 223/161/4 240/162/4 239/163/4 234/164/4 225/165/4
f 235/166/4 213/167/4 227/168/4 238/169/4
f 212/170/4 236/171/4 237/172/4 222/173/4
f 177/121/22 178/120/22 191/174/22 192/121/22
f 185/126/30 186/127/30 208/127/30 206/126/30
f 196/125/29 184/125/29 185/126/29 206/126/29 218/175/29 244/175/29 242/176/29 241/177/29 243/178/29 245/175/29 197/179/29
f 188/129/33 177/121/33 192/121/33 190/129/33
f 180/119/25 181/122/25 204/122/25 201/180/25
f 233/181/1 198/160/1 197/182/1 245/183/1 252/184/1 251/185/1 250/186/1
f 247/187/1 216/188/1 232/189/1 249/190/1
f 218/191/1 248/192/1 246/193/1 244/194/1
f 193/195/9 189/196/9 190/197/9 192/198/9 191/199/9
f 196/200/9 197/201/9 198/202/9 195/203/9 194/204/9
f 200/118/58 201/180/58 202/138/58 199/137/58
f 208/127/59 209/128/59 210/144/59 207/143/59
f 199/137/60 211/136/60 212/131/60 200/118/60
f 201/180/61 204/122/61 203/139/61 202/138/61
f 209/128/62 213/146/62 214/145/62 210/144/62
f 218/175/63 217/141/63 215/140/63 216/153/63 247/205/63 253/206/63 248/207/63
f 211/136/64 214/145/64 213/148/64 235/208/64 254/209/64 236/210/64 212/211/64
f 204/122/65 216/153/65 215/140/65 203/139/65
f 206/126/66 208/127/66 207/143/66 205/142/66
f 205/142/67 217/141/67 218/175/67 206/126/67
f 179/118/24 180/119/24 201/180/24 200/118/24
f 235/212/68 238/213/68 246/214/68 248/215/68 253/216/68 254/217/68
f 227/218/5 224/219/5 242/220/5 244/221/5 246/214/5 238/213/5
f 224/219/69 228/222/69 241/223/69 242/224/69
f 241/225/70 228/222/70 226/226/70 243/227/70
f 245/228/71 243/227/71 226/226/71 225/229/71 234/230/71 252/231/71
f 234/232/72 239/233/72 251/234/72 252/235/72
f 239/233/73 240/236/73 250/237/73 251/238/73
f 223/239/74 221/240/74 231/241/74 233/242/74 250/243/74 240/236/74
f 219/244/75 230/245/75 231/241/75 221/240/75
f 219/246/76 220/247/76 229/248/76 230/245/76
f 232/249/6 229/250/6 220/247/6 222/251/6 237/252/6 249/253/6
f 254/254/77 253/255/77 247/256/77 249/253/77 237/257/77 236/258/77
