# Blender 4.4.3
# www.blender.org
mtllib Terrain.mtl
o Cube
v -29.225172 0.558574 -13.520442
v -29.225172 3.016265 -13.520442
v -29.225172 0.558574 -47.211201
v -29.225172 5.088036 -47.211201
v 10.344986 0.558574 -13.520442
v 10.344986 3.489611 -13.520442
v 10.344986 0.558574 -47.211201
v 10.344986 3.780110 -47.211201
v -9.440094 0.558574 -47.211201
v -9.440094 4.057965 -47.211201
v -9.440094 0.558574 -13.520442
v -9.440094 3.252938 -13.520442
v 0.452446 3.833832 -47.211201
v 0.452446 0.558574 -13.520442
v 0.452446 0.558574 -47.211201
v 0.452446 3.371274 -13.520442
v -19.332632 0.558574 -47.211201
v -19.332632 3.134602 -13.520442
v -19.332632 4.459828 -47.211201
v -19.332632 0.558574 -13.520442
v -29.225172 0.558574 -30.365822
v -29.225172 4.013083 -30.365822
v 10.344986 0.558574 -30.365822
v 10.344986 3.806450 -30.365822
v -9.440094 4.083672 -30.365822
v -9.440094 0.558574 -30.365822
v 0.452446 3.709242 -30.365822
v 0.452446 0.558574 -30.365822
v -19.332632 0.558574 -30.365822
v -19.286552 4.034223 -30.413479
v -29.225172 4.399185 -38.788513
v 10.344986 0.558574 -38.788513
v -29.225172 0.558574 -38.788513
v 10.344986 3.788648 -38.788513
v -9.440094 4.073538 -38.788513
v -9.440094 0.558574 -38.788513
v 0.452446 3.788451 -38.788513
v 0.452446 0.558574 -38.788513
v -19.332632 0.558574 -38.788513
v -19.332632 4.227739 -38.788513
v -29.225172 0.558574 -21.943132
v 10.344986 3.777616 -21.943132
v -9.440094 4.053359 -21.943132
v -9.440094 0.558574 -21.943132
v 0.452446 3.682549 -21.943132
v 0.452446 0.558574 -21.943132
v -19.332632 0.558574 -21.943132
v -19.332632 4.000956 -21.943132
v -29.225172 3.557793 -21.943132
v 10.344986 0.558574 -21.943132
v -29.225172 0.558574 -17.731787
v 10.344986 3.714845 -17.731787
v -9.440094 3.628485 -17.731787
v -9.440094 0.558574 -17.731787
v 0.452446 3.680691 -17.731787
v 0.452446 0.558574 -17.731787
v -19.332632 0.558574 -17.731787
v -19.332632 3.483394 -17.731787
v -29.225172 3.145916 -17.731787
v 10.344986 0.558574 -17.731787
v -29.225172 0.558574 -6.217075
v -29.225172 2.427836 -6.217075
v 10.344986 2.706445 -6.217075
v 10.344986 0.558574 -6.217075
v 0.452446 0.558574 -6.217075
v -19.332632 2.546172 -6.217075
v -19.332632 0.558574 -6.217075
v -9.440094 0.558574 -6.217075
v 0.452446 2.782845 -6.217075
v -9.440094 2.664508 -6.217075
v 10.344986 2.971410 -9.868759
v -9.440094 3.168423 -9.868759
v -19.332632 3.050087 -9.868759
v 10.344986 0.558574 -9.868759
v 0.452446 3.286760 -9.868759
v 0.452446 0.558574 -9.868759
v -19.332632 0.558574 -9.868759
v -29.225172 0.558574 -9.868759
v -9.440094 0.558574 -9.868759
v -29.225172 2.931751 -9.868759
vn -1.0000 -0.0000 -0.0000
vn -0.0000 -0.0000 -1.0000
vn 1.0000 -0.0000 -0.0000
vn -0.0000 -1.0000 -0.0000
vn -0.0230 0.9981 0.0567
vn -0.0086 0.9967 0.0811
vn 0.0197 0.9943 0.1047
vn -0.0077 0.9980 0.0633
vn -0.0133 0.9962 0.0857
vn -0.0118 0.9905 0.1367
vn 0.0053 0.9999 0.0109
vn -0.0049 1.0000 0.0036
vn 0.0333 0.9994 0.0041
vn 0.0077 0.9994 0.0345
vn 0.0403 0.9977 0.0545
vn 0.0257 0.9997 0.0018
vn 0.0027 1.0000 0.0022
vn 0.0281 0.9995 0.0128
vn -0.0052 1.0000 0.0037
vn -0.0097 0.9999 0.0033
vn 0.0376 0.9993 0.0034
vn -0.0233 0.9993 0.0288
vn -0.0099 0.9937 0.1112
vn -0.0065 0.9999 0.0077
vn 0.0161 0.9986 0.0506
vn -0.0392 0.9932 0.1096
vn -0.0000 -0.0000 1.0000
vn -0.0120 0.9997 0.0231
vn 0.0099 0.9966 0.0822
vt 0.375000 0.187500
vt 0.625000 0.187500
vt 0.625000 0.250000
vt 0.375000 0.250000
vt 0.375000 0.437500
vt 0.625000 0.437500
vt 0.625000 0.500000
vt 0.375000 0.500000
vt 0.375000 0.718750
vt 0.625000 0.718750
vt 0.625000 0.750000
vt 0.375000 0.750000
vt 0.312500 0.750000
vt 0.312500 0.718750
vt 0.812500 0.718750
vt 0.875000 0.718750
vt 0.875000 0.750000
vt 0.812500 0.750000
vt 0.687500 0.718750
vt 0.750000 0.718750
vt 0.750000 0.750000
vt 0.687500 0.750000
vt 0.187500 0.718750
vt 0.250000 0.718750
vt 0.250000 0.750000
vt 0.187500 0.750000
vt 0.625000 0.750000
vt 0.375000 0.312500
vt 0.625000 0.312500
vt 0.625000 0.375000
vt 0.375000 0.375000
vt 0.125000 0.718750
vt 0.125000 0.750000
vt 0.750000 0.562500
vt 0.812500 0.562500
vt 0.812500 0.625000
vt 0.750000 0.625000
vt 0.125000 0.562500
vt 0.187500 0.562500
vt 0.187500 0.625000
vt 0.125000 0.625000
vt 0.250000 0.562500
vt 0.312500 0.562500
vt 0.312500 0.625000
vt 0.250000 0.625000
vt 0.625000 0.562500
vt 0.687500 0.562500
vt 0.687500 0.625000
vt 0.625000 0.625000
vt 0.875000 0.562500
vt 0.875000 0.625000
vt 0.375000 0.562500
vt 0.375000 0.625000
vt 0.375000 0.062500
vt 0.625000 0.062500
vt 0.625000 0.125000
vt 0.375000 0.125000
vt 0.312500 0.500000
vt 0.812500 0.500000
vt 0.875000 0.500000
vt 0.687500 0.500000
vt 0.750000 0.500000
vt 0.187500 0.500000
vt 0.250000 0.500000
vt 0.125000 0.500000
vt 0.375000 0.031250
vt 0.625000 0.031250
vt 0.812500 0.687500
vt 0.750000 0.687500
vt 0.187500 0.687500
vt 0.125000 0.687500
vt 0.312500 0.687500
vt 0.250000 0.687500
vt 0.687500 0.687500
vt 0.625000 0.687500
vt 0.875000 0.687500
vt 0.375000 0.687500
vt 0.375000 0.000000
vt 0.625000 0.000000
vt 0.375000 0.937500
vt 0.625000 0.937500
vt 0.625000 1.000000
vt 0.375000 1.000000
vt 0.375000 0.812500
vt 0.625000 0.812500
vt 0.625000 0.875000
vt 0.375000 0.875000
s 0
f 33/1/1 31/2/1 4/3/1 3/4/1
f 15/5/2 13/6/2 8/7/2 7/8/2
f 60/9/3 52/10/3 6/11/3 5/12/3
f 76/13/4 74/12/4 64/12/4 65/13/4
f 56/14/4 60/9/4 5/12/4 14/13/4
f 58/15/5 59/16/5 2/17/5 18/18/5
f 55/19/6 53/20/6 12/21/6 16/22/6
f 57/23/4 54/24/4 11/25/4 20/26/4
f 71/27/7 75/22/7 69/22/7 63/11/7
f 17/28/2 19/29/2 10/30/2 9/31/2
f 74/12/3 71/27/3 63/11/3 64/12/3
f 52/10/8 55/19/8 16/22/8 6/11/8
f 54/24/4 56/14/4 14/13/4 11/25/4
f 9/31/2 10/30/2 13/6/2 15/5/2
f 3/4/2 4/3/2 19/29/2 17/28/2
f 51/32/4 57/23/4 20/26/4 1/33/4
f 53/20/9 58/15/9 18/18/9 12/21/9
f 72/21/10 73/18/10 66/18/10 70/21/10
f 35/34/11 40/35/11 30/36/11 25/37/11
f 33/38/4 39/39/4 29/40/4 21/41/4
f 36/42/4 38/43/4 28/44/4 26/45/4
f 34/46/12 37/47/12 27/48/12 24/49/12
f 39/39/4 36/42/4 26/45/4 29/40/4
f 37/47/13 35/34/13 25/37/13 27/48/13
f 40/35/14 31/50/14 22/51/14 30/36/14
f 38/43/4 32/52/4 23/53/4 28/44/4
f 32/52/3 34/46/3 24/49/3 23/53/3
f 41/54/1 49/55/1 22/56/1 21/57/1
f 7/8/3 8/7/3 34/46/3 32/52/3
f 15/58/4 7/8/4 32/52/4 38/43/4
f 19/59/15 4/60/15 31/50/15 40/35/15
f 13/61/16 10/62/16 35/34/16 37/47/16
f 17/63/4 9/64/4 36/42/4 39/39/4
f 8/7/17 13/61/17 37/47/17 34/46/17
f 9/64/4 15/58/4 38/43/4 36/42/4
f 3/65/4 17/63/4 39/39/4 33/38/4
f 10/62/18 19/59/18 40/35/18 35/34/18
f 21/57/1 22/56/1 31/2/1 33/1/1
f 51/66/1 59/67/1 49/55/1 41/54/1
f 25/37/19 30/36/19 48/68/19 43/69/19
f 21/41/4 29/40/4 47/70/4 41/71/4
f 26/45/4 28/44/4 46/72/4 44/73/4
f 24/49/20 27/48/20 45/74/20 42/75/20
f 29/40/4 26/45/4 44/73/4 47/70/4
f 27/48/21 25/37/21 43/69/21 45/74/21
f 30/36/22 22/51/22 49/76/22 48/68/22
f 28/44/4 23/53/4 50/77/4 46/72/4
f 23/53/3 24/49/3 42/75/3 50/77/3
f 1/78/1 2/79/1 59/67/1 51/66/1
f 43/69/23 48/68/23 58/15/23 53/20/23
f 41/71/4 47/70/4 57/23/4 51/32/4
f 44/73/4 46/72/4 56/14/4 54/24/4
f 42/75/24 45/74/24 55/19/24 52/10/24
f 47/70/4 44/73/4 54/24/4 57/23/4
f 45/74/25 43/69/25 53/20/25 55/19/25
f 48/68/26 49/76/26 59/16/26 58/15/26
f 46/72/4 50/77/4 60/9/4 56/14/4
f 50/77/3 42/75/3 52/10/3 60/9/3
f 67/80/27 66/81/27 62/82/27 61/83/27
f 65/84/27 69/85/27 70/86/27 68/87/27
f 64/12/27 63/11/27 69/85/27 65/84/27
f 68/87/27 70/86/27 66/81/27 67/80/27
f 78/33/4 77/26/4 67/26/4 61/33/4
f 77/26/4 79/25/4 68/25/4 67/26/4
f 79/25/4 76/13/4 65/13/4 68/25/4
f 73/18/10 80/17/10 62/17/10 66/18/10
f 80/79/1 78/78/1 61/78/1 62/79/1
f 75/22/10 72/21/10 70/21/10 69/22/10
f 16/22/28 12/21/28 72/21/28 75/22/28
f 2/79/1 1/78/1 78/78/1 80/79/1
f 18/18/28 2/17/28 80/17/28 73/18/28
f 11/25/4 14/13/4 76/13/4 79/25/4
f 20/26/4 11/25/4 79/25/4 77/26/4
f 1/33/4 20/26/4 77/26/4 78/33/4
f 12/21/28 18/18/28 73/18/28 72/21/28
f 5/12/3 6/11/3 71/27/3 74/12/3
f 6/11/29 16/22/29 75/22/29 71/27/29
f 14/13/4 5/12/4 74/12/4 76/13/4
