# Blender 4.4.3
# www.blender.org
mtllib Barrel1.mtl
o Cylinder
v -0.000213 0.010516 -0.028012
v -0.000213 0.013883 -0.370063
v -0.009427 0.014332 -0.028012
v -0.007046 0.016713 -0.370063
v -0.013243 0.023546 -0.028012
v -0.009876 0.023546 -0.370063
v -0.009427 0.032760 -0.028012
v -0.007046 0.030379 -0.370063
v -0.000213 0.036577 -0.028012
v -0.000213 0.033210 -0.370063
v 0.009001 0.032760 -0.028012
v 0.006620 0.030379 -0.370063
v 0.012817 0.023546 -0.028012
v 0.009450 0.023546 -0.370063
v 0.009001 0.014332 -0.028012
v 0.006620 0.016713 -0.370063
v -0.000213 0.009018 -0.026956
v -0.010486 0.013273 -0.026956
v -0.014741 0.023546 -0.026956
v -0.010486 0.033819 -0.026956
v -0.000213 0.038074 -0.026956
v 0.010060 0.033819 -0.026956
v 0.014315 0.023546 -0.026956
v 0.010060 0.013273 -0.026956
v -0.000213 0.009018 -0.015190
v -0.010486 0.013273 -0.015190
v -0.014741 0.023546 -0.015190
v -0.010486 0.033819 -0.015190
v -0.000213 0.038074 -0.015190
v 0.010060 0.033819 -0.015190
v 0.014315 0.023546 -0.015190
v 0.010060 0.013273 -0.015190
v -0.009427 0.014332 -0.370063
v -0.000213 0.010516 -0.370063
v -0.013243 0.023546 -0.370063
v -0.009427 0.032760 -0.370063
v -0.000213 0.036577 -0.370063
v 0.009001 0.032760 -0.370063
v 0.012817 0.023546 -0.370063
v 0.009001 0.014332 -0.370063
v -0.007046 0.016713 -0.019414
v -0.000213 0.013883 -0.019414
v -0.009876 0.023546 -0.019414
v -0.007046 0.030379 -0.019414
v -0.000213 0.033210 -0.019414
v 0.006620 0.030379 -0.019414
v 0.009450 0.023546 -0.019414
v 0.006620 0.016713 -0.019414
v -0.000213 -0.000615 -0.351067
v -0.000213 0.001379 -0.275146
v 0.006506 -0.003399 -0.351067
v 0.007917 -0.001988 -0.275146
v 0.009290 -0.010118 -0.351067
v 0.011284 -0.010118 -0.275146
v 0.006506 -0.016837 -0.351067
v 0.007917 -0.018248 -0.275146
v -0.000213 -0.019621 -0.351067
v -0.000213 -0.021615 -0.275146
v -0.006932 -0.016837 -0.351067
v -0.008343 -0.018248 -0.275146
v -0.009716 -0.010118 -0.351067
v -0.011710 -0.010118 -0.275146
v -0.006932 -0.003399 -0.351067
v -0.008343 -0.001988 -0.275146
v 0.006680 -0.003225 -0.268185
v -0.000213 -0.000370 -0.268185
v 0.009535 -0.010118 -0.268185
v 0.006680 -0.017011 -0.268185
v -0.000213 -0.019866 -0.268185
v -0.007106 -0.017011 -0.268185
v -0.009961 -0.010118 -0.268185
v -0.007106 -0.003225 -0.268185
v -0.000213 0.001379 -0.351067
v 0.007917 -0.001988 -0.351067
v 0.011284 -0.010118 -0.351067
v 0.007917 -0.018248 -0.351067
v -0.000213 -0.021615 -0.351067
v -0.008343 -0.018248 -0.351067
v -0.011710 -0.010118 -0.351067
v -0.008343 -0.001988 -0.351067
v -0.000213 -0.000615 -0.354699
v 0.006506 -0.003399 -0.354699
v 0.009290 -0.010118 -0.354699
v 0.006506 -0.016837 -0.354699
v -0.000213 -0.019621 -0.354699
v -0.006932 -0.016837 -0.354699
v -0.009716 -0.010118 -0.354699
v -0.006932 -0.003399 -0.354699
v 0.006680 -0.003225 -0.266752
v -0.000213 -0.000370 -0.266752
v 0.009535 -0.010118 -0.266752
v 0.006680 -0.017011 -0.266752
v -0.000213 -0.019866 -0.266752
v -0.007106 -0.017011 -0.266752
v -0.009961 -0.010118 -0.266752
v -0.007106 -0.003225 -0.266752
v 0.008684 -0.001221 -0.275146
v -0.000213 0.002464 -0.275146
v 0.012369 -0.010118 -0.275146
v 0.008684 -0.019015 -0.275146
v -0.000213 -0.022700 -0.275146
v -0.009110 -0.019015 -0.275146
v -0.012795 -0.010118 -0.275146
v -0.009110 -0.001221 -0.275146
v 0.008684 -0.001221 -0.268185
v -0.000213 0.002464 -0.268185
v 0.012369 -0.010118 -0.268185
v 0.008684 -0.019015 -0.268185
v -0.000213 -0.022700 -0.268185
v -0.009110 -0.019015 -0.268185
v -0.012795 -0.010118 -0.268185
v -0.009110 -0.001221 -0.268185
v 0.008465 -0.001440 -0.266672
v -0.000213 0.002155 -0.266672
v 0.012060 -0.010118 -0.266672
v 0.008465 -0.018796 -0.266672
v -0.000213 -0.022391 -0.266672
v -0.008891 -0.018796 -0.266672
v -0.012486 -0.010118 -0.266672
v -0.008891 -0.001440 -0.266672
v 0.009287 -0.000618 -0.263049
v -0.000213 0.003316 -0.263049
v 0.013221 -0.010118 -0.263049
v 0.009287 -0.019618 -0.263049
v -0.000213 -0.023552 -0.263049
v -0.009713 -0.019618 -0.263049
v -0.013647 -0.010118 -0.263049
v -0.009713 -0.000618 -0.263049
v 0.009287 -0.000618 -0.015820
v -0.000213 0.003316 -0.015820
v 0.013221 -0.010118 -0.015820
v 0.009287 -0.019618 -0.015820
v -0.000213 -0.023552 -0.015820
v -0.009713 -0.019618 -0.015820
v -0.013647 -0.010118 -0.015820
v -0.009713 -0.000618 -0.015820
v 0.005816 0.030291 -0.365790
v 0.005816 0.042883 -0.365790
v 0.005816 0.030291 -0.345785
v 0.005816 0.042883 -0.345785
v -0.006244 0.030291 -0.365790
v -0.006244 0.042883 -0.365790
v -0.006244 0.030291 -0.345785
v -0.006244 0.042883 -0.345785
v 0.005816 0.046232 -0.365790
v 0.005816 0.047201 -0.365790
v 0.005816 0.046232 -0.347574
v 0.005816 0.047201 -0.347574
v -0.006244 0.046232 -0.365790
v -0.006244 0.047201 -0.365790
v -0.006244 0.046232 -0.347574
v -0.006244 0.047201 -0.347574
v -0.001066 0.046232 -0.347574
v 0.000639 0.046232 -0.347574
v 0.000639 0.047201 -0.347574
v -0.001066 0.047201 -0.347574
v 0.000639 0.046232 -0.365790
v -0.001066 0.046232 -0.365790
v -0.001066 0.047201 -0.365790
v 0.000639 0.047201 -0.365790
v 0.004408 0.046232 -0.347574
v 0.004408 0.047201 -0.365790
v 0.004408 0.047201 -0.347574
v 0.004408 0.046232 -0.365790
v -0.004836 0.047201 -0.347574
v -0.004836 0.046232 -0.365790
v -0.004836 0.046232 -0.347574
v -0.004836 0.047201 -0.365790
v 0.005816 0.058416 -0.363460
v 0.005816 0.058416 -0.353711
v -0.004836 0.058416 -0.353711
v -0.006244 0.058416 -0.353711
v -0.006244 0.058416 -0.363460
v 0.004408 0.058416 -0.363460
v 0.004408 0.058416 -0.353711
v -0.004836 0.058416 -0.363460
v -0.004836 0.054491 -0.365790
v -0.004836 0.054491 -0.351563
v -0.006244 0.054491 -0.351563
v -0.006244 0.054491 -0.365790
v 0.005816 0.054491 -0.351563
v 0.004408 0.054491 -0.351563
v 0.004408 0.054491 -0.365790
v 0.005816 0.054491 -0.365790
v 0.005693 0.042890 -0.365644
v 0.005693 0.046241 -0.365644
v 0.005693 0.042890 -0.345917
v 0.005693 0.046241 -0.347709
v -0.006121 0.042890 -0.365644
v -0.006121 0.046241 -0.365644
v -0.006121 0.042890 -0.345917
v -0.006121 0.046241 -0.347709
v 0.000639 0.051742 -0.350224
v 0.000192 0.052578 -0.350469
v -0.000620 0.052578 -0.350469
v -0.001066 0.051742 -0.350224
v -0.001066 0.051742 -0.365790
v -0.000620 0.052578 -0.365790
v 0.000192 0.052578 -0.365790
v 0.000639 0.051742 -0.365790
v -0.000213 -0.024268 -0.319051
v -0.000213 -0.024268 -0.336314
v 0.009793 -0.020124 -0.319051
v 0.009793 -0.020124 -0.336314
v 0.013937 -0.010118 -0.319051
v 0.013937 -0.010118 -0.336314
v 0.009793 -0.000112 -0.319051
v 0.009793 -0.000112 -0.336314
v -0.000213 0.004032 -0.319051
v -0.000213 0.004032 -0.336314
v -0.010219 -0.000112 -0.319051
v -0.010219 -0.000112 -0.336314
v -0.014363 -0.010118 -0.319051
v -0.014363 -0.010118 -0.336314
v -0.010219 -0.020124 -0.319051
v -0.010219 -0.020124 -0.336314
v -0.005216 0.001960 -0.319051
v -0.005216 0.001960 -0.336314
v 0.004790 0.001960 -0.319051
v 0.004790 0.001960 -0.336314
v 0.004790 0.012710 -0.319051
v -0.000213 0.010703 -0.319051
v -0.000213 0.010703 -0.336314
v -0.005216 0.012710 -0.336314
v -0.005216 0.012710 -0.319051
v 0.004790 0.012710 -0.336314
v -0.000213 -0.026112 -0.240813
v -0.000213 -0.026112 -0.256047
v 0.011096 -0.021427 -0.240813
v 0.011096 -0.021427 -0.256047
v 0.015781 -0.010118 -0.240813
v 0.015781 -0.010118 -0.256047
v 0.011096 0.001191 -0.240813
v 0.011096 0.001191 -0.256047
v -0.000213 0.005876 -0.240813
v -0.000213 0.005876 -0.256047
v -0.011522 0.001191 -0.240813
v -0.011522 0.001191 -0.256047
v -0.016207 -0.010118 -0.240813
v -0.016207 -0.010118 -0.256047
v -0.011522 -0.021427 -0.240813
v -0.011522 -0.021427 -0.256047
v -0.005868 0.003533 -0.240813
v -0.005868 0.003533 -0.256047
v 0.005442 0.003533 -0.240813
v 0.005442 0.003533 -0.256047
v 0.005442 0.012982 -0.240813
v -0.000213 0.010581 -0.240813
v -0.000213 0.010581 -0.256047
v -0.005868 0.012982 -0.256047
v -0.005868 0.012982 -0.240813
v 0.005442 0.012982 -0.256047
vn -0.3827 -0.9239 -0.0000
vn -0.9239 -0.3827 -0.0000
vn -0.9239 0.3827 -0.0000
vn -0.3827 0.9239 -0.0000
vn 0.3827 0.9239 -0.0000
vn 0.9239 0.3827 -0.0000
vn 0.9239 -0.3827 -0.0000
vn 0.3827 -0.9239 -0.0000
vn 0.5602 -0.2320 -0.7952
vn -0.5602 -0.2320 -0.7952
vn 0.2320 0.5602 -0.7952
vn 0.2320 -0.5602 -0.7952
vn -0.2320 -0.5602 -0.7952
vn -0.5602 0.2320 -0.7952
vn 0.5602 0.2320 -0.7952
vn -0.2320 0.5602 -0.7952
vn -0.0000 -0.0000 1.0000
vn -0.0000 -0.0000 -1.0000
vn -0.0315 0.0131 -0.9994
vn -0.3669 -0.8859 -0.2839
vn -0.0131 -0.0315 -0.9994
vn 0.0315 -0.0131 -0.9994
vn 0.0131 0.0315 -0.9994
vn -0.0131 0.0315 -0.9994
vn -0.0315 -0.0131 -0.9994
vn 0.0131 -0.0315 -0.9994
vn 0.0315 0.0131 -0.9994
vn 0.8859 -0.3669 -0.2839
vn 0.3669 0.8859 -0.2839
vn -0.3669 0.8859 -0.2839
vn -0.8859 -0.3669 -0.2839
vn 0.3669 -0.8859 -0.2839
vn 0.8859 0.3669 -0.2839
vn -0.8859 0.3669 -0.2839
vn 1.0000 -0.0000 -0.0000
vn -1.0000 -0.0000 -0.0000
vn -0.0000 -1.0000 -0.0000
vn -0.0000 1.0000 -0.0000
vn -0.0000 0.4800 0.8772
vn -0.0000 0.4801 0.8772
vn -0.0000 0.5105 -0.8599
vn -0.0000 0.4800 0.8773
vn -0.0000 0.4716 0.8818
vn 0.8821 0.4711 -0.0000
vn -0.8821 0.4711 -0.0000
vn -0.0000 0.4811 0.8767
vn -0.3723 0.9281 -0.0000
vn 0.3723 0.9281 -0.0000
vn -0.3910 0.9204 -0.0000
vn 0.3910 0.9204 -0.0000
vt 1.000000 0.500000
vt 1.000000 1.000000
vt 0.875000 1.000000
vt 0.875000 0.500000
vt 0.750000 1.000000
vt 0.750000 0.500000
vt 0.625000 1.000000
vt 0.625000 0.500000
vt 0.500000 1.000000
vt 0.500000 0.500000
vt 0.375000 1.000000
vt 0.375000 0.500000
vt 0.250000 1.000000
vt 0.250000 0.500000
vt 0.124145 0.124145
vt 0.250000 0.072014
vt 0.125000 1.000000
vt 0.125000 0.500000
vt 0.000000 1.000000
vt 0.000000 0.500000
vt 0.750000 0.490000
vt 0.919706 0.419706
vt 0.990000 0.250000
vt 0.919706 0.080294
vt 0.750000 0.010000
vt 0.580294 0.080294
vt 0.510000 0.250000
vt 0.580294 0.419706
vt 0.250000 0.427986
vt 0.375855 0.375855
vt 0.419706 0.419706
vt 0.250000 0.490000
vt 0.427986 0.250000
vt 0.490000 0.250000
vt 0.375855 0.124145
vt 0.419706 0.080294
vt 0.250000 0.010000
vt 0.080294 0.080294
vt 0.072014 0.250000
vt 0.010000 0.250000
vt 0.124145 0.375855
vt 0.080294 0.419706
vt 0.609738 0.390262
vt 0.750000 0.448361
vt 0.890262 0.390262
vt 0.948361 0.250000
vt 0.890262 0.109738
vt 0.750000 0.051639
vt 0.609738 0.109738
vt 0.551639 0.250000
vt 0.375000 0.000000
vt 0.375000 0.250000
vt 0.625000 0.250000
vt 0.625000 0.000000
vt 0.375000 0.750000
vt 0.625000 0.750000
vt 0.125000 0.750000
vt 0.875000 0.750000
vt 0.375000 0.458333
vt 0.625000 0.458333
vt 0.375000 0.958333
vt 0.625000 0.958333
vt 0.333333 0.500000
vt 0.333333 0.750000
vt 0.833333 0.750000
vt 0.833333 0.500000
vt 0.666667 0.500000
vt 0.666667 0.750000
vt 0.708333 0.750000
vt 0.708333 0.500000
vt 0.625000 0.916667
vt 0.625000 0.894838
vt 0.625000 0.855162
vt 0.625000 0.833333
vt 0.166667 0.500000
vt 0.166667 0.750000
vt 0.208333 0.750000
vt 0.208333 0.500000
vt 0.291667 0.750000
vt 0.291667 0.500000
vt 0.375000 0.791667
vt 0.375000 0.833333
vt 0.625000 0.791667
vt 0.375000 0.916667
vt 0.375000 0.291667
vt 0.375000 0.333333
vt 0.625000 0.333333
vt 0.625000 0.291667
vt 0.375000 0.416667
vt 0.625000 0.416667
vt 0.791667 0.500000
vt 0.791667 0.750000
vt 0.730162 0.500000
vt 0.730162 0.750000
vt 0.769838 0.750000
vt 0.769838 0.500000
vt 0.625000 0.394838
vt 0.625000 0.355162
vt 0.437500 1.000000
vt 0.437500 0.500000
vt 0.334853 0.045147
vt 0.165147 0.045147
vt 0.665147 0.045147
vt 0.834853 0.045147
vt 0.562500 0.500000
vt 0.562500 1.000000
s 0
usemtl 
f 1/1/1 3/4/1 33/3/1 34/2/1
f 3/4/2 5/6/2 35/5/2 33/3/2
f 5/6/3 7/8/3 36/7/3 35/5/3
f 7/8/4 9/10/4 37/9/4 36/7/4
f 9/10/5 11/12/5 38/11/5 37/9/5
f 11/12/6 13/14/6 39/13/6 38/11/6
f 12/15/1 46/15/1 45/16/1 10/16/1
f 13/14/7 15/18/7 40/17/7 39/13/7
f 15/18/8 1/20/8 34/19/8 40/17/8
f 13/14/9 23/14/9 24/18/9 15/18/9
f 23/14/7 31/14/7 32/18/7 24/18/7
f 3/4/10 18/4/10 19/6/10 5/6/10
f 9/10/11 21/10/11 22/12/11 11/12/11
f 15/18/12 24/18/12 17/20/12 1/20/12
f 1/1/13 17/1/13 18/4/13 3/4/13
f 5/6/14 19/6/14 20/8/14 7/8/14
f 11/12/15 22/12/15 23/14/15 13/14/15
f 7/8/16 20/8/16 21/10/16 9/10/16
f 25/21/17 32/28/17 31/27/17 30/26/17 29/25/17 28/24/17 27/23/17 26/22/17
f 21/10/5 29/10/5 30/12/5 22/12/5
f 19/6/3 27/6/3 28/8/3 20/8/3
f 17/1/1 25/1/1 26/4/1 18/4/1
f 24/18/8 32/18/8 25/20/8 17/20/8
f 22/12/6 30/12/6 31/14/6 23/14/6
f 20/8/4 28/8/4 29/10/4 21/10/4
f 18/4/2 26/4/2 27/6/2 19/6/2
f 2/29/18 34/32/18 33/31/18 4/30/18
f 4/30/18 33/31/18 35/34/18 6/33/18
f 6/33/18 35/34/18 36/36/18 8/35/18
f 8/35/18 36/36/18 37/37/18 10/16/18
f 10/16/18 37/37/18 38/38/18 12/15/18
f 12/15/18 38/38/18 39/40/18 14/39/18
f 14/39/18 39/40/18 40/42/18 16/41/18
f 16/41/18 40/42/18 34/32/18 2/29/18
f 41/30/18 43/33/18 44/35/18 45/16/18 46/15/18 47/39/18 48/41/18 42/29/18
f 8/35/7 44/35/7 43/33/7 6/33/7
f 4/30/5 41/30/5 42/29/5 2/29/5
f 2/29/4 42/29/4 48/41/4 16/41/4
f 14/39/2 47/39/2 46/15/2 12/15/2
f 10/16/8 45/16/8 44/35/8 8/35/8
f 6/33/6 43/33/6 41/30/6 4/30/6
f 16/41/3 48/41/3 47/39/3 14/39/3
f 73/1/5 50/2/5 52/3/5 74/4/5
f 74/4/6 52/3/6 54/5/6 75/6/6
f 75/6/7 54/5/7 56/7/7 76/8/7
f 76/8/8 56/7/8 58/9/8 77/10/8
f 77/10/1 58/9/1 60/11/1 78/12/1
f 78/12/2 60/11/2 62/13/2 79/14/2
f 54/5/18 52/3/18 97/3/18 99/5/18
f 79/14/3 62/13/3 64/17/3 80/18/3
f 80/18/4 64/17/4 50/19/4 73/20/4
f 63/43/4 49/44/4 81/44/4 88/43/4
f 69/9/8 68/7/8 92/7/8 93/9/8
f 68/7/17 69/9/17 109/9/17 108/7/17
f 67/5/17 68/7/17 108/7/17 107/5/17
f 58/9/18 56/7/18 100/7/18 101/9/18
f 65/3/17 67/5/17 107/5/17 105/3/17
f 62/13/18 60/11/18 102/11/18 103/13/18
f 66/2/17 65/3/17 105/3/17 106/2/17
f 72/17/17 66/19/17 106/19/17 112/17/17
f 51/45/18 49/44/18 73/21/18 74/22/18
f 53/46/18 51/45/18 74/22/18 75/23/18
f 55/47/18 53/46/18 75/23/18 76/24/18
f 57/48/18 55/47/18 76/24/18 77/25/18
f 59/49/18 57/48/18 77/25/18 78/26/18
f 61/50/18 59/49/18 78/26/18 79/27/18
f 63/43/18 61/50/18 79/27/18 80/28/18
f 49/44/18 63/43/18 80/28/18 73/21/18
f 81/44/18 82/45/18 83/46/18 84/47/18 85/48/18 86/49/18 87/50/18 88/43/18
f 59/49/2 61/50/2 87/50/2 86/49/2
f 55/47/8 57/48/8 85/48/8 84/47/8
f 51/45/6 53/46/6 83/46/6 82/45/6
f 61/50/3 63/43/3 88/43/3 87/50/3
f 57/48/1 59/49/1 86/49/1 85/48/1
f 53/46/7 55/47/7 84/47/7 83/46/7
f 49/44/5 51/45/5 82/45/5 81/44/5
f 96/17/19 95/13/19 119/13/19 120/17/19
f 67/5/6 65/3/6 89/3/6 91/5/6
f 72/17/3 71/13/3 95/13/3 96/17/3
f 70/11/1 69/9/1 93/9/1 94/11/1
f 68/7/7 67/5/7 91/5/7 92/7/7
f 65/3/5 66/2/5 90/2/5 89/3/5
f 66/19/4 72/17/4 96/17/4 90/19/4
f 71/13/2 70/11/2 94/11/2 95/13/2
f 101/9/8 100/7/8 108/7/8 109/9/8
f 104/17/3 103/13/3 111/13/3 112/17/3
f 99/5/6 97/3/6 105/3/6 107/5/6
f 102/11/1 101/9/1 109/9/1 110/11/1
f 98/19/4 104/17/4 112/17/4 106/19/4
f 97/3/5 98/2/5 106/2/5 105/3/5
f 100/7/7 99/5/7 107/5/7 108/7/7
f 103/13/2 102/11/2 110/11/2 111/13/2
f 64/17/18 62/13/18 103/13/18 104/17/18
f 69/9/17 70/11/17 110/11/17 109/9/17
f 60/11/18 58/9/18 101/9/18 102/11/18
f 70/11/17 71/13/17 111/13/17 110/11/17
f 71/13/17 72/17/17 112/17/17 111/13/17
f 56/7/18 54/5/18 99/5/18 100/7/18
f 50/19/18 64/17/18 104/17/18 98/19/18
f 52/3/18 50/2/18 98/2/18 97/3/18
f 118/11/20 117/9/20 125/9/20 126/11/20
f 94/11/21 93/9/21 117/9/21 118/11/21
f 92/7/22 91/5/22 115/5/22 116/7/22
f 89/3/23 90/2/23 114/2/23 113/3/23
f 90/19/24 96/17/24 120/17/24 114/19/24
f 95/13/25 94/11/25 118/11/25 119/13/25
f 93/9/26 92/7/26 116/7/26 117/9/26
f 91/5/27 89/3/27 113/3/27 115/5/27
f 128/17/3 127/13/3 135/13/3 136/17/3
f 116/7/28 115/5/28 123/5/28 124/7/28
f 113/3/29 114/2/29 122/2/29 121/3/29
f 114/19/30 120/17/30 128/17/30 122/19/30
f 119/13/31 118/11/31 126/11/31 127/13/31
f 117/9/32 116/7/32 124/7/32 125/9/32
f 115/5/33 113/3/33 121/3/33 123/5/33
f 120/17/34 119/13/34 127/13/34 128/17/34
f 129/31/17 130/32/17 136/42/17 135/40/17 134/38/17 133/37/17 132/36/17 131/34/17
f 126/11/1 125/9/1 133/9/1 134/11/1
f 124/7/7 123/5/7 131/5/7 132/7/7
f 121/3/5 122/2/5 130/2/5 129/3/5
f 122/19/4 128/17/4 136/17/4 130/19/4
f 127/13/2 126/11/2 134/11/2 135/13/2
f 125/9/8 124/7/8 132/7/8 133/9/8
f 123/5/6 121/3/6 129/3/6 131/5/6
f 201/1/8 202/2/8 204/3/8 203/4/8
f 203/4/7 204/3/7 206/5/7 205/6/7
f 205/6/6 206/5/6 208/7/6 207/8/6
f 218/99/36 217/100/36 225/100/36 224/99/36
f 217/100/4 218/99/4 212/11/4 211/12/4
f 211/12/3 212/11/3 214/13/3 213/14/3
f 204/31/18 202/32/18 216/42/18 214/40/18 212/38/18 218/102/18 210/37/18 220/101/18 208/36/18 206/34/18
f 213/14/2 214/13/2 216/17/2 215/18/2
f 215/18/1 216/17/1 202/19/1 201/20/1
f 201/21/17 203/22/17 205/23/17 207/24/17 219/104/17 209/25/17 217/103/17 211/26/17 213/27/17 215/28/17
f 220/101/18 210/37/18 223/37/18 226/101/18
f 207/8/5 208/7/5 220/106/5 219/105/5
f 221/105/47 226/106/47 223/9/47 222/10/47
f 222/10/48 223/9/48 224/99/48 225/100/48
f 217/103/17 209/25/17 222/25/17 225/103/17
f 219/105/35 220/106/35 226/106/35 221/105/35
f 210/37/18 218/102/18 224/102/18 223/37/18
f 209/25/17 219/104/17 221/104/17 222/25/17
f 227/1/8 228/2/8 230/3/8 229/4/8
f 229/4/7 230/3/7 232/5/7 231/6/7
f 231/6/6 232/5/6 234/7/6 233/8/6
f 244/99/36 243/100/36 251/100/36 250/99/36
f 243/100/4 244/99/4 238/11/4 237/12/4
f 237/12/3 238/11/3 240/13/3 239/14/3
f 230/31/18 228/32/18 242/42/18 240/40/18 238/38/18 244/102/18 236/37/18 246/101/18 234/36/18 232/34/18
f 239/14/2 240/13/2 242/17/2 241/18/2
f 241/18/1 242/17/1 228/19/1 227/20/1
f 227/21/17 229/22/17 231/23/17 233/24/17 245/104/17 235/25/17 243/103/17 237/26/17 239/27/17 241/28/17
f 246/101/18 236/37/18 249/37/18 252/101/18
f 233/8/5 234/7/5 246/106/5 245/105/5
f 247/105/49 252/106/49 249/9/49 248/10/49
f 248/10/50 249/9/50 250/99/50 251/100/50
f 243/103/17 235/25/17 248/25/17 251/103/17
f 245/105/35 246/106/35 252/106/35 247/105/35
f 236/37/18 244/102/18 250/102/18 249/37/18
f 235/25/17 245/104/17 247/104/17 248/25/17
s 1
usemtl Medium_Grey
f 137/51/35 138/54/35 140/53/35 139/52/35
f 139/52/17 140/53/17 144/8/17 143/12/17
f 143/12/36 144/8/36 142/56/36 141/55/36
f 141/55/18 142/56/18 138/7/18 137/11/18
f 139/18/37 143/12/37 141/55/37 137/57/37
f 144/8/38 140/4/38 138/58/38 142/56/38
f 145/51/35 146/54/35 148/53/35 147/52/35
f 167/59/17 165/60/17 152/8/17 151/12/17
f 151/12/36 152/8/36 150/56/36 149/55/36
f 164/61/18 162/62/18 146/7/18 145/11/18
f 167/63/37 151/12/37 149/55/37 166/64/37
f 183/65/36 182/66/36 175/66/36 174/65/36
f 165/67/38 156/70/38 159/69/38 168/68/38
f 160/71/18 159/74/18 197/74/18 198/73/18 199/72/18 200/71/18
f 161/75/37 154/78/37 157/77/37 164/76/37
f 154/78/37 153/80/37 158/79/37 157/77/37
f 166/81/18 168/83/18 159/74/18 158/82/18
f 158/82/18 159/74/18 160/71/18 157/84/18
f 161/85/17 163/88/17 155/87/17 154/86/17
f 154/86/17 155/87/17 156/90/17 153/89/17
f 147/52/17 148/53/17 163/88/17 161/85/17
f 147/18/37 161/75/37 164/76/37 145/57/37
f 155/91/38 163/66/38 162/65/38 160/92/38
f 157/84/18 160/71/18 162/62/18 164/61/18
f 149/55/18 150/56/18 168/83/18 166/81/18
f 182/88/39 181/53/39 170/53/40 175/88/40
f 153/80/37 167/63/37 166/64/37 158/79/37
f 153/89/17 156/90/17 165/60/17 167/59/17
f 175/66/38 170/4/38 169/58/38 174/65/38
f 155/91/35 160/92/35 200/92/35 193/91/35
f 172/8/38 171/67/38 176/68/38 173/56/38
f 178/67/35 177/68/35 176/68/35 171/67/35
f 159/69/36 156/70/36 196/70/36 197/69/36
f 184/7/41 183/62/41 174/62/41 169/7/41
f 180/56/36 179/8/36 172/8/36 173/56/36
f 195/93/38 194/96/38 199/95/38 198/94/38
f 177/83/41 180/56/41 173/56/41 176/83/41
f 179/8/39 178/60/39 171/60/40 172/8/40
f 181/53/35 184/54/35 169/54/35 170/53/35
f 152/8/42 165/60/42 178/60/39 179/8/39
f 168/83/18 150/56/18 180/56/18 177/83/18
f 150/56/36 152/8/36 179/8/36 180/56/36
f 165/67/35 168/68/35 177/68/35 178/67/35
f 148/53/35 146/54/35 184/54/35 181/53/35
f 146/7/18 162/62/18 183/62/18 184/7/18
f 163/88/42 148/53/42 181/53/39 182/88/39
f 162/65/36 163/66/36 182/66/36 183/65/36
f 185/51/35 186/54/35 188/53/35 187/52/35
f 187/52/43 188/53/43 192/8/43 191/12/43
f 191/12/36 192/8/36 190/56/36 189/55/36
f 189/55/18 190/56/18 186/7/18 185/11/18
f 187/18/37 191/12/37 189/55/37 185/57/37
f 192/8/38 188/4/38 186/58/38 190/56/38
f 193/91/44 200/92/44 199/95/44 194/96/44
f 195/93/45 198/94/45 197/69/45 196/70/45
f 156/90/46 155/87/46 193/87/46 194/98/46 195/97/46 196/90/46
