# Blender 4.0.2
# www.blender.org
mtllib SI.mtl
o Cube.001
v -0.017510 0.077407 -0.725659
v -0.017510 0.077407 -0.762470
v 0.017510 0.077407 -0.725659
v 0.017510 0.077407 -0.762470
v -0.010052 0.105754 -0.731422
v -0.017510 0.099717 -0.725659
v -0.017510 0.099717 -0.762470
v -0.010052 0.105754 -0.762470
v 0.010052 0.105754 -0.731422
v 0.017510 0.099717 -0.725659
v 0.010052 0.105754 -0.762470
v 0.017510 0.099717 -0.762470
v -0.007862 0.104135 -0.761833
v -0.007862 0.112295 -0.761833
v 0.007862 0.104135 -0.761833
v 0.007862 0.112295 -0.761833
v -0.007862 0.104135 -0.713347
v -0.007862 0.112295 -0.711774
v 0.007862 0.112295 -0.711774
v 0.007862 0.104135 -0.713347
v -0.007862 0.101972 -0.705272
v -0.007862 0.110132 -0.703699
v 0.007862 0.110132 -0.703699
v 0.007862 0.101972 -0.705272
v -0.007862 0.101972 -0.688654
v -0.007862 0.110132 -0.688654
v 0.007862 0.101972 -0.688654
v 0.007862 0.110132 -0.688654
v 0.002964 0.110132 -0.683112
v -0.002964 0.110132 -0.683112
v -0.002964 0.101972 -0.683112
v 0.002964 0.101972 -0.683112
v -0.004283 0.110132 -0.685771
v -0.004283 0.110132 -0.690717
v -0.004946 0.110132 -0.688244
v -0.001250 0.106392 -0.692855
v 0.004283 0.110132 -0.690717
v 0.004283 0.110132 -0.685771
v 0.001250 0.106392 -0.692855
v 0.004946 0.110132 -0.688244
v -0.000000 0.106392 -0.693190
v 0.004283 0.101972 -0.685771
v -0.004946 0.101972 -0.688244
v -0.001250 0.103310 -0.692855
v -0.004283 0.101972 -0.690717
v -0.004283 0.101972 -0.685771
v 0.004946 0.101972 -0.688244
v 0.004283 0.101972 -0.690717
v 0.001250 0.103310 -0.692855
v -0.000000 0.103310 -0.693190
v -0.002473 0.110132 -0.692527
v -0.002473 0.101972 -0.692527
v 0.002473 0.101972 -0.692527
v 0.000000 0.101972 -0.693190
v 0.000000 0.110132 -0.693190
v 0.002473 0.110132 -0.692527
v -0.000000 0.106392 -0.687680
v 0.000000 0.103310 -0.687680
v -0.001250 0.106392 -0.688995
v -0.001250 0.103310 -0.688995
v 0.001250 0.103310 -0.688995
v 0.001250 0.106392 -0.688995
v -0.006018 0.104135 -0.718365
v -0.005212 0.104135 -0.721374
v -0.005212 0.104135 -0.715356
v -0.003009 0.104135 -0.723576
v -0.003203 0.104135 -0.713347
v 0.000000 0.104135 -0.724383
v 0.003009 0.104135 -0.723576
v 0.003203 0.104135 -0.713347
v 0.005212 0.104135 -0.721374
v 0.005212 0.104135 -0.715356
v 0.006018 0.104135 -0.718365
v -0.006018 0.112295 -0.718365
v -0.005212 0.112295 -0.721374
v -0.003009 0.112295 -0.723576
v -0.003009 0.112295 -0.713153
v -0.005212 0.112295 -0.715356
v 0.000000 0.112295 -0.712346
v 0.000000 0.112295 -0.724383
v 0.003009 0.112295 -0.723576
v 0.003009 0.112295 -0.713153
v 0.005212 0.112295 -0.715356
v 0.006018 0.112295 -0.718365
v 0.005212 0.112295 -0.721374
v -0.003009 0.104083 -0.713153
v 0.003009 0.104083 -0.713153
v 0.000000 0.103867 -0.712346
v -0.004917 0.101972 -0.683741
v -0.007069 0.101972 -0.685632
v -0.007069 0.110132 -0.685632
v -0.004917 0.110132 -0.683741
v 0.007069 0.101972 -0.685632
v 0.004917 0.101972 -0.683741
v 0.004917 0.110132 -0.683741
v 0.007069 0.110132 -0.685632
vn -0.0000 1.0000 -0.0000
vn 1.0000 -0.0000 -0.0000
vn -1.0000 -0.0000 -0.0000
vn -0.0000 -1.0000 -0.0000
vn -0.0000 -0.0000 -1.0000
vn -0.6292 0.7773 -0.0000
vn 0.6292 0.7773 -0.0000
vn -0.0000 0.6904 0.7234
vn -0.0000 -0.0000 1.0000
vn 0.9672 -0.0000 0.2540
vn -0.0000 -0.9660 -0.2587
vn -0.0000 0.9660 0.2587
vn -0.3066 -0.0000 0.9519
vn 0.3066 -0.0000 0.9519
vn -0.7071 -0.0000 0.7071
vn -0.9659 -0.0000 0.2588
vn -0.9659 -0.0000 -0.2588
vn -0.8958 -0.0000 -0.4444
vn 0.8958 -0.0000 -0.4444
vn 0.9659 -0.0000 -0.2588
vn 0.9659 -0.0000 0.2588
vn 0.7071 -0.0000 0.7071
vn 0.2588 -0.0000 0.9659
vn -0.2588 -0.0000 0.9659
vn 0.7248 -0.0000 0.6889
vn -0.7248 -0.0000 0.6889
vn -0.7071 -0.0000 -0.7071
vn -0.2588 -0.0000 -0.9659
vn 0.2588 -0.0000 -0.9659
vn 0.7071 -0.0000 -0.7071
vn -0.6601 -0.0000 0.7512
vn 0.6601 -0.0000 0.7512
vn -0.9672 -0.0000 0.2540
vt 0.678244 0.500000
vt 0.821756 0.500000
vt 0.821756 0.734722
vt 0.678244 0.734722
vt 0.375000 0.500000
vt 0.571756 0.500000
vt 0.571756 0.750000
vt 0.375000 0.750000
vt 0.375000 0.000000
vt 0.571756 0.000000
vt 0.571756 0.250000
vt 0.375000 0.250000
vt 0.125000 0.500000
vt 0.125000 0.750000
vt 0.625000 0.303244
vt 0.625000 0.446756
vt 0.625000 0.015278
vt 0.625000 0.250000
vt 0.625000 0.803244
vt 0.625000 0.946756
vt 0.571756 1.000000
vt 0.375000 1.000000
vt 0.625000 0.935540
vt 0.625000 0.973010
vt 0.623109 0.989111
vt 0.600524 1.000000
vt 0.516234 1.000000
vt 0.516234 0.750000
vt 0.600524 0.750000
vt 0.623109 0.760889
vt 0.625000 0.776990
vt 0.625000 0.814460
vt 0.621084 0.802228
vt 0.607755 0.791831
vt 0.594570 0.803622
vt 0.585031 0.834005
vt 0.581540 0.875000
vt 0.585031 0.915995
vt 0.594570 0.946378
vt 0.607755 0.958169
vt 0.621084 0.947772
vt 0.516234 0.500000
vt 0.598542 0.500000
vt 0.516234 0.000000
vt 0.600524 0.000000
vt 0.598542 0.250000
vt 0.516234 0.250000
vt 0.633845 0.500000
vt 0.633998 0.750000
vt 0.500000 0.925925
vt 0.500000 1.000000
vt 0.500000 0.750000
vt 0.500000 0.824075
vt 0.494821 0.792137
vt 0.487064 0.779318
vt 0.479306 0.792137
vt 0.473627 0.827159
vt 0.471549 0.875000
vt 0.473627 0.922841
vt 0.479306 0.957863
vt 0.487064 0.970682
vt 0.494821 0.957863
vt 0.500000 0.500000
vt 0.500000 0.250000
vt 0.483542 0.470682
vt 0.491056 0.457863
vt 0.496556 0.422841
vt 0.498569 0.375000
vt 0.496556 0.327159
vt 0.491056 0.292137
vt 0.483542 0.279318
vt 0.476028 0.292137
vt 0.470528 0.327159
vt 0.468515 0.375000
vt 0.470528 0.422841
vt 0.476028 0.457863
vt 0.500000 0.000000
vt 0.500390 0.922841
vt 0.502011 0.875000
vt 0.500390 0.827159
vt 0.848010 0.500000
vt 0.848010 0.750000
vt 0.810540 0.750000
vt 0.810540 0.500000
vt 0.689460 0.750000
vt 0.651990 0.750000
vt 0.651990 0.500000
vt 0.689460 0.500000
vt 0.620760 0.447760
vt 0.625000 0.435540
vt 0.625000 0.473010
vt 0.622956 0.489111
vt 0.622956 0.260889
vt 0.625000 0.276990
vt 0.625000 0.314460
vt 0.620760 0.302240
vt 0.606333 0.291890
vt 0.592058 0.303714
vt 0.581718 0.334081
vt 0.577932 0.375000
vt 0.581718 0.415919
vt 0.592058 0.446285
vt 0.606333 0.458110
vt 0.000000 0.765797
vt 0.042127 0.765796
vt 0.833333 0.688168
vt 0.833333 0.772349
vt 0.916667 0.772349
vt 0.916667 0.688168
vt 0.750000 0.688168
vt 0.750000 0.772349
vt 0.666667 0.772349
vt 0.666667 0.688168
vt 0.633079 0.688168
vt 0.633079 0.772349
vt 0.366922 0.688168
vt 0.333333 0.688168
vt 0.333333 0.772349
vt 0.366922 0.772349
vt 0.250000 0.772349
vt 0.250000 0.688168
vt 0.166667 0.688168
vt 0.166667 0.772349
vt 0.083333 0.688168
vt 0.083333 0.772349
vt 0.957873 0.694720
vt 0.957873 0.765796
vt 0.042127 0.694720
vt 1.000000 0.694720
vt 1.000000 0.688168
vt 0.000000 0.772349
vt 1.000000 0.765797
vt 1.000000 0.772349
vt 0.000000 0.694720
vt 0.000000 0.688168
vt 1.000000 0.858419
vt 1.000000 0.685607
vt 0.916667 0.685607
vt 0.916667 0.858419
vt 0.833333 0.685607
vt 0.833333 0.858418
vt 0.750000 0.685607
vt 0.750000 0.858419
vt 0.666667 0.685607
vt 0.666667 0.858418
vt 0.590672 0.685607
vt 0.583333 0.684507
vt 0.583333 0.858419
vt 0.500000 0.858419
vt 0.500000 0.679934
vt 0.416667 0.858419
vt 0.416667 0.684507
vt 0.409328 0.685607
vt 0.333333 0.685607
vt 0.333333 0.858418
vt 0.250000 0.685607
vt 0.250000 0.858419
vt 0.166667 0.685607
vt 0.166667 0.858419
vt 0.083333 0.685607
vt 0.083333 0.858418
vt 0.000000 0.685607
vt 0.000000 0.858419
vt 0.863199 0.500000
vt 0.863199 0.750000
vt 0.623109 0.000000
vt 0.622956 0.250000
s 0
f 11/1/1 8/2/1 5/3/1 9/4/1
f 4/5/2 12/6/2 10/7/2 3/8/2
f 1/9/3 6/10/3 7/11/3 2/12/3
f 2/13/4 4/5/4 3/8/4 1/14/4
f 2/12/5 7/11/5 8/15/5 11/16/5 12/6/5 4/5/5
f 5/17/6 8/18/6 7/11/6 6/10/6
f 11/1/7 9/4/7 10/7/7 12/6/7
f 9/19/8 5/20/8 6/21/8 10/7/8
f 3/8/9 10/7/9 6/21/9 1/22/9
f 31/23/4 89/24/4 90/25/4 25/26/4 21/27/4 24/28/4 27/29/4 93/30/4 94/31/4 32/32/4 42/33/4 47/34/4 48/35/4 53/36/4 54/37/4 52/38/4 45/39/4 43/40/4 46/41/4
f 23/42/2 28/43/2 27/29/2 24/28/2
f 21/44/3 25/45/3 26/46/3 22/47/3
f 14/13/5 16/5/5 15/8/5 13/14/5
f 96/48/10 93/49/10 27/29/10 28/43/10
f 67/50/4 17/51/4 13/22/4 15/8/4 20/52/4 70/53/4 72/54/4 73/55/4 71/56/4 69/57/4 68/58/4 66/59/4 64/60/4 63/61/4 65/62/4
f 16/5/2 19/63/2 20/52/2 15/8/2
f 18/64/1 19/63/1 84/65/1 83/66/1 82/67/1 79/68/1 77/69/1 78/70/1 74/71/1
f 16/5/1 14/12/1 18/64/1 74/71/1 75/72/1 76/73/1 80/74/1 81/75/1 85/76/1 84/65/1 19/63/1
f 13/9/3 17/77/3 18/64/3 14/12/3
f 70/53/11 20/52/11 24/28/11 21/27/11 17/51/11 67/50/11 86/78/11 88/79/11 87/80/11
f 19/63/2 23/42/2 24/28/2 20/52/2
f 18/64/12 22/47/12 23/42/12 19/63/12
f 17/77/3 21/44/3 22/47/3 18/64/3
f 92/81/13 89/82/13 31/83/13 30/84/13
f 32/85/14 94/86/14 95/87/14 29/88/14
f 38/89/1 29/90/1 95/91/1 96/92/1 28/43/1 23/42/1 22/47/1 26/46/1 91/93/1 92/94/1 30/95/1 33/96/1 35/97/1 34/98/1 51/99/1 55/100/1 56/101/1 37/102/1 40/103/1
f 41/104/1 36/105/1 59/105/1 57/104/1
f 48/106/15 37/107/15 56/108/15 53/109/15
f 47/110/16 40/111/16 37/107/16 48/106/16
f 38/112/17 40/111/17 47/110/17 42/113/17
f 32/114/18 29/115/18 38/112/18 42/113/18
f 31/116/19 46/117/19 33/118/19 30/119/19
f 35/120/20 33/118/20 46/117/20 43/121/20
f 45/122/21 34/123/21 35/120/21 43/121/21
f 52/124/22 51/125/22 34/123/22 45/122/22
f 49/126/2 39/127/2 62/127/2 61/126/2
f 44/128/23 36/105/23 51/125/23 52/124/23
f 49/126/24 50/129/24 54/130/24 53/109/24
f 36/105/23 41/104/23 55/131/23 51/125/23
f 41/132/24 39/127/24 56/108/24 55/133/24
f 39/127/24 49/126/24 53/109/24 56/108/24
f 50/134/23 44/128/23 52/124/23 54/135/23
f 61/126/25 62/127/25 57/132/25 58/129/25
f 58/134/26 57/104/26 59/105/26 60/128/26
f 36/105/3 44/128/3 60/128/3 59/105/3
f 44/128/4 50/134/4 58/134/4 60/128/4
f 39/127/1 41/132/1 57/132/1 62/127/1
f 50/129/4 49/126/4 61/126/4 58/129/4
f 80/136/24 68/137/24 69/138/24 81/139/24
f 81/139/15 69/138/15 71/140/15 85/141/15
f 85/141/16 71/140/16 73/142/16 84/143/16
f 73/142/17 72/144/17 83/145/17 84/143/17
f 72/144/27 70/146/27 87/147/27 82/148/27 83/145/27
f 79/149/28 82/148/28 87/147/28 88/150/28
f 77/151/29 79/149/29 88/150/29 86/152/29
f 86/152/30 67/153/30 65/154/30 78/155/30 77/151/30
f 65/154/20 63/156/20 74/157/20 78/155/20
f 74/157/21 63/156/21 64/158/21 75/159/21
f 75/159/22 64/158/22 66/160/22 76/161/22
f 76/161/23 66/160/23 68/162/23 80/163/23
f 89/82/31 92/81/31 91/164/31 90/165/31
f 93/49/32 96/48/32 95/87/32 94/86/32
f 90/166/33 91/167/33 26/46/33 25/45/33
