# Blender 4.0.2
# www.blender.org
mtllib Picatinny.mtl
o Main3
v 0.135870 0.833205 -1.398311
v 0.135870 0.768810 -0.377080
v 0.135870 0.768810 -1.398311
v 0.135870 0.833205 -0.377080
v 0.135870 0.837844 -1.398311
v 0.135870 0.837844 -0.377080
v 0.166112 0.746233 -0.467809
v 0.166112 0.746233 -0.377080
v 0.135870 0.723628 -0.467809
v 0.135870 0.723628 -0.377080
v 0.166112 0.746233 -0.655929
v 0.166112 0.746233 -0.561869
v 0.135870 0.723628 -0.655929
v 0.135870 0.723628 -0.561869
v 0.166112 0.746233 -1.025454
v 0.166112 0.746233 -0.934726
v 0.135870 0.723628 -1.025454
v 0.135870 0.723628 -0.934726
v 0.166112 0.746233 -1.213574
v 0.166112 0.746233 -1.119514
v 0.135870 0.723628 -1.213574
v 0.135870 0.723628 -1.119514
v 0.166112 0.746233 -0.840666
v 0.166112 0.746233 -0.746606
v 0.135870 0.723628 -0.840666
v 0.135870 0.723628 -0.746606
v 0.166112 0.746233 -1.398311
v 0.166112 0.746233 -1.307634
v 0.135870 0.723628 -1.398311
v 0.135870 0.723628 -1.307634
v 0.135870 0.768810 -1.398311
v 0.135870 0.768810 -0.377080
v 0.166112 0.746206 -1.398311
v 0.166112 0.746206 -0.377080
v -0.139596 0.837844 -1.398311
v -0.139596 0.837844 -0.377080
v 0.135870 0.837844 -1.398311
v 0.135870 0.837844 -0.377080
v 0.166112 0.746233 -0.467809
v -0.166455 0.746233 -0.467809
v -0.166455 0.746233 -0.377080
v 0.166112 0.746233 -0.377080
v 0.166112 0.746233 -0.655929
v -0.166455 0.746233 -0.655929
v -0.166455 0.746233 -0.561869
v 0.166112 0.746233 -0.561869
v 0.166112 0.746233 -1.025454
v -0.166455 0.746233 -1.025454
v -0.166455 0.746233 -0.934726
v 0.166112 0.746233 -0.934726
v 0.166112 0.746233 -1.213574
v -0.166455 0.746233 -1.213574
v -0.166455 0.746233 -1.119514
v 0.166112 0.746233 -1.119514
v 0.166112 0.746233 -0.840666
v -0.166455 0.746233 -0.840666
v -0.166455 0.746233 -0.746606
v 0.166112 0.746233 -0.746606
v 0.166112 0.746233 -1.398311
v -0.166455 0.746233 -1.398311
v -0.166455 0.746233 -1.307634
v 0.166112 0.746233 -1.307634
v -0.166455 0.746206 -0.377080
v 0.166112 0.746206 -0.377080
v -0.139596 0.768810 -0.377080
v 0.135870 0.768810 -0.377080
v 0.135870 0.833205 -0.377080
v 0.135870 0.768810 -0.377080
v -0.139596 0.833205 -0.377080
v 0.135870 0.837844 -0.377080
v -0.139596 0.837844 -0.377080
v 0.166112 0.746233 -0.377080
v -0.166455 0.746233 -0.377080
v 0.135870 0.723628 -0.377080
v -0.139596 0.723628 -0.377080
v 0.166112 0.746233 -0.561869
v -0.166455 0.746233 -0.561869
v 0.135870 0.723628 -0.561869
v -0.139596 0.723628 -0.561869
v 0.166112 0.746233 -0.746606
v -0.166455 0.746233 -0.746606
v 0.135870 0.723628 -0.746606
v -0.139596 0.723628 -0.746606
v 0.166112 0.746233 -0.934726
v -0.166455 0.746233 -0.934726
v 0.135870 0.723628 -0.934726
v -0.139596 0.723628 -0.934726
v 0.166112 0.746233 -1.119514
v -0.166455 0.746233 -1.119514
v 0.135870 0.723628 -1.119514
v -0.139596 0.723628 -1.119514
v 0.166112 0.746233 -1.307634
v -0.166455 0.746233 -1.307634
v 0.135870 0.723628 -1.307634
v -0.139596 0.723628 -1.307634
v -0.139596 0.833205 -0.377080
v -0.139596 0.833205 -1.398311
v -0.139596 0.768810 -1.398311
v -0.139596 0.768810 -0.377080
v -0.139596 0.837844 -0.377080
v -0.139596 0.837844 -1.398311
v -0.139596 0.723628 -0.467809
v -0.139596 0.723628 -0.377080
v -0.166455 0.746233 -0.467809
v -0.166455 0.746233 -0.377080
v -0.139596 0.723628 -0.655929
v -0.139596 0.723628 -0.561869
v -0.166455 0.746233 -0.655929
v -0.166455 0.746233 -0.561869
v -0.139596 0.723628 -1.025454
v -0.139596 0.723628 -0.934726
v -0.166455 0.746233 -1.025454
v -0.166455 0.746233 -0.934726
v -0.139596 0.723628 -1.213574
v -0.139596 0.723628 -1.119514
v -0.166455 0.746233 -1.213574
v -0.166455 0.746233 -1.119514
v -0.139596 0.723628 -0.840666
v -0.139596 0.723628 -0.746606
v -0.166455 0.746233 -0.840666
v -0.166455 0.746233 -0.746606
v -0.139596 0.723628 -1.398311
v -0.139596 0.723628 -1.307634
v -0.166455 0.746233 -1.398311
v -0.166455 0.746233 -1.307634
v -0.166455 0.746206 -1.398311
v -0.166455 0.746206 -0.377080
v -0.139596 0.768810 -1.398311
v -0.139596 0.768810 -0.377080
v 0.135870 0.723628 -0.377080
v -0.139596 0.723628 -0.467809
v 0.135870 0.723628 -0.467809
v -0.139596 0.723628 -0.377080
v 0.135870 0.723628 -0.561869
v -0.139596 0.723628 -0.655929
v 0.135870 0.723628 -0.655929
v -0.139596 0.723628 -0.561869
v 0.135870 0.723628 -0.934726
v -0.139596 0.723628 -1.025454
v 0.135870 0.723628 -1.025454
v -0.139596 0.723628 -0.934726
v 0.135870 0.723628 -1.119514
v -0.139596 0.723628 -1.213574
v 0.135870 0.723628 -1.213574
v -0.139596 0.723628 -1.119514
v 0.135870 0.723628 -0.746606
v -0.139596 0.723628 -0.840666
v 0.135870 0.723628 -0.840666
v -0.139596 0.723628 -0.746606
v 0.135870 0.723628 -1.307634
v -0.139596 0.723628 -1.398311
v 0.135870 0.723628 -1.398311
v -0.139596 0.723628 -1.307634
v 0.166112 0.746206 -0.377080
v -0.166455 0.746206 -1.398311
v 0.166112 0.746206 -1.398311
v -0.166455 0.746206 -0.377080
v -0.166455 0.746233 -1.398311
v 0.166112 0.746233 -1.398311
v -0.139596 0.723628 -1.398311
v 0.135870 0.723628 -1.398311
v 0.166112 0.746206 -1.398311
v -0.166455 0.746206 -1.398311
v 0.135870 0.768810 -1.398311
v -0.139596 0.768810 -1.398311
v -0.139596 0.833205 -1.398311
v -0.139596 0.768810 -1.398311
v 0.135870 0.833205 -1.398311
v -0.139596 0.837844 -1.398311
v 0.135870 0.837844 -1.398311
v -0.166455 0.746233 -1.213574
v 0.166112 0.746233 -1.213574
v -0.139596 0.723628 -1.213574
v 0.135870 0.723628 -1.213574
v -0.166455 0.746233 -1.025454
v 0.166112 0.746233 -1.025454
v -0.139596 0.723628 -1.025454
v 0.135870 0.723628 -1.025454
v -0.166455 0.746233 -0.840666
v 0.166112 0.746233 -0.840666
v -0.139596 0.723628 -0.840666
v 0.135870 0.723628 -0.840666
v -0.166455 0.746233 -0.655929
v 0.166112 0.746233 -0.655929
v -0.139596 0.723628 -0.655929
v 0.135870 0.723628 -0.655929
v -0.166455 0.746233 -0.467809
v 0.166112 0.746233 -0.467809
v -0.139596 0.723628 -0.467809
v 0.135870 0.723628 -0.467809
vn 1.0000 -0.0000 -0.0000
vn 0.6186 -0.7857 -0.0000
vn 0.6216 -0.7834 -0.0000
vn 0.6216 -0.7833 -0.0000
vn 0.6196 -0.7849 -0.0000
vn 0.6191 -0.7853 -0.0000
vn 0.6212 0.7837 -0.0000
vn 0.6212 0.7836 -0.0000
vn 0.6192 0.7852 -0.0000
vn -0.0000 1.0000 -0.0000
vn -0.0000 -1.0000 -0.0000
vn -0.0000 -0.0000 1.0000
vn -0.0000 -0.0000 -1.0000
vn -1.0000 -0.0000 -0.0000
vn -0.6193 -0.7852 -0.0000
vn -0.6188 -0.7856 -0.0000
vn -0.6188 -0.7855 -0.0000
vn -0.6220 -0.7830 -0.0000
vn -0.6221 -0.7829 -0.0000
vn -0.6221 -0.7830 -0.0000
vn -0.6198 -0.7848 -0.0000
vn -0.6191 0.7853 -0.0000
vn -0.6192 0.7852 -0.0000
vt 24.018999 -34.998001
vt 23.980900 -35.000401
vt 24.018999 -35.000401
vt 23.980900 -34.998001
vt 24.018999 -34.997898
vt 23.980900 -34.997898
vt 23.984400 -35.001301
vt 23.980900 -35.001301
vt 23.984400 -35.002102
vt 23.980900 -35.002102
vt 23.991301 -35.001301
vt 23.987900 -35.001301
vt 23.991301 -35.002102
vt 23.987900 -35.002102
vt 24.005199 -35.001301
vt 24.001699 -35.001301
vt 24.005199 -35.002102
vt 24.001699 -35.002102
vt 24.012100 -35.001301
vt 24.008600 -35.001301
vt 24.012100 -35.002102
vt 24.008600 -35.002102
vt 23.998301 -35.001301
vt 23.994801 -35.001301
vt 23.998301 -35.002102
vt 23.994801 -35.002102
vt 24.019100 -35.001301
vt 24.015600 -35.001301
vt 24.019100 -35.002102
vt 24.015600 -35.002102
vt 24.018999 -35.001301
vt 24.005100 -35.019001
vt 24.005100 -34.980900
vt 23.994900 -35.019001
vt 23.994900 -34.980900
vt 23.993799 -34.984402
vt 24.006201 -34.980900
vt 24.006201 -34.984402
vt 23.993799 -34.980900
vt 23.993799 -34.991299
vt 24.006201 -34.987900
vt 24.006201 -34.991299
vt 23.993799 -34.987900
vt 23.993799 -35.005199
vt 24.006201 -35.001701
vt 24.006201 -35.005199
vt 23.993799 -35.001701
vt 23.993799 -35.012100
vt 24.006201 -35.008598
vt 24.006201 -35.012100
vt 23.993799 -35.008598
vt 23.993799 -34.998299
vt 24.006201 -34.994801
vt 24.006201 -34.998299
vt 23.993799 -34.994801
vt 23.993799 -35.019100
vt 24.006201 -35.015598
vt 24.006201 -35.019100
vt 23.993799 -35.015598
vt 23.993799 -35.001301
vt 24.006201 -35.001301
vt 23.994900 -35.000401
vt 24.005100 -35.000401
vt 24.005100 -34.998001
vt 23.994900 -34.998001
vt 24.005100 -34.997898
vt 23.994900 -34.997898
vt 24.005100 -35.002102
vt 23.994900 -35.002102
vt 24.019100 -34.998001
vt 23.981001 -34.998001
vt 23.981001 -35.000401
vt 24.019100 -35.000401
vt 24.019100 -34.997898
vt 23.981001 -34.997898
vt 24.008699 -35.002102
vt 24.008699 -35.001301
vt 23.991400 -35.002102
vt 23.991400 -35.001301
vt 23.981001 -35.001301
vt 23.994900 -34.984402
vt 24.005100 -34.984402
vt 24.005100 -34.987900
vt 23.994900 -34.991299
vt 24.005100 -34.991299
vt 23.994900 -34.987900
vt 24.005100 -35.001701
vt 23.994900 -35.005199
vt 24.005100 -35.005199
vt 23.994900 -35.001701
vt 24.005100 -35.008598
vt 23.994900 -35.012100
vt 24.005100 -35.012100
vt 23.994900 -35.008598
vt 24.005100 -34.994801
vt 23.994900 -34.998299
vt 24.005100 -34.998299
vt 23.994900 -34.994801
vt 24.005100 -35.015598
vt 23.994900 -35.019100
vt 24.005100 -35.019100
vt 23.994900 -35.015598
vt 23.993799 -35.019001
vt 24.006201 -35.019001
s 0
usemtl Meshpart1Mtl.003
f 1/1/1 2/2/1 3/3/1
f 2/2/1 1/1/1 4/4/1
f 5/5/1 4/4/1 1/1/1
f 4/4/1 5/5/1 6/6/1
f 7/7/2 8/8/2 9/9/2
f 9/9/3 8/8/4 10/10/3
f 11/11/5 12/12/5 13/13/5
f 13/13/5 12/12/5 14/14/5
f 15/15/2 16/16/2 17/17/2
f 17/17/3 16/16/4 18/18/3
f 19/19/5 20/20/5 21/21/5
f 21/21/5 20/20/5 22/22/5
f 23/23/5 24/24/5 25/25/5
f 25/25/5 24/24/5 26/26/5
f 27/27/6 28/28/6 29/29/6
f 29/29/3 28/28/4 30/30/3
f 31/3/7 32/2/7 33/31/8
f 33/31/9 32/2/9 34/8/9
f 35/32/10 36/33/10 37/34/10
f 37/34/10 36/33/10 38/35/10
f 39/36/11 41/37/11 40/38/11
f 39/36/11 42/39/11 41/37/11
f 43/40/11 45/41/11 44/42/11
f 43/40/11 46/43/11 45/41/11
f 47/44/11 49/45/11 48/46/11
f 47/44/11 50/47/11 49/45/11
f 51/48/11 53/49/11 52/50/11
f 51/48/11 54/51/11 53/49/11
f 55/52/11 57/53/11 56/54/11
f 55/52/11 58/55/11 57/53/11
f 59/56/11 61/57/11 60/58/11
f 59/56/11 62/59/11 61/57/11
f 63/60/12 64/61/12 65/62/12
f 65/62/12 64/61/12 66/63/12
f 67/64/12 65/62/12 68/63/12
f 65/62/12 67/64/12 69/65/12
f 70/66/12 69/65/12 67/64/12
f 69/65/12 70/66/12 71/67/12
f 72/61/12 73/60/12 74/68/12
f 74/68/12 73/60/12 75/69/12
f 76/61/12 77/60/12 78/68/12
f 78/68/12 77/60/12 79/69/12
f 80/61/12 81/60/12 82/68/12
f 82/68/12 81/60/12 83/69/12
f 84/61/13 86/68/13 85/60/13
f 86/68/13 87/69/13 85/60/13
f 88/61/13 90/68/13 89/60/13
f 90/68/13 91/69/13 89/60/13
f 92/61/13 94/68/13 93/60/13
f 94/68/13 95/69/13 93/60/13
f 96/70/14 97/71/14 98/72/14
f 98/72/14 99/73/14 96/70/14
f 97/71/14 96/70/14 100/74/14
f 100/74/14 101/75/14 97/71/14
f 102/30/15 103/29/15 104/28/15
f 104/28/15 103/29/15 105/27/15
f 106/76/16 107/21/16 108/77/17
f 108/77/18 107/21/19 109/19/18
f 110/26/15 111/25/15 112/24/15
f 112/24/15 111/25/15 113/23/15
f 114/14/16 115/78/16 116/12/17
f 116/12/18 115/78/20 117/79/18
f 118/18/16 119/17/16 120/16/17
f 120/16/18 119/17/20 121/15/18
f 122/10/21 123/9/21 124/8/21
f 124/8/15 123/9/15 125/7/15
f 126/80/22 127/27/22 128/72/22
f 128/72/23 127/27/23 129/73/23
f 130/33/11 131/81/11 132/82/11
f 131/81/11 130/33/11 133/35/11
f 134/83/11 135/84/11 136/85/11
f 135/84/11 134/83/11 137/86/11
f 138/87/11 139/88/11 140/89/11
f 139/88/11 138/87/11 141/90/11
f 142/91/11 143/92/11 144/93/11
f 143/92/11 142/91/11 145/94/11
f 146/95/11 147/96/11 148/97/11
f 147/96/11 146/95/11 149/98/11
f 150/99/11 151/100/11 152/101/11
f 151/100/11 150/99/11 153/102/11
f 154/37/11 155/103/11 156/104/11
f 155/103/11 154/37/11 157/39/11
f 158/61/13 159/60/13 160/68/13
f 160/68/13 159/60/13 161/69/13
f 162/60/13 163/61/13 164/62/13
f 164/62/13 163/61/13 165/63/13
f 166/64/13 164/62/13 167/63/13
f 166/64/13 168/65/13 164/62/13
f 169/66/13 168/65/13 166/64/13
f 169/66/13 170/67/13 168/65/13
f 171/61/13 172/60/13 173/68/13
f 173/68/13 172/60/13 174/69/13
f 175/61/13 176/60/13 177/68/13
f 177/68/13 176/60/13 178/69/13
f 179/61/12 181/68/12 180/60/12
f 181/68/12 182/69/12 180/60/12
f 183/61/12 185/68/12 184/60/12
f 185/68/12 186/69/12 184/60/12
f 187/61/12 189/68/12 188/60/12
f 189/68/12 190/69/12 188/60/12
