# Blender 4.0.2
# www.blender.org
mtllib Slide2.mtl
o Cylinder.001
v 0.000000 1.548063 -1.513588
v 0.000000 1.548063 -1.564389
v 0.017961 1.555503 -1.513588
v 0.017961 1.555503 -1.564389
v 0.025401 1.573464 -1.513588
v 0.025401 1.573464 -1.564389
v 0.017961 1.591425 -1.513588
v 0.017961 1.591425 -1.564389
v 0.000000 1.598865 -1.513588
v 0.000000 1.598865 -1.564389
v -0.017961 1.591425 -1.513588
v -0.017961 1.591425 -1.564389
v -0.025401 1.573464 -1.513588
v -0.025401 1.573464 -1.564389
v -0.017961 1.555503 -1.513588
v -0.017961 1.555503 -1.564389
v 0.057115 1.556917 1.497036
v 0.057115 1.556917 1.473118
v 0.071997 1.563081 1.497036
v 0.071997 1.563081 1.473118
v 0.078161 1.577962 1.497036
v 0.078161 1.577962 1.473118
v 0.071997 1.592844 1.497036
v 0.071997 1.592844 1.473118
v 0.057115 1.599008 1.497036
v 0.057115 1.599008 1.473118
v 0.042234 1.592844 1.497036
v 0.042234 1.592844 1.473118
v 0.036070 1.577962 1.497036
v 0.036070 1.577962 1.473118
v 0.042234 1.563081 1.497036
v 0.042234 1.563081 1.473118
v -0.057115 1.556917 1.497036
v -0.057115 1.556917 1.473118
v -0.071997 1.563081 1.497036
v -0.071997 1.563081 1.473118
v -0.078161 1.577962 1.497036
v -0.078161 1.577962 1.473118
v -0.071997 1.592844 1.497036
v -0.071997 1.592844 1.473118
v -0.057115 1.599008 1.497036
v -0.057115 1.599008 1.473118
v -0.042234 1.592844 1.497036
v -0.042234 1.592844 1.473118
v -0.036070 1.577962 1.497036
v -0.036070 1.577962 1.473118
v -0.042234 1.563081 1.497036
v -0.042234 1.563081 1.473118
vn 0.3827 -0.9239 -0.0000
vn 0.9239 -0.3827 -0.0000
vn 0.9239 0.3827 -0.0000
vn 0.3827 0.9239 -0.0000
vn -0.3827 0.9239 -0.0000
vn -0.9239 0.3827 -0.0000
vn -0.0000 -0.0000 -1.0000
vn -0.9239 -0.3827 -0.0000
vn -0.3827 -0.9239 -0.0000
vn -0.0000 -0.0000 1.0000
vt 1.000000 0.500000
vt 1.000000 1.000000
vt 0.875000 1.000000
vt 0.875000 0.500000
vt 0.750000 1.000000
vt 0.750000 0.500000
vt 0.625000 1.000000
vt 0.625000 0.500000
vt 0.500000 1.000000
vt 0.500000 0.500000
vt 0.375000 1.000000
vt 0.375000 0.500000
vt 0.250000 1.000000
vt 0.250000 0.500000
vt 0.419706 0.419706
vt 0.250000 0.490000
vt 0.080294 0.419706
vt 0.010000 0.250000
vt 0.080294 0.080294
vt 0.250000 0.010000
vt 0.419706 0.080294
vt 0.490000 0.250000
vt 0.125000 1.000000
vt 0.125000 0.500000
vt 0.000000 1.000000
vt 0.000000 0.500000
vt 0.750000 0.490000
vt 0.919706 0.419706
vt 0.990000 0.250000
vt 0.919706 0.080294
vt 0.750000 0.010000
vt 0.580294 0.080294
vt 0.510000 0.250000
vt 0.580294 0.419706
s 0
f 1/1/1 2/2/1 4/3/1 3/4/1
f 3/4/2 4/3/2 6/5/2 5/6/2
f 5/6/3 6/5/3 8/7/3 7/8/3
f 7/8/4 8/7/4 10/9/4 9/10/4
f 9/10/5 10/9/5 12/11/5 11/12/5
f 11/12/6 12/11/6 14/13/6 13/14/6
f 4/15/7 2/16/7 16/17/7 14/18/7 12/19/7 10/20/7 8/21/7 6/22/7
f 13/14/8 14/13/8 16/23/8 15/24/8
f 15/24/9 16/23/9 2/25/9 1/26/9
f 1/27/10 3/28/10 5/29/10 7/30/10 9/31/10 11/32/10 13/33/10 15/34/10
f 17/1/1 18/2/1 20/3/1 19/4/1
f 19/4/2 20/3/2 22/5/2 21/6/2
f 21/6/3 22/5/3 24/7/3 23/8/3
f 23/8/4 24/7/4 26/9/4 25/10/4
f 25/10/5 26/9/5 28/11/5 27/12/5
f 27/12/6 28/11/6 30/13/6 29/14/6
f 20/15/7 18/16/7 32/17/7 30/18/7 28/19/7 26/20/7 24/21/7 22/22/7
f 29/14/8 30/13/8 32/23/8 31/24/8
f 31/24/9 32/23/9 18/25/9 17/26/9
f 17/27/10 19/28/10 21/29/10 23/30/10 25/31/10 27/32/10 29/33/10 31/34/10
f 33/1/9 35/4/9 36/3/9 34/2/9
f 35/4/8 37/6/8 38/5/8 36/3/8
f 37/6/6 39/8/6 40/7/6 38/5/6
f 39/8/5 41/10/5 42/9/5 40/7/5
f 41/10/4 43/12/4 44/11/4 42/9/4
f 43/12/3 45/14/3 46/13/3 44/11/3
f 36/15/7 38/22/7 40/21/7 42/20/7 44/19/7 46/18/7 48/17/7 34/16/7
f 45/14/2 47/24/2 48/23/2 46/13/2
f 47/24/1 33/26/1 34/25/1 48/23/1
f 33/27/10 47/34/10 45/33/10 43/32/10 41/31/10 39/30/10 37/29/10 35/28/10
