# Blender 4.4.3
# www.blender.org
mtllib Barrel1.mtl
o Cylinder
v 0.000000 0.530117 -2.456162
v 0.000000 0.546329 0.281867
v 0.043415 0.512134 -2.456162
v 0.054879 0.523597 0.281867
v 0.061398 0.468719 -2.456162
v 0.077610 0.468719 0.281867
v 0.043415 0.425304 -2.456162
v 0.054879 0.413840 0.281867
v 0.000000 0.407320 -2.456162
v 0.000000 0.391108 0.281867
v -0.043415 0.425304 -2.456162
v -0.054879 0.413840 0.281867
v -0.061398 0.468719 -2.456162
v -0.077610 0.468719 0.281867
v -0.043415 0.512134 -2.456162
v -0.054879 0.523597 0.281867
v 0.000000 0.546329 -2.456162
v 0.054879 0.523597 -2.456162
v 0.077610 0.468719 -2.456162
v 0.054879 0.413840 -2.456162
v 0.000000 0.391108 -2.456162
v -0.054879 0.413840 -2.456162
v -0.077610 0.468719 -2.456162
v -0.054879 0.523597 -2.456162
v 0.000000 0.530117 -2.472945
v 0.043415 0.512134 -2.472945
v 0.061398 0.468719 -2.472945
v 0.043415 0.425304 -2.472945
v 0.000000 0.407320 -2.472945
v -0.043415 0.425304 -2.472945
v -0.061398 0.468719 -2.472945
v -0.043415 0.512134 -2.472945
v 0.000000 0.537142 -2.478245
v 0.048383 0.517101 -2.478245
v 0.068423 0.468719 -2.478245
v 0.048383 0.420336 -2.478245
v 0.000000 0.400295 -2.478245
v -0.048383 0.420336 -2.478245
v -0.068423 0.468719 -2.478245
v -0.048383 0.517101 -2.478245
v 0.000000 0.537142 -2.518876
v 0.048383 0.517101 -2.518876
v 0.068423 0.468719 -2.518876
v 0.048383 0.420336 -2.518876
v 0.000000 0.400295 -2.518876
v -0.048383 0.420336 -2.518876
v -0.068423 0.468719 -2.518876
v -0.048383 0.517101 -2.518876
v 0.000000 0.530220 -2.537426
v 0.043488 0.512206 -2.537426
v 0.061501 0.468719 -2.537426
v 0.043488 0.425231 -2.537426
v 0.000000 0.407218 -2.537426
v -0.043488 0.425231 -2.537426
v -0.061501 0.468719 -2.537426
v -0.043488 0.512206 -2.537426
v -0.054353 0.468719 0.281867
v -0.038434 0.507152 0.281867
v 0.038434 0.507152 0.281867
v 0.054353 0.468719 0.281867
v 0.000000 0.523072 0.281867
v -0.038434 0.430285 0.281867
v 0.038434 0.430285 0.281867
v 0.000000 0.414365 0.281867
v 0.000000 0.523072 -2.537426
v 0.054353 0.468719 -2.537426
v 0.000000 0.414365 -2.537426
v -0.054353 0.468719 -2.537426
v 0.038434 0.507152 -2.537426
v -0.038434 0.430285 -2.537426
v -0.038434 0.507152 -2.537426
v 0.038434 0.430285 -2.537426
vn 0.3827 0.9239 -0.0000
vn 0.9239 0.3827 -0.0000
vn 0.9239 -0.3827 -0.0000
vn 0.3827 -0.9239 -0.0000
vn -0.3827 -0.9239 -0.0000
vn -0.9239 -0.3827 -0.0000
vn -0.0000 -0.0000 1.0000
vn -0.9239 0.3827 -0.0000
vn -0.3827 0.9239 -0.0000
vn -0.0000 -0.0000 -1.0000
vn 0.2420 0.5843 0.7746
vn -0.2420 0.5843 0.7746
vn -0.5843 -0.2420 0.7746
vn 0.2420 -0.5843 0.7746
vn 0.5843 0.2420 0.7746
vn -0.5843 0.2420 0.7746
vn -0.2420 -0.5843 0.7746
vn 0.5843 -0.2420 0.7746
vn 0.8734 0.3618 -0.3259
vn -0.8734 0.3618 -0.3259
vn -0.3618 -0.8734 -0.3259
vn 0.8734 -0.3618 -0.3259
vn 0.3618 0.8734 -0.3259
vn -0.3618 0.8734 -0.3259
vn -0.8734 -0.3618 -0.3259
vn 0.3618 -0.8734 -0.3259
vt 1.000000 0.500000
vt 1.000000 1.000000
vt 0.875000 1.000000
vt 0.875000 0.500000
vt 0.750000 1.000000
vt 0.750000 0.500000
vt 0.625000 1.000000
vt 0.625000 0.500000
vt 0.500000 1.000000
vt 0.500000 0.500000
vt 0.375000 1.000000
vt 0.375000 0.500000
vt 0.250000 1.000000
vt 0.250000 0.500000
vt 0.418081 0.250000
vt 0.490000 0.250000
vt 0.419706 0.419706
vt 0.250000 0.490000
vt 0.250000 0.418081
vt 0.368851 0.368851
vt 0.080294 0.419706
vt 0.010000 0.250000
vt 0.080294 0.080294
vt 0.250000 0.010000
vt 0.419706 0.080294
vt 0.368851 0.131149
vt 0.250000 0.081920
vt 0.131149 0.131149
vt 0.081919 0.250000
vt 0.131149 0.368851
vt 0.125000 1.000000
vt 0.125000 0.500000
vt 0.000000 1.000000
vt 0.000000 0.500000
vt 0.615744 0.115745
vt 0.560134 0.250000
vt 0.884256 0.384255
vt 0.750000 0.439866
vt 0.750000 0.490000
vt 0.919706 0.419706
vt 0.939866 0.250000
vt 0.990000 0.250000
vt 0.884255 0.115745
vt 0.919706 0.080294
vt 0.750000 0.060134
vt 0.750000 0.010000
vt 0.580294 0.080294
vt 0.510000 0.250000
vt 0.615744 0.384255
vt 0.580294 0.419706
vt 0.868652 0.131348
vt 0.917799 0.250000
vt 0.868652 0.368652
vt 0.750000 0.417800
vt 0.631348 0.368652
vt 0.582200 0.250000
vt 0.631348 0.131348
vt 0.750000 0.082200
vt 0.875000 0.628553
vt 0.875000 0.890435
vt 1.000000 0.890435
vt 1.000000 0.628553
vt 0.750000 0.890435
vt 0.750000 0.628553
vt 0.625000 0.628553
vt 0.625000 0.890435
vt 0.500000 0.890435
vt 0.500000 0.628553
vt 0.375000 0.890435
vt 0.375000 0.628553
vt 0.250000 0.628553
vt 0.250000 0.890435
vt 0.125000 0.628553
vt 0.125000 0.890435
vt 0.000000 0.628553
vt 0.000000 0.890435
s 0
f 17/1/1 2/2/1 4/3/1 18/4/1
f 18/4/2 4/3/2 6/5/2 19/6/2
f 19/6/3 6/5/3 8/7/3 20/8/3
f 20/8/4 8/7/4 10/9/4 21/10/4
f 21/10/5 10/9/5 12/11/5 22/12/5
f 22/12/6 12/11/6 14/13/6 23/14/6
f 60/15/7 6/16/7 4/17/7 2/18/7 61/19/7 59/20/7
f 61/19/7 2/18/7 16/21/7 14/22/7 12/23/7 10/24/7 8/25/7 6/16/7 60/15/7 63/26/7 64/27/7 62/28/7 57/29/7 58/30/7
f 23/14/8 14/13/8 16/31/8 24/32/8
f 24/32/9 16/31/9 2/33/9 17/34/9
f 11/35/6 13/36/6 31/36/6 30/35/6
f 3/37/10 1/38/10 17/39/10 18/40/10
f 5/41/10 3/37/10 18/40/10 19/42/10
f 7/43/10 5/41/10 19/42/10 20/44/10
f 9/45/10 7/43/10 20/44/10 21/46/10
f 11/35/10 9/45/10 21/46/10 22/47/10
f 13/36/10 11/35/10 22/47/10 23/48/10
f 15/49/10 13/36/10 23/48/10 24/50/10
f 1/38/10 15/49/10 24/50/10 17/39/10
f 25/38/11 26/37/11 34/37/11 33/38/11
f 7/43/4 9/45/4 29/45/4 28/43/4
f 3/37/2 5/41/2 27/41/2 26/37/2
f 13/36/8 15/49/8 32/49/8 31/36/8
f 9/45/5 11/35/5 30/35/5 29/45/5
f 5/41/3 7/43/3 28/43/3 27/41/3
f 1/38/1 3/37/1 26/37/1 25/38/1
f 15/49/9 1/38/9 25/38/9 32/49/9
f 39/36/8 40/49/8 48/49/8 47/36/8
f 32/49/12 25/38/12 33/38/12 40/49/12
f 30/35/13 31/36/13 39/36/13 38/35/13
f 28/43/14 29/45/14 37/45/14 36/43/14
f 26/37/15 27/41/15 35/41/15 34/37/15
f 31/36/16 32/49/16 40/49/16 39/36/16
f 29/45/17 30/35/17 38/35/17 37/45/17
f 27/41/18 28/43/18 36/43/18 35/41/18
f 42/37/19 43/41/19 51/41/19 50/37/19
f 37/45/5 38/35/5 46/35/5 45/45/5
f 35/41/3 36/43/3 44/43/3 43/41/3
f 33/38/1 34/37/1 42/37/1 41/38/1
f 40/49/9 33/38/9 41/38/9 48/49/9
f 38/35/6 39/36/6 47/36/6 46/35/6
f 36/43/4 37/45/4 45/45/4 44/43/4
f 34/37/2 35/41/2 43/41/2 42/37/2
f 53/45/10 54/35/10 55/36/10 56/49/10 49/38/10 50/37/10 51/41/10 52/43/10 72/51/10 66/52/10 69/53/10 65/54/10 71/55/10 68/56/10 70/57/10 67/58/10
f 72/51/10 52/43/10 53/45/10 67/58/10
f 47/36/20 48/49/20 56/49/20 55/36/20
f 45/45/21 46/35/21 54/35/21 53/45/21
f 43/41/22 44/43/22 52/43/22 51/41/22
f 41/38/23 42/37/23 50/37/23 49/38/23
f 48/49/24 41/38/24 49/38/24 56/49/24
f 46/35/25 47/36/25 55/36/25 54/35/25
f 44/43/26 45/45/26 53/45/26 52/43/26
f 69/59/5 59/60/5 61/61/5 65/62/5
f 60/63/6 59/60/6 69/59/6 66/64/6
f 72/65/8 63/66/8 60/63/8 66/64/8
f 64/67/9 63/66/9 72/65/9 67/68/9
f 62/69/1 64/67/1 67/68/1 70/70/1
f 68/71/2 57/72/2 62/69/2 70/70/2
f 71/73/3 58/74/3 57/72/3 68/71/3
f 65/75/4 61/76/4 58/74/4 71/73/4
