# Blender 4.4.3
# www.blender.org
mtllib Lid1.mtl
o Cube.011
v -0.114629 0.503959 -1.726352
v -0.163858 0.480294 -1.726352
v -0.191438 0.663745 -1.726352
v -0.128532 0.532882 -1.726352
v -0.177762 0.509218 -1.726352
v -0.240668 0.640081 -1.726352
v -0.179318 0.638534 -1.698912
v -0.140651 0.558094 -1.698912
v -0.189881 0.534429 -1.698912
v -0.228548 0.614869 -1.698912
v -0.194854 0.670853 -1.726352
v -0.217378 0.686882 -1.726352
v -0.126666 0.498173 -1.550446
v -0.114629 0.503959 -1.570782
v -0.242534 0.674790 -1.726352
v -0.244084 0.647188 -1.726352
v -0.163858 0.480294 -1.570782
v -0.151821 0.486081 -1.550446
v -0.134125 0.544517 -1.570782
v -0.147152 0.540789 -1.550446
v -0.194854 0.670853 -1.666266
v -0.217378 0.686882 -1.663589
v -0.171035 0.621302 -1.584410
v -0.188205 0.626193 -1.565604
v -0.188122 0.656847 -1.617544
v -0.209561 0.670621 -1.607017
v -0.244084 0.647188 -1.666266
v -0.242534 0.674790 -1.663589
v -0.183355 0.520852 -1.570782
v -0.172307 0.528697 -1.550446
v -0.237352 0.633183 -1.617544
v -0.234717 0.658529 -1.607017
v -0.220265 0.597637 -1.584410
v -0.213360 0.614101 -1.565604
vn -0.9013 -0.4332 -0.0000
vn -0.0000 -0.0000 -1.0000
vn 0.3034 -0.6311 -0.7139
vn -0.0000 -0.0000 1.0000
vn -0.2787 0.5797 0.7657
vn -0.4128 0.8587 0.3039
vn 0.9013 0.4332 -0.0000
vn -0.4332 0.9013 -0.0000
vn 0.4332 -0.9013 -0.0000
vn -0.0684 0.1424 0.9874
vn -0.3034 0.6311 -0.7139
vn -0.9881 0.0411 0.1483
vn 0.5851 0.7973 0.1483
vn -0.9151 -0.0698 0.3971
vn 0.6261 0.6711 0.3971
vn -0.7919 -0.2848 0.5401
vn 0.7171 0.4406 0.5401
vn 0.5798 0.8147 -0.0000
vn -0.9984 0.0561 -0.0000
vn 0.7533 0.3621 0.5490
vn -0.7533 -0.3621 0.5490
vt 0.407732 0.668584
vt 0.422808 0.597490
vt 0.466653 0.549818
vt 0.554937 0.530020
vt 0.625000 0.528902
vt 0.625000 0.750000
vt 0.541667 0.750000
vt 0.535072 0.750000
vt 0.464928 0.750000
vt 0.458333 0.750000
vt 0.437856 0.750000
vt 0.625000 1.000000
vt 0.541667 1.000000
vt 0.464928 1.000000
vt 0.458333 1.000000
vt 0.535800 0.278902
vt 0.625000 0.278902
vt 0.625000 0.471098
vt 0.535800 0.471098
vt 0.346098 0.580400
vt 0.153902 0.580400
vt 0.153902 0.500000
vt 0.346098 0.500000
vt 0.346098 0.660800
vt 0.153902 0.660800
vt 0.346098 0.580400
vt 0.437856 0.000000
vt 0.458333 0.000000
vt 0.464928 0.000000
vt 0.535072 0.000000
vt 0.541667 0.000000
vt 0.625000 0.000000
vt 0.625000 0.221098
vt 0.554937 0.219980
vt 0.466653 0.200182
vt 0.422808 0.152510
vt 0.407732 0.081416
vt 0.346098 0.750000
vt 0.153902 0.750000
vt 0.625000 0.528902
vt 0.653902 0.500000
vt 0.846098 0.500000
vt 0.875000 0.528902
vt 0.875000 0.750000
vt 0.375000 0.471098
vt 0.375000 0.278902
vt 0.535072 0.750000
vt 0.535072 1.000000
vt 0.375000 0.587880
vt 0.375000 0.657125
vt 0.125000 0.657125
vt 0.125000 0.587880
vt 0.375000 0.508594
vt 0.375000 0.572920
vt 0.125000 0.572920
vt 0.125000 0.508594
vt 0.455400 0.521543
vt 0.535800 0.500000
vt 0.535800 0.250000
vt 0.455400 0.228457
vt 0.125000 0.750000
vt 0.125000 0.664605
vt 0.375000 0.778902
vt 0.437856 1.000000
vt 0.375000 0.971098
s 0
f 27/1/1 16/11/1 6/10/1 10/9/1 9/8/1 5/7/1 2/6/1 17/5/1 29/4/1 33/3/1 31/2/1
f 5/7/2 4/13/2 1/12/2 2/6/2
f 6/10/3 3/15/3 7/14/3 10/9/3
f 20/16/4 30/19/4 18/18/4 13/17/4
f 32/20/5 34/23/5 24/22/5 26/21/5
f 28/24/6 32/26/6 26/21/6 22/25/6
f 11/27/7 21/37/7 25/36/7 23/35/7 19/34/7 14/33/7 1/32/7 4/31/7 8/30/7 7/29/7 3/28/7
f 22/25/8 12/39/8 15/38/8 28/24/8
f 17/40/9 2/6/9 1/44/9 14/43/9 13/42/9 18/41/9
f 34/45/10 30/19/10 20/16/10 24/46/10
f 9/47/2 10/9/2 7/14/2 8/48/2
f 9/47/11 8/48/11 4/13/11 5/7/11
f 31/49/12 32/26/12 28/24/12 27/50/12
f 21/51/13 22/25/13 26/21/13 25/52/13
f 33/53/14 34/23/14 32/20/14 31/54/14
f 25/55/15 26/21/15 24/22/15 23/56/15
f 29/4/16 30/58/16 34/57/16 33/3/16
f 23/35/17 24/60/17 20/59/17 19/34/17
f 11/61/18 12/39/18 22/25/18 21/62/18
f 27/1/19 28/24/19 15/38/19 16/11/19
f 13/17/20 14/33/20 19/34/20 20/16/20
f 17/5/21 18/18/21 30/19/21 29/4/21
f 15/63/2 12/65/2 11/64/2 3/15/2 6/10/2 16/11/2
