# Blender 4.4.3
# www.blender.org
mtllib Lid2.mtl
o Cube.010
v -0.070912 0.342290 -0.604824
v -0.144909 0.464032 -0.604824
v -0.070912 0.342290 -1.720108
v -0.144388 0.474850 -1.648577
v -0.041025 0.360455 -0.604824
v -0.115022 0.482198 -0.604824
v -0.041025 0.360455 -1.720108
v -0.121181 0.480657 -1.648577
v -0.070912 0.342290 -0.689652
v -0.150548 0.473309 -0.689653
v -0.041025 0.360455 -0.716649
v -0.115022 0.482198 -0.716649
v -0.095132 0.507859 -0.679650
v -0.095132 0.507859 -0.614827
v -0.015111 0.376206 -0.614827
v -0.015111 0.376206 -0.679650
v -0.144388 0.474850 -1.610902
v -0.041025 0.360455 -1.606357
v -0.070912 0.342290 -1.606357
v -0.121181 0.480657 -1.610902
v -0.150548 0.473309 -1.577975
v -0.150548 0.473309 -1.720108
v -0.115022 0.482198 -1.720108
v -0.115022 0.482198 -1.577975
v -0.162499 0.508645 -1.610902
v -0.162499 0.508645 -1.648577
v -0.140290 0.517535 -1.648577
v -0.140290 0.517535 -1.610902
v -0.203388 0.543528 -1.652757
v -0.139320 0.574325 -1.652757
v -0.198001 0.532321 -1.645578
v -0.133933 0.563118 -1.645578
v -0.198001 0.532321 -1.631220
v -0.133933 0.563118 -1.631220
v -0.203388 0.543528 -1.624041
v -0.139320 0.574325 -1.624041
v -0.208775 0.554734 -1.631220
v -0.144707 0.585531 -1.631220
v -0.208775 0.554734 -1.645578
v -0.144707 0.585531 -1.645578
vn -0.8545 -0.5194 -0.0000
vn -0.0000 -0.0000 -1.0000
vn 0.2677 0.1627 0.9497
vn -0.0000 -0.0000 1.0000
vn 0.5194 -0.8545 -0.0000
vn -0.3624 0.9304 0.0543
vn -0.2427 0.9701 -0.0000
vn 0.8545 0.5194 -0.0000
vn 0.6609 0.4017 -0.6339
vn -0.7904 0.6126 -0.0000
vn 0.8879 0.4601 -0.0000
vn -0.3716 0.9284 -0.0000
vn -0.8814 -0.4724 -0.0000
vn 0.2166 -0.4506 -0.8660
vn 0.4332 -0.9013 -0.0000
vn 0.2166 -0.4506 0.8660
vn -0.2166 0.4506 0.8660
vn 0.9013 0.4332 -0.0000
vn -0.4332 0.9013 -0.0000
vn -0.2166 0.4506 -0.8660
vn -0.9013 -0.4332 -0.0000
vt 0.375000 0.224911
vt 0.625000 0.224911
vt 0.625000 0.250000
vt 0.375000 0.250000
vt 0.625000 0.500000
vt 0.375000 0.500000
vt 0.625000 0.750000
vt 0.375000 0.750000
vt 0.625000 1.000000
vt 0.375000 1.000000
vt 0.125000 0.727273
vt 0.375000 0.727273
vt 0.125000 0.750000
vt 0.625000 0.727273
vt 0.875000 0.727273
vt 0.875000 0.750000
vt 0.625000 0.525089
vt 0.875000 0.525089
vt 0.125000 0.525089
vt 0.375000 0.525089
vt 0.375000 0.000000
vt 0.625000 0.000000
vt 0.625000 0.022727
vt 0.375000 0.022727
vt 0.125000 0.500000
vt 0.631191 0.522367
vt 0.631191 0.502722
vt 0.868809 0.522367
vt 0.868809 0.502722
vt 0.875000 0.500000
vt 1.000000 0.500000
vt 1.000000 1.000000
vt 0.833333 1.000000
vt 0.833333 0.500000
vt 0.666667 1.000000
vt 0.666667 0.500000
vt 0.500000 1.000000
vt 0.500000 0.500000
vt 0.333333 1.000000
vt 0.333333 0.500000
vt 0.457846 0.370000
vt 0.250000 0.490000
vt 0.042154 0.370000
vt 0.042154 0.130000
vt 0.250000 0.010000
vt 0.457846 0.130000
vt 0.166667 1.000000
vt 0.166667 0.500000
vt -0.000000 1.000000
vt -0.000000 0.500000
vt 0.750000 0.490000
vt 0.957846 0.370000
vt 0.957846 0.130000
vt 0.750000 0.010000
vt 0.542154 0.130000
vt 0.542154 0.370000
s 0
f 19/1/1 21/2/1 22/3/1 3/4/1
f 3/4/2 22/3/2 23/5/2 7/6/2
f 6/7/3 5/8/3 15/8/3 14/7/3
f 5/8/4 6/7/4 2/9/4 1/10/4
f 9/11/5 11/12/5 5/8/5 1/13/5
f 12/14/6 10/15/6 2/16/6 6/7/6
f 24/17/7 21/18/7 10/15/7 12/14/7
f 19/19/5 18/20/5 11/12/5 9/11/5
f 18/20/8 24/17/8 12/14/8 11/12/8
f 1/21/1 2/22/1 10/23/1 9/24/1
f 16/12/8 13/14/8 14/7/8 15/8/8
f 11/12/9 12/14/9 13/14/9 16/12/9
f 5/8/5 11/12/5 16/12/5 15/8/5
f 12/14/10 6/7/10 14/7/10 13/14/10
f 7/6/8 23/5/8 24/17/8 18/20/8
f 3/25/5 7/6/5 18/20/5 19/19/5
f 20/26/11 8/27/11 27/27/11 28/26/11
f 9/24/1 10/23/1 21/2/1 19/1/1
f 17/28/7 4/29/7 22/30/7 21/18/7
f 4/29/7 8/27/7 23/5/7 22/30/7
f 8/27/7 20/26/7 24/17/7 23/5/7
f 20/26/7 17/28/7 21/18/7 24/17/7
f 27/27/12 26/29/12 25/28/12 28/26/12
f 4/29/13 17/28/13 25/28/13 26/29/13
f 17/28/4 20/26/4 28/26/4 25/28/4
f 8/27/2 4/29/2 26/29/2 27/27/2
f 29/31/14 30/32/14 32/33/14 31/34/14
f 31/34/15 32/33/15 34/35/15 33/36/15
f 33/36/16 34/35/16 36/37/16 35/38/16
f 35/38/17 36/37/17 38/39/17 37/40/17
f 32/41/18 30/42/18 40/43/18 38/44/18 36/45/18 34/46/18
f 37/40/19 38/39/19 40/47/19 39/48/19
f 39/48/20 40/47/20 30/49/20 29/50/20
f 29/51/21 31/52/21 33/53/21 35/54/21 37/55/21 39/56/21
