# Blender 4.4.3
# www.blender.org
mtllib Screws.mtl
o Cylinder.007
v 0.163782 0.054434 1.138404
v -0.163782 0.054434 1.138404
v 0.163782 0.035757 1.170754
v -0.163782 0.035757 1.170754
v 0.163782 -0.001598 1.170754
v -0.163782 -0.001598 1.170754
v 0.163782 -0.020275 1.138404
v -0.163782 -0.020275 1.138404
v 0.163782 -0.001598 1.106054
v -0.163782 -0.001598 1.106054
v 0.163782 0.035757 1.106054
v -0.163782 0.035757 1.106054
v -0.100363 0.267416 -1.950651
v 0.100363 0.267416 -1.950651
v -0.100363 0.248659 -1.939822
v 0.100363 0.248659 -1.939822
v -0.100363 0.248659 -1.918164
v 0.100363 0.248659 -1.918164
v -0.100363 0.267416 -1.907334
v 0.100363 0.267416 -1.907334
v -0.100363 0.286172 -1.918164
v 0.100363 0.286172 -1.918164
v -0.100363 0.286172 -1.939822
v 0.100363 0.286172 -1.939822
v 0.108503 0.611764 2.292687
v -0.108503 0.611764 2.292687
v 0.108503 0.594317 2.322907
v -0.108503 0.594317 2.322907
v 0.108503 0.559422 2.322907
v -0.108503 0.559422 2.322907
v 0.108503 0.541974 2.292687
v -0.108503 0.541974 2.292687
v 0.108503 0.559421 2.262467
v -0.108503 0.559421 2.262467
v 0.108503 0.594317 2.262467
v -0.108503 0.594317 2.262467
v 0.170716 0.184112 2.151653
v -0.170716 0.184112 2.151653
v 0.170716 0.165435 2.184003
v -0.170716 0.165435 2.184003
v 0.170716 0.128081 2.184003
v -0.170716 0.128081 2.184003
v 0.170716 0.109404 2.151653
v -0.170716 0.109404 2.151653
v 0.170716 0.128081 2.119303
v -0.170716 0.128081 2.119303
v 0.170716 0.165435 2.119303
v -0.170716 0.165435 2.119303
v 0.128019 -0.571978 2.101100
v -0.128019 -0.571978 2.101100
v 0.128019 -0.590655 2.133450
v -0.128019 -0.590655 2.133450
v 0.128019 -0.628010 2.133450
v -0.128019 -0.628010 2.133450
v 0.128019 -0.646687 2.101100
v -0.128019 -0.646687 2.101100
v 0.128019 -0.628010 2.068750
v -0.128019 -0.628010 2.068750
v 0.128019 -0.590655 2.068750
v -0.128019 -0.590655 2.068750
v -0.075062 -0.170526 1.407449
v -0.075062 -0.009059 1.129283
v 0.075062 -0.170526 1.407449
v 0.075062 -0.009059 1.129283
v -0.075062 -0.089793 1.268366
v 0.075062 -0.089793 1.268366
v -0.075062 -0.168658 1.157395
v -0.075062 -0.198373 1.215993
v -0.075062 -0.151273 1.214247
v 0.075062 -0.198373 1.215993
v 0.075062 -0.168658 1.157395
v 0.075062 -0.151273 1.214247
v -0.075062 -0.266688 1.269561
v -0.075062 -0.268712 1.304078
v 0.075062 -0.268712 1.304078
v 0.075062 -0.266688 1.269561
v -0.075062 -0.139903 1.069176
v -0.075062 -0.162115 1.081635
v 0.075062 -0.162115 1.081635
v 0.075062 -0.139903 1.069176
v -0.048119 -0.023545 -0.515573
v -0.048119 0.198001 -0.515573
v -0.048119 0.198001 -0.737118
v 0.048119 -0.023545 -0.515573
v 0.048119 0.198001 -0.515573
v 0.048119 0.198001 -0.737118
v -0.048119 0.087228 -0.515573
v -0.048119 0.088754 -0.714223
v 0.048119 0.088754 -0.714223
v 0.048119 0.087228 -0.515573
v -0.048119 -0.006661 -0.748910
v -0.048119 -0.031177 -0.728888
v 0.048119 -0.031177 -0.728888
v 0.048119 -0.006661 -0.748910
vn -0.0000 0.8660 0.5000
vn -0.0000 -0.0000 1.0000
vn -0.0000 -0.8660 0.5000
vn -0.0000 -0.8660 -0.5000
vn -1.0000 -0.0000 -0.0000
vn -0.0000 -0.0000 -1.0000
vn -0.0000 0.8660 -0.5000
vn 1.0000 -0.0000 -0.0000
vn -0.0000 -0.5000 -0.8660
vn -0.0000 -1.0000 -0.0000
vn -0.0000 -0.5000 0.8660
vn -0.0000 0.5000 0.8660
vn -0.0000 1.0000 -0.0000
vn -0.0000 0.5000 -0.8660
vn -0.0000 -0.9963 -0.0860
vn -0.0000 -0.6171 -0.7869
vn -0.0000 0.4174 -0.9087
vn -0.0000 0.8649 0.5020
vn -0.0000 -0.8919 -0.4523
vn -0.0000 -0.7251 0.6887
vn -0.0000 -0.9983 -0.0585
vn -0.0000 -0.4892 -0.8722
vn -0.0000 -0.2051 -0.9787
vn -0.0000 -0.9994 0.0358
vn -0.0000 0.3417 -0.9398
vn -0.0000 -0.6325 -0.7745
vt 1.000000 0.500000
vt 1.000000 1.000000
vt 0.833333 1.000000
vt 0.833333 0.500000
vt 0.666667 1.000000
vt 0.666667 0.500000
vt 0.500000 1.000000
vt 0.500000 0.500000
vt 0.333333 1.000000
vt 0.333333 0.500000
vt 0.457846 0.370000
vt 0.250000 0.490000
vt 0.042154 0.370000
vt 0.042154 0.130000
vt 0.250000 0.010000
vt 0.457846 0.130000
vt 0.166667 1.000000
vt 0.166667 0.500000
vt -0.000000 1.000000
vt -0.000000 0.500000
vt 0.750000 0.490000
vt 0.957846 0.370000
vt 0.957846 0.130000
vt 0.750000 0.010000
vt 0.542154 0.130000
vt 0.542154 0.370000
vt 0.125000 0.520258
vt 0.375000 0.520258
vt 0.375000 0.588642
vt 0.125000 0.588642
vt 0.125000 0.655433
vt 0.375000 0.655433
vt 0.375000 0.727935
vt 0.125000 0.727935
vt 0.407742 0.250000
vt 0.625000 0.250000
vt 0.625000 0.500000
vt 0.407742 0.500000
vt 0.625000 0.625000
vt 0.875000 0.625000
vt 0.875000 0.750000
vt 0.625000 0.750000
vt 0.875000 0.500000
vt 0.375000 0.655433
vt 0.443123 0.625000
vt 0.412450 0.750000
vt 0.443123 0.625000
vt 0.375000 0.588642
vt 0.375000 0.161358
vt 0.377633 0.125000
vt 0.443123 0.125000
vt 0.375000 0.598581
vt 0.625000 1.000000
vt 0.412450 1.000000
vt 0.375000 0.750000
vt 0.125000 0.750000
vt 0.375000 0.022065
vt 0.412450 0.000000
vt 0.625000 0.000000
vt 0.625000 0.125000
vt 0.443123 0.125000
vt 0.375000 0.094567
vt 0.125000 0.500000
vt 0.375000 0.500000
vt 0.375000 0.229742
vt 0.500000 0.000000
vt 0.500000 0.250000
vt 0.500000 0.500000
vt 0.500000 0.750000
vt 0.500000 1.000000
vt 0.375000 0.528233
vt 0.402288 0.500000
vt 0.375000 1.000000
vt 0.125000 0.528233
vt 0.402288 0.250000
vt 0.375000 0.000000
vt 0.375000 0.221767
s 0
f 1/1/1 2/2/1 4/3/1 3/4/1
f 3/4/2 4/3/2 6/5/2 5/6/2
f 5/6/3 6/5/3 8/7/3 7/8/3
f 7/8/4 8/7/4 10/9/4 9/10/4
f 4/11/5 2/12/5 12/13/5 10/14/5 8/15/5 6/16/5
f 9/10/6 10/9/6 12/17/6 11/18/6
f 11/18/7 12/17/7 2/19/7 1/20/7
f 1/21/8 3/22/8 5/23/8 7/24/8 9/25/8 11/26/8
f 13/1/9 14/2/9 16/3/9 15/4/9
f 15/4/10 16/3/10 18/5/10 17/6/10
f 17/6/11 18/5/11 20/7/11 19/8/11
f 19/8/12 20/7/12 22/9/12 21/10/12
f 16/11/8 14/12/8 24/13/8 22/14/8 20/15/8 18/16/8
f 21/10/13 22/9/13 24/17/13 23/18/13
f 23/18/14 24/17/14 14/19/14 13/20/14
f 13/21/5 15/22/5 17/23/5 19/24/5 21/25/5 23/26/5
f 25/1/1 26/2/1 28/3/1 27/4/1
f 27/4/2 28/3/2 30/5/2 29/6/2
f 29/6/3 30/5/3 32/7/3 31/8/3
f 31/8/4 32/7/4 34/9/4 33/10/4
f 28/11/5 26/12/5 36/13/5 34/14/5 32/15/5 30/16/5
f 33/10/6 34/9/6 36/17/6 35/18/6
f 35/18/7 36/17/7 26/19/7 25/20/7
f 25/21/8 27/22/8 29/23/8 31/24/8 33/25/8 35/26/8
f 37/1/1 38/2/1 40/3/1 39/4/1
f 39/4/2 40/3/2 42/5/2 41/6/2
f 41/6/3 42/5/3 44/7/3 43/8/3
f 43/8/4 44/7/4 46/9/4 45/10/4
f 40/11/5 38/12/5 48/13/5 46/14/5 44/15/5 42/16/5
f 45/10/6 46/9/6 48/17/6 47/18/6
f 47/18/7 48/17/7 38/19/7 37/20/7
f 37/21/8 39/22/8 41/23/8 43/24/8 45/25/8 47/26/8
f 49/1/1 50/2/1 52/3/1 51/4/1
f 51/4/2 52/3/2 54/5/2 53/6/2
f 53/6/3 54/5/3 56/7/3 55/8/3
f 55/8/4 56/7/4 58/9/4 57/10/4
f 52/11/5 50/12/5 60/13/5 58/14/5 56/15/5 54/16/5
f 57/10/6 58/9/6 60/17/6 59/18/6
f 59/18/7 60/17/7 50/19/7 49/20/7
f 49/21/8 51/22/8 53/23/8 55/24/8 57/25/8 59/26/8
f 78/27/15 79/28/15 71/29/15 67/30/15
f 68/31/16 70/32/16 76/33/16 73/34/16
f 77/35/17 62/36/17 64/37/17 80/38/17
f 66/39/18 65/40/18 61/41/18 63/42/18
f 64/37/18 62/43/18 65/40/18 66/39/18
f 70/44/8 72/45/8 66/39/8 63/42/8 75/46/8 76/33/8
f 79/28/8 80/38/8 64/37/8 66/39/8 72/47/8 71/48/8
f 67/49/5 68/50/5 69/51/5
f 70/32/8 71/52/8 72/47/8
f 70/32/19 68/31/19 67/30/19 71/29/19
f 75/46/20 63/42/20 61/53/20 74/54/20
f 73/34/21 76/33/21 75/55/21 74/56/21
f 73/57/5 74/58/5 61/59/5 65/60/5 69/61/5 68/62/5
f 79/28/22 78/27/22 77/63/22 80/64/22
f 67/49/5 69/51/5 65/60/5 62/36/5 77/35/5 78/65/5
f 87/66/5 82/59/5 83/36/5 88/67/5
f 88/67/23 83/36/23 86/37/23 89/68/23
f 89/68/8 86/37/8 85/42/8 90/69/8
f 90/69/2 85/42/2 82/53/2 87/70/2
f 93/71/8 94/72/8 89/68/8 90/69/8 84/55/8
f 86/37/13 83/43/13 82/41/13 85/42/13
f 84/55/2 90/69/2 87/70/2 81/73/2
f 92/74/24 93/71/24 84/55/24 81/56/24
f 91/75/25 88/67/25 89/68/25 94/72/25
f 93/71/26 92/74/26 91/63/26 94/64/26
f 81/76/5 87/66/5 88/67/5 91/75/5 92/77/5
