# Blender 4.4.3
# www.blender.org
mtllib Stock3.mtl
o Cube.040
v 0.149833 0.482015 2.422906
v -0.149833 0.482015 2.422906
v -0.152363 0.377788 2.403544
v -0.093317 -0.692623 2.203018
v 0.152363 0.377788 2.403544
v 0.093317 -0.692623 2.203018
v -0.059794 0.528136 2.431473
v 0.059794 0.528136 2.431473
v 0.110877 0.359554 2.439545
v 0.059918 -0.669585 2.255670
v 0.108894 0.450552 2.455648
v -0.108894 0.450552 2.455648
v -0.110877 0.359554 2.439545
v -0.059918 -0.669585 2.255670
v -0.045655 0.486647 2.462030
v 0.045655 0.486647 2.462030
v 0.134023 0.359314 2.439502
v 0.082084 -0.689606 2.252097
v 0.131797 0.461466 2.457596
v -0.134023 0.359314 2.439502
v -0.082084 -0.689606 2.252097
v -0.131797 0.461466 2.457596
v -0.052597 0.506669 2.465603
v 0.052597 0.506669 2.465603
v 0.100819 0.337426 2.503084
v 0.054482 -0.639508 2.335890
v 0.099016 0.423808 2.517727
v -0.100819 0.337426 2.503084
v -0.054482 -0.639508 2.335890
v -0.099016 0.423808 2.517727
v -0.041514 0.458072 2.523530
v 0.041514 0.458072 2.523530
vn -0.0000 0.1839 -0.9829
vn -0.9880 -0.0057 0.1546
vn -0.9450 -0.1061 0.3094
vn -0.0000 0.8465 0.5324
vn -0.0000 -0.9981 0.0614
vn 0.9450 -0.1061 0.3094
vn -0.4301 0.6918 0.5800
vn -0.9002 -0.0576 0.4317
vn 0.9002 -0.0576 0.4317
vn 0.4301 0.6918 0.5800
vn -0.0001 -0.1759 0.9844
vn -0.0003 -0.1744 0.9847
vn 0.0001 -0.1759 0.9844
vn -0.0000 -0.1757 0.9844
vn 0.0005 -0.1752 0.9845
vn -0.0005 -0.1752 0.9845
vn 0.0003 -0.1743 0.9847
vn -0.0000 -0.1685 0.9857
vn -0.0000 0.9069 0.4214
vn -0.0000 -0.9364 0.3511
vn 0.9880 -0.0057 0.1546
vn 0.4910 0.7730 0.4017
vn -0.4910 0.7730 0.4017
vn -0.9916 -0.0674 0.1106
vn 0.9916 -0.0674 0.1106
vt 0.573609 0.773538
vt 0.379612 0.822296
vt 0.379612 0.927704
vt 0.573609 0.976462
vt 0.593320 0.973092
vt 0.602182 0.909118
vt 0.600628 0.840573
vt 0.591360 0.773538
vt 0.589835 0.958062
vt 0.573593 0.959045
vt 0.591360 0.976462
vt 0.593320 0.776908
vt 0.573728 0.791299
vt 0.383316 0.836421
vt 0.591051 0.794357
vt 0.383316 0.913580
vt 0.597931 0.906383
vt 0.597206 0.843858
s 0
f 5/1/1 6/2/1 4/3/1 3/4/1 2/5/1 7/6/1 8/7/1 1/8/1
f 12/9/2 13/10/2 28/10/2 30/9/2
f 3/4/3 4/3/3 21/3/3 20/4/3
f 8/7/4 7/6/4 23/6/4 24/7/4
f 4/3/5 6/2/5 18/2/5 21/3/5
f 6/2/6 5/1/6 17/1/6 18/2/6
f 7/6/7 2/5/7 22/5/7 23/6/7
f 2/11/8 3/4/8 20/4/8 22/11/8
f 5/1/9 1/8/9 19/8/9 17/1/9
f 1/12/10 8/7/10 24/7/10 19/12/10
f 9/13/11 10/14/11 18/2/11 17/1/11
f 11/15/12 9/13/12 17/1/12 19/12/12
f 14/16/13 13/10/13 20/4/13 21/3/13
f 10/14/14 14/16/14 21/3/14 18/2/14
f 12/9/15 15/17/15 23/6/15 22/11/15
f 15/17/14 16/18/14 24/7/14 23/6/14
f 16/18/16 11/15/16 19/12/16 24/7/16
f 13/10/17 12/9/17 22/11/17 20/4/17
f 25/13/18 27/15/18 32/18/18 31/17/18 30/9/18 28/10/18 29/16/18 26/14/18
f 16/18/19 15/17/19 31/17/19 32/18/19
f 14/16/20 10/14/20 26/14/20 29/16/20
f 9/13/21 11/15/21 27/15/21 25/13/21
f 11/15/22 16/18/22 32/18/22 27/15/22
f 15/17/23 12/9/23 30/9/23 31/17/23
f 13/10/24 14/16/24 29/16/24 28/10/24
f 10/14/25 9/13/25 25/13/25 26/14/25
