# Blender 4.4.3
# www.blender.org
mtllib Darkads.mtl
o Cylinder.014
v -0.853381 0.252334 0.410091
v -0.853381 0.252334 0.390125
v -0.827286 0.263143 0.410091
v -0.827286 0.263143 0.390125
v -0.816477 0.289238 0.410091
v -0.816477 0.289238 0.390125
v -0.827286 0.315333 0.410091
v -0.827286 0.315333 0.390125
v -0.853381 0.326142 0.410091
v -0.853381 0.326142 0.390125
v -0.879475 0.315333 0.410091
v -0.879475 0.315333 0.390125
v -0.890284 0.289238 0.410091
v -0.890284 0.289238 0.390125
v -0.879475 0.263143 0.410091
v -0.879475 0.263143 0.390125
v -0.834232 0.270090 0.390125
v -0.872529 0.270090 0.390125
v -0.872529 0.308386 0.390125
v -0.834232 0.308386 0.390125
v -0.880460 0.289238 0.390125
v -0.826301 0.289238 0.390125
v -0.853381 0.262158 0.390125
v -0.853381 0.316318 0.390125
v -0.853381 0.262158 0.410091
v -0.826301 0.289238 0.410091
v -0.853381 0.316318 0.410091
v -0.880460 0.289238 0.410091
v -0.872529 0.270090 0.410091
v -0.834232 0.308386 0.410091
v -0.834232 0.270090 0.410091
v -0.872529 0.308386 0.410091
v -0.853381 0.252334 0.430138
v -0.853381 0.252334 0.420465
v -0.827286 0.263143 0.430138
v -0.827286 0.263143 0.420465
v -0.809138 0.281266 0.430138
v -0.809138 0.297210 0.430138
v -0.827286 0.315333 0.430138
v -0.827286 0.315333 0.420465
v -0.853381 0.326142 0.430138
v -0.853381 0.326142 0.420465
v -0.879475 0.315333 0.430138
v -0.879475 0.315333 0.420465
v -0.809138 0.297210 0.420465
v -0.809138 0.281266 0.420465
v -0.879475 0.263143 0.430138
v -0.879475 0.263143 0.420465
v -0.822941 0.273634 0.430138
v -0.822941 0.304842 0.430138
v -0.822941 0.304842 0.420465
v -0.822941 0.273634 0.420465
v -0.883821 0.304842 0.430138
v -0.883821 0.273634 0.430138
v -0.883821 0.273634 0.420465
v -0.883821 0.304842 0.420465
v -0.897623 0.297210 0.420465
v -0.897623 0.281266 0.420465
v -0.897623 0.281266 0.430138
v -0.897623 0.297210 0.430138
v -0.866428 0.257739 0.430138
v -0.866428 0.257739 0.420465
v -0.840333 0.257739 0.430138
v -0.840333 0.257739 0.420465
v -0.840333 0.239520 0.420465
v -0.853381 0.239374 0.420465
v -0.853381 0.239374 0.430138
v -0.866428 0.239520 0.430138
v -0.866428 0.239520 0.420465
v -0.840333 0.239520 0.430138
v -0.826684 0.234805 0.417819
v -0.853381 0.234580 0.417819
v -0.853381 0.234580 0.432784
v -0.880077 0.234805 0.432784
v -0.880077 0.234805 0.417819
v -0.826684 0.234805 0.432784
v -0.826684 0.219147 0.417819
v -0.853381 0.218922 0.417819
v -0.853381 0.218922 0.432784
v -0.880077 0.219147 0.432784
v -0.880077 0.219147 0.417819
v -0.826684 0.219147 0.432784
v -0.826684 0.234805 0.414702
v -0.853381 0.234580 0.414702
v -0.853381 0.234580 0.435901
v -0.853381 0.218922 0.435901
v -0.880077 0.234805 0.435901
v -0.880077 0.234805 0.414702
v -0.826684 0.234805 0.435901
v -0.826684 0.219147 0.414702
v -0.853381 0.218922 0.414702
v -0.880077 0.219147 0.435901
v -0.880077 0.219147 0.414702
v -0.826684 0.219147 0.435901
v -0.853381 0.316318 0.420465
v -0.853381 0.262158 0.420465
v -0.880460 0.289238 0.420465
v -0.872529 0.270090 0.420465
v -0.874553 0.274977 0.420465
v -0.826301 0.289238 0.420465
v -0.834232 0.308386 0.420465
v -0.830466 0.279184 0.420465
v -0.872529 0.308386 0.420465
v -0.834232 0.270090 0.420465
v -0.853381 0.316318 0.430138
v -0.853381 0.262158 0.430138
v -0.846210 0.265128 0.430138
v -0.826301 0.289238 0.430138
v -0.830466 0.279184 0.430138
v -0.834232 0.308386 0.430138
v -0.880460 0.289238 0.430138
v -0.872529 0.270090 0.430138
v -0.872529 0.308386 0.430138
v -0.834232 0.270090 0.430138
v -0.853381 0.252334 0.371851
v -0.853381 0.252334 0.381524
v -0.879475 0.263143 0.371851
v -0.879475 0.263143 0.381524
v -0.897623 0.281266 0.371851
v -0.897623 0.297210 0.371851
v -0.879475 0.315333 0.371851
v -0.879475 0.315333 0.381524
v -0.853381 0.326142 0.371851
v -0.853381 0.326142 0.381524
v -0.827286 0.315333 0.371851
v -0.827286 0.315333 0.381524
v -0.897623 0.297210 0.381524
v -0.897623 0.281266 0.381524
v -0.827286 0.263143 0.371851
v -0.827286 0.263143 0.381524
v -0.883821 0.273634 0.371851
v -0.883821 0.304842 0.371851
v -0.883821 0.304842 0.381524
v -0.883821 0.273634 0.381524
v -0.822941 0.304842 0.371851
v -0.822941 0.273634 0.371851
v -0.822941 0.273634 0.381524
v -0.822941 0.304842 0.381524
v -0.809138 0.297210 0.381524
v -0.809138 0.281266 0.381524
v -0.809138 0.281266 0.371851
v -0.809138 0.297210 0.371851
v -0.840333 0.257739 0.371851
v -0.840333 0.257739 0.381524
v -0.866428 0.257739 0.371851
v -0.866428 0.257739 0.381524
v -0.866428 0.239520 0.381524
v -0.853381 0.239374 0.381524
v -0.853381 0.239374 0.371851
v -0.840333 0.239520 0.371851
v -0.840333 0.239520 0.381524
v -0.866428 0.239520 0.371851
v -0.880077 0.234805 0.384170
v -0.853381 0.234580 0.384170
v -0.853381 0.234580 0.369205
v -0.826684 0.234805 0.369205
v -0.826684 0.234805 0.384170
v -0.880077 0.234805 0.369205
v -0.880077 0.219147 0.384170
v -0.853381 0.218922 0.384170
v -0.853381 0.218922 0.369205
v -0.826684 0.219147 0.369205
v -0.826684 0.219147 0.384170
v -0.880077 0.219147 0.369205
v -0.853381 0.234580 0.366088
v -0.853381 0.218922 0.366088
v -0.826684 0.234805 0.366088
v -0.880077 0.234805 0.366088
v -0.880077 0.219147 0.398933
v -0.853381 0.218922 0.398933
v -0.826684 0.219147 0.366088
v -0.826684 0.219147 0.398933
v -0.880077 0.219147 0.366088
v -0.880077 0.229372 0.398933
v -0.880077 0.234805 0.394947
v -0.853381 0.229147 0.398933
v -0.853381 0.234580 0.394947
v -0.826684 0.234805 0.394947
v -0.826684 0.229372 0.398933
v -0.853381 0.316318 0.381524
v -0.853381 0.262158 0.381524
v -0.860551 0.265128 0.381524
v -0.826301 0.289238 0.381524
v -0.834232 0.270090 0.381524
v -0.880460 0.289238 0.381524
v -0.872529 0.308386 0.381524
v -0.876296 0.279184 0.381524
v -0.834232 0.308386 0.381524
v -0.872529 0.270090 0.381524
v -0.853381 0.316318 0.371851
v -0.853381 0.262158 0.371851
v -0.860551 0.265128 0.371851
v -0.880460 0.289238 0.371851
v -0.872529 0.308386 0.371851
v -0.876296 0.279184 0.371851
v -0.826301 0.289238 0.371851
v -0.834232 0.270090 0.371851
v -0.834232 0.308386 0.371851
v -0.872529 0.270090 0.371851
vn 0.3827 -0.9239 -0.0000
vn 0.9239 -0.3827 -0.0000
vn 0.9239 0.3827 -0.0000
vn 0.3827 0.9239 -0.0000
vn -0.3827 0.9239 -0.0000
vn -0.9239 0.3827 -0.0000
vn -0.0000 -0.0000 -1.0000
vn -0.9239 -0.3827 -0.0000
vn -0.3827 -0.9239 -0.0000
vn -0.0000 -0.0000 1.0000
vn 1.0000 -0.0000 -0.0000
vn -0.4839 -0.8751 -0.0000
vn -0.4839 0.8751 -0.0000
vn -1.0000 -0.0000 -0.0000
vn 0.4839 -0.8751 -0.0000
vn 0.4839 0.8751 -0.0000
vn -0.3265 0.9452 -0.0000
vn 0.3265 0.9452 -0.0000
vn -0.0084 -1.0000 -0.0000
vn 0.0045 0.4814 0.8765
vn -0.0045 0.4814 -0.8765
vn -0.0045 0.4814 0.8765
vn 0.0045 0.4814 -0.8765
vn 0.0084 -1.0000 -0.0000
vn -0.0084 1.0000 -0.0000
vn 0.0084 1.0000 -0.0000
vn 0.0050 0.5915 0.8063
vn -0.0050 0.5915 0.8063
vt 1.000000 0.500000
vt 1.000000 1.000000
vt 0.875000 1.000000
vt 0.875000 0.500000
vt 0.750000 1.000000
vt 0.750000 0.500000
vt 0.625000 1.000000
vt 0.625000 0.500000
vt 0.500000 1.000000
vt 0.500000 0.500000
vt 0.375000 1.000000
vt 0.375000 0.500000
vt 0.250000 1.000000
vt 0.250000 0.500000
vt 0.374529 0.374529
vt 0.419706 0.419706
vt 0.250000 0.490000
vt 0.250000 0.426110
vt 0.080294 0.419706
vt 0.010000 0.250000
vt 0.080294 0.080294
vt 0.250000 0.010000
vt 0.419706 0.080294
vt 0.490000 0.250000
vt 0.426110 0.250000
vt 0.374529 0.125471
vt 0.250000 0.073890
vt 0.125471 0.125471
vt 0.073890 0.250000
vt 0.125471 0.374529
vt 0.125000 1.000000
vt 0.125000 0.500000
vt 0.000000 1.000000
vt 0.000000 0.500000
vt 0.750000 0.426110
vt 0.750000 0.490000
vt 0.919706 0.419706
vt 0.874529 0.374529
vt 0.990000 0.250000
vt 0.919706 0.080294
vt 0.750000 0.010000
vt 0.580294 0.080294
vt 0.510000 0.250000
vt 0.580294 0.419706
vt 0.625471 0.374529
vt 0.573890 0.250000
vt 0.625471 0.125471
vt 0.750000 0.073890
vt 0.874529 0.125471
vt 0.926110 0.250000
vt 0.937500 0.500000
vt 0.937500 1.000000
vt 0.675251 0.500000
vt 0.675251 1.000000
vt 0.052035 0.351482
vt 0.052035 0.148518
vt 0.447965 0.148518
vt 0.447965 0.351482
vt 0.399026 0.315386
vt 0.426110 0.250000
vt 0.374529 0.125471
vt 0.250000 0.073890
vt 0.125471 0.125471
vt 0.112307 0.342747
vt 0.334853 0.454853
vt 0.165147 0.454853
vt 0.250000 0.426110
vt 0.374529 0.374529
vt 0.175251 0.500000
vt 0.175251 1.000000
vt 0.324749 1.000000
vt 0.324749 0.500000
vt 0.824749 0.500000
vt 0.824749 1.000000
vt 0.834853 0.454853
vt 0.947965 0.351482
vt 0.899026 0.315386
vt 0.874529 0.374529
vt 0.796632 0.406795
vt 0.947965 0.148518
vt 0.552035 0.148518
vt 0.552035 0.351482
vt 0.665147 0.454853
vt 0.750000 0.426110
vt 0.625471 0.374529
vt 0.573890 0.250000
vt 0.625471 0.125471
vt 0.750000 0.073890
vt 0.874529 0.125471
vt 0.926110 0.250000
vt 0.062500 1.000000
vt 0.062500 0.500000
vt 0.156902 1.000000
vt 0.875000 1.000000
vt 0.953192 1.000000
vt 0.815633 1.000000
vt 0.815633 1.000000
vt 0.296632 0.406795
vt 0.334853 0.454853
vt 0.953192 1.000000
vt 0.953192 1.000000
vt 0.815633 1.000000
s 0
f 1/1/1 2/2/1 4/3/1 3/4/1
f 3/4/2 4/3/2 6/5/2 5/6/2
f 5/6/3 6/5/3 8/7/3 7/8/3
f 7/8/4 8/7/4 10/9/4 9/10/4
f 9/10/5 10/9/5 12/11/5 11/12/5
f 11/12/6 12/11/6 14/13/6 13/14/6
f 17/15/7 4/16/7 2/17/7 23/18/7
f 23/18/7 2/17/7 16/19/7 14/20/7 12/21/7 10/22/7 8/23/7 6/24/7 4/16/7 17/15/7 22/25/7 20/26/7 24/27/7 19/28/7 21/29/7 18/30/7
f 13/14/8 14/13/8 16/31/8 15/32/8
f 15/32/9 16/31/9 2/33/9 1/34/9
f 25/35/10 1/36/10 3/37/10 31/38/10
f 31/38/10 3/37/10 5/39/10 7/40/10 9/41/10 11/42/10 13/43/10 15/44/10 1/36/10 25/35/10 29/45/10 28/46/10 32/47/10 27/48/10 30/49/10 26/50/10
f 29/31/3 18/31/3 21/13/3 28/13/3
f 19/11/1 24/9/1 27/9/1 32/11/1
f 20/7/8 22/5/8 26/5/8 30/7/8
f 31/3/5 17/3/5 23/2/5 25/2/5
f 25/33/4 23/33/4 18/31/4 29/31/4
f 28/13/2 21/13/2 19/11/2 32/11/2
f 24/9/9 20/7/9 30/7/9 27/9/9
f 22/5/6 17/3/6 31/3/6 26/5/6
f 63/51/1 64/52/1 36/3/1 35/4/1
f 50/53/3 51/54/3 40/7/3 39/8/3
f 55/55/7 56/56/7 44/21/7 42/22/7 40/23/7 51/57/7 52/58/7 102/59/7 100/60/7 101/61/7 95/62/7 103/63/7 97/29/7 99/64/7
f 102/59/7 52/58/7 36/16/7 64/65/7 34/17/7 62/66/7 48/19/7 55/55/7 99/64/7 98/30/7 96/67/7 104/68/7
f 39/8/4 40/7/4 42/9/4 41/10/4
f 41/10/5 42/9/5 44/11/5 43/12/5
f 54/69/8 55/70/8 48/31/8 47/32/8
f 43/12/6 44/11/6 56/71/6 53/72/6
f 45/54/11 38/53/11 37/73/11 46/74/11
f 63/75/10 33/36/10 67/36/10 70/75/10
f 35/4/2 36/3/2 52/74/2 49/73/2
f 55/70/12 54/69/12 59/69/12 58/70/12
f 53/72/13 56/71/13 57/71/13 60/72/13
f 35/37/10 49/76/10 109/77/10 114/78/10 107/79/10 63/75/10
f 109/77/10 49/76/10 50/80/10 39/40/10 41/41/10 43/42/10 53/81/10 54/82/10 47/44/10 61/83/10 33/36/10 63/75/10 107/79/10 106/84/10 112/85/10 111/86/10 113/87/10 105/88/10 110/89/10 108/90/10
f 58/70/14 59/69/14 60/72/14 57/71/14
f 49/73/15 52/74/15 46/74/15 37/73/15
f 51/54/16 50/53/16 38/53/16 45/54/16
f 54/82/10 53/81/10 60/81/10 59/82/10
f 56/56/7 55/55/7 58/55/7 57/56/7
f 50/80/10 49/76/10 37/76/10 38/80/10
f 52/58/7 51/57/7 45/57/7 46/58/7
f 47/32/9 48/31/9 62/91/9 61/92/9
f 64/52/11 63/51/11 70/51/11 65/52/11
f 68/92/17 69/91/17 75/91/17 74/92/17
f 65/52/18 70/51/18 76/51/18 71/52/18
f 62/66/7 34/17/7 66/17/7 69/66/7
f 34/17/7 64/65/7 65/65/7 66/17/7
f 61/92/14 62/91/14 69/91/14 68/92/14
f 33/36/10 61/83/10 68/83/10 67/36/10
f 81/91/14 75/91/14 88/91/14 93/91/14
f 80/92/19 79/34/19 86/34/19 92/92/19
f 67/36/20 68/83/20 74/83/20 73/36/20
f 66/17/21 65/65/21 71/65/21 72/17/21
f 70/75/22 67/36/22 73/36/22 76/75/22
f 69/66/23 66/17/23 72/17/23 75/66/23
f 80/92/19 81/91/19 78/33/19 79/34/19
f 79/1/24 78/2/24 77/52/24 82/51/24
f 71/52/11 76/51/11 82/51/11 77/52/11
f 74/92/14 75/91/14 81/91/14 80/92/14
f 79/1/24 82/51/24 94/51/24 86/1/24
f 72/17/25 71/65/25 83/65/25 84/17/25
f 88/66/7 84/17/7 91/17/7 93/66/7
f 89/75/10 85/36/10 86/36/10 94/75/10
f 85/36/10 87/83/10 92/83/10 86/36/10
f 84/17/7 83/65/7 90/65/7 91/17/7
f 78/33/19 81/91/19 93/91/19 91/33/19
f 71/52/11 77/52/11 90/52/11 83/52/11
f 76/75/25 73/36/25 85/36/25 89/75/25
f 77/52/24 78/2/24 91/2/24 90/52/24
f 73/36/26 74/83/26 87/83/26 85/36/26
f 82/51/11 76/51/11 89/51/11 94/51/11
f 74/92/14 80/92/14 92/92/14 87/92/14
f 75/66/26 72/17/26 84/17/26 88/66/26
f 112/31/3 98/31/3 99/93/3 97/13/3 111/13/3
f 103/11/1 95/9/1 105/9/1 113/11/1
f 101/7/8 100/5/8 108/5/8 110/7/8
f 114/3/5 104/94/5 96/2/5 106/2/5 107/95/5
f 106/33/4 96/33/4 98/31/4 112/31/4
f 111/13/2 97/13/2 103/11/2 113/11/2
f 95/9/9 101/7/9 110/7/9 105/9/9
f 100/5/6 102/96/6 104/94/6 114/3/6 109/97/6 108/5/6
f 145/51/9 146/52/9 118/3/9 117/4/9
f 132/53/6 133/54/6 122/7/6 121/8/6
f 182/98/10 146/65/10 116/17/10 144/66/10 130/19/10 137/55/10 138/56/10 126/21/10 124/22/10 122/23/10 133/57/10 134/58/10 187/59/10 185/60/10 186/61/10 180/62/10 188/63/10 183/29/10 184/30/10 181/67/10
f 187/59/10 134/58/10 118/16/10 146/65/10 182/98/10 189/68/10
f 121/8/5 122/7/5 124/9/5 123/10/5
f 123/10/4 124/9/4 126/11/4 125/12/4
f 136/69/2 137/70/2 130/31/2 129/32/2
f 125/12/3 126/11/3 138/71/3 135/72/3
f 127/54/14 120/53/14 119/73/14 128/74/14
f 145/75/7 115/36/7 149/36/7 152/75/7
f 117/4/8 118/3/8 134/74/8 131/73/8
f 137/70/15 136/69/15 141/69/15 140/70/15
f 135/72/16 138/71/16 139/71/16 142/72/16
f 117/37/7 131/76/7 195/77/7 199/78/7 192/79/7 145/75/7
f 193/90/7 195/77/7 131/76/7 132/80/7 121/40/7 123/41/7 125/42/7 135/81/7 136/82/7 129/44/7 143/83/7 115/36/7 145/75/7 192/79/7 191/84/7 197/85/7 196/86/7 198/87/7 190/88/7 194/89/7
f 140/70/11 141/69/11 142/72/11 139/71/11
f 131/73/12 134/74/12 128/74/12 119/73/12
f 133/54/13 132/53/13 120/53/13 127/54/13
f 136/82/7 135/81/7 142/81/7 141/82/7
f 138/56/10 137/55/10 140/55/10 139/56/10
f 132/80/7 131/76/7 119/76/7 120/80/7
f 134/58/10 133/57/10 127/57/10 128/58/10
f 129/32/1 130/31/1 144/91/1 143/92/1
f 146/52/14 145/51/14 152/51/14 147/52/14
f 150/92/18 151/91/18 157/91/18 156/92/18
f 147/52/17 152/51/17 158/51/17 153/52/17
f 144/66/10 116/17/10 148/17/10 151/66/10
f 116/17/10 146/65/10 147/65/10 148/17/10
f 143/92/11 144/91/11 151/91/11 150/92/11
f 115/36/7 143/83/7 150/83/7 149/36/7
f 162/92/24 161/34/24 166/34/24 171/92/24
f 149/36/21 150/83/21 156/83/21 155/36/21
f 148/17/20 147/65/20 153/65/20 154/17/20
f 152/75/23 149/36/23 155/36/23 158/75/23
f 151/66/22 148/17/22 154/17/22 157/66/22
f 162/92/24 163/91/24 160/33/24 161/34/24
f 161/1/19 160/2/19 159/52/19 164/51/19
f 153/52/14 158/51/14 164/51/14 159/52/14
f 156/92/11 157/91/11 163/91/11 162/92/11
f 161/1/19 164/51/19 173/51/19 166/1/19
f 176/17/10 174/99/10 169/65/10 170/17/10
f 172/91/11 163/91/11 157/91/11 178/91/11 179/91/11
f 168/75/7 165/36/7 166/36/7 173/75/7
f 165/36/7 167/83/7 171/83/7 166/36/7
f 157/66/25 154/17/25 177/17/25 178/66/25
f 160/33/24 163/91/24 172/91/24 170/33/24
f 154/17/26 153/65/26 175/65/26 177/17/26
f 158/75/26 155/36/26 165/36/26 168/75/26
f 159/52/19 160/2/19 170/2/19 169/52/19
f 155/36/25 156/83/25 167/83/25 165/36/25
f 164/51/14 158/51/14 168/51/14 173/51/14
f 156/92/11 162/92/11 171/92/11 167/92/11
f 179/66/10 176/17/10 170/17/10 172/66/10
f 174/99/27 176/17/27 177/17/27 175/65/27
f 176/17/28 179/66/28 178/66/28 177/17/28
f 175/52/14 153/52/14 159/52/14 169/52/14 174/52/14
f 197/31/6 184/31/6 183/13/6 196/13/6
f 180/9/9 190/9/9 198/11/9 188/11/9
f 186/7/2 185/5/2 193/5/2 194/7/2
f 199/3/4 189/3/4 182/100/4 181/2/4 191/2/4 192/101/4
f 191/33/5 181/33/5 184/31/5 197/31/5
f 196/13/8 183/13/8 188/11/8 198/11/8
f 180/9/1 186/7/1 194/7/1 190/9/1
f 185/5/3 187/102/3 189/3/3 199/3/3 195/97/3 193/5/3
