# Blender 4.4.3
# www.blender.org
mtllib Mainads.mtl
o Cylinder.020
v -0.853381 0.255977 0.441009
v -0.853381 0.255977 0.369103
v -0.853381 0.244007 0.456489
v -0.829862 0.265719 0.441009
v -0.829862 0.265719 0.369103
v -0.821398 0.257255 0.456489
v -0.820120 0.289238 0.441009
v -0.820120 0.289238 0.369103
v -0.808150 0.289238 0.456489
v -0.829862 0.312757 0.441009
v -0.829862 0.312757 0.369103
v -0.821398 0.321221 0.456489
v -0.853381 0.322499 0.441009
v -0.853381 0.322499 0.369103
v -0.853381 0.334469 0.456489
v -0.876899 0.312757 0.441009
v -0.876899 0.312757 0.369103
v -0.885364 0.321221 0.456489
v -0.886641 0.289238 0.441009
v -0.886641 0.289238 0.369103
v -0.898611 0.289238 0.456489
v -0.876899 0.265719 0.441009
v -0.876899 0.265719 0.369103
v -0.885364 0.257255 0.456489
v -0.834232 0.270090 0.440945
v -0.818746 0.254603 0.351289
v -0.853381 0.240257 0.351289
v -0.853381 0.262158 0.440945
v -0.826301 0.289238 0.440945
v -0.804399 0.289238 0.351289
v -0.834232 0.308386 0.440945
v -0.818746 0.323873 0.351289
v -0.853381 0.316318 0.440945
v -0.853381 0.338219 0.351289
v -0.888016 0.323873 0.351289
v -0.872529 0.308386 0.440945
v -0.902362 0.289238 0.351289
v -0.880460 0.289238 0.440945
v -0.888016 0.254603 0.351289
v -0.872529 0.270090 0.440945
v -0.818746 0.254603 0.319167
v -0.834232 0.270090 0.369097
v -0.853381 0.240257 0.319167
v -0.853381 0.262158 0.369097
v -0.804399 0.289238 0.319167
v -0.826301 0.289238 0.369097
v -0.818746 0.323873 0.319167
v -0.834232 0.308386 0.369097
v -0.853381 0.338219 0.319167
v -0.853381 0.316318 0.369097
v -0.872529 0.308386 0.369097
v -0.888016 0.323873 0.319167
v -0.902362 0.289238 0.319167
v -0.880460 0.289238 0.369097
v -0.888016 0.254603 0.319167
v -0.872529 0.270090 0.369097
v -0.823329 0.259187 0.351283
v -0.853381 0.236528 0.456553
v -0.816109 0.251967 0.456553
v -0.853381 0.246739 0.351283
v -0.810881 0.289238 0.351283
v -0.800671 0.289238 0.456553
v -0.816109 0.326509 0.456553
v -0.823329 0.319289 0.351283
v -0.853381 0.341948 0.456553
v -0.853381 0.331737 0.351283
v -0.890652 0.326509 0.456553
v -0.883432 0.319289 0.351283
v -0.906090 0.289238 0.456553
v -0.895880 0.289238 0.351283
v -0.890652 0.251967 0.456553
v -0.883432 0.259187 0.351283
v -0.853381 0.236528 0.484612
v -0.816109 0.251967 0.484612
v -0.800671 0.289238 0.484612
v -0.816109 0.326509 0.484612
v -0.853381 0.341948 0.484612
v -0.890652 0.326509 0.484612
v -0.906090 0.289238 0.484612
v -0.890652 0.251967 0.484612
v -0.823329 0.259187 0.319167
v -0.883432 0.259187 0.319167
v -0.883432 0.319289 0.319167
v -0.823329 0.319289 0.319167
v -0.853381 0.246739 0.319167
v -0.895880 0.289238 0.319167
v -0.810881 0.289238 0.319167
v -0.853381 0.331737 0.319167
v -0.853381 0.244007 0.484612
v -0.808150 0.289238 0.484612
v -0.853381 0.334469 0.484612
v -0.898611 0.289238 0.484612
v -0.821398 0.257255 0.484612
v -0.885364 0.321221 0.484612
v -0.885364 0.257255 0.484612
v -0.821398 0.321221 0.484612
v -0.853381 0.329201 0.392542
v -0.838088 0.329201 0.394862
v -0.831754 0.329201 0.400461
v -0.838088 0.329201 0.406060
v -0.853381 0.329201 0.408379
v -0.868673 0.329201 0.406060
v -0.875008 0.329201 0.400461
v -0.868673 0.329201 0.394862
v -0.835179 0.333599 0.393797
v -0.853381 0.333599 0.391036
v -0.827640 0.333599 0.400461
v -0.835179 0.333599 0.407125
v -0.853381 0.333599 0.409885
v -0.871582 0.333599 0.407125
v -0.879121 0.333599 0.400461
v -0.871582 0.333599 0.393797
v -0.835179 0.343171 0.393797
v -0.853381 0.343171 0.391036
v -0.827640 0.343171 0.400461
v -0.835179 0.343171 0.407125
v -0.853381 0.343171 0.409885
v -0.871582 0.343171 0.407125
v -0.879121 0.343171 0.400461
v -0.871582 0.343171 0.393797
v -0.837654 0.347153 0.394703
v -0.853381 0.347153 0.392318
v -0.831140 0.347153 0.400461
v -0.837654 0.347153 0.406219
v -0.853381 0.347153 0.408604
v -0.869107 0.347153 0.406219
v -0.875621 0.347153 0.400461
v -0.869107 0.347153 0.394703
v -0.853381 0.316318 0.392542
v -0.838088 0.309983 0.394862
v -0.834232 0.308386 0.398270
v -0.831754 0.302402 0.400461
v -0.834232 0.308386 0.402652
v -0.838088 0.309983 0.406060
v -0.853381 0.316318 0.408379
v -0.853381 0.316318 0.408379
v -0.868673 0.309983 0.406060
v -0.872529 0.308386 0.402652
v -0.875008 0.302402 0.400461
v -0.872529 0.308386 0.398270
v -0.868673 0.309983 0.394862
v -0.853381 0.316318 0.392542
v -0.891769 0.289238 0.392542
v -0.891769 0.304531 0.394862
v -0.891769 0.310865 0.400461
v -0.891769 0.304531 0.406060
v -0.891769 0.289238 0.408379
v -0.891769 0.273945 0.406060
v -0.891769 0.267611 0.400461
v -0.891769 0.273945 0.394862
v -0.896167 0.307439 0.393797
v -0.896167 0.289238 0.391036
v -0.896167 0.314978 0.400461
v -0.896167 0.307439 0.407125
v -0.896167 0.289238 0.409885
v -0.896167 0.271037 0.407125
v -0.896167 0.263498 0.400461
v -0.896167 0.271037 0.393797
v -0.905739 0.307439 0.393797
v -0.905739 0.289238 0.391036
v -0.905739 0.314978 0.400461
v -0.905739 0.307439 0.407125
v -0.905739 0.289238 0.409885
v -0.905739 0.271037 0.407125
v -0.905739 0.263498 0.400461
v -0.905739 0.271037 0.393797
v -0.909721 0.304964 0.394703
v -0.909721 0.289238 0.392318
v -0.909721 0.311478 0.400461
v -0.909721 0.304964 0.406219
v -0.909721 0.289238 0.408604
v -0.909721 0.273512 0.406219
v -0.909721 0.266998 0.400461
v -0.909721 0.273512 0.394703
v -0.880460 0.289238 0.392542
v -0.874126 0.304531 0.394862
v -0.872529 0.308386 0.398270
v -0.866544 0.310865 0.400461
v -0.872529 0.308386 0.402652
v -0.874126 0.304531 0.406060
v -0.880460 0.289238 0.408379
v -0.880460 0.289238 0.408379
v -0.874126 0.273945 0.406060
v -0.872529 0.270090 0.402652
v -0.866544 0.267611 0.400461
v -0.872529 0.270090 0.398270
v -0.874126 0.273945 0.394862
v -0.880460 0.289238 0.392542
vn 0.3827 -0.9239 -0.0000
vn 0.9239 -0.3827 -0.0000
vn 0.9239 0.3827 -0.0000
vn 0.3827 0.9239 -0.0000
vn -0.3827 0.9239 -0.0000
vn -0.9239 0.3827 -0.0000
vn -0.7160 -0.2966 0.6319
vn -0.9239 -0.3827 -0.0000
vn -0.3827 -0.9239 -0.0000
vn 0.2504 0.6045 -0.7563
vn 0.7160 -0.2966 0.6319
vn -0.2966 0.7160 0.6319
vn -0.2966 -0.7160 0.6319
vn 0.2966 -0.7160 0.6319
vn 0.7160 0.2966 0.6319
vn -0.7160 0.2966 0.6319
vn 0.2966 0.7160 0.6319
vn -0.0000 -0.0000 -1.0000
vn -0.6045 -0.2504 -0.7563
vn 0.6045 -0.2504 -0.7563
vn -0.2504 0.6045 -0.7563
vn -0.2504 -0.6045 -0.7563
vn 0.2504 -0.6045 -0.7563
vn 0.6045 0.2504 -0.7563
vn -0.6045 0.2504 -0.7563
vn -0.0000 -0.0000 1.0000
vn 0.2602 0.6281 0.7334
vn -0.2602 0.6281 0.7334
vn -0.6281 -0.2602 0.7334
vn 0.6281 -0.2602 0.7334
vn -0.2602 -0.6281 0.7334
vn 0.6281 0.2602 0.7334
vn -0.6281 0.2602 0.7334
vn 0.2602 -0.6281 0.7334
vn 0.7215 -0.2989 -0.6246
vn -0.2989 -0.7215 -0.6246
vn -0.7215 0.2989 -0.6246
vn 0.7215 0.2989 -0.6246
vn 0.2989 -0.7215 -0.6246
vn -0.7215 -0.2989 -0.6246
vn -0.2989 0.7215 -0.6246
vn 0.2989 0.7215 -0.6246
vn 0.1499 -0.0000 -0.9887
vn 0.6623 -0.0000 -0.7493
vn 0.6623 -0.0000 0.7493
vn 0.1499 -0.0000 0.9887
vn -0.1499 -0.0000 0.9887
vn -0.6623 -0.0000 0.7493
vn 0.5630 -0.5266 0.6370
vn -0.6623 -0.0000 -0.7493
vn -0.1499 -0.0000 -0.9887
vn -0.5630 -0.5266 0.6370
vn 0.1420 -0.3207 0.9365
vn -0.5630 -0.5266 -0.6370
vn 0.5630 -0.5266 -0.6370
vn -0.1420 -0.3207 0.9365
vn -0.1420 -0.3207 -0.9365
vn 0.1420 -0.3207 -0.9365
vn 0.5724 0.5031 -0.6475
vn -0.0000 1.0000 -0.0000
vn -0.5724 0.5031 -0.6475
vn -0.1429 0.3032 0.9422
vn 0.5724 0.5031 0.6475
vn 0.1429 0.3032 -0.9422
vn -0.1429 0.3032 -0.9422
vn -0.5724 0.5031 0.6475
vn 0.1429 0.3032 0.9422
vn -0.0000 0.1499 -0.9887
vn -0.0000 0.6623 -0.7493
vn -0.0000 0.6623 0.7493
vn -0.0000 0.1499 0.9887
vn -0.0000 -0.1499 0.9887
vn -0.0000 -0.6623 0.7493
vn 0.5266 0.5630 0.6370
vn -0.0000 -0.6623 -0.7493
vn -0.0000 -0.1499 -0.9887
vn 0.5266 -0.5630 0.6370
vn 0.3207 0.1420 0.9365
vn 0.5266 -0.5630 -0.6370
vn 0.5266 0.5630 -0.6370
vn 0.3207 -0.1420 0.9365
vn 0.3207 -0.1420 -0.9365
vn 0.3207 0.1420 -0.9365
vn -0.5031 0.5724 -0.6475
vn -1.0000 -0.0000 -0.0000
vn -0.5031 -0.5724 -0.6475
vn -0.3032 -0.1429 0.9422
vn -0.5031 0.5724 0.6475
vn -0.3032 0.1429 -0.9422
vn -0.3032 -0.1429 -0.9422
vn -0.5031 -0.5724 0.6475
vn -0.3032 0.1429 0.9422
vt 1.000000 0.500000
vt 1.000000 1.000000
vt 0.875000 1.000000
vt 0.875000 0.500000
vt 0.750000 1.000000
vt 0.750000 0.500000
vt 0.625000 1.000000
vt 0.625000 0.500000
vt 0.500000 1.000000
vt 0.500000 0.500000
vt 0.375000 1.000000
vt 0.375000 0.500000
vt 0.250000 1.000000
vt 0.250000 0.500000
vt 0.125000 1.000000
vt 0.125000 0.500000
vt 0.000000 1.000000
vt 0.000000 0.500000
vt 0.397247 0.102753
vt 0.419706 0.080294
vt 0.490000 0.250000
vt 0.458239 0.250000
vt 0.419706 0.419706
vt 0.250000 0.490000
vt 0.080294 0.419706
vt 0.010000 0.250000
vt 0.080294 0.080294
vt 0.250000 0.010000
vt 0.250000 0.041761
vt 0.102753 0.102753
vt 0.041762 0.250000
vt 0.102753 0.397247
vt 0.250000 0.458238
vt 0.397247 0.397247
vt 0.510000 0.250000
vt 0.580294 0.419706
vt 0.750000 0.490000
vt 0.919706 0.419706
vt 0.990000 0.250000
vt 0.919706 0.080294
vt 0.895627 0.104373
vt 0.955947 0.250000
vt 0.895627 0.395627
vt 0.750000 0.455947
vt 0.604373 0.395627
vt 0.544053 0.250000
vt 0.750000 0.010000
vt 0.580294 0.080294
vt 0.604373 0.104373
vt 0.750000 0.044053
vt 0.875000 0.578383
vt 1.000000 0.578383
vt 0.750000 0.578383
vt 0.625000 0.578383
vt 0.500000 0.578383
vt 0.375000 0.578383
vt 0.250000 0.578383
vt 0.125000 0.578383
vt 0.000000 0.578383
vt 1.000000 0.802783
vt 0.875000 0.705815
vt 0.750000 0.589756
vt 0.798916 0.681368
vt 0.625000 0.705815
vt 0.701083 0.681368
vt 0.500000 0.802783
vt 0.375000 0.705815
vt 0.250000 0.589756
vt 0.298916 0.681368
vt 0.125000 0.705815
vt 0.201084 0.681368
vt 0.000000 0.802783
vt 0.400169 1.000000
vt 0.400169 1.000000
vt 0.664067 1.000000
vt 0.335933 1.000000
vt 0.599831 1.000000
vt 0.599831 1.000000
vt 1.000000 0.826891
vt 0.875000 0.729923
vt 0.750000 0.613864
vt 0.798917 0.705476
vt 0.625000 0.729923
vt 0.701083 0.705476
vt 0.500000 0.826891
vt 0.375000 0.729923
vt 0.500000 0.826891
vt 0.250000 0.613865
vt 0.298916 0.705476
vt 0.125000 0.729923
vt 0.201084 0.705476
vt 0.000000 0.826891
vt 0.000000 0.826891
vt 0.150169 1.000000
vt 0.414067 1.000000
vt 0.085933 1.000000
vt 0.349831 1.000000
vt 0.349831 1.000000
s 0
f 1/1/1 2/2/1 5/3/1 4/4/1
f 4/4/2 5/3/2 8/5/2 7/6/2
f 7/6/3 8/5/3 11/7/3 10/8/3
f 10/8/4 11/7/4 14/9/4 13/10/4
f 13/10/5 14/9/5 17/11/5 16/12/5
f 16/12/6 17/11/6 20/13/6 19/14/6
f 23/15/7 20/13/7 37/13/7 39/15/7
f 19/14/8 20/13/8 23/15/8 22/16/8
f 22/16/9 23/15/9 2/17/9 1/18/9
f 10/8/10 13/10/10 65/10/10 63/8/10
f 27/17/9 39/15/9 55/15/9 43/17/9
f 8/5/11 5/3/11 26/3/11 30/5/11
f 17/11/12 14/9/12 34/9/12 35/11/12
f 2/17/13 23/15/13 39/15/13 27/17/13
f 5/3/14 2/2/14 27/2/14 26/3/14
f 11/7/15 8/5/15 30/5/15 32/7/15
f 20/13/16 17/11/16 35/11/16 37/13/16
f 14/9/17 11/7/17 32/7/17 34/9/17
f 84/19/18 47/20/18 45/21/18 87/22/18
f 87/22/18 45/21/18 41/23/18 43/24/18 55/25/18 53/26/18 52/27/18 49/28/18 47/20/18 84/19/18 88/29/18 83/30/18 86/31/18 82/32/18 85/33/18 81/34/18
f 37/13/6 35/11/6 52/11/6 53/13/6
f 34/9/4 32/7/4 47/7/4 49/9/4
f 30/5/2 26/3/2 41/3/2 45/5/2
f 39/15/8 37/13/8 53/13/8 55/15/8
f 35/11/5 34/9/5 49/9/5 52/11/5
f 32/7/3 30/5/3 45/5/3 47/7/3
f 26/3/1 27/2/1 43/2/1 41/3/1
f 62/6/3 63/8/3 76/8/3 75/6/3
f 19/14/19 22/16/19 71/16/19 69/14/19
f 4/4/20 7/6/20 62/6/20 59/4/20
f 13/10/21 16/12/21 67/12/21 65/10/21
f 22/16/22 1/18/22 58/18/22 71/16/22
f 1/1/23 4/4/23 59/4/23 58/1/23
f 7/6/24 10/8/24 63/8/24 62/6/24
f 16/12/25 19/14/25 69/14/25 67/12/25
f 79/35/26 80/36/26 73/37/26 74/38/26 75/39/26 76/40/26 96/41/26 90/42/26 93/43/26 89/44/26 95/45/26 92/46/26
f 96/41/26 76/40/26 77/47/26 78/48/26 79/35/26 92/46/26 94/49/26 91/50/26
f 58/1/1 59/4/1 74/4/1 73/1/1
f 71/16/9 58/18/9 73/18/9 80/16/9
f 67/12/6 69/14/6 79/14/6 78/12/6
f 63/8/4 65/10/4 77/10/4 76/8/4
f 59/4/2 62/6/2 75/6/2 74/4/2
f 69/14/8 71/16/8 80/16/8 79/14/8
f 65/10/5 67/12/5 78/12/5 77/10/5
f 93/51/5 6/3/5 3/2/5 89/52/5
f 9/5/6 6/3/6 93/51/6 90/53/6
f 12/7/8 9/5/8 90/53/8 96/54/8
f 15/9/9 12/7/9 96/54/9 91/55/9
f 18/11/1 15/9/1 91/55/1 94/56/1
f 92/57/2 21/13/2 18/11/2 94/56/2
f 40/15/27 24/15/27 3/17/27 28/17/27
f 95/58/3 24/15/3 21/13/3 92/57/3
f 89/59/4 3/17/4 24/15/4 95/58/4
f 54/13/3 38/13/3 40/15/3 56/15/3
f 28/2/28 3/2/28 6/3/28 25/3/28
f 12/7/29 31/7/29 29/5/29 9/5/29
f 36/11/30 18/11/30 21/13/30 38/13/30
f 31/7/31 12/7/31 15/9/31 33/9/31
f 38/13/32 21/13/32 24/15/32 40/15/32
f 25/3/33 6/3/33 9/5/33 29/5/33
f 33/9/34 15/9/34 18/11/34 36/11/34
f 68/11/35 51/11/35 54/13/35 70/13/35
f 36/11/1 51/11/1 50/9/1 33/9/1
f 31/7/8 48/7/8 46/5/8 29/5/8
f 44/2/5 28/2/5 25/3/5 42/3/5
f 56/15/4 40/15/4 28/17/4 44/17/4
f 51/11/2 36/11/2 38/13/2 54/13/2
f 33/9/9 50/9/9 48/7/9 31/7/9
f 29/5/6 46/5/6 42/3/6 25/3/6
f 60/2/5 57/3/5 81/3/5 85/2/5
f 50/9/36 66/9/36 64/7/36 48/7/36
f 46/5/37 61/5/37 57/3/37 42/3/37
f 70/13/38 54/13/38 56/15/38 72/15/38
f 51/11/39 68/11/39 66/9/39 50/9/39
f 61/5/40 46/5/40 48/7/40 64/7/40
f 60/2/41 44/2/41 42/3/41 57/3/41
f 72/15/42 56/15/42 44/17/42 60/17/42
f 72/15/4 60/17/4 85/17/4 82/15/4
f 83/11/2 68/11/2 70/13/2 86/13/2
f 64/7/9 66/9/9 88/9/9 84/7/9
f 57/3/6 61/5/6 87/5/6 81/3/6
f 86/13/3 70/13/3 72/15/3 82/15/3
f 66/9/1 68/11/1 83/11/1 88/9/1
f 61/5/8 64/7/8 84/7/8 87/5/8
f 129/60/43 97/2/43 98/3/43 130/61/43
f 130/61/44 98/3/44 99/5/44 132/62/44 131/63/44
f 132/62/45 99/5/45 100/7/45 134/64/45 133/65/45
f 134/64/46 100/7/46 101/9/46 135/66/46
f 135/66/47 101/9/47 102/11/47 137/67/47 136/66/47
f 137/67/48 102/11/48 103/13/48 139/68/48 138/69/48
f 100/7/49 99/5/49 107/5/49 108/7/49
f 139/68/50 103/13/50 104/15/50 141/70/50 140/71/50
f 141/70/51 104/15/51 97/17/51 129/72/51 142/72/51
f 112/15/50 111/13/50 119/13/50 120/15/50
f 103/13/52 102/11/52 110/11/52 111/13/52
f 101/9/53 100/7/53 108/7/53 109/9/53
f 104/15/54 103/13/54 111/13/54 112/15/54
f 99/5/55 98/3/55 105/3/55 107/5/55
f 102/11/56 101/9/56 109/9/56 110/11/56
f 97/17/57 104/15/57 112/15/57 106/17/57
f 98/3/58 97/2/58 106/2/58 105/3/58
f 115/5/59 113/3/59 121/3/59 123/5/59
f 110/11/47 109/9/47 117/9/47 118/11/47
f 108/7/45 107/5/45 115/5/45 116/7/45
f 105/3/43 106/2/43 114/2/43 113/3/43
f 106/17/51 112/15/51 120/15/51 114/17/51
f 111/13/48 110/11/48 118/11/48 119/13/48
f 109/9/46 108/7/46 116/7/46 117/9/46
f 107/5/44 105/3/44 113/3/44 115/5/44
f 123/21/60 121/23/60 122/24/60 128/25/60 127/26/60 126/27/60 125/28/60 124/20/60
f 120/15/61 119/13/61 127/13/61 128/15/61
f 118/11/62 117/9/62 125/9/62 126/11/62
f 116/7/63 115/5/63 123/5/63 124/7/63
f 113/3/64 114/2/64 122/2/64 121/3/64
f 114/17/65 120/15/65 128/15/65 122/17/65
f 119/13/66 118/11/66 126/11/66 127/13/66
f 117/9/67 116/7/67 124/7/67 125/9/67
f 136/9/1 137/73/1 138/11/1 140/11/1 141/74/1 142/9/1
f 133/7/8 131/7/8 132/75/8
f 140/11/2 138/11/2 139/76/2
f 130/77/9 131/7/9 133/7/9 134/78/9 135/9/9 136/9/9 142/9/9 129/9/9
f 175/79/68 143/2/68 144/3/68 176/80/68
f 176/80/69 144/3/69 145/5/69 178/81/69 177/82/69
f 178/81/70 145/5/70 146/7/70 180/83/70 179/84/70
f 180/83/71 146/7/71 147/9/71 181/85/71
f 181/85/72 147/9/72 148/11/72 183/86/72 182/87/72
f 183/86/73 148/11/73 149/13/73 185/88/73 184/89/73
f 146/7/74 145/5/74 153/5/74 154/7/74
f 149/13/75 150/15/75 187/90/75 186/91/75 185/88/75
f 150/15/76 143/17/76 175/92/76 188/93/76 187/90/76
f 158/15/75 157/13/75 165/13/75 166/15/75
f 149/13/77 148/11/77 156/11/77 157/13/77
f 147/9/78 146/7/78 154/7/78 155/9/78
f 150/15/79 149/13/79 157/13/79 158/15/79
f 145/5/80 144/3/80 151/3/80 153/5/80
f 148/11/81 147/9/81 155/9/81 156/11/81
f 143/17/82 150/15/82 158/15/82 152/17/82
f 144/3/83 143/2/83 152/2/83 151/3/83
f 161/5/84 159/3/84 167/3/84 169/5/84
f 156/11/72 155/9/72 163/9/72 164/11/72
f 154/7/70 153/5/70 161/5/70 162/7/70
f 151/3/68 152/2/68 160/2/68 159/3/68
f 152/17/76 158/15/76 166/15/76 160/17/76
f 157/13/73 156/11/73 164/11/73 165/13/73
f 155/9/71 154/7/71 162/7/71 163/9/71
f 153/5/69 151/3/69 159/3/69 161/5/69
f 169/21/85 167/23/85 168/24/85 174/25/85 173/26/85 172/27/85 171/28/85 170/20/85
f 166/15/86 165/13/86 173/13/86 174/15/86
f 164/11/87 163/9/87 171/9/87 172/11/87
f 162/7/88 161/5/88 169/5/88 170/7/88
f 159/3/89 160/2/89 168/2/89 167/3/89
f 160/17/90 166/15/90 174/15/90 168/17/90
f 165/13/91 164/11/91 172/11/91 173/13/91
f 163/9/92 162/7/92 170/7/92 171/9/92
f 182/13/3 183/94/3 184/15/3 186/15/3 187/94/3 188/13/3
f 179/11/1 177/11/1 178/95/1
f 185/96/4 186/15/4 184/15/4
f 176/97/2 177/11/2 179/11/2 180/98/2 181/13/2 182/13/2 188/13/2 175/13/2
