# Blender 4.4.3
# www.blender.org
mtllib Base.mtl
o Cylinder
v 0.000000 1.457863 -3.650711
v 1.825356 1.457863 -3.161609
v 3.161609 1.457863 -1.825356
v 3.650711 1.457863 -0.000000
v 3.161609 1.457863 1.825356
v 1.825356 1.457863 3.161609
v 0.000000 1.457863 3.650711
v -1.825356 1.457863 3.161609
v -3.161609 1.457863 1.825356
v -3.650711 1.457863 -0.000000
v -3.161609 1.457863 -1.825356
v -1.825356 1.457863 -3.161609
v -0.000000 2.793047 -1.432495
v 0.000000 2.273535 -4.334700
v 0.716248 2.793047 -1.240578
v 2.167350 2.273535 -3.753960
v 1.240577 2.793047 -0.716248
v 3.753960 2.273535 -2.167350
v 1.432495 2.793047 0.000000
v 4.334700 2.273535 -0.000000
v 1.240577 2.793047 0.716248
v 3.753960 2.273535 2.167350
v 0.716248 2.793047 1.240578
v 2.167350 2.273535 3.753960
v -0.000000 2.793047 1.432495
v 0.000000 2.273535 4.334700
v -0.716248 2.793047 1.240578
v -2.167350 2.273535 3.753960
v -1.240578 2.793047 0.716248
v -3.753960 2.273535 2.167350
v -1.432495 2.793047 0.000000
v -4.334700 2.273535 -0.000000
v -1.240578 2.793047 -0.716248
v -3.753960 2.273535 -2.167350
v -0.716248 2.793047 -1.240578
v -2.167350 2.273535 -3.753960
v 0.000000 1.457863 -4.065313
v 2.032657 1.457863 -3.520665
v 3.520665 1.457863 -2.032657
v 4.065313 1.457863 -0.000000
v 3.520665 1.457863 2.032657
v 2.032657 1.457863 3.520665
v 0.000000 1.457863 4.065313
v -2.032656 1.457863 3.520665
v -3.520665 1.457863 2.032657
v -4.065313 1.457863 -0.000000
v -3.520665 1.457863 -2.032657
v -2.032656 1.457863 -3.520665
v 0.000000 0.042527 -3.198080
v 1.599040 0.042527 -2.769619
v 2.769619 0.042527 -1.599040
v 3.198080 0.042527 -0.000000
v 2.769619 0.042527 1.599040
v 1.599040 0.042527 2.769619
v 0.000000 0.042527 3.198080
v -1.599040 0.042527 2.769619
v -2.769619 0.042527 1.599040
v -3.198080 0.042527 -0.000000
v -2.769619 0.042527 -1.599040
v -1.599040 0.042527 -2.769619
vn -0.2466 -0.3039 -0.9202
vn 0.9202 -0.3039 -0.2466
vn 0.9202 -0.3039 0.2466
vn 0.6737 -0.3039 0.6737
vn 0.2466 -0.3039 0.9202
vn -0.2466 -0.3039 0.9202
vn -0.6737 -0.3039 0.6737
vn -0.9202 -0.3039 0.2466
vn -0.9202 -0.3039 -0.2466
vn -0.6737 -0.3039 -0.6737
vn 0.2466 -0.3039 -0.9202
vn 0.6737 -0.3039 -0.6737
vn 0.2473 -0.2951 -0.9229
vn 0.0472 0.9833 -0.1760
vn 0.1288 0.9833 -0.1288
vn 0.1760 0.9833 -0.0472
vn 0.1760 0.9833 0.0472
vn 0.1288 0.9833 0.1288
vn 0.0472 0.9833 0.1760
vn -0.0472 0.9833 0.1760
vn -0.1288 0.9833 0.1288
vn -0.1760 0.9833 0.0472
vn -0.1760 0.9833 -0.0472
vn -0.1288 0.9833 -0.1288
vn -0.0472 0.9833 -0.1760
vn -0.0000 1.0000 -0.0000
vn -0.0000 -1.0000 -0.0000
vn -0.6756 -0.2951 0.6756
vn 0.6756 -0.2951 0.6756
vn -0.2473 -0.2951 -0.9229
vn 0.6756 -0.2951 -0.6756
vn -0.9229 -0.2951 0.2473
vn 0.2473 -0.2951 0.9229
vn 0.9229 -0.2951 -0.2473
vn -0.9229 -0.2951 -0.2473
vn -0.2473 -0.2951 0.9229
vn 0.9229 -0.2951 0.2473
vn -0.6756 -0.2951 -0.6756
vt 0.083333 0.500000
vt 0.083333 0.906026
vt 0.000000 0.906026
vt 0.000000 0.500000
vt 0.833333 0.500000
vt 0.833333 0.906026
vt 0.750000 0.906026
vt 0.750000 0.500000
vt 0.750000 0.906026
vt 0.666667 0.906026
vt 0.666667 0.500000
vt 0.666667 0.906026
vt 0.583333 0.906026
vt 0.583333 0.500000
vt 0.583333 0.906026
vt 0.500000 0.906026
vt 0.500000 0.500000
vt 0.500000 0.906026
vt 0.416667 0.906026
vt 0.416667 0.500000
vt 0.416667 0.906026
vt 0.333333 0.906026
vt 0.333333 0.500000
vt 0.333333 0.906026
vt 0.250000 0.906026
vt 0.250000 0.500000
vt 0.250000 0.906026
vt 0.166667 0.906026
vt 0.166667 0.500000
vt 0.166667 0.906026
vt 0.083333 0.906026
vt 1.000000 0.500000
vt 1.000000 0.906026
vt 0.916667 0.906026
vt 0.916667 0.500000
vt 0.916667 0.906026
vt 0.833333 0.906026
vt 0.750000 0.465524
vt 0.857762 0.436649
vt 0.370000 0.457846
vt 0.250000 0.490000
vt 0.250000 0.464725
vt 0.357362 0.435957
vt 0.457846 0.370000
vt 0.435957 0.357362
vt 0.490000 0.250000
vt 0.464725 0.250000
vt 0.457846 0.130000
vt 0.435957 0.142638
vt 0.370000 0.042154
vt 0.357362 0.064043
vt 0.250000 0.010000
vt 0.250000 0.035275
vt 0.130000 0.042154
vt 0.142638 0.064043
vt 0.042154 0.130000
vt 0.064043 0.142638
vt 0.010000 0.250000
vt 0.035275 0.250000
vt 0.042154 0.370000
vt 0.064043 0.357362
vt 0.130000 0.457846
vt 0.142638 0.435957
vt 0.750000 0.490000
vt 0.870000 0.457846
vt 0.936649 0.357762
vt 0.957846 0.370000
vt 0.965524 0.250000
vt 0.990000 0.250000
vt 0.936649 0.142238
vt 0.957846 0.130000
vt 0.857762 0.063351
vt 0.870000 0.042154
vt 0.750000 0.034476
vt 0.750000 0.010000
vt 0.642238 0.063351
vt 0.630000 0.042154
vt 0.563351 0.142238
vt 0.542154 0.130000
vt 0.534476 0.250000
vt 0.510000 0.250000
vt 0.563351 0.357762
vt 0.542154 0.370000
vt 0.642238 0.436649
vt 0.630000 0.457846
s 0
f 48/1/1 36/2/1 14/3/1 37/4/1
f 39/5/2 18/6/2 20/7/2 40/8/2
f 40/8/3 20/9/3 22/10/3 41/11/3
f 41/11/4 22/12/4 24/13/4 42/14/4
f 42/14/5 24/15/5 26/16/5 43/17/5
f 43/17/6 26/18/6 28/19/6 44/20/6
f 44/20/7 28/21/7 30/22/7 45/23/7
f 45/23/8 30/24/8 32/25/8 46/26/8
f 46/26/9 32/27/9 34/28/9 47/29/9
f 47/29/10 34/30/10 36/31/10 48/1/10
f 37/32/11 14/33/11 16/34/11 38/35/11
f 38/35/12 16/36/12 18/37/12 39/5/12
f 1/38/13 2/39/13 50/39/13 49/38/13
f 16/40/14 14/41/14 13/42/14 15/43/14
f 18/44/15 16/40/15 15/43/15 17/45/15
f 20/46/16 18/44/16 17/45/16 19/47/16
f 22/48/17 20/46/17 19/47/17 21/49/17
f 24/50/18 22/48/18 21/49/18 23/51/18
f 26/52/19 24/50/19 23/51/19 25/53/19
f 28/54/20 26/52/20 25/53/20 27/55/20
f 30/56/21 28/54/21 27/55/21 29/57/21
f 32/58/22 30/56/22 29/57/22 31/59/22
f 34/60/23 32/58/23 31/59/23 33/61/23
f 36/62/24 34/60/24 33/61/24 35/63/24
f 14/41/25 36/62/25 35/63/25 13/42/25
f 15/43/26 13/42/26 35/63/26 33/61/26 31/59/26 29/57/26 27/55/26 25/53/26 23/51/26 21/49/26 19/47/26 17/45/26
f 2/39/27 1/38/27 37/64/27 38/65/27
f 3/66/27 2/39/27 38/65/27 39/67/27
f 4/68/27 3/66/27 39/67/27 40/69/27
f 5/70/27 4/68/27 40/69/27 41/71/27
f 6/72/27 5/70/27 41/71/27 42/73/27
f 7/74/27 6/72/27 42/73/27 43/75/27
f 8/76/27 7/74/27 43/75/27 44/77/27
f 9/78/27 8/76/27 44/77/27 45/79/27
f 10/80/27 9/78/27 45/79/27 46/81/27
f 11/82/27 10/80/27 46/81/27 47/83/27
f 12/84/27 11/82/27 47/83/27 48/85/27
f 1/38/27 12/84/27 48/85/27 37/64/27
f 49/38/27 50/39/27 51/66/27 52/68/27 53/70/27 54/72/27 55/74/27 56/76/27 57/78/27 58/80/27 59/82/27 60/84/27
f 8/76/28 9/78/28 57/78/28 56/76/28
f 5/70/29 6/72/29 54/72/29 53/70/29
f 12/84/30 1/38/30 49/38/30 60/84/30
f 2/39/31 3/66/31 51/66/31 50/39/31
f 9/78/32 10/80/32 58/80/32 57/78/32
f 6/72/33 7/74/33 55/74/33 54/72/33
f 3/66/34 4/68/34 52/68/34 51/66/34
f 10/80/35 11/82/35 59/82/35 58/80/35
f 7/74/36 8/76/36 56/76/36 55/74/36
f 4/68/37 5/70/37 53/70/37 52/68/37
f 11/82/38 12/84/38 60/84/38 59/82/38
