# Blender 4.4.3
# www.blender.org
mtllib GunRight.mtl
o Gun_LSpin.001
v -1.331952 1.498826 3.813368
v -1.360515 1.498826 3.812898
v -1.331234 1.480779 3.769806
v -1.359798 1.480779 3.769335
v -1.330937 1.437210 3.751761
v -1.359500 1.437210 3.751291
v -1.331234 1.393641 3.769805
v -1.359798 1.393641 3.769335
v -1.331952 1.375595 3.813368
v -1.360515 1.375595 3.812898
v -1.332669 1.393641 3.856931
v -1.361233 1.393641 3.856461
v -1.332967 1.437210 3.874976
v -1.361530 1.437210 3.874505
v -1.332669 1.480779 3.856931
v -1.361233 1.480779 3.856461
v -1.828995 1.482145 3.805180
v -1.913869 1.482145 3.803782
v -1.828471 1.468984 3.773411
v -1.913345 1.468984 3.772013
v -1.828254 1.437211 3.760252
v -1.913128 1.437211 3.758854
v -1.828471 1.405438 3.773411
v -1.913345 1.405438 3.772013
v -1.828995 1.392277 3.805180
v -1.913869 1.392277 3.803782
v -1.829518 1.405438 3.836949
v -1.914392 1.405438 3.835550
v -1.829735 1.437211 3.850107
v -1.914609 1.437211 3.848709
v -1.829518 1.468984 3.836949
v -1.914392 1.468984 3.835550
v -1.913454 1.462363 3.778633
v -1.914283 1.462363 3.828931
v -1.914283 1.412058 3.828931
v -1.913454 1.412058 3.778633
v -1.914455 1.437211 3.839348
v -1.913283 1.437211 3.768215
v -1.913869 1.472782 3.803782
v -1.913869 1.401640 3.803782
v -1.828995 1.472782 3.805180
v -1.828409 1.437211 3.769614
v -1.828995 1.401640 3.805180
v -1.829581 1.437211 3.840746
v -1.829409 1.462363 3.830329
v -1.828580 1.412058 3.780030
v -1.828580 1.462363 3.780030
v -1.829409 1.412058 3.830329
v -1.602036 1.482144 3.808919
v -1.629098 1.482144 3.808473
v -1.601513 1.468983 3.777150
v -1.628575 1.468983 3.776704
v -1.601296 1.437210 3.763991
v -1.628358 1.437210 3.763545
v -1.601513 1.405437 3.777150
v -1.628575 1.405437 3.776704
v -1.602036 1.392277 3.808919
v -1.629098 1.392277 3.808473
v -1.602560 1.405437 3.840688
v -1.629622 1.405437 3.840241
v -1.602777 1.437210 3.853847
v -1.629838 1.437210 3.853400
v -1.602560 1.468983 3.840688
v -1.629622 1.468983 3.840241
v -1.882177 1.450167 3.804304
v -1.351042 1.450167 3.813054
v -1.882361 1.456610 3.815463
v -1.351226 1.456610 3.824213
v -1.882361 1.469497 3.815463
v -1.351226 1.469497 3.824213
v -1.882177 1.475941 3.804304
v -1.351042 1.475941 3.813054
v -1.881993 1.469497 3.793145
v -1.350858 1.469497 3.801895
v -1.881993 1.456610 3.793145
v -1.350858 1.456610 3.801895
v -1.882177 1.424255 3.804304
v -1.351042 1.424255 3.813054
v -1.881993 1.417811 3.793145
v -1.350858 1.417811 3.801895
v -1.881993 1.404924 3.793145
v -1.350858 1.404924 3.801895
v -1.882177 1.398481 3.804304
v -1.351042 1.398481 3.813054
v -1.882361 1.404924 3.815463
v -1.351226 1.404924 3.824213
v -1.882361 1.417811 3.815463
v -1.351226 1.417811 3.824213
v -1.882362 1.430733 3.815522
v -1.351227 1.430733 3.824273
v -1.882362 1.417846 3.815522
v -1.351227 1.417846 3.824273
v -1.882545 1.411402 3.826681
v -1.351411 1.411402 3.835431
v -1.882729 1.417846 3.837841
v -1.351595 1.417846 3.846591
v -1.882729 1.430733 3.837841
v -1.351595 1.430733 3.846591
v -1.882545 1.437176 3.826681
v -1.351411 1.437176 3.835431
v -1.881992 1.443689 3.793085
v -1.350857 1.443689 3.801835
v -1.881992 1.456576 3.793085
v -1.350857 1.456576 3.801835
v -1.881808 1.463019 3.781926
v -1.350673 1.463019 3.790676
v -1.881624 1.456576 3.770767
v -1.350490 1.456576 3.779517
v -1.881624 1.443689 3.770767
v -1.350490 1.443689 3.779517
v -1.881808 1.437245 3.781926
v -1.350673 1.437245 3.790676
v -1.881992 1.430733 3.793085
v -1.350857 1.430733 3.801835
v -1.881808 1.437176 3.781926
v -1.350673 1.437176 3.790676
v -1.881624 1.430733 3.770767
v -1.350490 1.430733 3.779517
v -1.881624 1.417846 3.770767
v -1.350490 1.417846 3.779517
v -1.881808 1.411402 3.781926
v -1.350673 1.411402 3.790676
v -1.881992 1.417846 3.793085
v -1.350857 1.417846 3.801835
v -1.882362 1.443689 3.815522
v -1.351227 1.443689 3.824273
v -1.882545 1.437245 3.826681
v -1.351411 1.437245 3.835431
v -1.882729 1.443689 3.837841
v -1.351595 1.443689 3.846591
v -1.882729 1.456576 3.837841
v -1.351595 1.456576 3.846591
v -1.882545 1.463019 3.826681
v -1.351411 1.463019 3.835431
v -1.882362 1.456576 3.815522
v -1.351227 1.456576 3.824273
vn 0.0063 0.9239 -0.3826
vn 0.0152 0.3827 -0.9238
vn 0.0152 -0.3827 -0.9238
vn 0.0063 -0.9239 -0.3826
vn -0.0063 -0.9239 0.3826
vn -0.0152 -0.3827 0.9238
vn -0.9999 -0.0000 -0.0165
vn -0.0152 0.3827 0.9238
vn -0.0063 0.9239 0.3826
vn 0.9999 -0.0000 0.0165
vn -0.0082 -0.8660 0.4999
vn -0.0165 -0.0000 0.9999
vn -0.0082 0.8660 0.4999
vn 0.0082 0.8660 -0.4999
vn 0.0165 -0.0000 -0.9999
vn 0.0082 -0.8660 -0.4999
vt 1.000000 0.500000
vt 1.000000 1.000000
vt 0.875000 1.000000
vt 0.875000 0.500000
vt 0.750000 1.000000
vt 0.750000 0.500000
vt 0.625000 1.000000
vt 0.625000 0.500000
vt 0.500000 1.000000
vt 0.500000 0.500000
vt 0.375000 1.000000
vt 0.375000 0.500000
vt 0.250000 1.000000
vt 0.250000 0.500000
vt 0.419706 0.419706
vt 0.250000 0.490000
vt 0.080294 0.419706
vt 0.010000 0.250000
vt 0.080294 0.080294
vt 0.250000 0.010000
vt 0.419706 0.080294
vt 0.490000 0.250000
vt 0.125000 1.000000
vt 0.125000 0.500000
vt 0.000000 1.000000
vt 0.000000 0.500000
vt 0.750000 0.490000
vt 0.919706 0.419706
vt 0.990000 0.250000
vt 0.919706 0.080294
vt 0.750000 0.010000
vt 0.580294 0.080294
vt 0.510000 0.250000
vt 0.580294 0.419706
vt 0.115656 0.115656
vt 0.384344 0.115656
vt 0.250000 0.060008
vt 0.060008 0.250000
vt 0.115656 0.384344
vt 0.250000 0.439992
vt 0.384344 0.384344
vt 0.439992 0.250000
vt 0.615656 0.115656
vt 0.884344 0.115656
vt 0.939992 0.250000
vt 0.884344 0.384344
vt 0.750000 0.439992
vt 0.615655 0.384344
vt 0.560008 0.250000
vt 0.750000 0.060008
vt 0.875000 0.650317
vt 0.875000 0.849683
vt 1.000000 0.849683
vt 1.000000 0.650317
vt 0.750000 0.849683
vt 0.750000 0.650317
vt 0.625000 0.849683
vt 0.625000 0.650317
vt 0.500000 0.849683
vt 0.500000 0.650317
vt 0.375000 0.849683
vt 0.375000 0.650317
vt 0.250000 0.650317
vt 0.250000 0.849683
vt 0.125000 0.650317
vt 0.125000 0.849683
vt 0.000000 0.650317
vt 0.000000 0.849683
vt 0.833333 0.500000
vt 0.833333 1.000000
vt 0.666667 0.500000
vt 0.666667 1.000000
vt 0.500000 0.500000
vt 0.500000 1.000000
vt 0.333333 0.500000
vt 0.333333 1.000000
vt 0.457846 0.370000
vt 0.457846 0.130000
vt 0.042154 0.130000
vt 0.042154 0.370000
vt 0.166667 0.500000
vt 0.166667 1.000000
vt -0.000000 0.500000
vt -0.000000 1.000000
vt 0.542154 0.370000
vt 0.542154 0.130000
vt 0.957846 0.130000
vt 0.957846 0.370000
s 0
f 1/1/1 3/4/1 4/3/1 2/2/1
f 3/4/2 5/6/2 6/5/2 4/3/2
f 5/6/3 7/8/3 8/7/3 6/5/3
f 7/8/4 9/10/4 10/9/4 8/7/4
f 9/10/5 11/12/5 12/11/5 10/9/5
f 11/12/6 13/14/6 14/13/6 12/11/6
f 4/15/7 6/22/7 8/21/7 10/20/7 12/19/7 14/18/7 16/17/7 2/16/7
f 13/14/8 15/24/8 16/23/8 14/13/8
f 15/24/9 1/26/9 2/25/9 16/23/9
f 1/27/10 15/34/10 13/33/10 11/32/10 9/31/10 7/30/10 5/29/10 3/28/10
f 17/1/1 19/4/1 20/3/1 18/2/1
f 19/4/2 21/6/2 22/5/2 20/3/2
f 21/6/3 23/8/3 24/7/3 22/5/3
f 23/8/4 25/10/4 26/9/4 24/7/4
f 25/10/5 27/12/5 28/11/5 26/9/5
f 27/12/6 29/14/6 30/13/6 28/11/6
f 35/35/7 40/37/7 36/36/7 24/21/7 26/20/7 28/19/7
f 24/21/7 36/36/7 38/42/7 33/41/7 39/40/7 34/39/7 37/38/7 35/35/7 28/19/7 30/18/7 32/17/7 18/16/7 20/15/7 22/22/7
f 29/14/8 31/24/8 32/23/8 30/13/8
f 31/24/9 17/26/9 18/25/9 32/23/9
f 48/43/10 44/49/10 45/48/10 41/47/10 47/46/10 42/45/10 46/44/10 23/30/10 21/29/10 19/28/10 17/27/10 31/34/10 29/33/10 27/32/10
f 46/44/10 43/50/10 48/43/10 27/32/10 25/31/10 23/30/10
f 47/51/5 41/54/5 39/53/5 33/52/5
f 38/55/6 42/56/6 47/51/6 33/52/6
f 36/57/8 46/58/8 42/56/8 38/55/8
f 40/59/9 43/60/9 46/58/9 36/57/9
f 35/61/1 48/62/1 43/60/1 40/59/1
f 44/63/2 48/62/2 35/61/2 37/64/2
f 45/65/3 44/63/3 37/64/3 34/66/3
f 41/67/4 45/65/4 34/66/4 39/68/4
f 49/1/1 51/4/1 52/3/1 50/2/1
f 51/4/2 53/6/2 54/5/2 52/3/2
f 53/6/3 55/8/3 56/7/3 54/5/3
f 55/8/4 57/10/4 58/9/4 56/7/4
f 57/10/5 59/12/5 60/11/5 58/9/5
f 59/12/6 61/14/6 62/13/6 60/11/6
f 52/15/7 54/22/7 56/21/7 58/20/7 60/19/7 62/18/7 64/17/7 50/16/7
f 61/14/8 63/24/8 64/23/8 62/13/8
f 63/24/9 49/26/9 50/25/9 64/23/9
f 49/27/10 63/34/10 61/33/10 59/32/10 57/31/10 55/30/10 53/29/10 51/28/10
f 65/1/11 66/2/11 68/70/11 67/69/11
f 67/69/12 68/70/12 70/72/12 69/71/12
f 69/71/13 70/72/13 72/74/13 71/73/13
f 71/73/14 72/74/14 74/76/14 73/75/14
f 68/77/10 66/16/10 76/80/10 74/79/10 72/20/10 70/78/10
f 73/75/15 74/76/15 76/82/15 75/81/15
f 75/81/16 76/82/16 66/84/16 65/83/16
f 65/27/7 67/88/7 69/87/7 71/31/7 73/86/7 75/85/7
f 77/1/14 78/2/14 80/70/14 79/69/14
f 79/69/15 80/70/15 82/72/15 81/71/15
f 81/71/16 82/72/16 84/74/16 83/73/16
f 83/73/11 84/74/11 86/76/11 85/75/11
f 80/77/10 78/16/10 88/80/10 86/79/10 84/20/10 82/78/10
f 85/75/12 86/76/12 88/82/12 87/81/12
f 87/81/13 88/82/13 78/84/13 77/83/13
f 77/27/7 79/88/7 81/87/7 83/31/7 85/86/7 87/85/7
f 89/1/15 90/2/15 92/70/15 91/69/15
f 91/69/16 92/70/16 94/72/16 93/71/16
f 93/71/11 94/72/11 96/74/11 95/73/11
f 95/73/12 96/74/12 98/76/12 97/75/12
f 92/77/10 90/16/10 100/80/10 98/79/10 96/20/10 94/78/10
f 97/75/13 98/76/13 100/82/13 99/81/13
f 99/81/14 100/82/14 90/84/14 89/83/14
f 89/27/7 91/88/7 93/87/7 95/31/7 97/86/7 99/85/7
f 101/1/12 102/2/12 104/70/12 103/69/12
f 103/69/13 104/70/13 106/72/13 105/71/13
f 105/71/14 106/72/14 108/74/14 107/73/14
f 107/73/15 108/74/15 110/76/15 109/75/15
f 104/77/10 102/16/10 112/80/10 110/79/10 108/20/10 106/78/10
f 109/75/16 110/76/16 112/82/16 111/81/16
f 111/81/11 112/82/11 102/84/11 101/83/11
f 101/27/7 103/88/7 105/87/7 107/31/7 109/86/7 111/85/7
f 113/1/13 114/2/13 116/70/13 115/69/13
f 115/69/14 116/70/14 118/72/14 117/71/14
f 117/71/15 118/72/15 120/74/15 119/73/15
f 119/73/16 120/74/16 122/76/16 121/75/16
f 116/77/10 114/16/10 124/80/10 122/79/10 120/20/10 118/78/10
f 121/75/11 122/76/11 124/82/11 123/81/11
f 123/81/12 124/82/12 114/84/12 113/83/12
f 113/27/7 115/88/7 117/87/7 119/31/7 121/86/7 123/85/7
f 125/1/16 126/2/16 128/70/16 127/69/16
f 127/69/11 128/70/11 130/72/11 129/71/11
f 129/71/12 130/72/12 132/74/12 131/73/12
f 131/73/13 132/74/13 134/76/13 133/75/13
f 128/77/10 126/16/10 136/80/10 134/79/10 132/20/10 130/78/10
f 133/75/14 134/76/14 136/82/14 135/81/14
f 135/81/15 136/82/15 126/84/15 125/83/15
f 125/27/7 127/88/7 129/87/7 131/31/7 133/86/7 135/85/7
