# Blender 4.4.3
# www.blender.org
mtllib GunRight2.mtl
o Gun_RBase
v -1.072370 1.174707 4.046121
v -1.072370 1.218626 4.046121
v -1.055844 1.174707 4.021017
v -1.055844 1.218626 4.021017
v -1.339173 1.174707 3.870490
v -1.339173 1.218626 3.870490
v -1.322647 1.174707 3.845386
v -1.322647 1.218626 3.845386
v -0.913415 1.172071 4.152596
v -0.913415 1.221261 4.152596
v -0.894906 1.172071 4.124478
v -0.894906 1.221261 4.124478
v -1.251644 1.172071 3.929948
v -1.251644 1.221261 3.929948
v -1.233135 1.172071 3.901829
v -1.233135 1.221261 3.901829
v -0.924269 0.677583 4.080129
v -0.924269 1.241558 4.080129
v -0.963424 0.677583 4.102735
v -0.963424 1.241558 4.102735
v -0.963424 0.677583 4.147947
v -0.963424 1.241558 4.147947
v -0.924269 0.677583 4.170554
v -0.924269 1.241558 4.170554
v -0.885114 0.677583 4.147947
v -0.885114 1.241558 4.147947
v -0.885114 0.677583 4.102735
v -0.885114 1.241558 4.102735
vn 0.8353 -0.0000 0.5498
vn 0.5498 -0.0000 -0.8353
vn -0.8353 -0.0000 -0.5498
vn -0.5498 -0.0000 0.8353
vn -0.0000 -1.0000 -0.0000
vn -0.0000 1.0000 -0.0000
vn -0.5000 -0.0000 -0.8660
vn -1.0000 -0.0000 -0.0000
vn -0.5000 -0.0000 0.8660
vn 0.5000 -0.0000 0.8660
vn 1.0000 -0.0000 -0.0000
vn 0.5000 -0.0000 -0.8660
vt 0.130323 0.115531
vt 0.130323 0.101157
vt 0.234864 0.101157
vt 0.234864 0.115531
vt 0.007639 0.116394
vt 0.007639 0.100295
vt 0.140168 0.100295
vt 0.140168 0.116394
vt 0.140168 0.100295
vt 0.140168 0.116394
vt 0.007951 0.069712
vt 0.176789 0.069712
vt 0.176789 0.076479
vt 0.007951 0.076479
vt 0.176789 0.090014
vt 0.007951 0.090014
vt 0.176789 0.096782
vt 0.007951 0.096782
s 1
f 1/1/1 3/1/1 4/2/1 2/2/1
f 3/1/2 7/4/2 8/3/2 4/2/2
f 7/4/3 5/4/3 6/3/3 8/3/3
f 5/4/4 1/1/4 2/2/4 6/3/4
f 3/1/5 1/1/5 5/4/5 7/4/5
f 8/3/6 6/3/6 2/2/6 4/2/6
f 9/5/1 11/5/1 12/6/1 10/6/1
f 11/5/2 15/8/2 16/7/2 12/6/2
f 15/8/3 13/10/3 14/9/3 16/7/3
f 13/10/4 9/5/4 10/6/4 14/9/4
f 11/5/5 9/5/5 13/10/5 15/8/5
f 16/7/6 14/9/6 10/6/6 12/6/6
f 17/11/7 19/14/7 20/13/7 18/12/7
f 19/14/8 21/16/8 22/15/8 20/13/8
f 21/16/9 23/18/9 24/17/9 22/15/9
f 23/18/10 25/16/10 26/15/10 24/17/10
f 20/13/6 22/15/6 24/17/6 26/15/6 28/13/6 18/12/6
f 25/16/11 27/14/11 28/13/11 26/15/11
f 27/14/12 17/11/12 18/12/12 28/13/12
