# Blender 4.4.3
# www.blender.org
mtllib Glass.mtl
o Cylinder.003
v 0.000000 0.764609 0.126031
v 0.000000 0.753333 0.122718
v 0.088980 0.723825 0.126031
v 0.090488 0.715852 0.122718
v -0.090488 0.715852 0.122718
v -0.088980 0.723825 0.126031
v 0.090488 0.715852 0.266618
v 0.098461 0.723825 0.282611
v 0.000000 0.764609 0.282611
v 0.000000 0.753333 0.266618
v -0.090488 0.715852 0.266618
v -0.098461 0.723825 0.282611
v 0.080457 0.702034 0.341856
v 0.087546 0.708790 0.364478
v 0.000000 0.734498 0.349390
v 0.000000 0.744114 0.372676
v -0.080457 0.702034 0.341856
v -0.087546 0.708790 0.364478
v 0.072215 0.665152 0.416919
v 0.078578 0.668658 0.446156
v 0.000000 0.699208 0.457385
v 0.000000 0.693228 0.427239
v -0.072215 0.665152 0.416919
v -0.078578 0.668658 0.446156
v 0.000000 0.744707 0.029105
v 0.071744 0.713242 0.053145
v 0.102136 0.683467 0.126031
v 0.093917 0.701442 0.062161
v -0.102136 0.683467 0.126031
v -0.101360 0.695548 0.083104
v -0.094618 0.701442 0.062161
v -0.071744 0.713242 0.053145
v 0.117630 0.639402 0.282611
v 0.111495 0.619936 0.351779
v -0.117630 0.639402 0.282611
v -0.111495 0.619936 0.351779
v 0.108475 0.614611 0.370700
v 0.099753 0.615473 0.431840
v -0.111130 0.614611 0.370700
v -0.099753 0.615473 0.431840
v 0.000000 0.630634 0.571239
v 0.064601 0.617040 0.542878
v 0.049901 0.617200 0.554202
v -0.049901 0.617200 0.554202
v -0.064601 0.617040 0.542878
v 0.083744 0.705762 0.058860
v 0.000000 0.735818 0.035897
v 0.085395 0.701442 0.062161
v 0.098946 0.684400 0.122718
v -0.083744 0.705762 0.058860
v -0.086099 0.701442 0.062161
v -0.092388 0.695288 0.084029
v -0.098946 0.684400 0.122718
v 0.106136 0.634172 0.301193
v 0.109836 0.643902 0.266618
v 0.100421 0.625795 0.330960
v -0.109836 0.643902 0.266618
v -0.103893 0.634663 0.299447
v -0.100421 0.625795 0.330960
v 0.094865 0.615903 0.366108
v 0.095293 0.614611 0.370700
v 0.094347 0.615003 0.398486
v -0.099708 0.614611 0.370700
v -0.098520 0.614794 0.383657
v -0.094347 0.615003 0.398486
v 0.000000 0.620115 0.557899
v 0.010632 0.617200 0.554202
v 0.063222 0.616593 0.511231
v -0.063222 0.616593 0.511231
v -0.010632 0.617200 0.554202
vn 0.4265 0.8817 -0.2016
vn 0.8313 0.5414 -0.1255
vn -0.7988 0.5935 -0.0985
vn -0.4265 0.8817 -0.2016
vn 0.9605 0.2273 0.1603
vn -0.3990 0.9169 -0.0121
vn 0.3990 0.9169 -0.0121
vn -0.9672 0.2506 -0.0419
vn 0.9672 0.2506 -0.0419
vn -0.3752 0.8170 0.4378
vn -0.9605 0.2273 0.1603
vn 0.3781 0.9015 0.2103
vn -0.3781 0.9015 0.2103
vn 0.9475 0.2553 0.1925
vn -0.9433 0.2703 0.1926
vn 0.3752 0.8170 0.4378
vn 0.3768 0.7935 0.4779
vn -0.3768 0.7935 0.4779
vn 0.9144 0.2872 0.2854
vn -0.9144 0.2872 0.2854
vn -0.3762 -0.9082 0.1832
vn -0.9560 -0.2571 0.1416
vn 0.9414 -0.3148 0.1211
vn 0.3762 -0.9082 0.1832
vn -0.9505 -0.2463 -0.1892
vn 0.3827 -0.9239 -0.0000
vn -0.3827 -0.9239 -0.0000
vn 0.9657 -0.2597 -0.0000
vn -0.9657 -0.2597 -0.0000
vn 0.3752 -0.8170 -0.4378
vn 0.9546 -0.2328 -0.1859
vn -0.3781 -0.9015 -0.2103
vn 0.3781 -0.9015 -0.2103
vn -0.9510 -0.2507 -0.1809
vn 0.9411 -0.2833 -0.1845
vn -0.3752 -0.8170 -0.4378
vn -0.3786 -0.8077 -0.4520
vn 0.3786 -0.8077 -0.4520
vn -0.9166 -0.3131 -0.2486
vn 0.9166 -0.3131 -0.2486
vn -0.0000 -0.9999 0.0141
vn -0.0000 -0.7852 0.6192
vn -0.0000 -0.9626 -0.2709
vn -0.0000 -0.6071 -0.7946
vt 1.000000 0.675773
vt 1.000000 1.000000
vt 0.875000 1.000000
vt 0.875000 0.756189
vt 0.841737 1.000000
vt 0.860798 0.786230
vt 0.147652 0.856871
vt 0.158263 1.000000
vt 0.125000 1.000000
vt 0.125000 0.756189
vt 0.139458 0.786591
vt 0.000000 1.000000
vt 0.000000 0.675773
vt 0.805418 1.000000
vt 0.794795 1.000000
vt 0.194582 1.000000
vt 0.170858 1.000000
vt 0.200443 1.000000
vt 0.205205 1.000000
vt 0.808991 1.000000
vt 0.794089 1.000000
vt 0.200744 1.000000
vt 0.191009 1.000000
vt 0.901288 1.000000
vt 0.098712 1.000000
vt 0.875000 0.830939
vt 1.000000 0.770144
vt 0.869806 0.839633
vt 0.846793 1.000000
vt 0.130428 0.839827
vt 0.125000 0.830939
vt 0.153207 1.000000
vt 0.140439 0.898052
vt 0.000000 0.770144
vt 0.800118 1.000000
vt 0.810474 1.000000
vt 0.804801 1.000000
vt 0.189526 1.000000
vt 0.199882 1.000000
vt 0.194338 1.000000
vt 0.786984 1.000000
vt 0.784315 1.000000
vt 0.782516 1.000000
vt 0.217484 1.000000
vt 0.218981 1.000000
vt 0.217192 1.000000
vt 0.977871 1.000000
vt 0.022129 1.000000
vt 0.771485 0.500000
vt 0.777814 0.500000
vt 0.792948 0.500000
vt 0.797847 0.500000
vt 0.792929 0.500000
vt 0.792418 0.500000
vt 0.790621 0.500000
vt 0.777220 0.500000
vt 0.754578 0.500000
vt 0.705272 0.500000
vt 0.707052 0.500000
vt 0.722186 0.500000
vt 0.728515 0.500000
vt 0.745423 0.500000
vt 0.722780 0.500000
vt 0.709379 0.500000
vt 0.708972 0.500000
vt 0.750000 0.500000
vt 0.798004 0.500000
vt 0.800645 0.500000
vt 0.798660 0.500000
vt 0.793640 0.500000
vt 0.790738 0.500000
vt 0.787070 0.500000
vt 0.789778 0.500000
vt 0.792601 0.500000
vt 0.797290 0.500000
vt 0.794731 0.500000
vt 0.793236 0.500000
vt 0.709564 0.500000
vt 0.697448 0.500000
vt 0.701004 0.500000
vt 0.701996 0.500000
vt 0.703296 0.500000
vt 0.709156 0.500000
vt 0.706764 0.500000
vt 0.704304 0.500000
vt 0.702710 0.500000
vt 0.707399 0.500000
vt 0.713233 0.500000
vt 0.787836 0.500000
vt 0.712164 0.500000
vt 0.713944 0.500000
vt 0.786056 0.500000
s 0
f 25/1/1 1/2/1 3/3/1 26/4/1
f 26/4/2 3/3/2 27/5/2 28/6/2
f 30/7/3 29/8/3 6/9/3 32/10/3 31/11/3
f 6/9/4 1/12/4 25/13/4 32/10/4
f 33/14/5 8/3/5 14/3/5 34/15/5
f 1/12/6 6/9/6 12/9/6 9/12/6
f 3/3/7 1/2/7 9/2/7 8/3/7
f 35/16/8 12/9/8 6/9/8 29/17/8
f 27/5/9 3/3/9 8/3/9 33/14/9
f 16/12/10 18/9/10 24/9/10 21/12/10
f 35/18/11 36/19/11 18/9/11 12/9/11
f 8/3/12 9/2/12 16/2/12 14/3/12
f 9/12/13 12/9/13 18/9/13 16/12/13
f 34/15/14 14/3/14 20/3/14 38/20/14 37/21/14
f 24/9/15 18/9/15 36/19/15 39/22/15 40/23/15
f 14/3/16 16/2/16 21/2/16 20/3/16
f 20/3/17 21/2/17 41/2/17 43/24/17 42/3/17
f 21/12/18 24/9/18 45/9/18 44/25/18 41/12/18
f 42/3/19 38/20/19 20/3/19
f 45/9/20 24/9/20 40/23/20
f 46/26/21 4/3/21 2/2/21 47/27/21
f 48/28/22 49/29/22 4/3/22 46/26/22
f 51/30/23 50/31/23 5/9/23 53/32/23 52/33/23
f 47/34/24 2/12/24 5/9/24 50/31/24
f 56/35/25 13/3/25 7/3/25 55/36/25 54/37/25
f 11/9/26 5/9/26 2/12/26 10/12/26
f 10/2/27 2/2/27 4/3/27 7/3/27
f 53/32/28 5/9/28 11/9/28 57/38/28
f 55/36/29 7/3/29 4/3/29 49/29/29
f 23/9/30 17/9/30 15/12/30 22/12/30
f 57/38/31 11/9/31 17/9/31 59/39/31 58/40/31
f 15/2/32 10/2/32 7/3/32 13/3/32
f 17/9/33 11/9/33 10/12/33 15/12/33
f 19/3/34 13/3/34 56/35/34 60/41/34 61/42/34 62/43/34
f 59/39/35 17/9/35 23/9/35 65/44/35 64/45/35 63/46/35
f 22/2/36 15/2/36 13/3/36 19/3/36
f 66/2/37 22/2/37 19/3/37 68/3/37 67/47/37
f 69/9/38 23/9/38 22/12/38 66/12/38 70/48/38
f 68/3/39 19/3/39 62/43/39
f 65/44/40 23/9/40 69/9/40
f 44/49/41 45/50/41 40/51/41 39/52/41 63/53/41 64/54/41 65/55/41 69/56/41 70/57/41
f 37/58/41 38/59/41 42/60/41 43/61/41 67/62/41 68/63/41 62/64/41 61/65/41
f 43/61/42 41/66/42 44/49/42 70/57/42 66/66/42 67/62/42
f 39/52/43 36/67/43 35/68/43 29/69/43 30/70/43 31/71/43 51/72/43 52/73/43 53/74/43 57/75/43 58/76/43 59/77/43 63/53/43
f 28/78/43 27/79/43 33/80/43 34/81/43 37/82/43 61/65/43 60/83/43 56/84/43 54/85/43 55/86/43 49/87/43 48/88/43
f 31/71/44 32/89/44 25/66/44 26/90/44 28/78/44 48/88/44 46/91/44 47/66/44 50/92/44 51/72/44
