# Blender 4.4.3
# www.blender.org
mtllib Barrel2.mtl
o Cylinder.011
v 0.000000 0.238065 -0.320865
v 0.000000 0.222499 0.137896
v 0.000000 0.238065 1.037243
v 0.027856 0.226527 -0.320865
v 0.016849 0.215520 0.137896
v 0.027856 0.226527 1.037243
v 0.039395 0.198670 -0.320865
v 0.023829 0.198670 0.137896
v 0.039395 0.198670 1.037243
v 0.027856 0.170814 -0.320865
v 0.016849 0.181821 0.137896
v 0.027856 0.170814 1.037243
v 0.000000 0.159275 -0.320865
v 0.000000 0.174842 0.137896
v 0.000000 0.159275 1.037243
v -0.027856 0.170814 -0.320865
v -0.016849 0.181821 0.137896
v -0.027856 0.170814 1.037243
v -0.039395 0.198670 -0.320865
v -0.023829 0.198670 0.137896
v -0.039395 0.198670 1.037243
v -0.027856 0.226527 -0.320865
v -0.016849 0.215520 0.137896
v -0.027856 0.226527 1.037243
v -0.023829 0.198670 1.037243
v -0.016849 0.215520 1.037243
v 0.016849 0.215520 1.037243
v 0.023829 0.198670 1.037243
v 0.000000 0.222499 1.037243
v -0.016849 0.181821 1.037243
v 0.016849 0.181821 1.037243
v 0.000000 0.174842 1.037243
v 0.000020 0.320965 -0.323465
v 0.000020 0.320965 0.605290
v 0.019965 0.312703 -0.323465
v 0.019965 0.312703 0.605290
v 0.028227 0.292758 -0.323465
v 0.028227 0.292758 0.605290
v 0.019965 0.272812 -0.323465
v 0.019965 0.272812 0.605290
v 0.000020 0.264551 -0.323465
v 0.000020 0.264551 0.605290
v -0.019926 0.272812 -0.323465
v -0.019926 0.272812 0.605290
v -0.028187 0.292758 -0.323465
v -0.028187 0.292758 0.605290
v -0.019926 0.312703 -0.323465
v -0.019926 0.312703 0.605290
v 0.024148 0.316886 0.615078
v 0.000020 0.326880 0.615078
v 0.034142 0.292758 0.615078
v 0.024148 0.268630 0.615078
v 0.000020 0.258635 0.615078
v -0.024108 0.268630 0.615078
v -0.034103 0.292758 0.615078
v -0.024108 0.316886 0.615078
v 0.000020 0.310770 0.798619
v 0.000020 0.258635 0.798619
v 0.000020 0.316774 0.775974
v 0.000020 0.258635 0.775974
v 0.024148 0.316886 0.627616
v -0.034103 0.292758 0.627616
v 0.000020 0.258635 0.627616
v 0.034142 0.292758 0.627616
v 0.000020 0.326880 0.627616
v -0.024108 0.316886 0.627616
v -0.024108 0.268630 0.627616
v 0.024148 0.268630 0.627616
v 0.000020 0.320529 0.641970
v 0.000020 0.320529 0.761619
v -0.019618 0.312395 0.641970
v -0.019618 0.273120 0.641970
v 0.019657 0.273120 0.641970
v 0.019657 0.312395 0.641970
v -0.027752 0.292758 0.641970
v 0.000020 0.264986 0.761619
v 0.000020 0.264986 0.641970
v 0.027791 0.292758 0.641970
v 0.017605 0.309479 0.775974
v 0.012616 0.305972 0.798619
v -0.012577 0.305972 0.798619
v -0.012861 0.263211 0.798619
v 0.012900 0.263211 0.798619
v -0.017565 0.309479 0.775974
v 0.014827 0.262947 0.775974
v -0.014788 0.262947 0.775974
v -0.014386 0.269181 0.758220
v 0.014425 0.269181 0.758220
v -0.016501 0.313545 0.755320
v 0.016540 0.313545 0.755320
v 0.019657 0.312395 0.749446
v -0.019618 0.312395 0.749446
v -0.019618 0.273120 0.751140
v -0.027752 0.292758 0.744789
v 0.019657 0.273120 0.751140
v 0.027791 0.292758 0.744789
v 0.020604 0.225082 1.013040
v 0.020604 0.346380 1.013040
v -0.020555 0.225082 1.013040
v -0.020555 0.346380 1.013040
v 0.000024 0.225082 1.013040
v 0.000024 0.342315 1.013040
v 0.000024 0.342315 0.951774
v -0.020555 0.345687 0.952217
v 0.020604 0.346380 0.952308
v -0.020555 0.225082 0.937730
v 0.020604 0.225082 0.937730
v 0.000024 0.225082 0.937730
v -0.020555 0.346380 0.952308
v 0.000024 0.416377 1.013707
v 0.027857 0.404849 1.013707
v 0.039386 0.377016 1.013707
v 0.027857 0.349183 1.013707
v 0.000024 0.337654 1.013707
v -0.027809 0.349183 1.013707
v -0.039338 0.377016 1.013707
v -0.027809 0.404849 1.013707
v 0.020904 0.397896 1.013707
v -0.020856 0.397896 1.013707
v -0.020856 0.356136 1.013707
v 0.020904 0.356136 1.013707
v -0.029505 0.377016 1.013707
v 0.029553 0.377016 1.013707
v 0.000024 0.406545 1.013707
v 0.000024 0.347487 1.013707
v 0.039386 0.377016 0.956329
v 0.029553 0.377016 0.956329
v 0.027857 0.349183 0.952676
v 0.020904 0.356136 0.953588
v 0.000024 0.347487 0.952453
v 0.000024 0.337654 0.951162
v 0.000024 0.416377 0.961496
v -0.027809 0.404849 0.959983
v 0.027857 0.404849 0.959983
v 0.000024 0.406545 0.960205
v 0.020904 0.397896 0.959070
v -0.020856 0.397896 0.959070
v -0.029505 0.377016 0.956329
v -0.039338 0.377016 0.956329
v -0.027809 0.349183 0.952676
v -0.036707 0.370666 0.955496
v -0.020856 0.356136 0.953588
v 0.000024 0.355203 0.997005
v 0.000024 0.341485 0.998155
v 0.007844 0.355203 0.993760
v 0.008656 0.341485 0.994573
v 0.011083 0.355203 0.985926
v 0.012231 0.341485 0.985926
v 0.007844 0.355203 0.978092
v 0.008656 0.341485 0.977279
v 0.000024 0.355203 0.974848
v 0.000024 0.341485 0.973697
v -0.007796 0.355203 0.978092
v -0.008608 0.341485 0.977279
v -0.011034 0.355203 0.985926
v -0.012183 0.341485 0.985926
v -0.007796 0.355203 0.993760
v -0.008608 0.341485 0.994573
v 0.000024 0.359229 0.991302
v 0.003819 0.359229 0.989727
v 0.005390 0.359229 0.985926
v 0.003819 0.359229 0.982125
v 0.000024 0.359229 0.980550
v -0.003770 0.359229 0.982125
v -0.005342 0.359229 0.985926
v -0.003770 0.359229 0.989727
v 0.000024 0.375930 0.989841
v 0.002787 0.375930 0.988694
v 0.003932 0.375930 0.985926
v 0.002787 0.375930 0.983158
v 0.000024 0.375930 0.982011
v -0.002739 0.375930 0.983158
v -0.003884 0.375930 0.985926
v -0.002739 0.375930 0.988694
v -0.014740 0.216678 0.819717
v -0.014740 0.305329 0.799205
v -0.014740 0.216678 0.763121
v -0.014740 0.305329 0.757119
v 0.014779 0.216678 0.819717
v 0.014779 0.305329 0.799205
v 0.014779 0.216678 0.763121
v 0.014779 0.305329 0.757119
vn 0.3827 0.9239 -0.0000
vn 0.9239 0.3827 -0.0000
vn 0.9239 -0.3827 -0.0000
vn 0.3827 -0.9239 -0.0000
vn -0.3827 -0.9239 -0.0000
vn -0.9239 -0.3827 -0.0000
vn -0.0000 -0.0000 1.0000
vn -0.9239 0.3827 -0.0000
vn -0.3827 0.9239 -0.0000
vn -0.0000 -0.0000 -1.0000
vn 0.3341 -0.8067 -0.4875
vn 0.3620 0.9035 0.2296
vn -0.8067 0.3341 -0.4875
vn 0.8067 0.3341 -0.4875
vn -0.3341 -0.8067 -0.4875
vn -0.3341 0.8067 -0.4875
vn 0.3341 0.8067 -0.4875
vn 0.8067 -0.3341 -0.4875
vn -0.8067 -0.3341 -0.4875
vn -0.3620 0.9035 0.2296
vn 0.3056 -0.9520 0.0185
vn -0.3056 -0.9520 0.0185
vn -0.2224 -0.9068 -0.3582
vn 0.2224 -0.9068 -0.3582
vn -0.4086 0.8933 0.1871
vn 0.4086 0.8933 0.1871
vn 0.3542 0.8552 0.3783
vn 0.3830 0.9238 0.0006
vn -0.3542 0.8552 0.3783
vn -0.3830 0.9238 0.0006
vn -0.8552 -0.3542 0.3783
vn 0.3542 -0.8552 0.3783
vn 0.3795 -0.9252 -0.0070
vn 0.8552 0.3542 0.3783
vn -0.8552 0.3542 0.3783
vn -0.3542 -0.8552 0.3783
vn -0.3795 -0.9252 -0.0070
vn 0.8552 -0.3542 0.3783
vn 0.9976 -0.0406 0.0566
vn 0.7484 0.0192 0.6630
vn -0.9976 -0.0406 0.0566
vn -0.7484 0.0192 0.6629
vn 1.0000 -0.0000 -0.0000
vn 0.0001 0.1191 -0.9929
vn -0.1938 0.9810 -0.0000
vn 0.1938 0.9810 -0.0000
vn -1.0000 -0.0000 -0.0000
vn -0.0000 -1.0000 -0.0000
vn -0.0000 0.1302 -0.9915
vn 0.3821 0.0772 0.9209
vn 0.9214 0.0771 0.3810
vn 0.9214 0.0771 -0.3810
vn 0.3821 0.0772 -0.9209
vn -0.3821 0.0772 -0.9209
vn -0.9214 0.0771 -0.3810
vn -0.9214 0.0771 0.3810
vn -0.3821 0.0772 0.9209
vn 0.5616 0.7942 0.2322
vn 0.9211 0.0804 -0.3809
vn -0.2327 0.7945 -0.5608
vn -0.2327 0.7945 0.5609
vn 0.2327 0.7945 0.5609
vn 0.5616 0.7942 -0.2322
vn -0.5616 0.7942 -0.2322
vn 0.2327 0.7945 -0.5608
vn -0.5616 0.7942 0.2322
vn -0.0000 1.0000 -0.0000
vn 0.3820 0.0806 0.9206
vn -0.3820 0.0806 0.9206
vn -0.9211 0.0804 -0.3809
vn 0.3820 0.0805 -0.9206
vn 0.9211 0.0804 0.3809
vn -0.9211 0.0804 0.3809
vn -0.3820 0.0805 -0.9206
vn -0.0000 -0.0676 -0.9977
vn -0.0000 0.2254 0.9743
vt 1.000000 0.500000
vt 1.000000 1.000000
vt 0.875000 1.000000
vt 0.875000 0.500000
vt 0.750000 1.000000
vt 0.750000 0.500000
vt 0.625000 1.000000
vt 0.625000 0.500000
vt 0.500000 1.000000
vt 0.500000 0.500000
vt 0.375000 1.000000
vt 0.375000 0.500000
vt 0.250000 1.000000
vt 0.250000 0.500000
vt 0.395168 0.250000
vt 0.490000 0.250000
vt 0.419706 0.419706
vt 0.250000 0.490000
vt 0.250000 0.395168
vt 0.352649 0.352649
vt 0.080294 0.419706
vt 0.010000 0.250000
vt 0.080294 0.080294
vt 0.250000 0.010000
vt 0.419706 0.080294
vt 0.352649 0.147351
vt 0.250000 0.104833
vt 0.147351 0.147351
vt 0.104832 0.250000
vt 0.147351 0.352649
vt 0.125000 1.000000
vt 0.125000 0.500000
vt 0.000000 1.000000
vt 0.000000 0.500000
vt 0.580294 0.419706
vt 0.750000 0.490000
vt 0.919706 0.419706
vt 0.990000 0.250000
vt 0.919706 0.080294
vt 0.750000 0.010000
vt 0.580294 0.080294
vt 0.510000 0.250000
vt 1.000000 0.892621
vt 0.875000 0.892621
vt 0.750000 0.892621
vt 0.625000 0.892621
vt 0.500000 0.892621
vt 0.375000 0.892621
vt 0.250000 0.892621
vt 0.125000 0.892621
vt 0.000000 0.892621
vt 0.935959 1.000000
vt 0.939991 1.000000
vt 0.172310 0.042180
vt 0.336794 0.312545
vt 0.331472 0.456253
vt 0.168529 0.456253
vt 0.064041 1.000000
vt 0.060009 1.000000
vt 0.557224 1.000000
vt 0.553925 1.000000
vt 0.446075 1.000000
vt 0.442776 1.000000
vt 0.434933 1.000000
vt 0.565067 1.000000
vt 0.075019 1.000000
vt 0.924981 1.000000
vt 0.935638 1.000000
vt 0.375000 1.000000
vt 0.750000 1.000000
vt 0.926078 1.000000
vt 0.625000 1.000000
vt 0.612817 1.000000
vt 0.180568 1.000000
vt 0.435542 1.000000
vt 0.463889 0.136741
vt 0.463343 0.179507
vt 0.476305 0.213433
vt 0.572910 0.199926
vt 0.585613 0.166293
vt 0.586285 0.114464
vt 0.545931 0.301833
vt 0.564852 0.273183
vt 0.573060 0.213433
vt 0.482328 0.280710
vt 0.543801 0.122518
vt 0.586285 0.114463
vt 0.585328 0.167006
vt 0.573060 0.213433
vt 0.476387 0.206584
vt 0.463343 0.179507
vt 0.480396 0.268751
vt 0.564852 0.273183
vt 0.524817 0.330586
vt 0.375000 0.000000
vt 0.375000 0.239529
vt 0.625000 0.203860
vt 0.625000 0.000000
vt 0.375000 0.875000
vt 0.625000 0.875000
vt 0.375000 0.750000
vt 0.625000 0.750000
vt 0.610271 0.357669
vt 0.517331 0.357669
vt 0.516747 0.357669
vt 0.520170 0.375000
vt 0.516747 0.392331
vt 0.610271 0.392331
vt 0.610271 0.375000
vt 0.875000 0.546140
vt 0.750000 0.544349
vt 0.750000 0.750000
vt 0.875000 0.750000
vt 0.625000 0.546140
vt 0.623438 0.545885
vt 0.375000 0.510471
vt 0.250000 0.510471
vt 0.250000 0.750000
vt 0.125000 0.510471
vt 0.125000 0.750000
vt 0.250000 0.430047
vt 0.250000 0.069953
vt 0.122687 0.122687
vt 0.069953 0.250000
vt 0.122687 0.377313
vt 0.377313 0.377313
vt 0.430047 0.250000
vt 0.377313 0.122687
vt 0.750000 0.799441
vt 0.875000 0.799441
vt 0.875000 0.670787
vt 0.750000 0.664333
vt 0.625000 0.799441
vt 0.625000 0.657879
vt 0.500000 0.799441
vt 0.500000 0.655206
vt 0.375000 0.799441
vt 0.375000 0.657879
vt 0.875000 0.643816
vt 1.000000 0.653849
vt 0.750000 0.619593
vt 0.250000 0.664333
vt 0.125000 0.670787
vt 0.125000 0.799441
vt 0.250000 0.799441
vt 0.625000 0.595371
vt 0.375000 0.595371
vt 0.500000 0.585338
vt 0.000000 0.673460
vt 0.000000 0.799441
vt 0.000000 0.653849
vt 0.125000 0.643816
vt 0.250000 0.619593
vt 0.278517 0.614067
vt 1.000000 0.673460
vt 1.000000 0.799441
vt 0.496295 0.344067
vt 0.490947 0.350132
vt 0.508531 0.357416
vt 0.515815 0.375000
vt 0.508531 0.392584
vt 0.490947 0.399868
vt 0.490947 0.408148
vt 0.514387 0.398439
vt 0.524095 0.375000
vt 0.514387 0.351561
vt 0.490947 0.341852
vt 0.467508 0.351561
vt 0.457799 0.375000
vt 0.467508 0.398439
vt 0.473363 0.392584
vt 0.466080 0.375000
vt 0.473363 0.357416
vt 0.625000 0.250000
vt 0.375000 0.250000
s 0
f 1/1/1 3/2/1 6/3/1 4/4/1
f 4/4/2 6/3/2 9/5/2 7/6/2
f 7/6/3 9/5/3 12/7/3 10/8/3
f 10/8/4 12/7/4 15/9/4 13/10/4
f 13/10/5 15/9/5 18/11/5 16/12/5
f 16/12/6 18/11/6 21/13/6 19/14/6
f 28/15/7 9/16/7 6/17/7 3/18/7 29/19/7 27/20/7
f 29/19/7 3/18/7 24/21/7 21/22/7 18/23/7 15/24/7 12/25/7 9/16/7 28/15/7 31/26/7 32/27/7 30/28/7 25/29/7 26/30/7
f 19/14/8 21/13/8 24/31/8 22/32/8
f 22/32/9 24/31/9 3/33/9 1/34/9
f 22/35/10 1/36/10 4/37/10 7/38/10 10/39/10 13/40/10 16/41/10 19/42/10
f 29/43/5 2/1/5 5/4/5 27/44/5
f 5/4/6 8/6/6 28/45/6 27/44/6
f 8/6/8 11/8/8 31/46/8 28/45/8
f 11/8/9 14/10/9 32/47/9 31/46/9
f 14/10/1 17/12/1 30/48/1 32/47/1
f 17/12/2 20/14/2 25/49/2 30/48/2
f 20/14/3 23/32/3 26/50/3 25/49/3
f 26/50/4 23/32/4 2/34/4 29/51/4
f 17/41/7 14/40/7 11/39/7 8/38/7 5/37/7 2/36/7 23/35/7 20/42/7
f 33/1/1 34/2/1 36/3/1 35/4/1
f 35/4/2 36/3/2 38/5/2 37/6/2
f 37/6/3 38/5/3 40/7/3 39/8/3
f 39/8/4 40/7/4 42/9/4 41/10/4
f 41/10/5 42/9/5 44/11/5 43/12/5
f 43/12/6 44/11/6 46/13/6 45/14/6
f 42/9/11 40/7/11 52/7/11 53/9/11
f 45/14/8 46/13/8 48/31/8 47/32/8
f 47/32/9 48/31/9 34/33/9 33/34/9
f 47/35/10 33/36/10 35/37/10 37/38/10 39/39/10 41/40/10 43/41/10 45/42/10
f 79/52/12 59/2/12 57/2/12 80/53/12
f 48/31/13 46/13/13 55/13/13 56/31/13
f 38/5/14 36/3/14 49/3/14 51/5/14
f 44/11/15 42/9/15 53/9/15 54/11/15
f 34/33/16 48/31/16 56/31/16 50/33/16
f 36/3/17 34/2/17 50/2/17 49/3/17
f 40/7/18 38/5/18 51/5/18 52/7/18
f 46/13/19 44/11/19 54/11/19 55/13/19
f 82/54/7 58/24/7 83/55/7 80/56/7 57/18/7 81/57/7
f 57/33/20 59/33/20 84/58/20 81/59/20
f 83/60/21 58/9/21 60/9/21 85/61/21
f 86/62/22 60/9/22 58/9/22 82/63/22
f 87/64/23 76/9/23 60/9/23 86/62/23
f 85/61/24 60/9/24 76/9/24 88/65/24
f 84/58/25 59/33/25 70/33/25 89/66/25
f 90/67/26 70/2/26 59/2/26 79/68/26
f 49/3/1 50/2/1 65/2/1 61/3/1
f 50/33/9 56/31/9 66/31/9 65/33/9
f 55/13/6 54/11/6 67/69/6 62/13/6
f 53/9/4 52/7/4 68/7/4 63/9/4
f 51/5/2 49/3/2 61/3/2 64/70/2
f 56/31/8 55/13/8 62/13/8 66/31/8
f 54/11/5 53/9/5 63/9/5 67/69/5
f 52/7/3 51/5/3 64/70/3 68/7/3
f 61/3/27 65/2/27 69/2/27 74/3/27
f 70/2/28 90/71/28 91/3/28 74/3/28 69/2/28
f 65/33/29 66/31/29 71/31/29 69/33/29
f 89/66/30 70/33/30 69/33/30 71/31/30 92/31/30
f 62/13/31 67/69/31 72/11/31 75/13/31
f 75/13/6 72/11/6 93/11/6 94/13/6
f 63/9/32 68/7/32 73/72/32 77/9/32
f 76/9/33 77/9/33 73/72/33 95/73/33 88/65/33
f 64/70/34 61/3/34 74/3/34 78/5/34
f 96/5/2 78/5/2 74/3/2 91/3/2
f 66/31/35 62/13/35 75/13/35 71/31/35
f 71/31/8 75/13/8 94/74/8 92/31/8
f 67/69/36 63/9/36 77/9/36 72/11/36
f 93/11/37 72/11/37 77/9/37 76/9/37 87/75/37
f 68/7/38 64/70/38 78/5/38 73/72/38
f 73/72/3 78/5/3 96/5/3 95/72/3
f 83/76/39 85/77/39 88/78/39 90/79/39 79/80/39 80/81/39
f 96/82/40 91/83/40 90/84/40 88/78/40 95/85/40
f 82/86/41 81/87/41 84/88/41 89/89/41 87/90/41 86/91/41
f 93/92/42 87/78/42 89/89/42 92/93/42 94/94/42
f 97/95/43 107/96/43 105/97/43 98/98/43
f 101/99/7 97/11/7 98/7/7 102/100/7
f 99/101/7 101/99/7 102/100/7 100/102/7
f 106/103/44 104/104/44 109/105/44 103/106/44 105/107/44 107/108/44 108/109/44
f 105/110/45 103/111/45 102/112/45 98/113/45
f 103/111/46 109/114/46 100/102/46 102/112/46
f 109/114/47 104/115/47 106/116/47 99/101/47 100/102/47
f 106/116/48 108/117/48 101/118/48 99/101/48
f 108/117/48 107/119/48 97/120/48 101/118/48
f 124/121/7 110/18/7 117/21/7 116/22/7 115/23/7 114/24/7 125/122/7 120/123/7 122/124/7 119/125/7
f 125/122/7 114/24/7 113/25/7 112/16/7 111/17/7 110/18/7 124/121/7 118/126/7 123/127/7 121/128/7
f 123/129/6 118/130/6 136/131/6 127/132/6
f 121/133/8 123/129/8 127/132/8 129/134/8
f 125/135/9 121/133/9 129/134/9 130/136/9
f 120/137/1 125/135/1 130/136/1 142/138/1
f 134/139/1 132/140/1 110/2/1 111/3/1
f 126/141/2 134/139/2 111/3/2 112/5/2
f 138/142/3 137/143/3 119/144/3 122/145/3
f 128/146/3 126/141/3 112/5/3 113/7/3
f 140/147/5 131/148/5 114/9/5 115/11/5
f 137/143/4 135/149/4 124/150/4 119/144/4
f 131/148/4 128/146/4 113/7/4 114/9/4
f 132/151/9 133/152/9 117/31/9 110/33/9
f 139/153/6 141/154/6 140/147/6 115/11/6 116/13/6
f 133/152/8 139/153/8 116/13/8 117/31/8
f 135/155/5 136/131/5 118/130/5 124/156/5
f 141/157/49 138/158/49 142/159/49 130/160/49 129/161/49 127/162/49 126/163/49 128/164/49 131/165/49 140/166/49
f 138/158/49 141/157/49 139/167/49 133/168/49 132/169/49 134/170/49 126/163/49 127/162/49 136/171/49 135/172/49 137/173/49
f 142/138/2 138/142/2 122/145/2 120/137/2
f 143/1/50 144/2/50 146/3/50 145/4/50
f 145/4/51 146/3/51 148/5/51 147/6/51
f 147/6/52 148/5/52 150/7/52 149/8/52
f 149/8/53 150/7/53 152/9/53 151/10/53
f 151/10/54 152/9/54 154/11/54 153/12/54
f 153/12/55 154/11/55 156/13/55 155/14/55
f 146/17/48 144/18/48 158/21/48 156/22/48 154/23/48 152/24/48 150/25/48 148/16/48
f 155/14/56 156/13/56 158/31/56 157/32/56
f 157/32/57 158/31/57 144/33/57 143/34/57
f 145/4/58 147/6/58 161/6/58 160/4/58
f 161/6/59 162/8/59 170/8/59 169/6/59
f 151/10/60 153/12/60 164/12/60 163/10/60
f 157/32/61 143/34/61 159/34/61 166/32/61
f 143/1/62 145/4/62 160/4/62 159/1/62
f 147/6/63 149/8/63 162/8/63 161/6/63
f 153/12/64 155/14/64 165/14/64 164/12/64
f 149/8/65 151/10/65 163/10/65 162/8/65
f 155/14/66 157/32/66 166/32/66 165/14/66
f 167/36/67 168/37/67 169/38/67 170/39/67 171/40/67 172/41/67 173/42/67 174/35/67
f 159/1/68 160/4/68 168/4/68 167/1/68
f 166/32/69 159/34/69 167/34/69 174/32/69
f 164/12/70 165/14/70 173/14/70 172/12/70
f 162/8/71 163/10/71 171/10/71 170/8/71
f 160/4/72 161/6/72 169/6/72 168/4/72
f 165/14/73 166/32/73 174/32/73 173/14/73
f 163/10/74 164/12/74 172/12/74 171/10/74
f 175/95/47 176/98/47 178/174/47 177/175/47
f 177/175/75 178/174/75 182/8/75 181/12/75
f 181/12/43 182/8/43 180/102/43 179/101/43
f 179/101/76 180/102/76 176/7/76 175/11/76
f 177/32/48 181/12/48 179/101/48 175/120/48
f 182/8/67 178/4/67 176/113/67 180/102/67
