# Blender 4.4.3
# www.blender.org
mtllib IS.mtl
o Cylinder.003
v 0.053495 0.345005 -0.065704
v -0.053495 0.345005 -0.065704
v 0.053495 0.357857 -0.071955
v -0.053495 0.357857 -0.071955
v 0.053495 0.362525 -0.085464
v -0.053495 0.362525 -0.085464
v 0.053495 0.356273 -0.098317
v -0.053495 0.356273 -0.098317
v 0.053495 0.342764 -0.102984
v -0.053495 0.342764 -0.102984
v 0.053495 0.329912 -0.096733
v -0.053495 0.329912 -0.096733
v 0.053495 0.325244 -0.083224
v -0.053495 0.325244 -0.083224
v 0.053495 0.331496 -0.070371
v -0.053495 0.331496 -0.070371
v 0.039434 0.349487 -0.208309
v -0.039434 0.349487 -0.208309
v 0.039434 0.360341 -0.212958
v -0.039434 0.360341 -0.212958
v 0.039434 0.364728 -0.223920
v -0.039434 0.364728 -0.223920
v 0.039434 0.360079 -0.234774
v -0.039434 0.360079 -0.234774
v 0.039434 0.349117 -0.239161
v -0.039434 0.349117 -0.239161
v 0.039434 0.338263 -0.234512
v -0.039434 0.338263 -0.234512
v 0.039434 0.333876 -0.223550
v -0.039434 0.333876 -0.223550
v 0.039434 0.338525 -0.212696
v -0.039434 0.338525 -0.212696
v -0.011198 0.356005 -0.211101
v 0.011198 0.356005 -0.211101
v 0.011198 0.360341 -0.212958
v -0.011198 0.360341 -0.212958
v 0.011198 0.364728 -0.223920
v -0.011198 0.364728 -0.223920
v 0.011198 0.360079 -0.234774
v -0.011198 0.360079 -0.234774
v 0.011198 0.356880 -0.236054
v -0.011198 0.356880 -0.236054
v -0.051280 0.345438 -0.058492
v -0.061924 0.345438 -0.058492
v -0.051280 0.363263 -0.067163
v -0.061924 0.363263 -0.067163
v -0.051280 0.369736 -0.085898
v -0.061924 0.369736 -0.085898
v -0.051280 0.361066 -0.103723
v -0.061924 0.361066 -0.103723
v -0.051280 0.342331 -0.110196
v -0.061924 0.342331 -0.110196
v -0.051280 0.324506 -0.101526
v -0.061924 0.324506 -0.101526
v -0.051280 0.318033 -0.082791
v -0.061924 0.318033 -0.082791
v -0.051280 0.326703 -0.064966
v -0.061924 0.326703 -0.064966
v 0.051280 0.345438 -0.058492
v 0.061924 0.345438 -0.058492
v 0.051280 0.363263 -0.067163
v 0.061924 0.363263 -0.067163
v 0.051280 0.369736 -0.085898
v 0.061924 0.369736 -0.085898
v 0.051280 0.361066 -0.103723
v 0.061924 0.361066 -0.103723
v 0.051280 0.342331 -0.110196
v 0.061924 0.342331 -0.110196
v 0.051280 0.324506 -0.101526
v 0.061924 0.324506 -0.101526
v 0.051280 0.318033 -0.082791
v 0.061924 0.318033 -0.082791
v 0.051280 0.326703 -0.064966
v 0.061924 0.326703 -0.064966
v 0.024468 0.352744 -0.269133
v 0.024468 0.342704 -0.269340
v 0.024468 0.347594 -0.082575
v 0.024468 0.337554 -0.082782
v -0.024468 0.352744 -0.269133
v -0.024468 0.342704 -0.269340
v -0.024468 0.347594 -0.082575
v -0.024468 0.337554 -0.082782
v -0.009927 0.347594 -0.082575
v 0.000000 0.347594 -0.082575
v 0.009927 0.347594 -0.082575
v 0.009927 0.337554 -0.082782
v 0.000000 0.337554 -0.082782
v -0.009927 0.337554 -0.082782
v 0.009927 0.352744 -0.269133
v -0.000000 0.352744 -0.269133
v -0.009927 0.352744 -0.269133
v -0.009927 0.342704 -0.269340
v 0.000000 0.342704 -0.269340
v 0.009927 0.342704 -0.269340
v 0.009927 0.342470 -0.257986
v 0.000000 0.342470 -0.257986
v -0.009927 0.342470 -0.257986
v 0.037921 0.379104 -0.271184
v 0.037921 0.341027 -0.270709
v 0.037921 0.379495 -0.255161
v 0.037921 0.341219 -0.254675
v -0.037921 0.379104 -0.271184
v -0.037921 0.341027 -0.270709
v -0.037921 0.379495 -0.255161
v -0.037921 0.341219 -0.254675
v 0.011198 0.379495 -0.255161
v -0.011198 0.379495 -0.255161
v 0.011198 0.379104 -0.271184
v -0.011198 0.379104 -0.271184
v -0.008169 0.366490 -0.255212
v -0.002500 0.363440 -0.255259
v 0.002500 0.363440 -0.255259
v 0.008169 0.366490 -0.255212
v 0.008183 0.367528 -0.271213
v 0.002500 0.364478 -0.271261
v -0.002500 0.364478 -0.271261
v -0.008183 0.367528 -0.271213
vn -0.0000 0.4374 0.8993
vn -0.0000 0.9452 0.3266
vn -0.0000 0.8993 -0.4374
vn -0.0000 0.3266 -0.9452
vn -0.0000 -0.4374 -0.8993
vn -0.0000 -0.9452 -0.3266
vn -1.0000 -0.0000 -0.0000
vn -0.0000 -0.8993 0.4374
vn -0.0000 -0.3266 0.9452
vn 1.0000 -0.0000 -0.0000
vn -0.0000 0.3938 0.9192
vn -0.0000 0.9284 0.3716
vn -0.0000 0.9192 -0.3938
vn -0.0000 0.3716 -0.9284
vn -0.0000 -0.3938 -0.9192
vn -0.0000 -0.9284 -0.3716
vn -0.0000 -0.9192 0.3938
vn -0.0000 -0.3716 0.9284
vn -0.0000 0.9994 0.0350
vn -0.0000 -0.0206 0.9998
vn -0.0000 0.0206 -0.9998
vn -0.0000 -0.9998 -0.0206
vn -0.0028 -0.9996 -0.0278
vn -0.0000 0.9996 0.0276
vn 0.0028 -0.9996 -0.0278
vn -0.0000 -0.9996 -0.0280
vn -0.9711 0.2388 0.0044
vn -0.0000 0.9997 -0.0244
vn -0.0000 -0.9999 0.0120
vn -0.0000 -0.0141 -0.9999
vn -0.0000 0.0147 0.9999
vn 0.9711 0.2388 0.0044
vn 0.4729 0.8793 0.0568
vn -0.4729 0.8793 0.0568
vn -0.0000 0.9979 0.0647
vt 1.000000 0.500000
vt 1.000000 1.000000
vt 0.875000 1.000000
vt 0.875000 0.500000
vt 0.750000 1.000000
vt 0.750000 0.500000
vt 0.625000 1.000000
vt 0.625000 0.500000
vt 0.500000 1.000000
vt 0.500000 0.500000
vt 0.375000 1.000000
vt 0.375000 0.500000
vt 0.250000 1.000000
vt 0.250000 0.500000
vt 0.419706 0.419706
vt 0.250000 0.490000
vt 0.080294 0.419706
vt 0.010000 0.250000
vt 0.080294 0.080294
vt 0.250000 0.010000
vt 0.419706 0.080294
vt 0.490000 0.250000
vt 0.125000 1.000000
vt 0.125000 0.500000
vt 0.000000 1.000000
vt 0.000000 0.500000
vt 0.750000 0.490000
vt 0.919706 0.419706
vt 0.990000 0.250000
vt 0.919706 0.080294
vt 0.750000 0.010000
vt 0.580294 0.080294
vt 0.510000 0.250000
vt 0.580294 0.419706
vt 0.875000 0.679008
vt 0.875000 0.820992
vt 0.924932 0.820992
vt 0.924932 0.679008
vt 0.750000 0.820992
vt 0.750000 0.679008
vt 0.625000 0.820992
vt 0.625000 0.679008
vt 0.588524 0.679008
vt 0.588524 0.820992
vt 0.375000 0.219283
vt 0.375000 0.223143
vt 0.375000 0.169808
vt 0.375000 0.172627
vt 0.375000 0.195955
vt 0.375000 0.526857
vt 0.375000 0.530717
vt 0.375000 0.554045
vt 0.375000 0.577373
vt 0.375000 0.580192
vt 0.625000 0.524723
vt 0.625000 0.578059
vt 0.375000 0.011364
vt 0.625000 0.011364
vt 0.625000 0.250000
vt 0.375000 0.250000
vt 0.375000 0.437500
vt 0.625000 0.437500
vt 0.375000 0.937500
vt 0.625000 0.937500
vt 0.812500 0.738636
vt 0.875000 0.750000
vt 0.812500 0.750000
vt 0.812500 0.500000
vt 0.875000 0.738636
vt 0.312500 0.500000
vt 0.375000 0.738636
vt 0.312500 0.738636
vt 0.625000 0.738636
vt 0.187500 0.500000
vt 0.187500 0.738636
vt 0.125000 0.738636
vt 0.250000 0.500000
vt 0.250000 0.738636
vt 0.687500 0.500000
vt 0.687500 0.738636
vt 0.750000 0.738636
vt 0.687500 0.750000
vt 0.750000 0.750000
vt 0.375000 0.750000
vt 0.625000 0.750000
vt 0.625000 0.812500
vt 0.375000 0.812500
vt 0.625000 0.875000
vt 0.375000 0.875000
vt 0.625000 0.312500
vt 0.375000 0.312500
vt 0.625000 0.375000
vt 0.375000 0.375000
vt 0.375000 0.000000
vt 0.625000 0.000000
vt 0.392020 0.129898
vt 0.609307 0.131753
vt 0.609311 0.097461
vt 0.400907 0.095682
vt 0.286913 0.500000
vt 0.286913 0.750000
vt 0.125000 0.750000
vt 0.213087 0.500000
vt 0.213087 0.750000
vt 0.375000 0.911913
vt 0.548014 0.911912
vt 0.561038 0.891241
vt 0.561038 0.858759
vt 0.548014 0.838088
vt 0.375000 0.838087
vt 0.375000 0.411913
vt 0.555389 0.411913
vt 0.568416 0.391241
vt 0.568416 0.358759
vt 0.555389 0.338087
vt 0.375000 0.338087
vt 0.609311 0.652539
vt 0.609308 0.618247
vt 0.392020 0.620102
vt 0.400907 0.654318
vt 0.695003 0.652405
vt 0.695003 0.618114
vt 0.625000 0.131887
vt 0.625000 0.097595
vt 0.804997 0.618114
vt 0.804997 0.652405
s 0
f 1/1/1 3/4/1 4/3/1 2/2/1
f 3/4/2 5/6/2 6/5/2 4/3/2
f 5/6/3 7/8/3 8/7/3 6/5/3
f 7/8/4 9/10/4 10/9/4 8/7/4
f 9/10/5 11/12/5 12/11/5 10/9/5
f 11/12/6 13/14/6 14/13/6 12/11/6
f 4/15/7 6/22/7 8/21/7 10/20/7 12/19/7 14/18/7 16/17/7 2/16/7
f 13/14/8 15/24/8 16/23/8 14/13/8
f 15/24/9 1/26/9 2/25/9 16/23/9
f 1/27/10 15/34/10 13/33/10 11/32/10 9/31/10 7/30/10 5/29/10 3/28/10
f 35/35/11 34/38/11 33/37/11 36/36/11 20/3/11 18/2/11 17/1/11 19/4/11
f 36/36/12 38/39/12 22/5/12 20/3/12
f 37/40/12 35/35/12 19/4/12 21/6/12
f 38/39/13 40/41/13 24/7/13 22/5/13
f 39/42/13 37/40/13 21/6/13 23/8/13
f 40/41/14 42/44/14 41/43/14 39/42/14 23/8/14 25/10/14 26/9/14 24/7/14
f 25/10/15 27/12/15 28/11/15 26/9/15
f 27/12/16 29/14/16 30/13/16 28/11/16
f 30/18/7 32/17/7 18/16/7 20/15/7 22/22/7 24/21/7 26/20/7 28/19/7
f 29/14/17 31/24/17 32/23/17 30/13/17
f 31/24/18 17/26/18 18/25/18 32/23/18
f 31/34/10 29/33/10 27/32/10 25/31/10 23/30/10 21/29/10 19/28/10 17/27/10
f 35/45/7 37/49/7 39/48/7 41/47/7 34/46/7
f 33/50/10 42/54/10 40/53/10 38/52/10 36/51/10
f 34/55/19 41/56/19 42/56/19 33/55/19
f 43/1/1 45/4/1 46/3/1 44/2/1
f 45/4/2 47/6/2 48/5/2 46/3/2
f 47/6/3 49/8/3 50/7/3 48/5/3
f 49/8/4 51/10/4 52/9/4 50/7/4
f 51/10/5 53/12/5 54/11/5 52/9/5
f 53/12/6 55/14/6 56/13/6 54/11/6
f 46/15/7 48/22/7 50/21/7 52/20/7 54/19/7 56/18/7 58/17/7 44/16/7
f 55/14/8 57/24/8 58/23/8 56/13/8
f 57/24/9 43/26/9 44/25/9 58/23/9
f 43/27/10 57/34/10 55/33/10 53/32/10 51/31/10 49/30/10 47/29/10 45/28/10
f 59/1/1 60/2/1 62/3/1 61/4/1
f 61/4/2 62/3/2 64/5/2 63/6/2
f 63/6/3 64/5/3 66/7/3 65/8/3
f 65/8/4 66/7/4 68/9/4 67/10/4
f 67/10/5 68/9/5 70/11/5 69/12/5
f 69/12/6 70/11/6 72/13/6 71/14/6
f 62/15/10 60/16/10 74/17/10 72/18/10 70/19/10 68/20/10 66/21/10 64/22/10
f 71/14/8 72/13/8 74/23/8 73/24/8
f 73/24/9 74/23/9 60/25/9 59/26/9
f 59/27/7 61/28/7 63/29/7 65/30/7 67/31/7 69/32/7 71/33/7 73/34/7
f 75/57/10 77/60/10 78/59/10 76/58/10
f 83/61/20 81/12/20 82/8/20 88/62/20
f 89/63/21 75/11/21 76/7/21 94/64/21
f 95/65/22 94/67/22 76/66/22
f 86/68/23 95/65/23 76/69/23 78/4/23
f 83/70/24 91/72/24 79/71/24 81/12/24
f 81/12/7 79/71/7 80/73/7 82/8/7
f 77/24/24 75/76/24 89/75/24 85/74/24
f 85/74/24 89/75/24 90/78/24 84/77/24
f 84/77/24 90/78/24 91/72/24 83/70/24
f 82/8/25 80/73/25 97/80/25 88/79/25
f 88/79/26 97/80/26 96/81/26 87/6/26
f 87/6/26 96/81/26 95/65/26 86/68/26
f 80/73/22 92/82/22 97/80/22
f 97/80/22 92/82/22 93/83/22 96/81/22
f 96/81/22 93/83/22 94/67/22 95/65/22
f 79/84/21 91/87/21 92/86/21 80/85/21
f 91/87/21 90/89/21 93/88/21 92/86/21
f 90/89/21 89/63/21 94/64/21 93/88/21
f 77/60/20 85/91/20 86/90/20 78/59/20
f 85/91/20 84/93/20 87/92/20 86/90/20
f 84/93/20 83/61/20 88/62/20 87/92/20
f 98/94/10 100/60/10 101/59/10 99/95/10
f 106/96/27 108/99/27 114/98/27 113/97/27
f 104/12/7 102/84/7 103/85/7 105/8/7
f 107/100/28 109/101/28 102/84/28 104/12/28
f 98/102/28 108/104/28 106/103/28 100/24/28
f 105/8/29 103/85/29 99/66/29 101/4/29
f 102/84/30 109/110/30 117/109/30 116/108/30 115/107/30 114/106/30 108/105/30 98/11/30 99/7/30 103/85/30
f 100/60/31 106/116/31 113/115/31 112/114/31 111/113/31 110/112/31 107/111/31 104/12/31 105/8/31 101/59/31
f 117/117/32 109/120/32 107/119/32 110/118/32
f 110/118/33 111/122/33 116/121/33 117/117/33
f 112/123/34 113/97/34 114/98/34 115/124/34
f 112/125/35 115/126/35 116/121/35 111/122/35
