# Blender 4.4.3
# www.blender.org
mtllib Mag2.mtl
o Cube.015
v -0.041414 0.083621 -0.547872
v -0.030371 0.176504 -0.547307
v -0.041414 0.083621 -0.766722
v -0.030371 0.176504 -0.756009
v 0.044444 0.083621 -0.547872
v 0.033401 0.176504 -0.547307
v 0.044444 0.083621 -0.766722
v 0.033401 0.176504 -0.756009
v -0.028819 0.083621 -0.429966
v -0.016756 0.176504 -0.442310
v 0.019786 0.176504 -0.442310
v 0.031849 0.083621 -0.429966
v -0.041418 -0.049405 -0.758302
v -0.041418 -0.023865 -0.540948
v 0.044440 -0.049405 -0.758302
v 0.044440 -0.023865 -0.540948
v -0.028824 -0.010105 -0.423848
v 0.031845 -0.010105 -0.423848
v -0.041418 -0.134213 -0.748337
v -0.041418 -0.108673 -0.530983
v 0.044440 -0.134213 -0.748337
v 0.044440 -0.108673 -0.530983
v -0.028824 -0.094913 -0.413882
v 0.031845 -0.094913 -0.413882
v -0.041414 0.176504 -0.547872
v -0.041414 0.176504 -0.766722
v 0.044444 0.176504 -0.766722
v 0.044444 0.176504 -0.547872
v 0.031849 0.176504 -0.429966
v -0.028819 0.176504 -0.429966
v 0.033401 0.101184 -0.547307
v -0.030371 0.101184 -0.547307
v -0.030371 0.101184 -0.756009
v 0.033401 0.101184 -0.756009
v 0.019786 0.101184 -0.442310
v -0.016756 0.101184 -0.442310
v -0.041414 0.098984 -0.563236
v -0.041414 0.161140 -0.563236
v -0.041414 0.161140 -0.751358
v -0.041414 0.098984 -0.751358
v 0.044444 0.098984 -0.751358
v 0.044444 0.161140 -0.751358
v 0.044444 0.161140 -0.563236
v 0.044444 0.098984 -0.563236
v -0.039783 0.161140 -0.532605
v -0.039783 0.098984 -0.532605
v -0.030450 0.098984 -0.445233
v -0.030450 0.161140 -0.445233
v 0.042813 0.098984 -0.532605
v 0.042813 0.161140 -0.532605
v 0.033480 0.161140 -0.445233
v 0.033480 0.098984 -0.445233
v -0.041415 0.068257 -0.562354
v -0.041415 0.068257 -0.750117
v -0.041418 -0.039538 -0.741735
v -0.041418 0.002518 -0.558468
v 0.042784 0.068257 -0.531674
v 0.033512 0.068257 -0.444660
v 0.033473 0.028971 -0.443182
v 0.042814 0.009462 -0.528195
v 0.044444 0.068257 -0.750117
v 0.044444 0.068257 -0.562354
v 0.044440 0.002518 -0.558468
v 0.044441 -0.039538 -0.741735
v -0.030484 0.068257 -0.444660
v -0.039755 0.068257 -0.531674
v -0.039790 0.009462 -0.528195
v -0.030450 0.028971 -0.443182
v -0.036509 0.114053 -0.578305
v -0.036509 0.146071 -0.578305
v -0.036509 0.146071 -0.736289
v -0.036509 0.114053 -0.736289
v 0.039538 0.114053 -0.736289
v 0.039538 0.146071 -0.736289
v 0.039538 0.146071 -0.578305
v 0.039538 0.114053 -0.578305
v -0.033647 0.146071 -0.517632
v -0.033647 0.114053 -0.517632
v -0.028214 0.114053 -0.460206
v -0.028214 0.146071 -0.460206
v 0.036677 0.114053 -0.517632
v 0.036677 0.146071 -0.517632
v 0.031244 0.146071 -0.460206
v 0.031244 0.114053 -0.460206
v -0.036509 0.053188 -0.576559
v -0.036510 0.053188 -0.733831
v -0.036511 -0.020941 -0.728066
v -0.036512 0.014354 -0.574263
v 0.036625 0.053188 -0.515787
v 0.031300 0.053189 -0.459072
v 0.031235 0.040887 -0.458617
v 0.036682 0.028109 -0.514297
v 0.039537 0.053188 -0.733831
v 0.039538 0.053188 -0.576559
v 0.039535 0.014354 -0.574263
v 0.039536 -0.020941 -0.728066
v -0.028273 0.053189 -0.459072
v -0.033598 0.053188 -0.515787
v -0.033656 0.028109 -0.514297
v -0.028211 0.040887 -0.458617
v -0.043843 -0.142640 -0.757878
v -0.043843 -0.115658 -0.528249
v 0.046864 -0.142640 -0.757878
v 0.046864 -0.115658 -0.528249
v -0.030537 -0.101121 -0.404536
v 0.033558 -0.101121 -0.404536
v -0.043843 -0.163560 -0.755419
v -0.043843 -0.136577 -0.525791
v 0.046864 -0.163560 -0.755419
v 0.046864 -0.136577 -0.525791
v -0.030537 -0.122041 -0.402077
v 0.033558 -0.122041 -0.402077
v -0.047368 -0.052134 -0.537626
v -0.047368 -0.080403 -0.534304
v -0.033028 -0.066644 -0.417204
v -0.033028 -0.038374 -0.420526
v 0.050390 -0.077674 -0.754981
v 0.050390 -0.105943 -0.751659
v -0.047368 -0.105943 -0.751659
v -0.047368 -0.077674 -0.754981
v 0.036049 -0.038374 -0.420526
v 0.036049 -0.066644 -0.417204
v 0.050390 -0.080403 -0.534304
v 0.050390 -0.052134 -0.537626
vn -1.0000 -0.0000 -0.0000
vn -0.0000 -0.0000 -1.0000
vn 1.0000 -0.0000 -0.0000
vn -0.9956 -0.0000 0.0942
vn -0.0000 -0.0632 -0.9980
vn -0.0000 -0.0000 1.0000
vn -0.0000 0.0651 0.9979
vn 0.9956 -0.0000 0.0942
vn -0.0000 -0.1167 -0.9932
vn -0.9783 -0.1603 0.1313
vn 0.9955 0.0047 0.0949
vn -0.9955 0.0048 0.0948
vn 0.9485 0.3147 -0.0370
vn -0.0000 0.8330 0.5533
vn 0.9783 -0.1603 0.1313
vn -0.0000 0.1167 0.9932
vn 0.9788 -0.2032 0.0239
vn -0.9788 -0.2032 0.0239
vn -0.0000 1.0000 -0.0000
vn 0.9917 -0.0000 -0.1286
vn -0.9917 -0.0000 -0.1286
vn -0.9943 -0.0000 0.1062
vn 0.9943 -0.0000 0.1062
vn 0.9943 0.0053 0.1061
vn 0.9950 0.0054 0.1000
vn 0.9943 0.0096 0.1063
vn 0.9941 0.0069 0.1085
vn -0.9943 0.0054 0.1061
vn -0.9941 0.0070 0.1085
vn -0.9943 0.0097 0.1063
vn -0.9950 0.0055 0.1001
vn -0.9509 -0.0000 -0.3095
vn -0.9509 -0.3095 -0.0000
vn -0.9509 -0.0000 0.3095
vn -0.9509 0.3095 -0.0000
vn 0.9509 -0.0000 0.3096
vn 0.9509 -0.3096 -0.0000
vn 0.9509 -0.0000 -0.3096
vn 0.9509 0.3096 -0.0000
vn -0.9253 -0.0000 0.3792
vn -0.9589 0.2664 0.0978
vn -0.9890 -0.0000 -0.1477
vn -0.9589 -0.2664 0.0978
vn 0.9253 -0.0000 0.3792
vn 0.9589 -0.2664 0.0978
vn 0.9890 -0.0000 -0.1477
vn 0.9589 0.2664 0.0978
vn -0.9509 0.0240 0.3086
vn -0.9509 0.3018 -0.0692
vn -0.9509 -0.0182 -0.3090
vn 0.9602 -0.2619 0.0975
vn 0.9892 -0.0075 -0.1467
vn 0.9632 0.2658 0.0402
vn 0.9251 0.0234 0.3789
vn 0.9509 -0.0183 -0.3090
vn 0.9509 0.3017 -0.0692
vn 0.9509 0.0240 0.3086
vn -0.9602 -0.2618 0.0975
vn -0.9251 0.0235 0.3789
vn -0.9632 0.2659 0.0402
vn -0.9892 -0.0073 -0.1467
vn -0.9943 0.0124 0.1055
vn -0.9485 0.3147 -0.0370
vn -0.9356 0.3481 0.0597
vn -0.0000 0.7495 -0.6620
vn 0.9356 0.3481 0.0597
vn -0.0000 -0.9932 0.1167
vn 0.9943 0.0124 0.1055
vn -0.9788 0.2032 -0.0239
vn 0.9788 0.2032 -0.0239
vn 0.9783 0.1863 0.0906
vn 0.9927 0.0141 0.1199
vn -0.9783 0.1863 0.0906
vn -0.9927 0.0141 0.1199
vt 0.405068 0.034764
vt 0.594933 0.034764
vt 0.594933 0.215236
vt 0.405068 0.215236
vt 0.375000 0.250000
vt 0.625000 0.250000
vt 0.625000 0.500000
vt 0.375000 0.500000
vt 0.405068 0.534764
vt 0.594932 0.534764
vt 0.594932 0.715236
vt 0.405068 0.715236
vt 0.594933 0.000000
vt 0.405068 0.000000
vt 0.405068 0.000000
vt 0.594932 0.000000
vt 0.677124 0.521622
vt 0.822876 0.521622
vt 0.375000 0.750000
vt 0.625000 0.750000
vt 0.625000 1.000000
vt 0.375000 1.000000
vt 0.806456 0.750000
vt 0.693544 0.750000
vt 0.405068 0.750000
vt 0.594932 0.750000
vt 0.594932 0.750000
vt 0.405068 0.750000
vt 0.375000 0.250000
vt 0.375000 0.000000
vt 0.375000 0.000000
vt 0.375000 0.034975
vt 0.375000 0.215037
vt 0.375000 0.214940
vt 0.375000 0.035086
vt 0.375000 0.750000
vt 0.375000 0.750000
vt 0.375000 0.534962
vt 0.375000 0.715025
vt 0.375000 0.714914
vt 0.375000 0.535060
vt 0.375000 0.000000
vt 0.375000 0.750000
vt 0.822811 0.750000
vt 0.875000 0.500000
vt 0.875000 0.750000
vt 0.677189 0.750000
vt 0.625000 0.000000
vt 0.609821 0.017550
vt 0.390179 0.017550
vt 0.609821 0.232450
vt 0.390179 0.232450
vt 0.609821 0.517550
vt 0.390179 0.517550
vt 0.609821 0.732450
vt 0.390179 0.732450
vt 0.390179 0.000000
vt 0.609821 0.000000
vt 0.390179 0.000000
vt 0.609821 0.000000
vt 0.609821 0.750000
vt 0.390179 0.750000
vt 0.609821 0.750000
vt 0.390179 0.750000
vt 0.375000 0.232361
vt 0.375000 0.017640
vt 0.375000 0.232289
vt 0.375000 0.017729
vt 0.375000 0.732360
vt 0.375000 0.517639
vt 0.375000 0.732271
vt 0.375000 0.517711
vt 0.125000 0.500000
vt 0.125000 0.750000
vt 0.375000 0.250000
s 0
f 69/1/1 70/2/1 71/3/1 72/4/1
f 3/5/2 26/6/2 27/7/2 7/8/2
f 73/9/3 74/10/3 75/11/3 76/12/3
f 77/13/4 78/14/4 79/15/4 80/16/4
f 3/5/5 7/8/5 15/8/5 13/5/5
f 8/17/6 4/18/6 33/18/6 34/17/6
f 12/19/6 29/20/6 30/21/6 9/22/6
f 12/19/7 9/22/7 17/22/7 18/19/7
f 10/23/2 11/24/2 35/24/2 36/23/2
f 81/25/8 82/26/8 83/27/8 84/28/8
f 119/29/9 118/8/9 21/8/9 19/5/9
f 115/30/10 114/31/10 20/30/10 23/30/10
f 85/32/1 86/33/1 87/34/1 88/35/1
f 89/36/11 90/19/11 91/19/11 92/37/11
f 93/38/3 94/39/3 95/40/3 96/41/3
f 97/30/12 98/42/12 99/42/12 100/30/12
f 21/8/13 22/19/13 104/19/13 103/8/13
f 24/19/14 23/22/14 105/22/14 106/19/14
f 123/37/15 122/43/15 24/19/15 22/19/15
f 122/43/16 115/22/16 23/22/16 24/19/16
f 118/8/17 123/37/17 22/19/17 21/8/17
f 114/31/18 119/29/18 19/5/18 20/30/18
f 2/44/19 4/18/19 26/45/19 25/46/19
f 4/18/19 8/17/19 27/7/19 26/45/19
f 8/17/19 6/47/19 28/20/19 27/7/19
f 11/24/19 10/23/19 30/46/19 29/20/19
f 10/23/19 2/44/19 25/46/19 30/46/19
f 6/47/19 11/24/19 29/20/19 28/20/19
f 34/17/19 33/18/19 32/44/19 31/47/19
f 31/47/19 32/44/19 36/23/19 35/24/19
f 2/44/20 10/23/20 36/23/20 32/44/20
f 6/47/1 8/17/1 34/17/1 31/47/1
f 4/18/3 2/44/3 32/44/3 33/18/3
f 11/24/21 6/47/21 31/47/21 35/24/21
f 1/30/1 25/48/1 38/49/1 37/50/1
f 25/48/1 26/6/1 39/51/1 38/49/1
f 26/6/1 3/5/1 40/52/1 39/51/1
f 3/5/1 1/30/1 37/50/1 40/52/1
f 7/8/3 27/7/3 42/53/3 41/54/3
f 27/7/3 28/20/3 43/55/3 42/53/3
f 28/20/3 5/19/3 44/56/3 43/55/3
f 5/19/3 7/8/3 41/54/3 44/56/3
f 25/48/22 1/30/22 46/57/22 45/58/22
f 1/30/22 9/30/22 47/59/22 46/57/22
f 9/30/22 30/48/22 48/60/22 47/59/22
f 30/48/22 25/48/22 45/58/22 48/60/22
f 5/19/23 28/20/23 50/61/23 49/62/23
f 28/20/23 29/20/23 51/63/23 50/61/23
f 29/20/23 12/19/23 52/64/23 51/63/23
f 12/19/23 5/19/23 49/62/23 52/64/23
f 1/30/1 3/5/1 54/65/1 53/66/1
f 3/5/1 13/5/1 55/67/1 54/65/1
f 13/5/1 14/30/1 56/68/1 55/67/1
f 14/30/1 1/30/1 53/66/1 56/68/1
f 5/19/24 12/19/24 58/19/24 57/19/24
f 12/19/25 18/19/25 59/36/25 58/19/25
f 18/19/26 16/19/26 60/19/26 59/36/26
f 16/19/27 5/19/27 57/19/27 60/19/27
f 7/8/3 5/19/3 62/69/3 61/70/3
f 5/19/3 16/19/3 63/71/3 62/69/3
f 16/19/3 15/8/3 64/72/3 63/71/3
f 15/8/3 7/8/3 61/70/3 64/72/3
f 9/30/28 1/30/28 66/30/28 65/30/28
f 1/30/29 14/30/29 67/30/29 66/30/29
f 14/30/30 17/30/30 68/30/30 67/30/30
f 17/30/31 9/30/31 65/30/31 68/30/31
f 37/50/32 38/49/32 70/2/32 69/1/32
f 38/49/33 39/51/33 71/3/33 70/2/33
f 39/51/34 40/52/34 72/4/34 71/3/34
f 40/52/35 37/50/35 69/1/35 72/4/35
f 41/54/36 42/53/36 74/10/36 73/9/36
f 42/53/37 43/55/37 75/11/37 74/10/37
f 43/55/38 44/56/38 76/12/38 75/11/38
f 44/56/39 41/54/39 73/9/39 76/12/39
f 45/58/40 46/57/40 78/14/40 77/13/40
f 46/57/41 47/59/41 79/15/41 78/14/41
f 47/59/42 48/60/42 80/16/42 79/15/42
f 48/60/43 45/58/43 77/13/43 80/16/43
f 49/62/44 50/61/44 82/26/44 81/25/44
f 50/61/45 51/63/45 83/27/45 82/26/45
f 51/63/46 52/64/46 84/28/46 83/27/46
f 52/64/47 49/62/47 81/25/47 84/28/47
f 53/66/33 54/65/33 86/33/33 85/32/33
f 54/65/48 55/67/48 87/34/48 86/33/48
f 55/67/49 56/68/49 88/35/49 87/34/49
f 56/68/50 53/66/50 85/32/50 88/35/50
f 57/19/51 58/19/51 90/19/51 89/36/51
f 58/19/52 59/36/52 91/19/52 90/19/52
f 59/36/53 60/19/53 92/37/53 91/19/53
f 60/19/54 57/19/54 89/36/54 92/37/54
f 61/70/37 62/69/37 94/39/37 93/38/37
f 62/69/55 63/71/55 95/40/55 94/39/55
f 63/71/56 64/72/56 96/41/56 95/40/56
f 64/72/57 61/70/57 93/38/57 96/41/57
f 65/30/58 66/30/58 98/42/58 97/30/58
f 66/30/59 67/30/59 99/42/59 98/42/59
f 67/30/60 68/30/60 100/30/60 99/42/60
f 68/30/61 65/30/61 97/30/61 100/30/61
f 101/5/9 103/8/9 109/8/9 107/5/9
f 105/30/62 102/30/62 108/30/62 111/30/62
f 20/30/63 19/5/63 101/5/63 102/30/63
f 23/30/64 20/30/64 102/30/64 105/30/64
f 19/5/65 21/8/65 103/8/65 101/5/65
f 22/19/66 24/19/66 106/19/66 104/19/66
f 107/73/67 109/8/67 110/19/67 108/74/67
f 108/74/67 110/19/67 112/19/67 111/74/67
f 104/19/68 106/19/68 112/19/68 110/19/68
f 106/19/16 105/22/16 111/22/16 112/19/16
f 103/8/3 104/19/3 110/19/3 109/8/3
f 102/30/1 101/5/1 107/5/1 108/30/1
f 14/30/69 13/5/69 120/75/69 113/31/69
f 113/31/1 120/75/1 119/29/1 114/31/1
f 15/8/70 16/19/70 124/19/70 117/8/70
f 117/8/3 124/19/3 123/37/3 118/8/3
f 18/19/16 17/22/16 116/22/16 121/43/16
f 121/43/16 116/22/16 115/22/16 122/43/16
f 16/19/71 18/19/71 121/43/71 124/19/71
f 124/19/72 121/43/72 122/43/72 123/37/72
f 17/30/73 14/30/73 113/31/73 116/30/73
f 116/30/74 113/31/74 114/31/74 115/30/74
f 13/5/9 15/8/9 117/8/9 120/75/9
f 120/75/9 117/8/9 118/8/9 119/29/9
