# Blender 4.4.3
# www.blender.org
mtllib Mag3.mtl
o Cube.006
v -0.041414 -0.048068 -0.547064
v -0.030371 0.176504 -0.547307
v -0.041414 -0.048358 -0.765914
v -0.030371 0.176504 -0.756009
v 0.044444 -0.048068 -0.547064
v 0.033401 0.176504 -0.547307
v 0.044444 -0.048358 -0.765914
v 0.033401 0.176504 -0.756009
v -0.028819 -0.047912 -0.429159
v -0.016756 0.176504 -0.442310
v 0.019786 0.176504 -0.442310
v 0.031849 -0.047912 -0.429159
v -0.041418 -0.230950 -0.738449
v -0.041418 -0.182377 -0.525058
v 0.044440 -0.230950 -0.738449
v 0.044440 -0.182377 -0.525058
v -0.028824 -0.156209 -0.410092
v 0.031845 -0.156209 -0.410092
v -0.041418 -0.314211 -0.719497
v -0.041418 -0.265639 -0.506106
v 0.044440 -0.314211 -0.719497
v 0.044440 -0.265639 -0.506106
v -0.028824 -0.239470 -0.391140
v 0.031845 -0.239470 -0.391140
v -0.041414 0.176504 -0.547872
v -0.041414 0.176504 -0.766722
v 0.044444 0.176504 -0.766722
v 0.044444 0.176504 -0.547872
v 0.031849 0.176504 -0.429966
v -0.028819 0.176504 -0.429966
v 0.033401 -0.022514 -0.547307
v -0.030371 -0.022514 -0.547307
v -0.030371 -0.022514 -0.756009
v 0.033401 -0.022514 -0.756009
v 0.019786 -0.022514 -0.442310
v -0.016756 -0.022514 -0.442310
v -0.041414 -0.024714 -0.563236
v -0.041414 0.161140 -0.563236
v -0.041414 0.161140 -0.751358
v -0.041414 -0.024714 -0.751358
v 0.044444 -0.024714 -0.751358
v 0.044444 0.161140 -0.751358
v 0.044444 0.161140 -0.563236
v 0.044444 -0.024714 -0.563236
v -0.039783 0.161140 -0.532605
v -0.039783 -0.024714 -0.532605
v -0.030450 -0.024714 -0.445233
v -0.030450 0.161140 -0.445233
v 0.042813 -0.024714 -0.532605
v 0.042813 0.161140 -0.532605
v 0.033480 0.161140 -0.445233
v 0.033480 -0.024714 -0.445233
v -0.041415 -0.063451 -0.561526
v -0.041415 -0.063700 -0.749289
v -0.041418 -0.210152 -0.728659
v -0.041418 -0.157413 -0.548177
v 0.042784 -0.063410 -0.530846
v 0.033512 -0.063294 -0.443832
v 0.033473 -0.124240 -0.434642
v 0.042814 -0.148705 -0.518363
v 0.044444 -0.063700 -0.749289
v 0.044444 -0.063451 -0.561526
v 0.044440 -0.157413 -0.548177
v 0.044441 -0.210152 -0.728659
v -0.030484 -0.063294 -0.443832
v -0.039755 -0.063410 -0.530846
v -0.039790 -0.148705 -0.518363
v -0.030450 -0.124240 -0.434642
v -0.036509 -0.009645 -0.578305
v -0.036509 0.146071 -0.578305
v -0.036509 0.146071 -0.736289
v -0.036509 -0.009645 -0.736289
v 0.039538 -0.009645 -0.736289
v 0.039538 0.146071 -0.736289
v 0.039538 0.146071 -0.578305
v 0.039538 -0.009645 -0.578305
v -0.033647 0.146071 -0.517632
v -0.033647 -0.009645 -0.517632
v -0.028214 -0.009645 -0.460206
v -0.028214 0.146071 -0.460206
v 0.036677 -0.009645 -0.517632
v 0.036677 0.146071 -0.517632
v 0.031244 0.146071 -0.460206
v 0.031244 -0.009645 -0.460206
v -0.036509 -0.078538 -0.575711
v -0.036510 -0.078747 -0.732983
v -0.036511 -0.190785 -0.716106
v -0.036512 -0.146525 -0.564639
v 0.036625 -0.078458 -0.514939
v 0.031300 -0.078382 -0.458224
v 0.031235 -0.113250 -0.450749
v 0.036682 -0.129275 -0.505583
v 0.039537 -0.078747 -0.732983
v 0.039538 -0.078538 -0.575711
v 0.039535 -0.146525 -0.564639
v 0.039536 -0.190785 -0.716106
v -0.028273 -0.078382 -0.458224
v -0.033598 -0.078458 -0.514939
v -0.033656 -0.129274 -0.505583
v -0.028211 -0.113250 -0.450749
v -0.043843 -0.323608 -0.728084
v -0.043843 -0.272293 -0.502642
v 0.046864 -0.323608 -0.728084
v 0.046864 -0.272293 -0.502642
v -0.030537 -0.244647 -0.381185
v 0.033558 -0.244647 -0.381185
v -0.043843 -0.344146 -0.723410
v -0.043843 -0.292831 -0.497967
v 0.046864 -0.344146 -0.723410
v 0.046864 -0.292831 -0.497967
v -0.030537 -0.265184 -0.376510
v 0.033558 -0.265184 -0.376510
v -0.047368 -0.210131 -0.518740
v -0.047368 -0.237885 -0.512423
v -0.033028 -0.211716 -0.397458
v -0.033028 -0.183963 -0.403775
v 0.050390 -0.258704 -0.732132
v 0.050390 -0.286458 -0.725814
v -0.047368 -0.286458 -0.725814
v -0.047368 -0.258704 -0.732132
v 0.036049 -0.183963 -0.403775
v 0.036049 -0.211716 -0.397458
v 0.050390 -0.237885 -0.512423
v 0.050390 -0.210131 -0.518740
vn -1.0000 -0.0000 -0.0000
vn -0.0000 -0.0036 -1.0000
vn 1.0000 -0.0000 -0.0000
vn -0.9956 -0.0000 0.0942
vn -0.0000 -0.1487 -0.9889
vn -0.0000 -0.0000 1.0000
vn -0.0000 0.0036 1.0000
vn -0.0000 0.1734 0.9849
vn -0.0000 -0.0000 -1.0000
vn 0.9956 -0.0000 0.0942
vn -0.0000 -0.2219 -0.9751
vn -0.9783 -0.1453 0.1477
vn 0.9955 0.0183 0.0935
vn -0.9955 0.0183 0.0935
vn 0.9485 0.3090 -0.0703
vn -0.0000 0.8872 0.4613
vn 0.9783 -0.1453 0.1477
vn -0.0000 0.2219 0.9751
vn 0.9788 -0.1995 0.0454
vn -0.9788 -0.1995 0.0454
vn -0.0000 1.0000 -0.0000
vn 0.9917 -0.0000 -0.1286
vn -0.9917 -0.0000 -0.1286
vn -0.9940 0.0002 0.1090
vn -0.9943 0.0037 0.1062
vn -0.9946 0.0002 0.1036
vn -0.9943 -0.0000 0.1062
vn 0.9940 0.0002 0.1090
vn 0.9943 -0.0000 0.1062
vn 0.9946 0.0002 0.1036
vn 0.9943 0.0037 0.1062
vn 0.9943 0.0054 0.1061
vn 0.9959 0.0147 0.0898
vn 0.9943 0.0279 0.1027
vn 0.9918 0.0200 0.1263
vn -0.9943 0.0055 0.1061
vn -0.9918 0.0200 0.1263
vn -0.9943 0.0279 0.1027
vn -0.9958 0.0148 0.0898
vn -0.9509 -0.0000 -0.3095
vn -0.9509 -0.3095 -0.0000
vn -0.9509 -0.0000 0.3095
vn -0.9509 0.3095 -0.0000
vn 0.9509 -0.0000 0.3096
vn 0.9509 -0.3096 -0.0000
vn 0.9509 -0.0000 -0.3096
vn 0.9509 0.3096 -0.0000
vn -0.9253 -0.0000 0.3792
vn -0.9589 0.2664 0.0978
vn -0.9890 -0.0000 -0.1477
vn -0.9589 -0.2664 0.0978
vn 0.9253 -0.0000 0.3792
vn 0.9589 -0.2664 0.0978
vn 0.9890 -0.0000 -0.1477
vn 0.9589 0.2664 0.0978
vn -0.9509 -0.3095 0.0004
vn -0.9479 0.0458 0.3154
vn -0.9509 0.2972 -0.0868
vn -0.9532 -0.0451 -0.2990
vn 0.9602 -0.2618 0.0979
vn 0.9897 -0.0256 -0.1410
vn 0.9632 0.2677 0.0246
vn 0.9208 0.0624 0.3850
vn 0.9509 -0.3096 0.0004
vn 0.9532 -0.0451 -0.2990
vn 0.9509 0.2971 -0.0868
vn 0.9479 0.0457 0.3154
vn -0.9602 -0.2617 0.0979
vn -0.9208 0.0624 0.3850
vn -0.9632 0.2678 0.0245
vn -0.9897 -0.0255 -0.1410
vn -0.9943 0.0236 0.1036
vn -0.9485 0.3090 -0.0703
vn -0.9356 0.3524 0.0223
vn -0.0000 0.6746 -0.7382
vn 0.9356 0.3524 0.0223
vn -0.0000 -0.9751 0.2219
vn 0.9943 0.0236 0.1036
vn -0.9788 0.1995 -0.0454
vn 0.9788 0.1995 -0.0454
vn 0.9783 0.1949 0.0702
vn 0.9927 0.0268 0.1177
vn -0.9783 0.1949 0.0702
vn -0.9927 0.0268 0.1177
vt 0.405068 0.034764
vt 0.594933 0.034764
vt 0.594933 0.215236
vt 0.405068 0.215236
vt 0.375000 0.250000
vt 0.625000 0.250000
vt 0.625000 0.500000
vt 0.375000 0.500000
vt 0.405068 0.534764
vt 0.594932 0.534764
vt 0.594932 0.715236
vt 0.405068 0.715236
vt 0.594933 0.000000
vt 0.405068 0.000000
vt 0.405068 0.000000
vt 0.594932 0.000000
vt 0.677124 0.521622
vt 0.822876 0.521622
vt 0.375000 0.750000
vt 0.625000 0.750000
vt 0.625000 1.000000
vt 0.375000 1.000000
vt 0.806456 0.750000
vt 0.693544 0.750000
vt 0.405068 0.750000
vt 0.594932 0.750000
vt 0.594932 0.750000
vt 0.405068 0.750000
vt 0.375000 0.250000
vt 0.375000 0.000000
vt 0.375000 0.000000
vt 0.375000 0.034975
vt 0.375000 0.215037
vt 0.375000 0.214940
vt 0.375000 0.035086
vt 0.375000 0.750000
vt 0.375000 0.750000
vt 0.375000 0.534962
vt 0.375000 0.715025
vt 0.375000 0.714914
vt 0.375000 0.535060
vt 0.375000 0.000000
vt 0.375000 0.750000
vt 0.822811 0.750000
vt 0.875000 0.500000
vt 0.875000 0.750000
vt 0.677189 0.750000
vt 0.625000 0.000000
vt 0.609821 0.017550
vt 0.390179 0.017550
vt 0.609821 0.232450
vt 0.390179 0.232450
vt 0.609821 0.517550
vt 0.390179 0.517550
vt 0.609821 0.732450
vt 0.390179 0.732450
vt 0.390179 0.000000
vt 0.609821 0.000000
vt 0.390179 0.000000
vt 0.609821 0.000000
vt 0.609821 0.750000
vt 0.390179 0.750000
vt 0.609821 0.750000
vt 0.390179 0.750000
vt 0.375000 0.232361
vt 0.375000 0.017640
vt 0.375000 0.232289
vt 0.375000 0.017729
vt 0.375000 0.732360
vt 0.375000 0.517639
vt 0.375000 0.732271
vt 0.375000 0.517711
vt 0.125000 0.500000
vt 0.125000 0.750000
vt 0.375000 0.250000
s 0
f 69/1/1 70/2/1 71/3/1 72/4/1
f 3/5/2 26/6/2 27/7/2 7/8/2
f 73/9/3 74/10/3 75/11/3 76/12/3
f 77/13/4 78/14/4 79/15/4 80/16/4
f 3/5/5 7/8/5 15/8/5 13/5/5
f 8/17/6 4/18/6 33/18/6 34/17/6
f 12/19/7 29/20/7 30/21/7 9/22/7
f 12/19/8 9/22/8 17/22/8 18/19/8
f 10/23/9 11/24/9 35/24/9 36/23/9
f 81/25/10 82/26/10 83/27/10 84/28/10
f 119/29/11 118/8/11 21/8/11 19/5/11
f 115/30/12 114/31/12 20/30/12 23/30/12
f 85/32/1 86/33/1 87/34/1 88/35/1
f 89/36/13 90/19/13 91/19/13 92/37/13
f 93/38/3 94/39/3 95/40/3 96/41/3
f 97/30/14 98/42/14 99/42/14 100/30/14
f 21/8/15 22/19/15 104/19/15 103/8/15
f 24/19/16 23/22/16 105/22/16 106/19/16
f 123/37/17 122/43/17 24/19/17 22/19/17
f 122/43/18 115/22/18 23/22/18 24/19/18
f 118/8/19 123/37/19 22/19/19 21/8/19
f 114/31/20 119/29/20 19/5/20 20/30/20
f 2/44/21 4/18/21 26/45/21 25/46/21
f 4/18/21 8/17/21 27/7/21 26/45/21
f 8/17/21 6/47/21 28/20/21 27/7/21
f 11/24/21 10/23/21 30/46/21 29/20/21
f 10/23/21 2/44/21 25/46/21 30/46/21
f 6/47/21 11/24/21 29/20/21 28/20/21
f 34/17/21 33/18/21 32/44/21 31/47/21
f 31/47/21 32/44/21 36/23/21 35/24/21
f 2/44/22 10/23/22 36/23/22 32/44/22
f 6/47/1 8/17/1 34/17/1 31/47/1
f 4/18/3 2/44/3 32/44/3 33/18/3
f 11/24/23 6/47/23 31/47/23 35/24/23
f 1/30/1 25/48/1 38/49/1 37/50/1
f 25/48/1 26/6/1 39/51/1 38/49/1
f 26/6/1 3/5/1 40/52/1 39/51/1
f 3/5/1 1/30/1 37/50/1 40/52/1
f 7/8/3 27/7/3 42/53/3 41/54/3
f 27/7/3 28/20/3 43/55/3 42/53/3
f 28/20/3 5/19/3 44/56/3 43/55/3
f 5/19/3 7/8/3 41/54/3 44/56/3
f 25/48/24 1/30/24 46/57/24 45/58/24
f 1/30/25 9/30/25 47/59/25 46/57/25
f 9/30/26 30/48/26 48/60/26 47/59/26
f 30/48/27 25/48/27 45/58/27 48/60/27
f 5/19/28 28/20/28 50/61/28 49/62/28
f 28/20/29 29/20/29 51/63/29 50/61/29
f 29/20/30 12/19/30 52/64/30 51/63/30
f 12/19/31 5/19/31 49/62/31 52/64/31
f 1/30/1 3/5/1 54/65/1 53/66/1
f 3/5/1 13/5/1 55/67/1 54/65/1
f 13/5/1 14/30/1 56/68/1 55/67/1
f 14/30/1 1/30/1 53/66/1 56/68/1
f 5/19/32 12/19/32 58/19/32 57/19/32
f 12/19/33 18/19/33 59/36/33 58/19/33
f 18/19/34 16/19/34 60/19/34 59/36/34
f 16/19/35 5/19/35 57/19/35 60/19/35
f 7/8/3 5/19/3 62/69/3 61/70/3
f 5/19/3 16/19/3 63/71/3 62/69/3
f 16/19/3 15/8/3 64/72/3 63/71/3
f 15/8/3 7/8/3 61/70/3 64/72/3
f 9/30/36 1/30/36 66/30/36 65/30/36
f 1/30/37 14/30/37 67/30/37 66/30/37
f 14/30/38 17/30/38 68/30/38 67/30/38
f 17/30/39 9/30/39 65/30/39 68/30/39
f 37/50/40 38/49/40 70/2/40 69/1/40
f 38/49/41 39/51/41 71/3/41 70/2/41
f 39/51/42 40/52/42 72/4/42 71/3/42
f 40/52/43 37/50/43 69/1/43 72/4/43
f 41/54/44 42/53/44 74/10/44 73/9/44
f 42/53/45 43/55/45 75/11/45 74/10/45
f 43/55/46 44/56/46 76/12/46 75/11/46
f 44/56/47 41/54/47 73/9/47 76/12/47
f 45/58/48 46/57/48 78/14/48 77/13/48
f 46/57/49 47/59/49 79/15/49 78/14/49
f 47/59/50 48/60/50 80/16/50 79/15/50
f 48/60/51 45/58/51 77/13/51 80/16/51
f 49/62/52 50/61/52 82/26/52 81/25/52
f 50/61/53 51/63/53 83/27/53 82/26/53
f 51/63/54 52/64/54 84/28/54 83/27/54
f 52/64/55 49/62/55 81/25/55 84/28/55
f 53/66/56 54/65/56 86/33/56 85/32/56
f 54/65/57 55/67/57 87/34/57 86/33/57
f 55/67/58 56/68/58 88/35/58 87/34/58
f 56/68/59 53/66/59 85/32/59 88/35/59
f 57/19/60 58/19/60 90/19/60 89/36/60
f 58/19/61 59/36/61 91/19/61 90/19/61
f 59/36/62 60/19/62 92/37/62 91/19/62
f 60/19/63 57/19/63 89/36/63 92/37/63
f 61/70/64 62/69/64 94/39/64 93/38/64
f 62/69/65 63/71/65 95/40/65 94/39/65
f 63/71/66 64/72/66 96/41/66 95/40/66
f 64/72/67 61/70/67 93/38/67 96/41/67
f 65/30/68 66/30/68 98/42/68 97/30/68
f 66/30/69 67/30/69 99/42/69 98/42/69
f 67/30/70 68/30/70 100/30/70 99/42/70
f 68/30/71 65/30/71 97/30/71 100/30/71
f 101/5/11 103/8/11 109/8/11 107/5/11
f 105/30/72 102/30/72 108/30/72 111/30/72
f 20/30/73 19/5/73 101/5/73 102/30/73
f 23/30/74 20/30/74 102/30/74 105/30/74
f 19/5/75 21/8/75 103/8/75 101/5/75
f 22/19/76 24/19/76 106/19/76 104/19/76
f 107/73/77 109/8/77 110/19/77 108/74/77
f 108/74/77 110/19/77 112/19/77 111/74/77
f 104/19/78 106/19/78 112/19/78 110/19/78
f 106/19/18 105/22/18 111/22/18 112/19/18
f 103/8/3 104/19/3 110/19/3 109/8/3
f 102/30/1 101/5/1 107/5/1 108/30/1
f 14/30/79 13/5/79 120/75/79 113/31/79
f 113/31/1 120/75/1 119/29/1 114/31/1
f 15/8/80 16/19/80 124/19/80 117/8/80
f 117/8/3 124/19/3 123/37/3 118/8/3
f 18/19/18 17/22/18 116/22/18 121/43/18
f 121/43/18 116/22/18 115/22/18 122/43/18
f 16/19/81 18/19/81 121/43/81 124/19/81
f 124/19/82 121/43/82 122/43/82 123/37/82
f 17/30/83 14/30/83 113/31/83 116/30/83
f 116/30/84 113/31/84 114/31/84 115/30/84
f 13/5/11 15/8/11 117/8/11 120/75/11
f 120/75/11 117/8/11 118/8/11 119/29/11
