# Blender 4.4.3
# www.blender.org
mtllib Muzzle.mtl
o Cylinder.004
v -0.000027 0.245648 1.515432
v 0.033192 0.231889 1.515432
v 0.033192 0.231889 1.569554
v 0.046951 0.198671 1.515432
v 0.046951 0.198670 1.569554
v 0.033192 0.165452 1.515432
v 0.033192 0.165452 1.569554
v -0.000027 0.151693 1.515432
v -0.033245 0.165452 1.515432
v -0.033245 0.165452 1.569554
v -0.047004 0.198671 1.515432
v -0.047004 0.198670 1.569554
v -0.033245 0.231889 1.515432
v -0.033245 0.231889 1.569554
v 0.039379 0.198670 1.585699
v -0.039432 0.198670 1.585699
v 0.027837 0.226534 1.761167
v -0.000027 0.238076 1.761167
v 0.039379 0.198670 1.761167
v 0.027837 0.170807 1.761167
v -0.000027 0.159265 1.761167
v -0.027890 0.170807 1.761167
v -0.039432 0.198670 1.761167
v -0.027890 0.226534 1.761167
v 0.021926 0.220623 1.814028
v 0.027837 0.226534 1.803210
v -0.000027 0.238076 1.803210
v -0.000027 0.229715 1.814028
v 0.031018 0.198670 1.814028
v 0.039379 0.198670 1.803210
v 0.021926 0.176718 1.814028
v 0.027837 0.170807 1.803210
v -0.000027 0.167625 1.814028
v -0.000027 0.159265 1.803210
v -0.021979 0.176718 1.814028
v -0.027890 0.170807 1.803210
v -0.031072 0.198670 1.814028
v -0.039432 0.198670 1.803210
v -0.021979 0.220623 1.814028
v -0.027890 0.226534 1.803210
v 0.024654 0.223351 1.792293
v 0.024654 0.223351 1.772678
v -0.000027 0.233575 1.772678
v -0.000027 0.233575 1.792293
v 0.034878 0.198670 1.792293
v 0.034878 0.198670 1.772678
v -0.024708 0.223351 1.772678
v -0.024708 0.223351 1.792293
v 0.024654 0.173989 1.792293
v 0.024654 0.173989 1.772678
v -0.000027 0.163766 1.792293
v -0.000027 0.163766 1.772678
v -0.024708 0.173989 1.792293
v -0.024708 0.173989 1.772678
v -0.034931 0.198670 1.792293
v -0.034931 0.198670 1.772678
v 0.011056 0.241057 1.563010
v 0.011056 0.241057 1.569554
v -0.000027 0.245648 1.541486
v 0.037885 0.220558 1.541487
v 0.042162 0.210231 1.563010
v 0.042162 0.210231 1.569554
v 0.033607 0.230886 1.563010
v 0.033607 0.230886 1.569554
v 0.033607 0.166455 1.569554
v 0.042162 0.187110 1.569554
v 0.042162 0.187110 1.563010
v 0.033607 0.166455 1.563010
v 0.037885 0.176782 1.541487
v 0.011056 0.156283 1.563010
v 0.011056 0.156283 1.569554
v -0.000027 0.151693 1.541486
v -0.011109 0.156283 1.563010
v -0.011109 0.156283 1.569554
v -0.033660 0.166455 1.563010
v -0.033660 0.166455 1.569554
v -0.042216 0.187110 1.569554
v -0.042216 0.187110 1.563010
v -0.037938 0.176782 1.541487
v 0.030252 0.168392 1.578419
v 0.026808 0.170380 1.585699
v 0.011056 0.163855 1.585699
v -0.042216 0.210231 1.563010
v -0.042216 0.210231 1.569554
v -0.033660 0.230886 1.569554
v -0.037938 0.220558 1.541487
v -0.033660 0.230886 1.563010
v -0.011109 0.241057 1.563010
v -0.011109 0.241057 1.569554
v -0.000027 0.238076 1.754565
v 0.026808 0.226961 1.585699
v 0.011056 0.233485 1.585699
v 0.011056 0.233485 1.733041
v 0.027837 0.226534 1.734758
v 0.026808 0.226961 1.733041
v -0.036105 0.206703 1.585699
v -0.030305 0.228949 1.578418
v 0.030252 0.228949 1.578418
v 0.036052 0.206703 1.585699
v -0.011109 0.163855 1.585699
v -0.026861 0.170380 1.585699
v -0.030305 0.168392 1.578419
v -0.026861 0.226961 1.585699
v -0.011109 0.233485 1.585699
v 0.036052 0.190638 1.585699
v -0.036105 0.190638 1.585699
v -0.027890 0.226534 1.734758
v -0.026861 0.226961 1.733041
v -0.011109 0.233485 1.733041
v -0.000027 0.238076 1.754565
v -0.027890 0.170807 1.734757
v -0.031827 0.180310 1.754565
v -0.036105 0.190638 1.733041
v 0.027837 0.170807 1.734757
v 0.026808 0.170380 1.733041
v 0.011056 0.163856 1.733041
v -0.000027 0.159265 1.754565
v 0.036052 0.206703 1.733041
v 0.031774 0.217030 1.754565
v -0.036105 0.206703 1.733041
v -0.031827 0.217030 1.754565
v -0.000027 0.159265 1.754565
v -0.026861 0.170380 1.733041
v -0.011109 0.163856 1.733041
v 0.036052 0.190638 1.733041
v 0.031774 0.180310 1.754565
v -0.016876 0.215520 1.515432
v 0.016823 0.215520 1.515432
v -0.000027 0.222499 1.515432
v -0.023855 0.198670 1.515432
v -0.016876 0.181821 1.515432
v 0.023802 0.198670 1.515432
v 0.016823 0.181821 1.515432
v -0.000027 0.174842 1.515432
v -0.023855 0.198670 1.814028
v -0.000027 0.174842 1.814028
v 0.023802 0.198670 1.814028
v -0.000027 0.222499 1.814028
v -0.016876 0.215520 1.814028
v -0.016876 0.181821 1.814028
v 0.016823 0.181821 1.814028
v 0.016823 0.215520 1.814028
v 0.011056 0.179432 1.563010
v 0.011056 0.217908 1.563010
v 0.011056 0.217908 1.733041
v 0.011056 0.179432 1.733041
v -0.011109 0.179432 1.733041
v -0.011109 0.217908 1.733041
v -0.011109 0.179432 1.563010
v -0.011109 0.217908 1.563010
v -0.000027 0.174842 1.754565
v -0.000027 0.222499 1.754565
v -0.000027 0.174842 1.541486
v -0.000027 0.222499 1.541486
v -0.011152 0.179450 1.733041
v 0.023481 0.199445 1.733041
v 0.023481 0.199445 1.563010
v -0.011152 0.179450 1.563010
v -0.023534 0.197895 1.563010
v 0.011099 0.217891 1.563010
v -0.023534 0.197895 1.733041
v 0.011099 0.217891 1.733041
v -0.019256 0.187568 1.754565
v 0.016823 0.215520 1.742587
v 0.019203 0.209773 1.754565
v -0.019256 0.187568 1.541487
v 0.016823 0.215520 1.553464
v 0.019203 0.209773 1.541487
v -0.016876 0.181821 1.553464
v -0.016876 0.181821 1.742587
v -0.023534 0.199445 1.563010
v 0.011099 0.179450 1.563010
v 0.011099 0.179450 1.733041
v -0.023534 0.199445 1.733041
v -0.011152 0.217891 1.563010
v 0.023481 0.197895 1.563010
v -0.011152 0.217891 1.733041
v 0.023481 0.197895 1.733041
v -0.019256 0.209773 1.754565
v 0.019203 0.187568 1.754565
v -0.016876 0.215520 1.742587
v -0.019256 0.209773 1.541487
v 0.019203 0.187568 1.541487
v -0.016876 0.215520 1.553464
v 0.016823 0.181821 1.553464
v 0.016823 0.181821 1.742587
vn 0.3827 0.9239 -0.0000
vn 0.9239 0.3827 -0.0000
vn 0.9239 -0.3827 -0.0000
vn 0.3827 -0.9239 -0.0000
vn -0.3827 -0.9239 -0.0000
vn -0.9239 -0.3827 -0.0000
vn 0.3511 -0.8477 0.3976
vn -0.9239 0.3827 -0.0000
vn -0.3827 0.9239 -0.0000
vn -0.0000 -0.0000 -1.0000
vn -0.8477 0.3511 0.3976
vn 0.8477 0.3511 0.3976
vn -0.3511 -0.8477 0.3976
vn -0.3511 0.8477 0.3976
vn 0.3511 0.8477 0.3976
vn 0.8477 -0.3511 0.3976
vn -0.8477 -0.3511 0.3976
vn -0.0000 -0.0000 1.0000
vn 0.8634 0.3576 -0.3560
vn -0.8634 -0.3576 -0.3560
vn 0.3576 -0.8634 -0.3560
vn 0.8634 -0.3576 -0.3560
vn -0.8634 0.3576 -0.3560
vn -0.3576 -0.8634 -0.3560
vn -0.3576 0.8634 -0.3560
vn 0.3115 0.7519 0.5811
vn 0.7519 0.3115 0.5811
vn 0.7519 -0.3114 0.5811
vn 0.3115 -0.7519 0.5811
vn -0.3115 -0.7519 0.5811
vn -0.7519 -0.3114 0.5811
vn -0.7519 0.3115 0.5811
vn -0.3114 0.7519 0.5811
vn 0.3576 0.8634 -0.3560
vn 0.3599 0.8689 0.3398
vn -0.3599 0.8689 0.3398
vn -0.3599 -0.8689 0.3398
vn -0.8689 0.3599 0.3398
vn 0.8689 -0.3599 0.3398
vn 0.3599 -0.8689 0.3398
vn -0.8689 -0.3599 0.3398
vn 0.8689 0.3599 0.3398
vn -1.0000 -0.0000 -0.0000
vn 1.0000 -0.0000 -0.0000
vn 0.8891 -0.0000 -0.4578
vn 0.8891 -0.0000 0.4578
vn -0.8891 -0.0000 0.4578
vn -0.8891 -0.0000 -0.4578
vn -0.5000 0.8660 -0.0000
vn 0.5000 -0.8660 -0.0000
vn 0.4445 -0.7700 -0.4578
vn 0.4445 -0.7699 0.4578
vn -0.4445 0.7699 0.4578
vn -0.4445 0.7700 -0.4578
vn 0.5000 0.8660 -0.0000
vn -0.5000 -0.8660 -0.0000
vn -0.4445 -0.7700 -0.4578
vn -0.4445 -0.7699 0.4578
vn 0.4445 0.7699 0.4578
vn 0.4445 0.7700 -0.4578
vt 0.958296 1.000000
vt 0.875000 1.000000
vt 0.875000 0.500000
vt 1.000000 0.500000
vt 1.000000 0.740699
vt 0.958296 0.939538
vt 0.793503 0.939539
vt 0.793503 1.000000
vt 0.750000 1.000000
vt 0.750000 0.500000
vt 0.871227 1.000000
vt 0.871227 0.939539
vt 0.832365 0.740700
vt 0.628773 0.939539
vt 0.628773 1.000000
vt 0.625000 1.000000
vt 0.625000 0.500000
vt 0.706497 1.000000
vt 0.706497 0.939539
vt 0.667635 0.740700
vt 0.541704 0.939538
vt 0.500000 0.740699
vt 0.500000 0.500000
vt 0.541704 1.000000
vt 0.458296 1.000000
vt 0.375000 1.000000
vt 0.375000 0.500000
vt 0.458296 0.939538
vt 0.293503 0.939539
vt 0.293503 1.000000
vt 0.250000 1.000000
vt 0.250000 0.500000
vt 0.371227 1.000000
vt 0.371227 0.939539
vt 0.332365 0.740700
vt 0.549718 1.000000
vt 0.620383 1.000000
vt 0.128773 0.939539
vt 0.128773 1.000000
vt 0.125000 1.000000
vt 0.125000 0.500000
vt 0.206497 1.000000
vt 0.206497 0.939539
vt 0.167635 0.740700
vt 0.000000 0.740699
vt 0.000000 0.500000
vt 0.041704 1.000000
vt 0.041704 0.939538
vt 0.750000 0.128263
vt 0.750000 0.010000
vt 0.580294 0.080294
vt 0.510000 0.250000
vt 0.628264 0.249999
vt 0.663919 0.163918
vt 0.580294 0.419706
vt 0.750000 0.490000
vt 0.919706 0.419706
vt 0.990000 0.250000
vt 0.919706 0.080294
vt 0.836080 0.163918
vt 0.871736 0.249999
vt 0.836080 0.336079
vt 0.750000 0.371735
vt 0.663920 0.336079
vt 0.879617 1.000000
vt 0.950282 1.000000
vt 1.000000 1.000000
vt 0.875000 1.000000
vt 0.213965 1.000000
vt 0.786035 1.000000
vt 0.379617 1.000000
vt 0.450282 1.000000
vt 0.049718 1.000000
vt 0.120383 1.000000
vt 0.713965 1.000000
vt 0.286035 1.000000
vt 0.120383 1.000000
vt 0.000000 1.000000
vt 0.049718 1.000000
vt 0.332365 1.000000
vt 0.286035 1.000000
vt 0.500000 1.000000
vt 0.832365 1.000000
vt 0.786035 1.000000
vt 0.167635 1.000000
vt 0.379617 1.000000
vt 0.713965 1.000000
vt 0.667635 1.000000
vt 0.250000 0.156238
vt 0.250000 0.127843
vt 0.336378 0.163622
vt 0.316299 0.183700
vt 0.372157 0.250000
vt 0.336378 0.336378
vt 0.250000 0.372157
vt 0.163622 0.336378
vt 0.127843 0.250000
vt 0.163622 0.163622
vt 0.183701 0.183700
vt 0.156239 0.249999
vt 0.183701 0.316299
vt 0.250000 0.343761
vt 0.316299 0.316299
vt 0.343761 0.250000
vt 0.419706 0.419706
vt 0.250000 0.490000
vt 0.490000 0.250000
vt 0.419706 0.080294
vt 0.250000 0.010000
vt 0.080294 0.080294
vt 0.010000 0.250000
vt 0.080294 0.419706
vt 0.529673 0.680035
vt 0.553700 0.680035
vt 0.553700 0.584653
vt 0.565379 0.574201
vt 0.565379 0.569965
vt 0.529673 0.569965
vt 0.470326 0.569965
vt 0.434621 0.569965
vt 0.434621 0.574201
vt 0.446300 0.584653
vt 0.446300 0.680035
vt 0.470326 0.680035
vt 0.529673 0.180035
vt 0.565379 0.180035
vt 0.565379 0.175799
vt 0.553700 0.165347
vt 0.553700 0.069965
vt 0.529673 0.069965
vt 0.470326 0.069965
vt 0.446300 0.069965
vt 0.446300 0.165347
vt 0.434621 0.175799
vt 0.434621 0.180035
vt 0.470326 0.180035
vt 0.560780 0.000000
vt 0.536754 0.000000
vt 0.463246 0.000000
vt 0.439220 0.000000
vt 0.536754 0.330627
vt 0.572460 0.330627
vt 0.427540 0.330627
vt 0.463246 0.330627
vt 0.572460 0.419373
vt 0.536754 0.419373
vt 0.427540 0.419373
vt 0.463246 0.419373
vt 0.536754 0.830627
vt 0.560780 0.830627
vt 0.439220 0.830627
vt 0.463246 0.830627
vt 0.531999 0.680035
vt 0.554388 0.680035
vt 0.554388 0.584653
vt 0.565271 0.574201
vt 0.565271 0.569965
vt 0.531999 0.569965
vt 0.430228 0.569965
vt 0.430228 0.574201
vt 0.436204 0.579940
vt 0.442337 0.584653
vt 0.442337 0.680035
vt 0.470316 0.680035
vt 0.470316 0.569965
vt 0.529684 0.180035
vt 0.569772 0.180035
vt 0.569772 0.175799
vt 0.563797 0.170060
vt 0.557663 0.165347
vt 0.557663 0.069965
vt 0.529684 0.069965
vt 0.468001 0.069965
vt 0.445612 0.069965
vt 0.445612 0.165347
vt 0.434729 0.175799
vt 0.434729 0.180035
vt 0.468001 0.180035
vt 0.558709 0.064385
vt 0.556638 0.000000
vt 0.534249 0.000000
vt 0.535502 0.038933
vt 0.443362 0.000000
vt 0.465751 0.000000
vt 0.535502 0.246827
vt 0.534249 0.330627
vt 0.567522 0.330627
vt 0.432478 0.330627
vt 0.465751 0.330627
vt 0.465751 0.419373
vt 0.432478 0.419373
vt 0.464498 0.503176
vt 0.567522 0.419373
vt 0.534249 0.419373
vt 0.534249 0.830627
vt 0.556638 0.830627
vt 0.441291 0.692044
vt 0.443362 0.830627
vt 0.465751 0.830627
vt 0.464498 0.746824
vt 0.434729 0.569965
vt 0.434729 0.574201
vt 0.445612 0.584653
vt 0.445612 0.680035
vt 0.468001 0.680035
vt 0.468001 0.569965
vt 0.557663 0.680035
vt 0.557663 0.584653
vt 0.563796 0.579940
vt 0.569772 0.574201
vt 0.569772 0.569965
vt 0.529684 0.569965
vt 0.529684 0.680035
vt 0.531999 0.180035
vt 0.565271 0.180035
vt 0.565271 0.175799
vt 0.554388 0.165347
vt 0.554388 0.069965
vt 0.531999 0.069965
vt 0.442337 0.069965
vt 0.442337 0.165347
vt 0.436203 0.170060
vt 0.430228 0.175799
vt 0.430228 0.180035
vt 0.470316 0.180035
vt 0.470316 0.069965
vt 0.465751 0.000000
vt 0.441291 0.064385
vt 0.464498 0.038933
vt 0.556638 0.000000
vt 0.534249 0.000000
vt 0.534249 0.330627
vt 0.567522 0.330627
vt 0.432478 0.330627
vt 0.465751 0.330627
vt 0.464498 0.246827
vt 0.535502 0.503176
vt 0.567522 0.419373
vt 0.534249 0.419373
vt 0.465751 0.419373
vt 0.432478 0.419373
vt 0.443362 0.830627
vt 0.465751 0.830627
vt 0.556638 0.830627
vt 0.558709 0.692044
vt 0.535502 0.746824
vt 0.534249 0.830627
vt 0.875000 0.942177
vt 0.875000 0.957849
vt 1.000000 0.957849
vt 1.000000 0.944804
vt 0.917782 0.940083
vt 0.917782 0.902783
vt 1.000000 0.898061
vt 1.000000 0.892346
vt 0.875000 0.892345
vt 0.875000 0.900688
vt 0.917465 0.902783
vt 0.917465 0.940083
vt 0.750000 0.892345
vt 0.750000 0.957849
vt 0.832366 0.944805
vt 0.755750 0.940083
vt 0.755750 0.902783
vt 0.832366 0.898061
vt 0.625000 0.957849
vt 0.625000 0.892345
vt 0.625000 0.900689
vt 0.667636 0.898061
vt 0.744251 0.902783
vt 0.744251 0.940083
vt 0.667636 0.944804
vt 0.625000 0.942177
vt 0.500000 0.892346
vt 0.500000 0.898061
vt 0.582218 0.902783
vt 0.582218 0.940083
vt 0.500000 0.944804
vt 0.500000 0.957849
vt 0.582536 0.940083
vt 0.582536 0.902783
vt 0.375000 0.957849
vt 0.417782 0.940083
vt 0.417782 0.902783
vt 0.375000 0.892345
vt 0.375000 0.900689
vt 0.417464 0.902783
vt 0.417464 0.940083
vt 0.375000 0.942177
vt 0.250000 0.892346
vt 0.250000 0.957849
vt 0.332364 0.944805
vt 0.255749 0.940083
vt 0.255749 0.902783
vt 0.332364 0.898061
vt 0.125000 0.942177
vt 0.125000 0.957849
vt 0.125000 0.892346
vt 0.125000 0.900689
vt 0.167635 0.898061
vt 0.244250 0.902783
vt 0.244250 0.940083
vt 0.167634 0.944804
vt 0.000000 0.892346
vt 0.000000 0.898061
vt 0.082218 0.902783
vt 0.082218 0.940083
vt 0.000000 0.944804
vt 0.000000 0.957849
vt 0.082535 0.940083
vt 0.082535 0.902783
s 0
f 58/1/1 3/2/1 2/3/1 1/4/1 59/5/1 57/6/1
f 61/7/2 62/8/2 5/9/2 4/10/2 2/3/2 3/2/2 64/11/2 63/12/2 60/13/2
f 68/14/3 65/15/3 7/16/3 6/17/3 4/10/3 5/9/3 66/18/3 67/19/3 69/20/3
f 70/21/4 72/22/4 8/23/4 6/17/4 7/16/4 71/24/4
f 74/25/5 10/26/5 9/27/5 8/23/5 72/22/5 73/28/5
f 78/29/6 77/30/6 12/31/6 11/32/6 9/27/6 10/26/6 76/33/6 75/34/6 79/35/6
f 82/36/7 71/24/7 7/16/7 80/16/7 81/37/7
f 87/38/8 85/39/8 14/40/8 13/41/8 11/32/8 12/31/8 84/42/8 83/43/8 86/44/8
f 59/45/9 1/46/9 13/41/9 14/40/9 89/47/9 88/48/9
f 134/49/10 8/50/10 9/51/10 11/52/10 130/53/10 131/54/10
f 11/52/10 13/55/10 1/56/10 2/57/10 4/58/10 6/59/10 8/50/10 134/49/10 133/60/10 132/61/10 128/62/10 129/63/10 127/64/10 130/53/10
f 95/65/1 91/65/1 92/66/1 93/66/1 90/67/1 18/67/1 17/2/1 94/68/1
f 84/42/11 12/31/11 16/31/11 96/69/11
f 97/40/11 14/40/11 85/39/11
f 64/11/12 3/2/12 98/2/12
f 99/70/12 15/9/12 5/9/12 62/8/12
f 101/71/13 102/26/13 10/26/13 74/25/13 100/72/13
f 104/73/14 89/47/14 14/40/14 97/40/14 103/74/14
f 91/65/15 98/2/15 3/2/15 58/1/15 92/66/15
f 66/18/16 5/9/16 15/9/16 105/75/16
f 7/16/16 65/15/16 80/16/16
f 10/26/17 102/26/17 76/33/17
f 16/31/17 12/31/17 77/30/17 106/76/17
f 104/73/9 103/74/9 108/77/9 107/40/9 24/40/9 18/78/9 90/78/9 110/78/9 109/79/9
f 112/80/6 111/26/6 22/26/6 23/31/6 16/31/6 106/76/6 113/81/6
f 116/36/4 82/36/4 81/37/4 115/37/4 114/16/4 20/16/4 21/82/4 117/82/4
f 119/83/2 94/68/2 17/2/2 19/9/2 15/9/2 99/70/2 118/84/2
f 120/69/8 96/69/8 16/31/8 23/31/8 24/40/8 107/40/8 121/85/8
f 117/82/5 21/82/5 22/26/5 111/26/5 123/86/5 101/71/5 100/72/5 124/72/5
f 124/72/18 122/82/18 117/82/18
f 125/87/3 105/75/3 15/9/3 19/9/3 20/16/3 114/16/3 126/88/3
f 45/9/19 41/2/19 26/2/19 30/9/19
f 55/31/20 53/26/20 36/26/20 38/31/20
f 51/82/21 49/16/21 32/16/21 34/82/21
f 136/89/18 33/90/18 31/91/18 141/92/18
f 31/91/18 29/93/18 25/94/18 28/95/18 39/96/18 37/97/18 35/98/18 33/90/18 136/89/18 140/99/18 135/100/18 139/101/18 138/102/18 142/103/18 137/104/18 141/92/18
f 49/16/22 45/9/22 30/9/22 32/16/22
f 48/40/23 55/31/23 38/31/23 40/40/23
f 53/26/24 51/82/24 34/82/24 36/26/24
f 44/78/25 48/40/25 40/40/25 27/78/25
f 26/105/26 27/106/26 28/95/26 25/94/26
f 30/107/27 26/105/27 25/94/27 29/93/27
f 32/108/28 30/107/28 29/93/28 31/91/28
f 34/109/29 32/108/29 31/91/29 33/90/29
f 36/110/30 34/109/30 33/90/30 35/98/30
f 38/111/31 36/110/31 35/98/31 37/97/31
f 40/112/32 38/111/32 37/97/32 39/96/32
f 27/106/33 40/112/33 39/96/33 28/95/33
f 41/2/34 44/67/34 27/67/34 26/2/34
f 17/2/35 18/67/35 43/67/35 42/2/35
f 42/2/1 43/67/1 44/67/1 41/2/1
f 18/78/36 24/40/36 47/40/36 43/78/36
f 43/78/9 47/40/9 48/40/9 44/78/9
f 22/26/37 21/82/37 52/82/37 54/26/37
f 54/26/5 52/82/5 51/82/5 53/26/5
f 24/40/38 23/31/38 56/31/38 47/40/38
f 47/40/8 56/31/8 55/31/8 48/40/8
f 20/16/39 19/9/39 46/9/39 50/16/39
f 50/16/3 46/9/3 45/9/3 49/16/3
f 21/82/40 20/16/40 50/16/40 52/82/40
f 52/82/4 50/16/4 49/16/4 51/82/4
f 23/31/41 22/26/41 54/26/41 56/31/41
f 56/31/6 54/26/6 53/26/6 55/31/6
f 19/9/42 17/2/42 42/2/42 46/9/42
f 46/9/2 42/2/2 41/2/2 45/9/2
f 145/113/43 93/114/43 92/115/43 58/116/43 57/117/43 144/118/43
f 143/119/43 70/120/43 71/121/43 82/122/43 116/123/43 146/124/43
f 150/125/44 88/126/44 89/127/44 104/128/44 109/129/44 148/130/44
f 147/131/44 124/132/44 100/133/44 74/134/44 73/135/44 149/136/44
f 148/130/45 109/129/45 110/137/45 152/138/45
f 151/139/45 122/140/45 124/132/45 147/131/45
f 154/141/46 59/142/46 88/126/46 150/125/46
f 73/135/46 72/143/46 153/144/46 149/136/46
f 144/118/47 57/117/47 59/145/47 154/146/47
f 72/147/47 70/120/47 143/119/47 153/148/47
f 152/149/48 110/150/48 93/114/48 145/113/48
f 146/124/48 116/123/48 122/151/48 151/152/48
f 156/153/49 118/154/49 99/155/49 62/156/49 61/157/49 157/158/49
f 75/159/49 76/160/49 102/161/49 101/162/49 123/163/49 155/164/49 158/165/49
f 160/166/50 63/167/50 64/168/50 98/169/50 91/170/50 95/171/50 162/172/50
f 161/173/50 113/174/50 106/175/50 77/176/50 78/177/50 159/178/50
f 162/172/51 95/171/51 94/179/51 119/180/51 165/181/51 164/182/51
f 112/183/51 113/174/51 161/173/51 163/184/51
f 167/185/52 168/186/52 60/187/52 63/167/52 160/166/52
f 159/178/52 78/177/52 79/188/52 166/189/52
f 166/190/53 79/191/53 75/159/53 158/165/53 169/192/53
f 61/157/53 60/193/53 168/194/53 157/158/53
f 165/195/54 119/196/54 118/154/54 156/153/54
f 155/164/54 123/163/54 111/197/54 112/198/54 163/199/54 170/200/54
f 83/201/55 84/202/55 96/203/55 120/204/55 174/205/55 171/206/55
f 115/207/55 81/208/55 80/209/55 65/210/55 68/211/55 172/212/55 173/213/55
f 176/214/56 67/215/56 66/216/56 105/217/56 125/218/56 178/219/56
f 108/220/56 103/221/56 97/222/56 85/223/56 87/224/56 175/225/56 177/226/56
f 179/227/57 121/183/57 107/228/57 108/220/57 177/226/57 181/229/57
f 178/219/57 125/218/57 126/230/57 180/231/57
f 183/232/58 69/233/58 67/215/58 176/214/58
f 87/224/58 86/234/58 182/235/58 184/236/58 175/225/58
f 185/237/59 172/212/59 68/211/59 69/238/59 183/239/59
f 182/240/59 86/241/59 83/201/59 171/206/59
f 120/204/60 121/242/60 179/243/60 174/205/60
f 126/244/60 114/245/60 115/207/60 173/213/60 186/246/60 180/247/60
f 164/248/5 142/249/5 138/250/5 152/251/5 145/252/5 144/253/5 154/254/5 129/255/5 128/256/5 167/257/5 160/258/5 162/259/5
f 128/256/6 132/260/6 137/261/6 142/249/6 164/248/6 165/262/6 156/263/6 157/264/6 168/265/6 167/257/6
f 141/266/8 137/261/8 132/260/8 133/267/8 185/268/8 183/269/8 176/270/8 178/271/8 180/272/8 186/273/8
f 133/267/9 134/274/9 153/275/9 143/276/9 146/277/9 151/278/9 136/279/9 141/266/9 186/273/9 173/280/9 172/281/9 185/268/9
f 140/282/1 136/279/1 151/278/1 147/283/1 149/284/1 153/275/1 134/274/1 131/285/1 169/286/1 158/287/1 155/288/1 170/289/1
f 169/286/2 131/285/2 130/290/2 135/291/2 140/282/2 170/289/2 163/292/2 161/293/2 159/294/2 166/295/2
f 181/296/3 139/297/3 135/291/3 130/290/3 127/298/3 184/299/3 182/300/3 171/301/3 174/302/3 179/303/3
f 184/299/4 127/298/4 129/304/4 154/305/4 150/306/4 148/307/4 152/308/4 138/309/4 139/297/4 181/296/4 177/310/4 175/311/4
