# Blender 4.4.3
# www.blender.org
mtllib Screws.mtl
o Cylinder.005
v -0.054060 0.104193 -1.040362
v -0.065081 0.104267 -1.029464
v -0.054060 0.085739 -1.035283
v -0.065081 0.091252 -1.025882
v -0.054060 0.072297 -1.021658
v -0.065080 0.081772 -1.016273
v -0.054060 0.067469 -1.003137
v -0.065080 0.078366 -1.003211
v -0.054060 0.072547 -0.984683
v -0.065080 0.082803 -0.987090
v -0.054060 0.086172 -0.971241
v -0.054060 0.104693 -0.966413
v -0.054060 0.123147 -0.971491
v -0.054060 0.136589 -0.985117
v -0.054060 0.141418 -1.003637
v -0.065081 0.141418 -1.003637
v -0.054060 0.136339 -1.022091
v -0.065081 0.126938 -1.016578
v -0.054060 0.122714 -1.035533
v -0.065081 0.117329 -1.026059
v -0.065081 0.104047 -0.894539
v -0.054060 0.094337 -0.889332
v -0.054060 0.107962 -0.875890
v -0.065081 0.113347 -0.885365
v -0.054060 0.126483 -0.871062
v -0.065081 0.131837 -0.880544
v -0.054060 0.144936 -0.876140
v -0.054060 0.158378 -0.889765
v -0.054060 0.163207 -0.908286
v -0.065081 0.163207 -0.908286
v -0.065081 0.163751 -0.849411
v -0.054060 0.153209 -0.844989
v -0.054060 0.184280 -0.837325
v -0.054060 0.197722 -0.850950
v -0.054060 0.202551 -0.869471
v -0.065081 0.202551 -0.869471
v -0.065081 0.163351 -0.728150
v -0.054060 0.152800 -0.720815
v -0.054060 0.170763 -0.714206
v -0.065081 0.171751 -0.725059
v -0.054060 0.189623 -0.717464
v -0.065081 0.185052 -0.727357
v -0.054060 0.204328 -0.729716
v -0.065081 0.193739 -0.734594
v -0.065080 0.085739 -1.035283
v -0.065081 0.104193 -1.040362
v -0.065080 0.072297 -1.021658
v -0.065080 0.067469 -1.003137
v -0.065080 0.072547 -0.984683
v -0.065081 0.094337 -0.889332
v -0.065081 0.136339 -1.022091
v -0.065081 0.131162 -1.001231
v -0.065081 0.122714 -1.035533
v -0.065081 0.107962 -0.875890
v -0.065081 0.126483 -0.871062
v -0.065081 0.153497 -0.903079
v -0.065081 0.192080 -0.865014
v -0.065081 0.153209 -0.844989
v -0.065081 0.170763 -0.714206
v -0.065081 0.152800 -0.720815
v -0.065081 0.189623 -0.717464
v -0.065081 0.204328 -0.729716
v -0.075447 0.086172 -0.971241
v -0.075447 0.082803 -0.987090
v -0.075447 0.104693 -0.966413
v -0.075447 0.123147 -0.971491
v -0.075447 0.128045 -0.985059
v -0.075447 0.131162 -1.001231
v -0.075447 0.144936 -0.876140
v -0.075447 0.131837 -0.880544
v -0.075447 0.150498 -0.889712
v -0.075447 0.153497 -0.903079
v -0.075447 0.113347 -0.885365
v -0.075447 0.174457 -0.844575
v -0.075447 0.163751 -0.849411
v -0.075447 0.186810 -0.850877
v -0.075447 0.192080 -0.865014
v -0.075447 0.185052 -0.727357
v -0.075447 0.171751 -0.725059
v -0.075447 0.091252 -1.025882
v -0.075447 0.104267 -1.029464
v -0.075447 0.081772 -1.016273
v -0.075447 0.078366 -1.003211
v -0.075447 0.104047 -0.894539
v -0.075447 0.126938 -1.016578
v -0.075447 0.117329 -1.026059
v -0.075447 0.163351 -0.728150
v -0.075447 0.193739 -0.734594
v 0.038902 0.205599 -0.344619
v 0.060863 0.205599 -0.344619
v 0.038902 0.198731 -0.342860
v 0.060863 0.198731 -0.342860
v 0.038902 0.193703 -0.338052
v 0.060863 0.193703 -0.338052
v 0.038902 0.191863 -0.331485
v 0.060863 0.191863 -0.331485
v 0.038902 0.193703 -0.324918
v 0.060863 0.193703 -0.324918
v 0.038902 0.198731 -0.320111
v 0.060863 0.198731 -0.320111
v 0.038902 0.205599 -0.318351
v 0.060863 0.205599 -0.318351
v 0.038902 0.212468 -0.320111
v 0.060863 0.212468 -0.320111
v 0.038902 0.217496 -0.324918
v 0.060863 0.217496 -0.324918
v 0.038902 0.219336 -0.331485
v 0.060863 0.219336 -0.331485
v 0.038902 0.217496 -0.338052
v 0.060863 0.217496 -0.338052
v 0.038902 0.212468 -0.342860
v 0.060863 0.212468 -0.342860
v -0.061343 0.078137 -1.204643
v 0.064373 0.078137 -1.204643
v -0.061343 0.071936 -1.202981
v 0.064373 0.071936 -1.202981
v -0.061343 0.067396 -1.198442
v 0.064373 0.067396 -1.198442
v -0.061343 0.065735 -1.192241
v 0.064373 0.065735 -1.192241
v -0.061343 0.067396 -1.186039
v 0.064373 0.067396 -1.186039
v -0.061343 0.071936 -1.181500
v 0.064373 0.071936 -1.181500
v -0.061343 0.078137 -1.179838
v 0.064373 0.078137 -1.179838
v -0.061343 0.084338 -1.181500
v 0.064373 0.084338 -1.181500
v -0.061343 0.088878 -1.186039
v 0.064373 0.088878 -1.186039
v -0.061343 0.090539 -1.192241
v 0.064373 0.090539 -1.192241
v -0.061343 0.088878 -1.198442
v 0.064373 0.088878 -1.198442
v -0.061343 0.084338 -1.202981
v 0.064373 0.084338 -1.202981
v -0.043919 -0.005139 -0.815394
v 0.046949 -0.005139 -0.815394
v -0.043919 -0.011340 -0.813733
v 0.046949 -0.011340 -0.813733
v -0.043919 -0.015880 -0.809193
v 0.046949 -0.015880 -0.809193
v -0.043919 -0.017542 -0.802992
v 0.046949 -0.017542 -0.802992
v -0.043919 -0.015880 -0.796790
v 0.046949 -0.015880 -0.796790
v -0.043919 -0.011340 -0.792251
v 0.046949 -0.011340 -0.792251
v -0.043919 -0.005139 -0.790589
v 0.046949 -0.005139 -0.790589
v -0.043919 0.001062 -0.792251
v 0.046949 0.001062 -0.792251
v -0.043919 0.005602 -0.796790
v 0.046949 0.005602 -0.796790
v -0.043919 0.007263 -0.802992
v 0.046949 0.007263 -0.802992
v -0.043919 0.005602 -0.809193
v 0.046949 0.005602 -0.809193
v -0.043919 0.001062 -0.813733
v 0.046949 0.001062 -0.813733
v 0.038902 0.205599 -0.407955
v 0.060863 0.205599 -0.407955
v 0.038902 0.198731 -0.406195
v 0.060863 0.198731 -0.406195
v 0.038902 0.193703 -0.401388
v 0.060863 0.193703 -0.401388
v 0.038902 0.191863 -0.394821
v 0.060863 0.191863 -0.394821
v 0.038902 0.193703 -0.388254
v 0.060863 0.193703 -0.388254
v 0.038902 0.198731 -0.383446
v 0.060863 0.198731 -0.383446
v 0.038902 0.205599 -0.381687
v 0.060863 0.205599 -0.381687
v 0.038902 0.212468 -0.383446
v 0.060863 0.212468 -0.383446
v 0.038902 0.217496 -0.388254
v 0.060863 0.217496 -0.388254
v 0.038902 0.219336 -0.394821
v 0.060863 0.219336 -0.394821
v 0.038902 0.217496 -0.401388
v 0.060863 0.217496 -0.401388
v 0.038902 0.212468 -0.406195
v 0.060863 0.212468 -0.406195
v 0.038902 0.084396 -0.789862
v 0.060863 0.084396 -0.789862
v 0.038902 0.077528 -0.788102
v 0.060863 0.077528 -0.788102
v 0.038902 0.072500 -0.783295
v 0.060863 0.072500 -0.783295
v 0.038902 0.070659 -0.776728
v 0.060863 0.070659 -0.776728
v 0.038902 0.072500 -0.770160
v 0.060863 0.072500 -0.770160
v 0.038902 0.077528 -0.765353
v 0.060863 0.077528 -0.765353
v 0.038902 0.084396 -0.763593
v 0.060863 0.084396 -0.763593
v 0.038902 0.091265 -0.765353
v 0.060863 0.091265 -0.765353
v 0.038902 0.096293 -0.770160
v 0.060863 0.096293 -0.770160
v 0.038902 0.098133 -0.776728
v 0.060863 0.098133 -0.776728
v 0.038902 0.096293 -0.783295
v 0.060863 0.096293 -0.783295
v 0.038902 0.091265 -0.788102
v 0.060863 0.091265 -0.788102
v 0.038902 0.167475 -1.436410
v 0.060863 0.167475 -1.436410
v 0.038902 0.160607 -1.434650
v 0.060863 0.160607 -1.434650
v 0.038902 0.155579 -1.429843
v 0.060863 0.155579 -1.429843
v 0.038902 0.153738 -1.423276
v 0.060863 0.153738 -1.423276
v 0.038902 0.155579 -1.416709
v 0.060863 0.155579 -1.416709
v 0.038902 0.160607 -1.411901
v 0.060863 0.160607 -1.411901
v 0.038902 0.167475 -1.410142
v 0.060863 0.167475 -1.410142
v 0.038902 0.174343 -1.411901
v 0.060863 0.174343 -1.411901
v 0.038902 0.179372 -1.416709
v 0.060863 0.179372 -1.416709
v 0.038902 0.181212 -1.423276
v 0.060863 0.181212 -1.423276
v 0.038902 0.179372 -1.429843
v 0.060863 0.179372 -1.429843
v 0.038902 0.174344 -1.434650
v 0.060863 0.174344 -1.434650
v 0.038902 0.167475 -1.220430
v 0.060863 0.167475 -1.220430
v 0.038902 0.160607 -1.218670
v 0.060863 0.160607 -1.218670
v 0.038902 0.155579 -1.213863
v 0.060863 0.155579 -1.213863
v 0.038902 0.153738 -1.207296
v 0.060863 0.153738 -1.207296
v 0.038902 0.155579 -1.200729
v 0.060863 0.155579 -1.200729
v 0.038902 0.160607 -1.195921
v 0.060863 0.160607 -1.195921
v 0.038902 0.167475 -1.194162
v 0.060863 0.167475 -1.194162
v 0.038902 0.174344 -1.195921
v 0.060863 0.174344 -1.195921
v 0.038902 0.179372 -1.200729
v 0.060863 0.179372 -1.200729
v 0.038902 0.181212 -1.207296
v 0.060863 0.181212 -1.207296
v 0.038902 0.179372 -1.213863
v 0.060863 0.179372 -1.213863
v 0.038902 0.174344 -1.218670
v 0.060863 0.174344 -1.218670
v 0.038902 0.167475 -0.747015
v 0.060863 0.167475 -0.747015
v 0.038902 0.160607 -0.745256
v 0.060863 0.160607 -0.745256
v 0.038902 0.155579 -0.740448
v 0.060863 0.155579 -0.740448
v 0.038902 0.153738 -0.733881
v 0.060863 0.153738 -0.733881
v 0.038902 0.155579 -0.727314
v 0.060863 0.155579 -0.727314
v 0.038902 0.160607 -0.722507
v 0.060863 0.160607 -0.722507
v 0.038902 0.167475 -0.720747
v 0.060863 0.167475 -0.720747
v 0.038902 0.174344 -0.722507
v 0.060863 0.174344 -0.722507
v 0.038902 0.179372 -0.727314
v 0.060863 0.179372 -0.727314
v 0.038902 0.181212 -0.733881
v 0.060863 0.181212 -0.733881
v 0.038902 0.179372 -0.740448
v 0.060863 0.179372 -0.740448
v 0.038902 0.174344 -0.745256
v 0.060863 0.174344 -0.745256
vn -0.0000 -0.2653 -0.9642
vn -0.0000 -0.7119 -0.7023
vn -0.0000 -0.9677 -0.2523
vn -0.0000 -0.9642 0.2653
vn -0.0000 0.1702 0.9854
vn 1.0000 -0.0000 -0.0000
vn -0.0000 -0.9749 0.2228
vn -0.0000 0.9642 -0.2653
vn -0.0000 0.7023 -0.7119
vn -0.0000 0.2523 -0.9677
vn -0.0000 -0.7023 0.7119
vn -0.0000 -0.2523 0.9677
vn -0.0000 -0.3453 0.9385
vn -0.0000 -0.6983 0.7158
vn -0.0000 0.9749 -0.2228
vn -0.0000 -0.9747 0.2237
vn -0.0000 0.9751 -0.2219
vn -0.0000 -1.0000 -0.0033
vn -0.0000 0.6401 0.7683
vn -0.0000 0.9999 -0.0127
vn -1.0000 -0.0000 -0.0000
vn -0.0000 -0.2482 -0.9687
vn -0.0000 -0.6911 -0.7228
vn -0.0000 -0.9629 -0.2698
vn -0.0000 -0.9629 0.2698
vn -0.0000 -0.6911 0.7228
vn -0.0000 -0.2482 0.9687
vn -0.0000 0.2482 0.9687
vn -0.0000 0.6911 0.7228
vn -0.0000 0.9629 0.2698
vn -0.0000 0.9629 -0.2698
vn -0.0000 0.6911 -0.7228
vn -0.0000 0.2482 -0.9687
vn -0.0000 -0.2588 -0.9659
vn -0.0000 -0.7071 -0.7071
vn -0.0000 -0.9659 -0.2588
vn -0.0000 -0.9659 0.2588
vn -0.0000 -0.7071 0.7071
vn -0.0000 -0.2588 0.9659
vn -0.0000 0.2588 0.9659
vn -0.0000 0.7071 0.7071
vn -0.0000 0.9659 0.2588
vn -0.0000 0.9659 -0.2588
vn -0.0000 0.7071 -0.7071
vn -0.0000 0.2588 -0.9659
vt 1.000000 0.500000
vt 1.000000 1.000000
vt 0.916667 1.000000
vt 0.916667 0.500000
vt 0.833333 1.000000
vt 0.833333 0.500000
vt 0.750000 1.000000
vt 0.750000 0.500000
vt 0.666667 1.000000
vt 0.666667 0.500000
vt 0.054674 0.083273
vt 0.131000 0.041154
vt 0.630000 0.042154
vt 0.750000 0.010000
vt 0.542154 0.130000
vt 0.510000 0.250000
vt 0.250000 0.500000
vt 0.250000 1.000000
vt 0.166667 1.000000
vt 0.166667 0.500000
vt 0.165368 0.396587
vt 0.103413 0.334632
vt 0.083333 1.000000
vt 0.083333 0.500000
vt 0.000000 1.000000
vt 0.000000 0.500000
vt 0.750000 0.490000
vt 0.870000 0.457846
vt 0.957846 0.370000
vt 0.990000 0.250000
vt 0.957846 0.130000
vt 0.870000 0.042154
vt 0.542154 0.370000
vt 0.630000 0.457846
vt 0.583333 1.000000
vt 0.583333 0.500000
vt 0.500000 1.000000
vt 0.500000 0.500000
vt 0.184620 0.027519
vt 0.050878 0.097440
vt 0.210687 0.020534
vt 0.173652 0.030457
vt 0.372259 0.044413
vt 0.372259 0.044413
vt 0.030420 0.173792
vt 0.075290 0.006335
vt 0.419264 0.250000
vt 0.416667 1.000000
vt 0.416667 0.500000
vt 0.333333 1.000000
vt 0.333333 0.500000
vt 0.396587 0.334632
vt 0.320649 0.028930
vt 0.250000 0.419264
vt 0.334632 0.396587
vt 0.370000 0.457846
vt 0.250000 0.490000
vt 0.457846 0.370000
vt 0.490000 0.250000
vt 0.457846 0.130000
vt 0.042154 0.370000
vt 0.010000 0.250000
vt 0.130000 0.457846
vt 0.370000 0.042154
vt 0.250000 0.010000
vt 0.130000 0.042154
vt 0.042154 0.130000
vt 0.034784 0.157505
vt 0.205556 0.021909
s 0
f 1/1/1 3/4/1 45/3/1 46/2/1
f 3/4/2 5/6/2 47/5/2 45/3/2
f 5/6/3 7/8/3 48/7/3 47/5/3
f 7/8/4 9/10/4 49/9/4 48/7/4
f 42/11/5 78/11/5 79/12/5 40/12/5
f 13/13/6 27/13/6 25/14/6 12/14/6
f 9/10/7 22/10/7 50/9/7 49/9/7
f 14/15/6 28/15/6 27/13/6 13/13/6
f 15/16/6 29/16/6 28/15/6 14/15/6
f 15/17/8 17/20/8 51/19/8 16/18/8
f 20/21/9 86/21/9 85/22/9 18/22/9
f 17/20/9 19/24/9 53/23/9 51/19/9
f 19/24/10 1/26/10 46/25/10 53/23/10
f 1/27/6 19/34/6 17/33/6 15/16/6 14/15/6 13/13/6 12/14/6 11/32/6 9/31/6 7/30/6 5/29/6 3/28/6
f 22/10/11 23/36/11 54/35/11 50/9/11
f 23/36/12 25/38/12 55/37/12 54/35/12
f 28/15/6 34/15/6 33/13/6 27/13/6
f 40/12/13 79/12/13 87/39/13 37/39/13
f 27/13/6 33/13/6 32/14/6 25/14/6
f 12/14/6 25/14/6 23/32/6 11/32/6
f 18/22/8 85/22/8 68/40/8 52/40/8
f 11/32/6 23/32/6 22/31/6 9/31/6
f 31/41/14 75/41/14 70/42/14 26/42/14
f 16/18/15 30/18/15 29/17/15 15/17/15
f 21/43/16 84/43/16 64/44/16 10/44/16
f 56/45/9 72/45/9 77/46/9 57/46/9
f 33/13/6 39/13/6 38/14/6 32/14/6
f 10/44/4 64/44/4 83/47/4 8/47/4
f 35/16/6 43/16/6 41/15/6 34/15/6
f 52/40/17 68/40/17 72/45/17 56/45/17
f 25/38/14 32/38/14 58/37/14 55/37/14
f 30/18/9 36/18/9 35/17/9 29/17/9
f 29/16/6 35/16/6 34/15/6 28/15/6
f 37/39/18 87/39/18 75/41/18 31/41/18
f 38/38/13 39/49/13 59/48/13 60/37/13
f 39/49/5 41/51/5 61/50/5 59/48/5
f 41/51/19 43/17/19 62/18/19 61/50/19
f 8/47/3 83/47/3 82/52/3 6/52/3
f 34/15/6 41/15/6 39/13/6 33/13/6
f 26/42/12 70/42/12 73/53/12 24/53/12
f 32/38/18 38/38/18 60/37/18 58/37/18
f 36/18/20 62/18/20 43/17/20 35/17/20
f 2/54/21 46/57/21 45/56/21 4/55/21
f 4/55/21 45/56/21 47/58/21 6/52/21
f 6/52/21 47/58/21 48/59/21 8/47/21
f 8/47/21 48/59/21 49/60/21 10/44/21
f 10/44/21 49/60/21 50/60/21 21/43/21
f 52/40/21 16/62/21 51/61/21 18/22/21
f 18/22/21 51/61/21 53/63/21 20/21/21
f 20/21/21 53/63/21 46/57/21 2/54/21
f 21/43/21 50/60/21 54/64/21 24/53/21
f 24/53/21 54/64/21 55/65/21 26/42/21
f 56/45/21 30/62/21 16/62/21 52/40/21
f 57/46/21 36/62/21 30/62/21 56/45/21
f 26/42/21 55/65/21 58/65/21 31/41/21
f 37/39/21 60/65/21 59/66/21 40/12/21
f 40/12/21 59/66/21 61/67/21 42/11/21
f 42/11/21 61/67/21 62/62/21 44/68/21
f 44/68/21 62/62/21 36/62/21 57/46/21
f 31/41/21 58/65/21 60/65/21 37/39/21
f 67/67/21 71/67/21 72/45/21 68/40/21
f 80/55/21 82/52/21 83/47/21 64/44/21 63/64/21 65/65/21 66/66/21 67/67/21 68/40/21 85/22/21 86/21/21 81/54/21
f 71/67/21 76/67/21 77/46/21 72/45/21
f 66/66/21 69/66/21 71/67/21 67/67/21
f 65/65/21 70/69/21 69/66/21 66/66/21
f 63/64/21 73/53/21 70/42/21 65/65/21
f 64/44/21 84/43/21 73/53/21 63/64/21
f 74/66/21 79/12/21 78/11/21 76/67/21
f 70/42/21 75/41/21 74/66/21 69/66/21
f 69/66/21 74/66/21 76/67/21 71/67/21
f 76/67/21 78/11/21 88/68/21 77/46/21
f 75/41/21 87/39/21 79/12/21 74/66/21
f 2/54/10 81/54/10 86/21/10 20/21/10
f 4/55/1 80/55/1 81/54/1 2/54/1
f 44/68/19 88/68/19 78/11/19 42/11/19
f 24/53/11 73/53/11 84/43/11 21/43/11
f 6/52/2 82/52/2 80/55/2 4/55/2
f 57/46/20 77/46/20 88/68/20 44/68/20
f 89/1/22 90/2/22 92/3/22 91/4/22
f 91/4/23 92/3/23 94/5/23 93/6/23
f 93/6/24 94/5/24 96/7/24 95/8/24
f 95/8/25 96/7/25 98/9/25 97/10/25
f 97/10/26 98/9/26 100/35/26 99/36/26
f 99/36/27 100/35/27 102/37/27 101/38/27
f 101/38/28 102/37/28 104/48/28 103/49/28
f 103/49/29 104/48/29 106/50/29 105/51/29
f 105/51/30 106/50/30 108/18/30 107/17/30
f 107/17/31 108/18/31 110/19/31 109/20/31
f 92/56/6 90/57/6 112/63/6 110/61/6 108/62/6 106/67/6 104/66/6 102/65/6 100/64/6 98/60/6 96/59/6 94/58/6
f 109/20/32 110/19/32 112/23/32 111/24/32
f 111/24/33 112/23/33 90/25/33 89/26/33
f 89/27/21 91/28/21 93/29/21 95/30/21 97/31/21 99/32/21 101/14/21 103/13/21 105/15/21 107/16/21 109/33/21 111/34/21
f 113/1/34 114/2/34 116/3/34 115/4/34
f 115/4/35 116/3/35 118/5/35 117/6/35
f 117/6/36 118/5/36 120/7/36 119/8/36
f 119/8/37 120/7/37 122/9/37 121/10/37
f 121/10/38 122/9/38 124/35/38 123/36/38
f 123/36/39 124/35/39 126/37/39 125/38/39
f 125/38/40 126/37/40 128/48/40 127/49/40
f 127/49/41 128/48/41 130/50/41 129/51/41
f 129/51/42 130/50/42 132/18/42 131/17/42
f 131/17/43 132/18/43 134/19/43 133/20/43
f 116/56/6 114/57/6 136/63/6 134/61/6 132/62/6 130/67/6 128/66/6 126/65/6 124/64/6 122/60/6 120/59/6 118/58/6
f 133/20/44 134/19/44 136/23/44 135/24/44
f 135/24/45 136/23/45 114/25/45 113/26/45
f 113/27/21 115/28/21 117/29/21 119/30/21 121/31/21 123/32/21 125/14/21 127/13/21 129/15/21 131/16/21 133/33/21 135/34/21
f 137/1/34 138/2/34 140/3/34 139/4/34
f 139/4/35 140/3/35 142/5/35 141/6/35
f 141/6/36 142/5/36 144/7/36 143/8/36
f 143/8/37 144/7/37 146/9/37 145/10/37
f 145/10/38 146/9/38 148/35/38 147/36/38
f 147/36/39 148/35/39 150/37/39 149/38/39
f 149/38/40 150/37/40 152/48/40 151/49/40
f 151/49/41 152/48/41 154/50/41 153/51/41
f 153/51/42 154/50/42 156/18/42 155/17/42
f 155/17/43 156/18/43 158/19/43 157/20/43
f 140/56/6 138/57/6 160/63/6 158/61/6 156/62/6 154/67/6 152/66/6 150/65/6 148/64/6 146/60/6 144/59/6 142/58/6
f 157/20/44 158/19/44 160/23/44 159/24/44
f 159/24/45 160/23/45 138/25/45 137/26/45
f 137/27/21 139/28/21 141/29/21 143/30/21 145/31/21 147/32/21 149/14/21 151/13/21 153/15/21 155/16/21 157/33/21 159/34/21
f 161/1/22 162/2/22 164/3/22 163/4/22
f 163/4/23 164/3/23 166/5/23 165/6/23
f 165/6/24 166/5/24 168/7/24 167/8/24
f 167/8/25 168/7/25 170/9/25 169/10/25
f 169/10/26 170/9/26 172/35/26 171/36/26
f 171/36/27 172/35/27 174/37/27 173/38/27
f 173/38/28 174/37/28 176/48/28 175/49/28
f 175/49/29 176/48/29 178/50/29 177/51/29
f 177/51/30 178/50/30 180/18/30 179/17/30
f 179/17/31 180/18/31 182/19/31 181/20/31
f 164/56/6 162/57/6 184/63/6 182/61/6 180/62/6 178/67/6 176/66/6 174/65/6 172/64/6 170/60/6 168/59/6 166/58/6
f 181/20/32 182/19/32 184/23/32 183/24/32
f 183/24/33 184/23/33 162/25/33 161/26/33
f 161/27/21 163/28/21 165/29/21 167/30/21 169/31/21 171/32/21 173/14/21 175/13/21 177/15/21 179/16/21 181/33/21 183/34/21
f 185/1/22 186/2/22 188/3/22 187/4/22
f 187/4/23 188/3/23 190/5/23 189/6/23
f 189/6/24 190/5/24 192/7/24 191/8/24
f 191/8/25 192/7/25 194/9/25 193/10/25
f 193/10/26 194/9/26 196/35/26 195/36/26
f 195/36/27 196/35/27 198/37/27 197/38/27
f 197/38/28 198/37/28 200/48/28 199/49/28
f 199/49/29 200/48/29 202/50/29 201/51/29
f 201/51/30 202/50/30 204/18/30 203/17/30
f 203/17/31 204/18/31 206/19/31 205/20/31
f 188/56/6 186/57/6 208/63/6 206/61/6 204/62/6 202/67/6 200/66/6 198/65/6 196/64/6 194/60/6 192/59/6 190/58/6
f 205/20/32 206/19/32 208/23/32 207/24/32
f 207/24/33 208/23/33 186/25/33 185/26/33
f 185/27/21 187/28/21 189/29/21 191/30/21 193/31/21 195/32/21 197/14/21 199/13/21 201/15/21 203/16/21 205/33/21 207/34/21
f 209/1/22 210/2/22 212/3/22 211/4/22
f 211/4/23 212/3/23 214/5/23 213/6/23
f 213/6/24 214/5/24 216/7/24 215/8/24
f 215/8/25 216/7/25 218/9/25 217/10/25
f 217/10/26 218/9/26 220/35/26 219/36/26
f 219/36/27 220/35/27 222/37/27 221/38/27
f 221/38/28 222/37/28 224/48/28 223/49/28
f 223/49/29 224/48/29 226/50/29 225/51/29
f 225/51/30 226/50/30 228/18/30 227/17/30
f 227/17/31 228/18/31 230/19/31 229/20/31
f 212/56/6 210/57/6 232/63/6 230/61/6 228/62/6 226/67/6 224/66/6 222/65/6 220/64/6 218/60/6 216/59/6 214/58/6
f 229/20/32 230/19/32 232/23/32 231/24/32
f 231/24/33 232/23/33 210/25/33 209/26/33
f 209/27/21 211/28/21 213/29/21 215/30/21 217/31/21 219/32/21 221/14/21 223/13/21 225/15/21 227/16/21 229/33/21 231/34/21
f 233/1/22 234/2/22 236/3/22 235/4/22
f 235/4/23 236/3/23 238/5/23 237/6/23
f 237/6/24 238/5/24 240/7/24 239/8/24
f 239/8/25 240/7/25 242/9/25 241/10/25
f 241/10/26 242/9/26 244/35/26 243/36/26
f 243/36/27 244/35/27 246/37/27 245/38/27
f 245/38/28 246/37/28 248/48/28 247/49/28
f 247/49/29 248/48/29 250/50/29 249/51/29
f 249/51/30 250/50/30 252/18/30 251/17/30
f 251/17/31 252/18/31 254/19/31 253/20/31
f 236/56/6 234/57/6 256/63/6 254/61/6 252/62/6 250/67/6 248/66/6 246/65/6 244/64/6 242/60/6 240/59/6 238/58/6
f 253/20/32 254/19/32 256/23/32 255/24/32
f 255/24/33 256/23/33 234/25/33 233/26/33
f 233/27/21 235/28/21 237/29/21 239/30/21 241/31/21 243/32/21 245/14/21 247/13/21 249/15/21 251/16/21 253/33/21 255/34/21
f 257/1/22 258/2/22 260/3/22 259/4/22
f 259/4/23 260/3/23 262/5/23 261/6/23
f 261/6/24 262/5/24 264/7/24 263/8/24
f 263/8/25 264/7/25 266/9/25 265/10/25
f 265/10/26 266/9/26 268/35/26 267/36/26
f 267/36/27 268/35/27 270/37/27 269/38/27
f 269/38/28 270/37/28 272/48/28 271/49/28
f 271/49/29 272/48/29 274/50/29 273/51/29
f 273/51/30 274/50/30 276/18/30 275/17/30
f 275/17/31 276/18/31 278/19/31 277/20/31
f 260/56/6 258/57/6 280/63/6 278/61/6 276/62/6 274/67/6 272/66/6 270/65/6 268/64/6 266/60/6 264/59/6 262/58/6
f 277/20/32 278/19/32 280/23/32 279/24/32
f 279/24/33 280/23/33 258/25/33 257/26/33
f 257/27/21 259/28/21 261/29/21 263/30/21 265/31/21 267/32/21 269/14/21 271/13/21 273/15/21 275/16/21 277/33/21 279/34/21
