# Blender 4.4.3
# www.blender.org
mtllib Slide.mtl
o Cube.010
v -0.002853 0.192809 -0.313176
v -0.002853 0.192809 -0.770352
v -0.051926 0.192809 -0.770352
v -0.041325 0.299577 -0.770352
v -0.015731 0.312744 -0.770352
v -0.002853 0.312744 -0.770352
v -0.051926 0.267789 -0.770352
v -0.002853 0.312744 -0.313176
v -0.051926 0.267789 -0.313176
v -0.041325 0.299577 -0.313176
v -0.015731 0.312744 -0.313176
v -0.051926 0.192809 -0.313176
v -0.060018 0.210714 -0.329799
v -0.060018 0.229093 -0.329799
v -0.060018 0.210714 -0.379019
v -0.060018 0.229093 -0.379019
v -0.035433 0.210714 -0.329799
v -0.035433 0.229093 -0.329799
v -0.035433 0.210714 -0.379019
v -0.035433 0.229093 -0.379019
v -0.074711 0.210714 -0.362320
v -0.074711 0.210714 -0.337468
v -0.074711 0.229093 -0.337468
v -0.074711 0.229093 -0.362320
v -0.121173 0.210714 -0.352527
v -0.121950 0.210714 -0.337192
v -0.121950 0.229093 -0.337192
v -0.121173 0.229093 -0.352527
v -0.152551 0.210714 -0.344632
v -0.148016 0.210714 -0.335722
v -0.148016 0.229093 -0.335722
v -0.152551 0.229093 -0.344632
v -0.121950 0.246440 -0.337192
v -0.121173 0.246440 -0.352527
v -0.148016 0.246440 -0.335722
v -0.152551 0.246440 -0.344632
v -0.100599 0.246440 -0.337368
v -0.103552 0.246440 -0.356235
vn -0.0000 -0.0000 -1.0000
vn 1.0000 -0.0000 -0.0000
vn -0.0000 -0.0000 1.0000
vn -0.0000 -1.0000 -0.0000
vn -0.0000 1.0000 -0.0000
vn -1.0000 -0.0000 -0.0000
vn -0.4575 0.8892 -0.0000
vn -0.9486 0.3164 -0.0000
vn -0.7508 -0.0000 -0.6606
vn -0.4627 -0.0000 0.8865
vn -0.2440 -0.0000 -0.9698
vn -0.2062 -0.0000 -0.9785
vn 0.0058 -0.0000 1.0000
vn -0.8912 -0.0000 0.4536
vn 0.0563 -0.0000 0.9984
vn -0.2061 0.0003 -0.9785
vn 0.0066 0.0020 1.0000
vn 0.5322 0.8459 -0.0359
vt 0.566475 0.500000
vt 0.375000 0.500000
vt 0.375000 0.457335
vt 0.494705 0.457335
vt 0.545454 0.466552
vt 0.566475 0.488803
vt 0.566475 0.750000
vt 0.375000 0.750000
vt 0.545454 0.783448
vt 0.494705 0.792665
vt 0.375000 0.792665
vt 0.566475 0.761197
vt 0.332335 0.500000
vt 0.332335 0.750000
vt 0.743685 0.614736
vt 0.743685 0.575135
vt 0.778147 0.575135
vt 0.778147 0.614736
vt 0.557039 0.135264
vt 0.557039 0.174865
vt 0.448858 0.174865
vt 0.452739 0.135264
vt 0.778147 0.614736
vt 0.778147 0.575135
vt 0.875000 0.575135
vt 0.875000 0.614736
vt 0.625000 0.135264
vt 0.625000 0.174865
vt 0.557039 0.174865
vt 0.557039 0.135264
vt 0.625000 0.250000
vt 0.375000 0.250000
vt 0.625000 0.500000
vt 0.625000 0.750000
vt 0.625000 1.000000
vt 0.375000 1.000000
vt 0.125000 0.500000
vt 0.125000 0.750000
vt 0.875000 0.500000
vt 0.875000 0.750000
vt 0.375000 0.000000
vt 0.625000 0.000000
vt 0.875000 0.500000
s 1
f 6/1/1 2/2/1 3/3/1 7/4/1 4/5/1 5/6/1
f 8/7/2 1/8/2 2/2/2 6/1/2
f 10/9/3 9/10/3 12/11/3 1/8/3 8/7/3 11/12/3
f 3/13/4 2/2/4 1/8/4 12/14/4
f 8/15/5 6/16/5 5/17/5 11/18/5
f 9/19/6 7/20/6 3/21/6 12/22/6
f 11/23/7 5/24/7 4/25/7 10/26/7
f 10/27/8 4/28/8 7/29/8 9/30/8
f 16/31/9 15/32/9 21/32/9 24/31/9
f 15/32/1 16/31/1 20/33/1 19/2/1
f 19/2/2 20/33/2 18/34/2 17/8/2
f 17/8/3 18/34/3 14/35/3 13/36/3
f 15/37/4 19/2/4 17/8/4 13/38/4
f 20/33/5 16/39/5 14/40/5 18/34/5
f 13/36/10 14/35/10 23/35/10 22/36/10
f 14/40/5 16/39/5 24/39/5 23/40/5
f 15/37/4 13/38/4 22/38/4 21/37/4
f 28/31/11 25/32/11 29/32/11 32/31/11
f 21/37/4 22/38/4 26/38/4 25/37/4
f 24/31/12 21/32/12 25/32/12 28/31/12
f 22/36/13 23/35/13 27/35/13 26/36/13
f 30/41/14 31/42/14 32/31/14 29/32/14
f 26/36/15 27/35/15 31/35/15 30/36/15
f 24/31/16 28/31/16 34/31/16 38/31/16
f 25/37/4 26/38/4 30/38/4 29/37/4
f 27/35/17 23/35/17 37/35/17 33/35/17
f 33/40/5 34/39/5 36/39/5 35/40/5
f 31/35/15 27/35/15 33/35/15 35/35/15
f 32/31/14 31/42/14 35/42/14 36/31/14
f 28/31/11 32/31/11 36/31/11 34/31/11
f 23/40/18 24/43/18 38/39/18 37/40/18
f 37/40/5 38/39/5 34/39/5 33/40/5
