# Blender 4.4.3
# www.blender.org
mtllib Stock31.mtl
o Cylinder.022
v -0.000000 0.307299 -2.123412
v -0.034196 0.258190 -1.881763
v 0.058906 0.282900 -2.123412
v -0.048360 0.223994 -1.881763
v 0.083305 0.223994 -2.123412
v -0.034196 0.189798 -1.881763
v 0.058906 0.165088 -2.123412
v -0.000000 0.175634 -1.881763
v -0.000000 0.140689 -2.123412
v 0.034196 0.189798 -1.881763
v -0.058906 0.165088 -2.123412
v 0.048360 0.223994 -1.881763
v -0.083305 0.223994 -2.123412
v -0.000000 0.272354 -1.881763
v -0.058906 0.282900 -2.123412
v 0.034196 0.258190 -1.881763
v -0.000000 0.307299 -2.040107
v 0.058906 0.282900 -2.040107
v 0.083305 0.223994 -2.040107
v 0.058906 0.165088 -2.040107
v -0.000000 0.140689 -2.040107
v -0.058906 0.165088 -2.040107
v -0.083305 0.223994 -2.040107
v -0.058906 0.282900 -2.040107
v 0.034196 0.258190 -1.927977
v -0.000000 0.272354 -1.927977
v -0.000000 0.307299 -1.996217
v 0.048360 0.223994 -1.927977
v 0.034196 0.189798 -1.927977
v -0.000000 0.175634 -1.927977
v -0.034196 0.189798 -1.927977
v -0.048360 0.223994 -1.927977
v -0.034196 0.258190 -1.927977
v 0.058906 0.282900 -1.996217
v 0.083305 0.223994 -1.996217
v 0.058906 0.165088 -1.996217
v -0.000000 0.140689 -1.996217
v -0.058906 0.165088 -1.996217
v -0.083305 0.223994 -1.996217
v -0.058906 0.282900 -1.996217
v 0.072378 -0.019538 -2.040107
v 0.072378 -0.019538 -2.123412
v 0.051179 -0.027312 -2.123412
v 0.051179 -0.027312 -2.040107
v 0.000000 -0.030532 -2.123412
v 0.000000 -0.030532 -2.040107
v -0.051179 -0.027312 -2.123412
v -0.051179 -0.027312 -2.040107
v -0.072378 -0.019538 -2.123412
v -0.072378 -0.019538 -2.040107
v 0.046617 0.229409 -1.483971
v 0.021276 0.268936 -1.483971
v 0.039194 0.257358 -1.483971
v 0.021276 0.268936 -1.390747
v 0.046617 0.229409 -1.390747
v 0.039194 0.257358 -1.390747
v 0.046617 0.146855 -1.390747
v 0.021276 0.107328 -1.390747
v 0.039194 0.118906 -1.390747
v -0.021267 0.268936 -1.483971
v -0.046608 0.229409 -1.483971
v -0.039186 0.257358 -1.483971
v -0.046608 0.229409 -1.390747
v -0.021267 0.268936 -1.390747
v -0.039186 0.257358 -1.390747
v -0.021267 0.107328 -1.390747
v -0.046608 0.146855 -1.390747
v -0.039186 0.118906 -1.390747
v 0.016816 0.104948 -1.483971
v 0.021276 0.078781 -1.461996
v 0.046617 0.137426 -1.483971
v 0.046617 0.118320 -1.461967
v 0.022035 0.108320 -1.483971
v 0.039194 0.090365 -1.461979
v -0.046608 0.118320 -1.461967
v -0.046608 0.137426 -1.483971
v -0.016807 0.104948 -1.483971
v -0.021267 0.078781 -1.461996
v -0.022026 0.108320 -1.483971
v -0.039186 0.090365 -1.461979
v 0.000000 0.055386 -2.123413
v 0.000000 0.020362 -1.976291
v 0.054029 0.033006 -2.123413
v 0.029264 0.008241 -1.976291
v 0.076409 -0.021023 -2.123413
v 0.041386 -0.021023 -1.976291
v 0.054029 -0.075052 -2.123412
v 0.029264 -0.050287 -1.976291
v 0.000000 -0.097432 -2.123412
v 0.000000 -0.062408 -1.976291
v -0.054029 -0.075052 -2.123412
v -0.029264 -0.050287 -1.976291
v -0.076408 -0.021023 -2.123413
v -0.041385 -0.021023 -1.976291
v -0.054029 0.033006 -2.123413
v -0.029264 0.008241 -1.976291
v 0.000000 0.055386 -2.040107
v 0.054029 0.033006 -2.040107
v 0.076409 -0.021023 -2.040107
v 0.054029 -0.075052 -2.040107
v 0.000000 -0.097432 -2.040107
v -0.054029 -0.075052 -2.040107
v -0.076408 -0.021023 -2.040107
v -0.054029 0.033006 -2.040107
vn -0.0000 -0.0000 1.0000
vn -0.9239 0.3827 -0.0000
vn -0.3827 -0.9239 -0.0000
vn 0.9239 -0.3827 -0.0000
vn 0.3827 0.9239 -0.0000
vn -0.3827 0.9239 -0.0000
vn -0.9239 -0.3827 -0.0000
vn 0.3827 -0.9239 -0.0000
vn 0.9239 0.3827 -0.0000
vn -0.0000 -0.0000 -1.0000
vn 0.9990 -0.0448 -0.0000
vn 0.3459 0.8351 0.4277
vn 0.8351 0.3459 0.4277
vn 0.8351 -0.3459 0.4277
vn 0.3459 -0.8351 0.4277
vn -0.3459 -0.8351 0.4277
vn -0.8351 -0.3459 0.4277
vn -0.8351 0.3459 0.4277
vn -0.3459 0.8351 0.4277
vn -0.3443 -0.9389 -0.0000
vn -0.0628 -0.9980 -0.0000
vn 0.0628 -0.9980 -0.0000
vn 0.3443 -0.9389 -0.0000
vn -0.9990 -0.0448 -0.0000
vn 0.9614 -0.2553 0.1023
vn -0.5143 -0.7961 0.3190
vn -0.9614 -0.2553 0.1023
vn 0.5427 0.8399 -0.0000
vn 0.9665 0.2567 -0.0000
vn -0.0000 -0.9283 0.3719
vn 1.0000 -0.0000 -0.0000
vn -0.5427 0.8399 -0.0000
vn -0.9665 0.2567 -0.0000
vn -1.0000 -0.0000 -0.0000
vn -0.0000 1.0000 -0.0000
vn 0.3638 -0.5620 -0.7428
vn 0.6971 -0.3908 -0.6011
vn -0.3638 -0.5620 -0.7428
vn -0.6971 -0.3908 -0.6011
vn -0.0000 -0.6431 -0.7658
vn 0.5143 -0.7961 0.3190
vn 0.3413 0.8240 0.4522
vn 0.8240 0.3413 0.4522
vn 0.8240 -0.3413 0.4522
vn 0.3413 -0.8240 0.4522
vn -0.3413 -0.8240 0.4522
vn -0.8240 -0.3413 0.4522
vn -0.8240 0.3413 0.4522
vn -0.3413 0.8240 0.4522
vt 0.419706 0.419706
vt 0.250000 0.490000
vt 0.080294 0.419706
vt 0.010000 0.250000
vt 0.080294 0.080294
vt 0.250000 0.010000
vt 0.419706 0.080294
vt 0.490000 0.250000
vt 0.125000 0.750000
vt 0.250000 0.750000
vt 0.375000 0.750000
vt 0.500000 0.750000
vt 0.625000 0.750000
vt 0.750000 0.750000
vt 0.875000 0.750000
vt 1.000000 0.750000
vt 0.000000 0.750000
vt 0.750000 0.490000
vt 0.919706 0.419706
vt 0.990000 0.250000
vt 0.919706 0.080294
vt 0.750000 0.010000
vt 0.580294 0.080294
vt 0.510000 0.250000
vt 0.580294 0.419706
vt 0.125000 0.500000
vt 0.000000 0.500000
vt 0.250000 0.500000
vt 0.750000 0.500000
vt 0.875000 0.500000
vt 1.000000 0.500000
vt 1.000000 1.000000
vt 0.875000 1.000000
vt 0.750000 1.000000
vt 0.625000 1.000000
vt 0.500000 1.000000
vt 0.375000 1.000000
vt 0.250000 1.000000
vt 0.125000 1.000000
vt 0.000000 1.000000
vt 0.375000 0.500000
vt 0.500000 0.500000
vt 0.625000 0.500000
vt 0.625000 0.058976
vt 0.557044 0.059009
vt 0.557044 0.250000
vt 0.625000 0.250000
vt 0.692956 0.500000
vt 0.625000 0.691024
vt 0.692956 0.691070
vt 0.375000 0.817956
vt 0.375000 0.932044
vt 0.394904 0.980096
vt 0.442956 1.000000
vt 0.463307 1.000000
vt 0.570017 0.934079
vt 0.575527 0.920084
vt 0.575527 0.829916
vt 0.570017 0.815920
vt 0.463307 0.750000
vt 0.442956 0.750000
vt 0.394904 0.769904
vt 0.557044 0.500000
vt 0.557044 0.690991
vt 0.625000 0.691024
vt 0.375000 0.317956
vt 0.375000 0.432044
vt 0.394904 0.480096
vt 0.442956 0.500000
vt 0.605096 0.480096
vt 0.625000 0.432044
vt 0.625000 0.317956
vt 0.605096 0.269904
vt 0.442956 0.250000
vt 0.394904 0.269904
vt 0.192956 0.500000
vt 0.192956 0.750000
vt 0.375000 0.250000
vt 0.442956 0.000000
vt 0.375000 0.000000
vt 0.692956 0.691070
vt 0.807044 0.691070
vt 0.807044 0.500000
vt 0.557044 0.059009
vt 0.463307 0.000000
vt 0.307044 0.750000
vt 0.307044 0.500000
vt 0.605096 0.980096
vt 0.622783 0.937396
vt 0.557044 1.000000
vt 0.592166 0.985452
vt 0.622783 0.812604
vt 0.605096 0.769904
vt 0.592166 0.764548
vt 0.557044 0.750000
vt 0.625000 0.817956
vt 0.625000 0.932044
vt 0.875000 0.691024
s 0
f 16/1/1 14/2/1 2/3/1 4/4/1 6/5/1 8/6/1 10/7/1 12/8/1
f 24/9/2 23/10/2 39/10/2 40/9/2
f 22/11/3 21/12/3 37/12/3 38/11/3
f 20/13/4 19/14/4 35/14/4 36/13/4
f 18/15/5 17/16/5 27/16/5 34/15/5
f 17/17/6 24/9/6 40/9/6 27/17/6
f 23/10/7 22/11/7 38/11/7 39/10/7
f 21/12/8 20/13/8 36/13/8 37/12/8
f 19/14/9 18/15/9 34/15/9 35/14/9
f 1/18/10 3/19/10 5/20/10 7/21/10 9/22/10 11/23/10 13/24/10 15/25/10
f 15/26/6 24/9/6 17/17/6 1/27/6
f 13/28/2 23/10/2 24/9/2 15/26/2
f 19/14/1 20/13/1 44/13/1 41/14/1
f 11/23/10 9/22/10 45/22/10 47/23/10
f 5/29/11 19/14/11 41/14/11 42/29/11
f 13/24/10 11/23/10 47/23/10 49/24/10
f 3/30/9 18/15/9 19/14/9 5/29/9
f 1/31/5 17/16/5 18/15/5 3/30/5
f 27/16/12 26/32/12 25/33/12 34/15/12
f 34/15/13 25/33/13 28/34/13 35/14/13
f 35/14/14 28/34/14 29/35/14 36/13/14
f 36/13/15 29/35/15 30/36/15 37/12/15
f 37/12/16 30/36/16 31/37/16 38/11/16
f 38/11/17 31/37/17 32/38/17 39/10/17
f 33/39/2 32/38/2 4/38/2 2/39/2
f 39/10/18 32/38/18 33/39/18 40/9/18
f 40/9/19 33/39/19 26/40/19 27/17/19
f 31/37/3 30/36/3 8/36/3 6/37/3
f 29/35/4 28/34/4 12/34/4 10/35/4
f 26/40/6 33/39/6 2/39/6 14/40/6
f 32/38/7 31/37/7 6/37/7 4/38/7
f 30/36/8 29/35/8 10/35/8 8/36/8
f 28/34/9 25/33/9 16/33/9 12/34/9
f 25/33/5 26/32/5 14/32/5 16/33/5
f 47/41/20 48/11/20 50/10/20 49/28/20
f 45/42/21 46/12/21 48/11/21 47/41/21
f 43/43/22 44/13/22 46/12/22 45/42/22
f 42/29/23 41/14/23 44/13/23 43/43/23
f 9/22/10 7/21/10 43/21/10 45/22/10
f 22/11/1 23/10/1 50/10/1 48/11/1
f 7/21/10 5/20/10 42/20/10 43/21/10
f 23/10/24 13/28/24 49/28/24 50/10/24
f 21/12/1 22/11/1 48/11/1 46/12/1
f 20/13/1 21/12/1 46/12/1 44/13/1
f 74/44/25 72/45/25 57/46/25 59/47/25
f 66/48/26 68/43/26 80/49/26 78/50/26
f 60/51/10 52/52/10 53/53/10 51/54/10 71/55/10 73/56/10 69/57/10 77/58/10 79/59/10 76/60/10 61/61/10 62/62/10
f 68/43/27 67/63/27 75/64/27 80/65/27
f 54/66/1 64/67/1 65/68/1 63/69/1 67/63/1 68/70/1 66/71/1 58/72/1 59/73/1 57/46/1 55/74/1 56/75/1
f 54/76/28 56/26/28 53/9/28 52/77/28
f 56/78/29 55/74/29 51/79/29 53/80/29
f 66/48/30 78/81/30 70/82/30 58/83/30
f 51/79/31 55/74/31 57/46/31 72/84/31 71/85/31
f 60/86/32 62/11/32 65/41/32 64/87/32
f 62/11/33 61/61/33 63/69/33 65/41/33
f 63/69/34 61/61/34 76/60/34 75/64/34 67/63/34
f 54/76/35 52/77/35 60/86/35 64/87/35
f 73/56/36 74/88/36 70/89/36 69/57/36
f 71/55/37 72/90/37 74/91/37 73/56/37
f 77/58/38 78/92/38 80/93/38 79/59/38
f 79/59/39 80/94/39 75/95/39 76/60/39
f 78/96/40 77/58/40 69/57/40 70/97/40
f 70/82/41 74/98/41 59/30/41 58/83/41
f 97/16/42 82/32/42 84/33/42 98/15/42
f 98/15/43 84/33/43 86/34/43 99/14/43
f 99/14/44 86/34/44 88/35/44 100/13/44
f 100/13/45 88/35/45 90/36/45 101/12/45
f 101/12/46 90/36/46 92/37/46 102/11/46
f 102/11/47 92/37/47 94/38/47 103/10/47
f 84/1/1 82/2/1 96/3/1 94/4/1 92/5/1 90/6/1 88/7/1 86/8/1
f 103/10/48 94/38/48 96/39/48 104/9/48
f 104/9/49 96/39/49 82/40/49 97/17/49
f 81/18/10 83/19/10 85/20/10 87/21/10 89/22/10 91/23/10 93/24/10 95/25/10
f 95/26/6 104/9/6 97/17/6 81/27/6
f 93/28/2 103/10/2 104/9/2 95/26/2
f 91/41/7 102/11/7 103/10/7 93/28/7
f 89/42/3 101/12/3 102/11/3 91/41/3
f 87/43/8 100/13/8 101/12/8 89/42/8
f 85/29/4 99/14/4 100/13/4 87/43/4
f 83/30/9 98/15/9 99/14/9 85/29/9
f 81/31/5 97/16/5 98/15/5 83/30/5
