# Blender 4.4.3
# www.blender.org
mtllib Stock33.mtl
o Cylinder.020
v 0.000000 0.263872 -2.109679
v 0.000000 0.263872 -1.477121
v 0.028198 0.252192 -2.109679
v 0.028198 0.252192 -1.477121
v 0.039878 0.223994 -2.109679
v 0.039878 0.223994 -1.477121
v 0.028198 0.195796 -2.109679
v 0.028198 0.195796 -1.477121
v 0.000000 0.184116 -2.109679
v 0.000000 0.184116 -1.477121
v -0.028198 0.195796 -2.109679
v -0.028198 0.195796 -1.477121
v -0.039878 0.223994 -2.109679
v -0.039878 0.223994 -1.477121
v -0.028198 0.252192 -2.109679
v -0.028198 0.252192 -1.477121
v 0.000000 0.018855 -2.003410
v 0.000000 0.174000 -1.473068
v 0.028198 0.007175 -2.003410
v 0.028198 0.162564 -1.470694
v 0.039878 -0.021023 -2.003410
v 0.039878 0.134955 -1.464962
v 0.028198 -0.049221 -2.003410
v 0.028198 0.107346 -1.459231
v 0.000000 -0.060901 -2.003410
v 0.000000 0.095910 -1.456856
v -0.028198 -0.049221 -2.003410
v -0.028198 0.107346 -1.459231
v -0.039878 -0.021023 -2.003410
v -0.039878 0.134955 -1.464962
v -0.028198 0.007175 -2.003410
v -0.028198 0.162564 -1.470694
v 0.000000 0.018855 -1.845787
v 0.028198 0.007175 -1.845787
v 0.039878 -0.021023 -1.845787
v 0.028198 -0.049221 -1.845787
v 0.000000 -0.060901 -1.845787
v -0.028198 -0.049221 -1.845787
v -0.039878 -0.021023 -1.845787
v -0.028198 0.007175 -1.845787
vn 0.3827 0.9239 -0.0000
vn 0.9239 0.3827 -0.0000
vn 0.9239 -0.3827 -0.0000
vn 0.3827 -0.9239 -0.0000
vn -0.3827 -0.9239 -0.0000
vn -0.9239 -0.3827 -0.0000
vn -0.0000 -0.0000 1.0000
vn -0.9239 0.3827 -0.0000
vn -0.3827 0.9239 -0.0000
vn -0.0000 -0.0000 -1.0000
vn 0.3671 0.8590 -0.3567
vn 0.9172 0.3684 -0.1517
vn 0.9174 -0.3686 0.1501
vn 0.3680 -0.8621 0.3484
vn -0.3680 -0.8621 0.3484
vn -0.9174 -0.3686 0.1501
vn -0.0000 0.2033 0.9791
vn -0.9172 0.3684 -0.1517
vn -0.3671 0.8590 -0.3567
vt 1.000000 0.500000
vt 1.000000 1.000000
vt 0.875000 1.000000
vt 0.875000 0.500000
vt 0.750000 1.000000
vt 0.750000 0.500000
vt 0.625000 1.000000
vt 0.625000 0.500000
vt 0.500000 1.000000
vt 0.500000 0.500000
vt 0.375000 1.000000
vt 0.375000 0.500000
vt 0.250000 1.000000
vt 0.250000 0.500000
vt 0.419706 0.419706
vt 0.250000 0.490000
vt 0.080294 0.419706
vt 0.010000 0.250000
vt 0.080294 0.080294
vt 0.250000 0.010000
vt 0.419706 0.080294
vt 0.490000 0.250000
vt 0.125000 1.000000
vt 0.125000 0.500000
vt 0.000000 1.000000
vt 0.000000 0.500000
vt 0.750000 0.490000
vt 0.919706 0.419706
vt 0.990000 0.250000
vt 0.919706 0.080294
vt 0.750000 0.010000
vt 0.580294 0.080294
vt 0.510000 0.250000
vt 0.580294 0.419706
vt 1.000000 0.616883
vt 0.875000 0.616883
vt 0.750000 0.616883
vt 0.625000 0.616883
vt 0.500000 0.616883
vt 0.375000 0.616883
vt 0.250000 0.616883
vt 0.125000 0.616883
vt 0.000000 0.616883
s 0
f 1/1/1 2/2/1 4/3/1 3/4/1
f 3/4/2 4/3/2 6/5/2 5/6/2
f 5/6/3 6/5/3 8/7/3 7/8/3
f 7/8/4 8/7/4 10/9/4 9/10/4
f 9/10/5 10/9/5 12/11/5 11/12/5
f 11/12/6 12/11/6 14/13/6 13/14/6
f 4/15/7 2/16/7 16/17/7 14/18/7 12/19/7 10/20/7 8/21/7 6/22/7
f 13/14/8 14/13/8 16/23/8 15/24/8
f 15/24/9 16/23/9 2/25/9 1/26/9
f 1/27/10 3/28/10 5/29/10 7/30/10 9/31/10 11/32/10 13/33/10 15/34/10
f 33/35/11 18/2/11 20/3/11 34/36/11
f 34/36/12 20/3/12 22/5/12 35/37/12
f 35/37/13 22/5/13 24/7/13 36/38/13
f 36/38/14 24/7/14 26/9/14 37/39/14
f 37/39/15 26/9/15 28/11/15 38/40/15
f 38/40/16 28/11/16 30/13/16 39/41/16
f 20/15/17 18/16/17 32/17/17 30/18/17 28/19/17 26/20/17 24/21/17 22/22/17
f 39/41/18 30/13/18 32/23/18 40/42/18
f 40/42/19 32/23/19 18/25/19 33/43/19
f 17/27/10 19/28/10 21/29/10 23/30/10 25/31/10 27/32/10 29/33/10 31/34/10
f 31/24/9 40/42/9 33/43/9 17/26/9
f 29/14/8 39/41/8 40/42/8 31/24/8
f 27/12/6 38/40/6 39/41/6 29/14/6
f 25/10/5 37/39/5 38/40/5 27/12/5
f 23/8/4 36/38/4 37/39/4 25/10/4
f 21/6/3 35/37/3 36/38/3 23/8/3
f 19/4/2 34/36/2 35/37/2 21/6/2
f 17/1/1 33/35/1 34/36/1 19/4/1
