# Blender 4.4.3
# www.blender.org
mtllib Stock22.mtl
o Cube.013
v 0.057178 0.115472 -1.214004
v -0.057178 0.115472 -1.214004
v 0.057178 0.121700 -1.256613
v -0.057178 0.121700 -1.256613
v 0.057178 0.050534 -1.214004
v -0.057178 0.050534 -1.214004
v -0.057178 0.054295 -1.256613
v 0.057178 0.054295 -1.256613
v 0.057178 0.050534 -1.192380
v -0.057178 0.050534 -1.192380
v 0.017329 0.148543 -1.440272
v 0.057178 0.140420 -1.384694
v 0.045506 0.146164 -1.423994
v 0.017329 0.033455 -1.440272
v 0.057178 0.008776 -1.384948
v 0.045506 0.026227 -1.424068
v -0.057178 0.140420 -1.384694
v -0.017329 0.148543 -1.440272
v -0.045506 0.146164 -1.423994
v -0.057178 0.008776 -1.384948
v -0.017329 0.033455 -1.440272
v -0.045506 0.026227 -1.424068
v 0.057178 0.090979 -1.384757
v 0.017329 0.106871 -1.440272
v 0.045506 0.102217 -1.424012
v -0.057178 0.090979 -1.384757
v -0.017329 0.106871 -1.440272
v -0.045506 0.102217 -1.424012
v -0.017329 -0.198882 -1.518464
v -0.057178 -0.215308 -1.460522
v -0.045506 -0.203693 -1.501493
v 0.057178 -0.215308 -1.460522
v 0.017329 -0.198882 -1.518464
v 0.045506 -0.203693 -1.501493
v 0.026013 -0.048470 -1.214004
v 0.057178 -0.003791 -1.214004
v 0.048050 -0.035384 -1.214004
v -0.057178 -0.003791 -1.214004
v -0.026013 -0.048470 -1.214004
v -0.048050 -0.035384 -1.214004
v 0.057178 -0.003791 -1.290329
v 0.026013 -0.048470 -1.256613
v 0.048050 -0.035384 -1.266488
v -0.026013 -0.048470 -1.256613
v -0.057178 -0.003791 -1.290329
v -0.048050 -0.035384 -1.266488
v 0.057178 -0.003791 -1.192380
v 0.026013 -0.048470 -1.192380
v 0.048050 -0.035384 -1.192380
v -0.026013 -0.048470 -1.192380
v -0.057178 -0.003791 -1.192380
v -0.048050 -0.035384 -1.192380
v -0.057178 -0.243403 -1.361413
v -0.026013 -0.255596 -1.318402
v -0.048050 -0.252025 -1.331000
v 0.026013 -0.255596 -1.318402
v 0.057178 -0.243403 -1.361413
v 0.048050 -0.252025 -1.331000
v -0.066800 -0.239801 -1.479323
v -0.053164 -0.226232 -1.527189
v -0.020244 -0.220612 -1.547015
v 0.053164 -0.226232 -1.527189
v 0.066800 -0.239801 -1.479323
v 0.020245 -0.220612 -1.547015
v 0.066800 -0.272625 -1.363536
v 0.056136 -0.282697 -1.328004
v 0.030391 -0.286870 -1.313287
v -0.056136 -0.282697 -1.328005
v -0.066800 -0.272625 -1.363536
v -0.030390 -0.286870 -1.313287
v -0.053580 -0.281410 -1.479801
v -0.042643 -0.270526 -1.518194
v -0.016238 -0.266018 -1.534097
v 0.042643 -0.270526 -1.518194
v 0.053580 -0.281410 -1.479801
v 0.016238 -0.266018 -1.534097
v 0.053580 -0.307737 -1.386929
v 0.045026 -0.315817 -1.358430
v 0.024376 -0.319163 -1.346625
v -0.045026 -0.315817 -1.358430
v -0.053580 -0.307737 -1.386929
v -0.024376 -0.319163 -1.346625
v 0.079519 0.223653 -2.139831
v 0.027817 0.293590 -2.139831
v 0.064376 0.273106 -2.139831
v 0.027817 0.293590 -1.794495
v 0.079519 0.223653 -1.794495
v 0.064376 0.273106 -1.794495
v -0.027817 0.293590 -2.139831
v -0.079519 0.223653 -2.139831
v -0.064376 0.273106 -2.139831
v -0.079519 0.223653 -1.794495
v -0.027817 0.293590 -1.794495
v -0.064376 0.273106 -1.794495
v 0.079519 0.168959 -2.139831
v 0.064999 -0.013306 -2.057191
v 0.064999 -0.013306 -1.877134
v 0.079519 0.168959 -1.794495
v -0.064999 -0.013306 -2.057191
v -0.079519 0.168959 -2.139831
v -0.079519 0.168959 -1.794495
v -0.064999 -0.013306 -1.877134
v 0.000000 0.277383 -2.174942
v 0.000000 0.277383 -1.560902
v 0.044048 0.259138 -2.174942
v 0.044048 0.259138 -1.560902
v 0.062293 0.215091 -2.174942
v 0.062293 0.215091 -1.560902
v 0.038004 0.171043 -1.560902
v 0.000000 0.152798 -1.560902
v -0.044047 0.156449 -1.560902
v -0.062292 0.215091 -2.174942
v -0.062292 0.200497 -1.560902
v -0.044047 0.259138 -2.174942
v -0.044047 0.259138 -1.560902
v 0.000000 0.277383 -1.615752
v 0.044048 0.259138 -1.615752
v 0.062293 0.215091 -1.615752
v -0.062292 0.215091 -1.615752
v -0.044047 0.259138 -1.615752
v 0.039101 -0.063756 -2.095904
v 0.027649 -0.094511 -2.095904
v 0.000000 -0.107250 -2.095904
v -0.027648 -0.094511 -2.095904
v -0.039100 -0.063756 -2.095904
v 0.062293 0.125256 -1.773426
v 0.039101 -0.063696 -1.872367
v 0.027649 -0.094539 -1.855248
v 0.000000 -0.107315 -1.848157
v -0.027648 -0.094539 -1.855248
v -0.039100 -0.063696 -1.872367
v -0.062292 0.125256 -1.773426
v 0.031263 0.117635 -1.560586
v 0.042727 0.174572 -1.560586
v 0.000001 0.086644 -1.560586
v -0.031262 0.117635 -1.560586
v -0.054776 0.174572 -1.560586
v 0.042615 0.174533 -1.607483
v 0.031622 0.119954 -1.601798
v 0.000001 0.088819 -1.596453
v -0.031621 0.119954 -1.601798
v -0.042614 0.174533 -1.607483
v -0.020097 -0.096022 -1.795205
v -0.031150 0.074160 -1.709021
v -0.042186 0.107409 -1.745084
v -0.032757 -0.062957 -1.834026
v 0.000001 -0.108940 -1.782121
v 0.000001 0.057211 -1.686939
v 0.020098 -0.096022 -1.795205
v 0.031151 0.074160 -1.709021
v 0.032759 -0.062957 -1.834026
v 0.042187 0.107409 -1.745084
v 0.000000 0.292831 -2.212326
v 0.049999 0.273045 -2.212326
v 0.072264 0.224686 -2.212256
v -0.034754 -0.114969 -2.127395
v -0.072263 0.224686 -2.212256
v -0.049999 0.273045 -2.212326
v 0.055433 -0.081469 -2.124377
v 0.034755 -0.114969 -2.127395
v 0.000000 -0.128764 -2.127691
v -0.055432 -0.081469 -2.124377
v 0.000000 0.283916 -2.277140
v 0.044063 0.264895 -2.277140
v 0.063684 0.218407 -2.277074
v 0.048833 0.170430 -2.276242
v -0.048833 0.170430 -2.276242
v -0.030627 -0.105695 -2.197107
v 0.000000 0.151432 -2.276952
v -0.063683 0.218407 -2.277074
v -0.044062 0.264895 -2.277140
v 0.048851 -0.073491 -2.194263
v 0.030628 -0.105695 -2.197107
v 0.000000 -0.118957 -2.197386
v -0.048850 -0.073491 -2.194263
vn 1.0000 -0.0000 -0.0000
vn -0.0000 -0.2859 0.9583
vn -0.0000 0.3190 -0.9478
vn -0.0000 -0.0000 -1.0000
vn -1.0000 -0.0000 -0.0000
vn -0.0000 -1.0000 -0.0000
vn -0.0000 0.9895 0.1446
vn -0.0000 -0.0000 1.0000
vn 0.9481 0.3059 0.0867
vn -0.0000 1.0000 -0.0000
vn 0.4992 0.0003 -0.8665
vn 0.9584 0.0004 -0.2853
vn -0.5000 0.0002 -0.8660
vn -0.9586 0.0002 -0.2848
vn 0.5000 0.0002 -0.8660
vn 0.9586 0.0002 -0.2848
vn -0.4992 0.0003 -0.8665
vn -0.9584 0.0004 -0.2853
vn -0.9644 0.0844 -0.2505
vn -0.5306 0.2704 -0.8033
vn 0.9644 0.0844 -0.2505
vn 0.5306 0.2704 -0.8033
vn 0.5106 -0.8598 -0.0000
vn 0.9607 -0.2776 -0.0000
vn -0.5106 -0.8598 -0.0000
vn -0.9607 -0.2776 -0.0000
vn 0.9610 -0.0788 0.2650
vn 0.5123 -0.2453 0.8230
vn -0.9610 -0.0788 0.2650
vn -0.5123 -0.2453 0.8230
vn -0.0000 -0.2737 -0.9618
vn 0.8982 0.2706 0.3463
vn -0.4603 0.2057 0.8636
vn -0.0000 0.7958 -0.6056
vn -0.8982 0.2706 0.3463
vn -0.4367 0.7368 -0.5162
vn -0.0000 0.1614 0.9869
vn -0.9481 0.3059 0.0867
vn 0.4603 0.2057 0.8636
vn -0.8865 0.4452 -0.1263
vn 0.4367 0.7368 -0.5162
vn 0.8865 0.4452 -0.1263
vn -0.0000 -0.9621 -0.2727
vn -0.9499 -0.3008 -0.0853
vn -0.4597 -0.2803 -0.8427
vn -0.4429 -0.6826 0.5813
vn 0.8903 -0.4317 0.1448
vn 0.8988 -0.2817 -0.3359
vn -0.0000 -0.7183 0.6958
vn 0.4429 -0.6826 0.5813
vn 0.4597 -0.2803 -0.8427
vn 0.9499 -0.3008 -0.0853
vn -0.8988 -0.2817 -0.3359
vn -0.8903 -0.4317 0.1448
vn 0.9984 -0.0570 -0.0000
vn -0.9984 -0.0570 -0.0000
vn 0.4888 0.8724 -0.0000
vn 0.9562 0.2928 -0.0000
vn -0.4888 0.8724 -0.0000
vn -0.9562 0.2928 -0.0000
vn -0.0000 -0.4129 0.9108
vn -0.0000 -0.4129 -0.9108
vn 0.3827 0.9239 -0.0000
vn 0.9239 0.3827 -0.0000
vn 0.0029 0.0064 1.0000
vn -0.9602 -0.2452 0.1337
vn 0.9216 -0.2423 0.3034
vn -0.0039 0.0055 1.0000
vn -0.9413 0.3345 0.0445
vn -0.3827 0.9239 -0.0000
vn -0.3252 -0.7708 0.5478
vn -0.9239 0.3827 -0.0000
vn -0.3488 0.8626 0.3664
vn -0.9216 -0.2423 0.3034
vn 0.9295 0.0410 0.3666
vn 0.4189 -0.9080 -0.0002
vn 0.4761 -0.8794 0.0068
vn -0.9373 -0.3485 -0.0000
vn 0.8655 -0.4428 0.2341
vn 0.9001 -0.4357 -0.0008
vn 0.9973 -0.0733 -0.0105
vn 0.3252 -0.7708 0.5478
vn -0.9973 -0.0733 -0.0105
vn -0.9295 0.0410 0.3666
vn -0.4189 -0.9080 -0.0002
vn -0.8655 -0.4428 0.2341
vn -0.0908 0.0321 0.9954
vn -0.4761 -0.8794 0.0068
vn 0.0974 0.0403 0.9944
vn 0.9373 -0.3485 -0.0000
vn 0.9803 -0.1975 -0.0024
vn 0.7006 -0.7125 -0.0383
vn -0.7006 -0.7125 -0.0383
vn -0.9447 -0.2992 -0.1343
vn 0.6574 -0.7022 0.2734
vn -0.9753 -0.2020 0.0896
vn -0.6574 -0.7022 0.2734
vn 0.9753 -0.2020 0.0896
vn -0.9731 -0.1490 0.1760
vn -0.6628 -0.3722 0.6498
vn 0.6628 -0.3722 0.6498
vn 0.9731 -0.1490 0.1760
vn -0.9054 -0.3915 -0.1642
vn 0.9602 -0.2452 0.1337
vn -0.9051 0.3995 -0.1458
vn 0.3778 0.9156 -0.1378
vn 0.3798 -0.9149 -0.1365
vn -0.9900 -0.0845 -0.1125
vn 0.8584 -0.4969 -0.1273
vn 0.3488 0.8626 0.3664
vn -0.8718 0.3824 0.3061
vn -0.7413 -0.3961 0.5419
vn 0.8718 0.3824 0.3061
vn 0.7413 -0.3961 0.5419
vn -0.0000 -0.0054 -1.0000
vn -0.1257 -0.2805 -0.9516
vn -0.6386 -0.2451 -0.7294
vn 0.1257 -0.2805 -0.9516
vn 0.6386 -0.2451 -0.7295
vn 0.9900 -0.0845 -0.1125
vn -0.3798 -0.9149 -0.1365
vn 0.9051 0.3995 -0.1458
vn -0.3778 0.9156 -0.1378
vn -0.8584 -0.4969 -0.1273
vt 0.474026 0.250000
vt 0.556868 0.250000
vt 0.693132 0.547078
vt 0.806868 0.547078
vt 0.625000 0.912883
vt 0.625000 0.837117
vt 0.375000 0.837117
vt 0.474026 0.837117
vt 0.474026 0.912883
vt 0.375000 0.912883
vt 0.375000 0.547078
vt 0.474026 0.547078
vt 0.474026 0.688662
vt 0.375000 0.688593
vt 0.806868 0.500000
vt 0.693132 0.500000
vt 0.693132 0.500000
vt 0.125000 0.500000
vt 0.375000 0.500000
vt 0.125000 0.547078
vt 0.556868 0.500000
vt 0.474026 0.500000
vt 0.474026 0.061338
vt 0.625000 0.061127
vt 0.579682 0.165670
vt 0.474026 0.202922
vt 0.349484 0.732014
vt 0.287883 0.750000
vt 0.212117 0.750000
vt 0.150516 0.732014
vt 0.125000 0.688593
vt 0.579682 0.584330
vt 0.625000 0.688873
vt 0.605045 0.269955
vt 0.625000 0.318132
vt 0.625000 0.431868
vt 0.605045 0.480045
vt 0.375000 0.250000
vt 0.375000 0.202922
vt 0.625000 0.159296
vt 0.625000 0.058770
vt 0.561506 0.165670
vt 0.561506 0.584330
vt 0.625000 0.157016
vt 0.625000 0.061127
vt 0.625000 0.592984
vt 0.625000 0.590704
vt 0.625000 0.691230
vt 0.474026 0.912883
vt 0.625000 1.000000
vt 0.483598 1.000000
vt 0.483598 0.000000
vt 0.625000 0.000000
vt 0.380654 0.750000
vt 0.478812 0.750000
vt 0.474026 1.000000
vt 0.380654 1.000000
vt 0.380654 0.000000
vt 0.474026 0.000000
vt 0.474026 0.061338
vt 0.375000 0.061407
vt 0.625000 0.750000
vt 0.625000 0.000000
vt 0.875000 0.500000
vt 0.875000 0.547078
vt 0.625000 0.202922
vt 0.625000 0.250000
vt 0.693132 0.547078
vt 0.625000 0.547078
vt 0.625000 0.500000
vt 0.631652 0.551337
vt 0.806868 0.547078
vt 0.855045 0.559856
vt 0.875000 0.590704
vt 0.875000 0.691230
vt 0.849484 0.732787
vt 0.787883 0.750000
vt 0.712117 0.750000
vt 0.650516 0.732787
vt 0.456274 0.000000
vt 0.519834 0.000000
vt 0.625000 0.105166
vt 0.625000 0.144834
vt 0.519834 0.250000
vt 0.456274 0.250000
vt 0.456274 0.500000
vt 0.519834 0.500000
vt 0.625000 0.605166
vt 0.625000 0.644834
vt 0.519834 0.750000
vt 0.456274 0.750000
vt 0.375000 0.331274
vt 0.398804 0.273805
vt 0.398804 0.476195
vt 0.375000 0.418726
vt 0.375000 0.831274
vt 0.398804 0.773804
vt 0.519834 1.000000
vt 0.456274 1.000000
vt 0.398804 0.976195
vt 0.375000 0.918726
vt 0.206274 0.500000
vt 0.206274 0.750000
vt 0.125000 0.750000
vt 0.375000 0.000000
vt 0.293726 0.750000
vt 0.293726 0.500000
vt 0.375000 0.750000
vt 0.875000 0.605166
vt 0.875000 0.644834
vt 1.000000 0.811688
vt 0.875000 0.811688
vt 0.875000 1.000000
vt 1.000000 1.000000
vt 0.750000 0.811688
vt 0.750000 1.000000
vt 0.250000 0.010000
vt 0.080294 0.080294
vt 0.250000 0.727665
vt 0.375000 0.727665
vt 0.750000 0.727665
vt 0.419706 0.080294
vt 0.419706 0.419706
vt 0.490000 0.250000
vt 0.010000 0.250000
vt 0.080294 0.419706
vt 0.250000 0.490000
vt 0.250000 0.811688
vt 0.125000 0.811688
vt 0.125000 1.000000
vt 0.250000 1.000000
vt 0.000000 0.811688
vt 0.000000 1.000000
vt 0.500000 0.500000
vt 0.000000 0.500000
vt 0.250000 0.500000
vt 0.250000 0.727665
vt 0.750000 0.500000
vt 0.500000 0.727665
vt 0.625000 0.727665
vt 1.000000 0.500000
vt 0.375000 0.727665
vt 0.500000 0.727665
vt 0.625000 0.727665
vt 0.750000 0.727665
vt 0.625000 0.811688
vt 0.500000 0.811688
vt 0.500000 1.000000
vt 0.375000 0.811688
vt 0.375000 1.000000
vt 0.750000 0.490000
vt 0.580294 0.419706
vt 0.510000 0.250000
vt 0.580294 0.080294
vt 0.750000 0.010000
vt 0.919706 0.080294
vt 0.990000 0.250000
vt 0.919706 0.419706
s 0
f 5/1/1 9/1/1 47/2/1 36/2/1
f 44/3/2 54/3/2 56/4/2 42/4/2
f 14/5/3 33/5/3 29/6/3 21/6/3
f 18/7/4 11/10/4 24/9/4 27/8/4
f 4/11/5 17/14/5 26/13/5 7/12/5
f 35/15/6 48/15/6 50/17/6 39/16/6
f 1/18/7 3/20/7 4/11/7 2/19/7
f 38/21/5 51/21/5 10/22/5 6/22/5
f 23/23/1 8/26/1 41/25/1 15/24/1
f 3/20/7 12/31/7 13/30/7 11/29/7 18/28/7 19/27/7 17/14/7 4/11/7
f 2/19/5 4/11/5 7/12/5 6/22/5
f 7/12/5 26/13/5 20/33/5 45/32/5
f 9/1/8 10/22/8 51/21/8 52/37/8 50/36/8 48/35/8 49/34/8 47/2/8
f 1/38/8 2/19/8 6/22/8 5/1/8
f 3/39/1 1/38/1 5/1/1 8/26/1
f 57/40/9 65/40/9 63/41/9 32/41/9
f 8/26/1 5/1/1 36/2/1 41/42/1
f 6/22/5 7/12/5 45/43/5 38/21/5
f 6/22/10 10/22/10 9/1/10 5/1/10
f 41/44/1 57/40/1 32/41/1 15/45/1
f 20/33/5 30/48/5 53/47/5 45/46/5
f 27/8/4 24/49/4 14/5/4 21/6/4
f 24/49/11 25/51/11 16/50/11 14/5/11
f 25/52/12 23/23/12 15/24/12 16/53/12
f 27/8/13 28/55/13 19/54/13 18/7/13
f 28/55/14 26/13/14 17/14/14 19/54/14
f 11/10/15 13/57/15 25/56/15 24/9/15
f 13/58/16 12/61/16 23/60/16 25/59/16
f 21/6/17 22/62/17 28/55/17 27/8/17
f 22/62/18 20/33/18 26/13/18 28/55/18
f 20/33/19 22/62/19 31/62/19 30/48/19
f 22/62/20 21/6/20 29/6/20 31/62/20
f 32/41/21 34/53/21 16/63/21 15/45/21
f 34/50/22 33/5/22 14/5/22 16/50/22
f 12/61/1 3/39/1 8/26/1 23/60/1
f 42/4/23 43/65/23 37/64/23 35/15/23
f 43/66/24 41/42/24 36/2/24 37/67/24
f 39/17/25 40/70/25 46/69/25 44/68/25
f 40/70/26 38/21/26 45/43/26 46/69/26
f 50/17/25 52/70/25 40/70/25 39/16/25
f 52/70/26 51/21/26 38/21/26 40/70/26
f 47/2/24 49/67/24 37/67/24 36/2/24
f 49/64/23 48/15/23 35/15/23 37/64/23
f 41/44/27 43/66/27 58/66/27 57/40/27
f 43/65/28 42/4/28 56/4/28 58/65/28
f 53/47/29 55/71/29 46/69/29 45/46/29
f 55/71/30 54/3/30 44/3/30 46/69/30
f 39/17/6 44/68/6 42/4/6 35/15/6
f 64/5/31 76/5/31 73/6/31 61/6/31
f 58/66/32 66/66/32 65/40/32 57/40/32
f 55/71/33 68/71/33 70/3/33 54/3/33
f 33/5/34 64/5/34 61/6/34 29/6/34
f 53/47/35 69/47/35 68/71/35 55/71/35
f 29/6/36 61/6/36 60/62/36 31/62/36
f 54/3/37 70/3/37 67/4/37 56/4/37
f 30/48/38 59/48/38 69/47/38 53/47/38
f 56/4/39 67/4/39 66/65/39 58/65/39
f 31/62/40 60/62/40 59/48/40 30/48/40
f 34/50/41 62/50/41 64/5/41 33/5/41
f 32/41/42 63/41/42 62/53/42 34/53/42
f 81/47/43 71/48/43 72/79/43 73/78/43 76/77/43 74/76/43 75/75/43 77/74/43 78/73/43 79/72/43 82/3/43 80/71/43
f 59/48/44 71/48/44 81/47/44 69/47/44
f 61/6/45 73/6/45 72/62/45 60/62/45
f 68/71/46 80/71/46 82/3/46 70/3/46
f 66/66/47 78/66/47 77/40/47 65/40/47
f 63/41/48 75/41/48 74/53/48 62/53/48
f 70/3/49 82/3/49 79/4/49 67/4/49
f 67/4/50 79/4/50 78/65/50 66/65/50
f 62/50/51 74/50/51 76/5/51 64/5/51
f 65/40/52 77/40/52 75/41/52 63/41/52
f 60/62/53 72/62/53 71/48/53 59/48/53
f 69/47/54 81/47/54 80/71/54 68/71/54
f 83/80/55 87/85/55 98/84/55 97/83/55 96/82/55 95/81/55
f 92/86/56 90/91/56 100/90/56 99/89/56 102/88/56 101/87/56
f 86/92/8 93/95/8 94/94/8 92/86/8 101/87/8 98/84/8 87/85/8 88/93/8
f 89/96/4 84/101/4 85/100/4 83/99/4 95/98/4 100/90/4 90/91/4 91/97/4
f 86/102/57 88/18/57 85/104/57 84/103/57
f 88/38/58 87/85/58 83/80/58 85/105/58
f 89/106/59 91/108/59 94/19/59 93/107/59
f 91/108/60 90/91/60 92/86/60 94/19/60
f 86/102/10 84/103/10 89/106/10 93/107/10
f 97/67/61 98/84/61 101/87/61 102/70/61
f 99/62/62 100/90/62 95/98/62 96/50/62
f 102/88/6 99/89/6 96/110/6 97/109/6
f 116/111/63 104/114/63 106/113/63 117/112/63
f 117/112/64 106/113/64 108/116/64 118/115/64
f 110/117/65 111/118/65 136/118/65 135/117/65
f 131/119/66 130/120/66 143/120/66 146/119/66
f 127/121/67 126/115/67 152/115/67 151/121/67
f 109/122/68 110/117/68 135/117/68 133/122/68
f 106/123/8 104/127/8 115/126/8 113/125/8 111/118/8 110/117/8 109/122/8 108/124/8
f 119/128/69 113/131/69 115/130/69 120/129/69
f 120/129/70 115/130/70 104/133/70 116/132/70
f 123/134/71 124/19/71 156/19/71 161/134/71
f 114/18/70 120/129/70 116/132/70 103/135/70
f 112/136/72 119/128/72 120/129/72 114/18/72
f 114/18/73 103/135/73 153/135/73 158/18/73
f 132/128/74 131/137/74 146/137/74 145/128/74
f 107/138/75 121/138/75 159/138/75 155/138/75
f 122/70/76 128/140/76 129/139/76 123/134/76
f 105/64/64 117/112/64 118/115/64 107/138/64
f 103/141/63 116/111/63 117/112/63 105/64/63
f 129/139/77 128/140/77 149/140/77 147/139/77
f 124/19/78 130/120/78 131/119/78 125/136/78
f 126/115/79 118/115/79 138/115/79 152/115/79
f 118/115/80 108/116/80 134/116/80 138/115/80
f 107/138/81 118/115/81 126/115/81 127/121/81 121/138/81
f 122/70/82 123/134/82 161/134/82 160/70/82
f 119/128/83 112/136/83 125/136/83 131/137/83 132/128/83
f 125/136/84 112/136/84 157/136/84 162/136/84
f 123/134/85 129/143/85 130/142/85 124/19/85
f 119/128/86 132/128/86 145/128/86 142/128/86
f 108/124/87 109/122/87 133/122/87 134/124/87
f 130/142/88 129/143/88 147/143/88 143/142/88
f 111/118/89 113/125/89 137/125/89 136/118/89
f 121/138/90 127/145/90 128/144/90 122/70/90
f 138/115/91 134/116/91 133/50/91 139/146/91
f 139/146/92 133/50/92 135/148/92 140/147/92
f 140/147/93 135/148/93 136/150/93 141/149/93
f 141/149/94 136/150/94 137/131/94 142/128/94
f 139/146/95 140/147/95 148/147/95 150/146/95
f 141/149/96 142/128/96 145/128/96 144/149/96
f 140/147/97 141/149/97 144/149/97 148/147/97
f 138/115/98 139/146/98 150/146/98 152/115/98
f 144/149/99 145/128/99 146/119/99 143/120/99
f 148/147/100 144/149/100 143/142/100 147/143/100
f 150/146/101 148/147/101 147/139/101 149/140/101
f 152/115/102 150/146/102 149/144/102 151/145/102
f 113/131/103 119/128/103 142/128/103 137/131/103
f 128/144/104 127/145/104 151/145/104 149/144/104
f 157/136/105 158/18/105 171/18/105 170/136/105
f 153/141/106 154/64/106 164/64/106 163/141/106
f 160/70/107 161/134/107 174/134/107 173/70/107
f 162/136/108 157/136/108 170/136/108 175/136/108
f 159/138/109 160/70/109 173/70/109 172/138/109
f 103/141/110 105/64/110 154/64/110 153/141/110
f 112/136/111 114/18/111 158/18/111 157/136/111
f 124/19/112 125/136/112 162/136/112 156/19/112
f 105/64/113 107/138/113 155/138/113 154/64/113
f 121/138/114 122/70/114 160/70/114 159/138/114
f 163/151/115 164/158/115 165/157/115 166/156/115 169/155/115 167/154/115 170/153/115 171/152/115
f 167/154/116 169/155/116 174/155/116 168/154/116
f 170/153/117 167/154/117 168/154/117 175/153/117
f 169/155/118 166/156/118 173/156/118 174/155/118
f 166/156/119 165/157/119 172/157/119 173/156/119
f 155/138/120 159/138/120 172/138/120 165/138/120
f 161/134/121 156/19/121 168/19/121 174/134/121
f 154/64/122 155/138/122 165/138/122 164/64/122
f 158/18/123 153/135/123 163/135/123 171/18/123
f 156/19/124 162/136/124 175/136/124 168/19/124
