# Blender 4.4.3
# www.blender.org
mtllib Mag.mtl
o Cube.003
v -0.129017 0.166813 1.389461
v -0.129017 0.338044 1.389461
v -0.129017 0.166813 -0.635365
v -0.129017 0.338044 -0.635365
v 0.129017 0.166813 1.389461
v 0.129017 0.338044 1.389461
v 0.129017 0.166813 -0.635365
v 0.129017 0.338044 -0.635365
v 0.000000 0.130785 -0.850942
v 0.000000 0.338760 -0.850942
v 0.102245 0.130785 -0.823546
v 0.102245 0.338760 -0.823546
v 0.177093 0.130785 -0.748697
v 0.177093 0.338760 -0.748697
v 0.204490 0.130785 -0.646452
v 0.204490 0.338760 -0.646452
v 0.177093 0.130785 -0.544207
v 0.177093 0.338760 -0.544207
v 0.102245 0.130785 -0.469359
v 0.102245 0.338760 -0.469359
v 0.000000 0.130785 -0.441963
v 0.000000 0.338760 -0.441963
v -0.102245 0.130785 -0.469359
v -0.102245 0.338760 -0.469359
v -0.177093 0.130785 -0.544207
v -0.177093 0.338760 -0.544207
v -0.204490 0.130785 -0.646452
v -0.204490 0.338760 -0.646452
v -0.177093 0.130785 -0.748697
v -0.177093 0.338760 -0.748697
v -0.102245 0.130785 -0.823546
v -0.102245 0.338760 -0.823546
v -0.129017 0.156383 1.420125
v -0.129017 0.348474 1.420125
v 0.129017 0.348474 1.420125
v 0.129017 0.156383 1.420125
v -0.129017 0.156383 1.444657
v -0.129017 0.348474 1.444657
v 0.129017 0.348474 1.444657
v 0.129017 0.156383 1.444657
vn -1.0000 -0.0000 -0.0000
vn -0.0000 -0.0000 -1.0000
vn 1.0000 -0.0000 -0.0000
vn -0.0000 0.9467 -0.3220
vn -0.0000 -1.0000 -0.0000
vn -0.0000 1.0000 -0.0000
vn 0.2588 -0.0000 -0.9659
vn 0.7071 -0.0000 -0.7071
vn 0.9659 -0.0000 -0.2588
vn 0.9659 -0.0000 0.2588
vn 0.7071 -0.0000 0.7071
vn 0.2588 -0.0000 0.9659
vn -0.2588 -0.0000 0.9659
vn -0.7071 -0.0000 0.7071
vn -0.9659 -0.0000 0.2588
vn -0.9659 -0.0000 -0.2588
vn -0.7071 -0.0000 -0.7071
vn -0.2588 -0.0000 -0.9659
vn -0.0000 -0.9467 -0.3220
vn -0.0000 -0.0000 1.0000
vt 0.375000 0.000000
vt 0.625000 0.000000
vt 0.625000 0.250000
vt 0.375000 0.250000
vt 0.625000 0.500000
vt 0.375000 0.500000
vt 0.625000 0.750000
vt 0.375000 0.750000
vt 0.875000 0.750000
vt 0.125000 0.500000
vt 0.125000 0.750000
vt 0.875000 0.500000
vt 1.000000 0.500000
vt 1.000000 1.000000
vt 0.916667 1.000000
vt 0.916667 0.500000
vt 0.833333 1.000000
vt 0.833333 0.500000
vt 0.750000 1.000000
vt 0.750000 0.500000
vt 0.666667 1.000000
vt 0.666667 0.500000
vt 0.583333 1.000000
vt 0.583333 0.500000
vt 0.500000 1.000000
vt 0.500000 0.500000
vt 0.416667 1.000000
vt 0.416667 0.500000
vt 0.333333 1.000000
vt 0.333333 0.500000
vt 0.250000 1.000000
vt 0.250000 0.500000
vt 0.166667 1.000000
vt 0.166667 0.500000
vt 0.370000 0.457846
vt 0.250000 0.490000
vt 0.130000 0.457846
vt 0.042154 0.370000
vt 0.010000 0.250000
vt 0.042154 0.130000
vt 0.130000 0.042154
vt 0.250000 0.010000
vt 0.370000 0.042154
vt 0.457846 0.130000
vt 0.490000 0.250000
vt 0.457846 0.370000
vt 0.083333 1.000000
vt 0.083333 0.500000
vt 0.000000 1.000000
vt 0.000000 0.500000
vt 0.750000 0.490000
vt 0.870000 0.457846
vt 0.957846 0.370000
vt 0.990000 0.250000
vt 0.957846 0.130000
vt 0.870000 0.042154
vt 0.750000 0.010000
vt 0.630000 0.042154
vt 0.542154 0.130000
vt 0.510000 0.250000
vt 0.542154 0.370000
vt 0.630000 0.457846
vt 0.625000 1.000000
vt 0.375000 1.000000
s 0
f 1/1/1 2/2/1 4/3/1 3/4/1
f 3/4/2 4/3/2 8/5/2 7/6/2
f 7/6/3 8/5/3 6/7/3 5/8/3
f 6/7/4 2/9/4 34/9/4 35/7/4
f 3/10/5 7/6/5 5/8/5 1/11/5
f 8/5/6 4/12/6 2/9/6 6/7/6
f 9/13/7 10/14/7 12/15/7 11/16/7
f 11/16/8 12/15/8 14/17/8 13/18/8
f 13/18/9 14/17/9 16/19/9 15/20/9
f 15/20/10 16/19/10 18/21/10 17/22/10
f 17/22/11 18/21/11 20/23/11 19/24/11
f 19/24/12 20/23/12 22/25/12 21/26/12
f 21/26/13 22/25/13 24/27/13 23/28/13
f 23/28/14 24/27/14 26/29/14 25/30/14
f 25/30/15 26/29/15 28/31/15 27/32/15
f 27/32/16 28/31/16 30/33/16 29/34/16
f 12/35/6 10/36/6 32/37/6 30/38/6 28/39/6 26/40/6 24/41/6 22/42/6 20/43/6 18/44/6 16/45/6 14/46/6
f 29/34/17 30/33/17 32/47/17 31/48/17
f 31/48/18 32/47/18 10/49/18 9/50/18
f 9/51/5 11/52/5 13/53/5 15/54/5 17/55/5 19/56/5 21/57/5 23/58/5 25/59/5 27/60/5 29/61/5 31/62/5
f 36/8/3 35/7/3 39/7/3 40/8/3
f 5/8/3 6/7/3 35/7/3 36/8/3
f 2/2/1 1/1/1 33/1/1 34/2/1
f 1/11/19 5/8/19 36/8/19 33/11/19
f 40/8/20 39/7/20 38/63/20 37/64/20
f 33/11/5 36/8/5 40/8/5 37/11/5
f 34/2/1 33/1/1 37/1/1 38/2/1
f 35/7/6 34/9/6 38/9/6 39/7/6
