# Blender 4.4.3
# www.blender.org
mtllib Stock3.mtl
o Cube.022
v -0.176330 -0.096214 -2.038486
v -0.135897 -0.184679 -2.038486
v -0.135897 0.342189 -2.038486
v -0.176330 0.253724 -2.038486
v -0.038284 0.378832 -2.038486
v 0.138169 0.342189 -2.038486
v 0.040556 0.378832 -2.038486
v -0.164995 -0.092832 -2.038486
v -0.164995 -0.141159 -2.038486
v 0.178602 0.253724 -2.038486
v 0.178602 -0.096214 -2.038486
v 0.138169 -0.184679 -2.038486
v -0.038284 -0.221322 -2.038486
v 0.167267 -0.092832 -2.038486
v 0.167267 -0.629875 -2.038486
v -0.164995 -0.629875 -2.038486
v 0.040556 -0.221322 -2.038486
v 0.145893 -0.677473 -2.038486
v -0.143621 -0.677473 -2.038486
v -0.090862 -0.696755 -2.038486
v 0.093134 -0.696755 -2.038486
v -0.176330 -0.096214 -2.109139
v -0.164995 -0.136415 -2.109139
v -0.164995 -0.092832 -2.109139
v -0.176330 0.253724 -2.109139
v 0.178602 0.207183 -2.109139
v 0.178602 0.253724 -2.109139
v -0.135897 0.342189 -2.109139
v 0.138169 0.342189 -2.109139
v -0.038284 0.378832 -2.109139
v 0.040556 0.378832 -2.109139
v -0.090862 -0.696755 -2.109139
v 0.093134 -0.696755 -2.109139
v 0.145893 -0.677473 -2.109139
v -0.143621 -0.677473 -2.109139
v -0.164995 -0.629875 -2.109139
v 0.167267 -0.629875 -2.109139
v -0.164995 -0.141159 -2.109139
v 0.167267 -0.092832 -2.109139
v -0.038284 -0.221322 -2.109140
v 0.040556 -0.221322 -2.109140
v -0.135897 -0.184679 -2.109140
v 0.138169 -0.184679 -2.109140
v 0.178602 -0.096214 -2.109139
v -0.139789 -0.094287 -2.258692
v -0.106589 -0.185629 -2.258692
v -0.106589 0.358374 -2.258691
v -0.139789 0.267033 -2.258692
v -0.026438 0.396209 -2.258692
v 0.118451 0.358374 -2.258691
v 0.038300 0.396209 -2.258692
v -0.130482 -0.090795 -2.258692
v -0.130482 -0.140693 -2.258692
v 0.151651 0.267033 -2.258692
v 0.151651 -0.094287 -2.258692
v 0.118451 -0.185629 -2.258692
v -0.026438 -0.223464 -2.258692
v 0.142344 -0.090795 -2.258692
v 0.142344 -0.645303 -2.258692
v -0.130482 -0.645303 -2.258692
v 0.038300 -0.223464 -2.258692
v 0.124793 -0.694450 -2.258692
v -0.112931 -0.694450 -2.258692
v -0.069610 -0.714359 -2.258692
v 0.081472 -0.714359 -2.258692
v -0.069610 -0.714359 -2.490109
v 0.081472 -0.714359 -2.490109
v 0.124793 -0.694450 -2.486428
v -0.112931 -0.694450 -2.486428
v -0.130482 -0.645303 -2.477341
v 0.142344 -0.645303 -2.477341
v -0.130482 -0.365101 -2.425532
v 0.142344 -0.365101 -2.425532
v -0.130482 -0.140693 -2.425532
v 0.142344 -0.090795 -2.425532
v -0.026438 -0.223464 -2.425532
v 0.038300 -0.223464 -2.425532
v -0.139789 -0.094287 -2.425532
v -0.106589 -0.185629 -2.425532
v 0.118451 -0.185629 -2.425532
v 0.151651 -0.094287 -2.425532
v -0.130482 -0.090795 -2.425532
v -0.139789 0.183215 -2.425532
v 0.151651 0.183215 -2.425532
v -0.139789 0.267033 -2.441030
v 0.151651 0.267033 -2.441030
v -0.106589 0.358374 -2.457919
v 0.118451 0.358374 -2.457919
v -0.026438 0.396209 -2.464914
v 0.038300 0.396209 -2.464914
v 0.000000 0.334094 -2.307473
v 0.000000 0.334094 -1.979282
v -0.073814 0.303519 -2.307473
v -0.073814 0.303519 -1.979282
v -0.104389 0.229705 -2.307473
v -0.104389 0.229705 -1.979282
v -0.073814 0.155891 -2.307473
v -0.073814 0.155891 -1.979282
v 0.000000 0.125316 -2.307473
v 0.000000 0.125316 -1.979282
v 0.073814 0.155891 -2.307473
v 0.073814 0.155891 -1.979282
v 0.104389 0.229705 -2.307473
v 0.104389 0.229705 -1.979282
v 0.073814 0.303519 -2.307473
v 0.073814 0.303519 -1.979282
v 0.000000 -0.457483 -2.307473
v 0.000000 -0.457483 -1.979282
v -0.073814 -0.488058 -2.307473
v -0.073814 -0.488058 -1.979282
v -0.104389 -0.561873 -2.307473
v -0.104389 -0.561873 -1.979282
v -0.073814 -0.635687 -2.307473
v -0.073814 -0.635687 -1.979282
v 0.000000 -0.666262 -2.307473
v 0.000000 -0.666262 -1.979282
v 0.073814 -0.635687 -2.307473
v 0.073814 -0.635687 -1.979282
v 0.104389 -0.561873 -2.307473
v 0.104389 -0.561873 -1.979282
v 0.073814 -0.488058 -2.307473
v 0.073814 -0.488058 -1.979282
vn -0.0000 -0.0000 1.0000
vn -1.0000 -0.0000 -0.0000
vn -0.0000 1.0000 -0.0000
vn 0.9095 0.4157 -0.0000
vn -0.0000 -1.0000 -0.0000
vn 0.3514 0.9362 -0.0000
vn -0.3433 -0.9392 -0.0000
vn 0.9122 -0.4096 -0.0000
vn 1.0000 -0.0000 -0.0000
vn -0.9095 0.4157 -0.0000
vn 0.3514 -0.9362 -0.0000
vn 0.9095 -0.4157 -0.0000
vn -0.3514 0.9362 -0.0000
vn -0.9122 -0.4096 -0.0000
vn 0.3433 -0.9392 -0.0000
vn -0.3514 -0.9362 -0.0000
vn -0.9095 -0.4157 -0.0000
vn -0.0000 -0.0000 -1.0000
vn 0.9398 0.3416 -0.0000
vn 0.4269 0.9043 -0.0000
vn -0.4176 -0.9086 -0.0000
vn 0.9418 -0.3363 -0.0000
vn -0.9398 0.3416 -0.0000
vn 0.4269 -0.9043 -0.0000
vn 0.9398 -0.3416 -0.0000
vn -0.4269 0.9043 -0.0000
vn -0.9418 -0.3363 -0.0000
vn 0.4176 -0.9086 -0.0000
vn -0.4269 -0.9043 -0.0000
vn -0.9398 -0.3416 -0.0000
vn -0.0000 0.1818 0.9833
vn -0.0000 0.1818 -0.9833
vn -0.0000 -0.1818 0.9833
vn -0.0000 -0.1818 -0.9833
vn -0.3827 0.9239 -0.0000
vn -0.9239 0.3827 -0.0000
vn -0.9239 -0.3827 -0.0000
vn -0.3827 -0.9239 -0.0000
vn 0.3827 -0.9239 -0.0000
vn 0.9239 -0.3827 -0.0000
vn 0.9239 0.3827 -0.0000
vn 0.3827 0.9239 -0.0000
vt 0.487525 0.856002
vt 0.477075 0.860331
vt 0.472747 0.870780
vt 0.472747 0.879220
vt 0.477075 0.889669
vt 0.487525 0.893998
vt 0.528859 0.893998
vt 0.539309 0.889669
vt 0.543637 0.879220
vt 0.543637 0.870780
vt 0.539309 0.860331
vt 0.528859 0.856002
vt 0.482216 0.892784
vt 0.487924 0.892784
vt 0.487924 0.857216
vt 0.424489 0.857216
vt 0.418866 0.859504
vt 0.416589 0.865152
vt 0.416589 0.884848
vt 0.418866 0.890496
vt 0.424489 0.892784
vt 0.487924 0.892784
vt 0.539309 0.860331
vt 0.528859 0.856002
vt 0.543637 0.870780
vt 0.418866 0.890496
vt 0.424489 0.857216
vt 0.418866 0.859504
vt 0.523362 0.856002
vt 0.487525 0.856002
vt 0.482776 0.892784
vt 0.539309 0.889669
vt 0.421266 0.850519
vt 0.488396 0.850519
vt 0.488396 0.892052
vt 0.482948 0.892052
vt 0.482355 0.892052
vt 0.421266 0.892052
vt 0.415316 0.889380
vt 0.412906 0.882785
vt 0.412906 0.859786
vt 0.415316 0.853191
vt 0.531716 0.893469
vt 0.487973 0.893469
vt 0.476915 0.888415
vt 0.472335 0.876213
vt 0.472335 0.866358
vt 0.476915 0.854156
vt 0.487973 0.849102
vt 0.525898 0.849102
vt 0.531716 0.849102
vt 0.542774 0.854156
vt 0.547354 0.866358
vt 0.547354 0.876213
vt 0.542774 0.888415
vt 0.519271 0.893998
vt 0.416589 0.884848
vt 0.456544 0.892784
vt 0.418866 0.890496
vt 0.424489 0.857216
vt 0.418866 0.859504
vt 0.519271 0.856002
vt 0.477075 0.860331
vt 0.543637 0.879220
vt 0.456544 0.857216
vt 0.477075 0.889669
vt 0.533190 0.881645
vt 0.533190 0.926012
vt 0.499595 0.926012
vt 0.488537 0.920958
vt 0.483957 0.908756
vt 0.483957 0.898901
vt 0.488537 0.886699
vt 0.499595 0.881645
vt 0.543337 0.926012
vt 0.554396 0.920958
vt 0.558976 0.908756
vt 0.558976 0.898901
vt 0.554396 0.886699
vt 0.543337 0.881645
vt 0.000000 0.000000
vt 1.000000 0.500000
vt 1.000000 1.000000
vt 0.875000 1.000000
vt 0.875000 0.500000
vt 0.750000 1.000000
vt 0.750000 0.500000
vt 0.625000 1.000000
vt 0.625000 0.500000
vt 0.500000 1.000000
vt 0.500000 0.500000
vt 0.375000 1.000000
vt 0.375000 0.500000
vt 0.250000 1.000000
vt 0.250000 0.500000
vt 0.419706 0.419706
vt 0.250000 0.490000
vt 0.080294 0.419706
vt 0.010000 0.250000
vt 0.080294 0.080294
vt 0.250000 0.010000
vt 0.419706 0.080294
vt 0.490000 0.250000
vt 0.125000 1.000000
vt 0.125000 0.500000
vt 0.000000 1.000000
vt 0.000000 0.500000
vt 0.750000 0.490000
vt 0.919706 0.419706
vt 0.990000 0.250000
vt 0.919706 0.080294
vt 0.750000 0.010000
vt 0.580294 0.080294
vt 0.510000 0.250000
vt 0.580294 0.419706
s 0
f 11/1/1 10/12/1 6/11/1 7/10/1 5/9/1 3/8/1 4/7/1 1/6/1 2/5/1 13/4/1 17/3/1 12/2/1
f 9/13/1 16/21/1 19/20/1 20/19/1 21/18/1 18/17/1 15/16/1 14/15/1 8/14/1
f 4/7/2 25/7/2 22/6/2 1/6/2
f 14/15/3 39/15/3 24/22/3 8/14/3
f 10/12/4 27/24/4 29/23/4 6/11/4
f 20/19/5 32/19/5 33/18/5 21/18/5
f 9/13/2 38/13/2 36/21/2 16/21/2
f 6/11/6 29/23/6 31/25/6 7/10/6
f 19/20/7 35/26/7 32/19/7 20/19/7
f 18/17/8 34/28/8 37/27/8 15/16/8
f 11/1/9 44/30/9 26/29/9 27/24/9 10/12/9
f 8/14/2 24/22/2 23/31/2 38/13/2 9/13/2
f 13/4/5 40/4/5 41/3/5 17/3/5
f 3/8/10 28/32/10 25/7/10 4/7/10
f 17/3/11 41/3/11 43/2/11 12/2/11
f 12/2/12 43/2/12 44/30/12 11/1/12
f 5/9/13 30/9/13 28/32/13 3/8/13
f 16/21/14 36/21/14 35/26/14 19/20/14
f 15/16/9 37/27/9 39/15/9 14/15/9
f 7/10/3 31/25/3 30/9/3 5/9/3
f 21/18/15 33/18/15 34/28/15 18/17/15
f 2/5/16 42/5/16 40/4/16 13/4/16
f 1/6/17 22/6/17 42/5/17 2/5/17
f 37/33/18 34/42/18 33/41/18 32/40/18 35/39/18 36/38/18 38/37/18 23/36/18 24/35/18 39/34/18
f 25/43/18 28/55/18 30/54/18 31/53/18 29/52/18 27/51/18 26/50/18 44/49/18 43/48/18 41/47/18 40/46/18 42/45/18 22/44/18
f 55/1/1 54/12/1 50/11/1 51/10/1 49/9/1 47/8/1 48/7/1 45/6/1 46/5/1 57/4/1 61/3/1 56/2/1
f 53/13/1 60/21/1 63/20/1 64/19/1 65/18/1 62/17/1 59/16/1 58/15/1 52/14/1
f 48/7/2 85/7/2 83/56/2 78/6/2 45/6/2
f 58/15/3 75/15/3 82/22/3 52/14/3
f 54/12/19 86/24/19 88/11/19 50/11/19
f 64/19/5 66/57/5 67/18/5 65/18/5
f 53/13/2 74/13/2 72/58/2 70/21/2 60/21/2
f 50/11/20 88/11/20 90/25/20 51/10/20
f 63/20/21 69/59/21 66/57/21 64/19/21
f 62/17/22 68/61/22 71/60/22 59/16/22
f 55/1/9 81/1/9 84/62/9 86/24/9 54/12/9
f 52/14/2 82/22/2 74/13/2 53/13/2
f 57/4/5 76/4/5 77/3/5 61/3/5
f 47/8/23 87/8/23 85/7/23 48/7/23
f 61/3/24 77/3/24 80/63/24 56/2/24
f 56/2/25 80/63/25 81/1/25 55/1/25
f 49/9/26 89/64/26 87/8/26 47/8/26
f 60/21/27 70/21/27 69/59/27 63/20/27
f 59/16/9 71/60/9 73/65/9 75/15/9 58/15/9
f 51/10/3 90/25/3 89/64/3 49/9/3
f 65/18/28 67/18/28 68/61/28 62/17/28
f 46/5/29 79/66/29 76/4/29 57/4/29
f 45/6/30 78/6/30 79/66/30 46/5/30
f 84/67/18 81/74/18 80/73/18 77/72/18 76/71/18 79/70/18 78/69/18 83/68/18
f 83/68/31 84/67/31 86/80/31 88/79/31 90/78/31 89/77/31 87/76/31 85/75/31
f 74/13/18 82/22/18 75/15/18 73/65/18 72/58/18
f 67/18/32 66/57/32 69/59/32 70/21/32 72/58/32 73/65/32 71/60/32 68/61/32
f 68/81/33 71/81/33 70/81/33 69/81/33 66/81/33 67/81/33
f 71/81/32 70/81/32 72/58/32 73/65/32
f 71/81/32 68/61/32 69/59/32 70/81/32
f 68/61/32 67/18/32 66/57/32 69/59/32
f 88/11/34 87/8/34 89/64/34 90/25/34
f 86/24/34 85/7/34 87/8/34 88/11/34
f 84/67/34 83/68/34 85/7/34 86/24/34
f 91/82/35 93/85/35 94/84/35 92/83/35
f 93/85/36 95/87/36 96/86/36 94/84/36
f 95/87/37 97/89/37 98/88/37 96/86/37
f 97/89/38 99/91/38 100/90/38 98/88/38
f 99/91/39 101/93/39 102/92/39 100/90/39
f 101/93/40 103/95/40 104/94/40 102/92/40
f 94/96/1 96/103/1 98/102/1 100/101/1 102/100/1 104/99/1 106/98/1 92/97/1
f 103/95/41 105/105/41 106/104/41 104/94/41
f 105/105/42 91/107/42 92/106/42 106/104/42
f 91/108/18 105/115/18 103/114/18 101/113/18 99/112/18 97/111/18 95/110/18 93/109/18
f 107/82/35 109/85/35 110/84/35 108/83/35
f 109/85/36 111/87/36 112/86/36 110/84/36
f 111/87/37 113/89/37 114/88/37 112/86/37
f 113/89/38 115/91/38 116/90/38 114/88/38
f 115/91/39 117/93/39 118/92/39 116/90/39
f 117/93/40 119/95/40 120/94/40 118/92/40
f 110/96/1 112/103/1 114/102/1 116/101/1 118/100/1 120/99/1 122/98/1 108/97/1
f 119/95/41 121/105/41 122/104/41 120/94/41
f 121/105/42 107/107/42 108/106/42 122/104/42
f 107/108/18 121/115/18 119/114/18 117/113/18 115/112/18 113/111/18 111/110/18 109/109/18
