# Blender 4.4.3
# www.blender.org
mtllib Stock2.mtl
o Cube.008
v -0.176330 -0.096214 -2.038486
v -0.135897 -0.184679 -2.038486
v -0.135897 0.342189 -2.038486
v -0.176330 0.253724 -2.038486
v -0.038284 0.378832 -2.038486
v 0.138169 0.342189 -2.038486
v 0.040556 0.378832 -2.038486
v -0.164995 -0.092832 -2.038486
v -0.164995 -0.141159 -2.038486
v 0.178602 0.253724 -2.038486
v 0.178602 -0.096214 -2.038486
v 0.138169 -0.184679 -2.038486
v -0.038284 -0.221322 -2.038486
v 0.167267 -0.092832 -2.038486
v 0.167267 -0.629875 -2.038486
v -0.164995 -0.629875 -2.038486
v 0.040556 -0.221322 -2.038486
v 0.145893 -0.677473 -2.038486
v -0.143621 -0.677473 -2.038486
v -0.090862 -0.696755 -2.038486
v 0.093134 -0.696755 -2.038486
v -0.135897 -0.184679 -2.610587
v 0.138169 -0.184679 -2.610587
v -0.038284 -0.221322 -2.610587
v 0.040556 -0.221322 -2.610587
v -0.142719 -0.169754 -2.610587
v -0.176330 -0.096214 -2.576975
v -0.111095 0.315598 -2.610587
v -0.135897 0.342189 -2.576974
v -0.176330 0.253724 -2.576975
v -0.142719 0.246407 -2.610586
v -0.032183 0.345221 -2.610586
v -0.038284 0.378832 -2.576975
v 0.113367 0.315598 -2.610587
v 0.138169 0.342189 -2.576974
v 0.040556 0.378832 -2.576975
v 0.034456 0.345221 -2.610586
v -0.164995 -0.092832 -2.576975
v -0.131384 -0.092832 -2.610587
v -0.164995 -0.141159 -2.576975
v -0.131384 -0.141159 -2.610587
v 0.144991 0.246407 -2.610586
v 0.178602 0.253724 -2.576975
v 0.178602 -0.096214 -2.576975
v 0.144991 -0.169754 -2.610587
v 0.133656 -0.092832 -2.610587
v 0.167267 -0.092832 -2.576975
v 0.133656 -0.622674 -2.610587
v 0.167267 -0.629874 -2.576975
v -0.164995 -0.629874 -2.576975
v -0.131384 -0.622674 -2.610587
v 0.121039 -0.650771 -2.610587
v 0.145893 -0.677473 -2.576975
v -0.143621 -0.677473 -2.576975
v -0.118767 -0.650771 -2.610587
v -0.090862 -0.696755 -2.576975
v -0.084913 -0.663143 -2.610587
v 0.087185 -0.663143 -2.610587
v 0.093134 -0.696755 -2.576975
v -0.164995 -0.092832 -2.216299
v -0.164995 -0.092832 -2.140119
v -0.164995 -0.141159 -2.140119
v -0.164995 -0.141159 -2.216299
v 0.167267 -0.092832 -2.216299
v 0.167267 -0.092832 -2.140119
v -0.164995 -0.629875 -2.140119
v -0.164995 -0.629874 -2.216299
v 0.167267 -0.629874 -2.216299
v 0.167267 -0.629874 -2.140119
v 0.145893 -0.677473 -2.216299
v 0.145893 -0.677473 -2.140119
v -0.143621 -0.677473 -2.140119
v -0.143621 -0.677473 -2.216299
v 0.093134 -0.696755 -2.216299
v 0.093134 -0.696755 -2.140119
v -0.090862 -0.696755 -2.140119
v -0.090862 -0.696755 -2.216299
v -0.176330 -0.096214 -2.216299
v -0.176330 -0.096214 -2.140119
v -0.176330 0.253724 -2.216299
v -0.176330 0.253724 -2.140119
v -0.135897 0.342189 -2.216299
v -0.135897 0.342189 -2.140119
v -0.038284 0.378832 -2.216299
v -0.038284 0.378832 -2.140119
v 0.040556 0.378832 -2.216299
v 0.040556 0.378832 -2.140119
v 0.138169 0.342189 -2.216299
v 0.138169 0.342189 -2.140119
v 0.178602 0.253724 -2.216299
v 0.178602 0.253724 -2.140119
v 0.178602 -0.096214 -2.216299
v 0.178602 -0.096214 -2.140119
v -0.133675 -0.122473 -2.216299
v -0.133675 -0.122473 -2.140119
v -0.121557 -0.141159 -2.140119
v -0.121557 -0.141159 -2.216299
v 0.135757 -0.122473 -2.216299
v 0.135757 -0.122473 -2.140119
v -0.122475 -0.621094 -2.140119
v -0.122475 -0.621094 -2.216299
v 0.124557 -0.621094 -2.216299
v 0.124557 -0.621094 -2.140119
v 0.115728 -0.646789 -2.216299
v 0.115728 -0.646789 -2.140119
v -0.113646 -0.646789 -2.140119
v -0.113646 -0.646789 -2.216299
v 0.084632 -0.655478 -2.216299
v 0.084632 -0.655478 -2.140119
v -0.082550 -0.655478 -2.140119
v -0.082550 -0.655478 -2.216299
v -0.132744 -0.096214 -2.216299
v -0.132744 -0.096214 -2.140119
v -0.133691 0.244808 -2.216299
v -0.133691 0.244808 -2.140119
v -0.105991 0.311535 -2.216299
v -0.105991 0.311535 -2.140119
v -0.030478 0.337588 -2.216299
v -0.030478 0.337588 -2.140119
v 0.032560 0.337588 -2.216299
v 0.032560 0.337588 -2.140119
v 0.108073 0.311535 -2.216299
v 0.108073 0.311535 -2.140119
v 0.135773 0.244808 -2.216299
v 0.135773 0.244808 -2.140119
v 0.134826 -0.096214 -2.216299
v 0.134826 -0.096214 -2.140119
vn -0.0000 -0.0000 1.0000
vn -1.0000 -0.0000 -0.0000
vn -0.0000 1.0000 -0.0000
vn 0.9095 0.4157 -0.0000
vn -0.0000 -1.0000 -0.0000
vn 0.3514 0.9362 -0.0000
vn -0.3433 -0.9392 -0.0000
vn 0.9122 -0.4096 -0.0000
vn -0.0000 -0.0000 -1.0000
vn 1.0000 -0.0000 -0.0000
vn -0.9095 0.4157 -0.0000
vn 0.3514 -0.9362 -0.0000
vn 0.9095 -0.4157 -0.0000
vn -0.3514 0.9362 -0.0000
vn -0.9122 -0.4096 -0.0000
vn 0.3433 -0.9392 -0.0000
vn -0.3514 -0.9362 -0.0000
vn -0.6431 0.2939 -0.7071
vn -0.2485 0.6620 -0.7071
vn 0.2485 0.6620 -0.7071
vn -0.0000 0.7071 -0.7071
vn -0.7071 -0.0000 -0.7071
vn 0.6431 0.2939 -0.7071
vn 0.7071 -0.0000 -0.7071
vn 0.6451 -0.2897 -0.7071
vn -0.6451 -0.2897 -0.7071
vn -0.2427 -0.6641 -0.7071
vn 0.2427 -0.6641 -0.7071
vn -0.0000 -0.7071 -0.7071
vn -0.9095 -0.4157 -0.0000
vn 0.2691 -0.9631 -0.0000
vn 0.9997 -0.0225 -0.0000
vn -0.9457 -0.3249 -0.0000
vn -0.8390 -0.5441 -0.0000
vn 0.9457 -0.3249 -0.0000
vn -0.2691 -0.9631 -0.0000
vn -1.0000 0.0019 -0.0000
vn -0.3261 0.9453 -0.0000
vn -0.9236 0.3834 -0.0000
vn 1.0000 -0.0028 -0.0000
vn 0.3261 0.9453 -0.0000
vn 0.9236 0.3834 -0.0000
vn -1.0000 -0.0028 -0.0000
vt 0.487525 0.856002
vt 0.477075 0.860331
vt 0.472747 0.870780
vt 0.472747 0.879220
vt 0.477075 0.889669
vt 0.487525 0.893998
vt 0.528859 0.893998
vt 0.539309 0.889669
vt 0.543637 0.879220
vt 0.543637 0.870780
vt 0.539309 0.860331
vt 0.528859 0.856002
vt 0.482216 0.892784
vt 0.487924 0.892784
vt 0.487924 0.857216
vt 0.424489 0.857216
vt 0.418866 0.859504
vt 0.416589 0.865152
vt 0.416589 0.884848
vt 0.418866 0.890496
vt 0.424489 0.892784
vt 0.528859 0.893998
vt 0.487525 0.893998
vt 0.528859 0.893998
vt 0.487924 0.857216
vt 0.487924 0.892784
vt 0.487924 0.889186
vt 0.487924 0.860814
vt 0.487924 0.857216
vt 0.528859 0.856002
vt 0.539309 0.860331
vt 0.416589 0.884848
vt 0.416589 0.865152
vt 0.416589 0.884848
vt 0.482216 0.892784
vt 0.543637 0.870780
vt 0.543637 0.870780
vt 0.418866 0.890496
vt 0.418866 0.890496
vt 0.418866 0.859504
vt 0.424489 0.857216
vt 0.418866 0.859504
vt 0.482216 0.889186
vt 0.425339 0.889186
vt 0.422020 0.887836
vt 0.420559 0.884211
vt 0.420559 0.865789
vt 0.422020 0.862164
vt 0.425339 0.860814
vt 0.487525 0.856002
vt 0.482216 0.892784
vt 0.487924 0.892784
vt 0.539309 0.889669
vt 0.478838 0.859600
vt 0.527995 0.859600
vt 0.536168 0.862986
vt 0.539667 0.871433
vt 0.539667 0.878567
vt 0.536168 0.887014
vt 0.527995 0.890400
vt 0.478838 0.890400
vt 0.478838 0.859600
vt 0.543637 0.879220
vt 0.424489 0.892784
vt 0.424489 0.857216
vt 0.418866 0.859504
vt 0.416589 0.865152
vt 0.487525 0.893998
vt 0.487525 0.893998
vt 0.539309 0.889669
vt 0.424489 0.857216
vt 0.482216 0.892784
vt 0.416589 0.884848
vt 0.528859 0.856002
s 0
f 11/1/1 10/12/1 6/11/1 7/10/1 5/9/1 3/8/1 4/7/1 1/6/1 2/5/1 13/4/1 17/3/1 12/2/1
f 9/13/1 16/21/1 19/20/1 20/19/1 21/18/1 18/17/1 15/16/1 14/15/1 8/14/1
f 80/22/2 30/24/2 27/6/2 78/23/2
f 64/25/3 47/29/3 46/28/3 39/27/3 38/26/3 60/26/3
f 90/30/4 43/30/4 35/11/4 88/31/4
f 77/32/5 56/34/5 59/18/5 74/33/5
f 63/35/2 40/13/2 50/21/2 67/21/2
f 88/31/6 35/11/6 36/37/6 86/36/6
f 73/38/7 54/39/7 56/19/7 77/32/7
f 70/40/8 53/42/8 49/41/8 68/41/8
f 41/43/9 39/27/9 46/28/9 48/49/9 52/48/9 58/47/9 57/46/9 55/45/9 51/44/9
f 92/50/10 44/50/10 43/12/10 90/30/10
f 60/26/2 38/52/2 40/51/2 63/35/2
f 13/4/5 24/4/5 25/3/5 17/3/5
f 82/53/11 29/8/11 30/7/11 80/22/11
f 45/54/9 23/2/9 25/3/9 24/4/9 22/5/9 26/61/9 31/60/9 28/59/9 32/58/9 37/57/9 34/56/9 42/55/9
f 17/3/12 25/3/12 23/2/12 12/2/12
f 12/2/13 23/2/13 45/62/13 44/1/13 92/50/13 93/50/13 11/1/13
f 84/9/14 33/63/14 29/8/14 82/53/14
f 67/21/15 50/64/15 54/38/15 73/38/15
f 68/41/10 49/65/10 47/15/10 64/25/10
f 86/36/3 36/37/3 33/9/3 84/9/3
f 74/33/16 59/67/16 53/66/16 70/40/16
f 2/5/17 22/5/17 24/4/17 13/4/17
f 29/8/18 28/59/18 31/60/18 30/7/18
f 33/63/19 32/58/19 28/59/19 29/8/19
f 35/11/20 34/56/20 37/57/20 36/37/20
f 36/37/21 37/57/21 32/58/21 33/9/21
f 38/52/22 39/27/22 41/43/22 40/51/22
f 43/30/23 42/55/23 34/56/23 35/11/23
f 30/24/22 31/60/22 26/61/22 27/6/22
f 44/50/24 45/54/24 42/55/24 43/12/24
f 49/65/24 48/49/24 46/28/24 47/15/24
f 51/44/22 50/21/22 40/13/22 41/43/22
f 53/42/25 52/48/25 48/49/25 49/41/25
f 55/45/26 54/38/26 50/64/26 51/44/26
f 57/46/27 56/19/27 54/39/27 55/45/27
f 59/67/28 58/47/28 52/48/28 53/66/28
f 58/47/29 59/18/29 56/34/29 57/46/29
f 1/6/30 79/69/30 78/23/30 27/68/30 26/61/30 22/5/30 2/5/30
f 21/18/16 75/18/16 71/42/16 18/17/16
f 85/9/9 119/9/9 117/70/9 83/70/9
f 15/16/10 69/71/10 65/15/10 14/15/10
f 68/41/1 102/41/1 104/40/1 70/40/1
f 16/21/15 66/21/15 72/38/15 19/20/15
f 84/9/1 118/9/1 120/36/1 86/36/1
f 8/14/2 61/26/2 62/72/2 9/13/2
f 71/42/9 105/42/9 103/71/9 69/71/9
f 18/17/8 71/42/8 69/71/8 15/16/8
f 87/10/9 121/10/9 119/9/9 85/9/9
f 19/20/7 72/38/7 76/73/7 20/19/7
f 63/35/1 97/35/1 94/26/1 60/26/1
f 9/13/2 62/72/2 66/21/2 16/21/2
f 78/23/1 112/23/1 114/22/1 80/22/1
f 20/19/5 76/73/5 75/18/5 21/18/5
f 92/50/3 126/50/3 127/50/3 93/50/3
f 14/15/3 65/15/3 61/26/3 8/14/3
f 61/26/9 95/26/9 96/72/9 62/72/9
f 7/10/3 87/10/3 85/9/3 5/9/3
f 81/24/9 115/24/9 113/69/9 79/69/9
f 5/9/14 85/9/14 83/70/14 3/8/14
f 79/69/3 113/69/3 112/23/3 78/23/3
f 3/8/11 83/70/11 81/24/11 4/7/11
f 73/38/1 107/38/1 101/21/1 67/21/1
f 11/1/10 93/50/10 91/74/10 10/12/10
f 88/31/1 122/31/1 124/30/1 90/30/1
f 6/11/6 89/11/6 87/10/6 7/10/6
f 66/21/9 100/21/9 106/38/9 72/38/9
f 10/12/4 91/74/4 89/11/4 6/11/4
f 91/74/9 125/74/9 123/11/9 89/11/9
f 4/7/2 81/24/2 79/69/2 1/6/2
f 60/26/1 94/26/1 98/25/1 64/25/1
f 109/18/31 108/33/31 104/40/31 105/42/31
f 103/71/32 102/41/32 98/25/32 99/15/32
f 100/21/33 101/21/33 107/38/33 106/38/33
f 95/26/34 94/26/34 97/35/34 96/72/34
f 105/42/35 104/40/35 102/41/35 103/71/35
f 106/38/36 107/38/36 111/32/36 110/73/36
f 96/72/37 97/35/37 101/21/37 100/21/37
f 110/73/5 111/32/5 108/33/5 109/18/5
f 99/15/3 98/25/3 94/26/3 95/26/3
f 121/10/3 120/36/3 118/9/3 119/9/3
f 119/9/38 118/9/38 116/53/38 117/70/38
f 117/70/39 116/53/39 114/22/39 115/24/39
f 127/50/40 126/50/40 124/30/40 125/74/40
f 123/11/41 122/31/41 120/36/41 121/10/41
f 125/74/42 124/30/42 122/31/42 123/11/42
f 115/24/43 114/22/43 112/23/43 113/69/43
f 72/38/9 106/38/9 110/73/9 76/73/9
f 82/53/1 116/53/1 118/9/1 84/9/1
f 77/32/1 111/32/1 107/38/1 73/38/1
f 83/70/9 117/70/9 115/24/9 81/24/9
f 62/72/9 96/72/9 100/21/9 66/21/9
f 80/22/1 114/22/1 116/53/1 82/53/1
f 67/21/1 101/21/1 97/35/1 63/35/1
f 93/50/9 127/50/9 125/74/9 91/74/9
f 75/18/9 109/18/9 105/42/9 71/42/9
f 76/73/9 110/73/9 109/18/9 75/18/9
f 90/30/1 124/30/1 126/50/1 92/50/1
f 70/40/1 104/40/1 108/33/1 74/33/1
f 74/33/1 108/33/1 111/32/1 77/32/1
f 89/11/9 123/11/9 121/10/9 87/10/9
f 69/71/9 103/71/9 99/15/9 65/15/9
f 65/15/9 99/15/9 95/26/9 61/26/9
f 86/36/1 120/36/1 122/31/1 88/31/1
f 64/25/1 98/25/1 102/41/1 68/41/1
