# Blender 4.4.3
# www.blender.org
mtllib Bipod1.mtl
o Cube.023
v -0.021269 0.395695 1.102273
v -0.021269 0.395695 1.044092
v 0.021269 0.395695 1.102273
v 0.021269 0.395695 1.044092
v -0.021269 0.319591 1.102273
v -0.006467 0.275341 1.102273
v -0.006467 0.275341 1.044092
v -0.021269 0.319591 1.044092
v 0.006467 0.275341 1.102273
v 0.021269 0.319591 1.102273
v 0.021269 0.319591 1.044092
v 0.006467 0.275341 1.044092
v 0.000000 0.491685 1.103140
v 0.029587 0.483757 1.103140
v 0.051246 0.462098 1.103140
v 0.059173 0.432512 1.103140
v 0.051246 0.402925 1.103140
v 0.029587 0.381266 1.103140
v 0.000000 0.373339 1.103140
v -0.029586 0.381266 1.103140
v -0.051245 0.402925 1.103140
v -0.059173 0.432512 1.103140
v -0.051245 0.462098 1.103140
v -0.029586 0.483757 1.103140
v 0.000000 0.484582 1.032424
v 0.000000 0.491685 1.042665
v 0.026035 0.477606 1.032424
v 0.029587 0.483757 1.042665
v 0.045094 0.458547 1.032424
v 0.051246 0.462098 1.042665
v 0.052070 0.432512 1.032424
v 0.059173 0.432512 1.042665
v 0.045094 0.406477 1.032424
v 0.051246 0.402925 1.042665
v 0.026035 0.387418 1.032424
v 0.029587 0.381266 1.042665
v 0.000000 0.380442 1.032424
v 0.000000 0.373339 1.042665
v -0.026035 0.387418 1.032424
v -0.029586 0.381266 1.042665
v -0.045094 0.406477 1.032424
v -0.051245 0.402925 1.042665
v -0.052070 0.432512 1.032424
v -0.059173 0.432512 1.042665
v -0.045094 0.458547 1.032424
v -0.051245 0.462098 1.042665
v -0.026035 0.477606 1.032424
v -0.029586 0.483757 1.042665
v 0.000000 0.480172 1.023345
v 0.000000 0.480172 1.120556
v 0.023830 0.473786 1.023345
v 0.023830 0.473786 1.120556
v 0.041275 0.456342 1.023345
v 0.041275 0.456342 1.120556
v 0.047660 0.432512 1.023345
v 0.047660 0.432512 1.120556
v 0.041275 0.408682 1.023345
v 0.041275 0.408682 1.120556
v 0.023830 0.391237 1.023345
v 0.023830 0.391237 1.120556
v 0.000000 0.384852 1.023345
v 0.000000 0.384852 1.120556
v -0.023830 0.391237 1.023345
v -0.023830 0.391237 1.120556
v -0.041274 0.408682 1.023345
v -0.041274 0.408682 1.120556
v -0.047660 0.432512 1.023345
v -0.047660 0.432512 1.120556
v -0.041274 0.456342 1.023345
v -0.041274 0.456342 1.120556
v -0.023830 0.473786 1.023345
v -0.023830 0.473786 1.120556
vn -0.0000 -0.0000 1.0000
vn 1.0000 -0.0000 -0.0000
vn -0.0000 -0.0000 -1.0000
vn -1.0000 -0.0000 -0.0000
vn -0.0000 1.0000 -0.0000
vn -0.9483 -0.3172 -0.0000
vn 0.9484 -0.3172 -0.0000
vn -0.0000 -1.0000 -0.0000
vn -0.2588 0.9659 -0.0000
vn 0.9659 0.2588 -0.0000
vn 0.9659 -0.2588 -0.0000
vn 0.7071 -0.7071 -0.0000
vn 0.2588 -0.9659 -0.0000
vn -0.2588 -0.9659 -0.0000
vn -0.7071 -0.7071 -0.0000
vn -0.9659 -0.2588 -0.0000
vn -0.9659 0.2588 -0.0000
vn -0.7071 0.7071 -0.0000
vn 0.7071 0.7071 -0.0000
vn 0.2588 0.9659 -0.0000
vn 0.2150 0.8025 -0.5566
vn 0.5874 0.5874 -0.5566
vn 0.8025 0.2150 -0.5566
vn 0.8025 -0.2150 -0.5566
vn 0.5874 -0.5874 -0.5566
vn 0.2150 -0.8025 -0.5566
vn -0.2150 -0.8025 -0.5566
vn -0.5874 -0.5874 -0.5566
vn -0.8025 -0.2150 -0.5566
vn -0.8025 0.2150 -0.5566
vn -0.5874 0.5874 -0.5566
vn -0.2150 0.8025 -0.5566
vt 0.375000 0.812250
vt 0.401896 0.750000
vt 0.625000 0.750000
vt 0.625000 1.000000
vt 0.401896 1.000000
vt 0.375000 0.937750
vt 0.401896 0.500000
vt 0.625000 0.500000
vt 0.401896 0.750000
vt 0.375000 0.312250
vt 0.401896 0.250000
vt 0.625000 0.250000
vt 0.401896 0.500000
vt 0.375000 0.437750
vt 0.401896 0.000000
vt 0.625000 0.000000
vt 0.401896 0.250000
vt 0.875000 0.500000
vt 0.875000 0.750000
vt 0.187250 0.500000
vt 0.187250 0.750000
vt 0.125000 0.750000
vt 0.125000 0.500000
vt 0.312750 0.750000
vt 0.312750 0.500000
vt 0.083333 0.528988
vt 0.083333 1.000000
vt 0.000000 1.000000
vt 0.000000 0.528988
vt 0.833333 0.528988
vt 0.833333 1.000000
vt 0.750000 1.000000
vt 0.750000 0.528988
vt 0.666667 1.000000
vt 0.666667 0.528988
vt 0.583333 1.000000
vt 0.583333 0.528988
vt 0.500000 1.000000
vt 0.500000 0.528988
vt 0.416667 1.000000
vt 0.416667 0.528988
vt 0.333333 1.000000
vt 0.333333 0.528988
vt 0.250000 1.000000
vt 0.250000 0.528988
vt 0.166667 1.000000
vt 0.166667 0.528988
vt 0.370000 0.457846
vt 0.250000 0.490000
vt 0.130000 0.457846
vt 0.042154 0.370000
vt 0.010000 0.250000
vt 0.042154 0.130000
vt 0.130000 0.042154
vt 0.250000 0.010000
vt 0.370000 0.042154
vt 0.457846 0.130000
vt 0.490000 0.250000
vt 0.457846 0.370000
vt 0.916667 0.528988
vt 0.916667 1.000000
vt 1.000000 0.528988
vt 1.000000 1.000000
vt 0.750000 0.490000
vt 0.870000 0.457846
vt 0.855595 0.432896
vt 0.750000 0.461190
vt 0.957846 0.370000
vt 0.932896 0.355595
vt 0.990000 0.250000
vt 0.961190 0.250000
vt 0.957846 0.130000
vt 0.932896 0.144405
vt 0.870000 0.042154
vt 0.855595 0.067104
vt 0.750000 0.010000
vt 0.750000 0.038810
vt 0.630000 0.042154
vt 0.644405 0.067104
vt 0.542154 0.130000
vt 0.567104 0.144405
vt 0.510000 0.250000
vt 0.538810 0.250000
vt 0.542154 0.370000
vt 0.567104 0.355595
vt 0.630000 0.457846
vt 0.644405 0.432896
vt 1.000000 0.500000
vt 0.916667 0.500000
vt 0.833333 0.500000
vt 0.750000 0.500000
vt 0.666667 0.500000
vt 0.583333 0.500000
vt 0.500000 0.500000
vt 0.416667 0.500000
vt 0.333333 0.500000
vt 0.250000 0.500000
vt 0.166667 0.500000
vt 0.083333 0.500000
vt 0.000000 0.500000
s 0
f 9/1/1 10/2/1 3/3/1 1/4/1 5/5/1 6/6/1
f 11/7/2 4/8/2 3/3/2 10/9/2
f 7/10/3 8/11/3 2/12/3 4/8/3 11/13/3 12/14/3
f 5/15/4 1/16/4 2/12/4 8/17/4
f 4/8/5 2/18/5 1/19/5 3/3/5
f 7/20/6 6/21/6 5/22/6 8/23/6
f 9/24/7 12/25/7 11/7/7 10/9/7
f 7/20/8 12/25/8 9/24/8 6/21/8
f 48/26/9 24/27/9 13/28/9 26/29/9
f 30/30/10 15/31/10 16/32/10 32/33/10
f 32/33/11 16/32/11 17/34/11 34/35/11
f 34/35/12 17/34/12 18/36/12 36/37/12
f 36/37/13 18/36/13 19/38/13 38/39/13
f 38/39/14 19/38/14 20/40/14 40/41/14
f 40/41/15 20/40/15 21/42/15 42/43/15
f 42/43/16 21/42/16 22/44/16 44/45/16
f 44/45/17 22/44/17 23/46/17 46/47/17
f 46/47/18 23/46/18 24/27/18 48/26/18
f 14/48/1 13/49/1 24/50/1 23/51/1 22/52/1 21/53/1 20/54/1 19/55/1 18/56/1 17/57/1 16/58/1 15/59/1
f 28/60/19 14/61/19 15/31/19 30/30/19
f 26/62/20 13/63/20 14/61/20 28/60/20
f 26/64/21 28/65/21 27/66/21 25/67/21
f 28/65/22 30/68/22 29/69/22 27/66/22
f 30/68/23 32/70/23 31/71/23 29/69/23
f 32/70/24 34/72/24 33/73/24 31/71/24
f 34/72/25 36/74/25 35/75/25 33/73/25
f 36/74/26 38/76/26 37/77/26 35/75/26
f 38/76/27 40/78/27 39/79/27 37/77/27
f 40/78/28 42/80/28 41/81/28 39/79/28
f 42/80/29 44/82/29 43/83/29 41/81/29
f 44/82/30 46/84/30 45/85/30 43/83/30
f 46/84/31 48/86/31 47/87/31 45/85/31
f 48/86/32 26/64/32 25/67/32 47/87/32
f 25/67/3 27/66/3 29/69/3 31/71/3 33/73/3 35/75/3 37/77/3 39/79/3 41/81/3 43/83/3 45/85/3 47/87/3
f 49/88/20 50/63/20 52/61/20 51/89/20
f 51/89/19 52/61/19 54/31/19 53/90/19
f 53/90/10 54/31/10 56/32/10 55/91/10
f 55/91/11 56/32/11 58/34/11 57/92/11
f 57/92/12 58/34/12 60/36/12 59/93/12
f 59/93/13 60/36/13 62/38/13 61/94/13
f 61/94/14 62/38/14 64/40/14 63/95/14
f 63/95/15 64/40/15 66/42/15 65/96/15
f 65/96/16 66/42/16 68/44/16 67/97/16
f 67/97/17 68/44/17 70/46/17 69/98/17
f 52/48/1 50/49/1 72/50/1 70/51/1 68/52/1 66/53/1 64/54/1 62/55/1 60/56/1 58/57/1 56/58/1 54/59/1
f 69/98/18 70/46/18 72/27/18 71/99/18
f 71/99/9 72/27/9 50/28/9 49/100/9
f 49/64/3 51/65/3 53/68/3 55/70/3 57/72/3 59/74/3 61/76/3 63/78/3 65/80/3 67/82/3 69/84/3 71/86/3
