# Blender 4.4.3
# www.blender.org
mtllib Bipod2.mtl
o Cube.019
v -0.010974 0.294831 1.037439
v 0.010974 0.294831 1.037439
v -0.010974 0.294831 1.110020
v 0.010974 0.294831 1.110020
v -0.010974 0.312976 1.105158
v 0.010974 0.312976 1.105158
v -0.010974 0.326260 1.091875
v 0.010974 0.326260 1.091875
v -0.010974 0.331122 1.073730
v 0.010974 0.331122 1.073730
v -0.010974 0.326260 1.055585
v 0.010974 0.326260 1.055585
v -0.010974 0.312976 1.042302
v 0.010974 0.312976 1.042302
v 0.006788 0.257017 1.110020
v 0.010974 0.265859 1.110020
v -0.010974 0.265859 1.110020
v -0.006787 0.257017 1.110020
v 0.010974 0.265859 1.037439
v 0.006788 0.257017 1.037439
v -0.006787 0.257017 1.037439
v -0.010974 0.265859 1.037439
vn -1.0000 -0.0000 -0.0000
vn -0.0000 0.2588 0.9659
vn -0.0000 0.7071 0.7071
vn -0.0000 0.9659 0.2588
vn -0.0000 0.9659 -0.2588
vn -0.0000 0.7071 -0.7071
vn -0.0000 0.2588 -0.9659
vn 1.0000 -0.0000 -0.0000
vn -0.0000 -0.0000 -1.0000
vn -0.0000 -1.0000 -0.0000
vn -0.0000 -0.0000 1.0000
vn 0.9038 -0.4279 -0.0000
vn -0.9038 -0.4279 -0.0000
vt 0.750000 0.010000
vt 0.870000 0.042154
vt 0.500000 0.500000
vt 0.500000 1.000000
vt 0.416667 1.000000
vt 0.416667 0.500000
vt 0.333333 1.000000
vt 0.333333 0.500000
vt 0.250000 1.000000
vt 0.250000 0.500000
vt 0.166667 1.000000
vt 0.166667 0.500000
vt 0.083333 1.000000
vt 0.083333 0.500000
vt 0.000000 1.000000
vt 0.000000 0.500000
vt 0.630000 0.457846
vt 0.630000 0.042154
vt 0.542154 0.130000
vt 0.510000 0.250000
vt 0.542154 0.370000
vt 0.250000 0.490000
vt 0.130000 0.457846
vt 0.042154 0.370000
vt 0.010000 0.250000
vt 0.042154 0.130000
vt 0.130000 0.042154
vt 0.250000 0.010000
vt 0.000000 0.904632
vt 0.000000 0.595368
vt 0.583333 0.595368
vt 0.583333 0.904632
vt 0.500000 0.904632
vt 0.500000 0.595368
vt 0.583333 0.500000
s 0
f 3/1/1 1/2/1 22/2/1 17/1/1
f 3/3/2 4/4/2 6/5/2 5/6/2
f 5/6/3 6/5/3 8/7/3 7/8/3
f 7/8/4 8/7/4 10/9/4 9/10/4
f 9/10/5 10/9/5 12/11/5 11/12/5
f 11/12/6 12/11/6 14/13/6 13/14/6
f 13/14/7 14/13/7 2/15/7 1/16/7
f 13/17/1 1/2/1 3/1/1 5/18/1 7/19/1 9/20/1 11/21/1
f 2/22/8 14/23/8 12/24/8 10/25/8 8/26/8 6/27/8 4/28/8
f 1/16/9 2/15/9 19/15/9 20/29/9 21/30/9 22/16/9
f 21/31/10 20/32/10 15/33/10 18/34/10
f 4/4/11 3/3/11 17/3/11 18/34/11 15/33/11 16/4/11
f 15/28/12 20/22/12 19/22/12 16/28/12
f 21/31/13 18/34/13 17/3/13 22/35/13
f 2/22/8 4/28/8 16/28/8 19/22/8
