# Blender 4.4.3
# www.blender.org
mtllib Bipod4.mtl
o Cube.015
v -0.444923 -0.368388 1.101043
v 0.004620 0.273626 1.101043
v -0.444923 -0.368388 1.040664
v 0.004620 0.273626 1.040664
v -0.459723 -0.358025 1.101043
v -0.010179 0.283989 1.101043
v -0.459723 -0.358025 1.040664
v -0.010179 0.283989 1.040664
v -0.444923 -0.368388 1.086872
v 0.004620 0.273626 1.086872
v -0.459723 -0.358025 1.086872
v -0.010179 0.283989 1.086872
v -0.428484 -0.379899 1.086872
v -0.428484 -0.379899 1.101043
v 0.021059 0.262116 1.101043
v 0.021059 0.262116 1.086872
v -0.400115 -0.357122 1.123520
v -0.400115 -0.357122 1.014200
v -0.508000 -0.357122 1.123520
v -0.508000 -0.357122 1.014200
v -0.400115 -0.398002 1.093865
v -0.400115 -0.376813 1.123520
v -0.400115 -0.376813 1.014200
v -0.400115 -0.398002 1.043855
v -0.516960 -0.376813 1.123520
v -0.526601 -0.398002 1.093865
v -0.526601 -0.398002 1.043855
v -0.516960 -0.376813 1.014200
vn 0.8192 -0.5736 -0.0000
vn -0.0000 -0.0000 -1.0000
vn -0.8192 0.5736 -0.0000
vn -0.0000 -0.0000 1.0000
vn -0.5736 -0.8192 -0.0000
vn 0.5736 0.8192 -0.0000
vn -0.9102 0.4142 -0.0000
vn 1.0000 -0.0000 -0.0000
vn -0.0000 1.0000 -0.0000
vn -0.0000 -0.8136 -0.5814
vn -0.0000 -0.8136 0.5814
vn -0.0000 -1.0000 -0.0000
vt 0.375000 0.053571
vt 0.375000 0.250000
vt 0.625000 0.250000
vt 0.625000 0.053571
vt 0.375000 0.500000
vt 0.625000 0.500000
vt 0.375000 0.696429
vt 0.375000 0.750000
vt 0.625000 0.750000
vt 0.625000 0.696429
vt 0.375000 1.000000
vt 0.625000 1.000000
vt 0.125000 0.696429
vt 0.125000 0.750000
vt 0.875000 0.750000
vt 0.875000 0.696429
vt 0.875000 0.500000
vt 0.125000 0.500000
vt 0.375000 0.000000
vt 0.625000 0.000000
vt 0.504581 0.750000
vt 0.504581 1.000000
vt 0.375000 0.567817
vt 0.375000 0.682183
vt 0.504581 0.500000
vt 0.504581 0.250000
vt 0.375000 0.067817
vt 0.375000 0.182183
vt 0.504581 0.000000
vt 0.355944 0.500000
vt 0.125000 0.567817
vt 0.125000 0.682183
vt 0.355944 0.750000
s 0
f 9/1/1 3/2/1 4/3/1 10/4/1
f 3/2/2 7/5/2 8/6/2 4/3/2
f 11/7/3 5/8/3 6/9/3 12/10/3
f 5/8/4 1/11/4 2/12/4 6/9/4
f 9/13/5 1/14/5 5/8/5 11/7/5
f 12/10/6 6/9/6 2/15/6 10/16/6
f 8/6/6 12/10/6 10/16/6 4/17/6
f 3/18/5 9/13/5 11/7/5 7/5/5
f 7/5/3 11/7/3 12/10/3 8/6/3
f 9/13/5 13/13/5 14/14/5 1/14/5
f 14/19/1 13/1/1 16/4/1 15/20/1
f 1/11/4 14/11/4 15/12/4 2/12/4
f 10/4/2 16/4/2 13/1/2 9/1/2
f 2/15/6 15/15/6 16/16/6 10/16/6
f 25/21/4 22/22/4 17/12/4 19/9/4
f 27/23/7 26/24/7 25/21/7 19/9/7 20/6/7 28/25/7
f 23/26/2 28/25/2 20/6/2 18/3/2
f 21/27/8 24/28/8 23/26/8 18/3/8 17/20/8 22/29/8
f 20/6/9 19/9/9 17/15/9 18/17/9
f 27/23/10 28/30/10 23/18/10 24/31/10
f 21/32/11 22/14/11 25/33/11 26/24/11
f 24/31/12 21/32/12 26/24/12 27/23/12
