# Blender 4.4.3
# www.blender.org
mtllib Bullet.mtl
o Cylinder
v 0.189559 0.419760 -0.105582
v 0.198961 0.417241 -0.105582
v 0.205844 0.410359 -0.105582
v 0.208363 0.400957 -0.105582
v 0.205844 0.391555 -0.105582
v 0.198961 0.384672 -0.105582
v 0.189559 0.382153 -0.105582
v 0.180157 0.384672 -0.105582
v 0.173275 0.391555 -0.105582
v 0.170755 0.400957 -0.105582
v 0.173275 0.410359 -0.105582
v 0.180157 0.417241 -0.105582
v 0.189559 0.422490 -0.105582
v 0.200326 0.419605 -0.105582
v 0.208207 0.411723 -0.105582
v 0.211092 0.400957 -0.105582
v 0.208207 0.390190 -0.105582
v 0.200326 0.382309 -0.105582
v 0.189559 0.379424 -0.105582
v 0.178793 0.382309 -0.105582
v 0.170911 0.390190 -0.105582
v 0.168026 0.400957 -0.105582
v 0.170911 0.411723 -0.105582
v 0.178793 0.419605 -0.105582
v 0.189559 0.419760 -0.108815
v 0.198961 0.417241 -0.108815
v 0.205844 0.410359 -0.108815
v 0.208363 0.400957 -0.108815
v 0.205844 0.391555 -0.108815
v 0.198961 0.384672 -0.108815
v 0.189559 0.382153 -0.108815
v 0.180157 0.384672 -0.108815
v 0.173275 0.391555 -0.108815
v 0.170755 0.400957 -0.108815
v 0.173275 0.410359 -0.108815
v 0.180157 0.417241 -0.108815
v 0.189559 0.421344 -0.111984
v 0.199753 0.418613 -0.111984
v 0.207215 0.411151 -0.111984
v 0.209947 0.400957 -0.111984
v 0.207215 0.390763 -0.111984
v 0.199753 0.383301 -0.111984
v 0.189559 0.380569 -0.111984
v 0.179365 0.383301 -0.111984
v 0.171903 0.390763 -0.111984
v 0.169172 0.400957 -0.111984
v 0.171903 0.411151 -0.111984
v 0.179365 0.418613 -0.111984
v 0.189559 0.410613 -0.116361
v 0.194387 0.409319 -0.116361
v 0.197922 0.405785 -0.116361
v 0.199215 0.400957 -0.116361
v 0.197922 0.396129 -0.116361
v 0.194387 0.392594 -0.116361
v 0.189559 0.391301 -0.116361
v 0.184731 0.392594 -0.116361
v 0.181197 0.396129 -0.116361
v 0.179903 0.400957 -0.116361
v 0.181197 0.405785 -0.116361
v 0.184731 0.409319 -0.116361
v 0.197167 0.414134 0.065234
v 0.189559 0.416173 0.065234
v 0.202736 0.408565 0.065234
v 0.204775 0.400957 0.065234
v 0.202736 0.393349 0.065234
v 0.197167 0.387779 0.065234
v 0.189559 0.385741 0.065234
v 0.181951 0.387779 0.065234
v 0.176382 0.393349 0.065234
v 0.174343 0.400957 0.065234
v 0.176382 0.408565 0.065234
v 0.181951 0.414134 0.065234
v 0.193509 0.407798 0.086428
v 0.189559 0.408857 0.086428
v 0.196401 0.404907 0.086428
v 0.197459 0.400957 0.086428
v 0.196401 0.397007 0.086428
v 0.193509 0.394115 0.086428
v 0.189559 0.393057 0.086428
v 0.185609 0.394115 0.086428
v 0.182718 0.397007 0.086428
v 0.181659 0.400957 0.086428
v 0.182718 0.404907 0.086428
v 0.185609 0.407798 0.086428
v 0.189559 0.421109 0.012566
v 0.189559 0.418168 0.032113
v 0.198165 0.415862 0.032113
v 0.199635 0.418409 0.012566
v 0.204464 0.409562 0.032113
v 0.207011 0.411033 0.012566
v 0.206770 0.400957 0.032113
v 0.209711 0.400957 0.012566
v 0.204464 0.392351 0.032113
v 0.207011 0.390881 0.012566
v 0.198165 0.386052 0.032113
v 0.199635 0.383505 0.012566
v 0.189559 0.383746 0.032113
v 0.189559 0.380805 0.012566
v 0.180954 0.386052 0.032113
v 0.179483 0.383505 0.012566
v 0.174654 0.392351 0.032113
v 0.172107 0.390881 0.012566
v 0.172348 0.400957 0.032113
v 0.169407 0.400957 0.012566
v 0.174654 0.409562 0.032113
v 0.172107 0.411033 0.012566
v 0.180954 0.415862 0.032113
v 0.179483 0.418409 0.012566
v 0.189559 0.421344 -0.116361
v 0.199753 0.418613 -0.116361
v 0.207215 0.411151 -0.116361
v 0.209947 0.400957 -0.116361
v 0.207215 0.390763 -0.116361
v 0.199753 0.383301 -0.116361
v 0.189559 0.380569 -0.116361
v 0.179365 0.383301 -0.116361
v 0.171903 0.390763 -0.116361
v 0.169172 0.400957 -0.116361
v 0.171903 0.411151 -0.116361
v 0.179365 0.418613 -0.116361
v 0.189559 0.410613 -0.111730
v 0.194387 0.409319 -0.111730
v 0.197922 0.405785 -0.111730
v 0.199215 0.400957 -0.111730
v 0.197922 0.396129 -0.111730
v 0.194387 0.392594 -0.111730
v 0.189559 0.391301 -0.111730
v 0.184731 0.392594 -0.111730
v 0.181197 0.396129 -0.111730
v 0.179903 0.400957 -0.111730
v 0.181197 0.405785 -0.111730
v 0.184731 0.409319 -0.111730
vn -0.2588 0.9659 0.0113
vn 0.7059 0.7059 0.0581
vn 0.9643 0.2584 0.0581
vn 0.9643 -0.2584 0.0581
vn 0.7059 -0.7059 0.0581
vn 0.2584 -0.9643 0.0581
vn -0.2584 -0.9643 0.0581
vn -0.7059 -0.7059 0.0581
vn -0.9643 -0.2584 0.0581
vn -0.9643 0.2584 0.0581
vn -0.9659 0.2588 0.0113
vn -0.7059 0.7059 0.0581
vn -0.2584 0.9643 0.0581
vn 0.2588 0.9659 -0.0000
vn -0.0000 -0.0000 -1.0000
vn -0.6368 0.6368 0.4348
vn -0.7071 -0.7071 -0.0000
vn 0.7071 -0.7071 -0.0000
vn -0.2588 0.9659 -0.0000
vn 0.7071 0.7071 -0.0000
vn -0.9659 -0.2588 -0.0000
vn 0.2588 -0.9659 -0.0000
vn 0.9659 0.2588 -0.0000
vn -0.9659 0.2588 -0.0000
vn -0.2588 -0.9659 -0.0000
vn 0.9659 -0.2588 -0.0000
vn -0.7071 0.7071 -0.0000
vn 0.2331 0.8698 0.4348
vn -0.6368 -0.6368 0.4348
vn 0.6368 -0.6368 0.4348
vn -0.2331 0.8698 0.4348
vn 0.6368 0.6368 0.4348
vn -0.8698 -0.2331 0.4348
vn 0.2331 -0.8698 0.4348
vn 0.8698 0.2331 0.4348
vn -0.8698 0.2331 0.4348
vn -0.2331 -0.8698 0.4348
vn 0.8698 -0.2331 0.4348
vn -0.2455 -0.9163 0.3163
vn -0.9659 -0.2588 0.0113
vn -0.7071 -0.7071 0.0113
vn -0.2588 -0.9659 0.0113
vn 0.2588 -0.9659 0.0113
vn 0.7071 -0.7071 0.0113
vn 0.7071 0.7071 0.0113
vn 0.2588 0.9659 0.0113
vn 0.9659 -0.2588 0.0113
vn 0.9659 0.2588 0.0113
vn -0.7071 0.7071 0.0113
vn -0.0000 -0.0000 1.0000
vn 0.9163 -0.2455 0.3163
vn -0.6708 0.6708 0.3163
vn 0.2455 0.9163 0.3163
vn -0.6708 -0.6708 0.3163
vn 0.6708 -0.6708 0.3163
vn -0.2455 0.9163 0.3163
vn 0.6708 0.6708 0.3163
vn -0.9163 -0.2455 0.3163
vn 0.2455 -0.9163 0.3163
vn 0.9163 0.2455 0.3163
vn -0.9163 0.2455 0.3163
vn 0.2561 0.9559 0.1438
vn 0.6998 0.6998 0.1438
vn 0.9559 0.2561 0.1438
vn 0.9559 -0.2561 0.1438
vn 0.6998 -0.6998 0.1438
vn 0.2561 -0.9559 0.1438
vn -0.2561 -0.9559 0.1438
vn -0.6998 -0.6998 0.1438
vn -0.9559 -0.2561 0.1438
vn -0.9559 0.2561 0.1438
vn -0.6998 0.6998 0.1438
vn -0.2561 0.9559 0.1438
vn 0.2584 0.9643 0.0581
vt 0.083333 0.500000
vt 0.083333 0.963709
vt 0.000000 0.963709
vt 0.000000 0.500000
vt 0.833333 1.000000
vt 0.916667 1.000000
vt 0.916667 1.000000
vt 0.750000 1.000000
vt 0.666667 1.000000
vt 0.583333 1.000000
vt 0.500000 1.000000
vt 0.416667 1.000000
vt 0.333333 1.000000
vt 0.416667 1.000000
vt 0.250000 1.000000
vt 0.166667 1.000000
vt 0.250000 0.500000
vt 0.250000 0.963709
vt 0.166667 0.963709
vt 0.166667 0.500000
vt 0.083333 1.000000
vt 0.000000 1.000000
vt 0.750000 0.459579
vt 0.854790 0.431501
vt 0.750000 0.490000
vt 0.870000 0.457846
vt 0.931501 0.354790
vt 0.957846 0.370000
vt 0.959579 0.250000
vt 0.990000 0.250000
vt 0.931501 0.145210
vt 0.957846 0.130000
vt 0.854790 0.068499
vt 0.870000 0.042154
vt 0.750000 0.040421
vt 0.750000 0.010000
vt 0.645210 0.068499
vt 0.630000 0.042154
vt 0.568499 0.145210
vt 0.542154 0.130000
vt 0.540421 0.250000
vt 0.510000 0.250000
vt 0.568499 0.354790
vt 0.542154 0.370000
vt 0.645210 0.431501
vt 0.630000 0.457846
vt 0.650737 0.250000
vt 0.664036 0.299631
vt 0.333333 0.500000
vt 0.333333 0.963709
vt 0.250000 0.963709
vt 0.416667 0.500000
vt 0.416667 0.963709
vt 0.333333 0.963709
vt 0.500000 0.500000
vt 0.500000 0.963709
vt 0.416667 0.963709
vt 0.583333 0.500000
vt 0.583333 0.963709
vt 0.666667 0.500000
vt 0.666667 0.963709
vt 0.583333 0.963709
vt 0.916667 0.500000
vt 0.916667 0.963709
vt 0.833333 0.963709
vt 0.833333 0.500000
vt 1.000000 0.500000
vt 1.000000 0.963709
vt 0.916667 0.963709
vt 0.750000 0.500000
vt 0.750000 0.963709
vt 0.666667 0.963709
vt 0.166667 0.963709
vt 0.370000 0.457846
vt 0.250000 0.490000
vt 0.130000 0.457846
vt 0.042154 0.370000
vt 0.010000 0.250000
vt 0.042154 0.130000
vt 0.130000 0.042154
vt 0.250000 0.010000
vt 0.370000 0.042154
vt 0.457846 0.130000
vt 0.490000 0.250000
vt 0.457846 0.370000
vt 1.000000 1.000000
vt 0.799631 0.335964
vt 0.750000 0.349263
vt 0.835964 0.299631
vt 0.849263 0.250000
vt 0.835964 0.200369
vt 0.799631 0.164036
vt 0.750000 0.150737
vt 0.700369 0.164036
vt 0.664036 0.200369
vt 0.700369 0.335964
s 1
f 24/1/1 108/2/1 85/3/1 13/4/1
f 89/5/2 87/6/2 61/7/2 63/5/2
f 91/8/3 89/5/3 63/5/3 64/8/3
f 93/9/4 91/8/4 64/8/4 65/9/4
f 95/10/5 93/9/5 65/9/5 66/10/5
f 97/11/6 95/10/6 66/10/6 67/11/6
f 99/12/7 97/11/7 67/11/7 68/12/7
f 101/13/8 99/14/8 68/12/8 69/13/8
f 103/15/9 101/13/9 69/13/9 70/15/9
f 105/16/10 103/15/10 70/15/10 71/16/10
f 22/17/11 104/18/11 106/19/11 23/20/11
f 107/21/12 105/16/12 71/16/12 72/21/12
f 86/22/13 107/21/13 72/21/13 62/22/13
f 1/23/14 2/24/14 26/24/14 25/23/14
f 2/24/15 1/23/15 13/25/15 14/26/15
f 3/27/15 2/24/15 14/26/15 15/28/15
f 4/29/15 3/27/15 15/28/15 16/30/15
f 5/31/15 4/29/15 16/30/15 17/32/15
f 6/33/15 5/31/15 17/32/15 18/34/15
f 7/35/15 6/33/15 18/34/15 19/36/15
f 8/37/15 7/35/15 19/36/15 20/38/15
f 9/39/15 8/37/15 20/38/15 21/40/15
f 10/41/15 9/39/15 21/40/15 22/42/15
f 11/43/15 10/41/15 22/42/15 23/44/15
f 12/45/15 11/43/15 23/44/15 24/46/15
f 1/23/15 12/45/15 24/46/15 13/25/15
f 35/43/16 36/45/16 48/45/16 47/43/16
f 8/37/17 9/39/17 33/39/17 32/37/17
f 5/31/18 6/33/18 30/33/18 29/31/18
f 12/45/19 1/23/19 25/23/19 36/45/19
f 2/24/20 3/27/20 27/27/20 26/24/20
f 9/39/21 10/41/21 34/41/21 33/39/21
f 6/33/22 7/35/22 31/35/22 30/33/22
f 3/27/23 4/29/23 28/29/23 27/27/23
f 10/41/24 11/43/24 35/43/24 34/41/24
f 7/35/25 8/37/25 32/37/25 31/35/25
f 4/29/26 5/31/26 29/31/26 28/29/26
f 11/43/27 12/45/27 36/45/27 35/43/27
f 40/29/26 41/31/26 113/31/26 112/29/26
f 25/23/28 26/24/28 38/24/28 37/23/28
f 32/37/29 33/39/29 45/39/29 44/37/29
f 29/31/30 30/33/30 42/33/30 41/31/30
f 36/45/31 25/23/31 37/23/31 48/45/31
f 26/24/32 27/27/32 39/27/32 38/24/32
f 33/39/33 34/41/33 46/41/33 45/39/33
f 30/33/34 31/35/34 43/35/34 42/33/34
f 27/27/35 28/29/35 40/29/35 39/27/35
f 34/41/36 35/43/36 47/43/36 46/41/36
f 31/35/37 32/37/37 44/37/37 43/35/37
f 28/29/38 29/31/38 41/31/38 40/29/38
f 58/47/26 59/48/26 131/48/26 130/47/26
f 47/43/27 48/45/27 120/45/27 119/43/27
f 37/23/14 38/24/14 110/24/14 109/23/14
f 44/37/17 45/39/17 117/39/17 116/37/17
f 41/31/18 42/33/18 114/33/18 113/31/18
f 48/45/19 37/23/19 109/23/19 120/45/19
f 38/24/20 39/27/20 111/27/20 110/24/20
f 45/39/21 46/41/21 118/41/21 117/39/21
f 42/33/22 43/35/22 115/35/22 114/33/22
f 39/27/23 40/29/23 112/29/23 111/27/23
f 46/41/24 47/43/24 119/43/24 118/41/24
f 43/35/25 44/37/25 116/37/25 115/35/25
f 68/12/39 67/11/39 79/11/39 80/12/39
f 21/49/40 102/50/40 104/51/40 22/17/40
f 20/52/41 100/53/41 102/54/41 21/49/41
f 19/55/42 98/56/42 100/57/42 20/52/42
f 18/58/43 96/59/43 98/56/43 19/55/43
f 17/60/44 94/61/44 96/62/44 18/58/44
f 14/63/45 88/64/45 90/65/45 15/66/45
f 13/67/46 85/68/46 88/69/46 14/63/46
f 16/70/47 92/71/47 94/72/47 17/60/47
f 15/66/48 90/65/48 92/71/48 16/70/48
f 23/20/49 106/73/49 108/2/49 24/1/49
f 73/74/50 74/75/50 84/76/50 83/77/50 82/78/50 81/79/50 80/80/50 79/81/50 78/82/50 77/83/50 76/84/50 75/85/50
f 65/9/51 64/8/51 76/8/51 77/9/51
f 72/21/52 71/16/52 83/16/52 84/21/52
f 61/7/53 62/86/53 74/86/53 73/7/53
f 69/13/54 68/12/54 80/12/54 81/13/54
f 66/10/55 65/9/55 77/9/55 78/10/55
f 62/22/56 72/21/56 84/21/56 74/22/56
f 63/5/57 61/7/57 73/7/57 75/5/57
f 70/15/58 69/13/58 81/13/58 82/15/58
f 67/11/59 66/10/59 78/10/59 79/11/59
f 64/8/60 63/5/60 75/5/60 76/8/60
f 71/16/61 70/15/61 82/15/61 83/16/61
f 88/69/62 85/68/62 86/86/62 87/7/62
f 90/65/63 88/64/63 87/6/63 89/5/63
f 92/71/64 90/65/64 89/5/64 91/8/64
f 94/72/65 92/71/65 91/8/65 93/9/65
f 96/62/66 94/61/66 93/9/66 95/10/66
f 98/56/67 96/59/67 95/10/67 97/11/67
f 100/57/68 98/56/68 97/11/68 99/12/68
f 102/54/69 100/53/69 99/14/69 101/13/69
f 104/51/70 102/50/70 101/13/70 103/15/70
f 106/19/71 104/18/71 103/15/71 105/16/71
f 108/2/72 106/73/72 105/16/72 107/21/72
f 85/3/73 108/2/73 107/21/73 86/22/73
f 87/7/74 86/86/74 62/86/74 61/7/74
f 50/87/15 49/88/15 109/23/15 110/24/15
f 51/89/15 50/87/15 110/24/15 111/27/15
f 52/90/15 51/89/15 111/27/15 112/29/15
f 53/91/15 52/90/15 112/29/15 113/31/15
f 54/92/15 53/91/15 113/31/15 114/33/15
f 55/93/15 54/92/15 114/33/15 115/35/15
f 56/94/15 55/93/15 115/35/15 116/37/15
f 57/95/15 56/94/15 116/37/15 117/39/15
f 58/47/15 57/95/15 117/39/15 118/41/15
f 59/48/15 58/47/15 118/41/15 119/43/15
f 60/96/15 59/48/15 119/43/15 120/45/15
f 49/88/15 60/96/15 120/45/15 109/23/15
f 121/88/15 122/87/15 123/89/15 124/90/15 125/91/15 126/92/15 127/93/15 128/94/15 129/95/15 130/47/15 131/48/15 132/96/15
f 55/93/14 56/94/14 128/94/14 127/93/14
f 52/90/24 53/91/24 125/91/24 124/90/24
f 59/48/18 60/96/18 132/96/18 131/48/18
f 49/88/25 50/87/25 122/87/25 121/88/25
f 56/94/20 57/95/20 129/95/20 128/94/20
f 53/91/27 54/92/27 126/92/27 125/91/27
f 60/96/22 49/88/22 121/88/22 132/96/22
f 50/87/17 51/89/17 123/89/17 122/87/17
f 57/95/23 58/47/23 130/47/23 129/95/23
f 54/92/19 55/93/19 127/93/19 126/92/19
f 51/89/21 52/90/21 124/90/21 123/89/21
