# Blender 4.4.3
# www.blender.org
mtllib Mag2.mtl
o Cube.010
v 0.240826 0.370684 0.113516
v 0.240826 0.370684 -0.143158
v 0.136573 0.370684 0.113516
v 0.136573 0.370684 -0.143158
v 0.265348 0.380497 -0.156450
v 0.265348 0.113240 -0.156450
v 0.265348 0.113240 0.126808
v 0.265348 0.380497 0.126808
v 0.294500 0.380497 -0.156450
v 0.294500 0.113240 -0.156450
v 0.294500 0.113240 0.126808
v 0.294500 0.380497 0.126808
v 0.224210 0.396128 -0.123784
v 0.224210 0.396128 0.094142
v 0.153188 0.396128 0.094142
v 0.153188 0.396128 -0.123784
v -0.128648 0.136636 0.108251
v -0.115067 0.123054 0.108251
v -0.115067 0.136636 0.121833
v -0.128648 0.136636 -0.137893
v -0.115067 0.136636 -0.151475
v -0.115067 0.123054 -0.137893
v 0.251745 0.136636 0.121833
v 0.251745 0.123054 0.108251
v 0.262305 0.115436 0.125695
v 0.251745 0.123054 -0.137893
v 0.251745 0.136636 -0.151475
v 0.262305 0.115436 -0.155337
v -0.115067 0.313080 0.121833
v -0.128648 0.318706 0.108251
v -0.115067 0.313080 -0.151475
v -0.128648 0.318706 -0.137893
v 0.251745 0.357102 -0.151475
v 0.240826 0.370684 -0.143158
v 0.251745 0.370684 -0.137893
v 0.262305 0.378301 -0.155337
v 0.240826 0.370684 0.113516
v 0.251745 0.357102 0.121833
v 0.262305 0.378301 0.125695
v 0.251745 0.370684 0.108251
v -0.061266 0.357102 0.121833
v -0.053311 0.370684 0.108251
v -0.076496 0.361080 0.108251
v -0.053311 0.370684 -0.137893
v -0.061266 0.357102 -0.151475
v -0.076496 0.361080 -0.137893
v 0.233146 0.396128 -0.132720
v 0.233146 0.396128 0.103077
v 0.144252 0.396128 0.103077
v 0.144252 0.396128 -0.132720
v 0.224210 0.241738 -0.123784
v 0.224210 0.241738 0.094142
v 0.153188 0.241738 0.094142
v 0.153188 0.241738 -0.123784
vn -0.9573 0.2889 -0.0000
vn -0.0000 -1.0000 -0.0000
vn -0.0000 -0.0000 -1.0000
vn -0.0000 -0.0000 1.0000
vn -0.5851 -0.8110 -0.0000
vn -0.0000 1.0000 -0.0000
vn -1.0000 -0.0000 -0.0000
vn -0.6306 0.7761 -0.0000
vn -0.3435 -0.0000 -0.9392
vn -0.3435 -0.0000 0.9392
vn 1.0000 -0.0000 -0.0000
vn -0.5851 0.8110 -0.0000
vn -0.0000 0.3796 0.9252
vn 0.9573 0.2889 -0.0000
vn -0.0000 0.3796 -0.9252
vn -0.5774 -0.5773 0.5774
vn -0.5774 -0.5773 -0.5774
vn -0.8590 -0.3620 0.3620
vn -0.8590 -0.3620 -0.3620
vn -0.5460 0.5924 -0.5924
vn -0.5460 0.5924 0.5924
vn -0.3136 0.7570 0.5733
vn -0.3136 0.7570 -0.5733
vn -0.7071 -0.7071 -0.0000
vn -0.0000 -0.7071 -0.7071
vn -0.0000 -0.7071 0.7071
vn -0.4595 0.5635 0.6866
vn -0.3827 0.9239 -0.0000
vn -0.4595 0.5635 -0.6866
vn -0.0068 0.6272 0.7789
vn -0.7071 -0.0000 0.7071
vn -0.7071 -0.0000 -0.7071
vn -0.0068 0.6272 -0.7789
vt 0.791453 0.518736
vt 0.791452 0.731264
vt 0.634830 0.518736
vt 0.976755 0.530598
vt 0.381299 0.256100
vt 0.535928 0.255809
vt 0.618701 0.327006
vt 0.618701 0.500000
vt 0.381299 0.500000
vt 0.381299 0.750000
vt 0.618701 0.750000
vt 0.618701 0.922994
vt 0.535928 0.994191
vt 0.381299 0.993900
vt 0.375000 0.750000
vt 0.375000 0.737577
vt 0.375000 0.512423
vt 0.375000 0.500000
vt 0.634830 0.731264
vt 0.625000 0.737577
vt 0.625000 0.512423
vt 0.381299 0.012423
vt 0.538537 0.012423
vt 0.538537 0.237577
vt 0.381299 0.237577
vt 0.625000 0.500000
vt 0.625000 0.750000
vt 0.620546 0.012423
vt 0.620546 0.237577
vt 0.538537 0.237577
vt 0.538537 0.012423
vt 0.381299 0.500000
vt 0.381299 0.750000
vt 0.625000 0.512423
vt 0.625000 0.737577
vt 0.800753 0.512810
vt 0.800753 0.737190
vt 0.976755 0.719402
vt 0.775708 0.723210
vt 0.650574 0.723210
vt 0.125000 0.737577
vt 0.131131 0.737577
vt 0.131131 0.750000
vt 0.125000 0.512423
vt 0.131131 0.500000
vt 0.131131 0.512423
vt 0.625000 0.494760
vt 0.625000 0.755240
vt 0.625000 0.919765
vt 0.620546 0.930080
vt 0.625000 0.330235
vt 0.620546 0.319920
vt 0.375000 0.737577
vt 0.620546 0.930080
vt 0.538537 1.000000
vt 0.625000 0.012423
vt 0.625000 0.237577
vt 0.538537 0.250000
vt 0.381299 0.000000
vt 0.535928 0.000000
vt 0.625000 0.330235
vt 0.650574 0.526790
vt 0.775708 0.526790
s 0
f 4/1/1 3/2/1 49/2/1 50/1/1
f 4/1/2 2/3/2 34/3/2 44/4/2
f 21/5/3 31/6/3 45/7/3 33/8/3 27/9/3
f 23/10/4 38/11/4 41/12/4 29/13/4 19/14/4
f 25/15/5 24/16/5 26/17/5 28/18/5 6/18/5 7/15/5
f 2/3/6 1/19/6 37/19/6 40/20/6 35/21/6 34/3/6
f 17/22/7 30/23/7 32/24/7 20/25/7
f 5/26/6 8/27/6 12/27/6 9/26/6
f 43/28/8 46/29/8 32/30/8 30/31/8
f 28/18/9 27/32/9 33/8/9 36/26/9 5/26/9 6/18/9
f 39/27/10 38/11/10 23/33/10 25/15/10 7/15/10 8/27/10
f 10/18/11 9/26/11 12/27/11 11/15/11
f 6/18/3 5/26/3 9/26/3 10/18/3
f 8/27/4 7/15/4 11/15/4 12/27/4
f 7/15/2 6/18/2 10/18/2 11/15/2
f 36/26/12 35/34/12 40/35/12 39/27/12 8/27/12 5/26/12
f 3/2/6 4/1/6 44/36/6 42/37/6
f 1/19/2 3/2/2 42/38/2 37/19/2
f 15/39/3 14/40/3 52/40/3 53/39/3
f 3/2/13 1/19/13 48/19/13 49/2/13
f 1/19/14 2/3/14 47/3/14 48/19/14
f 2/3/15 4/1/15 50/1/15 47/3/15
f 17/41/16 18/42/16 19/43/16
f 20/44/17 21/45/17 22/46/17
f 23/15/18 24/16/18 25/15/18
f 26/17/19 27/18/19 28/18/19
f 33/8/20 34/47/20 35/26/20 36/26/20
f 37/48/21 38/11/21 39/27/21 40/27/21
f 41/12/22 42/49/22 43/50/22
f 44/51/23 45/7/23 46/52/23
f 22/46/24 18/42/24 17/41/24 20/44/24
f 26/17/25 22/46/25 21/45/25 27/18/25
f 18/42/26 24/53/26 23/15/26 19/43/26
f 29/13/27 41/12/27 43/54/27 30/55/27
f 42/56/28 44/57/28 46/29/28 43/28/28
f 45/7/29 31/6/29 32/58/29 46/52/29
f 37/48/30 42/49/30 41/12/30 38/11/30
f 30/23/31 17/22/31 19/59/31 29/60/31
f 31/6/32 21/5/32 20/25/32 32/24/32
f 33/8/33 45/7/33 44/61/33 34/47/33
f 22/46/2 26/17/2 24/53/2 18/42/2
f 13/62/6 14/40/6 48/19/6 47/3/6
f 15/39/6 16/63/6 50/1/6 49/2/6
f 14/40/6 15/39/6 49/2/6 48/19/6
f 16/63/6 13/62/6 47/3/6 50/1/6
f 51/62/6 54/63/6 53/39/6 52/40/6
f 14/40/7 13/62/7 51/62/7 52/40/7
f 13/62/4 16/63/4 54/63/4 51/62/4
f 16/63/11 15/39/11 53/39/11 54/63/11
