# Blender 4.4.3
# www.blender.org
mtllib Main.mtl
o Cube.001
v -0.018357 0.308674 -0.376482
v 0.018357 0.308674 -0.376482
v -0.018357 0.187668 -0.224667
v -0.018357 0.238686 -0.173650
v -0.018357 0.202611 -0.188592
v 0.018357 0.238686 -0.173650
v 0.018357 0.187668 -0.224667
v 0.018357 0.202611 -0.188592
v -0.018357 0.219964 -0.376482
v -0.018357 0.187668 -0.344187
v -0.018357 0.197128 -0.367023
v 0.018357 0.187668 -0.344187
v 0.018357 0.219964 -0.376482
v 0.018357 0.197128 -0.367023
v -0.018357 0.267611 -0.171678
v -0.018357 0.308674 -0.177743
v 0.018357 0.308674 -0.177743
v 0.018357 0.267611 -0.171678
v 0.018357 0.301636 -0.189312
v 0.018357 0.269701 -0.184595
v 0.018357 0.301636 -0.363090
v 0.018357 0.210452 -0.355734
v 0.018357 0.228211 -0.363090
v 0.018357 0.247208 -0.186128
v 0.018357 0.203096 -0.337975
v 0.018357 0.203096 -0.225803
v 0.018357 0.214717 -0.197749
v -0.018357 0.301636 -0.189312
v -0.018357 0.269701 -0.184595
v -0.018357 0.247208 -0.186128
v -0.018357 0.214717 -0.197749
v -0.018357 0.301636 -0.363090
v -0.018357 0.203096 -0.225803
v -0.018357 0.210452 -0.355734
v -0.018357 0.228211 -0.363090
v -0.018357 0.203096 -0.337975
v 0.112645 0.429992 0.088752
v 0.072887 0.473065 0.088752
v 0.112645 0.429992 -0.124467
v 0.072887 0.473065 -0.124467
v 0.151199 0.471461 0.088752
v 0.100347 0.522583 0.088752
v 0.151199 0.471461 -0.124467
v 0.100347 0.522583 -0.124467
v 0.062404 0.514452 -0.120335
v 0.062404 0.589131 -0.120335
v 0.062404 0.514452 -0.136198
v 0.062404 0.589131 -0.136198
v 0.101703 0.514452 -0.120335
v 0.101703 0.589131 -0.120335
v 0.094926 0.514452 -0.136198
v 0.094926 0.589130 -0.136198
v 0.131156 0.589130 -0.164948
v 0.131156 0.514452 -0.164948
v 0.137933 0.514452 -0.148487
v 0.137933 0.589130 -0.148487
v 0.062404 0.514452 0.095954
v 0.062404 0.589131 0.095954
v 0.062404 0.514452 0.112015
v 0.062404 0.589131 0.112015
v 0.101703 0.514452 0.095954
v 0.101703 0.589131 0.095954
v 0.094926 0.514452 0.112015
v 0.094926 0.589130 0.112015
v 0.131156 0.589130 0.141123
v 0.131156 0.514452 0.141123
v 0.137933 0.514452 0.124457
v 0.137933 0.589130 0.124457
v -0.089399 0.379147 0.192401
v -0.081949 0.551229 -0.654116
v -0.081949 0.494133 -0.654116
v -0.074927 0.523678 0.100724
v -0.089399 0.585075 0.192401
v -0.081949 0.551229 0.186963
v -0.081949 0.494133 0.186963
v -0.074927 0.523678 -0.121159
v -0.089399 0.379147 -0.757987
v -0.089399 0.585075 -0.833797
v 0.089399 0.379147 0.192401
v 0.089399 0.585075 0.192401
v 0.089399 0.379147 -0.757987
v 0.089399 0.585075 -0.833797
v -0.100357 0.488797 0.192401
v -0.100357 0.557440 0.192401
v -0.100357 0.557440 -0.823623
v -0.100357 0.488797 -0.798353
v 0.100357 0.557440 -0.823623
v 0.100357 0.488797 -0.798353
v 0.100357 0.557440 0.192401
v 0.100357 0.488797 0.192401
v -0.089399 0.473845 -0.792849
v 0.089399 0.473845 -0.792849
v 0.089399 0.473845 0.192401
v -0.089399 0.473845 0.192401
v -0.089399 0.571257 0.192401
v -0.089399 0.571257 -0.828710
v 0.089399 0.571257 -0.828710
v 0.089399 0.571257 0.192401
v 0.089399 0.585075 0.100724
v 0.089399 0.585075 -0.121159
v 0.089399 0.571257 0.100724
v 0.089399 0.571257 -0.121159
v -0.074927 0.585075 0.100724
v -0.074927 0.585075 -0.121159
v 0.100357 0.557440 0.100724
v 0.100357 0.557440 -0.121159
v 0.100357 0.523678 0.100724
v 0.100357 0.523678 -0.121159
v -0.089399 0.585075 -0.055702
v -0.089399 0.585075 0.055702
v -0.089399 0.572797 0.055702
v -0.089399 0.572797 -0.055702
v -0.074927 0.585075 0.055702
v -0.074927 0.585075 -0.055702
v -0.074927 0.572797 0.055702
v -0.074927 0.572797 -0.055702
v -0.100357 0.494133 0.186963
v -0.100357 0.551229 0.186963
v -0.100357 0.551229 -0.654116
v -0.100357 0.494133 -0.654116
v -0.074927 0.523678 0.100724
v -0.075253 0.305880 -0.567777
v -0.074927 0.611896 0.100724
v -0.075253 0.591784 -0.567777
v -0.074927 0.523678 -0.121159
v -0.075253 0.591784 -0.152957
v -0.075253 0.591784 -0.772425
v 0.075253 0.305880 -0.567777
v 0.075253 0.591784 -0.567777
v -0.075253 0.305880 -0.152957
v 0.075253 0.591784 -0.772425
v -0.075253 0.320447 -0.724961
v -0.075253 0.305880 -0.629040
v -0.075253 0.320627 -0.654290
v 0.075253 0.305880 -0.629040
v 0.075253 0.320447 -0.724962
v 0.075253 0.320627 -0.654290
v 0.075253 0.591784 -0.152957
v 0.075253 0.305880 -0.152957
v -0.075253 0.387234 -0.567777
v 0.075253 0.387234 -0.567777
v 0.075253 0.591784 0.188701
v -0.075253 0.591784 0.188701
v -0.075253 0.387234 0.188701
v 0.075253 0.387234 0.188701
v 0.075253 0.387234 -0.134182
v 0.075253 0.368459 -0.152957
v 0.075253 0.387234 -0.171732
v 0.075253 0.406009 -0.152957
v -0.075253 0.368459 -0.152957
v -0.075253 0.387234 -0.134182
v -0.075253 0.406009 -0.152957
v -0.075253 0.387234 -0.171732
v -0.075253 0.591784 0.099959
v 0.061992 0.655645 0.099959
v 0.075253 0.641013 0.099959
v -0.075253 0.641013 0.099959
v -0.061992 0.655645 0.099959
v 0.075253 0.591784 -0.121159
v 0.075253 0.523678 -0.121159
v 0.075253 0.591784 0.100724
v 0.075253 0.523678 0.100724
v -0.074927 0.591784 -0.121159
v -0.074927 0.591784 0.099959
v 0.075253 0.611896 0.100724
v 0.075253 0.611896 0.099959
v -0.074927 0.611896 0.099959
v -0.075253 0.591784 0.055702
v -0.075253 0.572797 0.055702
v -0.075253 0.572797 -0.055702
v -0.075253 0.591784 -0.055702
v -0.074927 0.591784 0.055702
v -0.074927 0.591784 -0.055702
v -0.074927 0.572797 0.055702
v -0.074927 0.572797 -0.055702
v 0.075253 0.641013 0.157892
v 0.075253 0.622320 0.188701
v 0.061992 0.655645 0.157892
v 0.054323 0.635216 0.188701
v -0.061992 0.655645 0.157892
v -0.054323 0.635216 0.188701
v -0.075253 0.622320 0.188701
v -0.075253 0.641013 0.157892
vn 1.0000 -0.0000 -0.0000
vn -0.0000 -0.9808 -0.1951
vn -0.0000 -0.9808 0.1951
vn -0.0000 -0.1951 -0.9808
vn -0.0000 -0.0000 -1.0000
vn -0.0000 -0.2283 0.9736
vn -0.0000 0.0393 0.9992
vn -0.0000 -0.9239 0.3827
vn -0.0000 -0.3827 0.9239
vn -0.0000 -0.9239 -0.3827
vn -0.0000 -0.3827 -0.9239
vn -0.0000 1.0000 -0.0000
vn -0.0000 0.1461 0.9893
vn -1.0000 -0.0000 -0.0000
vn -0.0000 0.9808 -0.1951
vn -0.0000 0.9808 0.1951
vn -0.0000 0.1951 0.9808
vn -0.0000 -0.0000 1.0000
vn -0.0000 0.2043 -0.9789
vn -0.0000 -0.0393 -0.9992
vn -0.0000 0.9239 -0.3827
vn -0.0000 0.3368 -0.9416
vn -0.0000 0.9239 0.3827
vn -0.0000 0.3827 0.9239
vn -0.0000 -1.0000 -0.0000
vn -0.0000 -0.1461 -0.9893
vn -0.7348 -0.6783 -0.0000
vn 0.7090 0.7052 -0.0000
vn 0.7324 -0.6809 -0.0000
vn -0.8745 0.4850 -0.0000
vn 0.6136 -0.0000 0.7896
vn 0.9247 -0.0000 -0.3807
vn -0.6216 -0.0000 -0.7833
vn 0.6183 -0.0000 -0.7859
vn 0.9264 -0.0000 0.3767
vn -0.6263 -0.0000 0.7796
vn -0.0000 -0.3455 -0.9384
vn 0.8066 -0.5911 -0.0000
vn -0.8066 -0.5911 -0.0000
vn 0.7835 0.6214 -0.0000
vn -0.7835 0.6214 -0.0000
vn -0.0000 -0.1723 -0.9850
vn -0.0000 -0.8635 -0.5043
vn -0.0000 -1.0000 0.0026
vn -0.0000 -0.7071 0.7071
vn -0.7410 0.6715 -0.0000
vn 0.7410 0.6715 -0.0000
vn 0.5442 0.6759 0.4969
vn -0.0000 0.8334 0.5526
vn -0.5442 0.6759 0.4969
vt 0.625000 0.738879
vt 0.606358 0.750000
vt 0.581381 0.733765
vt 0.615735 0.725432
vt 0.480404 0.750000
vt 0.405872 0.731582
vt 0.375000 0.687118
vt 0.375000 0.539806
vt 0.394543 0.511659
vt 0.441723 0.500000
vt 0.625000 0.500000
vt 0.610615 0.516176
vt 0.459056 0.516365
vt 0.422364 0.525440
vt 0.407242 0.547296
vt 0.408010 0.685409
vt 0.432330 0.719996
vt 0.513826 0.733523
vt 0.125000 0.539806
vt 0.125000 0.687118
vt 0.441723 0.250000
vt 0.625000 0.250000
vt 0.606358 1.000000
vt 0.480404 1.000000
vt 0.375000 0.750000
vt 0.125000 0.750000
vt 0.375000 1.000000
vt 0.125000 0.500000
vt 0.375000 0.500000
vt 0.375000 0.250000
vt 0.875000 0.500000
vt 0.875000 0.738879
vt 0.625000 0.750000
vt 0.625000 1.000000
vt 0.615735 0.024568
vt 0.625000 0.011121
vt 0.394543 0.238341
vt 0.375000 0.210194
vt 0.375000 0.062882
vt 0.405872 0.018418
vt 0.480404 0.000000
vt 0.606358 0.000000
vt 0.581381 0.016235
vt 0.513826 0.016477
vt 0.432329 0.030004
vt 0.408010 0.064591
vt 0.407242 0.202704
vt 0.422364 0.224560
vt 0.459056 0.233635
vt 0.610615 0.233824
vt 0.275288 0.687118
vt 0.275288 0.539806
vt 0.224712 0.539806
vt 0.224712 0.687118
vt 0.441723 0.349712
vt 0.441723 0.400288
vt 0.625000 0.400288
vt 0.625000 0.349712
vt 0.480404 0.849712
vt 0.480404 0.900288
vt 0.606358 0.900288
vt 0.606358 0.849712
vt 0.224712 0.750000
vt 0.275288 0.750000
vt 0.375000 0.849712
vt 0.375000 0.900288
vt 0.275288 0.500000
vt 0.224712 0.500000
vt 0.375000 0.400288
vt 0.375000 0.349712
vt 0.724712 0.738879
vt 0.775288 0.738879
vt 0.775288 0.500000
vt 0.724712 0.500000
vt 0.625000 0.900288
vt 0.625000 0.849712
vt 0.375000 0.000000
vt 0.625000 0.000000
vt 0.875000 0.750000
vt 0.625000 0.060442
vt 0.608225 0.250000
vt 0.608225 0.000000
vt 0.625000 0.033302
vt 0.610094 0.033450
vt 0.610094 0.060710
vt 0.608225 0.500000
vt 0.608225 0.750000
vt 0.608225 0.727555
vt 0.625000 0.727666
vt 0.608225 0.673230
vt 0.625000 0.673611
vt 0.608225 1.000000
vt 0.875000 0.689558
vt 0.854764 0.689558
vt 0.854764 0.673611
vt 0.854764 0.716698
vt 0.875000 0.716698
vt 0.854764 0.727666
vt 0.489965 0.750000
vt 0.508117 0.750000
vt 0.508117 1.000000
vt 0.489965 1.000000
vt 0.591450 0.750000
vt 0.591450 1.000000
vt 0.489964 0.500000
vt 0.508117 0.500000
vt 0.550463 0.727159
vt 0.591450 0.727442
vt 0.591450 0.500000
vt 0.591450 0.672846
vt 0.550463 0.671878
vt 0.489964 0.250000
vt 0.508117 0.250000
vt 0.591450 0.250000
vt 0.489965 0.000000
vt 0.508117 0.000000
vt 0.514595 0.001362
vt 0.591450 0.000000
vt 0.583911 0.001349
vt 0.514595 0.213193
vt 0.583911 0.208769
vt 0.548991 0.050727
vt 0.548991 0.000000
vt 0.548991 0.250000
vt 0.548991 0.176248
vt 0.514196 0.176248
vt 0.514196 0.050727
vt 0.509834 0.390323
vt 0.548991 0.390322
vt 0.375000 0.399680
vt 0.470676 0.399680
vt 0.548991 1.000000
vt 0.548991 0.859677
vt 0.509833 0.859677
vt 0.470676 0.850320
vt 0.375000 0.850320
vt 0.274680 0.750000
vt 0.274680 0.500000
vt 0.447527 0.340644
vt 0.375000 0.340644
vt 0.375000 0.360871
vt 0.447527 0.360871
vt 0.447527 0.909356
vt 0.447527 0.889129
vt 0.375000 0.889129
vt 0.375000 0.909356
vt 0.215644 0.500000
vt 0.215644 0.750000
vt 0.235871 0.750000
vt 0.235871 0.500000
vt 0.625000 0.369624
vt 0.375000 0.369624
vt 0.375000 0.880376
vt 0.625000 0.880376
vt 0.244624 0.750000
vt 0.244624 0.500000
vt 0.755376 0.750000
vt 0.755376 0.500000
vt 0.389005 0.250000
vt 0.389005 0.500000
vt 0.433442 0.750000
vt 0.375000 0.532161
vt 0.379102 0.508974
vt 0.379102 0.241026
vt 0.375000 0.217839
vt 0.433442 0.000000
vt 0.125000 0.532161
vt 0.451024 0.000000
vt 0.607219 0.000000
vt 0.607219 0.000000
vt 0.419954 0.000000
vt 0.561220 0.750000
vt 0.625000 0.750000
vt 0.433442 0.750000
vt 0.451024 0.750000
vt 0.561220 0.750000
vt 0.433442 1.000000
vt 0.419954 0.750000
vt 0.419954 1.000000
vt 0.874458 0.750000
vt 0.874458 0.750000
vt 0.647028 0.750000
vt 0.852972 0.750000
vt 0.874458 0.750000
vt 0.568003 0.000862
vt 0.625000 0.000862
vt 0.568003 0.250000
vt 0.568003 0.176248
vt 0.514196 0.050727
vt 0.568003 0.050727
vt 0.375000 0.378243
vt 0.568003 0.378243
vt 0.568003 0.871758
vt 0.375000 0.871757
vt 0.625000 0.871757
vt 0.253243 0.750000
vt 0.253243 0.500000
vt 0.746757 0.750000
vt 0.875000 0.749138
vt 0.746757 0.749138
vt 0.487156 0.360415
vt 0.375000 0.360415
vt 0.487156 0.360871
vt 0.375000 0.889585
vt 0.487156 0.889585
vt 0.487156 0.889129
vt 0.235415 0.500000
vt 0.235415 0.750000
vt 0.625000 0.772028
vt 0.625000 0.784766
vt 0.625000 0.977972
vt 0.625000 0.965234
s 1
f 17/1/1 18/2/1 20/3/1 19/4/1
f 20/3/1 18/2/1 6/5/1 8/6/1 7/7/1 12/8/1 14/9/1 13/10/1 2/11/1 17/1/1 19/4/1 21/12/1 23/13/1 22/14/1 25/15/1 26/16/1 27/17/1 24/18/1
f 10/19/2 12/8/2 7/7/3 3/20/3
f 9/21/4 1/22/5 2/11/5 13/10/4
f 6/5/6 18/2/7 15/23/7 4/24/6
f 3/20/3 7/7/3 8/25/8 5/26/8
f 5/27/9 8/25/9 6/5/6 4/24/6
f 12/8/2 10/19/2 11/28/10 14/29/10
f 14/29/11 11/30/11 9/21/4 13/10/4
f 2/11/12 1/31/12 16/32/12 17/1/12
f 17/33/13 16/34/13 15/23/7 18/2/7
f 28/35/14 16/36/14 1/22/14 9/21/14 11/37/14 10/38/14 3/39/14 5/40/14 4/41/14 15/42/14 29/43/14 30/44/14 31/45/14 33/46/14 36/47/14 34/48/14 35/49/14 32/50/14
f 15/42/14 16/36/14 28/35/14 29/43/14
f 26/51/15 25/52/16 36/53/16 33/54/15
f 35/55/17 23/56/17 21/57/18 32/58/18
f 24/59/19 30/60/19 29/61/20 20/62/20
f 31/63/21 27/64/21 26/51/15 33/54/15
f 30/60/19 24/59/19 27/65/22 31/66/22
f 25/52/16 22/67/23 34/68/23 36/53/16
f 22/69/24 23/56/17 35/55/17 34/70/24
f 19/71/25 28/72/25 32/73/25 21/74/25
f 28/75/26 19/76/26 20/62/20 29/61/20
f 37/77/27 38/78/27 40/22/27 39/30/27
f 39/30/5 40/22/5 44/11/5 43/29/5
f 43/29/28 44/11/28 42/33/28 41/25/28
f 41/25/18 42/33/18 38/34/18 37/27/18
f 39/28/29 43/29/29 41/25/29 37/26/29
f 44/11/30 40/31/30 38/79/30 42/33/30
f 45/77/14 46/78/14 48/22/14 47/30/14
f 47/30/5 48/22/5 52/11/5 51/29/5
f 50/33/31 49/25/31 55/25/31 56/33/31
f 49/25/18 50/33/18 46/34/18 45/27/18
f 47/28/25 51/29/25 49/25/25 45/26/25
f 52/11/12 48/31/12 46/79/12 50/33/12
f 54/29/32 53/11/32 56/33/32 55/25/32
f 49/25/25 51/29/25 54/29/25 55/25/25
f 52/11/12 50/33/12 56/33/12 53/11/12
f 51/29/33 52/11/33 53/11/33 54/29/33
f 57/77/14 59/30/14 60/22/14 58/78/14
f 59/30/18 63/29/18 64/11/18 60/22/18
f 62/33/34 68/33/34 67/25/34 61/25/34
f 61/25/5 57/27/5 58/34/5 62/33/5
f 59/28/25 57/26/25 61/25/25 63/29/25
f 64/11/12 62/33/12 58/79/12 60/31/12
f 66/29/35 67/25/35 68/33/35 65/11/35
f 61/25/25 67/25/25 66/29/25 63/29/25
f 64/11/12 65/11/12 68/33/12 62/33/12
f 63/29/36 66/29/36 65/11/36 64/11/36
f 109/80/14 78/22/14 96/81/14 95/82/14 73/78/14 110/83/14 111/84/14 112/85/14
f 96/81/37 78/22/37 82/11/37 97/86/37
f 80/33/1 98/87/1 101/88/1 99/89/1
f 102/90/1 97/86/1 82/11/1 100/91/1
f 98/87/18 80/33/18 73/34/18 95/92/18
f 77/28/25 81/29/25 79/25/25 69/26/25
f 109/93/12 114/94/12 104/95/12 100/91/12 82/11/12 78/31/12
f 113/96/12 110/97/12 73/79/12 80/33/12 99/89/12 103/98/12
f 93/99/18 90/100/18 83/101/18 94/102/18
f 90/100/18 89/103/18 84/104/18 83/101/18
f 92/105/38 88/106/38 90/100/38 93/99/38
f 107/107/1 105/108/1 89/103/1 90/100/1 88/106/1 87/109/1 106/110/1 108/111/1
f 91/112/37 86/113/37 88/106/37 92/105/37
f 86/113/37 85/114/37 87/109/37 88/106/37
f 94/115/39 83/116/39 86/113/39 91/112/39
f 117/117/14 83/116/14 84/118/14 118/119/14
f 84/118/14 85/114/14 86/113/14 83/116/14 117/117/14 120/120/14 119/121/14 118/119/14
f 69/77/14 94/115/14 91/112/14 77/30/14
f 77/30/37 91/112/37 92/105/37 81/29/37
f 81/29/1 92/105/1 93/99/1 79/25/1
f 79/25/18 93/99/18 94/102/18 69/27/18
f 89/103/18 98/87/18 95/92/18 84/104/18
f 98/87/40 89/103/40 105/108/40 101/88/40
f 87/109/40 97/86/40 102/90/40 106/110/40
f 85/114/37 96/81/37 97/86/37 87/109/37
f 84/118/41 95/82/41 96/81/41 85/114/41
f 113/122/1 103/123/1 72/77/1 76/30/1 104/124/1 114/125/1 116/126/1 115/127/1
f 102/128/18 100/129/18 104/124/18 76/30/18 108/130/18 106/131/18
f 103/132/5 99/133/5 101/134/5 105/135/5 107/136/5 72/27/5
f 76/28/12 72/26/12 107/137/12 108/138/12
f 109/139/18 112/140/18 116/141/18 114/142/18
f 110/143/5 113/144/5 115/145/5 111/146/5
f 112/147/12 111/148/12 115/149/12 116/150/12
f 74/30/14 70/77/14 71/78/14 75/22/14
f 74/30/5 75/22/5 117/151/5 118/152/5
f 71/34/18 70/27/18 119/153/18 120/154/18
f 119/155/25 70/26/25 74/28/25 118/156/25
f 75/31/12 71/79/12 120/157/12 117/158/12
f 132/159/42 127/22/42 131/11/42 136/160/42
f 141/161/1 128/25/1 135/162/1 137/163/1 136/160/1 131/11/1 129/33/1
f 129/33/12 124/79/12 126/79/12 138/33/12
f 134/164/14 133/165/14 122/77/14 140/166/14 124/78/14 127/22/14 132/159/14
f 131/11/12 127/31/12 124/79/12 129/33/12
f 135/162/43 133/167/43 134/28/43 137/29/43
f 137/29/44 134/30/44 132/159/44 136/160/44
f 133/167/25 135/162/25 128/25/25 122/26/25
f 153/166/14 152/168/14 126/78/14 124/78/14 140/166/14
f 126/78/14 152/168/14 151/166/14 144/166/14 143/78/14 154/78/14 168/78/14 169/169/14 170/170/14 171/78/14
f 122/26/25 128/25/25 139/25/25 130/26/25
f 150/171/14 153/166/14 140/166/14 122/77/14 130/77/14
f 162/172/1 161/173/1 142/33/1 145/174/1 146/174/1 149/175/1 138/33/1 159/33/1 160/176/1
f 151/177/25 146/174/25 145/174/25 144/177/25
f 145/174/18 142/33/18 143/34/18 144/177/18
f 149/175/1 148/174/1 141/161/1 129/33/1 138/33/1
f 148/174/1 147/178/1 139/25/1 128/25/1 141/161/1
f 146/174/1 147/174/1 148/174/1 149/175/1
f 150/171/14 151/166/14 152/166/14 153/166/14
f 146/174/45 151/177/45 150/179/45 147/178/45
f 139/25/18 147/178/18 150/179/18 130/27/18
f 163/180/12 159/33/12 138/33/12 126/79/12 171/79/12 173/180/12
f 168/79/12 154/79/12 164/181/12 172/181/12
f 155/182/12 158/183/12 180/183/12 178/182/12
f 164/181/5 154/79/5 157/79/5 158/183/5 155/182/5 156/33/5 166/33/5 167/184/5
f 180/78/46 158/78/46 157/78/46 183/78/46
f 165/33/1 166/33/1 156/33/1 176/33/1 177/33/1 142/33/1 161/173/1
f 154/78/14 143/78/14 182/78/14 183/78/14 157/78/14
f 155/182/47 178/182/47 176/33/47 156/33/47
f 164/185/1 167/186/1 123/78/1 121/77/1 125/30/1 163/187/1 173/188/1 175/126/1 174/189/1 172/190/1
f 163/187/18 125/30/18 160/191/18 159/192/18
f 161/193/5 162/194/5 121/27/5 123/34/5 165/195/5
f 125/28/12 121/26/12 162/196/12 160/197/12
f 165/198/25 123/79/25 167/199/25 166/200/25
f 171/201/18 170/202/18 175/141/18 173/203/18
f 174/145/5 169/204/5 168/205/5 172/206/5
f 170/207/12 169/208/12 174/149/12 175/150/12
f 176/33/48 178/209/48 179/210/48 177/33/48
f 178/209/49 180/211/49 181/212/49 179/210/49
f 180/211/50 183/34/50 182/34/50 181/212/50
f 181/212/18 182/34/18 143/34/18 142/33/18 177/33/18 179/210/18
