# Blender 4.4.3
# www.blender.org
mtllib Stock31.mtl
o Cube.034
v -0.021896 0.440920 -1.261817
v -0.021896 0.493078 -1.261817
v 0.000000 0.339112 -1.381760
v -0.021896 0.440920 -1.416270
v 0.019352 0.347659 -1.342082
v -0.021896 0.493078 -1.416270
v 0.019352 0.347659 -1.381760
v 0.021896 0.440920 -1.261817
v 0.021896 0.493078 -1.261817
v 0.021896 0.440920 -1.416270
v 0.021896 0.493078 -1.416270
v -0.021896 0.337940 -1.388568
v 0.021896 0.337940 -1.388568
v 0.019352 0.458158 -1.342082
v 0.019352 0.458158 -1.381760
v -0.021896 0.217912 -1.180457
v 0.000000 0.466705 -1.342082
v -0.021896 0.181712 -1.388568
v 0.000000 0.466705 -1.381760
v -0.021896 0.337940 -1.180457
v -0.019352 0.458158 -1.342082
v 0.021896 0.337940 -1.180457
v -0.019352 0.458158 -1.381760
v -0.021896 0.400896 -1.180457
v -0.021896 0.440920 -1.220481
v 0.021896 0.440920 -1.220481
v 0.021896 0.400896 -1.180457
v 0.021896 0.181712 -1.388568
v 0.021896 0.217912 -1.180457
v -0.021896 0.285161 -1.126218
v -0.019352 0.347659 -1.342082
v 0.021896 0.285161 -1.126218
v -0.019352 0.347659 -1.381760
v -0.021896 0.217912 -1.126218
v 0.021896 0.217912 -1.126218
v -0.021896 0.453964 -1.342082
v -0.021896 0.440920 -1.342082
v -0.021896 0.453964 -1.381760
v -0.021896 0.440920 -1.381760
v 0.021896 0.453964 -1.381760
v 0.021896 0.440920 -1.342082
v 0.021896 0.453964 -1.342082
v 0.021896 0.440920 -1.381760
v -0.021896 0.351852 -1.381760
v -0.021896 0.351852 -1.342082
v 0.021896 0.351852 -1.342082
v 0.021896 0.351852 -1.381760
v -0.021896 0.419142 -1.289028
v -0.021896 0.340666 -1.261817
v -0.021896 0.356647 -1.261817
v -0.021896 0.419142 -1.261817
v -0.021896 0.356635 -1.289028
v -0.021896 0.337940 -1.367335
v -0.021896 0.340666 -1.367335
v 0.021896 0.337940 -1.207569
v 0.021896 0.257909 -1.207569
v 0.021896 0.340666 -1.261817
v 0.021896 0.356647 -1.261817
v 0.021896 0.419142 -1.289028
v 0.021896 0.419142 -1.261817
v 0.021896 0.356635 -1.289028
v 0.021896 0.340666 -1.367335
v 0.021896 0.337940 -1.367335
v -0.021896 0.337940 -1.207569
v -0.021896 0.340666 -1.207569
v -0.021896 0.356670 -1.207569
v -0.021896 0.397669 -1.207569
v -0.021896 0.419142 -1.229041
v 0.021896 0.340666 -1.207569
v 0.021896 0.356670 -1.207569
v 0.021896 0.397669 -1.207569
v 0.021896 0.419142 -1.229041
v -0.021896 0.257909 -1.207569
v 0.021896 0.233988 -1.207569
v 0.021896 0.205819 -1.367335
v -0.021896 0.233988 -1.207569
v -0.021896 0.205819 -1.367335
v 0.003519 0.340666 -1.342082
v 0.003519 0.340666 -1.367335
v 0.000000 0.339112 -1.367335
v -0.003518 0.340666 -1.367335
v -0.003518 0.340666 -1.342082
v 0.000000 0.469882 -0.807892
v 0.030331 0.478009 -0.807892
v 0.052535 0.500213 -0.807892
v 0.060662 0.530544 -0.807892
v 0.052535 0.560875 -0.807892
v 0.030331 0.583079 -0.807892
v 0.000000 0.591206 -0.807892
v -0.030331 0.583079 -0.807892
v -0.052535 0.560875 -0.807892
v -0.060662 0.530544 -0.807892
v -0.052535 0.500213 -0.807892
v -0.030331 0.478009 -0.807892
v 0.000000 0.486109 -1.248128
v 0.000000 0.469882 -1.224402
v 0.022217 0.492063 -1.248128
v 0.030331 0.478009 -1.224402
v 0.038482 0.508327 -1.248128
v 0.052535 0.500213 -1.224402
v 0.044435 0.530544 -1.248128
v 0.060662 0.530544 -1.224402
v 0.038482 0.552761 -1.248128
v 0.052535 0.560875 -1.224402
v 0.022217 0.569026 -1.248128
v 0.030331 0.583079 -1.224402
v 0.000000 0.574979 -1.248128
v 0.000000 0.591206 -1.224402
v -0.022217 0.569026 -1.248128
v -0.030331 0.583079 -1.224402
v -0.038481 0.552761 -1.248128
v -0.052535 0.560875 -1.224402
v -0.044434 0.530544 -1.248128
v -0.060662 0.530544 -1.224402
v -0.038481 0.508327 -1.248128
v -0.052535 0.500213 -1.224402
v -0.022217 0.492063 -1.248128
v -0.030331 0.478009 -1.224402
v 0.000000 0.351067 -0.747013
v 0.000000 0.352567 -0.930786
v 0.017175 0.355667 -0.747164
v 0.013429 0.356163 -0.930903
v 0.029748 0.368233 -0.747574
v 0.023259 0.365988 -0.931224
v 0.034351 0.385399 -0.748134
v 0.026857 0.379409 -0.931662
v 0.029748 0.402565 -0.748694
v 0.023259 0.392831 -0.932100
v 0.017175 0.415131 -0.749104
v 0.013429 0.402656 -0.932421
v 0.000000 0.419731 -0.749254
v 0.000000 0.406252 -0.932538
v -0.017175 0.415131 -0.749104
v -0.013428 0.402656 -0.932421
v -0.029748 0.402565 -0.748694
v -0.023259 0.392831 -0.932100
v -0.034350 0.385399 -0.748134
v -0.026857 0.379409 -0.931662
v -0.029748 0.368233 -0.747574
v -0.023259 0.365988 -0.931224
v -0.017175 0.355667 -0.747164
v -0.013428 0.356163 -0.930903
v 0.000000 0.482933 -1.387160
v 0.000000 0.482933 -1.416390
v 0.023806 0.489312 -1.387160
v 0.023806 0.489312 -1.416390
v 0.041232 0.506739 -1.387160
v 0.041232 0.506739 -1.416390
v 0.047611 0.530544 -1.387160
v 0.047611 0.530544 -1.416390
v 0.041232 0.554349 -1.387160
v 0.041232 0.554349 -1.416390
v 0.023806 0.571776 -1.387160
v 0.023806 0.571776 -1.416390
v 0.000000 0.578155 -1.387160
v 0.000000 0.578155 -1.416390
v -0.023805 0.571776 -1.387160
v -0.023805 0.571776 -1.416390
v -0.041232 0.554349 -1.387160
v -0.041232 0.554349 -1.416390
v -0.047611 0.530544 -1.387160
v -0.047611 0.530544 -1.416390
v -0.041232 0.506739 -1.387160
v -0.041232 0.506739 -1.416390
v -0.023805 0.489312 -1.387160
v -0.023805 0.489312 -1.416390
v 0.000000 0.482933 -1.262949
v 0.000000 0.482933 -1.292179
v 0.023806 0.489312 -1.262949
v 0.023806 0.489312 -1.292179
v 0.041232 0.506739 -1.262949
v 0.041232 0.506739 -1.292179
v 0.047611 0.530544 -1.262949
v 0.047611 0.530544 -1.292179
v 0.041232 0.554349 -1.262949
v 0.041232 0.554349 -1.292179
v 0.023806 0.571776 -1.262949
v 0.023806 0.571776 -1.292179
v 0.000000 0.578155 -1.262949
v 0.000000 0.578155 -1.292179
v -0.023805 0.571776 -1.262949
v -0.023805 0.571776 -1.292179
v -0.041232 0.554349 -1.262949
v -0.041232 0.554349 -1.292179
v -0.047611 0.530544 -1.262949
v -0.047611 0.530544 -1.292179
v -0.041232 0.506739 -1.262949
v -0.041232 0.506739 -1.292179
v -0.023805 0.489312 -1.262949
v -0.023805 0.489312 -1.292179
v -0.012439 0.391126 -0.869949
v -0.012439 0.509424 -0.896054
v -0.012439 0.391126 -0.918389
v -0.012439 0.509424 -0.923769
v 0.012439 0.391126 -0.869949
v 0.012439 0.509424 -0.896054
v 0.012439 0.391126 -0.918389
v 0.012439 0.509424 -0.923769
v -0.054640 0.242116 -1.404283
v -0.022693 0.188579 -1.395813
v -0.048325 0.207849 -1.398861
v -0.028427 0.428805 -1.433818
v -0.068448 0.375267 -1.425348
v -0.060538 0.409535 -1.430769
v -0.022693 0.187982 -1.454997
v -0.054640 0.241786 -1.454997
v -0.048325 0.207347 -1.454997
v -0.068448 0.375598 -1.454997
v -0.028427 0.429402 -1.454997
v -0.060538 0.410036 -1.454997
v 0.022693 0.188579 -1.395813
v 0.054640 0.242116 -1.404283
v 0.048326 0.207849 -1.398861
v 0.068448 0.375267 -1.425348
v 0.028428 0.428805 -1.433818
v 0.060538 0.409535 -1.430769
v 0.054640 0.241786 -1.454997
v 0.022693 0.187982 -1.454997
v 0.048326 0.207347 -1.454997
v 0.028428 0.429402 -1.454997
v 0.068448 0.375598 -1.454997
v 0.060538 0.410036 -1.454997
vn -1.0000 -0.0000 -0.0000
vn -0.0000 -0.1310 -0.9914
vn -0.0000 -0.0000 -1.0000
vn 1.0000 -0.0000 -0.0000
vn -0.0000 -0.0000 1.0000
vn -0.0000 1.0000 -0.0000
vn -0.0000 -0.9852 0.1714
vn -0.0000 -0.9963 0.0860
vn -0.0000 0.7071 0.7071
vn -0.0000 -1.0000 -0.0000
vn -0.0000 0.7167 0.6974
vn -0.7076 0.7066 -0.0000
vn -0.4040 0.9148 -0.0000
vn -0.8550 0.5187 -0.0000
vn -0.8550 -0.5187 -0.0000
vn -0.7076 -0.7066 -0.0000
vn 0.7076 -0.7066 -0.0000
vn 0.8550 -0.5187 -0.0000
vn 0.8550 0.5187 -0.0000
vn 0.7076 0.7066 -0.0000
vn 0.4040 0.9148 -0.0000
vn -0.0000 0.9848 -0.1736
vn -0.0000 1.0000 -0.0004
vn -0.0000 -0.7071 -0.7071
vn -0.5289 -0.8487 -0.0000
vn 0.9659 -0.2588 -0.0000
vn 0.9659 0.2588 -0.0000
vn 0.7071 0.7071 -0.0000
vn 0.5289 0.8487 -0.0000
vn -0.5289 0.8487 -0.0000
vn -0.7071 0.7071 -0.0000
vn -0.9659 0.2588 -0.0000
vn -0.9659 -0.2588 -0.0000
vn -0.7071 -0.7071 -0.0000
vn 0.5289 -0.8487 -0.0000
vn 0.7071 -0.7071 -0.0000
vn 0.4926 -0.6645 -0.5620
vn -0.0000 -0.8254 -0.5645
vn 0.3633 -0.7418 -0.5636
vn 0.7673 -0.3111 -0.5608
vn 0.6904 -0.4532 -0.5639
vn 0.8059 -0.2159 -0.5512
vn 0.7673 0.3111 -0.5608
vn 0.8059 0.2159 -0.5512
vn 0.6904 0.4532 -0.5639
vn 0.4926 0.6645 -0.5620
vn 0.3633 0.7418 -0.5636
vn -0.0000 0.8254 -0.5645
vn -0.4926 0.6645 -0.5620
vn -0.3633 0.7418 -0.5636
vn -0.7673 0.3111 -0.5608
vn -0.6904 0.4532 -0.5639
vn -0.8059 0.2159 -0.5512
vn -0.7673 -0.3111 -0.5608
vn -0.8059 -0.2159 -0.5512
vn -0.6904 -0.4532 -0.5639
vn -0.4926 -0.6645 -0.5620
vn -0.3633 -0.7418 -0.5636
vn -0.0000 -1.0000 -0.0082
vn 0.5219 -0.8529 -0.0129
vn 0.5348 -0.8449 -0.0132
vn 0.7066 -0.7075 -0.0163
vn 0.9652 -0.2598 -0.0309
vn 0.9652 0.2572 -0.0478
vn 0.7066 0.7049 -0.0624
vn 0.5219 0.8503 -0.0685
vn 0.5348 0.8422 -0.0682
vn -0.0000 0.9973 -0.0733
vn -0.5219 0.8503 -0.0685
vn -0.5348 0.8422 -0.0682
vn -0.7066 0.7049 -0.0624
vn -0.9652 0.2572 -0.0478
vn -0.9652 -0.2598 -0.0309
vn -0.0000 -0.0326 -0.9995
vn -0.7066 -0.7075 -0.0163
vn -0.5219 -0.8529 -0.0129
vn -0.5348 -0.8449 -0.0132
vn -0.0000 0.0326 0.9995
vn -0.0000 -0.0454 -0.9990
vn -0.0000 0.2155 0.9765
vn -0.0000 0.1563 0.9877
vn 0.9900 -0.1409 0.0007
vn 0.9947 -0.1029 -0.0000
vn 0.9896 -0.1442 0.0007
vn 0.2838 0.9586 0.0251
vn -0.2838 0.9586 0.0251
vn -0.2876 0.9574 0.0251
vn 0.2876 0.9574 0.0251
vn -0.9896 -0.1442 0.0007
vn -0.9947 -0.1029 -0.0000
vn -0.9900 -0.1409 0.0007
vn -0.3467 -0.9379 0.0092
vn -0.3430 -0.9393 0.0092
vn -0.6021 -0.7984 0.0076
vn -0.9835 -0.1807 0.0014
vn -0.5147 0.8571 0.0207
vn -0.9744 0.2246 0.0035
vn 0.3430 -0.9393 0.0092
vn 0.3467 -0.9379 0.0092
vn 0.6021 -0.7984 0.0076
vn 0.9835 -0.1807 0.0014
vn 0.5147 0.8571 0.0207
vn 0.9744 0.2246 0.0035
vt 0.375000 0.129918
vt 0.375000 0.000000
vt 0.625000 0.000000
vt 0.625000 0.250000
vt 0.375000 0.250000
vt 0.375000 0.194141
vt 0.437521 0.194141
vt 0.437521 0.129918
vt 0.625000 0.500000
vt 0.375000 0.500000
vt 0.375000 0.555859
vt 0.625000 0.750000
vt 0.375000 0.750000
vt 0.375000 0.620082
vt 0.437521 0.620082
vt 0.437521 0.555859
vt 0.625000 1.000000
vt 0.375000 1.000000
vt 0.375000 0.208120
vt 0.375000 0.207163
vt 0.375000 0.051549
vt 0.375000 0.046350
vt 0.375000 0.154424
vt 0.375000 0.230632
vt 0.875000 0.500000
vt 0.875000 0.750000
vt 0.375000 0.519368
vt 0.375000 0.595576
vt 0.375000 0.703650
vt 0.375000 0.698451
vt 0.375000 0.542837
vt 0.375000 0.541880
vt 0.125000 0.500000
vt 0.125000 0.750000
vt 0.375000 0.000000
vt 0.375000 0.000000
vt 0.375000 0.750000
vt 0.375000 0.750000
vt 0.375000 0.528332
vt 0.375000 0.730915
vt 0.375000 0.019085
vt 0.375000 0.221668
vt 0.916667 0.500000
vt 0.916667 1.000000
vt 1.000000 1.000000
vt 1.000000 0.818224
vt 0.984848 0.818224
vt 0.984848 0.500000
vt 0.901701 1.000000
vt 0.901701 0.500000
vt 0.598299 0.500000
vt 0.583333 0.500000
vt 0.583333 1.000000
vt 0.598299 1.000000
vt 0.500000 0.500000
vt 0.500000 1.000000
vt 0.416667 0.500000
vt 0.416667 1.000000
vt 0.401701 0.500000
vt 0.401701 1.000000
vt 0.385776 0.442070
vt 0.370000 0.457846
vt 0.250000 0.490000
vt 0.130000 0.457846
vt 0.114224 0.442070
vt 0.098299 0.500000
vt 0.083333 0.500000
vt 0.083333 1.000000
vt 0.098299 1.000000
vt 0.000000 0.818224
vt 0.000000 1.000000
vt 0.015152 0.500000
vt 0.015152 0.818224
vt 0.614224 0.057930
vt 0.630000 0.457846
vt 0.750000 0.490000
vt 0.870000 0.457846
vt 0.885776 0.442070
vt 0.771818 0.484154
vt 0.728182 0.484154
vt 0.625000 0.298727
vt 0.619947 0.298727
vt 0.375000 0.298727
vt 0.375000 0.451274
vt 0.619947 0.451274
vt 0.625000 0.451274
vt 0.625000 0.387257
vt 0.622119 0.375000
vt 0.625000 0.362744
vt 0.625000 0.951273
vt 0.625000 0.798726
vt 0.618613 0.798726
vt 0.431061 0.798726
vt 0.375000 0.798726
vt 0.375000 0.951273
vt 0.431061 0.951273
vt 0.618613 0.951273
vt 0.326274 0.750000
vt 0.326274 0.500000
vt 0.173727 0.500000
vt 0.173727 0.750000
vt 0.673726 0.500000
vt 0.673726 0.665112
vt 0.673726 0.750000
vt 0.826273 0.750000
vt 0.826273 0.665112
vt 0.826273 0.500000
vt 0.762256 0.500000
vt 0.762256 0.539515
vt 0.737743 0.539515
vt 0.737743 0.500000
vt 0.826273 0.684101
vt 0.826273 0.583510
vt 0.673726 0.583510
vt 0.673726 0.684101
vt 0.375000 0.451274
vt 0.326274 0.500000
vt 0.173727 0.500000
vt 0.173727 0.583510
vt 0.173727 0.750000
vt 0.326274 0.750000
vt 0.326274 0.583510
vt 0.547125 0.798726
vt 0.547125 0.951273
vt 0.083333 0.963951
vt 0.000000 0.963951
vt 0.000000 0.500000
vt 0.833333 0.500000
vt 0.833333 0.963951
vt 0.750000 0.963951
vt 0.750000 0.500000
vt 0.666667 0.963951
vt 0.666667 0.500000
vt 0.583333 0.963951
vt 0.500000 0.963951
vt 0.416667 0.963951
vt 0.333333 0.963951
vt 0.333333 0.500000
vt 0.250000 0.963951
vt 0.250000 0.500000
vt 0.166667 0.963951
vt 0.166667 0.500000
vt 1.000000 0.500000
vt 1.000000 0.963951
vt 0.916667 0.963951
vt 0.957846 0.370000
vt 0.990000 0.250000
vt 0.957846 0.130000
vt 0.870000 0.042154
vt 0.750000 0.010000
vt 0.630000 0.042154
vt 0.542154 0.130000
vt 0.510000 0.250000
vt 0.542154 0.370000
vt 0.250000 0.454172
vt 0.352086 0.426818
vt 0.457846 0.370000
vt 0.426818 0.352086
vt 0.490000 0.250000
vt 0.454172 0.250000
vt 0.457846 0.130000
vt 0.426818 0.147914
vt 0.370000 0.042154
vt 0.352086 0.073182
vt 0.250000 0.010000
vt 0.250000 0.045828
vt 0.130000 0.042154
vt 0.147914 0.073182
vt 0.042154 0.130000
vt 0.073182 0.147914
vt 0.010000 0.250000
vt 0.045828 0.250000
vt 0.042154 0.370000
vt 0.073182 0.352086
vt 0.147914 0.426818
vt 0.833333 1.000000
vt 0.750000 1.000000
vt 0.666667 1.000000
vt 0.333333 1.000000
vt 0.250000 1.000000
vt 0.166667 1.000000
vt 0.375000 0.775734
vt 0.382804 0.757537
vt 0.401643 0.750000
vt 0.598357 0.750000
vt 0.617196 0.757537
vt 0.625000 0.775734
vt 0.625000 0.974266
vt 0.617196 0.992463
vt 0.598357 1.000000
vt 0.401643 1.000000
vt 0.382804 0.992463
vt 0.375000 0.974266
vt 0.401643 0.500000
vt 0.598357 0.500000
vt 0.650734 0.500000
vt 0.849266 0.500000
vt 0.849266 0.750000
vt 0.650734 0.750000
vt 0.401643 0.000000
vt 0.598357 0.000000
vt 0.598357 0.250000
vt 0.401643 0.250000
vt 0.375000 0.275734
vt 0.382804 0.257537
vt 0.617196 0.257537
vt 0.625000 0.275734
vt 0.625000 0.474266
vt 0.617196 0.492463
vt 0.382804 0.492463
vt 0.375000 0.474266
vt 0.150734 0.500000
vt 0.150734 0.750000
vt 0.349266 0.750000
vt 0.349266 0.500000
s 1
f 37/1/1 1/2/1 2/3/1 6/4/1 4/5/1 39/6/1 38/7/1 36/8/1
f 4/5/2 6/4/3 11/9/3 10/10/2
f 43/11/4 10/10/4 11/9/4 9/12/4 8/13/4 41/14/4 42/15/4 40/16/4
f 8/13/5 9/12/5 2/17/5 1/18/5
f 39/6/1 4/5/1 12/5/1 53/19/1 54/20/1 49/2/1 50/2/1 52/21/1 48/22/1 51/2/1 1/2/1 37/1/1 45/23/1 44/24/1
f 11/9/6 6/25/6 2/26/6 9/12/6
f 56/13/4 55/13/4 22/13/4 29/13/4
f 13/10/4 10/10/4 43/11/4 47/27/4 46/28/4 41/14/4 8/13/4 60/13/4 59/29/4 61/30/4 58/13/4 57/13/4 62/31/4 63/32/4
f 18/33/7 28/10/7 29/13/8 16/34/8
f 4/5/2 10/10/2 13/10/2 12/5/2
f 66/35/1 50/2/1 49/2/1 65/2/1 64/2/1 20/2/1 24/2/1 25/2/1 1/2/1 51/2/1 68/36/1 67/2/1
f 27/13/5 24/18/5 20/18/5 22/13/5
f 60/13/4 8/13/4 26/13/4 27/13/4 22/13/4 55/13/4 69/37/4 57/13/4 58/13/4 70/38/4 71/13/4 72/38/4
f 20/2/1 64/2/1 73/2/1 16/2/1
f 24/18/9 27/13/9 26/13/9 25/18/9
f 8/13/6 1/18/6 25/18/6 26/13/6
f 56/13/4 29/13/4 28/10/4 13/10/4 63/32/4 75/39/4 74/40/4
f 12/5/1 18/5/1 16/2/1 73/2/1 76/41/1 77/42/1 53/19/1
f 16/34/8 29/13/8 35/13/10 34/34/10
f 12/5/2 13/10/2 28/10/3 18/5/3
f 32/13/5 30/18/5 34/18/5 35/13/5
f 29/13/4 22/13/4 32/13/4 35/13/4
f 20/2/1 16/2/1 34/2/1 30/2/1
f 22/13/11 20/18/11 30/18/11 32/13/11
f 5/43/12 7/44/12 3/45/6 80/46/6 79/47/13 78/48/13
f 47/49/14 7/44/12 5/43/12 46/50/14
f 42/51/15 14/52/16 15/53/16 40/54/15
f 14/52/16 17/55/10 19/56/10 15/53/16
f 17/55/10 21/57/17 23/58/17 19/56/10
f 23/58/17 21/57/17 36/59/18 38/60/18
f 43/61/5 40/61/5 15/62/5 19/63/5 23/64/5 38/65/5 39/65/5 44/65/5 33/64/5 3/63/5 7/62/5 47/61/5
f 45/66/19 31/67/20 33/68/20 44/69/19
f 80/70/6 3/71/6 33/68/20 31/67/20 82/72/21 81/73/21
f 37/74/3 36/74/3 21/75/3 17/76/3 14/77/3 42/78/3 41/78/3 46/78/3 5/77/3 78/79/3 82/80/3 31/75/3 45/74/3
f 54/81/5 53/82/5 77/83/5 75/84/5 63/85/5 62/86/5 79/87/5 80/88/5 81/89/5
f 65/90/3 69/91/3 55/92/3 56/93/3 74/94/3 76/95/3 73/96/3 64/97/3
f 74/98/22 75/99/22 77/100/22 76/101/22
f 62/102/10 57/103/10 69/104/10 65/105/10 49/106/10 54/107/10 81/108/10 82/109/10 78/110/10 79/111/10
f 68/112/10 51/113/10 48/107/10 59/102/10 60/114/10 72/115/10
f 48/81/5 52/83/5 61/116/5 59/86/5
f 61/117/23 52/118/23 50/119/23 66/120/23 70/121/23 58/122/23
f 68/90/24 72/91/24 71/123/24 67/124/24
f 70/94/3 66/95/3 67/124/3 71/123/3
f 94/67/25 118/125/25 96/126/10 83/127/10
f 85/128/26 100/129/26 102/130/26 86/131/26
f 86/131/27 102/130/27 104/132/27 87/133/27
f 87/133/28 104/132/28 106/134/29 88/52/29
f 88/52/29 106/134/29 108/135/6 89/55/6
f 89/55/6 108/135/6 110/136/30 90/57/30
f 90/57/30 110/136/30 112/137/31 91/138/31
f 91/138/32 112/137/32 114/139/32 92/140/32
f 92/140/33 114/139/33 116/141/33 93/142/33
f 93/142/34 116/141/34 118/125/25 94/67/25
f 83/143/10 96/144/10 98/145/35 84/43/35
f 84/43/35 98/145/35 100/129/36 85/128/36
f 83/76/5 84/77/5 85/146/5 86/147/5 87/148/5 88/149/5 89/150/5 90/151/5 91/152/5 92/153/5 93/154/5 94/75/5
f 98/62/37 96/63/38 95/155/38 97/156/39
f 100/157/40 98/62/37 97/156/39 99/158/41
f 102/159/42 100/157/40 99/158/41 101/160/42
f 104/161/43 102/159/44 101/160/44 103/162/45
f 106/163/46 104/161/43 103/162/45 105/164/47
f 108/165/48 106/163/46 105/164/47 107/166/48
f 110/167/49 108/165/48 107/166/48 109/168/50
f 112/169/51 110/167/49 109/168/50 111/170/52
f 114/171/53 112/169/51 111/170/52 113/172/53
f 116/173/54 114/171/55 113/172/55 115/174/56
f 118/64/57 116/173/54 115/174/56 117/175/58
f 96/63/38 118/64/57 117/175/58 95/155/38
f 97/156/3 95/155/3 117/175/3 115/174/3 113/172/3 111/170/3 109/168/3 107/166/3 105/164/3 103/162/3 101/160/3 99/158/3
f 119/143/59 120/45/59 122/44/60 121/43/61
f 121/43/61 122/44/60 124/176/62 123/128/62
f 123/128/63 124/176/63 126/177/63 125/131/63
f 125/131/64 126/177/64 128/178/64 127/133/64
f 127/133/65 128/178/65 130/53/66 129/52/67
f 129/52/67 130/53/66 132/56/68 131/55/68
f 131/55/68 132/56/68 134/58/69 133/57/70
f 133/57/70 134/58/69 136/179/71 135/138/71
f 135/138/72 136/179/72 138/180/72 137/140/72
f 137/140/73 138/180/73 140/181/73 139/142/73
f 122/62/74 120/63/74 142/64/74 140/173/74 138/171/74 136/169/74 134/167/74 132/165/74 130/163/74 128/161/74 126/159/74 124/157/74
f 139/142/75 140/181/75 142/68/76 141/67/77
f 141/67/77 142/68/76 120/71/59 119/127/59
f 119/76/78 121/77/78 123/146/78 125/147/78 127/148/78 129/149/78 131/150/78 133/151/78 135/152/78 137/153/78 139/154/78 141/75/78
f 143/143/10 144/45/10 146/44/35 145/43/35
f 145/43/35 146/44/35 148/176/36 147/128/36
f 147/128/26 148/176/26 150/177/26 149/131/26
f 149/131/27 150/177/27 152/178/27 151/133/27
f 151/133/28 152/178/28 154/53/29 153/52/29
f 153/52/29 154/53/29 156/56/6 155/55/6
f 155/55/6 156/56/6 158/58/30 157/57/30
f 157/57/30 158/58/30 160/179/31 159/138/31
f 159/138/32 160/179/32 162/180/32 161/140/32
f 161/140/33 162/180/33 164/181/33 163/142/33
f 146/62/3 144/63/3 166/64/3 164/173/3 162/171/3 160/169/3 158/167/3 156/165/3 154/163/3 152/161/3 150/159/3 148/157/3
f 163/142/34 164/181/34 166/68/25 165/67/25
f 165/67/25 166/68/25 144/71/10 143/127/10
f 143/76/5 145/77/5 147/146/5 149/147/5 151/148/5 153/149/5 155/150/5 157/151/5 159/152/5 161/153/5 163/154/5 165/75/5
f 167/143/10 168/45/10 170/44/35 169/43/35
f 169/43/35 170/44/35 172/176/36 171/128/36
f 171/128/26 172/176/26 174/177/26 173/131/26
f 173/131/27 174/177/27 176/178/27 175/133/27
f 175/133/28 176/178/28 178/53/29 177/52/29
f 177/52/29 178/53/29 180/56/6 179/55/6
f 179/55/6 180/56/6 182/58/30 181/57/30
f 181/57/30 182/58/30 184/179/31 183/138/31
f 183/138/32 184/179/32 186/180/32 185/140/32
f 185/140/33 186/180/33 188/181/33 187/142/33
f 170/62/3 168/63/3 190/64/3 188/173/3 186/171/3 184/169/3 182/167/3 180/165/3 178/163/3 176/161/3 174/159/3 172/157/3
f 187/142/34 188/181/34 190/68/25 189/67/25
f 189/67/25 190/68/25 168/71/10 167/127/10
f 167/76/5 169/77/5 171/146/5 173/147/5 175/148/5 177/149/5 179/150/5 181/151/5 183/152/5 185/153/5 187/154/5 189/75/5
f 191/2/1 192/3/1 194/4/1 193/5/1
f 193/5/79 194/4/79 198/9/79 197/10/79
f 197/10/4 198/9/4 196/12/4 195/13/4
f 195/13/80 196/12/80 192/17/80 191/18/80
f 193/33/10 197/10/10 195/13/10 191/34/10
f 198/9/6 194/25/6 192/26/6 196/12/6
f 211/182/81 213/183/81 212/184/81 214/185/81 216/186/81 215/187/81 202/188/81 204/189/81 203/190/81 199/191/81 201/192/81 200/193/81
f 217/194/82 221/195/83 214/185/83 212/184/84
f 220/196/85 209/197/86 202/198/87 215/199/88
f 199/200/89 203/201/90 208/202/90 206/203/91
f 205/204/3 207/205/3 206/203/3 208/202/3 210/206/3 209/207/3 220/208/3 222/209/3 221/195/3 217/194/3 219/210/3 218/211/3
f 205/212/92 200/213/93 201/34/94 207/33/94
f 207/5/95 201/2/95 199/200/89 206/203/91
f 202/198/87 209/197/86 210/25/96 204/26/96
f 204/3/97 210/4/97 208/202/97 203/201/97
f 211/214/98 218/215/99 219/10/100 213/13/100
f 213/13/101 219/10/101 217/194/82 212/184/84
f 220/196/85 215/199/88 216/12/102 222/9/102
f 222/9/103 216/12/103 214/185/103 221/195/103
f 205/212/92 218/215/99 211/214/98 200/213/93
