# Blender 4.4.3
# www.blender.org
mtllib Stock32.mtl
o Cylinder.010
v 0.000000 0.361416 -0.909121
v 0.000000 0.351970 -1.198559
v 0.009314 0.363930 -0.909203
v 0.009314 0.354483 -1.198641
v 0.016132 0.370796 -0.909427
v 0.016132 0.361350 -1.198865
v 0.018628 0.380176 -0.909733
v 0.018628 0.370730 -1.199171
v 0.016132 0.389556 -0.910040
v 0.016132 0.380109 -1.199477
v 0.009314 0.396422 -0.910264
v 0.009314 0.386976 -1.199701
v 0.000000 0.398935 -0.910346
v 0.000000 0.389489 -1.199783
v -0.009314 0.396422 -0.910264
v -0.009314 0.386976 -1.199701
v -0.016132 0.389556 -0.910040
v -0.016132 0.380109 -1.199477
v -0.018628 0.380176 -0.909733
v -0.018628 0.370730 -1.199171
v -0.016132 0.370796 -0.909427
v -0.016132 0.361350 -1.198865
v -0.009314 0.363930 -0.909203
v -0.009314 0.354483 -1.198641
v 0.000000 0.349962 -1.349027
v 0.000000 0.349962 -1.374816
v 0.022653 0.357055 -1.349027
v 0.022653 0.357055 -1.374816
v 0.039236 0.376435 -1.349027
v 0.039236 0.376435 -1.374816
v 0.045306 0.402908 -1.349027
v 0.045306 0.402908 -1.374816
v 0.039236 0.429381 -1.349027
v 0.039236 0.429381 -1.374816
v 0.022653 0.448761 -1.349027
v 0.022653 0.448761 -1.374816
v 0.000000 0.455854 -1.349027
v 0.000000 0.455854 -1.374816
v -0.022653 0.448761 -1.349027
v -0.022653 0.448761 -1.374816
v -0.039236 0.429381 -1.349027
v -0.039236 0.429381 -1.374816
v -0.045306 0.402908 -1.349027
v -0.045306 0.402908 -1.374816
v -0.039236 0.376435 -1.349027
v -0.039236 0.376435 -1.374816
v -0.022653 0.357055 -1.349027
v -0.022653 0.357055 -1.374816
v 0.000000 0.210058 -1.377582
v 0.000000 0.210058 -1.421097
v 0.009560 0.213052 -1.377582
v 0.009560 0.213052 -1.421097
v 0.016558 0.221230 -1.377582
v 0.016558 0.221230 -1.421097
v 0.019120 0.232402 -1.377582
v 0.019120 0.232402 -1.421097
v 0.016558 0.243574 -1.377582
v 0.016558 0.243574 -1.421097
v 0.009560 0.251753 -1.377582
v 0.009560 0.251753 -1.421097
v 0.000000 0.254746 -1.377582
v 0.000000 0.254746 -1.421097
v -0.009560 0.251753 -1.377582
v -0.009560 0.251753 -1.421097
v -0.016558 0.243574 -1.377582
v -0.016558 0.243574 -1.421097
v -0.019120 0.232402 -1.377582
v -0.019120 0.232402 -1.421097
v -0.016558 0.221230 -1.377582
v -0.016558 0.221230 -1.421097
v -0.009560 0.213052 -1.377582
v -0.009560 0.213052 -1.421097
v 0.000000 0.385195 -1.388527
v 0.000000 0.385195 -1.448102
v 0.005831 0.387021 -1.388527
v 0.005831 0.387021 -1.448102
v 0.010100 0.392010 -1.388527
v 0.010100 0.392010 -1.448102
v 0.011663 0.398824 -1.388527
v 0.011663 0.398824 -1.448102
v 0.010100 0.405639 -1.388527
v 0.010100 0.405639 -1.448102
v 0.005831 0.410627 -1.388527
v 0.005831 0.410627 -1.448102
v 0.000000 0.412453 -1.388527
v 0.000000 0.412453 -1.448102
v -0.005831 0.410627 -1.388527
v -0.005831 0.410627 -1.448102
v -0.010100 0.405639 -1.388527
v -0.010100 0.405639 -1.448102
v -0.011662 0.398824 -1.388527
v -0.011662 0.398824 -1.448102
v -0.010100 0.392010 -1.388527
v -0.010100 0.392010 -1.448102
v -0.005831 0.387021 -1.388527
v -0.005831 0.387021 -1.448102
v 0.000000 0.372945 -1.436156
v 0.000000 0.372945 -1.481110
v 0.011073 0.376412 -1.436156
v 0.011073 0.376412 -1.481110
v 0.019179 0.385884 -1.436156
v 0.019179 0.385884 -1.481110
v 0.022145 0.398824 -1.436156
v 0.022145 0.398824 -1.481110
v 0.019179 0.411764 -1.436156
v 0.019179 0.411764 -1.481110
v 0.011073 0.421237 -1.436156
v 0.011073 0.421237 -1.481110
v 0.000000 0.424704 -1.436156
v 0.000000 0.424704 -1.481110
v -0.011073 0.421237 -1.436156
v -0.011073 0.421237 -1.481110
v -0.019178 0.411764 -1.436156
v -0.019178 0.411764 -1.481110
v -0.022145 0.398824 -1.436156
v -0.022145 0.398824 -1.481110
v -0.019178 0.385884 -1.436156
v -0.019178 0.385884 -1.481110
v -0.011073 0.376412 -1.436156
v -0.011073 0.376412 -1.481110
v -0.000000 0.199887 -1.425252
v -0.000000 0.199887 -1.492014
v 0.016444 0.205036 -1.425252
v 0.016444 0.205036 -1.492014
v 0.028482 0.219104 -1.425252
v 0.028482 0.219104 -1.492014
v 0.032889 0.238321 -1.425252
v 0.032889 0.238321 -1.492014
v 0.028482 0.257538 -1.425252
v 0.028482 0.257539 -1.492014
v 0.016444 0.271607 -1.425252
v 0.016444 0.271607 -1.492014
v -0.000000 0.276756 -1.425252
v -0.000000 0.276756 -1.492014
v -0.016444 0.271607 -1.425252
v -0.016444 0.271607 -1.492014
v -0.028482 0.257538 -1.425252
v -0.028482 0.257539 -1.492014
v -0.032889 0.238321 -1.425252
v -0.032889 0.238321 -1.492014
v -0.028482 0.219104 -1.425252
v -0.028482 0.219104 -1.492014
v -0.016444 0.205036 -1.425252
v -0.016444 0.205036 -1.492014
v 0.000000 0.488593 -1.237574
v 0.000000 0.488593 -1.440462
v 0.020976 0.494213 -1.237574
v 0.020976 0.494213 -1.440462
v 0.036331 0.509568 -1.237574
v 0.036331 0.509569 -1.440462
v 0.041951 0.530544 -1.237574
v 0.041951 0.530544 -1.440462
v 0.036331 0.551520 -1.237574
v 0.036331 0.551520 -1.440462
v 0.020976 0.566875 -1.237574
v 0.020976 0.566875 -1.440462
v 0.000000 0.572495 -1.237574
v 0.000000 0.572495 -1.440462
v -0.020975 0.566875 -1.237574
v -0.020975 0.566875 -1.440462
v -0.036330 0.551520 -1.237574
v -0.036330 0.551520 -1.440462
v -0.041951 0.530544 -1.237574
v -0.041951 0.530544 -1.440462
v -0.036330 0.509568 -1.237574
v -0.036330 0.509569 -1.440462
v -0.020975 0.494213 -1.237574
v -0.020975 0.494213 -1.440462
vn 0.2607 -0.9649 0.0315
vn 0.5028 -0.8639 0.0282
vn 0.8677 -0.4969 0.0162
vn 0.9664 -0.2569 0.0084
vn 0.9664 0.2569 -0.0084
vn 0.8677 0.4969 -0.0162
vn 0.5028 0.8639 -0.0282
vn 0.2607 0.9649 -0.0315
vn -0.2607 0.9649 -0.0315
vn -0.5028 0.8639 -0.0282
vn -0.8677 0.4969 -0.0162
vn -0.9664 0.2569 -0.0084
vn -0.9664 -0.2569 0.0084
vn -0.8677 -0.4969 0.0162
vn -0.0000 -0.0326 -0.9995
vn -0.5028 -0.8639 0.0282
vn -0.2607 -0.9649 0.0315
vn -0.0000 0.0326 0.9995
vn 0.2988 -0.9543 -0.0000
vn 0.7598 -0.6502 -0.0000
vn 0.9111 -0.4123 -0.0000
vn 0.8751 -0.4839 -0.0000
vn 0.9991 0.0421 -0.0000
vn 0.9991 -0.0421 -0.0000
vn 0.8751 0.4839 -0.0000
vn 0.9111 0.4123 -0.0000
vn 0.7598 0.6502 -0.0000
vn 0.2988 0.9543 -0.0000
vn -0.2988 0.9543 -0.0000
vn -0.7598 0.6502 -0.0000
vn -0.8751 0.4839 -0.0000
vn -0.9111 0.4123 -0.0000
vn -0.9991 0.0421 -0.0000
vn -0.9991 -0.0421 -0.0000
vn -0.9111 -0.4123 -0.0000
vn -0.8751 -0.4839 -0.0000
vn -0.0000 -0.0000 -1.0000
vn -0.7598 -0.6502 -0.0000
vn -0.2988 -0.9543 -0.0000
vn -0.0000 -0.0000 1.0000
vn -0.0000 -1.0000 -0.0000
vn 0.5224 -0.8527 -0.0000
vn 0.4807 -0.8769 -0.0000
vn 0.7071 -0.7071 -0.0000
vn 0.9659 -0.2588 -0.0000
vn 0.9659 0.2588 -0.0000
vn 0.7071 0.7071 -0.0000
vn 0.4807 0.8769 -0.0000
vn 0.5224 0.8527 -0.0000
vn -0.0000 1.0000 -0.0000
vn -0.4807 0.8769 -0.0000
vn -0.5224 0.8527 -0.0000
vn -0.7071 0.7071 -0.0000
vn -0.9659 0.2588 -0.0000
vn -0.9659 -0.2588 -0.0000
vn -0.7071 -0.7071 -0.0000
vn -0.5224 -0.8527 -0.0000
vn -0.4807 -0.8769 -0.0000
vt 1.000000 0.500000
vt 1.000000 1.000000
vt 0.916667 1.000000
vt 0.916667 0.500000
vt 0.833333 1.000000
vt 0.833333 0.500000
vt 0.750000 1.000000
vt 0.750000 0.500000
vt 0.666667 1.000000
vt 0.666667 0.500000
vt 0.583333 1.000000
vt 0.583333 0.500000
vt 0.500000 1.000000
vt 0.500000 0.500000
vt 0.416667 1.000000
vt 0.416667 0.500000
vt 0.333333 1.000000
vt 0.333333 0.500000
vt 0.250000 1.000000
vt 0.250000 0.500000
vt 0.166667 1.000000
vt 0.166667 0.500000
vt 0.370000 0.457846
vt 0.250000 0.490000
vt 0.130000 0.457846
vt 0.042154 0.370000
vt 0.010000 0.250000
vt 0.042154 0.130000
vt 0.130000 0.042154
vt 0.250000 0.010000
vt 0.370000 0.042154
vt 0.457846 0.130000
vt 0.490000 0.250000
vt 0.457846 0.370000
vt 0.083333 1.000000
vt 0.083333 0.500000
vt 0.000000 1.000000
vt 0.000000 0.500000
vt 0.750000 0.490000
vt 0.870000 0.457846
vt 0.957846 0.370000
vt 0.990000 0.250000
vt 0.957846 0.130000
vt 0.870000 0.042154
vt 0.750000 0.010000
vt 0.630000 0.042154
vt 0.542154 0.130000
vt 0.510000 0.250000
vt 0.542154 0.370000
vt 0.630000 0.457846
s 1
f 1/1/1 2/2/1 4/3/2 3/4/2
f 3/4/2 4/3/2 6/5/3 5/6/3
f 5/6/3 6/5/3 8/7/4 7/8/4
f 7/8/5 8/7/5 10/9/6 9/10/6
f 9/10/6 10/9/6 12/11/7 11/12/7
f 11/12/7 12/11/7 14/13/8 13/14/8
f 13/14/9 14/13/9 16/15/10 15/16/10
f 15/16/10 16/15/10 18/17/11 17/18/11
f 17/18/11 18/17/11 20/19/12 19/20/12
f 19/20/13 20/19/13 22/21/14 21/22/14
f 4/23/15 2/24/15 24/25/15 22/26/15 20/27/15 18/28/15 16/29/15 14/30/15 12/31/15 10/32/15 8/33/15 6/34/15
f 21/22/14 22/21/14 24/35/16 23/36/16
f 23/36/16 24/35/16 2/37/17 1/38/17
f 1/39/18 3/40/18 5/41/18 7/42/18 9/43/18 11/44/18 13/45/18 15/46/18 17/47/18 19/48/18 21/49/18 23/50/18
f 25/1/19 26/2/19 28/3/19 27/4/19
f 27/4/20 28/3/20 30/5/21 29/6/22
f 29/6/22 30/5/21 32/7/23 31/8/24
f 31/8/24 32/7/23 34/9/25 33/10/26
f 33/10/26 34/9/25 36/11/27 35/12/27
f 35/12/28 36/11/28 38/13/28 37/14/28
f 37/14/29 38/13/29 40/15/29 39/16/29
f 39/16/30 40/15/30 42/17/31 41/18/32
f 41/18/32 42/17/31 44/19/33 43/20/34
f 43/20/34 44/19/33 46/21/35 45/22/36
f 28/23/37 26/24/37 48/25/37 46/26/37 44/27/37 42/28/37 40/29/37 38/30/37 36/31/37 34/32/37 32/33/37 30/34/37
f 45/22/36 46/21/35 48/35/38 47/36/38
f 47/36/39 48/35/39 26/37/39 25/38/39
f 25/39/40 27/40/40 29/41/40 31/42/40 33/43/40 35/44/40 37/45/40 39/46/40 41/47/40 43/48/40 45/49/40 47/50/40
f 49/1/19 50/2/19 52/3/19 51/4/19
f 51/4/20 52/3/20 54/5/21 53/6/22
f 53/6/22 54/5/21 56/7/23 55/8/24
f 55/8/24 56/7/23 58/9/25 57/10/26
f 57/10/26 58/9/25 60/11/27 59/12/27
f 59/12/28 60/11/28 62/13/28 61/14/28
f 61/14/29 62/13/29 64/15/29 63/16/29
f 63/16/30 64/15/30 66/17/31 65/18/32
f 65/18/32 66/17/31 68/19/33 67/20/34
f 67/20/34 68/19/33 70/21/35 69/22/36
f 52/23/37 50/24/37 72/25/37 70/26/37 68/27/37 66/28/37 64/29/37 62/30/37 60/31/37 58/32/37 56/33/37 54/34/37
f 69/22/36 70/21/35 72/35/38 71/36/38
f 71/36/39 72/35/39 50/37/39 49/38/39
f 49/39/40 51/40/40 53/41/40 55/42/40 57/43/40 59/44/40 61/45/40 63/46/40 65/47/40 67/48/40 69/49/40 71/50/40
f 73/1/19 74/2/19 76/3/19 75/4/19
f 75/4/20 76/3/20 78/5/21 77/6/22
f 77/6/22 78/5/21 80/7/23 79/8/24
f 79/8/24 80/7/23 82/9/25 81/10/26
f 81/10/26 82/9/25 84/11/27 83/12/27
f 83/12/28 84/11/28 86/13/28 85/14/28
f 85/14/29 86/13/29 88/15/29 87/16/29
f 87/16/30 88/15/30 90/17/31 89/18/32
f 89/18/32 90/17/31 92/19/33 91/20/34
f 91/20/34 92/19/33 94/21/35 93/22/36
f 76/23/37 74/24/37 96/25/37 94/26/37 92/27/37 90/28/37 88/29/37 86/30/37 84/31/37 82/32/37 80/33/37 78/34/37
f 93/22/36 94/21/35 96/35/38 95/36/38
f 95/36/39 96/35/39 74/37/39 73/38/39
f 73/39/40 75/40/40 77/41/40 79/42/40 81/43/40 83/44/40 85/45/40 87/46/40 89/47/40 91/48/40 93/49/40 95/50/40
f 97/1/19 98/2/19 100/3/19 99/4/19
f 99/4/20 100/3/20 102/5/21 101/6/22
f 101/6/22 102/5/21 104/7/23 103/8/24
f 103/8/24 104/7/23 106/9/25 105/10/26
f 105/10/26 106/9/25 108/11/27 107/12/27
f 107/12/28 108/11/28 110/13/28 109/14/28
f 109/14/29 110/13/29 112/15/29 111/16/29
f 111/16/30 112/15/30 114/17/31 113/18/32
f 113/18/32 114/17/31 116/19/33 115/20/34
f 115/20/34 116/19/33 118/21/35 117/22/36
f 100/23/37 98/24/37 120/25/37 118/26/37 116/27/37 114/28/37 112/29/37 110/30/37 108/31/37 106/32/37 104/33/37 102/34/37
f 117/22/36 118/21/35 120/35/38 119/36/38
f 119/36/39 120/35/39 98/37/39 97/38/39
f 97/39/40 99/40/40 101/41/40 103/42/40 105/43/40 107/44/40 109/45/40 111/46/40 113/47/40 115/48/40 117/49/40 119/50/40
f 121/1/19 122/2/19 124/3/19 123/4/19
f 123/4/20 124/3/20 126/5/21 125/6/22
f 125/6/22 126/5/21 128/7/23 127/8/24
f 127/8/24 128/7/23 130/9/25 129/10/26
f 129/10/26 130/9/25 132/11/27 131/12/27
f 131/12/28 132/11/28 134/13/28 133/14/28
f 133/14/29 134/13/29 136/15/29 135/16/29
f 135/16/30 136/15/30 138/17/31 137/18/32
f 137/18/32 138/17/31 140/19/33 139/20/34
f 139/20/34 140/19/33 142/21/35 141/22/36
f 124/23/37 122/24/37 144/25/37 142/26/37 140/27/37 138/28/37 136/29/37 134/30/37 132/31/37 130/32/37 128/33/37 126/34/37
f 141/22/36 142/21/35 144/35/38 143/36/38
f 143/36/39 144/35/39 122/37/39 121/38/39
f 121/39/40 123/40/40 125/41/40 127/42/40 129/43/40 131/44/40 133/45/40 135/46/40 137/47/40 139/48/40 141/49/40 143/50/40
f 145/1/41 146/2/41 148/3/42 147/4/43
f 147/4/43 148/3/42 150/5/44 149/6/44
f 149/6/45 150/5/45 152/7/45 151/8/45
f 151/8/46 152/7/46 154/9/46 153/10/46
f 153/10/47 154/9/47 156/11/48 155/12/49
f 155/12/49 156/11/48 158/13/50 157/14/50
f 157/14/50 158/13/50 160/15/51 159/16/52
f 159/16/52 160/15/51 162/17/53 161/18/53
f 161/18/54 162/17/54 164/19/54 163/20/54
f 163/20/55 164/19/55 166/21/55 165/22/55
f 148/23/37 146/24/37 168/25/37 166/26/37 164/27/37 162/28/37 160/29/37 158/30/37 156/31/37 154/32/37 152/33/37 150/34/37
f 165/22/56 166/21/56 168/35/57 167/36/58
f 167/36/58 168/35/57 146/37/41 145/38/41
f 145/39/40 147/40/40 149/41/40 151/42/40 153/43/40 155/44/40 157/45/40 159/46/40 161/47/40 163/48/40 165/49/40 167/50/40
