# Blender 4.4.3
# www.blender.org
mtllib Stock2.mtl
o Cylinder.003
v 0.000000 0.389210 -0.858825
v 0.000000 0.389210 -0.880378
v 0.035037 0.398598 -0.858825
v 0.035037 0.398598 -0.880378
v 0.060685 0.424246 -0.858825
v 0.060685 0.424246 -0.880378
v 0.070074 0.459283 -0.858825
v 0.070074 0.459283 -0.880378
v 0.060685 0.494320 -0.858825
v 0.060685 0.494320 -0.880378
v 0.035037 0.519968 -0.858825
v 0.035037 0.519968 -0.880378
v 0.000000 0.529357 -0.858825
v 0.000000 0.529357 -0.880378
v -0.035037 0.519968 -0.858825
v -0.035037 0.519968 -0.880378
v -0.060685 0.494320 -0.858825
v -0.060685 0.494320 -0.880378
v -0.070074 0.459283 -0.858825
v -0.070074 0.459283 -0.880378
v -0.060685 0.424246 -0.858825
v -0.060685 0.424246 -0.880378
v -0.035037 0.398598 -0.858825
v -0.035037 0.398598 -0.880378
v -0.000000 0.402192 -0.845493
v 0.028546 0.409841 -0.845493
v 0.049442 0.430737 -0.845493
v 0.057091 0.459283 -0.845493
v 0.049442 0.487829 -0.845493
v 0.028546 0.508725 -0.845493
v -0.000000 0.516374 -0.845493
v -0.028546 0.508725 -0.845493
v -0.049442 0.487829 -0.845493
v -0.057091 0.459283 -0.845493
v -0.049442 0.430737 -0.845493
v -0.028546 0.409841 -0.845493
v -0.000000 0.402192 -0.788841
v 0.028546 0.409841 -0.788841
v 0.049442 0.430737 -0.788841
v 0.057091 0.459283 -0.788841
v 0.049442 0.487829 -0.788841
v 0.028546 0.508725 -0.788841
v -0.000000 0.516374 -0.788841
v -0.028546 0.508725 -0.788841
v -0.049442 0.487829 -0.788841
v -0.057091 0.459283 -0.788841
v -0.049442 0.430737 -0.788841
v -0.028546 0.409841 -0.788841
v -0.048425 0.340093 -0.752911
v -0.048425 0.595794 -0.849240
v -0.048425 0.595794 -0.871872
v 0.048425 0.340093 -0.752911
v 0.048425 0.595794 -0.849240
v 0.048425 0.595794 -0.871872
v -0.048425 0.303196 -0.857891
v -0.048425 0.287663 -0.822614
v 0.048425 0.287663 -0.822614
v 0.048425 0.303196 -0.857891
v 0.000000 0.398074 -0.876958
v 0.000000 0.398074 -1.220253
v 0.030604 0.406275 -0.876958
v 0.030604 0.406275 -1.220253
v 0.053008 0.428679 -0.876958
v 0.053008 0.428679 -1.220253
v 0.053008 0.489887 -0.876958
v 0.053008 0.489887 -1.220253
v 0.030604 0.512291 -0.876958
v 0.030604 0.512291 -1.220253
v 0.000000 0.520492 -0.876958
v 0.000000 0.520492 -1.220253
v -0.030604 0.512291 -0.876958
v -0.030604 0.512291 -1.220253
v -0.053008 0.489887 -0.876958
v -0.053008 0.489887 -1.220253
v -0.053008 0.428679 -0.876958
v -0.053008 0.428679 -1.220253
v -0.030604 0.406275 -0.876958
v -0.030604 0.406275 -1.220253
v 0.000000 0.389671 -1.043421
v 0.000000 0.389671 -1.399461
v 0.034806 0.386163 -1.076243
v 0.034806 0.386163 -1.366639
v 0.060286 0.424477 -1.043421
v 0.060286 0.424477 -1.399461
v 0.060286 0.494089 -1.043421
v 0.060286 0.494089 -1.399461
v 0.034806 0.519569 -1.043421
v 0.034806 0.519569 -1.399461
v 0.000000 0.528895 -1.043421
v 0.000000 0.528895 -1.399461
v -0.034806 0.519569 -1.043421
v -0.034806 0.519569 -1.399461
v -0.060286 0.494089 -1.043421
v -0.060286 0.494089 -1.399461
v -0.060286 0.424477 -1.043421
v -0.060286 0.424477 -1.399461
v -0.034806 0.386163 -1.076243
v -0.034806 0.386163 -1.366639
v 0.034806 0.565771 -1.399461
v 0.034806 0.538975 -1.043421
v 0.000000 0.548301 -1.043421
v 0.000000 0.575097 -1.399461
v -0.034806 0.538975 -1.043421
v -0.034806 0.565771 -1.399461
v 0.000000 0.348651 -1.043421
v 0.034806 0.362643 -1.076243
v -0.034806 0.362643 -1.076243
v 0.034806 0.238712 -1.341720
v 0.034806 0.238199 -1.366639
v 0.000000 0.216862 -1.325731
v 0.000000 0.215346 -1.399461
v -0.034806 0.238199 -1.366639
v -0.034806 0.238712 -1.341720
v 0.062467 0.432619 -1.043421
v 0.062467 0.485947 -1.043421
v 0.062467 0.485947 -1.399461
v 0.062467 0.432619 -1.399461
v -0.062467 0.485947 -1.043421
v -0.062467 0.432619 -1.043421
v -0.062467 0.432619 -1.399461
v -0.062467 0.485947 -1.399461
v 0.034806 0.398997 -1.399461
v 0.034806 0.398997 -1.043421
v -0.034806 0.398997 -1.399461
v -0.034806 0.398997 -1.043421
v 0.034806 0.357978 -1.043421
v -0.034806 0.357978 -1.043421
v 0.034806 0.224672 -1.399461
v 0.034806 0.226188 -1.325731
v -0.034806 0.226188 -1.325731
v -0.034806 0.224672 -1.399461
v 0.024780 0.377927 -1.357174
v 0.024780 0.377927 -1.104271
v -0.024780 0.377927 -1.357174
v -0.024780 0.377927 -1.104271
v 0.024780 0.357444 -1.104271
v -0.024780 0.357444 -1.104271
v 0.024780 0.249067 -1.357174
v 0.024780 0.249513 -1.335472
v -0.024780 0.249513 -1.335472
v -0.024780 0.249067 -1.357174
v -0.047133 0.297932 -1.040450
v -0.047133 0.434714 -1.040450
v -0.047133 0.434714 -1.105590
v 0.047133 0.297932 -1.040450
v 0.047133 0.434714 -1.040450
v 0.047133 0.434714 -1.105590
v -0.047133 0.317253 -1.105590
v -0.047133 0.297201 -1.075711
v 0.047133 0.297211 -1.075799
v 0.047133 0.317253 -1.105590
v -0.054814 0.579799 -1.399926
v 0.054814 0.579799 -1.399926
v -0.054814 0.607385 -1.467004
v -0.054814 0.576568 -1.489878
v 0.054814 0.576568 -1.489878
v 0.054814 0.607385 -1.467004
v -0.054814 0.557894 -1.462217
v -0.054814 0.516892 -1.440282
v -0.054814 0.552810 -1.417858
v 0.054814 0.516892 -1.440282
v 0.054814 0.557894 -1.462217
v 0.054814 0.552810 -1.417858
v -0.054814 0.320032 -1.399926
v -0.054814 0.338947 -1.440282
v 0.054814 0.320032 -1.399926
v 0.054814 0.338947 -1.440282
v -0.044198 0.230372 -1.399926
v -0.023700 0.209149 -1.399926
v -0.023700 0.228064 -1.440282
v -0.044198 0.249287 -1.440282
v 0.023700 0.209149 -1.399926
v 0.044198 0.230372 -1.399926
v 0.044198 0.249287 -1.440282
v 0.023700 0.228064 -1.440282
v -0.037025 0.240143 -1.429218
v -0.037025 0.573575 -1.429218
v -0.037025 0.574666 -1.484995
v 0.037026 0.240143 -1.429218
v 0.037026 0.573575 -1.429218
v 0.037026 0.574666 -1.484995
v -0.037025 0.507660 -1.468057
v -0.037025 0.240143 -1.460314
v 0.037026 0.240143 -1.460314
v 0.037026 0.507660 -1.468057
v 0.054161 0.447810 -0.877459
v 0.054161 0.470756 -0.877459
v 0.054161 0.470756 -1.219752
v 0.054161 0.447810 -1.219752
v -0.054161 0.470756 -0.877459
v -0.054161 0.447810 -0.877459
v -0.054161 0.447810 -1.219752
v -0.054161 0.470756 -1.219752
v 0.054161 0.432982 -1.220253
v 0.054161 0.485584 -1.220253
v 0.054161 0.485584 -0.876958
v 0.054161 0.432982 -0.876958
v -0.054161 0.485584 -1.220253
v -0.054161 0.432982 -1.220253
v -0.054161 0.432982 -0.876958
v -0.054161 0.485584 -0.876958
v 0.044857 0.452761 -1.219752
v 0.044857 0.465805 -1.219752
v 0.044857 0.465805 -0.877459
v 0.044857 0.452761 -0.877459
v -0.044857 0.465805 -1.219752
v -0.044857 0.452761 -1.219752
v -0.044857 0.452761 -0.877459
v -0.044857 0.465805 -0.877459
vn -0.0000 -0.9021 0.4315
vn 0.2588 -0.9659 -0.0000
vn 0.5000 -0.8660 -0.0000
vn 0.4511 -0.7812 0.4315
vn 0.8660 -0.5000 -0.0000
vn 0.7812 -0.4511 0.4315
vn 0.9659 -0.2588 -0.0000
vn 0.9021 -0.0000 0.4315
vn 0.9659 0.2588 -0.0000
vn 0.8660 0.5000 -0.0000
vn 0.7812 0.4511 0.4315
vn 0.5000 0.8660 -0.0000
vn 0.4511 0.7812 0.4315
vn 0.2588 0.9659 -0.0000
vn -0.0000 0.9021 0.4315
vn -0.2588 0.9659 -0.0000
vn -0.5000 0.8660 -0.0000
vn -0.4511 0.7812 0.4315
vn -0.8660 0.5000 -0.0000
vn -0.7812 0.4511 0.4315
vn -0.9659 0.2588 -0.0000
vn -0.9021 -0.0000 0.4315
vn -0.9659 -0.2588 -0.0000
vn -0.8660 -0.5000 -0.0000
vn -0.7812 -0.4511 0.4315
vn -0.0000 -0.0000 -1.0000
vn -0.5000 -0.8660 -0.0000
vn -0.4511 -0.7812 0.4315
vn -0.2588 -0.9659 -0.0000
vn 0.7776 0.4490 0.4402
vn 0.8979 -0.0000 0.4402
vn -0.7776 0.4490 0.4402
vn -0.8979 -0.0000 0.4402
vn -1.0000 -0.0000 -0.0000
vn -0.0000 -0.8979 0.4402
vn -0.4490 -0.7776 0.4402
vn 0.4490 -0.7776 0.4402
vn 0.7776 -0.4490 0.4402
vn -0.7776 -0.4490 0.4402
vn -0.4490 0.7776 0.4402
vn -0.0000 0.8979 0.4402
vn 0.4490 0.7776 0.4402
vn -0.0000 -0.0000 1.0000
vn -0.0000 1.0000 -0.0000
vn 1.0000 -0.0000 -0.0000
vn -0.0000 -1.0000 -0.0000
vn -0.0000 -0.0477 -0.9989
vn -0.0000 0.3525 0.9358
vn -0.0000 0.6168 0.7871
vn -0.0000 -0.9883 0.1528
vn -0.0000 -0.9152 -0.4030
vn -0.0000 -0.7992 0.6011
vn 0.9914 0.1305 -0.0000
vn -0.9914 -0.1305 -0.0000
vn -0.9914 0.1305 -0.0000
vn 0.9914 -0.1305 -0.0000
vn 0.7071 -0.7071 -0.0000
vn 0.7071 0.7071 -0.0000
vn -0.7071 0.7071 -0.0000
vn -0.7071 -0.7071 -0.0000
vn -0.2359 -0.8805 0.4111
vn -0.2519 -0.9400 0.2301
vn -0.0000 -0.9719 0.2353
vn -0.0000 -0.9061 0.4230
vn 0.2581 0.9634 0.0725
vn -0.0000 0.9972 0.0750
vn -0.2581 0.9634 0.0725
vn 0.6347 -0.7727 -0.0000
vn -0.9958 -0.0000 -0.0912
vn -0.9962 -0.0000 -0.0871
vn -0.9840 -0.0000 -0.1783
vn -0.9853 -0.0000 -0.1706
vn 0.2519 -0.9400 0.2301
vn 0.2359 -0.8805 0.4111
vn -0.0000 -0.9998 0.0206
vn 0.2588 -0.9657 0.0199
vn -0.2588 -0.9657 0.0199
vn 0.9962 -0.0000 -0.0871
vn 0.9712 -0.0000 0.2383
vn -0.9712 -0.0000 0.2383
vn 0.9958 -0.0000 -0.0912
vn 0.9724 -0.0000 0.2332
vn -0.9724 -0.0000 0.2332
vn 0.8772 -0.0000 0.4802
vn 0.9840 -0.0000 -0.1783
vn 0.9853 -0.0000 -0.1706
vn 0.8746 -0.0000 0.4848
vn -0.8772 -0.0000 0.4802
vn -0.8746 -0.0000 0.4848
vn 0.5804 0.7379 -0.3445
vn 0.7181 0.6943 -0.0481
vn 0.5993 0.7370 -0.3125
vn 0.7288 0.6846 -0.0141
vn -0.6347 -0.7727 -0.0000
vn -0.7288 0.6846 -0.0141
vn -0.7181 0.6943 -0.0481
vn -0.5993 0.7370 -0.3125
vn -0.5804 0.7379 -0.3445
vn -0.0001 -0.9507 -0.3100
vn -0.0001 -0.9515 -0.3077
vn -0.0002 -0.8300 -0.5577
vn 0.0001 -0.9998 0.0205
vn 0.9981 -0.0562 -0.0263
vn 0.9977 -0.0616 -0.0289
vn -0.0000 -0.6211 -0.7838
vn -0.0000 -0.8288 -0.5595
vn 0.9916 -0.1174 -0.0550
vn -0.0000 0.5960 -0.8030
vn -0.0000 0.9086 -0.4176
vn -0.0000 -0.9055 -0.4244
vn -0.0000 0.9248 0.3803
vn -0.0000 -0.4717 -0.8818
vn -0.9977 -0.0616 -0.0289
vn -0.9981 -0.0562 -0.0263
vn -0.6839 -0.6606 -0.3096
vn 0.6839 -0.6606 -0.3096
vn -0.9916 -0.1174 -0.0550
vn -0.0000 -0.2451 -0.9695
vn -0.0000 0.9998 0.0196
vn -0.0000 -0.0289 -0.9996
vn -0.4698 -0.8828 -0.0000
vn -0.4698 0.8828 -0.0000
vn 0.4698 0.8828 -0.0000
vn 0.4698 -0.8828 -0.0000
vt 1.000000 0.500000
vt 1.000000 1.000000
vt 0.916667 1.000000
vt 0.916667 0.500000
vt 0.833333 1.000000
vt 0.833333 0.500000
vt 0.750000 1.000000
vt 0.750000 0.500000
vt 0.666667 1.000000
vt 0.666667 0.500000
vt 0.583333 1.000000
vt 0.583333 0.500000
vt 0.500000 1.000000
vt 0.500000 0.500000
vt 0.416667 1.000000
vt 0.416667 0.500000
vt 0.333333 1.000000
vt 0.333333 0.500000
vt 0.250000 1.000000
vt 0.250000 0.500000
vt 0.166667 1.000000
vt 0.166667 0.500000
vt 0.370000 0.457846
vt 0.250000 0.490000
vt 0.130000 0.457846
vt 0.042154 0.370000
vt 0.010000 0.250000
vt 0.042154 0.130000
vt 0.130000 0.042154
vt 0.250000 0.010000
vt 0.370000 0.042154
vt 0.457846 0.130000
vt 0.490000 0.250000
vt 0.457846 0.370000
vt 0.083333 1.000000
vt 0.083333 0.500000
vt 0.000000 1.000000
vt 0.000000 0.500000
vt 0.750000 0.490000
vt 0.870000 0.457846
vt 0.957846 0.370000
vt 0.990000 0.250000
vt 0.957846 0.130000
vt 0.870000 0.042154
vt 0.750000 0.010000
vt 0.630000 0.042154
vt 0.542154 0.130000
vt 0.510000 0.250000
vt 0.542154 0.370000
vt 0.630000 0.457846
vt 0.403054 0.250000
vt 0.625000 0.250000
vt 0.625000 0.500000
vt 0.403054 0.500000
vt 0.375000 0.596532
vt 0.625000 0.750000
vt 0.375000 0.750000
vt 0.625000 1.000000
vt 0.375000 1.000000
vt 0.375000 0.000000
vt 0.625000 0.000000
vt 0.375000 0.153468
vt 0.875000 0.500000
vt 0.875000 0.750000
vt 0.375000 0.596532
vt 0.125000 0.596532
vt 0.125000 0.500000
vt 0.375000 0.500000
vt 0.125000 0.750000
vt 0.678384 0.500000
vt 0.678383 1.000000
vt 0.037633 0.353128
vt 0.037633 0.146872
vt 0.462367 0.146872
vt 0.462367 0.353128
vt 0.178384 0.500000
vt 0.178384 1.000000
vt 0.321617 1.000000
vt 0.321617 0.500000
vt 0.821617 1.000000
vt 0.821617 0.500000
vt 0.686160 0.500000
vt 0.686161 1.000000
vt 0.034632 0.341929
vt 0.034632 0.158071
vt 0.465368 0.158071
vt 0.465368 0.341929
vt 0.186160 0.500000
vt 0.186161 1.000000
vt 0.313840 1.000000
vt 0.313840 0.500000
vt 0.083333 0.818663
vt 0.000000 0.818663
vt 0.813840 1.000000
vt 0.813840 0.500000
vt 0.916667 0.952497
vt 0.916667 0.545240
vt 0.083333 0.543525
vt 0.083333 0.545240
vt 1.000000 0.818663
vt 0.916667 0.818663
vt 0.307973 0.474466
vt 0.192027 0.474466
vt 0.965368 0.341929
vt 0.965368 0.158071
vt 0.534632 0.158071
vt 0.534632 0.341929
vt 0.083333 0.952497
vt 0.916667 0.543525
vt 0.916667 0.928634
vt 0.916667 0.873063
vt 0.083333 0.873063
vt 0.083333 0.928634
vt 0.418523 0.250000
vt 0.418523 0.500000
vt 0.375000 0.545235
vt 0.375000 0.204765
vt 0.375000 0.545235
vt 0.125000 0.545235
vt 0.387399 0.500000
vt 0.603887 0.500000
vt 0.625000 0.623991
vt 0.385553 0.750000
vt 0.625000 0.623991
vt 0.375000 0.320953
vt 0.377373 0.274209
vt 0.387399 0.250000
vt 0.603887 0.250000
vt 0.377373 0.475791
vt 0.375000 0.429047
vt 0.352811 0.750000
vt 0.353164 0.500000
vt 0.195953 0.500000
vt 0.304047 0.500000
vt 0.304047 0.750000
vt 0.195953 0.750000
vt 0.625000 0.126009
vt 0.636717 0.500000
vt 0.375000 0.820953
vt 0.377020 0.774209
vt 0.385553 0.750000
vt 0.385553 1.000000
vt 0.377020 0.975791
vt 0.375000 0.929047
vt 0.385553 0.000000
vt 0.603887 0.250000
vt 0.149209 0.742871
vt 0.149209 0.500000
vt 0.125000 0.712753
vt 0.383662 0.250000
vt 0.383662 0.500000
vt 0.375000 0.524578
vt 0.383662 0.500000
vt 0.375000 0.225422
vt 0.125000 0.524578
vt 0.312744 0.999270
vt 0.187257 0.999270
vt 0.187257 0.500730
vt 0.312744 0.500730
vt 0.962367 0.353128
vt 0.962367 0.146872
vt 0.537633 0.146872
vt 0.537633 0.353128
vt 0.687256 0.999270
vt 0.812744 0.999270
vt 0.687257 0.500730
vt 0.812744 0.500730
s 1
f 1/1/1 2/2/2 4/3/3 3/4/4
f 3/4/4 4/3/3 6/5/5 5/6/6
f 5/6/6 6/5/5 8/7/7 7/8/8
f 7/8/8 8/7/9 10/9/10 9/10/11
f 9/10/11 10/9/10 12/11/12 11/12/13
f 11/12/13 12/11/12 14/13/14 13/14/15
f 13/14/15 14/13/16 16/15/17 15/16/18
f 15/16/18 16/15/17 18/17/19 17/18/20
f 17/18/20 18/17/19 20/19/21 19/20/22
f 19/20/22 20/19/23 22/21/24 21/22/25
f 4/23/26 2/24/26 24/25/26 22/26/26 20/27/26 18/28/26 16/29/26 14/30/26 12/31/26 10/32/26 8/33/26 6/34/26
f 21/22/25 22/21/24 24/35/27 23/36/28
f 23/36/28 24/35/27 2/37/29 1/38/1
f 7/8/8 9/10/11 29/10/30 28/8/31
f 33/18/32 34/20/33 46/20/34 45/18/19
f 23/36/28 1/38/1 25/38/35 36/36/36
f 1/1/1 3/4/4 26/4/37 25/1/35
f 5/6/6 7/8/8 28/8/31 27/6/38
f 21/22/25 23/36/28 36/36/36 35/22/39
f 3/4/4 5/6/6 27/6/38 26/4/37
f 19/20/22 21/22/25 35/22/39 34/20/33
f 17/18/20 19/20/22 34/20/33 33/18/32
f 15/16/18 17/18/20 33/18/32 32/16/40
f 13/14/15 15/16/18 32/16/40 31/14/41
f 11/12/13 13/14/15 31/14/41 30/12/42
f 9/10/11 11/12/13 30/12/42 29/10/30
f 37/39/43 38/40/43 39/41/43 40/42/43 41/43/43 42/44/43 43/45/43 44/46/43 45/47/43 46/48/43 47/49/43 48/50/43
f 30/12/42 31/14/41 43/14/44 42/12/12
f 27/6/38 28/8/31 40/8/45 39/6/5
f 34/20/33 35/22/39 47/22/24 46/20/34
f 31/14/41 32/16/40 44/16/17 43/14/44
f 28/8/31 29/10/30 41/10/10 40/8/45
f 35/22/39 36/36/36 48/36/27 47/22/24
f 25/1/35 26/4/37 38/4/3 37/1/46
f 32/16/40 33/18/32 45/18/19 44/16/17
f 29/10/30 30/12/42 42/12/12 41/10/10
f 36/36/36 25/38/35 37/38/46 48/36/27
f 26/4/37 27/6/38 39/6/5 38/4/3
f 55/51/47 51/52/47 54/53/47 58/54/47
f 57/55/45 58/54/45 54/53/45 53/56/45 52/57/45
f 52/57/48 53/56/49 50/58/49 49/59/48
f 49/60/34 50/61/34 51/52/34 55/51/34 56/62/34
f 54/53/44 51/63/44 50/64/49 53/56/49
f 57/65/50 56/66/50 55/67/51 58/68/51
f 56/66/50 57/65/50 52/57/52 49/69/52
f 59/1/2 60/2/2 62/3/3 61/4/3
f 61/4/3 62/3/3 64/5/5 63/6/5
f 196/70/53 195/71/53 66/9/10 65/10/10
f 62/23/26 60/24/26 78/25/26 76/26/26 199/72/26 198/73/26 74/28/26 72/29/26 70/30/26 68/31/26 66/32/26 195/74/26 194/75/26 64/34/26
f 65/10/10 66/9/10 68/11/12 67/12/12
f 67/12/12 68/11/12 70/13/14 69/14/14
f 69/14/16 70/13/16 72/15/17 71/16/17
f 71/16/17 72/15/17 74/17/19 73/18/19
f 200/76/54 199/77/54 76/21/24 75/22/24
f 73/18/19 74/17/19 198/78/55 201/79/55
f 75/22/24 76/21/24 78/35/27 77/36/27
f 77/36/27 78/35/27 60/37/29 59/38/29
f 63/6/5 64/5/5 194/80/56 197/81/56
f 123/40/43 79/39/43 105/39/43 126/40/43
f 123/4/57 122/3/57 84/5/5 83/6/5
f 115/82/53 116/83/53 86/9/10 85/10/10
f 122/23/26 80/24/26 124/25/26 96/26/26 120/84/26 121/85/26 94/28/26 92/29/26 90/30/26 88/31/26 86/32/26 116/86/26 117/87/26 84/34/26
f 85/10/10 86/9/10 88/11/58 87/12/58
f 89/45/43 87/44/43 100/44/43 101/45/43
f 90/30/26 92/29/26 104/29/26 102/30/26
f 91/16/59 92/15/59 94/17/19 93/18/19
f 119/88/54 120/89/54 96/21/24 95/22/24
f 93/18/19 94/17/19 121/90/55 118/91/55
f 95/22/24 96/21/24 124/35/60 125/36/60
f 127/36/61 130/92/62 110/93/63 105/38/64
f 83/6/5 84/5/5 117/94/56 114/95/56
f 100/12/65 99/11/65 102/13/66 101/14/66
f 101/14/66 102/13/66 104/15/67 103/16/67
f 92/15/34 91/16/34 103/16/34 104/15/34
f 91/46/43 89/45/43 101/45/43 103/46/43
f 88/31/26 90/30/26 102/30/26 99/31/26
f 87/12/45 88/11/45 99/11/45 100/12/45
f 82/96/68 81/97/68 133/97/68 132/96/68
f 107/98/69 97/99/70 135/99/71 137/98/72
f 124/25/26 80/24/26 111/24/26 131/25/26
f 79/39/43 125/50/43 127/50/43 105/39/43
f 105/1/64 110/100/63 129/101/73 126/4/74
f 129/23/73 110/102/63 111/24/75 128/23/76
f 110/103/63 130/25/62 131/25/77 111/24/75
f 80/24/26 122/23/26 128/23/26 111/24/26
f 116/83/53 115/82/53 114/95/56 117/94/56
f 120/89/54 119/88/54 118/91/55 121/90/55
f 79/39/43 123/40/43 83/41/43 114/104/43 115/105/43 85/43/43 87/44/43 89/45/43 91/46/43 93/47/43 118/106/43 119/107/43 95/49/43 125/50/43
f 81/97/78 82/96/79 122/3/45 123/4/45
f 98/108/80 97/99/70 125/36/34 124/35/34
f 106/109/81 81/97/78 123/4/45 126/4/45
f 97/99/70 107/98/69 127/36/34 125/36/34
f 109/110/82 108/111/45 129/101/45 128/3/45
f 113/112/34 112/113/83 131/35/34 130/92/34
f 82/96/79 109/110/82 128/3/45 122/3/45
f 108/111/45 106/109/81 126/4/45 129/101/45
f 112/113/83 98/108/80 124/35/34 131/35/34
f 107/98/69 113/112/34 130/92/34 127/36/34
f 132/96/84 133/97/85 136/109/86 139/111/45 138/110/87
f 135/99/71 134/108/88 141/113/89 140/112/34 137/98/72
f 106/109/90 108/111/91 139/111/92 136/109/90
f 108/111/91 109/110/93 138/110/93 139/111/92
f 97/99/94 98/108/94 134/108/94 135/99/94
f 98/108/80 112/113/83 141/113/89 134/108/88
f 112/113/95 113/112/96 140/112/97 141/113/95
f 81/97/78 106/109/81 136/109/86 133/97/85
f 113/112/96 107/98/98 137/98/98 140/112/97
f 109/110/82 82/96/79 132/96/84 138/110/87
f 148/114/26 144/52/26 147/53/26 151/115/26
f 150/116/45 151/115/45 147/53/45 146/56/45 145/57/45
f 145/57/43 146/56/43 143/58/43 142/59/43
f 142/60/34 143/61/34 144/52/34 148/114/34 149/117/34
f 147/53/44 144/63/44 143/64/44 146/56/44
f 150/118/99 149/119/100 148/67/101 151/68/101
f 149/119/100 150/118/99 145/57/102 142/69/102
f 167/120/103 161/121/45 163/122/45 153/56/45 166/123/104
f 162/53/105 158/52/105 155/52/106 156/53/106
f 153/56/45 163/124/45 162/53/45 156/53/45 157/56/45
f 170/125/26 171/126/26 165/127/26 159/128/26 161/121/26 167/120/26 174/129/26 175/130/26
f 173/131/107 174/132/107 167/120/103 166/123/104
f 156/53/108 155/63/108 154/64/109 157/56/109
f 170/133/110 175/134/110 172/135/110 169/136/110
f 152/58/111 153/56/111 157/56/109 154/58/109
f 158/52/34 159/52/34 160/137/34
f 161/121/45 162/138/45 163/124/45
f 158/52/105 162/53/105 161/121/112 159/128/112
f 158/52/34 160/137/34 152/61/34 154/61/34 155/52/34
f 172/139/43 173/140/43 166/141/43 153/56/43 152/58/43 164/142/43 168/143/43 169/144/43
f 164/145/113 152/61/34 160/137/34 159/146/34 165/127/114
f 170/133/115 169/136/115 168/147/115 171/148/115
f 172/135/116 175/134/116 174/132/116 173/131/116
f 171/148/117 168/147/117 164/149/113 165/67/114
f 182/150/118 178/52/118 181/53/118 185/151/118
f 184/152/45 185/153/45 181/53/45 180/56/45 179/57/45
f 179/57/43 180/56/43 177/58/43 176/59/43
f 176/60/34 177/61/34 178/52/34 182/150/34 183/154/34
f 181/53/119 178/63/119 177/64/119 180/56/119
f 184/152/120 183/155/120 182/67/120 185/68/120
f 183/155/46 184/152/46 179/57/46 176/69/46
f 193/156/43 192/157/43 207/157/43 206/156/43
f 191/158/26 190/159/26 209/159/26 208/158/26
f 59/39/43 61/40/43 63/41/43 197/160/43 196/161/43 65/43/43 67/44/43 69/45/43 71/46/43 73/47/43 201/162/43 200/163/43 75/49/43 77/50/43
f 188/164/45 189/165/45 194/80/56 195/71/53
f 187/166/45 188/164/45 195/71/53 196/70/53
f 186/167/45 187/166/45 196/70/53 197/81/56
f 189/165/45 186/167/45 197/81/56 194/80/56
f 192/157/34 193/156/34 198/78/55 199/77/54
f 191/158/34 192/157/34 199/77/54 200/76/54
f 190/159/34 191/158/34 200/76/54 201/79/55
f 193/156/34 190/159/34 201/79/55 198/78/55
f 203/164/45 204/166/45 205/167/45 202/165/45
f 207/157/34 208/158/34 209/159/34 206/156/34
f 187/166/26 186/167/26 205/167/26 204/166/26
f 189/165/43 188/164/43 203/164/43 202/165/43
f 190/159/121 193/156/121 206/156/121 209/159/121
f 192/157/122 191/158/122 208/158/122 207/157/122
f 186/167/123 189/165/123 202/165/123 205/167/123
f 188/164/124 187/166/124 204/166/124 203/164/124
