# Blender 4.4.3
# www.blender.org
mtllib Glass.mtl
o Cylinder.002
v -0.492540 0.118456 1.020655
v -0.492540 0.140617 1.005973
v -0.469389 0.128046 1.020655
v -0.485059 0.143716 1.005973
v -0.459799 0.151197 1.020655
v -0.481960 0.151197 1.005973
v -0.469389 0.174348 1.020655
v -0.485059 0.158678 1.005973
v -0.492540 0.183938 1.020655
v -0.492540 0.161777 1.005973
v -0.515691 0.174348 1.020655
v -0.500021 0.158678 1.005973
v -0.525281 0.151197 1.020655
v -0.503120 0.151197 1.005973
v -0.515691 0.128046 1.020655
v -0.500021 0.143716 1.005973
v -0.469389 0.128046 1.008335
v -0.492540 0.118456 1.008335
v -0.459799 0.151197 1.008335
v -0.469389 0.174348 1.008335
v -0.492540 0.183938 1.008335
v -0.515691 0.174348 1.008335
v -0.525281 0.151197 1.008335
v -0.515691 0.128046 1.008335
v -0.492540 0.130458 1.469631
v -0.492540 0.144495 1.478931
v -0.507205 0.136532 1.469631
v -0.497279 0.146458 1.478931
v -0.513279 0.151197 1.469631
v -0.499242 0.151197 1.478931
v -0.507205 0.165862 1.469631
v -0.497279 0.155936 1.478931
v -0.492540 0.171936 1.469631
v -0.492540 0.157899 1.478931
v -0.477875 0.165862 1.469631
v -0.487801 0.155936 1.478931
v -0.471801 0.151197 1.469631
v -0.485838 0.151197 1.478931
v -0.477875 0.136532 1.469631
v -0.487801 0.146458 1.478931
v -0.507205 0.136532 1.477435
v -0.492540 0.130458 1.477435
v -0.513279 0.151197 1.477435
v -0.507205 0.165862 1.477435
v -0.492540 0.171936 1.477435
v -0.477875 0.165862 1.477435
v -0.471801 0.151197 1.477435
v -0.477875 0.136532 1.477435
vn 0.3827 -0.9239 -0.0000
vn 0.9239 -0.3827 -0.0000
vn 0.9239 0.3827 -0.0000
vn 0.3827 0.9239 -0.0000
vn -0.3827 0.9239 -0.0000
vn -0.9239 0.3827 -0.0000
vn -0.0000 -0.0000 -1.0000
vn -0.9239 -0.3827 -0.0000
vn -0.3827 -0.9239 -0.0000
vn -0.0000 -0.0000 1.0000
vn 0.0439 -0.1059 -0.9934
vn 0.1059 -0.0439 -0.9934
vn 0.1059 0.0439 -0.9934
vn 0.0439 0.1059 -0.9934
vn -0.0439 0.1059 -0.9934
vn -0.1059 0.0439 -0.9934
vn -0.1059 -0.0439 -0.9934
vn -0.0439 -0.1059 -0.9934
vn -0.0439 -0.1059 0.9934
vn -0.1059 -0.0439 0.9934
vn -0.1059 0.0439 0.9934
vn -0.0439 0.1059 0.9934
vn 0.0439 0.1059 0.9934
vn 0.1059 0.0439 0.9934
vn 0.1059 -0.0439 0.9934
vn 0.0439 -0.1059 0.9934
vt 1.000000 0.500000
vt 1.000000 1.000000
vt 0.875000 1.000000
vt 0.875000 0.500000
vt 0.750000 1.000000
vt 0.750000 0.500000
vt 0.625000 1.000000
vt 0.625000 0.500000
vt 0.500000 1.000000
vt 0.500000 0.500000
vt 0.375000 1.000000
vt 0.375000 0.500000
vt 0.250000 1.000000
vt 0.250000 0.500000
vt 0.304840 0.304840
vt 0.250000 0.327556
vt 0.195160 0.304840
vt 0.172444 0.250000
vt 0.195160 0.195160
vt 0.250000 0.172444
vt 0.304840 0.195160
vt 0.327556 0.250000
vt 0.125000 1.000000
vt 0.125000 0.500000
vt 0.000000 1.000000
vt 0.000000 0.500000
vt 0.750000 0.490000
vt 0.919706 0.419706
vt 0.990000 0.250000
vt 0.919706 0.080294
vt 0.750000 0.010000
vt 0.580294 0.080294
vt 0.510000 0.250000
vt 0.580294 0.419706
vt 0.419706 0.419706
vt 0.250000 0.490000
vt 0.490000 0.250000
vt 0.419706 0.080294
vt 0.250000 0.010000
vt 0.080294 0.080294
vt 0.010000 0.250000
vt 0.080294 0.419706
s 0
f 1/1/1 18/2/1 17/3/1 3/4/1
f 3/4/2 17/3/2 19/5/2 5/6/2
f 5/6/3 19/5/3 20/7/3 7/8/3
f 7/8/4 20/7/4 21/9/4 9/10/4
f 9/10/5 21/9/5 22/11/5 11/12/5
f 11/12/6 22/11/6 23/13/6 13/14/6
f 4/15/7 2/16/7 16/17/7 14/18/7 12/19/7 10/20/7 8/21/7 6/22/7
f 13/14/8 23/13/8 24/23/8 15/24/8
f 15/24/9 24/23/9 18/25/9 1/26/9
f 1/27/10 3/28/10 5/29/10 7/30/10 9/31/10 11/32/10 13/33/10 15/34/10
f 2/16/11 4/15/11 17/35/11 18/36/11
f 4/15/12 6/22/12 19/37/12 17/35/12
f 6/22/13 8/21/13 20/38/13 19/37/13
f 8/21/14 10/20/14 21/39/14 20/38/14
f 10/20/15 12/19/15 22/40/15 21/39/15
f 12/19/16 14/18/16 23/41/16 22/40/16
f 14/18/17 16/17/17 24/42/17 23/41/17
f 16/17/18 2/16/18 18/36/18 24/42/18
f 25/1/9 42/2/9 41/3/9 27/4/9
f 27/4/8 41/3/8 43/5/8 29/6/8
f 29/6/6 43/5/6 44/7/6 31/8/6
f 31/8/5 44/7/5 45/9/5 33/10/5
f 33/10/4 45/9/4 46/11/4 35/12/4
f 35/12/3 46/11/3 47/13/3 37/14/3
f 28/15/10 26/16/10 40/17/10 38/18/10 36/19/10 34/20/10 32/21/10 30/22/10
f 37/14/2 47/13/2 48/23/2 39/24/2
f 39/24/1 48/23/1 42/25/1 25/26/1
f 25/27/7 27/28/7 29/29/7 31/30/7 33/31/7 35/32/7 37/33/7 39/34/7
f 26/16/19 28/15/19 41/35/19 42/36/19
f 28/15/20 30/22/20 43/37/20 41/35/20
f 30/22/21 32/21/21 44/38/21 43/37/21
f 32/21/22 34/20/22 45/39/22 44/38/22
f 34/20/23 36/19/23 46/40/23 45/39/23
f 36/19/24 38/18/24 47/41/24 46/40/24
f 38/18/25 40/17/25 48/42/25 47/41/25
f 40/17/26 26/16/26 42/36/26 48/42/26
