# Blender 4.4.3
# www.blender.org
mtllib Mag1.mtl
o Cube.001
v -0.019559 -0.064192 -0.223986
v -0.014630 -0.063826 -0.231582
v -0.014630 0.017916 -0.224806
v -0.019559 0.017685 -0.217204
v 0.012077 -0.063826 -0.231582
v 0.017006 -0.064192 -0.223986
v 0.017006 0.017685 -0.217204
v 0.012077 0.017916 -0.224806
v -0.017155 -0.066544 -0.175230
v -0.019559 -0.066366 -0.178934
v -0.019559 0.016311 -0.172121
v -0.017155 0.016198 -0.168414
v 0.017006 -0.066366 -0.178934
v 0.014603 -0.066544 -0.175230
v 0.014603 0.016198 -0.168414
v 0.017006 0.016311 -0.172121
v -0.014630 -0.122315 -0.239209
v -0.019559 -0.123456 -0.231691
v 0.017006 -0.123456 -0.231691
v 0.012077 -0.122315 -0.239209
v -0.019559 -0.130222 -0.187097
v -0.017155 -0.130779 -0.183430
v 0.014603 -0.130779 -0.183430
v 0.017006 -0.130222 -0.187097
v -0.014630 -0.188395 -0.253553
v -0.019559 -0.190261 -0.246181
v 0.017006 -0.190261 -0.246181
v 0.012077 -0.188395 -0.253553
v -0.019559 -0.201325 -0.202455
v -0.017155 -0.202235 -0.198859
v 0.014603 -0.202235 -0.198859
v 0.017006 -0.201325 -0.202455
v -0.014630 -0.233109 -0.264033
v -0.019559 -0.252952 -0.263740
v 0.017006 -0.252952 -0.263740
v 0.012077 -0.233109 -0.264033
v -0.019559 -0.266071 -0.220586
v -0.017155 -0.267150 -0.217038
v 0.014603 -0.267150 -0.217038
v 0.017006 -0.266071 -0.220586
v -0.016220 -0.252137 -0.274614
v -0.021736 -0.254612 -0.266471
v 0.019183 -0.254612 -0.266471
v 0.013668 -0.252137 -0.274614
v -0.021736 -0.269293 -0.218178
v -0.019046 -0.270500 -0.214207
v 0.016494 -0.270500 -0.214207
v 0.019183 -0.269293 -0.218178
v -0.016220 -0.260577 -0.277180
v -0.021736 -0.263052 -0.269037
v 0.019183 -0.263052 -0.269037
v 0.013668 -0.260577 -0.277180
v -0.021736 -0.277733 -0.220744
v -0.019046 -0.278940 -0.216773
v 0.016494 -0.278940 -0.216773
v 0.019183 -0.277733 -0.220744
v -0.017220 0.037924 -0.214523
v -0.013194 0.038113 -0.220732
v 0.010642 0.038113 -0.220732
v 0.014667 0.037924 -0.214523
v -0.015516 0.036615 -0.171554
v -0.017220 0.036695 -0.174183
v 0.014667 0.036695 -0.174183
v 0.012963 0.036615 -0.171554
v -0.019559 0.037994 -0.216816
v -0.014630 0.038226 -0.224417
v 0.012077 0.038226 -0.224417
v 0.017006 0.037994 -0.216816
v -0.017155 0.036508 -0.168026
v -0.019559 0.036621 -0.171733
v 0.017006 0.036621 -0.171733
v 0.014603 0.036508 -0.168026
v -0.017220 0.011945 -0.215315
v -0.013194 0.012134 -0.221523
v 0.010642 0.012134 -0.221523
v 0.014667 0.011945 -0.215315
v -0.015516 0.010636 -0.172346
v -0.017220 0.010717 -0.174974
v 0.014667 0.010717 -0.174974
v 0.012963 0.010636 -0.172346
v -0.013733 0.047832 -0.171705
v -0.015618 0.047945 -0.175412
v 0.013066 0.047945 -0.175412
v 0.011180 0.047832 -0.171705
v -0.015618 0.049318 -0.209783
v 0.013066 0.049318 -0.209783
v -0.011264 0.046376 -0.175233
v -0.012460 0.046456 -0.177862
v 0.009907 0.046456 -0.177862
v 0.008712 0.046376 -0.175233
v -0.012460 0.047685 -0.209926
v 0.009907 0.047685 -0.209926
v -0.008712 0.052339 -0.177732
v -0.009838 0.052451 -0.181377
v 0.007285 0.052451 -0.181377
v 0.006160 0.052339 -0.177732
v -0.009824 0.053816 -0.201778
v 0.007272 0.053816 -0.201778
v -0.007225 0.049748 -0.181260
v -0.007932 0.049826 -0.183815
v 0.005379 0.050962 -0.183815
v 0.004672 0.050883 -0.181260
v -0.007921 0.051047 -0.201339
v 0.005368 0.052183 -0.201339
vn -0.0000 0.0826 -0.9966
vn 1.0000 -0.0000 -0.0000
vn -0.8387 -0.0690 0.5401
vn -0.0000 -0.0821 0.9966
vn -0.8389 0.0449 -0.5424
vn 0.8389 0.0449 -0.5424
vn -0.0000 0.0191 -0.9998
vn -0.8389 -0.0447 0.5424
vn 0.8389 -0.0447 0.5424
vn -1.0000 -0.0000 -0.0000
vn -0.0000 -0.2111 0.9775
vn -0.0000 0.1293 -0.9916
vn 0.8387 0.0703 -0.5400
vn -0.8387 0.0703 -0.5400
vn -0.0000 -0.1266 0.9919
vn 0.8387 -0.0690 0.5401
vn -0.8391 -0.1467 0.5238
vn 0.8389 -0.1149 0.5321
vn -0.0000 0.2121 -0.9772
vn -0.8388 0.1154 -0.5320
vn -0.8389 -0.1149 0.5321
vn 0.8388 0.1154 -0.5320
vn 0.7382 0.6454 0.1962
vn 0.7946 0.1534 -0.5875
vn -0.0000 -0.2697 0.9630
vn 0.8391 -0.1467 0.5238
vn -0.0000 0.2282 -0.9736
vn -0.7946 0.1534 -0.5875
vn -0.7382 0.6454 0.1962
vn -0.4640 0.7097 0.5301
vn 0.9093 0.3293 -0.2545
vn -0.0000 0.6453 0.7639
vn 0.4640 0.7097 0.5301
vn -0.0000 0.4860 -0.8740
vn -0.9093 0.3293 -0.2545
vn -0.0000 -0.9568 -0.2909
vn -0.8392 -0.1582 0.5204
vn 0.8392 0.1582 -0.5204
vn -0.0000 -0.2909 0.9568
vn 0.8392 -0.1582 0.5204
vn -0.0000 0.2909 -0.9568
vn -0.8392 0.1582 -0.5204
vn 0.8392 -0.0166 0.5436
vn 0.8392 -0.0104 0.5438
vn -0.8392 -0.0104 0.5438
vn -0.0000 -0.0191 0.9998
vn 0.8392 0.0104 -0.5438
vn -0.8392 0.0104 -0.5438
vn -0.0000 0.9995 0.0304
vn 0.8464 -0.1276 0.5171
vn 0.8990 -0.4377 -0.0149
vn 0.7853 0.4069 0.4667
vn -0.8464 -0.1276 0.5171
vn 0.8392 0.0166 -0.5436
vn -0.8392 -0.0166 0.5436
vn -0.0000 0.0304 -0.9995
vn -0.8392 0.0166 -0.5436
vn -0.0000 -0.0304 0.9995
vn -0.6178 0.7853 0.0391
vn -0.5408 -0.8109 -0.2234
vn 0.5397 0.5795 -0.6107
vn 0.4704 0.8549 0.2188
vn -0.9449 0.3271 0.0113
vn 0.7482 -0.5068 -0.4282
vn -0.8990 -0.4377 -0.0149
vn -0.7482 -0.5068 -0.4282
vn -0.7853 0.4069 0.4667
vn -0.4261 0.2958 -0.8550
vn 0.9449 0.3271 0.0113
vn 0.4261 0.2958 -0.8550
vn 0.7102 0.6781 -0.1890
vn -0.5147 0.8481 -0.1260
vn 0.8230 0.5667 0.0392
vn -0.6494 0.7587 0.0521
vn -0.4485 0.6384 -0.6255
vn 0.6030 -0.7967 -0.0392
vn -0.8385 -0.1380 0.5271
vn 0.6178 0.7853 0.0391
vn 0.8314 -0.1294 0.5404
vn -0.4704 0.8549 0.2188
vn -0.7093 -0.7041 -0.0346
vn 0.4336 -0.8817 -0.1861
vt 0.375000 0.283699
vt 0.625000 0.283699
vt 0.625000 0.466301
vt 0.375000 0.466301
vt 0.375000 0.533699
vt 0.625000 0.533699
vt 0.625000 0.733567
vt 0.375000 0.733567
vt 0.375000 0.000000
vt 0.375000 0.016433
vt 0.375000 0.766433
vt 0.625000 0.766433
vt 0.625000 0.983567
vt 0.375000 0.983567
vt 0.375000 0.216301
vt 0.625000 0.216301
vt 0.625000 0.000000
vt 0.625000 0.016433
vt 0.125000 0.533699
vt 0.158699 0.500000
vt 0.341301 0.500000
vt 0.375000 0.733567
vt 0.358567 0.750000
vt 0.141433 0.750000
vt 0.125000 0.733567
vt 0.838646 0.506411
vt 0.868590 0.536354
vt 0.841301 0.500000
vt 0.875000 0.533699
vt 0.661354 0.506410
vt 0.631410 0.536354
vt 0.658699 0.500000
vt 0.858567 0.750000
vt 0.855911 0.743589
vt 0.868590 0.730911
vt 0.644089 0.743590
vt 0.641433 0.750000
vt 0.631410 0.730911
vt 0.875000 0.733567
vt 0.625000 0.733567
s 0
f 2/1/1 3/2/1 8/3/1 5/4/1
f 6/5/2 7/6/2 16/7/2 13/8/2
f 9/9/3 10/10/3 21/10/3 22/9/3
f 14/11/4 15/12/4 12/13/4 9/14/4
f 3/2/5 2/1/5 1/15/5 4/16/5
f 7/6/6 6/5/6 5/4/6 8/3/6
f 8/3/7 3/2/7 66/2/7 67/3/7
f 9/9/8 12/17/8 11/18/8 10/10/8
f 15/12/9 14/11/9 13/8/9 16/7/9
f 10/10/10 11/18/10 4/16/10 1/15/10
f 23/11/11 22/14/11 30/14/11 31/11/11
f 2/1/12 5/4/12 20/4/12 17/1/12
f 5/4/13 6/5/13 19/5/13 20/4/13
f 1/15/14 2/1/14 17/1/14 18/15/14
f 6/5/2 13/8/2 24/8/2 19/5/2
f 14/11/15 9/14/15 22/14/15 23/11/15
f 10/10/10 1/15/10 18/15/10 21/10/10
f 13/8/16 14/11/16 23/11/16 24/8/16
f 30/9/17 29/10/17 37/10/17 38/9/17
f 24/8/18 23/11/18 31/11/18 32/8/18
f 17/1/19 20/4/19 28/4/19 25/1/19
f 18/15/20 17/1/20 25/1/20 26/15/20
f 19/5/2 24/8/2 32/8/2 27/5/2
f 21/10/10 18/15/10 26/15/10 29/10/10
f 22/9/21 21/10/21 29/10/21 30/9/21
f 20/4/22 19/5/22 27/5/22 28/4/22
f 35/5/23 40/8/23 48/8/23 43/5/23
f 28/4/24 27/5/24 35/5/24 36/4/24
f 31/11/25 30/14/25 38/14/25 39/11/25
f 32/8/26 31/11/26 39/11/26 40/8/26
f 25/1/27 28/4/27 36/4/27 33/1/27
f 26/15/28 25/1/28 33/1/28 34/15/28
f 27/5/2 32/8/2 40/8/2 35/5/2
f 29/10/10 26/15/10 34/15/10 37/10/10
f 43/5/2 48/8/2 56/8/2 51/5/2
f 37/10/29 34/15/29 42/15/29 45/10/29
f 38/9/30 37/10/30 45/10/30 46/9/30
f 36/4/31 35/5/31 43/5/31 44/4/31
f 39/11/32 38/14/32 46/14/32 47/11/32
f 40/8/33 39/11/33 47/11/33 48/8/33
f 33/1/34 36/4/34 44/4/34 41/1/34
f 34/15/35 33/1/35 41/1/35 42/15/35
f 50/19/36 49/20/36 52/21/36 51/5/36 56/22/36 55/23/36 54/24/36 53/25/36
f 45/10/10 42/15/10 50/15/10 53/10/10
f 46/9/37 45/10/37 53/10/37 54/9/37
f 44/4/38 43/5/38 51/5/38 52/4/38
f 47/11/39 46/14/39 54/14/39 55/11/39
f 48/8/40 47/11/40 55/11/40 56/8/40
f 41/1/41 44/4/41 52/4/41 49/1/41
f 42/15/42 41/1/42 49/1/42 50/15/42
f 58/26/43 57/27/43 73/27/43 74/26/43
f 15/12/44 16/7/44 71/7/44 72/12/44
f 16/7/2 7/6/2 68/6/2 71/7/2
f 11/18/45 12/17/45 69/17/45 70/18/45
f 12/13/46 15/12/46 72/12/46 69/13/46
f 4/16/10 11/18/10 70/18/10 65/16/10
f 7/6/47 8/3/47 67/3/47 68/6/47
f 3/2/48 4/16/48 65/16/48 66/2/48
f 57/27/49 58/26/49 66/28/49 65/29/49
f 59/30/49 60/31/49 68/6/49 67/32/49
f 58/26/49 59/30/49 67/32/49 66/28/49
f 69/33/50 61/34/50 87/34/50 81/33/50
f 62/35/51 57/27/51 91/27/51 88/35/51
f 72/12/52 71/7/52 83/7/52 84/12/52
f 64/36/49 61/34/49 69/33/49 72/37/49
f 64/36/53 72/37/53 84/37/53 90/36/53
f 76/31/49 75/30/49 74/26/49 73/27/49 78/35/49 77/34/49 80/36/49 79/38/49
f 63/38/10 60/31/10 76/31/10 79/38/10
f 57/27/2 62/35/2 78/35/2 73/27/2
f 62/35/54 61/34/54 77/34/54 78/35/54
f 60/31/55 59/30/55 75/30/55 76/31/55
f 61/34/56 64/36/56 80/36/56 77/34/56
f 64/36/57 63/38/57 79/38/57 80/36/57
f 59/30/58 58/26/58 74/26/58 75/30/58
f 85/16/59 82/18/59 94/18/59 97/16/59
f 89/38/60 90/36/60 102/36/60 101/38/60
f 91/27/61 85/29/61 97/29/61 103/27/61
f 84/12/62 83/7/62 95/7/62 96/12/62
f 65/16/63 70/18/63 82/18/63 85/16/63
f 61/34/64 62/35/64 88/35/64 87/34/64
f 60/31/65 63/38/65 89/38/65 92/31/65
f 63/38/66 64/36/66 90/36/66 89/38/66
f 70/18/67 69/17/67 81/17/67 82/18/67
f 68/6/68 60/31/68 92/31/68 86/6/68
f 71/7/69 68/6/69 86/6/69 83/7/69
f 57/27/70 65/29/70 85/29/70 91/27/70
f 99/34/71 100/35/71 94/39/71 93/33/71
f 101/38/72 102/36/72 96/37/72 95/40/72
f 100/35/73 103/27/73 97/29/73 94/39/73
f 104/31/74 101/38/74 95/40/74 98/6/74
f 86/6/75 92/31/75 104/31/75 98/6/75
f 88/35/76 91/27/76 103/27/76 100/35/76
f 90/36/77 84/37/77 96/37/77 102/36/77
f 83/7/78 86/6/78 98/6/78 95/7/78
f 81/33/79 87/34/79 99/34/79 93/33/79
f 82/18/80 81/17/80 93/17/80 94/18/80
f 92/31/81 89/38/81 101/38/81 104/31/81
f 87/34/82 88/35/82 100/35/82 99/34/82
