# Blender 4.4.3
# www.blender.org
mtllib Stock1.mtl
o Cube.002
v -0.011929 -0.010841 0.059685
v -0.020869 -0.000121 0.059685
v -0.020869 0.043838 0.059685
v -0.011929 0.054508 0.059685
v 0.018317 -0.000121 0.059685
v -0.012684 -0.009925 0.091673
v -0.016227 -0.000016 0.091673
v 0.009377 -0.010841 0.059685
v 0.009377 0.054508 0.059685
v -0.016227 0.039092 0.091673
v 0.018317 0.043838 0.059685
v -0.012684 0.049001 0.091673
v 0.018317 0.043838 0.111552
v 0.018317 0.000338 0.124697
v 0.018317 -0.005236 0.112794
v 0.018317 0.037682 0.124697
v -0.011929 0.054508 0.108496
v 0.013675 -0.000016 0.091673
v 0.010132 -0.009925 0.091673
v 0.009377 0.054508 0.108496
v -0.020869 0.000338 0.124697
v 0.010132 0.049001 0.091673
v -0.020869 0.043838 0.111552
v 0.013675 0.039092 0.091673
v -0.020869 0.037682 0.124697
v -0.020869 -0.005236 0.112794
v -0.018528 -0.007629 0.108496
v -0.011929 -0.016442 0.108496
v -0.018845 -0.007249 0.108496
v -0.019670 0.045269 0.108496
v 0.011718 -0.013635 0.108496
v 0.009377 -0.016442 0.108496
v 0.016500 -0.007249 0.108496
v 0.017118 0.045269 0.108496
v 0.013675 0.000338 0.124697
v -0.016227 0.000338 0.124697
v 0.013675 0.037682 0.124697
v -0.016227 0.037682 0.124697
v -0.012684 0.049001 0.108496
v -0.014862 0.045269 0.108496
v 0.012310 0.045269 0.108496
v 0.010132 0.049001 0.108496
v -0.014246 -0.007249 0.108496
v 0.011694 -0.007249 0.108496
v 0.010132 -0.009925 0.108496
v -0.012684 -0.009925 0.108496
v 0.013675 0.039092 0.121686
v -0.016227 0.039092 0.121686
v 0.013675 -0.000016 0.123940
v -0.016227 -0.000016 0.123940
v -0.018567 0.030083 0.422832
v -0.018567 0.030083 0.107198
v 0.016015 0.030083 0.422832
v 0.016015 0.030083 0.107198
v -0.009190 0.052586 0.422832
v -0.018567 0.041003 0.422832
v -0.018567 0.041003 0.107198
v -0.009190 0.052586 0.107198
v 0.016015 0.041003 0.422832
v 0.006638 0.052586 0.422832
v 0.006638 0.052586 0.107198
v 0.016015 0.041003 0.107198
v -0.018567 -0.066998 0.412054
v -0.018567 0.008816 0.106027
v 0.016015 -0.066998 0.412054
v 0.016015 0.008816 0.106027
v -0.009191 -0.088776 0.406388
v -0.018567 -0.077566 0.409305
v -0.018567 -0.001752 0.103277
v -0.009191 -0.012962 0.100360
v 0.016015 -0.077566 0.409305
v 0.006638 -0.088776 0.406388
v 0.006638 -0.012962 0.100360
v 0.016015 -0.001752 0.103277
v -0.017088 -0.070005 0.424556
v -0.009669 -0.078825 0.423978
v -0.009669 0.041860 0.431886
v -0.017088 0.033121 0.431314
v -0.012031 -0.090684 0.403271
v -0.021538 -0.079381 0.404007
v -0.021538 0.045718 0.412152
v -0.012031 0.056916 0.412881
v 0.007116 -0.078825 0.423978
v 0.014535 -0.070005 0.424556
v 0.014535 0.033121 0.431314
v 0.007116 0.041860 0.431886
v 0.018985 -0.079381 0.404007
v 0.009479 -0.090684 0.403271
v 0.009479 0.056916 0.412881
v 0.018985 0.045718 0.412152
v -0.013387 0.037480 0.411616
v -0.017088 0.033121 0.411332
v 0.014535 -0.065679 0.404899
v 0.010922 -0.069975 0.404619
v -0.017088 -0.065679 0.404899
v 0.007116 -0.074500 0.404324
v -0.009669 -0.074500 0.404324
v -0.009669 0.041860 0.411901
v 0.007116 0.041860 0.411901
v 0.014535 0.033121 0.411332
v -0.021538 -0.084399 0.426813
v -0.021538 -0.073049 0.436937
v -0.012031 -0.095702 0.426073
v -0.008688 -0.088326 0.435935
v -0.012031 0.056916 0.436016
v -0.008710 0.047506 0.444837
v -0.021538 0.032396 0.443846
v -0.021538 0.045718 0.435282
v 0.009479 -0.095702 0.426073
v 0.006135 -0.088326 0.435935
v 0.018985 -0.073049 0.436937
v 0.018985 -0.084399 0.426813
v 0.018985 0.045718 0.435282
v 0.018985 0.032396 0.443846
v 0.009479 0.056916 0.436016
v 0.006157 0.047506 0.444837
v 0.020810 0.018077 0.091835
v -0.023362 0.018077 0.091835
v 0.020810 0.023160 0.093940
v -0.023362 0.023160 0.093940
v 0.020810 0.025265 0.099022
v -0.023362 0.025265 0.099022
v 0.020810 0.023160 0.104105
v -0.023362 0.023160 0.104105
v 0.020810 0.018077 0.106210
v -0.023362 0.018077 0.106210
v 0.020810 0.012995 0.104105
v -0.023362 0.012995 0.104105
v 0.020810 0.010890 0.099022
v -0.023362 0.010890 0.099022
v 0.020810 0.012995 0.093940
v -0.023362 0.012995 0.093940
vn 1.0000 -0.0000 -0.0000
vn -0.0000 1.0000 -0.0000
vn -1.0000 -0.0000 -0.0000
vn -0.0000 -0.0000 -1.0000
vn -0.7790 -0.6238 -0.0643
vn -0.7665 0.6423 -0.0000
vn 0.7791 -0.6233 -0.0672
vn 0.7665 0.6423 -0.0000
vn -0.0000 -0.9935 -0.1140
vn -0.0000 -0.0000 1.0000
vn -0.0000 0.9056 0.4241
vn -0.0000 -0.9056 0.4241
vn -0.0000 -1.0000 -0.0000
vn 0.9477 0.3189 0.0128
vn 0.9493 -0.3139 0.0191
vn -0.9477 0.3189 0.0128
vn -0.9493 -0.3139 0.0191
vn -0.7773 0.6292 -0.0000
vn 0.7772 0.6292 -0.0000
vn -0.0000 -0.9707 -0.2405
vn -0.0000 0.9707 0.2405
vn -0.0000 0.2518 -0.9678
vn -0.7772 -0.6108 -0.1513
vn 0.7772 -0.6108 -0.1513
vn -0.0000 -0.2518 0.9678
vn -0.7623 -0.6321 -0.1391
vn 0.7623 0.6472 -0.0000
vn -0.7623 0.6472 -0.0000
vn -0.0000 -0.0654 0.9979
vn -0.0000 0.0650 -0.9979
vn -0.0000 -0.9766 -0.2149
vn 0.7623 -0.6321 -0.1391
vn -0.0000 0.0654 -0.9979
vn 0.7623 0.6321 0.1391
vn 0.7623 -0.6472 -0.0000
vn -0.7623 0.6321 0.1391
vn -0.7623 -0.6472 -0.0000
vn -0.0000 0.9766 0.2149
vn 0.5745 0.4426 0.6885
vn -0.0000 0.6839 0.7296
vn -0.5745 0.4426 0.6885
vn -0.5913 -0.5368 0.6019
vn -0.0000 -0.8008 0.5989
vn 0.5913 -0.5368 0.6019
vn -0.0000 0.3827 -0.9239
vn -0.0000 0.9239 -0.3827
vn -0.0000 0.9239 0.3827
vn -0.0000 0.3827 0.9239
vn -0.0000 -0.3827 0.9239
vn -0.0000 -0.9239 0.3827
vn -0.0000 -0.9239 -0.3827
vn -0.0000 -0.3827 -0.9239
vt 0.435939 0.745793
vt 0.413084 0.700791
vt 0.416009 0.500000
vt 0.584180 0.500000
vt 0.587023 0.696095
vt 0.566194 0.745793
vt 0.665341 0.684540
vt 0.665341 0.500000
vt 0.834659 0.500000
vt 0.834659 0.684540
vt 0.587023 0.053905
vt 0.584180 0.250000
vt 0.416009 0.250000
vt 0.413084 0.049209
vt 0.435939 0.004207
vt 0.566194 0.004207
vt 0.375000 0.459659
vt 0.375000 0.290341
vt 0.625000 0.290341
vt 0.625000 0.459659
vt 0.125000 0.500000
vt 0.165341 0.500000
vt 0.165341 0.684540
vt 0.135275 0.682331
vt 0.133886 0.682242
vt 0.125000 0.697685
vt 0.591983 0.065460
vt 0.625000 0.065460
vt 0.625000 0.250000
vt 0.334659 0.684540
vt 0.334659 0.500000
vt 0.397129 0.684559
vt 0.354679 0.684599
vt 0.597395 0.684540
vt 0.375000 0.474612
vt 0.625000 0.474612
vt 0.625000 0.462393
vt 0.375000 0.462393
vt 0.625000 0.275388
vt 0.375000 0.275388
vt 0.375000 0.287607
vt 0.625000 0.287607
vt 0.625000 0.444070
vt 0.625000 0.468515
vt 0.625000 0.429157
vt 0.625000 0.320843
vt 0.625000 0.281485
vt 0.625000 0.305930
vt 0.625000 0.317000
vt 0.625000 0.433000
vt 0.375000 0.309062
vt 0.375000 0.285679
vt 0.375000 0.287290
vt 0.375000 0.320843
vt 0.375000 0.429157
vt 0.375000 0.441059
vt 0.375000 0.465372
vt 0.375000 0.440938
vt 0.375000 0.433000
vt 0.375000 0.317000
vt 0.625000 0.462393
vt 0.625000 0.474612
vt 0.625000 0.287607
vt 0.375000 0.287607
vt 0.375000 0.474612
vt 0.375000 0.462393
vt 0.417041 0.626595
vt 0.418544 0.629562
vt 0.576977 0.629562
vt 0.582959 0.617751
vt 0.582959 0.500000
vt 0.417041 0.500000
vt 0.832959 0.500000
vt 0.667041 0.500000
vt 0.667041 0.566001
vt 0.832959 0.566001
vt 0.576977 0.120438
vt 0.418544 0.120438
vt 0.417041 0.123405
vt 0.417041 0.250000
vt 0.582959 0.250000
vt 0.582959 0.132250
vt 0.625000 0.457959
vt 0.625000 0.292041
vt 0.375000 0.292041
vt 0.375000 0.457959
vt 0.167041 0.500000
vt 0.125000 0.626595
vt 0.155687 0.566001
vt 0.167041 0.566001
vt 0.625000 0.183999
vt 0.609167 0.183999
vt 0.332959 0.500000
vt 0.332959 0.566001
vt 0.355666 0.566001
vt 0.635376 0.566001
vt 0.671496 0.500000
vt 0.828504 0.500000
vt 0.828504 0.750000
vt 0.671496 0.750000
vt 0.375000 0.500000
vt 0.496315 0.500000
vt 0.496315 0.750000
vt 0.375000 0.750000
vt 0.375000 0.000000
vt 0.496315 0.000000
vt 0.496315 0.250000
vt 0.375000 0.250000
vt 0.125000 0.750000
vt 0.496315 0.250000
vt 0.625000 0.296496
vt 0.625000 0.453504
vt 0.496315 0.500000
vt 0.625000 0.000000
vt 0.496315 0.750000
vt 0.625000 0.796496
vt 0.625000 0.953504
vt 0.496315 1.000000
vt 0.375000 1.000000
vt 0.183648 0.500000
vt 0.183648 0.677880
vt 0.125000 0.668638
vt 0.683648 0.500000
vt 0.683648 0.677567
vt 0.606648 0.677555
vt 0.606034 0.500000
vt 0.625000 0.072433
vt 0.606034 0.250000
vt 0.606648 0.072445
vt 0.609788 0.829139
vt 0.609788 0.920862
vt 0.585363 1.000000
vt 0.414908 1.000000
vt 0.390212 0.920726
vt 0.390212 0.829274
vt 0.414908 0.750000
vt 0.585362 0.750000
vt 0.592080 0.300285
vt 0.625000 0.308648
vt 0.625000 0.441352
vt 0.394146 0.500000
vt 0.410076 0.450256
vt 0.417352 0.472545
vt 0.584697 0.472545
vt 0.599498 0.426778
vt 0.599498 0.323222
vt 0.375000 0.441352
vt 0.375000 0.308648
vt 0.394146 0.250000
vt 0.584697 0.277455
vt 0.417352 0.277455
vt 0.402411 0.323222
vt 0.402411 0.426778
vt 0.316352 0.500000
vt 0.316352 0.677880
vt 0.183648 0.677880
vt 0.316352 0.677880
vt 0.393523 0.677885
vt 0.606648 0.677555
vt 0.585363 0.750000
vt 0.393523 0.677885
vt 0.816352 0.500000
vt 0.816352 0.677567
vt 0.375000 0.941352
vt 0.393271 1.000000
vt 0.606899 1.000000
vt 0.625000 0.941352
vt 0.625000 0.808648
vt 0.606899 0.750000
vt 0.393271 0.750000
vt 0.375000 0.808648
vt 0.393958 0.553530
vt 0.606219 0.553439
vt 0.683648 0.750000
vt 0.816352 0.750000
vt 0.816352 0.553432
vt 0.683648 0.553432
vt 0.606219 0.196561
vt 0.606899 0.000000
vt 0.393271 0.000000
vt 0.393958 0.196470
vt 0.125000 0.550748
vt 0.125000 0.737005
vt 0.183648 0.750000
vt 0.183648 0.553538
vt 0.625000 0.196568
vt 0.615591 0.196564
vt 0.316352 0.553538
vt 0.316352 0.750000
vt 0.356156 0.553534
vt 0.624501 0.807032
vt 0.624501 0.942968
vt 0.169148 0.746787
vt 0.295726 0.750000
vt 0.204274 0.750000
vt 0.335369 0.750000
vt 0.393523 0.072115
vt 0.414908 0.000000
vt 0.585362 0.000000
vt 1.000000 0.500000
vt 1.000000 1.000000
vt 0.875000 1.000000
vt 0.875000 0.500000
vt 0.750000 1.000000
vt 0.750000 0.500000
vt 0.625000 1.000000
vt 0.625000 0.500000
vt 0.500000 1.000000
vt 0.500000 0.500000
vt 0.250000 1.000000
vt 0.250000 0.500000
vt 0.419706 0.419706
vt 0.250000 0.490000
vt 0.080294 0.419706
vt 0.010000 0.250000
vt 0.080294 0.080294
vt 0.250000 0.010000
vt 0.419706 0.080294
vt 0.490000 0.250000
vt 0.125000 1.000000
vt 0.000000 1.000000
vt 0.000000 0.500000
vt 0.750000 0.490000
vt 0.919706 0.419706
vt 0.990000 0.250000
vt 0.919706 0.080294
vt 0.750000 0.010000
vt 0.580294 0.080294
vt 0.510000 0.250000
vt 0.580294 0.419706
s 0
f 14/1/1 15/2/1 5/3/1 11/4/1 13/5/1 16/6/1
f 20/7/2 9/8/2 4/9/2 17/10/2
f 23/11/3 3/12/3 2/13/3 26/14/3 21/15/3 25/16/3
f 5/3/4 8/17/4 1/18/4 2/13/4 3/12/4 4/19/4 9/20/4 11/4/4
f 2/21/5 1/22/5 28/23/5 27/24/5 29/25/5 26/26/5
f 30/27/6 17/28/6 4/29/6 3/12/6 23/11/6
f 32/30/7 8/31/7 5/3/7 15/2/7 33/32/7 31/33/7
f 34/34/8 13/5/8 11/4/8 9/8/8 20/7/8
f 1/22/9 8/31/9 32/30/9 28/23/9
f 14/35/10 16/36/10 37/37/10 35/38/10
f 25/39/10 21/40/10 36/41/10 38/42/10
f 41/43/10 34/44/10 20/45/10 17/46/10 30/47/10 40/48/10 39/49/10 42/50/10
f 43/51/10 29/52/10 27/53/10 28/54/10 32/55/10 31/56/10 33/57/10 44/58/10 45/59/10 46/60/10
f 47/61/11 37/37/11 16/36/11 13/62/11 34/44/11 41/43/11
f 30/47/11 23/39/11 25/39/11 38/42/11 48/63/11 40/48/11
f 21/40/12 26/40/12 29/52/12 43/51/12 50/64/12 36/41/12
f 44/58/12 33/57/12 15/65/12 14/35/12 35/38/12 49/66/12
f 49/67/3 35/68/3 37/69/3 47/70/3 24/71/3 18/72/3
f 12/73/13 22/74/13 42/75/13 39/76/13
f 38/77/1 36/78/1 50/79/1 7/80/1 10/81/1 48/82/1
f 22/83/10 12/84/10 10/81/10 7/80/10 6/85/10 19/86/10 18/72/10 24/71/10
f 6/87/14 7/21/14 50/88/14 43/89/14 46/90/14
f 48/82/15 10/81/15 12/29/15 39/91/15 40/92/15
f 49/67/16 18/72/16 19/93/16 45/94/16 44/95/16
f 42/75/17 22/74/17 24/71/17 47/70/17 41/96/17
f 45/94/2 19/93/2 6/87/2 46/90/2
f 61/97/2 58/98/2 55/99/2 60/100/2
f 54/101/1 62/102/1 59/103/1 53/104/1
f 51/105/3 56/106/3 57/107/3 52/108/3
f 52/21/13 54/101/13 53/104/13 51/109/13
f 52/108/4 57/110/4 58/111/4 61/112/4 62/113/4 54/101/4
f 55/114/18 58/29/18 57/107/18 56/106/18
f 61/97/19 60/100/19 59/103/19 62/102/19
f 53/104/10 59/115/10 60/116/10 55/117/10 56/118/10 51/119/10
f 73/97/20 72/100/20 67/99/20 70/98/20
f 66/101/1 65/104/1 71/103/1 74/102/1
f 63/105/3 64/108/3 69/107/3 68/106/3
f 64/21/21 63/109/21 65/104/21 66/101/21
f 64/108/22 66/101/22 74/113/22 73/112/22 70/111/22 69/110/22
f 67/114/23 68/106/23 69/107/23 70/29/23
f 73/97/24 74/102/24 71/103/24 72/100/24
f 65/104/25 63/119/25 68/118/25 67/117/25 72/116/25 71/115/25
f 79/120/26 103/121/26 101/122/26 80/21/26
f 89/123/27 115/124/27 113/125/27 90/126/27
f 105/127/28 82/29/28 81/128/28 108/129/28
f 116/130/29 106/131/29 107/132/29 102/133/29 104/134/29 110/135/29 111/136/29 114/137/29
f 91/138/30 81/128/30 82/139/30 89/140/30 90/126/30 87/141/30 94/142/30 93/143/30 100/144/30 99/145/30 98/146/30
f 94/142/30 87/141/30 88/147/30 79/148/30 80/149/30 81/128/30 91/138/30 92/150/30 95/151/30 97/152/30 96/153/30
f 79/120/31 88/154/31 109/155/31 103/156/31
f 109/157/32 88/154/32 87/141/32 112/158/32
f 87/141/1 90/126/1 113/159/1 114/160/1 111/136/1 112/161/1
f 89/123/2 82/162/2 105/163/2 115/124/2
f 76/164/33 75/165/33 78/166/33 77/167/33 86/168/33 85/169/33 84/170/33 83/171/33
f 93/172/3 84/170/3 85/169/3 100/173/3
f 86/174/13 77/175/13 98/176/13 99/177/13
f 92/178/1 78/179/1 75/180/1 95/181/1
f 95/182/34 75/183/34 76/184/34 97/185/34
f 98/186/35 77/114/35 78/179/35 92/178/35 91/187/35
f 96/188/36 83/189/36 84/170/36 93/172/36 94/190/36
f 100/173/37 85/169/37 86/174/37 99/177/37
f 76/184/38 83/189/38 96/188/38 97/185/38
f 113/169/39 115/191/39 116/130/39 114/137/39
f 106/131/40 116/130/40 115/168/40 105/167/40
f 105/192/41 108/166/41 107/132/41 106/131/41
f 101/122/42 103/121/42 104/193/42 102/183/42
f 103/156/43 109/155/43 110/194/43 104/195/43
f 109/157/44 112/158/44 111/170/44 110/196/44
f 101/197/3 102/198/3 107/199/3 108/129/3 81/128/3 80/149/3
f 117/200/45 118/201/45 120/202/45 119/203/45
f 119/203/46 120/202/46 122/204/46 121/205/46
f 121/205/47 122/204/47 124/206/47 123/207/47
f 123/207/48 124/206/48 126/208/48 125/209/48
f 125/209/49 126/208/49 128/119/49 127/101/49
f 127/101/50 128/119/50 130/210/50 129/211/50
f 120/212/3 118/213/3 132/214/3 130/215/3 128/216/3 126/217/3 124/218/3 122/219/3
f 129/211/51 130/210/51 132/220/51 131/21/51
f 131/21/52 132/220/52 118/221/52 117/222/52
f 117/223/1 119/224/1 121/225/1 123/226/1 125/227/1 127/228/1 129/229/1 131/230/1
