# This file is brought to you by Roblox Corporation
# Generated by Roblox Studio

mtllib Mag.mtl

g Mag1

v -350.542 0.877059 -186.451 
v -350.445 0.875062 -186.458 
v -350.542 0.832756 -186.625 
v -350.517 0.823303 -186.662 
v -350.461 0.823303 -186.662 
v -350.542 0.854907 -186.538 
v -350.465 0.8253 -186.654 
v -350.436 0.832756 -186.625 
v -350.436 0.854907 -186.538 
v -350.542 0.30684 -186.329 
v -350.542 0.30684 -186.418 
v -350.542 0.30684 -186.507 
v -350.523 0.883491 -186.544 
v -350.542 0.877059 -186.451 
v -350.523 0.905643 -186.457 
v -350.542 0.854907 -186.538 
v -350.456 0.883491 -186.544 
v -350.46 0.895966 -186.465 
v -350.456 0.905643 -186.457 
v -350.46 0.875226 -186.546 
v -350.477 0.308475 -186.592 
v -350.536 0.308475 -186.578 
v -350.542 0.832756 -186.625 
v -350.517 0.30684 -186.546 
v -350.542 0.30684 -186.507 
v -350.517 0.823303 -186.662 
v -350.549 0.308475 -186.316 
v -350.549 0.308475 -186.552 
v -350.549 0.279845 -186.317 
v -350.549 0.268157 -186.551 
v -350.536 0.308475 -186.578 
v -350.536 0.266844 -186.578 
v -350.549 0.308475 -186.552 
v -350.542 0.854907 -186.538 
v -350.542 0.30684 -186.507 
v -350.542 0.30684 -186.418 
v -350.542 0.832756 -186.625 
v -350.542 0.877059 -186.451 
v -350.542 0.30684 -186.329 
v -350.445 0.833582 -186.622 
v -350.445 0.318882 -186.506 
v -350.445 0.854322 -186.54 
v -350.445 0.320805 -186.422 
v -350.445 0.875062 -186.458 
v -350.445 0.322729 -186.338 
v -350.465 0.8253 -186.654 
v -350.465 0.318114 -186.539 
v -350.445 0.833582 -186.622 
v -350.445 0.318882 -186.506 
v -350.445 0.833582 -186.622 
v -350.465 0.318114 -186.539 
v -350.445 0.854322 -186.54 
v -350.46 0.895966 -186.465 
v -350.46 0.875226 -186.546 
v -350.445 0.875062 -186.458 
v -350.542 0.877059 -186.451 
v -350.436 0.877059 -186.451 
v -350.445 0.875062 -186.458 
v -350.533 0.875062 -186.458 
v -350.542 0.832756 -186.625 
v -350.513 0.8253 -186.654 
v -350.517 0.823303 -186.662 
v -350.461 0.823303 -186.662 
v -350.533 0.833582 -186.622 
v -350.542 0.854907 -186.538 
v -350.533 0.854322 -186.54 
v -350.465 0.8253 -186.654 
v -350.436 0.832756 -186.625 
v -350.445 0.833582 -186.622 
v -350.436 0.854907 -186.538 
v -350.445 0.854322 -186.54 
v -350.43 0.279845 -186.317 
v -350.542 0.30684 -186.329 
v -350.542 0.30684 -186.507 
v -350.46 0.875226 -186.546 
v -350.518 0.875226 -186.546 
v -350.477 0.308475 -186.592 
v -350.536 0.308475 -186.578 
v -350.43 0.308475 -186.552 
v -350.445 0.318882 -186.506 
v -350.445 0.320805 -186.422 
v -350.445 0.322729 -186.338 
v -350.533 0.320805 -186.422 
v -350.533 0.322729 -186.338 
v -350.513 0.318114 -186.539 
v -350.445 0.322729 -186.338 
v -350.533 0.320805 -186.422 
v -350.533 0.322729 -186.338 
v -350.445 0.320805 -186.422 
v -350.445 0.318882 -186.506 
v -350.533 0.318882 -186.506 
v -350.465 0.318114 -186.539 
v -350.513 0.318114 -186.539 
v -350.43 0.308475 -186.316 
v -350.43 0.308475 -186.552 
v -350.549 0.308475 -186.316 
v -350.549 0.308475 -186.552 
v -350.477 0.308475 -186.592 
v -350.442 0.308475 -186.578 
v -350.501 0.308475 -186.592 
v -350.536 0.308475 -186.578 
v -350.445 0.875062 -186.458 
v -350.533 0.875062 -186.458 
v -350.517 0.823303 -186.662 
v -350.461 0.823303 -186.662 
v -350.461 0.823303 -186.662 
v -350.461 0.30684 -186.546 
v -350.517 0.30684 -186.546 
v -350.517 0.823303 -186.662 
v -350.477 0.308475 -186.592 
v -350.477 0.266029 -186.592 
v -350.501 0.266029 -186.592 
v -350.442 0.266844 -186.578 
v -350.442 0.308475 -186.578 
v -350.501 0.308475 -186.592 
v -350.536 0.266844 -186.578 
v -350.536 0.308475 -186.578 
v -350.43 0.308475 -186.552 
v -350.456 0.883491 -186.544 
v -350.445 0.854322 -186.54 
v -350.46 0.875226 -186.546 
v -350.542 0.854907 -186.538 
v -350.523 0.883491 -186.544 
v -350.533 0.854322 -186.54 
v -350.518 0.875226 -186.546 
v -350.445 0.854322 -186.54 
v -350.456 0.883491 -186.544 
v -350.436 0.854907 -186.538 
v -350.445 0.322729 -186.338 
v -350.533 0.322729 -186.338 
v -350.533 0.322729 -186.338 
v -350.533 0.875062 -186.458 
v -350.445 0.322729 -186.338 
v -350.445 0.875062 -186.458 
v -350.542 0.877059 -186.451 
v -350.436 0.877059 -186.451 
v -350.533 0.875062 -186.458 
v -350.542 0.832756 -186.625 
v -350.517 0.823303 -186.662 
v -350.461 0.823303 -186.662 
v -350.542 0.854907 -186.538 
v -350.465 0.8253 -186.654 
v -350.436 0.832756 -186.625 
v -350.436 0.854907 -186.538 
v -350.43 0.279845 -186.317 
v -350.436 0.30684 -186.418 
v -350.436 0.30684 -186.507 
v -350.456 0.883491 -186.544 
v -350.456 0.905643 -186.457 
v -350.436 0.877059 -186.451 
v -350.436 0.854907 -186.538 
v -350.46 0.895966 -186.465 
v -350.46 0.875226 -186.546 
v -350.523 0.883491 -186.544 
v -350.523 0.905643 -186.457 
v -350.518 0.895966 -186.465 
v -350.518 0.875226 -186.546 
v -350.477 0.308475 -186.592 
v -350.461 0.30684 -186.546 
v -350.461 0.823303 -186.662 
v -350.436 0.832756 -186.625 
v -350.436 0.30684 -186.507 
v -350.43 0.279845 -186.317 
v -350.43 0.308475 -186.552 
v -350.43 0.308475 -186.316 
v -350.43 0.268157 -186.551 
v -350.442 0.308475 -186.578 
v -350.442 0.266844 -186.578 
v -350.43 0.308475 -186.552 
v -350.436 0.877059 -186.451 
v -350.436 0.30684 -186.329 
v -350.436 0.30684 -186.418 
v -350.436 0.854907 -186.538 
v -350.436 0.30684 -186.507 
v -350.436 0.832756 -186.625 
v -350.445 0.322729 -186.338 
v -350.533 0.875062 -186.458 
v -350.533 0.320805 -186.422 
v -350.533 0.854322 -186.54 
v -350.533 0.322729 -186.338 
v -350.533 0.318882 -186.506 
v -350.533 0.833582 -186.622 
v -350.533 0.833582 -186.622 
v -350.513 0.318114 -186.539 
v -350.513 0.8253 -186.654 
v -350.513 0.318114 -186.539 
v -350.533 0.833582 -186.622 
v -350.533 0.318882 -186.506 
v -350.518 0.895966 -186.465 
v -350.533 0.854322 -186.54 
v -350.518 0.875226 -186.546 
v -350.533 0.875062 -186.458 
v -350.445 0.875062 -186.458 
v -350.533 0.875062 -186.458 
v -350.542 0.854907 -186.538 
v -350.436 0.854907 -186.538 
v -350.549 0.279845 -186.317 
v -350.549 0.268157 -186.551 
v -350.43 0.279845 -186.317 
v -350.43 0.268157 -186.551 
v -350.501 0.266029 -186.592 
v -350.536 0.266844 -186.578 
v -350.477 0.266029 -186.592 
v -350.442 0.266844 -186.578 
v -350.542 0.30684 -186.329 
v -350.436 0.30684 -186.418 
v -350.436 0.30684 -186.329 
v -350.542 0.30684 -186.418 
v -350.542 0.30684 -186.507 
v -350.436 0.30684 -186.507 
v -350.517 0.30684 -186.546 
v -350.461 0.30684 -186.546 
v -350.542 0.877059 -186.451 
v -350.436 0.877059 -186.451 
v -350.517 0.823303 -186.662 
v -350.461 0.823303 -186.662 
v -350.43 0.279845 -186.317 
v -350.542 0.30684 -186.329 
v -350.549 0.308475 -186.316 
v -350.43 0.279845 -186.317 
v -350.43 0.308475 -186.316 
v -350.549 0.279845 -186.317 
v -350.542 0.877059 -186.451 
v -350.436 0.30684 -186.329 
v -350.436 0.877059 -186.451 
v -350.542 0.30684 -186.329 
v -350.445 0.318882 -186.506 
v -350.445 0.322729 -186.338 
v -350.513 0.318114 -186.539 
v -350.436 0.877059 -186.451 
v -350.46 0.895966 -186.465 
v -350.445 0.875062 -186.458 
v -350.456 0.905643 -186.457 
v -350.542 0.877059 -186.451 
v -350.518 0.895966 -186.465 
v -350.523 0.905643 -186.457 
v -350.533 0.875062 -186.458 
v -350.513 0.8253 -186.654 
v -350.513 0.318114 -186.539 
v -350.465 0.8253 -186.654 
v -350.465 0.318114 -186.539 

vn 0 0.968504 -0.244094 
vn 0 0.968504 -0.244094 
vn 0 0.968504 -0.244094 
vn 0 0.968504 -0.244094 
vn 0 0.968504 -0.244094 
vn 0 0.968504 -0.244094 
vn 0 0.968504 -0.244094 
vn 0 0.968504 -0.244094 
vn 0 0.968504 -0.244094 
vn 0 -1 0 
vn 0 -1 0 
vn 0 -1 0 
vn -0.834646 0.535433 -0.133858 
vn -0.834646 0.535433 -0.133858 
vn -0.834646 0.535433 -0.133858 
vn -0.834646 0.535433 -0.133858 
vn -0.850394 0.503937 -0.125984 
vn -0.850394 0.503937 -0.125984 
vn -0.850394 0.503937 -0.125984 
vn -0.850394 0.503937 -0.125984 
vn 0.19685 -0.00787402 -0.984252 
vn -0.377953 -0.00787402 -0.929134 
vn -0.834646 -0.11811 -0.535433 
vn -0.834646 -0.11811 -0.535433 
vn -0.834646 -0.11811 -0.535433 
vn -0.834646 -0.11811 -0.535433 
vn -1 0 0 
vn -0.976378 0 -0.220472 
vn -1 0 0 
vn -0.976378 0 -0.228346 
vn -0.905512 0 -0.425197 
vn -0.905512 0 -0.425197 
vn -0.976378 0 -0.220472 
vn -1 0 0 
vn -1 0 0 
vn -1 0 0 
vn -1 0 0 
vn -1 0 0 
vn -1 0 0 
vn -1 0 0 
vn -1 0 0 
vn -1 0 0 
vn -1 0 0 
vn -1 0 0 
vn -1 0 0 
vn -0.858268 0.11811 0.503937 
vn -0.858268 0.11811 0.503937 
vn -0.858268 0.11811 0.503937 
vn -0.858268 0.11811 0.503937 
vn -0.858268 0.11811 0.503937 
vn -0.858268 0.11811 0.503937 
vn -0.818898 -0.551181 0.141732 
vn -0.818898 -0.551181 0.141732 
vn -0.818898 -0.551181 0.141732 
vn -0.818898 -0.551181 0.141732 
vn 0 0.968504 -0.244094 
vn 0 0.968504 -0.244094 
vn 0 0.968504 -0.244094 
vn 0 0.968504 -0.244094 
vn 0 0.968504 -0.244094 
vn 0 0.968504 -0.244094 
vn 0 0.968504 -0.244094 
vn 0 0.968504 -0.244094 
vn 0 0.968504 -0.244094 
vn 0 0.968504 -0.244094 
vn 0 0.968504 -0.244094 
vn 0 0.968504 -0.244094 
vn 0 0.968504 -0.244094 
vn 0 0.968504 -0.244094 
vn 0 0.968504 -0.244094 
vn 0 0.968504 -0.244094 
vn 0 -1 0.0472441 
vn 0 -1 0 
vn 0 -1 0 
vn -0.850394 0.503937 -0.125984 
vn 0.850394 0.503937 -0.125984 
vn 0.19685 -0.00787402 -0.984252 
vn -0.377953 -0.00787402 -0.929134 
vn 0.976378 0 -0.220472 
vn -1 0 0 
vn -1 0 0 
vn -1 0 0 
vn 1 0 0 
vn 1 0 0 
vn 0.858268 0.11811 0.503937 
vn 0 1 -0.023622 
vn 0 1 -0.023622 
vn 0 1 -0.023622 
vn 0 1 -0.023622 
vn 0 1 -0.023622 
vn 0 1 -0.023622 
vn 0 1 -0.023622 
vn 0 1 -0.023622 
vn 0 1 0 
vn 0 1 0 
vn 0 1 0 
vn 0 1 0 
vn 0 1 0 
vn 0 1 0 
vn 0 1 0 
vn 0 1 0 
vn 0 0.968504 -0.244094 
vn 0 0.968504 -0.244094 
vn 0 0.968504 -0.244094 
vn 0 0.968504 -0.244094 
vn 0 -0.220472 -0.976378 
vn 0 -0.220472 -0.976378 
vn 0 -0.220472 -0.976378 
vn 0 -0.220472 -0.976378 
vn 0.19685 -0.00787402 -0.984252 
vn 0.188976 -0.00787402 -0.984252 
vn -0.188976 -0.00787402 -0.984252 
vn 0.377953 -0.00787402 -0.929134 
vn 0.377953 -0.00787402 -0.929134 
vn -0.19685 -0.00787402 -0.984252 
vn -0.377953 -0.00787402 -0.929134 
vn -0.377953 -0.00787402 -0.929134 
vn 0.976378 0 -0.220472 
vn 0.330709 -0.00787402 -0.944882 
vn 0.330709 -0.00787402 -0.944882 
vn 0.330709 -0.00787402 -0.944882 
vn -0.330709 -0.00787402 -0.944882 
vn -0.330709 -0.00787402 -0.944882 
vn -0.330709 -0.00787402 -0.944882 
vn -0.330709 -0.00787402 -0.944882 
vn 0.330709 -0.00787402 -0.944882 
vn 0.330709 -0.00787402 -0.944882 
vn 0.330709 -0.00787402 -0.944882 
vn -1 0 0 
vn 1 0 0 
vn 0 -0.212598 -0.976378 
vn 0 -0.212598 -0.976378 
vn 0 -0.212598 -0.976378 
vn 0 -0.212598 -0.976378 
vn 0 0.968504 -0.244094 
vn 0 0.968504 -0.244094 
vn 0 0.968504 -0.244094 
vn 0 0.968504 -0.244094 
vn 0 0.968504 -0.244094 
vn 0 0.968504 -0.244094 
vn 0 0.968504 -0.244094 
vn 0 0.968504 -0.244094 
vn 0 0.968504 -0.244094 
vn 0 0.968504 -0.244094 
vn 0 -1 0.0472441 
vn 0 -1 0 
vn 0 -1 0 
vn 0.834646 0.535433 -0.133858 
vn 0.834646 0.535433 -0.133858 
vn 0.834646 0.535433 -0.133858 
vn 0.834646 0.535433 -0.133858 
vn -0.850394 0.503937 -0.125984 
vn -0.850394 0.503937 -0.125984 
vn 0.850394 0.503937 -0.125984 
vn 0.850394 0.503937 -0.125984 
vn 0.850394 0.503937 -0.125984 
vn 0.850394 0.503937 -0.125984 
vn 0.19685 -0.00787402 -0.984252 
vn 0.834646 -0.11811 -0.535433 
vn 0.834646 -0.11811 -0.535433 
vn 0.834646 -0.11811 -0.535433 
vn 0.834646 -0.11811 -0.535433 
vn 1 0 0 
vn 0.976378 0 -0.220472 
vn 1 0 0 
vn 0.976378 0 -0.228346 
vn 0.905512 0 -0.425197 
vn 0.905512 0 -0.425197 
vn 0.976378 0 -0.220472 
vn 1 0 0 
vn 1 0 0 
vn 1 0 0 
vn 1 0 0 
vn 1 0 0 
vn 1 0 0 
vn -1 0 0 
vn 1 0 0 
vn 1 0 0 
vn 1 0 0 
vn 1 0 0 
vn 1 0 0 
vn 1 0 0 
vn 0.858268 0.11811 0.503937 
vn 0.858268 0.11811 0.503937 
vn 0.858268 0.11811 0.503937 
vn 0.858268 0.11811 0.503937 
vn 0.858268 0.11811 0.503937 
vn 0.858268 0.11811 0.503937 
vn 0.818898 -0.551181 0.141732 
vn 0.818898 -0.551181 0.141732 
vn 0.818898 -0.551181 0.141732 
vn 0.818898 -0.551181 0.141732 
vn 0 0.968504 -0.244094 
vn 0 0.968504 -0.244094 
vn 0 0.968504 -0.244094 
vn 0 0.968504 -0.244094 
vn 0 -1 0.0472441 
vn 0 -1 0.0472441 
vn 0 -1 0.0472441 
vn 0 -1 0.0472441 
vn 0 -1 0.0472441 
vn 0 -1 0.0472441 
vn 0 -1 0.0472441 
vn 0 -1 0.0472441 
vn 0 -1 0 
vn 0 -1 0 
vn 0 -1 0 
vn 0 -1 0 
vn 0 -1 0 
vn 0 -1 0 
vn 0 -1 0 
vn 0 -1 0 
vn 0 0.968504 -0.244094 
vn 0 0.968504 -0.244094 
vn 0 0.968504 -0.244094 
vn 0 0.968504 -0.244094 
vn 0 -1 0.0472441 
vn 0 -1 0 
vn 0 -0.015748 1 
vn 0 -0.015748 1 
vn 0 -0.015748 1 
vn 0 -0.015748 1 
vn 0 0.212598 0.976378 
vn 0 0.212598 0.976378 
vn 0 0.212598 0.976378 
vn 0 0.212598 0.976378 
vn -1 0 0 
vn -1 0 0 
vn 0.858268 0.11811 0.503937 
vn -0.629921 -0.259843 0.732283 
vn -0.629921 -0.259843 0.732283 
vn -0.629921 -0.259843 0.732283 
vn -0.629921 -0.259843 0.732283 
vn 0.629921 -0.259843 0.732283 
vn 0.629921 -0.259843 0.732283 
vn 0.629921 -0.259843 0.732283 
vn 0.629921 -0.259843 0.732283 
vn 0 0.220472 0.976378 
vn 0 0.220472 0.976378 
vn 0 0.220472 0.976378 
vn 0 0.220472 0.976378 

vt 28.0048 -34.9636 
vt 28.0039 -34.9638 
vt 27.983 -34.9691 
vt 27.9784 -34.9703 
vt 27.9784 -34.9703 
vt 27.9939 -34.9664 
vt 27.9794 -34.9701 
vt 27.983 -34.9691 
vt 27.9939 -34.9664 
vt 28.0201 -35.0349 
vt 28.0089 -35.0349 
vt 27.9978 -35.0349 
vt 27.9932 -34.9628 
vt 28.0048 -34.9636 
vt 28.0041 -34.96 
vt 27.9939 -34.9664 
vt 27.9932 -34.9628 
vt 28.0031 -34.9612 
vt 28.0041 -34.96 
vt 27.9929 -34.9638 
vt 27.9872 -35.0347 
vt 27.9889 -35.0347 
vt 27.983 -34.9691 
vt 27.9929 -35.0349 
vt 27.9978 -35.0349 
vt 27.9784 -34.9703 
vt 28.0216 -35.0347 
vt 27.9922 -35.0347 
vt 28.0215 -35.0382 
vt 27.9922 -35.0397 
vt 27.9889 -35.0347 
vt 27.989 -35.0399 
vt 27.9922 -35.0347 
vt 27.9939 -34.9664 
vt 27.9978 -35.0349 
vt 28.0089 -35.0349 
vt 27.983 -34.9691 
vt 28.0048 -34.9636 
vt 28.0201 -35.0349 
vt 27.9834 -34.969 
vt 27.998 -35.0334 
vt 27.9937 -34.9664 
vt 28.0085 -35.0331 
vt 28.0039 -34.9638 
vt 28.019 -35.0329 
vt 27.9794 -34.9701 
vt 27.9938 -35.0335 
vt 27.9834 -34.969 
vt 27.998 -35.0334 
vt 27.9834 -34.969 
vt 27.9938 -35.0335 
vt 27.9937 -34.9664 
vt 28.0031 -34.9612 
vt 27.9929 -34.9638 
vt 28.0039 -34.9638 
vt 27.9934 -35.0048 
vt 28.0066 -35.0048 
vt 28.0055 -35.0039 
vt 27.9945 -35.0039 
vt 27.9934 -34.983 
vt 27.997 -34.9794 
vt 27.9965 -34.9784 
vt 28.0035 -34.9784 
vt 27.9945 -34.9834 
vt 27.9934 -34.9939 
vt 27.9945 -34.9937 
vt 28.003 -34.9794 
vt 28.0066 -34.983 
vt 28.0055 -34.9834 
vt 28.0066 -34.9939 
vt 28.0055 -34.9937 
vt 28.0074 -35.0215 
vt 27.9934 -35.0201 
vt 27.9934 -34.9978 
vt 28.0036 -34.9929 
vt 27.9964 -34.9929 
vt 28.0015 -34.9872 
vt 27.9942 -34.9889 
vt 28.0074 -34.9922 
vt 28.0055 -34.998 
vt 28.0055 -35.0085 
vt 28.0055 -35.019 
vt 27.9945 -35.0085 
vt 27.9945 -35.019 
vt 27.997 -34.9938 
vt 28.0055 -35.019 
vt 27.9945 -35.0085 
vt 27.9945 -35.019 
vt 28.0055 -35.0085 
vt 28.0055 -34.998 
vt 27.9945 -34.998 
vt 28.003 -34.9938 
vt 27.997 -34.9938 
vt 28.0074 -35.0216 
vt 28.0074 -34.9922 
vt 27.9926 -35.0216 
vt 27.9926 -34.9922 
vt 28.0015 -34.9872 
vt 28.0058 -34.9889 
vt 27.9985 -34.9872 
vt 27.9942 -34.9889 
vt 27.9945 -34.9638 
vt 28.0055 -34.9638 
vt 28.0035 -34.9703 
vt 27.9965 -34.9703 
vt 27.9965 -34.9703 
vt 27.9965 -35.0349 
vt 28.0035 -35.0349 
vt 28.0035 -34.9703 
vt 27.9985 -35.0347 
vt 27.9985 -35.04 
vt 28.0015 -35.04 
vt 27.9942 -35.0399 
vt 27.9942 -35.0347 
vt 28.0015 -35.0347 
vt 28.0058 -35.0399 
vt 28.0058 -35.0347 
vt 27.9926 -35.0347 
vt 27.9958 -34.9628 
vt 27.9945 -34.9664 
vt 27.9964 -34.9638 
vt 28.0066 -34.9664 
vt 28.0042 -34.9628 
vt 28.0055 -34.9664 
vt 28.0036 -34.9638 
vt 27.9945 -34.9664 
vt 27.9958 -34.9628 
vt 27.9934 -34.9664 
vt 27.9945 -35.0329 
vt 28.0055 -35.0329 
vt 28.0055 -35.0329 
vt 28.0055 -34.9638 
vt 27.9945 -35.0329 
vt 27.9945 -34.9638 
vt 27.9952 -34.9636 
vt 27.9952 -34.9636 
vt 27.9961 -34.9638 
vt 28.017 -34.9691 
vt 28.0216 -34.9703 
vt 28.0216 -34.9703 
vt 28.0061 -34.9664 
vt 28.0206 -34.9701 
vt 28.017 -34.9691 
vt 28.0061 -34.9664 
vt 27.9785 -35.0382 
vt 27.9911 -35.0349 
vt 28.0022 -35.0349 
vt 28.0068 -34.9628 
vt 27.9959 -34.96 
vt 27.9952 -34.9636 
vt 28.0061 -34.9664 
vt 27.9969 -34.9612 
vt 28.0071 -34.9638 
vt 28.0068 -34.9628 
vt 27.9959 -34.96 
vt 27.9969 -34.9612 
vt 28.0071 -34.9638 
vt 28.0128 -35.0347 
vt 28.0071 -35.0349 
vt 28.0216 -34.9703 
vt 28.017 -34.9691 
vt 28.0022 -35.0349 
vt 27.9785 -35.0382 
vt 28.0078 -35.0347 
vt 27.9784 -35.0347 
vt 28.0078 -35.0397 
vt 28.0111 -35.0347 
vt 28.011 -35.0399 
vt 28.0078 -35.0347 
vt 27.9952 -34.9636 
vt 27.9799 -35.0349 
vt 27.9911 -35.0349 
vt 28.0061 -34.9664 
vt 28.0022 -35.0349 
vt 28.017 -34.9691 
vt 27.981 -35.0329 
vt 27.9961 -34.9638 
vt 27.9915 -35.0331 
vt 28.0063 -34.9664 
vt 27.981 -35.0329 
vt 28.002 -35.0334 
vt 28.0166 -34.969 
vt 28.0166 -34.969 
vt 28.0062 -35.0335 
vt 28.0206 -34.9701 
vt 28.0062 -35.0335 
vt 28.0166 -34.969 
vt 28.002 -35.0334 
vt 27.9969 -34.9612 
vt 28.0063 -34.9664 
vt 28.0071 -34.9638 
vt 27.9961 -34.9638 
vt 27.9945 -35.0039 
vt 28.0055 -35.0039 
vt 28.0066 -34.9939 
vt 27.9934 -34.9939 
vt 28.0074 -35.0215 
vt 28.0074 -34.9922 
vt 27.9926 -35.0215 
vt 27.9926 -34.9922 
vt 28.0015 -34.9872 
vt 28.0058 -34.989 
vt 27.9985 -34.9872 
vt 27.9942 -34.989 
vt 28.0066 -35.0201 
vt 27.9934 -35.0089 
vt 27.9934 -35.0201 
vt 28.0066 -35.0089 
vt 28.0066 -34.9978 
vt 27.9934 -34.9978 
vt 28.0035 -34.9929 
vt 27.9965 -34.9929 
vt 27.9934 -34.9636 
vt 28.0066 -34.9636 
vt 27.9965 -34.9703 
vt 28.0035 -34.9703 
vt 28.0074 -35.0382 
vt 27.9934 -35.0349 
vt 27.9926 -35.0347 
vt 28.0074 -35.0382 
vt 28.0074 -35.0347 
vt 27.9926 -35.0382 
vt 27.9934 -34.9636 
vt 28.0066 -35.0349 
vt 28.0066 -34.9636 
vt 27.9934 -35.0349 
vt 28.0055 -35.0334 
vt 28.0055 -35.0329 
vt 27.997 -35.0335 
vt 28.0066 -34.9636 
vt 28.0036 -34.9612 
vt 28.0055 -34.9638 
vt 28.0042 -34.96 
vt 27.9934 -34.9636 
vt 27.9964 -34.9612 
vt 27.9958 -34.96 
vt 27.9945 -34.9638 
vt 27.997 -34.9701 
vt 27.997 -35.0335 
vt 28.003 -34.9701 
vt 28.003 -35.0335 

usemtl Mag1Mtl

f 13/13/13 14/14/14 15/15/15 
f 14/14/14 13/13/13 16/16/16 
f 17/17/17 18/18/18 19/19/19 
f 18/18/18 17/17/17 20/20/20 
f 23/23/23 24/24/24 25/25/25 
f 24/24/24 23/23/23 26/26/26 
f 27/27/27 28/28/28 29/29/29 
f 29/29/29 28/28/28 30/30/30 
f 30/30/30 31/31/31 32/32/32 
f 30/30/30 33/33/33 31/31/31 
f 34/34/34 35/35/35 36/36/36 
f 35/35/35 34/34/34 37/37/37 
f 36/36/36 38/38/38 34/34/34 
f 38/38/38 36/36/36 39/39/39 
f 40/40/40 41/41/41 42/42/42 
f 43/43/43 42/42/42 41/41/41 
f 42/42/42 43/43/43 44/44/44 
f 45/45/45 44/44/44 43/43/43 
f 46/46/46 47/47/47 48/48/48 
f 49/49/49 50/50/50 51/51/51 
f 52/52/52 53/53/53 54/54/54 
f 53/53/53 52/52/52 55/55/55 
f 56/56/56 57/57/57 58/58/58 
f 56/56/56 58/58/58 59/59/59 
f 60/60/60 61/61/61 62/62/62 
f 61/61/61 63/63/63 62/62/62 
f 61/61/61 60/60/60 64/64/64 
f 65/65/65 64/64/64 60/60/60 
f 64/64/64 65/65/65 66/66/66 
f 61/61/61 67/67/67 63/63/63 
f 68/68/68 63/63/63 67/67/67 
f 68/68/68 67/67/67 69/69/69 
f 70/70/70 68/68/68 69/69/69 
f 70/70/70 69/69/69 71/71/71 
f 86/86/86 87/87/87 88/88/88 
f 87/87/87 86/86/86 89/89/89 
f 90/90/90 87/87/87 89/89/89 
f 87/87/87 90/90/90 91/91/91 
f 92/92/92 91/91/91 90/90/90 
f 91/91/91 92/92/92 93/93/93 
f 94/94/94 95/95/95 96/96/96 
f 96/96/96 95/95/95 97/97/97 
f 95/95/95 98/98/98 97/97/97 
f 98/98/98 95/95/95 99/99/99 
f 97/97/97 98/98/98 100/100/100 
f 97/97/97 100/100/100 101/101/101 
f 106/106/106 107/107/107 108/108/108 
f 108/108/108 109/109/109 106/106/106 
f 110/110/110 111/111/111 112/112/112 
f 110/110/110 113/113/113 111/111/111 
f 113/113/113 110/110/110 114/114/114 
f 112/112/112 115/115/115 110/110/110 
f 116/116/116 115/115/115 112/112/112 
f 115/115/115 116/116/116 117/117/117 
f 119/119/119 120/120/120 121/121/121 
f 122/122/122 123/123/123 124/124/124 
f 124/124/124 123/123/123 125/125/125 
f 126/126/126 127/127/127 128/128/128 
f 131/131/131 132/132/132 133/133/133 
f 133/133/133 132/132/132 134/134/134 
f 148/148/148 149/149/149 150/150/150 
f 150/150/150 151/151/151 148/148/148 
f 154/154/154 155/155/155 156/156/156 
f 156/156/156 157/157/157 154/154/154 
f 159/159/159 160/160/160 161/161/161 
f 161/161/161 162/162/162 159/159/159 
f 163/163/163 164/164/164 165/165/165 
f 164/164/164 163/163/163 166/166/166 
f 167/167/167 166/166/166 168/168/168 
f 166/166/166 167/167/167 169/169/169 
f 170/170/170 171/171/171 172/172/172 
f 170/170/170 172/172/172 173/173/173 
f 173/173/173 172/172/172 174/174/174 
f 173/173/173 174/174/174 175/175/175 
f 177/177/177 178/178/178 179/179/179 
f 178/178/178 177/177/177 180/180/180 
f 181/181/181 179/179/179 178/178/178 
f 179/179/179 181/181/181 182/182/182 
f 183/183/183 184/184/184 185/185/185 
f 186/186/186 187/187/187 188/188/188 
f 189/189/189 190/190/190 191/191/191 
f 190/190/190 189/189/189 192/192/192 
f 197/197/197 198/198/198 199/199/199 
f 199/199/199 198/198/198 200/200/200 
f 198/198/198 201/201/201 200/200/200 
f 201/201/201 198/198/198 202/202/202 
f 200/200/200 201/201/201 203/203/203 
f 200/200/200 203/203/203 204/204/204 
f 205/205/205 206/206/206 207/207/207 
f 208/208/208 206/206/206 205/205/205 
f 206/206/206 208/208/208 209/209/209 
f 206/206/206 209/209/209 210/210/210 
f 211/211/211 210/210/210 209/209/209 
f 210/210/210 211/211/211 212/212/212 
f 219/219/219 220/220/220 221/221/221 
f 220/220/220 219/219/219 222/222/222 
f 223/223/223 224/224/224 225/225/225 
f 224/224/224 223/223/223 226/226/226 
f 230/230/230 231/231/231 232/232/232 
f 231/231/231 230/230/230 233/233/233 
f 234/234/234 235/235/235 236/236/236 
f 235/235/235 234/234/234 237/237/237 
f 238/238/238 239/239/239 240/240/240 
f 240/240/240 239/239/239 241/241/241 

