# This file is brought to you by Roblox Corporation
# Generated by Roblox Studio

mtllib Slide2.mtl

g Meshpart1

v -350.497 1.04853 -187.396 
v -350.489 1.043 -187.396 
v -350.494 1.04453 -187.396 
v -350.497 1.05347 -187.396 
v -350.494 1.05747 -187.396 
v -350.47 1.05117 -186.488 
v -350.473 1.05569 -186.488 
v -350.511 1.05569 -186.488 
v -350.51 1.05183 -186.488 
v -350.511 1.05569 -186.488 
v -350.511 1.05569 -186.492 
v -350.511 1.05356 -186.488 
v -350.511 1.05356 -186.492 
v -350.51 1.05742 -186.492 
v -350.511 1.05569 -186.488 
v -350.51 1.05742 -186.488 
v -350.511 1.05569 -186.492 
v -350.511 1.05356 -186.488 
v -350.511 1.05356 -186.492 
v -350.51 1.05183 -186.488 
v -350.51 1.05183 -186.492 
v -350.494 1.04453 -187.396 
v -350.494 1.0446 -187.378 
v -350.497 1.04855 -187.379 
v -350.497 1.04853 -187.396 
v -350.489 1.04309 -187.377 
v -350.497 1.04853 -187.396 
v -350.497 1.04855 -187.379 
v -350.497 1.05345 -187.381 
v -350.497 1.05347 -187.396 
v -350.484 1.0574 -187.383 
v -350.497 1.05347 -187.396 
v -350.497 1.05345 -187.381 
v -350.494 1.0574 -187.383 
v -350.494 1.05747 -187.396 
v -350.472 1.05742 -186.492 
v -350.472 1.05183 -186.492 
v -350.473 1.05569 -186.492 
v -350.473 1.05569 -186.488 
v -350.472 1.05742 -186.488 
v -350.472 1.05742 -186.492 
v -350.472 1.05183 -186.492 
v -350.472 1.05183 -186.488 
v -350.473 1.05356 -186.488 
v -350.473 1.05356 -186.492 
v -350.473 1.05356 -186.492 
v -350.473 1.05356 -186.488 
v -350.473 1.05569 -186.488 
v -350.473 1.05569 -186.492 
v -350.481 1.05347 -187.396 
v -350.497 1.05347 -187.396 
v -350.489 1.059 -187.396 
v -350.484 1.05747 -187.396 
v -350.494 1.05747 -187.396 
v -350.466 1.05569 -186.488 
v -350.473 1.05569 -186.488 
v -350.506 1.05742 -186.488 
v -350.508 1.05808 -186.488 
v -350.505 1.05569 -186.488 
v -350.511 1.05569 -186.488 
v -350.466 1.05569 -186.492 
v -350.511 1.05569 -186.492 
v -350.47 1.05808 -186.492 
v -350.47 1.05808 -186.488 
v -350.468 1.05742 -186.488 
v -350.468 1.05742 -186.492 
v -350.508 1.05808 -186.488 
v -350.508 1.05808 -186.492 
v -350.51 1.05742 -186.488 
v -350.51 1.05742 -186.492 
v -350.481 1.04855 -187.379 
v -350.489 1.04309 -187.377 
v -350.484 1.0574 -187.383 
v -350.494 1.0574 -187.383 
v -350.489 1.05891 -187.383 
v -350.484 1.05747 -187.396 
v -350.489 1.059 -187.396 
v -350.484 1.0574 -187.383 
v -350.494 1.05747 -187.396 
v -350.494 1.0574 -187.383 
v -350.489 1.05891 -187.383 
v -350.489 1.059 -187.396 
v -350.472 1.05742 -186.492 
v -350.472 1.05742 -186.488 
v -350.47 1.05808 -186.488 
v -350.47 1.05808 -186.492 
v -350.506 1.05742 -186.488 
v -350.506 1.05742 -186.492 
v -350.508 1.05808 -186.488 
v -350.508 1.05808 -186.492 
v -350.497 1.04853 -187.396 
v -350.489 1.043 -187.396 
v -350.494 1.04453 -187.396 
v -350.481 1.04853 -187.396 
v -350.484 1.04453 -187.396 
v -350.481 1.05347 -187.396 
v -350.497 1.05347 -187.396 
v -350.489 1.059 -187.396 
v -350.484 1.05747 -187.396 
v -350.494 1.05747 -187.396 
v -350.466 1.05356 -186.488 
v -350.47 1.05808 -186.488 
v -350.508 1.05808 -186.488 
v -350.511 1.05356 -186.488 
v -350.466 1.05569 -186.492 
v -350.511 1.05569 -186.492 
v -350.468 1.05183 -186.492 
v -350.51 1.05183 -186.492 
v -350.489 1.04309 -187.377 
v -350.484 1.0574 -187.383 
v -350.489 1.05891 -187.383 
v -350.472 1.05742 -186.492 
v -350.506 1.05742 -186.492 
v -350.472 1.05183 -186.492 
v -350.506 1.05183 -186.492 
v -350.473 1.05356 -186.492 
v -350.505 1.05356 -186.492 
v -350.473 1.05356 -186.492 
v -350.47 1.05117 -186.492 
v -350.472 1.05183 -186.492 
v -350.473 1.05569 -186.492 
v -350.468 1.05742 -186.492 
v -350.472 1.05742 -186.492 
v -350.47 1.05808 -186.492 
v -350.466 1.05569 -186.492 
v -350.466 1.05356 -186.492 
v -350.468 1.05183 -186.492 
v -350.505 1.05569 -186.492 
v -350.51 1.05742 -186.492 
v -350.506 1.05742 -186.492 
v -350.508 1.05808 -186.492 
v -350.508 1.05117 -186.492 
v -350.511 1.05569 -186.492 
v -350.505 1.05356 -186.492 
v -350.506 1.05183 -186.492 
v -350.511 1.05356 -186.492 
v -350.51 1.05183 -186.492 
v -350.489 1.043 -187.396 
v -350.481 1.04853 -187.396 
v -350.481 1.05347 -187.396 
v -350.484 1.05747 -187.396 
v -350.466 1.05569 -186.488 
v -350.468 1.05183 -186.488 
v -350.505 1.05569 -186.488 
v -350.508 1.05117 -186.488 
v -350.466 1.05569 -186.492 
v -350.466 1.05569 -186.488 
v -350.466 1.05356 -186.488 
v -350.466 1.05356 -186.492 
v -350.468 1.05742 -186.492 
v -350.468 1.05742 -186.488 
v -350.466 1.05569 -186.488 
v -350.466 1.05569 -186.492 
v -350.466 1.05356 -186.492 
v -350.466 1.05356 -186.488 
v -350.468 1.05183 -186.488 
v -350.468 1.05183 -186.492 
v -350.481 1.04855 -187.379 
v -350.484 1.04453 -187.396 
v -350.481 1.04853 -187.396 
v -350.484 1.0446 -187.378 
v -350.489 1.04309 -187.377 
v -350.481 1.05345 -187.381 
v -350.481 1.04853 -187.396 
v -350.481 1.05347 -187.396 
v -350.481 1.04855 -187.379 
v -350.484 1.0574 -187.383 
v -350.481 1.05347 -187.396 
v -350.484 1.05747 -187.396 
v -350.481 1.05345 -187.381 
v -350.506 1.05742 -186.492 
v -350.506 1.05183 -186.492 
v -350.505 1.05569 -186.488 
v -350.505 1.05569 -186.492 
v -350.506 1.05742 -186.488 
v -350.506 1.05742 -186.492 
v -350.506 1.05183 -186.492 
v -350.505 1.05356 -186.488 
v -350.506 1.05183 -186.488 
v -350.505 1.05356 -186.492 
v -350.505 1.05356 -186.488 
v -350.505 1.05356 -186.492 
v -350.505 1.05569 -186.488 
v -350.505 1.05569 -186.492 
v -350.489 1.043 -187.396 
v -350.494 1.04453 -187.396 
v -350.481 1.04853 -187.396 
v -350.481 1.05347 -187.396 
v -350.494 1.05747 -187.396 
v -350.47 1.05117 -186.488 
v -350.468 1.05183 -186.488 
v -350.506 1.05742 -186.488 
v -350.508 1.05808 -186.488 
v -350.508 1.05117 -186.488 
v -350.51 1.05183 -186.488 
v -350.468 1.05183 -186.492 
v -350.51 1.05183 -186.492 
v -350.481 1.04855 -187.379 
v -350.484 1.0446 -187.378 
v -350.494 1.0446 -187.378 
v -350.468 1.05183 -186.492 
v -350.468 1.05183 -186.488 
v -350.47 1.05117 -186.488 
v -350.47 1.05117 -186.492 
v -350.51 1.05183 -186.492 
v -350.508 1.05117 -186.488 
v -350.51 1.05183 -186.488 
v -350.508 1.05117 -186.492 
v -350.484 1.0446 -187.378 
v -350.489 1.043 -187.396 
v -350.484 1.04453 -187.396 
v -350.489 1.04309 -187.377 
v -350.489 1.043 -187.396 
v -350.489 1.04309 -187.377 
v -350.494 1.0446 -187.378 
v -350.494 1.04453 -187.396 
v -350.47 1.05117 -186.492 
v -350.47 1.05117 -186.488 
v -350.472 1.05183 -186.488 
v -350.472 1.05183 -186.492 
v -350.508 1.05117 -186.488 
v -350.508 1.05117 -186.492 
v -350.506 1.05183 -186.488 
v -350.506 1.05183 -186.492 
v -350.489 1.043 -187.396 
v -350.468 1.05742 -186.488 
v -350.47 1.05117 -186.488 
v -350.466 1.05569 -186.488 
v -350.466 1.05356 -186.488 
v -350.468 1.05183 -186.488 
v -350.473 1.05569 -186.488 
v -350.473 1.05356 -186.488 
v -350.472 1.05183 -186.488 
v -350.472 1.05742 -186.488 
v -350.47 1.05808 -186.488 
v -350.51 1.05742 -186.488 
v -350.506 1.05742 -186.488 
v -350.508 1.05808 -186.488 
v -350.505 1.05569 -186.488 
v -350.508 1.05117 -186.488 
v -350.511 1.05569 -186.488 
v -350.505 1.05356 -186.488 
v -350.506 1.05183 -186.488 
v -350.511 1.05356 -186.488 
v -350.51 1.05183 -186.488 
v -350.481 1.04855 -187.379 
v -350.484 1.0446 -187.378 
v -350.494 1.0446 -187.378 
v -350.497 1.04855 -187.379 
v -350.489 1.04309 -187.377 
v -350.481 1.05345 -187.381 
v -350.497 1.05345 -187.381 
v -350.484 1.0574 -187.383 
v -350.494 1.0574 -187.383 
v -350.489 1.05891 -187.383 
v -350.473 1.05356 -186.492 
v -350.505 1.05356 -186.492 
v -350.484 1.0574 -187.383 
v -350.484 1.0446 -187.378 
v -350.481 1.05345 -187.381 
v -350.481 1.04855 -187.379 
v -350.489 1.05891 -187.383 
v -350.489 1.04309 -187.377 
v -350.494 1.0446 -187.378 
v -350.494 1.0574 -187.383 
v -350.497 1.05345 -187.381 
v -350.497 1.04855 -187.379 

vn 0 0 -1 
vn 0 0 -1 
vn 0 0 -1 
vn 0 0 -1 
vn 0 0 -1 
vn 0 0 1 
vn 0 0 1 
vn 0 0 1 
vn 0 0 1 
vn -1 0 0 
vn -1 0 0 
vn -1 0 0 
vn -1 0 0 
vn -0.80315 0.598425 0 
vn -0.80315 0.598425 0 
vn -0.80315 0.598425 0 
vn -0.80315 0.598425 0 
vn -0.80315 -0.598425 0 
vn -0.80315 -0.598425 0 
vn -0.80315 -0.598425 0 
vn -0.80315 -0.598425 0 
vn -0.80315 -0.598425 0 
vn -0.80315 -0.598425 0 
vn -0.80315 -0.598425 0 
vn -0.80315 -0.598425 0 
vn 0.299213 -0.952756 0.00787402 
vn -1 0 0 
vn -1 0 0 
vn -1 0 0 
vn -1 0 0 
vn 0.80315 0.598425 0 
vn -0.80315 0.598425 0 
vn -0.80315 0.598425 0 
vn -0.80315 0.598425 0 
vn -0.80315 0.598425 0 
vn -0.307087 0.952756 0 
vn -0.307087 -0.952756 0 
vn -0.80315 0.598425 0 
vn -0.80315 0.598425 0 
vn -0.80315 0.598425 0 
vn -0.80315 0.598425 0 
vn -0.80315 -0.598425 0 
vn -0.80315 -0.598425 0 
vn -0.80315 -0.598425 0 
vn -0.80315 -0.598425 0 
vn -1 0 0 
vn -1 0 0 
vn -1 0 0 
vn -1 0 0 
vn 0 0 -1 
vn 0 0 -1 
vn 0 0 -1 
vn 0 0 -1 
vn 0 0 -1 
vn 0 0 1 
vn 0 0 1 
vn 0 0 1 
vn 0 0 1 
vn 0 0 1 
vn 0 0 1 
vn 1 0 0 
vn -1 0 0 
vn 0.307087 0.952756 0 
vn 0.307087 0.952756 0 
vn 0.307087 0.952756 0 
vn 0.307087 0.952756 0 
vn -0.307087 0.952756 0 
vn -0.307087 0.952756 0 
vn -0.307087 0.952756 0 
vn -0.307087 0.952756 0 
vn 0.80315 -0.598425 0 
vn 0.299213 -0.952756 0.00787402 
vn 0.80315 0.598425 0 
vn -0.80315 0.598425 0 
vn 0.299213 0.952756 0.00787402 
vn 0.299213 0.952756 0.00787402 
vn 0.299213 0.952756 0.00787402 
vn 0.299213 0.952756 0.00787402 
vn -0.299213 0.952756 0.00787402 
vn -0.299213 0.952756 0.00787402 
vn -0.299213 0.952756 0.00787402 
vn -0.299213 0.952756 0.00787402 
vn -0.307087 0.952756 0 
vn -0.307087 0.952756 0 
vn -0.307087 0.952756 0 
vn -0.307087 0.952756 0 
vn 0.307087 0.952756 0 
vn 0.307087 0.952756 0 
vn 0.307087 0.952756 0 
vn 0.307087 0.952756 0 
vn 0 0 -1 
vn 0 0 -1 
vn 0 0 -1 
vn 0 0 -1 
vn 0 0 -1 
vn 0 0 -1 
vn 0 0 -1 
vn 0 0 -1 
vn 0 0 -1 
vn 0 0 -1 
vn 0 0 1 
vn 0 0 1 
vn 0 0 1 
vn 0 0 1 
vn 1 0 0 
vn -1 0 0 
vn 0.80315 -0.598425 0 
vn -0.80315 -0.598425 0 
vn 0.299213 -0.952756 0.00787402 
vn 0.80315 0.598425 0 
vn 0.299213 0.952756 0.00787402 
vn -0.307087 0.952756 0 
vn 0.307087 0.952756 0 
vn -0.307087 -0.952756 0 
vn 0.307087 -0.952756 0 
vn -0.80315 -0.598425 0 
vn 0.80315 -0.598425 0 
vn 0 0 -1 
vn 0 0 -1 
vn 0 0 -1 
vn 0 0 -1 
vn 0 0 -1 
vn 0 0 -1 
vn 0 0 -1 
vn 0 0 -1 
vn 0 0 -1 
vn 0 0 -1 
vn 0 0 -1 
vn 0 0 -1 
vn 0 0 -1 
vn 0 0 -1 
vn 0 0 -1 
vn 0 0 -1 
vn 0 0 -1 
vn 0 0 -1 
vn 0 0 -1 
vn 0 0 -1 
vn 0 0 -1 
vn 0 0 -1 
vn 0 0 -1 
vn 0 0 -1 
vn 0 0 1 
vn 0 0 1 
vn 0 0 1 
vn 0 0 1 
vn 1 0 0 
vn 1 0 0 
vn 1 0 0 
vn 1 0 0 
vn 0.80315 0.598425 0 
vn 0.80315 0.598425 0 
vn 0.80315 0.598425 0 
vn 0.80315 0.598425 0 
vn 0.80315 -0.598425 0 
vn 0.80315 -0.598425 0 
vn 0.80315 -0.598425 0 
vn 0.80315 -0.598425 0 
vn 0.80315 -0.598425 0 
vn 0.80315 -0.598425 0 
vn 0.80315 -0.598425 0 
vn 0.80315 -0.598425 0 
vn 0.299213 -0.952756 0.00787402 
vn 1 0 0 
vn 1 0 0 
vn 1 0 0 
vn 1 0 0 
vn 0.80315 0.598425 0 
vn 0.80315 0.598425 0 
vn 0.80315 0.598425 0 
vn 0.80315 0.598425 0 
vn 0.307087 0.952756 0 
vn 0.307087 -0.952756 0 
vn 0.80315 0.598425 0 
vn 0.80315 0.598425 0 
vn 0.80315 0.598425 0 
vn 0.80315 0.598425 0 
vn 0.80315 -0.598425 0 
vn 0.80315 -0.598425 0 
vn 0.80315 -0.598425 0 
vn 0.80315 -0.598425 0 
vn 1 0 0 
vn 1 0 0 
vn 1 0 0 
vn 1 0 0 
vn 0 0 -1 
vn 0 0 -1 
vn 0 0 -1 
vn 0 0 -1 
vn 0 0 -1 
vn 0 0 1 
vn 0 0 1 
vn 0 0 1 
vn 0 0 1 
vn 0 0 1 
vn 0 0 1 
vn 0.80315 -0.598425 0 
vn -0.80315 -0.598425 0 
vn 0.80315 -0.598425 0 
vn 0.80315 -0.598425 0 
vn -0.80315 -0.598425 0 
vn 0.307087 -0.952756 0 
vn 0.307087 -0.952756 0 
vn 0.307087 -0.952756 0 
vn 0.307087 -0.952756 0 
vn -0.307087 -0.952756 0 
vn -0.307087 -0.952756 0 
vn -0.307087 -0.952756 0 
vn -0.307087 -0.952756 0 
vn 0.299213 -0.952756 0.00787402 
vn 0.299213 -0.952756 0.00787402 
vn 0.299213 -0.952756 0.00787402 
vn 0.299213 -0.952756 0.00787402 
vn -0.299213 -0.952756 0.00787402 
vn -0.299213 -0.952756 0.00787402 
vn -0.299213 -0.952756 0.00787402 
vn -0.299213 -0.952756 0.00787402 
vn -0.307087 -0.952756 0 
vn -0.307087 -0.952756 0 
vn -0.307087 -0.952756 0 
vn -0.307087 -0.952756 0 
vn 0.307087 -0.952756 0 
vn 0.307087 -0.952756 0 
vn 0.307087 -0.952756 0 
vn 0.307087 -0.952756 0 
vn 0 0 -1 
vn 0 0 1 
vn 0 0 1 
vn 0 0 1 
vn 0 0 1 
vn 0 0 1 
vn 0 0 1 
vn 0 0 1 
vn 0 0 1 
vn 0 0 1 
vn 0 0 1 
vn 0 0 1 
vn 0 0 1 
vn 0 0 1 
vn 0 0 1 
vn 0 0 1 
vn 0 0 1 
vn 0 0 1 
vn 0 0 1 
vn 0 0 1 
vn 0 0 1 
vn 0.80315 -0.598425 0 
vn 0.80315 -0.598425 0 
vn -0.80315 -0.598425 0 
vn -0.80315 -0.598425 0 
vn 0.299213 -0.952756 0.00787402 
vn 1 0 0 
vn -1 0 0 
vn 0.80315 0.598425 0 
vn -0.80315 0.598425 0 
vn 0.299213 0.952756 0.00787402 
vn -0.80315 -0.598425 0 
vn 0.80315 -0.598425 0 
vn 0 0.354331 0.937008 
vn 0 0.354331 0.937008 
vn 0 0.354331 0.937008 
vn 0 0.354331 0.937008 
vn 0 0.354331 0.937008 
vn 0 0.354331 0.937008 
vn 0 0.354331 0.937008 
vn 0 0.354331 0.937008 
vn 0 0.354331 0.937008 
vn 0 0.354331 0.937008 

vt 0.258865 1.24675 
vt 0.258865 1.24606 
vt 0.258865 1.24625 
vt 0.258865 1.24737 
vt 0.258865 1.24787 
vt 0.37249 1.24708 
vt 0.37249 1.24765 
vt 0.37249 1.24765 
vt 0.37249 1.24717 
vt 0.37249 1.24765 
vt 0.371891 1.24765 
vt 0.37249 1.24738 
vt 0.371891 1.24738 
vt 0.371891 1.24787 
vt 0.37249 1.24765 
vt 0.37249 1.24787 
vt 0.371891 1.24765 
vt 0.37249 1.24738 
vt 0.371891 1.24738 
vt 0.37249 1.24717 
vt 0.371891 1.24717 
vt 0.258865 1.24625 
vt 0.261195 1.24626 
vt 0.261008 1.24676 
vt 0.258865 1.24675 
vt 0.261267 1.24607 
vt 0.258865 1.24675 
vt 0.261008 1.24676 
vt 0.260776 1.24737 
vt 0.258865 1.24737 
vt 0.260588 1.24786 
vt 0.258865 1.24737 
vt 0.260776 1.24737 
vt 0.260588 1.24786 
vt 0.258865 1.24787 
vt 0.371891 1.24787 
vt 0.371891 1.24717 
vt 0.371891 1.24765 
vt 0.37249 1.24765 
vt 0.37249 1.24787 
vt 0.371891 1.24787 
vt 0.371891 1.24717 
vt 0.37249 1.24717 
vt 0.37249 1.24738 
vt 0.371891 1.24738 
vt 0.371891 1.24738 
vt 0.37249 1.24738 
vt 0.37249 1.24765 
vt 0.371891 1.24765 
vt 0.316646 1.30388 
vt 0.31471 1.30388 
vt 0.315678 1.30388 
vt 0.316276 1.30388 
vt 0.315079 1.30388 
vt 0.31849 1.19025 
vt 0.317655 1.19025 
vt 0.313541 1.19025 
vt 0.313283 1.19025 
vt 0.313701 1.19025 
vt 0.312865 1.19025 
vt 0.31849 1.19085 
vt 0.312865 1.19085 
vt 0.318072 1.19085 
vt 0.318072 1.19025 
vt 0.318331 1.19025 
vt 0.318331 1.19085 
vt 0.313283 1.19025 
vt 0.313283 1.19085 
vt 0.313025 1.19025 
vt 0.313025 1.19085 
vt 0.316646 1.30173 
vt 0.315678 1.30147 
vt 0.316276 1.30215 
vt 0.315079 1.30215 
vt 0.315678 1.30222 
vt 0.316276 1.30388 
vt 0.315678 1.30388 
vt 0.316276 1.30215 
vt 0.315079 1.30388 
vt 0.315079 1.30215 
vt 0.315678 1.30222 
vt 0.315678 1.30388 
vt 0.317814 1.19085 
vt 0.317814 1.19025 
vt 0.318072 1.19025 
vt 0.318072 1.19085 
vt 0.313541 1.19025 
vt 0.313541 1.19085 
vt 0.313283 1.19025 
vt 0.313283 1.19085 
vt 0.316646 1.24675 
vt 0.315678 1.24606 
vt 0.316276 1.24625 
vt 0.31471 1.24675 
vt 0.315079 1.24625 
vt 0.31471 1.24737 
vt 0.316646 1.24737 
vt 0.315678 1.24806 
vt 0.315079 1.24787 
vt 0.316276 1.24787 
vt 0.312865 1.24738 
vt 0.313283 1.24795 
vt 0.318072 1.24795 
vt 0.31849 1.24738 
vt 0.312865 1.24765 
vt 0.31849 1.24765 
vt 0.313025 1.24717 
vt 0.318331 1.24717 
vt 0.315678 1.24607 
vt 0.315079 1.24786 
vt 0.315678 1.24805 
vt 0.313541 1.24787 
vt 0.317814 1.24787 
vt 0.313541 1.24717 
vt 0.317814 1.24717 
vt 0.313701 1.24738 
vt 0.317655 1.24738 
vt 0.313701 1.24738 
vt 0.313283 1.24708 
vt 0.313541 1.24717 
vt 0.313701 1.24765 
vt 0.313025 1.24787 
vt 0.313541 1.24787 
vt 0.313283 1.24795 
vt 0.312865 1.24765 
vt 0.312865 1.24738 
vt 0.313025 1.24717 
vt 0.317655 1.24765 
vt 0.318331 1.24787 
vt 0.317814 1.24787 
vt 0.318072 1.24795 
vt 0.318072 1.24708 
vt 0.31849 1.24765 
vt 0.317655 1.24738 
vt 0.317814 1.24717 
vt 0.31849 1.24738 
vt 0.318331 1.24717 
vt 0.37249 1.24606 
vt 0.37249 1.24675 
vt 0.37249 1.24737 
vt 0.37249 1.24787 
vt 0.258865 1.24765 
vt 0.258865 1.24717 
vt 0.258865 1.24765 
vt 0.258865 1.24708 
vt 0.259465 1.24765 
vt 0.258865 1.24765 
vt 0.258865 1.24738 
vt 0.259465 1.24738 
vt 0.259465 1.24787 
vt 0.258865 1.24787 
vt 0.258865 1.24765 
vt 0.259465 1.24765 
vt 0.259465 1.24738 
vt 0.258865 1.24738 
vt 0.258865 1.24717 
vt 0.259465 1.24717 
vt 0.370348 1.24676 
vt 0.37249 1.24625 
vt 0.37249 1.24675 
vt 0.37016 1.24626 
vt 0.370088 1.24607 
vt 0.37058 1.24737 
vt 0.37249 1.24675 
vt 0.37249 1.24737 
vt 0.370348 1.24676 
vt 0.370767 1.24786 
vt 0.37249 1.24737 
vt 0.37249 1.24787 
vt 0.37058 1.24737 
vt 0.259465 1.24787 
vt 0.259465 1.24717 
vt 0.258865 1.24765 
vt 0.259465 1.24765 
vt 0.258865 1.24787 
vt 0.259465 1.24787 
vt 0.259465 1.24717 
vt 0.258865 1.24738 
vt 0.258865 1.24717 
vt 0.259465 1.24738 
vt 0.258865 1.24738 
vt 0.259465 1.24738 
vt 0.258865 1.24765 
vt 0.259465 1.24765 
vt 0.315678 1.30388 
vt 0.316276 1.30388 
vt 0.31471 1.30388 
vt 0.31471 1.30388 
vt 0.316276 1.30388 
vt 0.313283 1.19025 
vt 0.313025 1.19025 
vt 0.317814 1.19025 
vt 0.318072 1.19025 
vt 0.318072 1.19025 
vt 0.318331 1.19025 
vt 0.313025 1.19085 
vt 0.318331 1.19085 
vt 0.31471 1.30173 
vt 0.315079 1.30155 
vt 0.316276 1.30155 
vt 0.313025 1.19085 
vt 0.313025 1.19025 
vt 0.313283 1.19025 
vt 0.313283 1.19085 
vt 0.318331 1.19085 
vt 0.318072 1.19025 
vt 0.318331 1.19025 
vt 0.318072 1.19085 
vt 0.315079 1.30155 
vt 0.315678 1.30388 
vt 0.315079 1.30388 
vt 0.315678 1.30147 
vt 0.315678 1.30388 
vt 0.315678 1.30147 
vt 0.316276 1.30155 
vt 0.316276 1.30388 
vt 0.313283 1.19085 
vt 0.313283 1.19025 
vt 0.313541 1.19025 
vt 0.313541 1.19085 
vt 0.318072 1.19025 
vt 0.318072 1.19085 
vt 0.317814 1.19025 
vt 0.317814 1.19085 
vt 0.315678 1.24606 
vt 0.318331 1.24787 
vt 0.318072 1.24708 
vt 0.31849 1.24765 
vt 0.31849 1.24738 
vt 0.318331 1.24717 
vt 0.317655 1.24765 
vt 0.317655 1.24738 
vt 0.317814 1.24717 
vt 0.317814 1.24787 
vt 0.318072 1.24795 
vt 0.313025 1.24787 
vt 0.313541 1.24787 
vt 0.313283 1.24795 
vt 0.313701 1.24765 
vt 0.313283 1.24708 
vt 0.312865 1.24765 
vt 0.313701 1.24738 
vt 0.313541 1.24717 
vt 0.312865 1.24738 
vt 0.313025 1.24717 
vt 0.316646 1.24676 
vt 0.316276 1.24626 
vt 0.315079 1.24626 
vt 0.31471 1.24676 
vt 0.315678 1.24607 
vt 0.316646 1.24737 
vt 0.31471 1.24737 
vt 0.316276 1.24786 
vt 0.315079 1.24786 
vt 0.315678 1.24805 
vt 0.317655 1.24738 
vt 0.313701 1.24738 
vt 0.316276 1.24786 
vt 0.316276 1.24626 
vt 0.316646 1.24737 
vt 0.316646 1.24676 
vt 0.315678 1.24805 
vt 0.315678 1.24607 
vt 0.315079 1.24626 
vt 0.315079 1.24786 
vt 0.31471 1.24737 
vt 0.31471 1.24676 

usemtl Meshpart1Mtl

f 10/10/10 11/11/11 12/12/12 
f 12/12/12 11/11/11 13/13/13 
f 14/14/14 15/15/15 16/16/16 
f 15/15/15 14/14/14 17/17/17 
f 18/18/18 19/19/19 20/20/20 
f 20/20/20 19/19/19 21/21/21 
f 22/22/22 23/23/23 24/24/24 
f 24/24/24 25/25/25 22/22/22 
f 27/27/27 28/28/28 29/29/29 
f 29/29/29 30/30/30 27/27/27 
f 32/32/32 33/33/33 34/34/34 
f 34/34/34 35/35/35 32/32/32 
f 38/38/38 39/39/39 40/40/40 
f 40/40/40 41/41/41 38/38/38 
f 42/42/42 43/43/43 44/44/44 
f 44/44/44 45/45/45 42/42/42 
f 46/46/46 47/47/47 48/48/48 
f 48/48/48 49/49/49 46/46/46 
f 63/63/63 64/64/64 65/65/65 
f 65/65/65 66/66/66 63/63/63 
f 67/67/67 68/68/68 69/69/69 
f 69/69/69 68/68/68 70/70/70 
f 75/75/75 76/76/76 77/77/77 
f 76/76/76 75/75/75 78/78/78 
f 79/79/79 80/80/80 81/81/81 
f 81/81/81 82/82/82 79/79/79 
f 83/83/83 84/84/84 85/85/85 
f 85/85/85 86/86/86 83/83/83 
f 87/87/87 88/88/88 89/89/89 
f 89/89/89 88/88/88 90/90/90 
f 91/91/91 92/92/92 93/93/93 
f 91/91/91 94/94/94 92/92/92 
f 92/92/92 94/94/94 95/95/95 
f 94/94/94 91/91/91 96/96/96 
f 96/96/96 91/91/91 97/97/97 
f 98/98/98 96/96/96 97/97/97 
f 96/96/96 98/98/98 99/99/99 
f 98/98/98 97/97/97 100/100/100 
f 118/118/118 119/119/119 120/120/120 
f 121/121/121 119/119/119 118/118/118 
f 121/121/121 122/122/122 119/119/119 
f 123/123/123 122/122/122 121/121/121 
f 122/122/122 123/123/123 124/124/124 
f 125/125/125 119/119/119 122/122/122 
f 126/126/126 119/119/119 125/125/125 
f 119/119/119 126/126/126 127/127/127 
f 128/128/128 129/129/129 130/130/130 
f 130/130/130 129/129/129 131/131/131 
f 132/132/132 129/129/129 128/128/128 
f 132/132/132 133/133/133 129/129/129 
f 132/132/132 128/128/128 134/134/134 
f 132/132/132 134/134/134 135/135/135 
f 132/132/132 136/136/136 133/133/133 
f 136/136/136 132/132/132 137/137/137 
f 146/146/146 147/147/147 148/148/148 
f 148/148/148 149/149/149 146/146/146 
f 150/150/150 151/151/151 152/152/152 
f 152/152/152 153/153/153 150/150/150 
f 154/154/154 155/155/155 156/156/156 
f 156/156/156 157/157/157 154/154/154 
f 158/158/158 159/159/159 160/160/160 
f 159/159/159 158/158/158 161/161/161 
f 163/163/163 164/164/164 165/165/165 
f 164/164/164 163/163/163 166/166/166 
f 167/167/167 168/168/168 169/169/169 
f 168/168/168 167/167/167 170/170/170 
f 173/173/173 174/174/174 175/175/175 
f 175/175/175 174/174/174 176/176/176 
f 177/177/177 178/178/178 179/179/179 
f 178/178/178 177/177/177 180/180/180 
f 181/181/181 182/182/182 183/183/183 
f 183/183/183 182/182/182 184/184/184 
f 201/201/201 202/202/202 203/203/203 
f 203/203/203 204/204/204 201/201/201 
f 205/205/205 206/206/206 207/207/207 
f 206/206/206 205/205/205 208/208/208 
f 209/209/209 210/210/210 211/211/211 
f 210/210/210 209/209/209 212/212/212 
f 213/213/213 214/214/214 215/215/215 
f 215/215/215 216/216/216 213/213/213 
f 217/217/217 218/218/218 219/219/219 
f 219/219/219 220/220/220 217/217/217 
f 221/221/221 222/222/222 223/223/223 
f 223/223/223 222/222/222 224/224/224 
f 226/226/226 227/227/227 228/228/228 
f 228/228/228 227/227/227 229/229/229 
f 229/229/229 227/227/227 230/230/230 
f 226/226/226 231/231/231 227/227/227 
f 227/227/227 231/231/231 232/232/232 
f 227/227/227 232/232/232 233/233/233 
f 231/231/231 226/226/226 234/234/234 
f 234/234/234 226/226/226 235/235/235 
f 236/236/236 237/237/237 238/238/238 
f 237/237/237 236/236/236 239/239/239 
f 239/239/239 236/236/236 240/240/240 
f 240/240/240 236/236/236 241/241/241 
f 239/239/239 240/240/240 242/242/242 
f 242/242/242 240/240/240 243/243/243 
f 240/240/240 241/241/241 244/244/244 
f 240/240/240 244/244/244 245/245/245 
f 258/258/258 259/259/259 260/260/260 
f 260/260/260 259/259/259 261/261/261 
f 259/259/259 258/258/258 262/262/262 
f 262/262/262 263/263/263 259/259/259 
f 262/262/262 264/264/264 263/263/263 
f 264/264/264 262/262/262 265/265/265 
f 266/266/266 264/264/264 265/265/265 
f 264/264/264 266/266/266 267/267/267 

