# Blender 4.4.3
# www.blender.org
mtllib Engine.mtl
o Cylinder.001
v -0.252856 0.670004 -2.045258
v -0.185352 0.641972 -2.050061
v -0.157391 0.574297 -2.052050
v -0.185352 0.506621 -2.050061
v -0.252856 0.478590 -2.045258
v -0.320361 0.506621 -2.040456
v -0.348322 0.574297 -2.038466
v -0.320361 0.641972 -2.040456
v -0.260886 0.632875 -2.158120
v -0.219569 0.615718 -2.161059
v -0.202456 0.574297 -2.162277
v -0.219569 0.532876 -2.161059
v -0.260886 0.515719 -2.158120
v -0.302202 0.532876 -2.155180
v -0.319316 0.574297 -2.153963
v -0.302202 0.615718 -2.155180
v -0.260886 0.647187 -2.158120
v -0.209475 0.625838 -2.161777
v -0.188180 0.574297 -2.163293
v -0.209475 0.522756 -2.161777
v -0.260886 0.501406 -2.158120
v -0.312297 0.522756 -2.154462
v -0.333592 0.574297 -2.152947
v -0.312297 0.625838 -2.154462
v -0.254491 0.617484 -2.068239
v -0.224030 0.604835 -2.070406
v -0.211413 0.574297 -2.071304
v -0.224030 0.543758 -2.070406
v -0.254491 0.531109 -2.068239
v -0.284953 0.543758 -2.066072
v -0.297570 0.574297 -2.065174
v -0.284953 0.604835 -2.066072
v 0.252856 0.670004 -2.045258
v 0.185352 0.641972 -2.050061
v 0.157391 0.574297 -2.052050
v 0.185352 0.506621 -2.050061
v 0.252856 0.478590 -2.045258
v 0.320361 0.506621 -2.040456
v 0.348322 0.574297 -2.038466
v 0.320361 0.641972 -2.040456
v 0.260886 0.632875 -2.158120
v 0.219569 0.615718 -2.161059
v 0.202456 0.574297 -2.162277
v 0.219569 0.532876 -2.161059
v 0.260886 0.515719 -2.158120
v 0.302202 0.532876 -2.155180
v 0.319316 0.574297 -2.153963
v 0.302202 0.615718 -2.155180
v 0.260886 0.647187 -2.158120
v 0.209475 0.625838 -2.161777
v 0.188180 0.574297 -2.163293
v 0.209475 0.522756 -2.161777
v 0.260886 0.501406 -2.158120
v 0.312297 0.522756 -2.154462
v 0.333592 0.574297 -2.152947
v 0.312297 0.625838 -2.154462
v 0.254491 0.617484 -2.068239
v 0.224030 0.604835 -2.070406
v 0.211413 0.574297 -2.071304
v 0.224030 0.543758 -2.070406
v 0.254491 0.531109 -2.068239
v 0.284953 0.543758 -2.066072
v 0.297570 0.574297 -2.065174
v 0.284953 0.604835 -2.066072
vn -0.3883 0.9083 -0.1560
vn -0.3881 -0.9126 -0.1287
vn -0.9190 -0.3762 -0.1182
vn 0.3623 -0.9083 -0.2094
vn 0.8930 0.3762 -0.2471
vn -0.9190 0.3762 -0.1182
vn -0.3883 -0.9083 -0.1560
vn 0.8930 -0.3762 -0.2471
vn 0.3623 0.9083 -0.2094
vn -0.0710 -0.0000 -0.9975
vn 0.3660 -0.9126 -0.1823
vn 0.8992 0.3780 -0.2202
vn -0.3881 0.9126 -0.1287
vn -0.9213 -0.3780 -0.0907
vn 0.8992 -0.3780 -0.2202
vn 0.3660 0.9126 -0.1823
vn -0.9213 0.3780 -0.0907
vn 0.3883 0.9083 -0.1560
vn 0.3881 -0.9126 -0.1287
vn 0.9190 -0.3762 -0.1182
vn -0.3623 -0.9083 -0.2094
vn -0.8930 0.3762 -0.2471
vn 0.9190 0.3762 -0.1182
vn 0.3883 -0.9083 -0.1560
vn -0.8930 -0.3762 -0.2471
vn -0.3623 0.9083 -0.2094
vn 0.0710 -0.0000 -0.9975
vn -0.3660 -0.9126 -0.1823
vn -0.8992 0.3780 -0.2202
vn 0.3881 0.9126 -0.1287
vn 0.9213 -0.3780 -0.0907
vn -0.8992 -0.3780 -0.2202
vn -0.3660 0.9126 -0.1823
vn 0.9213 0.3780 -0.0907
vt 0.600099 0.399901
vt 0.750000 0.461992
vt 0.750000 0.420368
vt 0.870468 0.370468
vt 0.600099 0.100099
vt 0.538008 0.250000
vt 0.899901 0.100099
vt 0.750000 0.038008
vt 0.899901 0.399901
vt 0.961992 0.250000
vt 0.920367 0.250000
vt 0.870468 0.129532
vt 0.750000 0.079633
vt 0.629532 0.129532
vt 0.579633 0.250000
vt 0.629532 0.370468
s 0
f 8/1/1 1/2/1 17/2/1 24/1/1
f 9/3/2 10/4/2 26/4/2 25/3/2
f 6/5/3 7/6/3 23/6/3 22/5/3
f 4/7/4 5/8/4 21/8/4 20/7/4
f 2/9/5 3/10/5 19/10/5 18/9/5
f 7/6/6 8/1/6 24/1/6 23/6/6
f 5/8/7 6/5/7 22/5/7 21/8/7
f 3/10/8 4/7/8 20/7/8 19/10/8
f 1/2/9 2/9/9 18/9/9 17/2/9
f 10/4/10 9/3/10 17/2/10 18/9/10
f 11/11/10 10/4/10 18/9/10 19/10/10
f 12/12/10 11/11/10 19/10/10 20/7/10
f 13/13/10 12/12/10 20/7/10 21/8/10
f 14/14/10 13/13/10 21/8/10 22/5/10
f 15/15/10 14/14/10 22/5/10 23/6/10
f 16/16/10 15/15/10 23/6/10 24/1/10
f 9/3/10 16/16/10 24/1/10 17/2/10
f 25/3/10 26/4/10 27/11/10 28/12/10 29/13/10 30/14/10 31/15/10 32/16/10
f 16/16/11 9/3/11 25/3/11 32/16/11
f 14/14/12 15/15/12 31/15/12 30/14/12
f 12/12/13 13/13/13 29/13/13 28/12/13
f 10/4/14 11/11/14 27/11/14 26/4/14
f 15/15/15 16/16/15 32/16/15 31/15/15
f 13/13/16 14/14/16 30/14/16 29/13/16
f 11/11/17 12/12/17 28/12/17 27/11/17
f 40/1/18 56/1/18 49/2/18 33/2/18
f 41/3/19 57/3/19 58/4/19 42/4/19
f 38/5/20 54/5/20 55/6/20 39/6/20
f 36/7/21 52/7/21 53/8/21 37/8/21
f 34/9/22 50/9/22 51/10/22 35/10/22
f 39/6/23 55/6/23 56/1/23 40/1/23
f 37/8/24 53/8/24 54/5/24 38/5/24
f 35/10/25 51/10/25 52/7/25 36/7/25
f 33/2/26 49/2/26 50/9/26 34/9/26
f 42/4/27 50/9/27 49/2/27 41/3/27
f 43/11/27 51/10/27 50/9/27 42/4/27
f 44/12/27 52/7/27 51/10/27 43/11/27
f 45/13/27 53/8/27 52/7/27 44/12/27
f 46/14/27 54/5/27 53/8/27 45/13/27
f 47/15/27 55/6/27 54/5/27 46/14/27
f 48/16/27 56/1/27 55/6/27 47/15/27
f 41/3/27 49/2/27 56/1/27 48/16/27
f 57/3/27 64/16/27 63/15/27 62/14/27 61/13/27 60/12/27 59/11/27 58/4/27
f 48/16/28 64/16/28 57/3/28 41/3/28
f 46/14/29 62/14/29 63/15/29 47/15/29
f 44/12/30 60/12/30 61/13/30 45/13/30
f 42/4/31 58/4/31 59/11/31 43/11/31
f 47/15/32 63/15/32 64/16/32 48/16/32
f 45/13/33 61/13/33 62/14/33 46/14/33
f 43/11/34 59/11/34 60/12/34 44/12/34
