# Blender 4.4.3
# www.blender.org
mtllib Pilot.mtl
o Cube.007
v -0.054888 0.558775 0.397216
v -0.054888 0.584210 0.390052
v -0.054888 0.529866 0.294580
v -0.054888 0.555301 0.287416
v 0.054888 0.558775 0.397216
v 0.054888 0.584210 0.390052
v 0.054888 0.529866 0.294580
v 0.054888 0.555301 0.287416
v -0.018744 0.584210 0.390052
v 0.018744 0.584210 0.390052
v -0.018744 0.558775 0.397216
v 0.018744 0.558775 0.397216
v 0.015598 0.552374 0.374492
v -0.015598 0.552374 0.374492
v -0.015598 0.577809 0.367328
v 0.015598 0.577809 0.367328
v -0.054888 0.521414 0.264575
v -0.054888 0.546849 0.257411
v 0.054888 0.521414 0.264575
v 0.054888 0.546849 0.257411
v -0.054888 0.737896 0.235985
v 0.054888 0.737896 0.235985
v -0.054888 0.729445 0.205980
v 0.054888 0.729445 0.205980
v -0.035946 0.739820 0.235049
v -0.035946 0.785576 0.222161
v -0.035946 0.732052 0.207471
v -0.035946 0.777809 0.194583
v 0.035946 0.739820 0.235049
v 0.035946 0.785576 0.222161
v 0.035946 0.732052 0.207471
v 0.035946 0.777809 0.194583
v -0.029038 0.743508 0.246484
v -0.029038 0.786272 0.234439
v -0.029038 0.739100 0.230836
v -0.029038 0.781865 0.218791
v 0.029038 0.743508 0.246484
v 0.029038 0.786272 0.234439
v 0.029038 0.739100 0.230836
v 0.029038 0.781865 0.218791
v -0.051360 0.576540 0.293513
v -0.051360 0.737794 0.248093
v -0.051360 0.572133 0.277865
v -0.051360 0.733386 0.232445
v 0.051360 0.576540 0.293513
v 0.051360 0.737794 0.248093
v 0.051360 0.572133 0.277865
v 0.051360 0.733386 0.232445
v -0.051360 0.583686 0.361795
v -0.051360 0.573040 0.364793
v -0.051360 0.562350 0.286047
v -0.051360 0.551705 0.289046
v 0.051360 0.583686 0.361795
v 0.051360 0.573040 0.364793
v 0.051360 0.562350 0.286047
v 0.051360 0.551705 0.289046
v -0.024100 0.547797 0.546433
v -0.026890 0.682480 0.546434
v -0.036356 0.645406 0.480914
v -0.072505 0.519098 0.442982
v -0.067767 0.698471 0.442982
v 0.024100 0.547797 0.546433
v 0.026890 0.682480 0.546434
v 0.036356 0.645406 0.480914
v 0.072505 0.519098 0.442982
v 0.067767 0.698471 0.442982
v 0.036356 0.664229 0.442982
v -0.036356 0.664229 0.442982
v -0.049436 0.519098 0.442982
v 0.048940 0.519098 0.442982
v -0.049014 0.525492 0.466029
v 0.048151 0.529621 0.480914
v -0.048151 0.529621 0.480914
v 0.051969 0.528528 0.455850
v 0.068408 0.528528 0.076000
v 0.068408 0.608488 0.076000
v 0.088654 0.528528 0.455850
v 0.105094 0.528528 0.076000
v 0.105094 0.608488 0.076000
v 0.042200 0.675971 0.442782
v 0.046767 0.626178 0.416275
v 0.083452 0.626178 0.416275
v 0.064949 0.675971 0.442782
v -0.051969 0.528528 0.455850
v -0.068408 0.528528 0.076000
v -0.068408 0.608488 0.076000
v -0.088654 0.528528 0.455850
v -0.105094 0.528528 0.076000
v -0.105094 0.608488 0.076000
v -0.042200 0.675971 0.442782
v -0.046767 0.626178 0.416275
v -0.083452 0.626178 0.416275
v -0.064949 0.675971 0.442782
v -0.034689 0.694987 0.453088
v -0.034689 0.728357 0.453088
v -0.034689 0.694987 0.445105
v -0.034689 0.728357 0.445105
v 0.034689 0.694987 0.453088
v 0.034689 0.728357 0.453088
v 0.034689 0.694987 0.445105
v 0.034689 0.728357 0.445105
v -0.024690 0.700329 0.445105
v 0.024690 0.728357 0.445105
v -0.024690 0.728357 0.445105
v 0.024690 0.700329 0.445105
v -0.024690 0.728357 0.453088
v 0.024690 0.700329 0.453088
v 0.024690 0.728357 0.453088
v -0.024690 0.700329 0.453088
vn -1.0000 -0.0000 -0.0000
vn 1.0000 -0.0000 -0.0000
vn -0.0000 0.2711 0.9625
vn -0.0000 -0.9625 0.2711
vn -0.0000 0.9625 -0.2711
vn 0.9912 0.0358 0.1271
vn -0.9912 0.0358 0.1271
vn -0.0000 -0.2711 -0.9625
vn -0.0000 0.9626 -0.2711
vn -0.0000 -0.9626 0.2711
vn -0.0000 -0.2712 -0.9625
vn -0.0000 0.2711 0.9626
vn -0.9183 0.0057 0.3959
vn -0.0000 -0.0000 -1.0000
vn 0.9183 0.0057 0.3959
vn -0.0000 -0.0000 1.0000
vn -0.0000 -0.9636 0.2673
vn -0.0000 0.9883 0.1528
vn 0.9950 -0.0962 -0.0269
vn -0.9955 -0.0930 -0.0205
vn -0.0000 -0.8958 -0.4445
vn -0.0000 0.9987 -0.0519
vn -0.9978 -0.0427 -0.0510
vn -0.0000 -1.0000 -0.0000
vn 0.9962 0.0506 0.0707
vn -0.0000 0.4699 -0.8827
vn -0.0000 0.0883 0.9961
vn 0.9978 -0.0427 -0.0510
vn -0.9962 0.0506 0.0707
vn -0.0000 1.0000 -0.0000
vt 0.375000 0.000000
vt 0.625000 0.000000
vt 0.625000 0.250000
vt 0.375000 0.250000
vt 0.375000 0.500000
vt 0.625000 0.500000
vt 0.625000 0.750000
vt 0.375000 0.750000
vt 0.625000 0.917687
vt 0.625000 1.000000
vt 0.375000 1.000000
vt 0.375000 0.917687
vt 0.375000 0.832313
vt 0.625000 0.832313
vt 0.207313 0.750000
vt 0.125000 0.750000
vt 0.125000 0.500000
vt 0.292687 0.750000
vt 0.285523 0.643157
vt 0.214477 0.643157
vt 0.707313 0.750000
vt 0.875000 0.500000
vt 0.875000 0.750000
vt 0.792687 0.750000
vt 0.785523 0.643157
vt 0.714477 0.643157
vt 0.528385 0.151126
vt 0.471615 0.151126
vt 0.471615 0.250000
vt 0.528385 0.250000
vt 0.471615 0.500000
vt 0.528385 0.500000
vt 0.471615 0.598874
vt 0.528385 0.598874
vt 0.375000 0.459373
vt 0.586275 0.441536
vt 0.586275 0.308464
vt 0.375000 0.289771
vt 0.334373 0.500000
vt 0.164771 0.500000
vt 0.150865 0.555696
vt 0.139423 0.591666
vt 0.360577 0.591666
vt 0.432812 0.156278
vt 0.625000 0.156258
vt 0.449175 0.000000
vt 0.442458 0.061362
vt 0.625000 0.593742
vt 0.432849 0.593776
vt 0.449175 0.750000
vt 0.449175 1.000000
vt 0.875000 0.593742
vt 0.875000 0.702658
vt 0.625000 0.702658
vt 0.558286 0.000000
vt 0.625000 0.047342
vt 0.558286 0.750000
vt 0.625000 0.965548
vt 0.558286 1.000000
vt 0.625000 0.463972
vt 0.625000 0.286028
vt 0.415020 0.286028
vt 0.415020 0.463972
vt 0.625000 0.786029
vt 0.415020 0.786029
vt 0.415020 0.963972
vt 0.625000 0.963972
vt 0.838972 0.750000
vt 0.838971 0.500000
vt 0.661029 0.750000
vt 0.661029 0.500000
vt 0.562106 0.086209
vt 0.375000 0.086209
vt 0.375000 0.163791
vt 0.562106 0.163791
vt 0.375000 0.586209
vt 0.375000 0.663791
vt 0.562106 0.663791
vt 0.562106 0.586209
vt 0.125000 0.586209
vt 0.125000 0.663791
s 1
f 1/1/1 2/2/1 4/3/1 3/4/1
f 18/3/1 4/3/1 21/3/1 23/3/1
f 7/5/2 8/6/2 6/7/2 5/8/2
f 9/9/3 2/10/3 1/11/3 11/12/3
f 12/13/3 5/8/3 6/7/3 10/14/3
f 11/15/4 1/16/4 3/17/4 7/5/4 5/8/4 12/18/4 13/19/4 14/20/4
f 10/21/5 6/7/5 8/6/5 4/22/5 2/23/5 9/24/5 15/25/5 16/26/5
f 9/27/6 11/28/6 14/29/6 15/30/6
f 15/30/3 14/29/3 13/31/3 16/32/3
f 12/33/7 10/34/7 16/32/7 13/31/7
f 17/4/8 18/3/8 20/6/8 19/5/8
f 3/4/1 4/3/1 18/3/1 17/4/1
f 8/6/2 7/5/2 19/5/2 20/6/2
f 7/5/4 3/17/4 17/17/4 19/5/4
f 21/22/5 22/6/5 24/6/5 23/22/5
f 4/22/3 8/6/3 22/6/3 21/22/3
f 8/6/2 20/6/2 24/6/2 22/6/2
f 20/6/8 18/3/8 23/3/8 24/6/8
f 25/1/1 26/2/1 28/3/1 27/4/1
f 27/4/8 28/3/8 32/6/8 31/5/8
f 31/5/2 32/6/2 30/7/2 29/8/2
f 29/8/3 30/7/3 26/10/3 25/11/3
f 27/17/4 31/5/4 29/8/4 25/16/4
f 32/6/9 28/22/9 26/23/9 30/7/9
f 33/1/1 34/2/1 36/3/1 35/4/1
f 35/4/8 36/3/8 40/6/8 39/5/8
f 39/5/2 40/6/2 38/7/2 37/8/2
f 37/8/3 38/7/3 34/10/3 33/11/3
f 35/17/4 39/5/4 37/8/4 33/16/4
f 40/6/9 36/22/9 34/23/9 38/7/9
f 41/1/1 42/2/1 44/3/1 43/4/1
f 43/4/8 44/3/8 48/6/8 47/5/8
f 47/5/2 48/6/2 46/7/2 45/8/2
f 45/8/3 46/7/3 42/10/3 41/11/3
f 43/17/10 47/5/10 45/8/10 41/16/10
f 48/6/5 44/22/5 42/23/5 46/7/5
f 49/1/1 51/4/1 52/3/1 50/2/1
f 51/4/11 55/5/11 56/6/11 52/3/11
f 55/5/2 53/8/2 54/7/2 56/6/2
f 53/8/12 49/11/12 50/10/12 54/7/12
f 51/17/5 49/16/5 53/8/5 55/5/5
f 56/6/4 54/7/4 50/23/4 52/22/4
f 57/1/13 58/2/13 61/3/13 60/4/13
f 60/4/14 61/3/14 66/6/14 65/5/14 70/35/14 67/36/14 68/37/14 69/38/14
f 65/5/15 66/6/15 63/7/15 62/8/15
f 62/8/16 63/7/16 58/10/16 57/11/16
f 70/39/17 65/5/17 62/8/17 57/16/17 60/17/17 69/40/17 71/41/17 73/42/17 72/43/17
f 66/6/18 61/22/18 58/23/18 63/7/18
f 69/44/19 68/45/19 59/2/19 73/46/19 71/47/19
f 64/7/20 67/48/20 70/49/20 72/50/20
f 73/51/14 59/10/14 64/7/14 72/50/14
f 64/7/21 59/23/21 68/52/21 67/48/21
f 79/6/22 76/22/22 81/53/22 82/54/22
f 75/4/14 76/3/14 79/6/14 78/5/14
f 74/1/23 80/55/23 81/56/23 76/3/23 75/4/23
f 75/17/24 78/5/24 77/8/24 74/16/24
f 78/5/25 79/6/25 82/54/25 83/57/25 77/8/25
f 82/7/26 81/58/26 80/59/26 83/57/26
f 77/8/27 83/57/27 80/59/27 74/11/27
f 89/6/22 92/54/22 91/53/22 86/22/22
f 85/4/14 88/5/14 89/6/14 86/3/14
f 84/1/28 85/4/28 86/3/28 91/56/28 90/55/28
f 85/17/24 84/16/24 87/8/24 88/5/24
f 88/5/29 87/8/29 93/57/29 92/54/29 89/6/29
f 92/7/26 93/57/26 90/59/26 91/58/26
f 87/8/27 84/11/27 90/59/27 93/57/27
f 94/1/1 95/2/1 97/3/1 96/4/1
f 103/60/14 101/6/14 100/5/14 96/4/14 97/3/14 104/61/14 102/62/14 105/63/14
f 100/5/2 101/6/2 99/7/2 98/8/2
f 95/10/16 94/11/16 98/8/16 99/7/16 108/64/16 107/65/16 109/66/16 106/67/16
f 96/17/24 100/5/24 98/8/24 94/16/24
f 97/22/30 95/23/30 106/68/30 104/69/30
f 108/70/30 99/7/30 101/6/30 103/71/30
f 106/72/2 109/73/2 102/74/2 104/75/2
f 105/76/1 107/77/1 108/78/1 103/79/1
f 107/77/30 105/76/30 102/80/30 109/81/30
