# Blender v3.0.0 OBJ File: ''
# www.blender.org
mtllib Seat.mtl
o f16_lowpoly:plane_to_uv6:polySurface79_Mesh.153
v 0.180855 0.159865 0.006281
v 0.170655 0.189583 0.006281
v 0.172680 0.190278 0.012036
v 0.182880 0.160560 0.012036
v 0.162799 0.186887 0.004261
v 0.163949 0.187281 0.011799
v 0.172823 0.157108 0.011579
v 0.162623 0.186826 0.011579
v 0.161689 0.186506 0.003975
v 0.171889 0.156787 0.003975
v 0.167500 0.198773 0.006281
v 0.161066 0.196564 0.004267
v 0.174149 0.157563 0.011799
v 0.180855 0.159865 -0.006281
v 0.170655 0.189583 -0.006281
v 0.182880 0.160560 -0.012036
v 0.172680 0.190278 -0.012036
v 0.167500 0.198773 -0.006281
v 0.161066 0.196564 -0.004267
v 0.163949 0.187281 -0.011799
v 0.162799 0.186887 -0.004261
v 0.161689 0.186506 -0.003975
v 0.171889 0.156787 -0.003975
v 0.172823 0.157108 -0.011579
v 0.162623 0.186826 -0.011579
v 0.174149 0.157563 -0.011799
v 0.168718 0.197791 0.011074
v 0.168402 0.198712 0.011074
v 0.167583 0.198430 0.010905
v 0.167898 0.197510 0.010899
v 0.167816 0.197852 0.006281
v 0.167500 0.198773 0.006281
v 0.166681 0.198491 0.006112
v 0.166996 0.197571 0.006105
v 0.168421 0.198694 -0.011077
v 0.168737 0.197774 -0.011077
v 0.167917 0.197492 -0.010899
v 0.167601 0.198413 -0.010914
v 0.167500 0.198773 -0.006281
v 0.167816 0.197852 -0.006281
v 0.166996 0.197571 -0.006103
v 0.166681 0.198491 -0.006118
v 0.160390 0.193906 -0.010393
v 0.161716 0.194361 -0.010614
v 0.161539 0.194301 -0.011799
v 0.160213 0.193846 -0.011579
v 0.162799 0.186887 -0.010393
v 0.164125 0.187342 -0.010614
v 0.163949 0.187281 -0.011799
v 0.162623 0.186826 -0.011579
v 0.161716 0.194361 0.010614
v 0.160390 0.193906 0.010393
v 0.160213 0.193846 0.011579
v 0.161539 0.194301 0.011799
v 0.164125 0.187342 0.010614
v 0.162799 0.186887 0.010393
v 0.162623 0.186826 0.011579
v 0.163949 0.187281 0.011799
vt 0.047095 0.884809
vt 0.047151 0.847285
vt 0.055312 0.884809
vt 0.055312 0.847285
vt 0.050869 0.841532
vt 0.055312 0.841532
vt 0.067254 0.884809
vt 0.067254 0.847285
vt 0.075989 0.884809
vt 0.075989 0.847285
vt 0.047176 0.832794
vt 0.050869 0.832809
vt 0.075989 0.845911
vt 0.067254 0.845911
vt 0.065556 0.884809
vt 0.065556 0.847285
vt 0.032114 0.847285
vt 0.032063 0.884809
vt 0.023978 0.884809
vt 0.023978 0.847285
vt 0.032141 0.832764
vt 0.044783 0.824646
vt 0.034567 0.824626
vt 0.023978 0.841532
vt 0.028408 0.841532
vt 0.085881 0.847285
vt 0.085881 0.884809
vt 0.095036 0.884809
vt 0.095036 0.847285
vt 0.028408 0.832743
vt 0.095036 0.845911
vt 0.085881 0.845911
vt 0.096737 0.884809
vt 0.096737 0.847285
vt 0.044795 0.812880
vt 0.034597 0.812860
vt 0.013666 0.884809
vt 0.013706 0.847285
vt 0.014542 0.821658
vt 0.013539 0.821338
vt 0.014895 0.820551
vt 0.013890 0.820230
vt 0.015678 0.814581
vt 0.016047 0.820392
vt 0.014527 0.814737
vt 0.016638 0.814142
vt 0.017007 0.819957
vt 0.012359 0.814415
vt 0.013521 0.814419
vt 0.012728 0.820227
vt 0.024100 0.821849
vt 0.023742 0.820738
vt 0.025105 0.821523
vt 0.024750 0.820413
vt 0.022957 0.814736
vt 0.024112 0.814899
vt 0.022587 0.820577
vt 0.025121 0.814572
vt 0.026287 0.814576
vt 0.025917 0.820415
vt 0.021994 0.814304
vt 0.021625 0.820144
vt 0.069641 0.815293
vt 0.067943 0.815293
vt 0.069641 0.813857
vt 0.067943 0.813857
vt 0.069641 0.824168
vt 0.067943 0.824168
vt 0.066507 0.824168
vt 0.066508 0.815293
vt 0.072777 0.824150
vt 0.071081 0.824162
vt 0.072755 0.815305
vt 0.071070 0.815301
vt 0.057779 0.815422
vt 0.057843 0.813722
vt 0.059218 0.815476
vt 0.059279 0.813776
vt 0.057443 0.824308
vt 0.055746 0.824244
vt 0.056079 0.815357
vt 0.062017 0.824483
vt 0.060579 0.824428
vt 0.062355 0.815595
vt 0.060917 0.815540
vt 0.058881 0.824363
vn 0.9063 0.3111 -0.2860
vn 0.9619 -0.0330 -0.2715
vn 0.7837 0.4919 -0.3792
vn 0.7960 0.5004 -0.3406
vn 0.9625 0.2714 -0.0045
vn 0.7322 0.1960 -0.6523
vn 0.2526 0.9286 0.2718
vn -0.2179 0.8823 -0.4171
vn -0.6310 0.7744 -0.0464
vn -0.5318 0.8084 0.2522
vn 0.0702 0.9812 -0.1796
vn -0.6332 0.7724 -0.0485
vn -0.9177 -0.3150 -0.2421
vn -0.6463 -0.7562 0.1019
vn -0.9383 -0.3210 0.1290
vn -0.9383 -0.3209 0.1287
vn -0.6753 -0.7354 -0.0569
vn -0.5953 -0.7964 0.1067
vn -0.3377 -0.2762 0.8998
vn -0.2359 -0.0889 0.9677
vn -0.3877 0.2344 0.8915
vn -0.5176 0.1299 0.8457
vn -0.2118 -0.0671 0.9750
vn -0.1323 0.5671 0.8130
vn -0.2008 0.8071 0.5553
vn -0.3360 0.7969 -0.5021
vn -0.4662 0.6819 0.5637
vn -0.1878 0.7774 0.6003
vn -0.2057 0.8416 -0.4994
vn -0.6328 0.7399 -0.2281
vn -0.2552 0.2983 0.9197
vn -0.1639 -0.0067 0.9865
vn 0.0569 -0.5145 0.8556
vn 0.3616 0.0616 0.9303
vn -0.1620 -0.0060 0.9868
vn -0.2082 -0.4625 0.8618
vn -0.2268 -0.0778 0.9708
vn 0.0824 -0.3432 0.9356
vn 0.0202 0.0069 0.9998
vn -0.0263 0.0386 0.9989
vn -0.0498 -0.3582 0.9323
vn 0.3956 -0.0852 0.9145
vn 0.9978 -0.0198 -0.0635
vn 0.9223 0.3865 -0.0000
vn 0.9096 0.2351 0.3425
vn 0.9941 -0.0110 0.1079
vn 0.9238 0.3820 -0.0245
vn 0.9221 0.3870 -0.0000
vn 0.9065 0.3111 0.2854
vn 0.7837 0.4919 0.3792
vn 0.9479 -0.0447 0.3155
vn 0.9821 0.0015 0.1881
vn 0.7960 0.5004 0.3406
vn 0.8195 0.0409 0.5716
vn -0.4398 0.8840 -0.1584
vn -0.3937 0.8994 0.1898
vn -0.2998 0.9538 -0.0216
vn -0.3201 0.9468 -0.0336
vn -0.4886 0.8668 0.0991
vn -0.2926 0.9562 0.0045
vn -0.5804 0.7928 0.1862
vn 0.0702 0.9812 0.1796
vn -0.2601 0.9010 -0.3471
vn -0.5943 0.7863 -0.1687
vn -0.2179 0.8823 0.4171
vn 0.1558 0.9230 -0.3520
vn -0.7836 -0.2690 -0.5600
vn -0.7894 -0.3111 0.5292
vn -0.9462 -0.3237 -0.0003
vn -0.9458 -0.3246 -0.0011
vn -0.6343 -0.7632 0.1232
vn -0.9458 -0.3246 0.0011
vn -0.9177 -0.3150 0.2421
vn -0.9383 -0.3210 -0.1290
vn -0.6470 -0.7563 -0.0968
vn -0.6818 -0.7267 0.0832
vn -0.9383 -0.3209 -0.1287
vn -0.6180 -0.7710 -0.1538
vn 0.8659 0.3644 -0.3427
vn 0.8273 0.4750 0.2999
vn 0.9845 0.1469 -0.0954
vn 0.9460 0.2593 -0.1947
vn 0.7737 0.6310 0.0561
vn 0.9560 0.2289 0.1835
vn -0.0104 0.4992 -0.8664
vn -0.2233 -0.0746 -0.9719
vn -0.5559 -0.0942 -0.8259
vn -0.5078 0.1471 -0.8488
vn -0.2379 -0.1055 -0.9655
vn -0.2882 -0.2929 -0.9117
vn -0.6328 0.7399 0.2281
vn -0.1719 0.8532 0.4924
vn -0.2175 0.7949 -0.5665
vn -0.6042 0.6621 -0.4433
vn -0.3329 0.7979 0.5024
vn -0.1783 0.8350 -0.5205
vn -0.2552 0.2983 -0.9197
vn 0.0560 -0.5148 -0.8555
vn -0.1639 -0.0067 -0.9865
vn -0.1619 -0.0060 -0.9868
vn 0.3675 0.0295 -0.9296
vn -0.2082 -0.4625 -0.8618
vn -0.9782 -0.2072 -0.0124
vn -0.9826 -0.1826 0.0333
vn -0.8733 0.3590 -0.3294
vn -0.8014 -0.0419 -0.5966
vn -0.9787 -0.2046 0.0178
vn -0.8640 0.1592 0.4776
vn -0.7614 0.5805 -0.2884
vn -0.3152 0.7613 0.5666
vn 0.2457 0.9603 0.1323
vn -0.1943 0.8093 -0.5544
vn -0.6875 0.6335 0.3549
vn 0.2216 0.9723 -0.0744
vn -0.2268 -0.0778 -0.9708
vn 0.0202 0.0069 -0.9998
vn 0.0461 -0.3468 -0.9368
vn -0.2011 -0.3042 -0.9312
vn -0.0262 0.0386 -0.9989
vn 0.3956 -0.0852 -0.9145
vn -0.2569 -0.4607 0.8495
vn 0.0658 -0.0789 0.9947
vn -0.4813 0.2243 0.8473
vn -0.5842 -0.0994 0.8055
vn -0.0205 -0.2549 0.9668
vn -0.1208 0.1991 0.9725
vn 0.9484 0.2583 -0.1838
vn 0.7795 0.2677 -0.5663
vn 0.9094 0.3804 -0.1682
vn 0.9378 0.3302 -0.1076
vn 0.8745 0.0353 -0.4838
vn 0.6889 0.6450 -0.3307
vn -0.3324 0.9337 0.1329
vn -0.3531 0.9198 -0.1713
vn -0.3241 0.9358 0.1389
vn -0.3099 0.9413 0.1341
vn -0.1571 0.9836 -0.0884
vn -0.6308 0.7559 -0.1750
vn -0.9124 -0.3748 0.1645
vn -0.9494 -0.2615 0.1740
vn -0.9402 -0.3318 -0.0763
vn -0.8671 -0.4981 0.0103
vn -0.9223 -0.3097 0.2314
vn -0.9830 -0.1741 -0.0585
vn 0.3511 -0.9362 -0.0150
vn 0.3355 -0.9420 -0.0110
vn 0.3041 -0.8875 -0.3461
vn 0.5582 -0.8090 -0.1843
vn 0.3491 -0.9370 -0.0118
vn 0.0987 -0.8939 -0.4373
vn -0.4470 -0.3447 -0.8254
vn -0.4438 0.2602 -0.8575
vn 0.0696 -0.1084 -0.9917
vn -0.0414 -0.2819 -0.9586
vn -0.5862 -0.0553 -0.8083
vn -0.0031 0.1267 -0.9919
vn 0.9478 0.2584 0.1869
vn 0.9089 0.3806 0.1703
vn 0.7883 0.2418 0.5658
vn 0.9432 -0.0777 0.3230
vn 0.9376 0.3298 0.1096
vn 0.6901 0.5949 0.4120
vn 0.3522 -0.9357 0.0193
vn 0.2899 -0.8917 0.3476
vn 0.3365 -0.9416 0.0156
vn 0.3504 -0.9365 0.0164
vn 0.4636 -0.8327 0.3028
vn 0.0412 -0.9160 0.3992
vn -0.9115 -0.3761 -0.1666
vn -0.9428 -0.3249 0.0750
vn -0.9487 -0.2621 -0.1766
vn -0.9211 -0.3110 -0.2342
vn -0.8860 -0.4629 0.0266
vn -0.9952 -0.0889 -0.0414
vn -0.3319 0.9332 -0.1375
vn -0.3233 0.9354 -0.1432
vn -0.3477 0.9225 0.1679
vn -0.1212 0.9922 0.0293
vn -0.3091 0.9409 -0.1381
vn -0.5114 0.8103 0.2860
vn -0.2004 0.9232 -0.3278
vn -0.6164 0.7837 -0.0772
vn -0.0973 0.9619 0.2557
vn 0.0121 0.9994 0.0328
vn -0.4715 0.8334 -0.2883
vn -0.4088 0.8517 0.3278
vn 0.2080 0.0714 0.9755
vn 0.0853 0.0293 0.9959
vn 0.2914 -0.2625 0.9199
vn 0.4786 0.0144 0.8779
vn 0.1142 0.1073 0.9877
vn -0.0306 -0.2420 0.9698
vn 0.9111 0.3820 -0.1550
vn 0.8462 0.2900 0.4470
vn 0.9852 -0.0177 -0.1702
vn 0.9210 0.0660 -0.3840
vn 0.5884 0.8078 -0.0344
vn 0.9997 0.0189 0.0121
vn -0.3078 0.5082 -0.8044
vn 0.4215 0.1448 -0.8952
vn -0.0688 -0.3861 -0.9199
vn -0.3865 -0.2825 -0.8779
vn -0.2028 0.5320 -0.8221
vn 0.1235 -0.2586 -0.9581
vn -0.9497 0.2865 0.1267
vn -0.9550 -0.2591 0.1446
vn -0.7655 -0.6177 0.1803
vn -0.7829 -0.4426 0.4373
vn -0.9537 -0.2578 0.1550
vn -0.8006 -0.5991 -0.0121
vn -0.4989 0.8208 0.2782
vn -0.0322 0.9842 0.1742
vn -0.4297 0.8478 -0.3109
vn -0.5984 0.7898 -0.1343
vn -0.2314 0.9158 0.3282
vn -0.1103 0.9542 -0.2782
vn 0.0851 0.0292 -0.9959
vn 0.2079 0.0713 -0.9756
vn 0.2069 -0.2915 -0.9339
vn -0.1109 -0.1879 -0.9759
vn 0.1372 0.1152 -0.9838
vn 0.4493 -0.0773 -0.8900
vn -0.9536 -0.2580 -0.1550
vn -0.9519 -0.2581 -0.1654
vn -0.7738 -0.6215 -0.1222
vn -0.8381 -0.5377 0.0916
vn -0.9537 -0.2578 -0.1549
vn -0.7537 -0.5830 -0.3035
vn -0.0851 -0.0292 0.9959
vn -0.2079 -0.0714 0.9755
vn 0.0158 -0.3571 0.9339
vn 0.2029 -0.0802 0.9759
vn -0.1791 0.0067 0.9838
vn -0.2152 -0.3748 0.9018
vn 0.9110 0.3821 0.1550
vn 0.9097 0.3809 0.1653
vn 0.9936 -0.0139 0.1121
vn 0.9762 0.1611 -0.1449
vn 0.9110 0.3822 0.1550
vn 0.9528 0.0027 0.3035
usemtl body_texture.002
s off
f 1/1/1 2/2/2 4/3/3
f 4/3/4 2/2/5 3/4/6
f 5/5/7 6/6/8 2/2/9
f 2/2/10 6/6/11 3/4/12
f 7/7/13 8/8/14 10/9/15
f 10/9/16 8/8/17 9/10/18
f 11/11/19 12/12/20 2/2/21
f 2/2/22 12/12/23 5/5/24
f 9/10/25 8/8/26 5/13/27
f 5/13/28 8/8/29 6/14/30
f 7/7/31 13/15/32 8/8/33
f 8/8/34 13/15/35 6/16/36
f 4/3/37 3/4/38 13/15/39
f 13/15/40 3/4/41 6/16/42
f 2/2/43 1/1/44 15/17/45
f 15/17/46 1/1/47 14/18/48
f 14/18/49 16/19/50 15/17/51
f 15/17/52 16/19/53 17/20/54
f 11/11/55 18/21/56 12/22/57
f 12/22/58 18/21/59 19/23/60
f 17/20/61 20/24/62 15/17/63
f 15/17/64 20/24/65 21/25/66
f 9/10/67 22/26/68 10/9/69
f 10/9/70 22/26/71 23/27/72
f 24/28/73 23/27/74 25/29/75
f 25/29/76 23/27/77 22/26/78
f 2/2/79 15/17/80 11/11/81
f 11/11/82 15/17/83 18/21/84
f 21/25/85 19/30/86 15/17/87
f 15/17/88 19/30/89 18/21/90
f 20/31/91 25/29/92 21/32/93
f 21/32/94 25/29/95 22/26/96
f 24/28/97 25/29/98 26/33/99
f 26/33/100 25/29/101 20/34/102
f 12/22/103 19/23/104 5/35/105
f 5/35/106 19/23/107 21/36/108
f 5/13/109 21/32/110 9/10/111
f 9/10/112 21/32/113 22/26/114
f 16/19/115 26/37/116 17/20/117
f 17/20/118 26/37/119 20/38/120
f 28/39/121 29/40/122 27/41/123
f 27/41/124 29/40/125 30/42/126
f 32/43/127 28/44/128 31/45/129
f 31/45/130 28/44/131 27/41/132
f 33/46/133 29/47/134 32/43/135
f 32/43/136 29/47/137 28/44/138
f 33/48/139 34/49/140 29/50/141
f 29/50/142 34/49/143 30/42/144
f 34/49/145 31/45/146 30/42/147
f 30/42/148 31/45/149 27/41/150
f 35/51/151 36/52/152 38/53/153
f 38/53/154 36/52/155 37/54/156
f 39/55/157 40/56/158 35/57/159
f 35/57/160 40/56/161 36/52/162
f 41/58/163 37/54/164 40/56/165
f 40/56/166 37/54/167 36/52/168
f 42/59/169 38/60/170 41/58/171
f 41/58/172 38/60/173 37/54/174
f 42/61/175 39/55/176 38/62/177
f 38/62/178 39/55/179 35/57/180
f 43/63/181 44/64/182 46/65/183
f 46/65/184 44/64/185 45/66/186
f 47/67/187 48/68/188 43/63/189
f 43/63/190 48/68/191 44/64/192
f 48/68/193 49/69/194 44/64/195
f 44/64/196 49/69/197 45/70/198
f 49/71/199 50/72/200 45/73/201
f 45/73/202 50/72/203 46/74/204
f 50/72/205 47/67/206 46/74/207
f 46/74/208 47/67/209 43/63/210
f 51/75/211 52/76/212 54/77/213
f 54/77/214 52/76/215 53/78/216
f 55/79/217 56/80/218 51/75/219
f 51/75/220 56/80/221 52/81/222
f 56/82/223 57/83/224 52/84/225
f 52/84/226 57/83/227 53/85/228
f 57/83/229 58/86/230 53/85/231
f 53/85/232 58/86/233 54/77/234
f 58/86/235 55/79/236 54/77/237
f 54/77/238 55/79/239 51/75/240
