# Blender 4.0.2
# www.blender.org
mtllib IS1.mtl
o Cube.015
v -0.063576 0.957451 -0.521111
v -0.063576 1.026838 -0.521111
v -0.063576 0.957451 -0.596280
v -0.063576 1.026838 -0.596280
v 0.063576 0.957451 -0.521111
v 0.063576 1.026838 -0.521111
v 0.063576 0.957451 -0.596280
v 0.063576 1.026838 -0.596280
v -0.088997 1.050347 -0.521111
v -0.088997 1.050347 -0.596280
v 0.088997 1.050347 -0.596280
v 0.088997 1.050347 -0.521111
v -0.088997 1.154435 -0.521111
v -0.088997 1.154435 -0.596280
v 0.088997 1.154435 -0.596280
v 0.088997 1.154435 -0.521111
v -0.118225 1.201297 -0.521111
v -0.118225 1.201297 -0.596280
v 0.118225 1.201297 -0.596280
v 0.118225 1.201297 -0.521111
v -0.092428 1.252331 -0.521111
v -0.092428 1.252331 -0.596280
v 0.092428 1.252331 -0.596280
v 0.092428 1.252331 -0.521111
v 0.055705 1.105020 -0.521111
v -0.055705 1.105020 -0.521111
v -0.065181 1.154435 -0.521111
v 0.065181 1.154435 -0.521111
v 0.055705 1.138379 -0.521111
v -0.055705 1.138379 -0.521111
v -0.055705 1.105020 -0.596280
v -0.065181 1.154435 -0.596280
v -0.055705 1.138379 -0.596280
v 0.055705 1.138379 -0.596280
v 0.065181 1.154435 -0.596280
v 0.055705 1.105020 -0.596280
v -0.092967 1.201513 -0.521111
v -0.092839 1.201297 -0.521111
v 0.092967 1.201513 -0.521111
v 0.092839 1.201297 -0.521111
v -0.065545 1.252331 -0.521111
v 0.065545 1.252331 -0.521111
v -0.092839 1.201297 -0.596280
v 0.092839 1.201297 -0.596280
v 0.065545 1.252331 -0.596280
v -0.065545 1.252331 -0.596280
v -0.092967 1.201513 -0.596280
v 0.092967 1.201513 -0.596280
v -0.115776 0.907115 -0.380912
v -0.115776 0.907115 -0.593679
v -0.115776 1.008425 -0.593679
v 0.115776 0.907115 -0.380912
v 0.115776 0.907115 -0.593679
v 0.115776 1.008425 -0.593679
v -0.115776 0.962941 -0.380912
v -0.115776 1.008425 -0.512256
v 0.115776 1.008425 -0.512256
v 0.115776 0.962941 -0.380912
v 0.063576 1.008425 -0.593679
v -0.063576 1.008425 -0.593679
v -0.063576 1.008425 -0.512256
v 0.063576 1.008425 -0.512256
v -0.063576 0.957451 -0.593679
v 0.063576 0.957451 -0.593679
v -0.063576 0.962941 -0.380912
v 0.063576 0.962941 -0.380912
v -0.063576 0.957451 -0.380912
v 0.063576 0.957451 -0.380912
v -0.028448 1.083693 -0.540042
v -0.028448 1.083693 -0.556383
v 0.028448 1.083693 -0.540042
v 0.028448 1.083693 -0.556383
v -0.028448 1.144857 -0.540042
v -0.028448 1.144857 -0.556383
v 0.000000 1.116409 -0.556383
v 0.028448 1.144857 -0.556383
v 0.028448 1.144857 -0.540042
v 0.000000 1.116409 -0.540042
v 0.000000 1.102574 -0.540457
v -0.057399 1.159973 -0.540457
v 0.000000 1.102574 -0.555967
v -0.057399 1.159973 -0.555967
v 0.057400 1.159973 -0.540457
v 0.000000 1.217373 -0.540457
v 0.057400 1.159973 -0.555967
v 0.000000 1.217373 -0.555967
v 0.000000 1.128328 -0.555967
v 0.000000 1.191618 -0.555967
v -0.031645 1.159973 -0.555967
v 0.031645 1.159973 -0.555967
v 0.031645 1.159973 -0.540457
v -0.031645 1.159973 -0.540457
v 0.000000 1.191618 -0.540457
v 0.000000 1.128328 -0.540457
vn -1.0000 -0.0000 -0.0000
vn -0.0000 -0.0000 -1.0000
vn 1.0000 -0.0000 -0.0000
vn -0.0000 -0.0000 1.0000
vn -0.0000 -1.0000 -0.0000
vn -0.6790 -0.7342 -0.0000
vn 0.6790 -0.7342 -0.0000
vn 0.8485 -0.5292 -0.0000
vn -0.8485 -0.5292 -0.0000
vn -0.0000 1.0000 -0.0000
vn 0.8925 0.4511 -0.0000
vn -0.8925 0.4511 -0.0000
vn 0.8800 -0.4749 -0.0000
vn -0.8800 -0.4749 -0.0000
vn -0.8612 0.5083 -0.0000
vn 0.8612 0.5083 -0.0000
vn -0.0000 0.9449 0.3272
vn 0.7071 0.7071 -0.0000
vn -0.7071 0.7071 -0.0000
vn -0.7071 -0.7071 -0.0000
vn 0.7071 -0.7071 -0.0000
vt 0.375000 0.000000
vt 0.625000 0.000000
vt 0.625000 0.250000
vt 0.375000 0.250000
vt 0.625000 0.500000
vt 0.375000 0.500000
vt 0.625000 0.750000
vt 0.375000 0.750000
vt 0.625000 1.000000
vt 0.375000 1.000000
vt 0.125000 0.500000
vt 0.125000 0.750000
vt 0.625000 0.783450
vt 0.625000 0.796759
vt 0.625000 0.796759
vt 0.625000 0.953241
vt 0.625000 0.953241
vt 0.625000 0.966550
vt 0.625000 0.283450
vt 0.625000 0.296759
vt 0.625000 0.296759
vt 0.625000 0.453241
vt 0.625000 0.466550
vt 0.625000 0.776608
vt 0.625000 0.776841
vt 0.625000 0.786357
vt 0.625000 0.973159
vt 0.625000 0.973392
vt 0.625000 0.963643
vt 0.625000 0.276841
vt 0.625000 0.473159
vt 0.875000 0.500000
vt 0.875000 0.750000
vt 0.838643 0.750000
vt 0.838643 0.500000
vt 0.661357 0.750000
vt 0.661357 0.500000
vt 0.625000 0.276608
vt 0.625000 0.286357
vt 0.625000 0.463643
vt 0.625000 0.473392
vt 0.603317 0.207114
vt 0.603317 0.049962
vt 0.500000 0.049962
vt 0.500000 0.207114
vt 0.500000 0.542886
vt 0.500000 0.700038
vt 0.603317 0.700038
vt 0.603317 0.542886
vt 0.375000 0.542886
vt 0.375000 0.700038
vt 0.406789 0.700038
vt 0.499572 0.700038
vt 0.499572 0.542886
vt 0.406789 0.542886
vt 0.499572 0.049962
vt 0.406789 0.049962
vt 0.375000 0.049962
vt 0.375000 0.207114
vt 0.406789 0.207114
vt 0.499572 0.207114
vt 0.125000 0.542886
vt 0.125000 0.700038
vt 0.375000 0.542886
vt 0.375000 0.049962
vt 0.875000 0.654030
vt 0.818642 0.654030
vt 0.818642 0.500000
vt 0.681358 0.654030
vt 0.625000 0.654030
vt 0.681358 0.500000
vt 0.625000 0.443642
vt 0.625000 0.306358
vt 0.499214 0.306358
vt 0.499214 0.443642
vt 0.438611 0.000000
vt 0.625000 0.095970
vt 0.438611 0.750000
vt 0.438611 1.000000
vt 0.438611 0.943642
vt 0.625000 0.943642
vt 0.438611 0.806358
vt 0.625000 0.806358
vt 0.432355 0.806358
vt 0.432355 0.943642
vt 0.439973 0.110793
vt 0.381998 0.050808
vt 0.375000 0.050808
vt 0.375000 0.147980
vt 0.439973 0.147980
vt 0.381998 0.699192
vt 0.439973 0.639207
vt 0.439973 0.602020
vt 0.375000 0.602020
vt 0.375000 0.699192
vt 0.125000 0.602020
vt 0.125000 0.699192
vt 0.620534 0.000000
vt 0.620534 0.250000
vt 0.559793 0.375000
vt 0.620534 0.500000
vt 0.620534 0.750000
vt 0.620534 1.000000
vt 0.559793 0.875000
vt 0.599745 0.153563
vt 0.599745 0.096437
vt 0.375000 0.096437
vt 0.375000 0.153563
vt 0.349745 0.653563
vt 0.349745 0.596437
vt 0.125000 0.596437
vt 0.125000 0.653563
vt 0.568914 0.306086
vt 0.431086 0.443914
vt 0.568914 0.443914
vt 0.431086 0.306086
vt 0.431086 0.943914
vt 0.568914 0.943914
vt 0.568914 0.806086
vt 0.431086 0.806086
vt 0.375000 0.097889
vt 0.375000 0.152111
vt 0.625000 0.152111
vt 0.625000 0.097889
vt 0.625000 0.652111
vt 0.625000 0.597889
vt 0.375000 0.597889
vt 0.375000 0.652111
vt 0.125000 0.597889
vt 0.125000 0.652111
vt 0.875000 0.597889
vt 0.875000 0.652111
s 0
f 1/1/1 2/2/1 4/3/1 3/4/1
f 3/4/2 4/3/2 8/5/2 7/6/2
f 7/6/3 8/5/3 6/7/3 5/8/3
f 5/8/4 6/7/4 2/9/4 1/10/4
f 3/11/5 7/6/5 5/8/5 1/12/5
f 4/3/6 2/2/6 9/2/6 10/3/6
f 28/13/4 29/14/4 25/15/4 26/16/4 30/17/4 27/18/4 13/9/4 9/9/4 12/7/4 16/7/4
f 2/9/4 6/7/4 12/7/4 9/9/4
f 8/5/2 4/3/2 10/3/2 11/5/2
f 6/7/7 8/5/7 11/5/7 12/7/7
f 16/7/8 15/5/8 19/5/8 20/7/8
f 32/19/2 33/20/2 31/21/2 36/22/2 34/22/2 35/23/2 15/5/2 11/5/2 10/3/2 14/3/2
f 12/7/3 11/5/3 15/5/3 16/7/3
f 10/3/1 9/2/1 13/2/1 14/3/1
f 39/24/4 40/25/4 20/7/4 24/7/4 42/26/4
f 21/9/4 17/9/4 38/27/4 37/28/4 41/29/4
f 14/3/9 13/2/9 17/2/9 18/3/9
f 16/7/4 20/7/4 40/25/4 28/13/4
f 38/27/4 17/9/4 13/9/4 27/18/4
f 32/19/2 14/3/2 18/3/2 43/30/2
f 19/5/2 15/5/2 35/23/2 44/31/2
f 22/32/10 21/33/10 41/34/10 46/35/10
f 42/36/10 24/7/10 23/5/10 45/37/10
f 47/38/2 43/30/2 18/3/2 22/3/2 46/39/2
f 45/40/2 23/5/2 19/5/2 44/31/2 48/41/2
f 20/7/11 19/5/11 23/5/11 24/7/11
f 18/3/12 17/2/12 21/2/12 22/3/12
f 46/42/13 41/43/13 37/44/13 47/45/13
f 48/46/14 39/47/14 42/48/14 45/49/14
f 34/50/15 29/51/15 28/52/15 40/53/15 39/47/15 48/46/15 44/54/15 35/55/15
f 47/45/16 37/44/16 38/56/16 27/57/16 30/58/16 33/59/16 32/60/16 43/61/16
f 31/62/10 26/63/10 25/51/10 36/64/10
f 33/59/3 30/58/3 26/65/3 31/59/3
f 29/51/1 34/50/1 36/64/1 25/51/1
f 51/32/10 56/66/10 61/67/10 60/68/10
f 62/69/10 57/70/10 54/5/10 59/71/10
f 59/72/2 54/5/2 53/6/2 50/4/2 51/3/2 60/73/2 63/74/2 64/75/2
f 55/76/1 56/77/1 51/3/1 50/4/1 49/1/1
f 50/11/5 53/6/5 52/8/5 49/12/5
f 54/5/3 57/70/3 58/78/3 52/8/3 53/6/3
f 56/9/17 55/79/17 65/80/17 61/81/17
f 66/82/17 58/78/17 57/7/17 62/83/17
f 55/79/4 49/10/4 52/8/4 58/78/4 66/82/4 68/84/4 67/85/4 65/80/4
f 61/86/3 65/87/3 67/88/3 63/89/3 60/90/3
f 66/91/1 62/92/1 59/93/1 64/94/1 68/95/1
f 68/95/10 64/94/10 63/96/10 67/97/10
f 70/4/1 69/1/1 73/98/1 74/99/1
f 72/6/2 70/4/2 74/99/2 75/100/2 76/101/2
f 77/102/3 71/8/3 72/6/3 76/101/3
f 73/103/4 69/10/4 71/8/4 77/102/4 78/104/4
f 70/11/5 72/6/5 71/8/5 69/12/5
f 74/105/18 73/106/18 78/107/18 75/108/18
f 77/109/19 76/110/19 75/111/19 78/112/19
f 79/1/20 80/2/20 82/3/20 81/4/20
f 89/113/2 82/3/2 86/5/2 85/6/2 90/114/2 88/115/2
f 90/114/2 85/6/2 81/4/2 82/3/2 89/113/2 87/116/2
f 85/6/18 86/5/18 84/7/18 83/8/18
f 83/8/4 84/7/4 80/9/4 79/10/4 94/117/4 92/118/4 93/119/4 91/120/4
f 94/117/4 79/10/4 83/8/4 91/120/4
f 81/11/21 85/6/21 83/8/21 79/12/21
f 86/5/19 82/32/19 80/33/19 84/7/19
f 94/121/18 87/122/18 89/123/18 92/124/18
f 93/125/20 88/126/20 90/127/20 91/128/20
f 91/128/19 90/127/19 87/129/19 94/130/19
f 89/131/21 88/126/21 93/125/21 92/132/21
