# Blender 4.0.2
# www.blender.org
mtllib IS2.mtl
o Cube.016
v -0.115776 0.907115 1.733651
v -0.115776 0.907115 1.520884
v -0.115776 1.008425 1.520884
v 0.115776 0.907115 1.733651
v 0.115776 0.907115 1.520884
v 0.115776 1.008425 1.520884
v -0.115776 0.962941 1.733651
v -0.115776 1.008425 1.602307
v 0.115776 1.008425 1.602307
v 0.115776 0.962941 1.733651
v 0.045889 1.008425 1.520884
v -0.045889 1.008425 1.520884
v -0.045889 1.008425 1.602307
v 0.045889 1.008425 1.602307
v -0.045889 0.957451 1.520884
v 0.045889 0.957451 1.520884
v -0.045889 0.962941 1.733651
v 0.045889 0.962941 1.733651
v -0.045889 0.957451 1.733651
v 0.045889 0.957451 1.733651
v 0.044653 1.108294 1.521999
v 0.044653 0.929461 1.521999
v 0.044653 1.108294 1.599824
v 0.044653 0.929461 1.599824
v -0.044653 1.108294 1.521999
v -0.044653 0.929461 1.521999
v -0.044653 1.108294 1.599824
v -0.044653 0.929461 1.599824
v 0.087039 1.160214 1.599824
v 0.087039 1.160214 1.521999
v -0.087039 1.160214 1.599824
v -0.087039 1.160214 1.521999
v 0.043693 1.208534 1.599824
v 0.043693 1.208534 1.521999
v -0.043693 1.208534 1.599824
v -0.043693 1.208534 1.521999
v 0.012371 1.108294 1.599824
v -0.000000 1.093818 1.599824
v -0.012371 1.108294 1.599824
v -0.012371 1.108294 1.521999
v -0.000000 1.093818 1.521999
v 0.012371 1.108294 1.521999
v 0.050198 1.160214 1.521999
v 0.053286 1.156172 1.521999
v -0.053286 1.156172 1.521999
v -0.050198 1.160214 1.521999
v 0.053286 1.156172 1.599824
v 0.050198 1.160214 1.599824
v -0.053286 1.156172 1.599824
v -0.050198 1.160214 1.599824
v 0.013289 1.208534 1.599824
v -0.013289 1.208534 1.599824
v -0.013289 1.208534 1.521999
v 0.013289 1.208534 1.521999
v -0.000000 1.095519 1.539274
v 0.000000 1.115342 1.549744
v 0.013022 1.095519 1.544668
v 0.005618 1.115342 1.552071
v 0.018416 1.095519 1.557690
v 0.007946 1.115342 1.557690
v 0.013022 1.095519 1.570711
v 0.005618 1.115342 1.563308
v -0.000000 1.095519 1.576105
v 0.000000 1.115342 1.565635
v -0.013022 1.095519 1.570711
v -0.005618 1.115342 1.563308
v -0.018416 1.095519 1.557690
v -0.007946 1.115342 1.557690
v -0.013022 1.095519 1.544668
v -0.005618 1.115342 1.552071
v 0.007416 1.115342 1.550273
v 0.000000 1.115342 1.547201
v 0.010488 1.115342 1.557690
v 0.007416 1.115342 1.565106
v 0.000000 1.115342 1.568178
v -0.007416 1.115342 1.565106
v -0.010488 1.115342 1.557690
v -0.007416 1.115342 1.550273
v 0.005618 1.160729 1.552071
v 0.000000 1.160729 1.549744
v 0.007946 1.160729 1.557690
v 0.005618 1.160729 1.563308
v 0.000000 1.160729 1.565635
v -0.005618 1.160729 1.563308
v -0.007946 1.160729 1.557690
v -0.005618 1.160729 1.552071
vn -0.0000 1.0000 -0.0000
vn -0.0000 -0.0000 -1.0000
vn -1.0000 -0.0000 -0.0000
vn -0.0000 -1.0000 -0.0000
vn 1.0000 -0.0000 -0.0000
vn -0.0000 0.9449 0.3272
vn -0.0000 -0.0000 1.0000
vn -0.7746 -0.6324 -0.0000
vn -0.7444 0.6678 -0.0000
vn 0.7746 -0.6324 -0.0000
vn 0.7444 0.6678 -0.0000
vn 0.7947 -0.6070 -0.0000
vn -0.7947 -0.6070 -0.0000
vn -0.7602 0.6497 -0.0000
vn 0.7602 0.6497 -0.0000
vn 0.3590 0.3466 -0.8666
vn 0.8666 0.3466 -0.3590
vn 0.8666 0.3466 0.3590
vn 0.3590 0.3466 0.8666
vn -0.3590 0.3466 0.8666
vn -0.8666 0.3466 0.3590
vn -0.9239 -0.0000 -0.3827
vn -0.8666 0.3466 -0.3590
vn -0.3590 0.3466 -0.8666
vn -0.3827 -0.0000 0.9239
vn 0.9239 -0.0000 0.3827
vn 0.3827 -0.0000 -0.9239
vn -0.3827 -0.0000 -0.9239
vn -0.9239 -0.0000 0.3827
vn 0.3827 -0.0000 0.9239
vn 0.9239 -0.0000 -0.3827
vt 0.875000 0.500000
vt 0.875000 0.654030
vt 0.818642 0.654030
vt 0.818642 0.500000
vt 0.681358 0.654030
vt 0.625000 0.654030
vt 0.625000 0.500000
vt 0.681358 0.500000
vt 0.625000 0.443642
vt 0.375000 0.500000
vt 0.375000 0.250000
vt 0.625000 0.250000
vt 0.625000 0.306358
vt 0.499214 0.306358
vt 0.499214 0.443642
vt 0.438611 0.000000
vt 0.625000 0.095970
vt 0.375000 0.000000
vt 0.125000 0.500000
vt 0.375000 0.750000
vt 0.125000 0.750000
vt 0.438611 0.750000
vt 0.625000 1.000000
vt 0.438611 1.000000
vt 0.438611 0.943642
vt 0.625000 0.943642
vt 0.438611 0.806358
vt 0.625000 0.750000
vt 0.625000 0.806358
vt 0.375000 1.000000
vt 0.432355 0.806358
vt 0.432355 0.943642
vt 0.439973 0.110793
vt 0.381998 0.050808
vt 0.375000 0.050808
vt 0.375000 0.147980
vt 0.439973 0.147980
vt 0.381998 0.699192
vt 0.439973 0.639207
vt 0.439973 0.602020
vt 0.375000 0.602020
vt 0.375000 0.699192
vt 0.125000 0.602020
vt 0.125000 0.699192
vt 0.625000 0.000000
vt 0.375000 0.340368
vt 0.395798 0.375000
vt 0.375000 0.409632
vt 0.375000 0.840368
vt 0.395798 0.875000
vt 0.375000 0.909632
vt 0.875000 0.750000
vt 0.375000 0.954814
vt 0.375000 0.947091
vt 0.375000 0.795186
vt 0.375000 0.802909
vt 0.375000 0.454814
vt 0.375000 0.447091
vt 0.375000 0.295186
vt 0.375000 0.302909
vt 0.288019 0.500000
vt 0.288019 0.750000
vt 0.211981 0.750000
vt 0.211981 0.500000
vt 0.375000 0.913019
vt 0.375000 0.836981
vt 0.375000 0.413019
vt 0.375000 0.336981
vt 0.608605 0.119590
vt 0.508384 0.119590
vt 0.500000 0.119590
vt 0.500000 0.194045
vt 0.508385 0.194044
vt 0.608605 0.194045
vt 0.608605 0.630410
vt 0.608605 0.555956
vt 0.508385 0.555955
vt 0.500000 0.555956
vt 0.500000 0.630410
vt 0.508385 0.630410
vt 0.404021 0.630410
vt 0.404021 0.555955
vt 0.375000 0.555956
vt 0.375000 0.630410
vt 0.375000 0.194044
vt 0.404021 0.194044
vt 0.404021 0.119590
vt 0.375000 0.119590
vt 1.000000 0.500000
vt 1.000000 1.000000
vt 0.875000 1.000000
vt 0.750000 1.000000
vt 0.750000 0.500000
vt 0.500000 1.000000
vt 0.500000 0.500000
vt 0.250000 1.000000
vt 0.250000 0.500000
vt 0.121436 0.378564
vt 0.068183 0.250000
vt 0.125000 1.000000
vt 0.000000 1.000000
vt 0.000000 0.500000
vt 0.750000 0.490000
vt 0.919706 0.419706
vt 0.990000 0.250000
vt 0.919706 0.080294
vt 0.750000 0.010000
vt 0.580294 0.080294
vt 0.510000 0.250000
vt 0.580294 0.419706
vt 0.250000 0.431817
vt 0.378564 0.378564
vt 0.419706 0.419706
vt 0.250000 0.490000
vt 0.431817 0.250000
vt 0.490000 0.250000
vt 0.378564 0.121436
vt 0.419706 0.080294
vt 0.250000 0.068183
vt 0.250000 0.010000
vt 0.121436 0.121436
vt 0.080294 0.080294
vt 0.010000 0.250000
vt 0.080294 0.419706
s 0
f 3/1/1 8/2/1 13/3/1 12/4/1
f 14/5/1 9/6/1 6/7/1 11/8/1
f 11/9/2 6/7/2 5/10/2 2/11/2 3/12/2 12/13/2 15/14/2 16/15/2
f 7/16/3 8/17/3 3/12/3 2/11/3 1/18/3
f 2/19/4 5/10/4 4/20/4 1/21/4
f 6/7/5 9/6/5 10/22/5 4/20/5 5/10/5
f 8/23/6 7/24/6 17/25/6 13/26/6
f 18/27/6 10/22/6 9/28/6 14/29/6
f 7/24/7 1/30/7 4/20/7 10/22/7 18/27/7 20/31/7 19/32/7 17/25/7
f 13/33/5 17/34/5 19/35/5 15/36/5 12/37/5
f 18/38/3 14/39/3 11/40/3 16/41/3 20/42/3
f 20/42/1 16/41/1 15/43/1 19/44/1
f 21/18/5 23/11/5 24/12/5 22/45/5
f 23/11/7 37/46/7 38/47/7 39/48/7 27/10/7 28/7/7 24/12/7
f 27/10/3 25/20/3 26/28/3 28/7/3
f 40/49/2 41/50/2 42/51/2 21/30/2 22/23/2 26/28/2 25/20/2
f 27/10/8 31/10/8 32/20/8 25/20/8
f 28/7/4 26/28/4 22/52/4 24/1/4
f 31/10/9 35/10/9 36/20/9 32/20/9
f 21/30/2 42/51/2 44/53/2 43/54/2 30/30/2
f 45/55/2 40/49/2 25/20/2 32/20/2 46/56/2
f 39/48/7 49/57/7 50/58/7 31/10/7 27/10/7
f 47/59/7 37/46/7 23/11/7 29/11/7 48/60/7
f 21/18/10 30/18/10 29/11/10 23/11/10
f 52/61/1 53/62/1 36/20/1 35/10/1
f 34/21/1 54/63/1 51/64/1 33/19/1
f 30/18/11 34/18/11 33/11/11 29/11/11
f 43/54/2 54/65/2 34/30/2 30/30/2
f 53/66/2 46/56/2 32/20/2 36/20/2
f 31/10/7 50/58/7 52/67/7 35/10/7
f 51/68/7 48/60/7 29/11/7 33/11/7
f 52/69/12 50/70/12 49/71/12 45/72/12 46/73/12 53/74/12
f 51/75/13 54/76/13 43/77/13 44/78/13 47/79/13 48/80/13
f 37/81/14 47/79/14 44/78/14 42/82/14 41/83/14 38/84/14
f 41/85/15 40/86/15 45/72/15 49/71/15 39/87/15 38/88/15
f 55/89/16 72/90/16 71/91/16 57/1/16
f 57/1/17 71/91/17 73/92/17 59/93/17
f 59/93/18 73/92/18 74/23/18 61/7/18
f 61/7/19 74/23/19 75/94/19 63/95/19
f 63/95/20 75/94/20 76/30/20 65/10/20
f 65/10/21 76/30/21 77/96/21 67/97/21
f 70/98/22 68/99/22 85/99/22 86/98/22
f 67/97/23 77/96/23 78/100/23 69/19/23
f 69/19/24 78/100/24 72/101/24 55/102/24
f 55/103/4 57/104/4 59/105/4 61/106/4 63/107/4 65/108/4 67/109/4 69/110/4
f 56/111/1 58/112/1 71/113/1 72/114/1
f 58/112/1 60/115/1 73/116/1 71/113/1
f 60/115/1 62/117/1 74/118/1 73/116/1
f 62/117/1 64/119/1 75/120/1 74/118/1
f 64/119/1 66/121/1 76/122/1 75/120/1
f 66/121/1 68/99/1 77/123/1 76/122/1
f 68/99/1 70/98/1 78/124/1 77/123/1
f 70/98/1 56/111/1 72/114/1 78/124/1
f 79/112/1 80/111/1 86/98/1 85/99/1 84/121/1 83/119/1 82/117/1 81/115/1
f 66/121/25 64/119/25 83/119/25 84/121/25
f 62/117/26 60/115/26 81/115/26 82/117/26
f 58/112/27 56/111/27 80/111/27 79/112/27
f 56/111/28 70/98/28 86/98/28 80/111/28
f 68/99/29 66/121/29 84/121/29 85/99/29
f 64/119/30 62/117/30 82/117/30 83/119/30
f 60/115/31 58/112/31 79/112/31 81/115/31
