# Blender 4.4.3
# www.blender.org
mtllib Glass.mtl
o Cylinder.005
v -1.061503 0.081735 1.414108
v -1.061503 0.083103 1.184093
v -1.050920 0.086119 1.414108
v -1.051887 0.087086 1.184093
v -1.046536 0.096702 1.414108
v -1.047904 0.096702 1.184093
v -1.050920 0.107285 1.414108
v -1.051887 0.106318 1.184093
v -1.061503 0.111669 1.414108
v -1.061503 0.110301 1.184093
v -1.072086 0.107285 1.414108
v -1.071119 0.106318 1.184093
v -1.076470 0.096702 1.414108
v -1.075101 0.096702 1.184093
v -1.072086 0.086119 1.414108
v -1.071119 0.087086 1.184093
v -1.061503 0.060522 1.411685
v -1.035920 0.071119 1.411685
v -1.025323 0.096702 1.411685
v -1.035920 0.122285 1.411685
v -1.061503 0.132882 1.411685
v -1.087086 0.122285 1.411685
v -1.097682 0.096702 1.411685
v -1.087086 0.071119 1.411685
v -1.039402 0.074602 1.186877
v -1.061503 0.065447 1.186877
v -1.030248 0.096702 1.186877
v -1.039402 0.118802 1.186877
v -1.061503 0.127957 1.186877
v -1.083603 0.118802 1.186877
v -1.092757 0.096702 1.186877
v -1.083603 0.074602 1.186877
vn 0.3826 -0.9237 -0.0202
vn 0.9237 -0.3826 -0.0202
vn 0.9237 0.3826 -0.0202
vn 0.3826 0.9237 -0.0202
vn -0.3826 0.9237 -0.0202
vn -0.9237 0.3826 -0.0202
vn -0.0000 -0.0000 -1.0000
vn -0.9237 -0.3826 -0.0202
vn -0.3826 -0.9237 -0.0202
vn -0.0000 -0.0000 1.0000
vn 0.0470 -0.1134 0.9924
vn 0.1134 -0.0470 0.9924
vn 0.1134 0.0470 0.9924
vn 0.0470 0.1134 0.9924
vn -0.0470 0.1134 0.9924
vn -0.1134 0.0470 0.9924
vn -0.1134 -0.0470 0.9924
vn -0.0470 -0.1134 0.9924
vn 0.0644 -0.1554 -0.9857
vn 0.1554 -0.0644 -0.9857
vn 0.1554 0.0644 -0.9857
vn 0.0644 0.1554 -0.9857
vn -0.0644 0.1554 -0.9857
vn -0.1554 0.0644 -0.9857
vn -0.1554 -0.0644 -0.9857
vn -0.0644 -0.1554 -0.9857
vt 1.000000 0.500000
vt 1.000000 1.000000
vt 0.875000 1.000000
vt 0.875000 0.500000
vt 0.750000 1.000000
vt 0.750000 0.500000
vt 0.625000 1.000000
vt 0.625000 0.500000
vt 0.500000 1.000000
vt 0.500000 0.500000
vt 0.375000 1.000000
vt 0.375000 0.500000
vt 0.250000 1.000000
vt 0.250000 0.500000
vt 0.323838 0.323838
vt 0.250000 0.354422
vt 0.176162 0.323838
vt 0.145578 0.250000
vt 0.176162 0.176162
vt 0.250000 0.145578
vt 0.323838 0.176162
vt 0.354422 0.250000
vt 0.125000 1.000000
vt 0.125000 0.500000
vt 0.000000 1.000000
vt 0.000000 0.500000
vt 0.750000 0.349284
vt 0.820204 0.320204
vt 0.849284 0.250000
vt 0.820204 0.179796
vt 0.750000 0.150716
vt 0.679796 0.179796
vt 0.650716 0.250000
vt 0.679796 0.320204
vt 0.750000 0.490000
vt 0.919706 0.419706
vt 0.990000 0.250000
vt 0.919706 0.080294
vt 0.750000 0.010000
vt 0.580294 0.080294
vt 0.510000 0.250000
vt 0.580294 0.419706
vt 0.419706 0.419706
vt 0.250000 0.490000
vt 0.490000 0.250000
vt 0.419706 0.080294
vt 0.250000 0.010000
vt 0.080294 0.080294
vt 0.010000 0.250000
vt 0.080294 0.419706
s 0
f 17/1/1 26/2/1 25/3/1 18/4/1
f 18/4/2 25/3/2 27/5/2 19/6/2
f 19/6/3 27/5/3 28/7/3 20/8/3
f 20/8/4 28/7/4 29/9/4 21/10/4
f 21/10/5 29/9/5 30/11/5 22/12/5
f 22/12/6 30/11/6 31/13/6 23/14/6
f 4/15/7 2/16/7 16/17/7 14/18/7 12/19/7 10/20/7 8/21/7 6/22/7
f 23/14/8 31/13/8 32/23/8 24/24/8
f 24/24/9 32/23/9 26/25/9 17/26/9
f 1/27/10 3/28/10 5/29/10 7/30/10 9/31/10 11/32/10 13/33/10 15/34/10
f 3/28/11 1/27/11 17/35/11 18/36/11
f 5/29/12 3/28/12 18/36/12 19/37/12
f 7/30/13 5/29/13 19/37/13 20/38/13
f 9/31/14 7/30/14 20/38/14 21/39/14
f 11/32/15 9/31/15 21/39/15 22/40/15
f 13/33/16 11/32/16 22/40/16 23/41/16
f 15/34/17 13/33/17 23/41/17 24/42/17
f 1/27/18 15/34/18 24/42/18 17/35/18
f 2/16/19 4/15/19 25/43/19 26/44/19
f 4/15/20 6/22/20 27/45/20 25/43/20
f 6/22/21 8/21/21 28/46/21 27/45/21
f 8/21/22 10/20/22 29/47/22 28/46/22
f 10/20/23 12/19/23 30/48/23 29/47/23
f 12/19/24 14/18/24 31/49/24 30/48/24
f 14/18/25 16/17/25 32/50/25 31/49/25
f 16/17/26 2/16/26 26/44/26 32/50/26
